<svg width="404" height="474" viewBox="0 0 404 474" fill="none" xmlns="http://www.w3.org/2000/svg">
<rect x="1.47852" y="0.000244141" width="402.418" height="471.952" rx="19" transform="rotate(0.179457 1.47852 0.000244141)" fill="#F0F8F7"/>
<path d="M47.6771 154.602L57.085 154.631C60.3063 154.641 62.7049 155.118 64.2806 156.062C65.8564 156.984 66.6405 158.64 66.633 161.029C66.6247 163.674 65.659 165.495 63.7359 166.492C61.941 167.404 59.4329 167.855 56.2116 167.844L55.9556 167.844L55.9288 176.42L59.9287 176.432L59.9268 177.04L47.6069 177.002L47.6088 176.394L49.6888 176.4L49.7551 155.216L47.6752 155.21L47.6771 154.602ZM55.9951 155.236L55.9575 167.236L56.6295 167.238C57.9095 167.242 58.7962 166.807 59.2896 165.934C59.783 165.061 60.0328 163.643 60.039 161.68L60.0438 160.144C60.0494 158.331 59.8188 157.061 59.3517 156.334C58.906 155.608 58.0751 155.242 56.8591 155.238L55.9951 155.236ZM70.0382 154.672L79.4462 154.701C82.6675 154.711 85.066 155.188 86.6417 156.132C88.2175 157.054 89.0017 158.71 88.9942 161.099C88.9859 163.744 88.0202 165.565 86.097 166.562C84.3022 167.474 81.7941 167.925 78.5728 167.915L78.3168 167.914L78.2899 176.49L82.2899 176.502L82.288 177.11L69.968 177.072L69.9699 176.464L72.0499 176.47L72.1163 155.286L70.0363 155.28L70.0382 154.672ZM78.3563 155.306L78.3187 167.306L78.9907 167.308C80.2707 167.312 81.1574 166.877 81.6508 166.004C82.1442 165.131 82.3939 163.713 82.4001 161.75L82.4049 160.214C82.4106 158.401 82.1799 157.131 81.7128 156.404C81.2671 155.678 80.4362 155.312 79.2203 155.308L78.3563 155.306ZM104.406 155.067C101.099 155.057 99.4359 158.241 99.4159 164.62L99.408 167.148C99.3985 170.177 99.8284 172.557 100.698 174.288C101.567 175.997 102.855 176.855 104.562 176.86C106.908 176.867 109.07 174.591 111.047 170.032L111.623 170.034L111.377 177.169L111.025 177.168C110.897 176.933 110.781 176.773 110.674 176.687C110.568 176.58 110.408 176.526 110.195 176.526C110.003 176.525 109.234 176.693 107.889 177.03C106.544 177.346 105.178 177.502 103.792 177.498C100.314 177.487 97.6186 176.54 95.7045 174.656C93.8117 172.773 92.8712 169.954 92.883 166.199C92.8948 162.423 93.8959 159.514 95.8863 157.473C97.898 155.431 100.589 154.415 103.96 154.426C105.261 154.43 106.53 154.605 107.766 154.95C109.024 155.274 109.759 155.436 109.973 155.437C110.186 155.437 110.346 155.395 110.453 155.31C110.56 155.204 110.678 155.034 110.807 154.799L111.159 154.801L111.393 161.745L110.817 161.743C109.864 159.586 108.877 157.94 107.856 156.806C106.857 155.651 105.707 155.071 104.406 155.067Z" fill="#3B9D91"/>
<circle cx="28.7245" cy="46.5172" r="1.52321" transform="rotate(0.179457 28.7245 46.5172)" fill="#3B9D91"/>
<circle cx="43.4022" cy="46.5629" r="1.52321" transform="rotate(0.179457 43.4022 46.5629)" fill="#3B9D91"/>
<circle cx="58.0809" cy="46.6088" r="1.52321" transform="rotate(0.179457 58.0809 46.6088)" fill="#3B9D91"/>
<circle cx="72.7587" cy="46.6549" r="1.52321" transform="rotate(0.179457 72.7587 46.6549)" fill="#3B9D91"/>
<circle cx="87.4374" cy="46.7008" r="1.52321" transform="rotate(0.179457 87.4374 46.7008)" fill="#3B9D91"/>
<circle cx="102.114" cy="46.7467" r="1.52321" transform="rotate(0.179457 102.114 46.7467)" fill="#3B9D91"/>
<circle cx="116.793" cy="46.7929" r="1.52321" transform="rotate(0.179457 116.793 46.7929)" fill="#3B9D91"/>
<circle cx="131.471" cy="46.8388" r="1.52321" transform="rotate(0.179457 131.471 46.8388)" fill="#3B9D91"/>
<circle cx="146.148" cy="46.8847" r="1.52321" transform="rotate(0.179457 146.148 46.8847)" fill="#3B9D91"/>
<circle cx="160.827" cy="46.9306" r="1.52321" transform="rotate(0.179457 160.827 46.9306)" fill="#3B9D91"/>
<circle cx="174.121" cy="46.9723" r="1.52321" transform="rotate(0.179457 174.121 46.9723)" fill="#3B9D91"/>
<circle cx="188.799" cy="47.0182" r="1.52321" transform="rotate(0.179457 188.799 47.0182)" fill="#3B9D91"/>
<circle cx="203.476" cy="47.0643" r="1.52321" transform="rotate(0.179457 203.476 47.0643)" fill="#3B9D91"/>
<circle cx="218.155" cy="47.1102" r="1.52321" transform="rotate(0.179457 218.155 47.1102)" fill="#3B9D91"/>
<circle cx="232.833" cy="47.1561" r="1.52321" transform="rotate(0.179457 232.833 47.1561)" fill="#3B9D91"/>
<circle cx="247.512" cy="47.2023" r="1.52321" transform="rotate(0.179457 247.512 47.2023)" fill="#3B9D91"/>
<circle cx="262.188" cy="47.2482" r="1.52321" transform="rotate(0.179457 262.188 47.2482)" fill="#3B9D91"/>
<circle cx="276.867" cy="47.2941" r="1.52321" transform="rotate(0.179457 276.867 47.2941)" fill="#3B9D91"/>
<circle cx="291.545" cy="47.34" r="1.52321" transform="rotate(0.179457 291.545 47.34)" fill="#3B9D91"/>
<circle cx="306.224" cy="47.3861" r="1.52321" transform="rotate(0.179457 306.224 47.3861)" fill="#3B9D91"/>
<circle cx="320.901" cy="47.432" r="1.52321" transform="rotate(0.179457 320.901 47.432)" fill="#3B9D91"/>
<circle cx="335.579" cy="47.4779" r="1.52321" transform="rotate(0.179457 335.579 47.4779)" fill="#3B9D91"/>
<circle cx="350.258" cy="47.5241" r="1.52321" transform="rotate(0.179457 350.258 47.5241)" fill="#3B9D91"/>
<circle cx="364.935" cy="47.57" r="1.52321" transform="rotate(0.179457 364.935 47.57)" fill="#3B9D91"/>
<circle cx="379.614" cy="47.6159" r="1.52321" transform="rotate(0.179457 379.614 47.6159)" fill="#3B9D91"/>
<circle cx="28.6815" cy="60.0873" r="1.52321" transform="rotate(0.179457 28.6815 60.0873)" fill="#3B9D91"/>
<circle cx="43.3592" cy="60.1334" r="1.52321" transform="rotate(0.179457 43.3592 60.1334)" fill="#3B9D91"/>
<circle cx="58.038" cy="60.1793" r="1.52321" transform="rotate(0.179457 58.038 60.1793)" fill="#3B9D91"/>
<circle cx="72.7157" cy="60.2252" r="1.52321" transform="rotate(0.179457 72.7157 60.2252)" fill="#3B9D91"/>
<circle cx="87.3944" cy="60.2714" r="1.52321" transform="rotate(0.179457 87.3944 60.2714)" fill="#3B9D91"/>
<circle cx="102.071" cy="60.3173" r="1.52321" transform="rotate(0.179457 102.071 60.3173)" fill="#3B9D91"/>
<circle cx="116.75" cy="60.3632" r="1.52321" transform="rotate(0.179457 116.75 60.3632)" fill="#3B9D91"/>
<circle cx="131.428" cy="60.4093" r="1.52321" transform="rotate(0.179457 131.428 60.4093)" fill="#3B9D91"/>
<circle cx="146.105" cy="60.4552" r="1.52321" transform="rotate(0.179457 146.105 60.4552)" fill="#3B9D91"/>
<circle cx="160.784" cy="60.5011" r="1.52321" transform="rotate(0.179457 160.784 60.5011)" fill="#3B9D91"/>
<circle cx="174.078" cy="60.5429" r="1.52321" transform="rotate(0.179457 174.078 60.5429)" fill="#3B9D91"/>
<circle cx="188.756" cy="60.5888" r="1.52321" transform="rotate(0.179457 188.756 60.5888)" fill="#3B9D91"/>
<circle cx="203.433" cy="60.6347" r="1.52321" transform="rotate(0.179457 203.433 60.6347)" fill="#3B9D91"/>
<circle cx="218.111" cy="60.6808" r="1.52321" transform="rotate(0.179457 218.111 60.6808)" fill="#3B9D91"/>
<circle cx="232.79" cy="60.7267" r="1.52321" transform="rotate(0.179457 232.79 60.7267)" fill="#3B9D91"/>
<circle cx="247.468" cy="60.7726" r="1.52321" transform="rotate(0.179457 247.468 60.7726)" fill="#3B9D91"/>
<circle cx="262.145" cy="60.8187" r="1.52321" transform="rotate(0.179457 262.145 60.8187)" fill="#3B9D91"/>
<circle cx="276.824" cy="60.8646" r="1.52321" transform="rotate(0.179457 276.824 60.8646)" fill="#3B9D91"/>
<circle cx="291.502" cy="60.9105" r="1.52321" transform="rotate(0.179457 291.502 60.9105)" fill="#3B9D91"/>
<circle cx="306.181" cy="60.9564" r="1.52321" transform="rotate(0.179457 306.181 60.9564)" fill="#3B9D91"/>
<circle cx="320.858" cy="61.0026" r="1.52321" transform="rotate(0.179457 320.858 61.0026)" fill="#3B9D91"/>
<circle cx="335.536" cy="61.0485" r="1.52321" transform="rotate(0.179457 335.536 61.0485)" fill="#3B9D91"/>
<circle cx="350.215" cy="61.0944" r="1.52321" transform="rotate(0.179457 350.215 61.0944)" fill="#3B9D91"/>
<circle cx="364.892" cy="61.1405" r="1.52321" transform="rotate(0.179457 364.892 61.1405)" fill="#3B9D91"/>
<circle cx="379.571" cy="61.1864" r="1.52321" transform="rotate(0.179457 379.571 61.1864)" fill="#3B9D91"/>
<circle cx="28.6395" cy="73.6574" r="1.52321" transform="rotate(0.179457 28.6395 73.6574)" fill="#3B9D91"/>
<circle cx="43.3173" cy="73.7033" r="1.52321" transform="rotate(0.179457 43.3173 73.7033)" fill="#3B9D91"/>
<circle cx="57.996" cy="73.7492" r="1.52321" transform="rotate(0.179457 57.996 73.7492)" fill="#3B9D91"/>
<circle cx="72.6737" cy="73.7953" r="1.52321" transform="rotate(0.179457 72.6737 73.7953)" fill="#3B9D91"/>
<circle cx="87.3524" cy="73.8412" r="1.52321" transform="rotate(0.179457 87.3524 73.8412)" fill="#3B9D91"/>
<circle cx="102.029" cy="73.8871" r="1.52321" transform="rotate(0.179457 102.029 73.8871)" fill="#3B9D91"/>
<circle cx="116.708" cy="73.9332" r="1.52321" transform="rotate(0.179457 116.708 73.9332)" fill="#3B9D91"/>
<circle cx="131.386" cy="73.9791" r="1.52321" transform="rotate(0.179457 131.386 73.9791)" fill="#3B9D91"/>
<circle cx="146.063" cy="74.025" r="1.52321" transform="rotate(0.179457 146.063 74.025)" fill="#3B9D91"/>
<circle cx="160.742" cy="74.0712" r="1.52321" transform="rotate(0.179457 160.742 74.0712)" fill="#3B9D91"/>
<circle cx="174.036" cy="74.1127" r="1.52321" transform="rotate(0.179457 174.036 74.1127)" fill="#3B9D91"/>
<circle cx="188.714" cy="74.1586" r="1.52321" transform="rotate(0.179457 188.714 74.1586)" fill="#3B9D91"/>
<circle cx="203.391" cy="74.2047" r="1.52321" transform="rotate(0.179457 203.391 74.2047)" fill="#3B9D91"/>
<circle cx="218.069" cy="74.2506" r="1.52321" transform="rotate(0.179457 218.069 74.2506)" fill="#3B9D91"/>
<circle cx="232.748" cy="74.2965" r="1.52321" transform="rotate(0.179457 232.748 74.2965)" fill="#3B9D91"/>
<circle cx="247.426" cy="74.3427" r="1.52321" transform="rotate(0.179457 247.426 74.3427)" fill="#3B9D91"/>
<circle cx="262.103" cy="74.3886" r="1.52321" transform="rotate(0.179457 262.103 74.3886)" fill="#3B9D91"/>
<circle cx="276.782" cy="74.4345" r="1.52321" transform="rotate(0.179457 276.782 74.4345)" fill="#3B9D91"/>
<circle cx="291.46" cy="74.4806" r="1.52321" transform="rotate(0.179457 291.46 74.4806)" fill="#3B9D91"/>
<circle cx="306.139" cy="74.5265" r="1.52321" transform="rotate(0.179457 306.139 74.5265)" fill="#3B9D91"/>
<circle cx="320.816" cy="74.5724" r="1.52321" transform="rotate(0.179457 320.816 74.5724)" fill="#3B9D91"/>
<circle cx="335.494" cy="74.6183" r="1.52321" transform="rotate(0.179457 335.494 74.6183)" fill="#3B9D91"/>
<circle cx="350.173" cy="74.6644" r="1.52321" transform="rotate(0.179457 350.173 74.6644)" fill="#3B9D91"/>
<circle cx="364.85" cy="74.7103" r="1.52321" transform="rotate(0.179457 364.85 74.7103)" fill="#3B9D91"/>
<circle cx="379.529" cy="74.7562" r="1.52321" transform="rotate(0.179457 379.529 74.7562)" fill="#3B9D91"/>
<circle cx="28.5966" cy="87.2279" r="1.52321" transform="rotate(0.179457 28.5966 87.2279)" fill="#3B9D91"/>
<circle cx="43.2743" cy="87.2741" r="1.52321" transform="rotate(0.179457 43.2743 87.2741)" fill="#3B9D91"/>
<circle cx="57.953" cy="87.32" r="1.52321" transform="rotate(0.179457 57.953 87.32)" fill="#3B9D91"/>
<circle cx="72.6307" cy="87.3659" r="1.52321" transform="rotate(0.179457 72.6307 87.3659)" fill="#3B9D91"/>
<circle cx="87.3094" cy="87.412" r="1.52321" transform="rotate(0.179457 87.3094 87.412)" fill="#3B9D91"/>
<circle cx="101.986" cy="87.4579" r="1.52321" transform="rotate(0.179457 101.986 87.4579)" fill="#3B9D91"/>
<circle cx="116.665" cy="87.5038" r="1.52321" transform="rotate(0.179457 116.665 87.5038)" fill="#3B9D91"/>
<circle cx="131.343" cy="87.5499" r="1.52321" transform="rotate(0.179457 131.343 87.5499)" fill="#3B9D91"/>
<circle cx="146.02" cy="87.5958" r="1.52321" transform="rotate(0.179457 146.02 87.5958)" fill="#3B9D91"/>
<circle cx="160.699" cy="87.6417" r="1.52321" transform="rotate(0.179457 160.699 87.6417)" fill="#3B9D91"/>
<circle cx="173.993" cy="87.6835" r="1.52321" transform="rotate(0.179457 173.993 87.6835)" fill="#3B9D91"/>
<circle cx="188.671" cy="87.7294" r="1.52321" transform="rotate(0.179457 188.671 87.7294)" fill="#3B9D91"/>
<circle cx="203.349" cy="87.7753" r="1.52321" transform="rotate(0.179457 203.349 87.7753)" fill="#3B9D91"/>
<circle cx="218.026" cy="87.8214" r="1.52321" transform="rotate(0.179457 218.026 87.8214)" fill="#3B9D91"/>
<circle cx="232.705" cy="87.8673" r="1.52321" transform="rotate(0.179457 232.705 87.8673)" fill="#3B9D91"/>
<circle cx="247.383" cy="87.9132" r="1.52321" transform="rotate(0.179457 247.383 87.9132)" fill="#3B9D91"/>
<circle cx="262.06" cy="87.9594" r="1.52321" transform="rotate(0.179457 262.06 87.9594)" fill="#3B9D91"/>
<circle cx="276.739" cy="88.0053" r="1.52321" transform="rotate(0.179457 276.739 88.0053)" fill="#3B9D91"/>
<circle cx="291.417" cy="88.0512" r="1.52321" transform="rotate(0.179457 291.417 88.0512)" fill="#3B9D91"/>
<circle cx="306.096" cy="88.0973" r="1.52321" transform="rotate(0.179457 306.096 88.0973)" fill="#3B9D91"/>
<circle cx="320.773" cy="88.1432" r="1.52321" transform="rotate(0.179457 320.773 88.1432)" fill="#3B9D91"/>
<circle cx="335.451" cy="88.1891" r="1.52321" transform="rotate(0.179457 335.451 88.1891)" fill="#3B9D91"/>
<circle cx="350.13" cy="88.2352" r="1.52321" transform="rotate(0.179457 350.13 88.2352)" fill="#3B9D91"/>
<circle cx="364.807" cy="88.2811" r="1.52321" transform="rotate(0.179457 364.807 88.2811)" fill="#3B9D91"/>
<circle cx="379.486" cy="88.327" r="1.52321" transform="rotate(0.179457 379.486 88.327)" fill="#3B9D91"/>
<circle cx="28.5546" cy="100.798" r="1.52321" transform="rotate(0.179457 28.5546 100.798)" fill="#3B9D91"/>
<circle cx="43.2323" cy="100.844" r="1.52321" transform="rotate(0.179457 43.2323 100.844)" fill="#3B9D91"/>
<circle cx="57.911" cy="100.89" r="1.52321" transform="rotate(0.179457 57.911 100.89)" fill="#3B9D91"/>
<circle cx="72.5887" cy="100.936" r="1.52321" transform="rotate(0.179457 72.5887 100.936)" fill="#3B9D91"/>
<circle cx="87.2674" cy="100.982" r="1.52321" transform="rotate(0.179457 87.2674 100.982)" fill="#3B9D91"/>
<circle cx="101.944" cy="101.028" r="1.52321" transform="rotate(0.179457 101.944 101.028)" fill="#3B9D91"/>
<circle cx="116.623" cy="101.074" r="1.52321" transform="rotate(0.179457 116.623 101.074)" fill="#3B9D91"/>
<circle cx="131.301" cy="101.12" r="1.52321" transform="rotate(0.179457 131.301 101.12)" fill="#3B9D91"/>
<circle cx="145.978" cy="101.166" r="1.52321" transform="rotate(0.179457 145.978 101.166)" fill="#3B9D91"/>
<circle cx="160.657" cy="101.212" r="1.52321" transform="rotate(0.179457 160.657 101.212)" fill="#3B9D91"/>
<circle cx="173.951" cy="101.253" r="1.52321" transform="rotate(0.179457 173.951 101.253)" fill="#3B9D91"/>
<circle cx="188.629" cy="101.299" r="1.52321" transform="rotate(0.179457 188.629 101.299)" fill="#3B9D91"/>
<circle cx="203.307" cy="101.345" r="1.52321" transform="rotate(0.179457 203.307 101.345)" fill="#3B9D91"/>
<circle cx="217.984" cy="101.391" r="1.52321" transform="rotate(0.179457 217.984 101.391)" fill="#3B9D91"/>
<circle cx="232.663" cy="101.437" r="1.52321" transform="rotate(0.179457 232.663 101.437)" fill="#3B9D91"/>
<circle cx="247.341" cy="101.483" r="1.52321" transform="rotate(0.179457 247.341 101.483)" fill="#3B9D91"/>
<circle cx="262.018" cy="101.529" r="1.52321" transform="rotate(0.179457 262.018 101.529)" fill="#3B9D91"/>
<circle cx="276.697" cy="101.575" r="1.52321" transform="rotate(0.179457 276.697 101.575)" fill="#3B9D91"/>
<circle cx="291.375" cy="101.621" r="1.52321" transform="rotate(0.179457 291.375 101.621)" fill="#3B9D91"/>
<circle cx="306.054" cy="101.667" r="1.52321" transform="rotate(0.179457 306.054 101.667)" fill="#3B9D91"/>
<circle cx="320.731" cy="101.713" r="1.52321" transform="rotate(0.179457 320.731 101.713)" fill="#3B9D91"/>
<circle cx="335.409" cy="101.759" r="1.52321" transform="rotate(0.179457 335.409 101.759)" fill="#3B9D91"/>
<circle cx="350.088" cy="101.805" r="1.52321" transform="rotate(0.179457 350.088 101.805)" fill="#3B9D91"/>
<circle cx="364.766" cy="101.851" r="1.52321" transform="rotate(0.179457 364.766 101.851)" fill="#3B9D91"/>
<circle cx="379.444" cy="101.897" r="1.52321" transform="rotate(0.179457 379.444 101.897)" fill="#3B9D91"/>
<circle cx="28.5116" cy="114.369" r="1.52321" transform="rotate(0.179457 28.5116 114.369)" fill="#3B9D91"/>
<circle cx="43.1893" cy="114.415" r="1.52321" transform="rotate(0.179457 43.1893 114.415)" fill="#3B9D91"/>
<circle cx="57.868" cy="114.461" r="1.52321" transform="rotate(0.179457 57.868 114.461)" fill="#3B9D91"/>
<circle cx="72.5458" cy="114.507" r="1.52321" transform="rotate(0.179457 72.5458 114.507)" fill="#3B9D91"/>
<circle cx="87.2245" cy="114.553" r="1.52321" transform="rotate(0.179457 87.2245 114.553)" fill="#3B9D91"/>
<circle cx="101.901" cy="114.599" r="1.52321" transform="rotate(0.179457 101.901 114.599)" fill="#3B9D91"/>
<circle cx="116.58" cy="114.645" r="1.52321" transform="rotate(0.179457 116.58 114.645)" fill="#3B9D91"/>
<circle cx="131.258" cy="114.691" r="1.52321" transform="rotate(0.179457 131.258 114.691)" fill="#3B9D91"/>
<circle cx="145.935" cy="114.736" r="1.52321" transform="rotate(0.179457 145.935 114.736)" fill="#3B9D91"/>
<circle cx="160.614" cy="114.783" r="1.52321" transform="rotate(0.179457 160.614 114.783)" fill="#3B9D91"/>
<circle cx="173.908" cy="114.824" r="1.52321" transform="rotate(0.179457 173.908 114.824)" fill="#3B9D91"/>
<circle cx="188.586" cy="114.87" r="1.52321" transform="rotate(0.179457 188.586 114.87)" fill="#3B9D91"/>
<circle cx="203.264" cy="114.916" r="1.52321" transform="rotate(0.179457 203.264 114.916)" fill="#3B9D91"/>
<circle cx="217.941" cy="114.962" r="1.52321" transform="rotate(0.179457 217.941 114.962)" fill="#3B9D91"/>
<circle cx="232.62" cy="115.008" r="1.52321" transform="rotate(0.179457 232.62 115.008)" fill="#3B9D91"/>
<circle cx="247.298" cy="115.054" r="1.52321" transform="rotate(0.179457 247.298 115.054)" fill="#3B9D91"/>
<circle cx="261.975" cy="115.1" r="1.52321" transform="rotate(0.179457 261.975 115.1)" fill="#3B9D91"/>
<circle cx="276.654" cy="115.146" r="1.52321" transform="rotate(0.179457 276.654 115.146)" fill="#3B9D91"/>
<circle cx="291.332" cy="115.192" r="1.52321" transform="rotate(0.179457 291.332 115.192)" fill="#3B9D91"/>
<circle cx="306.011" cy="115.238" r="1.52321" transform="rotate(0.179457 306.011 115.238)" fill="#3B9D91"/>
<circle cx="320.688" cy="115.284" r="1.52321" transform="rotate(0.179457 320.688 115.284)" fill="#3B9D91"/>
<circle cx="335.366" cy="115.33" r="1.52321" transform="rotate(0.179457 335.366 115.33)" fill="#3B9D91"/>
<circle cx="350.045" cy="115.376" r="1.52321" transform="rotate(0.179457 350.045 115.376)" fill="#3B9D91"/>
<circle cx="364.723" cy="115.422" r="1.52321" transform="rotate(0.179457 364.723 115.422)" fill="#3B9D91"/>
<circle cx="379.401" cy="115.468" r="1.52321" transform="rotate(0.179457 379.401 115.468)" fill="#3B9D91"/>
<circle cx="27.7323" cy="363.342" r="1.52321" transform="rotate(0.179457 27.7323 363.342)" fill="#3B9D91"/>
<circle cx="42.41" cy="363.388" r="1.52321" transform="rotate(0.179457 42.41 363.388)" fill="#3B9D91"/>
<circle cx="57.0887" cy="363.434" r="1.52321" transform="rotate(0.179457 57.0887 363.434)" fill="#3B9D91"/>
<circle cx="71.7665" cy="363.48" r="1.52321" transform="rotate(0.179457 71.7665 363.48)" fill="#3B9D91"/>
<circle cx="86.4442" cy="363.526" r="1.52321" transform="rotate(0.179457 86.4442 363.526)" fill="#3B9D91"/>
<circle cx="101.122" cy="363.572" r="1.52321" transform="rotate(0.179457 101.122 363.572)" fill="#3B9D91"/>
<circle cx="115.801" cy="363.618" r="1.52321" transform="rotate(0.179457 115.801 363.618)" fill="#3B9D91"/>
<circle cx="130.478" cy="363.664" r="1.52321" transform="rotate(0.179457 130.478 363.664)" fill="#3B9D91"/>
<circle cx="145.156" cy="363.71" r="1.52321" transform="rotate(0.179457 145.156 363.71)" fill="#3B9D91"/>
<circle cx="159.835" cy="363.756" r="1.52321" transform="rotate(0.179457 159.835 363.756)" fill="#3B9D91"/>
<circle cx="173.128" cy="363.798" r="1.52321" transform="rotate(0.179457 173.128 363.798)" fill="#3B9D91"/>
<circle cx="187.806" cy="363.844" r="1.52321" transform="rotate(0.179457 187.806 363.844)" fill="#3B9D91"/>
<circle cx="202.484" cy="363.89" r="1.52321" transform="rotate(0.179457 202.484 363.89)" fill="#3B9D91"/>
<circle cx="217.162" cy="363.935" r="1.52321" transform="rotate(0.179457 217.162 363.935)" fill="#3B9D91"/>
<circle cx="231.841" cy="363.982" r="1.52321" transform="rotate(0.179457 231.841 363.982)" fill="#3B9D91"/>
<circle cx="246.518" cy="364.027" r="1.52321" transform="rotate(0.179457 246.518 364.027)" fill="#3B9D91"/>
<circle cx="261.196" cy="364.073" r="1.52321" transform="rotate(0.179457 261.196 364.073)" fill="#3B9D91"/>
<circle cx="275.875" cy="364.12" r="1.52321" transform="rotate(0.179457 275.875 364.12)" fill="#3B9D91"/>
<circle cx="290.553" cy="364.165" r="1.52321" transform="rotate(0.179457 290.553 364.165)" fill="#3B9D91"/>
<circle cx="305.231" cy="364.211" r="1.52321" transform="rotate(0.179457 305.231 364.211)" fill="#3B9D91"/>
<circle cx="319.909" cy="364.257" r="1.52321" transform="rotate(0.179457 319.909 364.257)" fill="#3B9D91"/>
<circle cx="334.587" cy="364.303" r="1.52321" transform="rotate(0.179457 334.587 364.303)" fill="#3B9D91"/>
<circle cx="349.266" cy="364.349" r="1.52321" transform="rotate(0.179457 349.266 364.349)" fill="#3B9D91"/>
<circle cx="363.943" cy="364.395" r="1.52321" transform="rotate(0.179457 363.943 364.395)" fill="#3B9D91"/>
<circle cx="378.622" cy="364.441" r="1.52321" transform="rotate(0.179457 378.622 364.441)" fill="#3B9D91"/>
<circle cx="27.6923" cy="376.082" r="1.52321" transform="rotate(0.179457 27.6923 376.082)" fill="#3B9D91"/>
<circle cx="42.37" cy="376.128" r="1.52321" transform="rotate(0.179457 42.37 376.128)" fill="#3B9D91"/>
<circle cx="57.0487" cy="376.174" r="1.52321" transform="rotate(0.179457 57.0487 376.174)" fill="#3B9D91"/>
<circle cx="71.7264" cy="376.22" r="1.52321" transform="rotate(0.179457 71.7264 376.22)" fill="#3B9D91"/>
<circle cx="86.4051" cy="376.266" r="1.52321" transform="rotate(0.179457 86.4051 376.266)" fill="#3B9D91"/>
<circle cx="101.082" cy="376.312" r="1.52321" transform="rotate(0.179457 101.082 376.312)" fill="#3B9D91"/>
<circle cx="115.761" cy="376.358" r="1.52321" transform="rotate(0.179457 115.761 376.358)" fill="#3B9D91"/>
<circle cx="130.438" cy="376.404" r="1.52321" transform="rotate(0.179457 130.438 376.404)" fill="#3B9D91"/>
<circle cx="145.116" cy="376.45" r="1.52321" transform="rotate(0.179457 145.116 376.45)" fill="#3B9D91"/>
<circle cx="159.795" cy="376.496" r="1.52321" transform="rotate(0.179457 159.795 376.496)" fill="#3B9D91"/>
<circle cx="173.089" cy="376.537" r="1.52321" transform="rotate(0.179457 173.089 376.537)" fill="#3B9D91"/>
<circle cx="187.766" cy="376.583" r="1.52321" transform="rotate(0.179457 187.766 376.583)" fill="#3B9D91"/>
<circle cx="202.444" cy="376.629" r="1.52321" transform="rotate(0.179457 202.444 376.629)" fill="#3B9D91"/>
<circle cx="217.122" cy="376.675" r="1.52321" transform="rotate(0.179457 217.122 376.675)" fill="#3B9D91"/>
<circle cx="231.801" cy="376.721" r="1.52321" transform="rotate(0.179457 231.801 376.721)" fill="#3B9D91"/>
<circle cx="246.478" cy="376.767" r="1.52321" transform="rotate(0.179457 246.478 376.767)" fill="#3B9D91"/>
<circle cx="261.156" cy="376.813" r="1.52321" transform="rotate(0.179457 261.156 376.813)" fill="#3B9D91"/>
<circle cx="275.835" cy="376.859" r="1.52321" transform="rotate(0.179457 275.835 376.859)" fill="#3B9D91"/>
<circle cx="290.513" cy="376.905" r="1.52321" transform="rotate(0.179457 290.513 376.905)" fill="#3B9D91"/>
<circle cx="305.191" cy="376.951" r="1.52321" transform="rotate(0.179457 305.191 376.951)" fill="#3B9D91"/>
<circle cx="319.869" cy="376.997" r="1.52321" transform="rotate(0.179457 319.869 376.997)" fill="#3B9D91"/>
<circle cx="334.547" cy="377.043" r="1.52321" transform="rotate(0.179457 334.547 377.043)" fill="#3B9D91"/>
<circle cx="349.225" cy="377.089" r="1.52321" transform="rotate(0.179457 349.225 377.089)" fill="#3B9D91"/>
<circle cx="363.903" cy="377.135" r="1.52321" transform="rotate(0.179457 363.903 377.135)" fill="#3B9D91"/>
<circle cx="378.582" cy="377.181" r="1.52321" transform="rotate(0.179457 378.582 377.181)" fill="#3B9D91"/>
<circle cx="27.6522" cy="388.821" r="1.52321" transform="rotate(0.179457 27.6522 388.821)" fill="#3B9D91"/>
<circle cx="42.33" cy="388.867" r="1.52321" transform="rotate(0.179457 42.33 388.867)" fill="#3B9D91"/>
<circle cx="57.0087" cy="388.913" r="1.52321" transform="rotate(0.179457 57.0087 388.913)" fill="#3B9D91"/>
<circle cx="71.6864" cy="388.959" r="1.52321" transform="rotate(0.179457 71.6864 388.959)" fill="#3B9D91"/>
<circle cx="86.3651" cy="389.005" r="1.52321" transform="rotate(0.179457 86.3651 389.005)" fill="#3B9D91"/>
<circle cx="101.042" cy="389.051" r="1.52321" transform="rotate(0.179457 101.042 389.051)" fill="#3B9D91"/>
<circle cx="115.721" cy="389.097" r="1.52321" transform="rotate(0.179457 115.721 389.097)" fill="#3B9D91"/>
<circle cx="130.398" cy="389.143" r="1.52321" transform="rotate(0.179457 130.398 389.143)" fill="#3B9D91"/>
<circle cx="145.076" cy="389.189" r="1.52321" transform="rotate(0.179457 145.076 389.189)" fill="#3B9D91"/>
<circle cx="159.755" cy="389.235" r="1.52321" transform="rotate(0.179457 159.755 389.235)" fill="#3B9D91"/>
<circle cx="173.049" cy="389.276" r="1.52321" transform="rotate(0.179457 173.049 389.276)" fill="#3B9D91"/>
<circle cx="187.726" cy="389.322" r="1.52321" transform="rotate(0.179457 187.726 389.322)" fill="#3B9D91"/>
<circle cx="202.404" cy="389.368" r="1.52321" transform="rotate(0.179457 202.404 389.368)" fill="#3B9D91"/>
<circle cx="217.082" cy="389.414" r="1.52321" transform="rotate(0.179457 217.082 389.414)" fill="#3B9D91"/>
<circle cx="231.761" cy="389.46" r="1.52321" transform="rotate(0.179457 231.761 389.46)" fill="#3B9D91"/>
<circle cx="246.438" cy="389.506" r="1.52321" transform="rotate(0.179457 246.438 389.506)" fill="#3B9D91"/>
<circle cx="261.116" cy="389.552" r="1.52321" transform="rotate(0.179457 261.116 389.552)" fill="#3B9D91"/>
<circle cx="275.795" cy="389.598" r="1.52321" transform="rotate(0.179457 275.795 389.598)" fill="#3B9D91"/>
<circle cx="290.473" cy="389.644" r="1.52321" transform="rotate(0.179457 290.473 389.644)" fill="#3B9D91"/>
<circle cx="305.151" cy="389.69" r="1.52321" transform="rotate(0.179457 305.151 389.69)" fill="#3B9D91"/>
<circle cx="319.829" cy="389.736" r="1.52321" transform="rotate(0.179457 319.829 389.736)" fill="#3B9D91"/>
<circle cx="334.507" cy="389.782" r="1.52321" transform="rotate(0.179457 334.507 389.782)" fill="#3B9D91"/>
<circle cx="349.185" cy="389.828" r="1.52321" transform="rotate(0.179457 349.185 389.828)" fill="#3B9D91"/>
<circle cx="363.863" cy="389.874" r="1.52321" transform="rotate(0.179457 363.863 389.874)" fill="#3B9D91"/>
<circle cx="378.542" cy="389.92" r="1.52321" transform="rotate(0.179457 378.542 389.92)" fill="#3B9D91"/>
<circle cx="27.6122" cy="401.561" r="1.52321" transform="rotate(0.179457 27.6122 401.561)" fill="#3B9D91"/>
<circle cx="42.2899" cy="401.607" r="1.52321" transform="rotate(0.179457 42.2899 401.607)" fill="#3B9D91"/>
<circle cx="56.9686" cy="401.653" r="1.52321" transform="rotate(0.179457 56.9686 401.653)" fill="#3B9D91"/>
<circle cx="71.6464" cy="401.699" r="1.52321" transform="rotate(0.179457 71.6464 401.699)" fill="#3B9D91"/>
<circle cx="86.3251" cy="401.745" r="1.52321" transform="rotate(0.179457 86.3251 401.745)" fill="#3B9D91"/>
<circle cx="101.002" cy="401.791" r="1.52321" transform="rotate(0.179457 101.002 401.791)" fill="#3B9D91"/>
<circle cx="115.681" cy="401.837" r="1.52321" transform="rotate(0.179457 115.681 401.837)" fill="#3B9D91"/>
<circle cx="130.358" cy="401.882" r="1.52321" transform="rotate(0.179457 130.358 401.882)" fill="#3B9D91"/>
<circle cx="145.036" cy="401.929" r="1.52321" transform="rotate(0.179457 145.036 401.929)" fill="#3B9D91"/>
<circle cx="159.715" cy="401.974" r="1.52321" transform="rotate(0.179457 159.715 401.974)" fill="#3B9D91"/>
<circle cx="173.009" cy="402.016" r="1.52321" transform="rotate(0.179457 173.009 402.016)" fill="#3B9D91"/>
<circle cx="187.686" cy="402.062" r="1.52321" transform="rotate(0.179457 187.686 402.062)" fill="#3B9D91"/>
<circle cx="202.364" cy="402.108" r="1.52321" transform="rotate(0.179457 202.364 402.108)" fill="#3B9D91"/>
<circle cx="217.042" cy="402.154" r="1.52321" transform="rotate(0.179457 217.042 402.154)" fill="#3B9D91"/>
<circle cx="231.721" cy="402.2" r="1.52321" transform="rotate(0.179457 231.721 402.2)" fill="#3B9D91"/>
<circle cx="246.398" cy="402.246" r="1.52321" transform="rotate(0.179457 246.398 402.246)" fill="#3B9D91"/>
<circle cx="261.076" cy="402.292" r="1.52321" transform="rotate(0.179457 261.076 402.292)" fill="#3B9D91"/>
<circle cx="275.755" cy="402.338" r="1.52321" transform="rotate(0.179457 275.755 402.338)" fill="#3B9D91"/>
<circle cx="290.432" cy="402.384" r="1.52321" transform="rotate(0.179457 290.432 402.384)" fill="#3B9D91"/>
<circle cx="305.111" cy="402.43" r="1.52321" transform="rotate(0.179457 305.111 402.43)" fill="#3B9D91"/>
<circle cx="319.789" cy="402.476" r="1.52321" transform="rotate(0.179457 319.789 402.476)" fill="#3B9D91"/>
<circle cx="334.467" cy="402.522" r="1.52321" transform="rotate(0.179457 334.467 402.522)" fill="#3B9D91"/>
<circle cx="349.145" cy="402.568" r="1.52321" transform="rotate(0.179457 349.145 402.568)" fill="#3B9D91"/>
<circle cx="363.823" cy="402.614" r="1.52321" transform="rotate(0.179457 363.823 402.614)" fill="#3B9D91"/>
<circle cx="378.502" cy="402.66" r="1.52321" transform="rotate(0.179457 378.502 402.66)" fill="#3B9D91"/>
<circle cx="27.5731" cy="414.3" r="1.52321" transform="rotate(0.179457 27.5731 414.3)" fill="#3B9D91"/>
<circle cx="42.2509" cy="414.346" r="1.52321" transform="rotate(0.179457 42.2509 414.346)" fill="#3B9D91"/>
<circle cx="56.9296" cy="414.392" r="1.52321" transform="rotate(0.179457 56.9296 414.392)" fill="#3B9D91"/>
<circle cx="71.6073" cy="414.438" r="1.52321" transform="rotate(0.179457 71.6073 414.438)" fill="#3B9D91"/>
<circle cx="86.286" cy="414.484" r="1.52321" transform="rotate(0.179457 86.286 414.484)" fill="#3B9D91"/>
<circle cx="100.963" cy="414.53" r="1.52321" transform="rotate(0.179457 100.963 414.53)" fill="#3B9D91"/>
<circle cx="115.641" cy="414.576" r="1.52321" transform="rotate(0.179457 115.641 414.576)" fill="#3B9D91"/>
<circle cx="130.319" cy="414.622" r="1.52321" transform="rotate(0.179457 130.319 414.622)" fill="#3B9D91"/>
<circle cx="144.997" cy="414.668" r="1.52321" transform="rotate(0.179457 144.997 414.668)" fill="#3B9D91"/>
<circle cx="159.676" cy="414.714" r="1.52321" transform="rotate(0.179457 159.676 414.714)" fill="#3B9D91"/>
<circle cx="172.97" cy="414.755" r="1.52321" transform="rotate(0.179457 172.97 414.755)" fill="#3B9D91"/>
<circle cx="187.647" cy="414.801" r="1.52321" transform="rotate(0.179457 187.647 414.801)" fill="#3B9D91"/>
<circle cx="202.325" cy="414.847" r="1.52321" transform="rotate(0.179457 202.325 414.847)" fill="#3B9D91"/>
<circle cx="217.003" cy="414.893" r="1.52321" transform="rotate(0.179457 217.003 414.893)" fill="#3B9D91"/>
<circle cx="231.682" cy="414.939" r="1.52321" transform="rotate(0.179457 231.682 414.939)" fill="#3B9D91"/>
<circle cx="246.359" cy="414.985" r="1.52321" transform="rotate(0.179457 246.359 414.985)" fill="#3B9D91"/>
<circle cx="261.037" cy="415.031" r="1.52321" transform="rotate(0.179457 261.037 415.031)" fill="#3B9D91"/>
<circle cx="275.716" cy="415.077" r="1.52321" transform="rotate(0.179457 275.716 415.077)" fill="#3B9D91"/>
<circle cx="290.393" cy="415.123" r="1.52321" transform="rotate(0.179457 290.393 415.123)" fill="#3B9D91"/>
<circle cx="305.072" cy="415.169" r="1.52321" transform="rotate(0.179457 305.072 415.169)" fill="#3B9D91"/>
<circle cx="319.75" cy="415.215" r="1.52321" transform="rotate(0.179457 319.75 415.215)" fill="#3B9D91"/>
<circle cx="334.428" cy="415.261" r="1.52321" transform="rotate(0.179457 334.428 415.261)" fill="#3B9D91"/>
<circle cx="349.106" cy="415.307" r="1.52321" transform="rotate(0.179457 349.106 415.307)" fill="#3B9D91"/>
<circle cx="363.784" cy="415.353" r="1.52321" transform="rotate(0.179457 363.784 415.353)" fill="#3B9D91"/>
<circle cx="378.463" cy="415.399" r="1.52321" transform="rotate(0.179457 378.463 415.399)" fill="#3B9D91"/>
<circle cx="27.5331" cy="427.04" r="1.52321" transform="rotate(0.179457 27.5331 427.04)" fill="#3B9D91"/>
<circle cx="42.2108" cy="427.086" r="1.52321" transform="rotate(0.179457 42.2108 427.086)" fill="#3B9D91"/>
<circle cx="56.8895" cy="427.131" r="1.52321" transform="rotate(0.179457 56.8895 427.131)" fill="#3B9D91"/>
<circle cx="71.5673" cy="427.178" r="1.52321" transform="rotate(0.179457 71.5673 427.178)" fill="#3B9D91"/>
<circle cx="86.246" cy="427.224" r="1.52321" transform="rotate(0.179457 86.246 427.224)" fill="#3B9D91"/>
<circle cx="100.923" cy="427.269" r="1.52321" transform="rotate(0.179457 100.923 427.269)" fill="#3B9D91"/>
<circle cx="115.601" cy="427.316" r="1.52321" transform="rotate(0.179457 115.601 427.316)" fill="#3B9D91"/>
<circle cx="130.279" cy="427.361" r="1.52321" transform="rotate(0.179457 130.279 427.361)" fill="#3B9D91"/>
<circle cx="144.957" cy="427.407" r="1.52321" transform="rotate(0.179457 144.957 427.407)" fill="#3B9D91"/>
<circle cx="159.636" cy="427.453" r="1.52321" transform="rotate(0.179457 159.636 427.453)" fill="#3B9D91"/>
<circle cx="172.93" cy="427.495" r="1.52321" transform="rotate(0.179457 172.93 427.495)" fill="#3B9D91"/>
<circle cx="187.607" cy="427.541" r="1.52321" transform="rotate(0.179457 187.607 427.541)" fill="#3B9D91"/>
<circle cx="202.285" cy="427.587" r="1.52321" transform="rotate(0.179457 202.285 427.587)" fill="#3B9D91"/>
<circle cx="216.963" cy="427.633" r="1.52321" transform="rotate(0.179457 216.963 427.633)" fill="#3B9D91"/>
<circle cx="231.641" cy="427.679" r="1.52321" transform="rotate(0.179457 231.641 427.679)" fill="#3B9D91"/>
<circle cx="246.319" cy="427.725" r="1.52321" transform="rotate(0.179457 246.319 427.725)" fill="#3B9D91"/>
<circle cx="260.997" cy="427.771" r="1.52321" transform="rotate(0.179457 260.997 427.771)" fill="#3B9D91"/>
<circle cx="275.676" cy="427.817" r="1.52321" transform="rotate(0.179457 275.676 427.817)" fill="#3B9D91"/>
<circle cx="290.353" cy="427.863" r="1.52321" transform="rotate(0.179457 290.353 427.863)" fill="#3B9D91"/>
<circle cx="305.032" cy="427.909" r="1.52321" transform="rotate(0.179457 305.032 427.909)" fill="#3B9D91"/>
<circle cx="319.71" cy="427.955" r="1.52321" transform="rotate(0.179457 319.71 427.955)" fill="#3B9D91"/>
<circle cx="334.388" cy="428.001" r="1.52321" transform="rotate(0.179457 334.388 428.001)" fill="#3B9D91"/>
<circle cx="349.066" cy="428.047" r="1.52321" transform="rotate(0.179457 349.066 428.047)" fill="#3B9D91"/>
<circle cx="363.744" cy="428.093" r="1.52321" transform="rotate(0.179457 363.744 428.093)" fill="#3B9D91"/>
<circle cx="378.423" cy="428.139" r="1.52321" transform="rotate(0.179457 378.423 428.139)" fill="#3B9D91"/>
<path d="M53.0496 199.362L53.0345 204.186L59.6361 204.206L59.6312 205.749L53.0297 205.729L53.0131 211.012L51.1479 211.006L51.1892 197.832L59.8903 197.86L59.8855 199.383L53.0496 199.362ZM71.4982 202.105C70.7694 201.979 70.0795 201.915 69.4284 201.913C68.3803 201.91 67.5327 202.301 66.8857 203.087C66.2387 203.872 65.9133 204.874 65.9095 206.091L65.8939 211.052L64.1361 211.047L64.1576 204.201C64.1591 203.706 64.1154 203.123 64.0263 202.453C63.9438 201.782 63.8222 201.124 63.6614 200.479L65.3313 200.484C65.5889 201.383 65.7426 202.198 65.7924 202.927L65.8413 202.927C66.1691 202.199 66.4897 201.666 66.8033 201.329C67.1169 200.984 67.4888 200.728 67.919 200.561C68.3492 200.386 68.8736 200.3 69.4921 200.302C70.1692 200.304 70.8396 200.361 71.5033 200.474L71.4982 202.105ZM84.0061 205.816C84.0006 207.593 83.5861 208.953 82.7629 209.894C81.9461 210.829 80.7663 211.294 79.2233 211.289C77.7129 211.285 76.5556 210.806 75.7513 209.853C74.9535 208.9 74.5573 207.544 74.5628 205.786C74.5685 203.97 74.9829 202.607 75.8061 201.699C76.6358 200.783 77.8058 200.328 79.3163 200.333C80.9048 200.338 82.085 200.794 82.8569 201.701C83.6288 202.608 84.0119 203.98 84.0061 205.816ZM82.1604 205.81C82.1648 204.411 81.9435 203.365 81.4964 202.673C81.0559 201.982 80.3376 201.635 79.3415 201.631C78.3324 201.628 77.5923 201.978 77.1214 202.679C76.6504 203.381 76.4128 204.419 76.4085 205.792C76.4042 207.159 76.6353 208.202 77.1018 208.919C77.5684 209.631 78.2704 209.988 79.2079 209.99C80.243 209.994 80.9928 209.648 81.4572 208.953C81.9217 208.257 82.1561 207.21 82.1604 205.81ZM90.4739 211.129L90.4949 204.43C90.498 203.427 90.4188 202.727 90.2573 202.33C90.1023 201.926 89.8133 201.723 89.3901 201.722C88.9734 201.72 88.6339 202.032 88.3715 202.656C88.1157 203.28 87.9861 204.126 87.9827 205.194L87.9641 211.121L86.3138 211.116L86.3398 202.806C86.3436 201.575 86.3265 200.823 86.2883 200.55L87.7433 200.554L87.798 201.795L87.7966 202.263L87.8161 202.263C88.0395 201.6 88.321 201.119 88.6605 200.821C89 200.516 89.4236 200.364 89.9314 200.366C90.5043 200.368 90.9303 200.525 91.2093 200.839C91.4947 201.152 91.6983 201.634 91.82 202.286L91.8395 202.286C92.1021 201.597 92.4129 201.106 92.7718 200.814C93.1373 200.522 93.5968 200.377 94.1502 200.379C94.9184 200.381 95.4676 200.663 95.7979 201.224C96.1282 201.785 96.2912 202.746 96.2869 204.106L96.2649 211.147L94.6243 211.142L94.6452 204.443C94.6484 203.44 94.5692 202.74 94.4077 202.343C94.2527 201.939 93.9636 201.736 93.5404 201.735C93.1108 201.733 92.7681 202.006 92.5125 202.552C92.2634 203.098 92.1371 203.918 92.1337 205.011L92.1145 211.134L90.4739 211.129ZM110.598 205.899C110.603 204.142 111.027 202.792 111.87 201.851C112.713 200.909 113.929 200.441 115.517 200.446C116.702 200.45 117.678 200.739 118.444 201.314C119.211 201.883 119.684 202.65 119.863 203.614L117.987 203.745C117.885 203.152 117.626 202.686 117.211 202.346C116.795 201.999 116.203 201.825 115.435 201.823C114.406 201.819 113.65 202.136 113.166 202.773C112.689 203.409 112.448 204.44 112.444 205.866C112.439 207.311 112.673 208.37 113.147 209.042C113.626 209.708 114.377 210.042 115.399 210.045C116.102 210.047 116.686 209.877 117.149 209.533C117.612 209.19 117.9 208.663 118.013 207.954L119.868 208.077C119.782 208.702 119.542 209.27 119.15 209.784C118.764 210.29 118.252 210.689 117.613 210.98C116.974 211.264 116.261 211.405 115.473 211.403C113.878 211.398 112.665 210.925 111.835 209.985C111.005 209.045 110.592 207.683 110.598 205.899ZM132.053 205.967C132.047 207.744 131.633 209.103 130.81 210.045C129.993 210.98 128.813 211.445 127.27 211.44C125.76 211.435 124.602 210.956 123.798 210.003C123 209.05 122.604 207.695 122.609 205.937C122.615 204.121 123.03 202.758 123.853 201.849C124.682 200.934 125.852 200.478 127.363 200.483C128.951 200.488 130.132 200.944 130.904 201.852C131.675 202.759 132.059 204.131 132.053 205.967ZM130.207 205.961C130.211 204.561 129.99 203.515 129.543 202.824C129.103 202.132 128.384 201.785 127.388 201.782C126.379 201.779 125.639 202.128 125.168 202.83C124.697 203.531 124.459 204.569 124.455 205.943C124.451 207.31 124.682 208.352 125.148 209.07C125.615 209.781 126.317 210.138 127.255 210.141C128.29 210.144 129.039 209.798 129.504 209.103C129.968 208.408 130.203 207.36 130.207 205.961ZM141.812 211.29L141.833 204.503C141.836 203.618 141.665 202.959 141.321 202.529C140.984 202.098 140.441 201.881 139.693 201.879C138.885 201.877 138.22 202.171 137.698 202.762C137.181 203.346 136.922 204.143 136.919 205.152L136.899 211.275L135.142 211.269L135.168 202.959C135.172 201.728 135.154 200.976 135.116 200.703L136.776 200.708C136.783 200.74 136.789 200.828 136.795 200.972C136.801 201.115 136.807 201.281 136.813 201.47C136.825 201.652 136.837 202 136.849 202.515L136.878 202.515C137.566 201.182 138.694 200.519 140.263 200.523C141.39 200.527 142.228 200.836 142.78 201.449C143.331 202.056 143.605 202.992 143.601 204.255L143.579 211.296L141.812 211.29ZM146.633 206.012C146.638 204.254 147.062 202.905 147.905 201.963C148.748 201.022 149.964 200.554 151.552 200.559C152.737 200.563 153.713 200.852 154.479 201.427C155.246 201.996 155.719 202.763 155.898 203.727L154.022 203.858C153.92 203.265 153.661 202.798 153.246 202.459C152.83 202.112 152.238 201.938 151.47 201.936C150.441 201.932 149.685 202.249 149.201 202.885C148.724 203.522 148.483 204.553 148.479 205.979C148.474 207.424 148.708 208.483 149.182 209.155C149.661 209.821 150.412 210.155 151.434 210.158C152.137 210.16 152.721 209.99 153.184 209.646C153.647 209.302 153.935 208.776 154.048 208.067L155.903 208.19C155.817 208.814 155.577 209.383 155.185 209.896C154.799 210.403 154.287 210.802 153.648 211.093C153.009 211.377 152.296 211.518 151.508 211.516C149.913 211.511 148.7 211.038 147.87 210.098C147.04 209.158 146.627 207.796 146.633 206.012ZM160.518 206.437C160.515 207.621 160.772 208.55 161.291 209.222C161.816 209.894 162.534 210.232 163.446 210.235C164.116 210.237 164.703 210.095 165.205 209.811C165.714 209.519 166.053 209.123 166.224 208.622L167.766 209.067C167.477 209.873 166.948 210.49 166.178 210.917C165.415 211.344 164.503 211.556 163.442 211.553C161.905 211.548 160.725 211.066 159.901 210.106C159.077 209.147 158.668 207.775 158.674 205.991C158.679 204.253 159.087 202.92 159.897 201.991C160.714 201.056 161.887 200.591 163.417 200.596C164.947 200.601 166.105 201.07 166.89 202.003C167.674 202.937 168.064 204.344 168.058 206.226L168.057 206.46L160.518 206.437ZM163.433 201.895C162.56 201.892 161.869 202.176 161.36 202.748C160.85 203.313 160.578 204.093 160.542 205.089L166.245 205.107C166.069 202.971 165.132 201.9 163.433 201.895ZM180.031 206.078C180.02 209.763 178.738 211.601 176.186 211.593C174.584 211.588 173.509 210.986 172.959 209.786L172.91 209.786C172.936 209.838 172.947 210.378 172.944 211.407L172.931 215.538L171.164 215.532L171.203 203.003C171.206 201.896 171.189 201.167 171.151 200.816L172.86 200.821C172.867 200.847 172.876 200.945 172.888 201.114C172.901 201.277 172.913 201.521 172.925 201.846C172.944 202.166 172.953 202.403 172.952 202.559L172.991 202.56C173.319 201.877 173.734 201.383 174.236 201.079C174.745 200.768 175.406 200.614 176.22 200.617C177.509 200.621 178.468 201.07 179.097 201.963C179.726 202.851 180.037 204.222 180.031 206.078ZM178.215 206.072C178.219 204.601 178.024 203.552 177.629 202.926C177.234 202.293 176.61 201.975 175.757 201.973C174.774 201.969 174.063 202.325 173.625 203.04C173.186 203.748 172.965 204.825 172.96 206.27C172.956 207.657 173.171 208.673 173.605 209.319C174.039 209.965 174.741 210.29 175.711 210.293C176.577 210.295 177.21 209.969 177.609 209.312C178.008 208.656 178.21 207.576 178.215 206.072ZM183.266 202.24L183.27 200.853L184.93 200.859L185.505 198.107L186.677 198.11L186.669 200.864L190.887 200.877L190.883 202.264L186.664 202.251L186.644 208.618C186.643 209.132 186.778 209.514 187.051 209.762C187.33 210.01 187.785 210.135 188.417 210.137C189.289 210.14 190.256 210.032 191.318 209.814L191.314 211.152C190.213 211.448 189.122 211.594 188.041 211.591C186.987 211.588 186.196 211.364 185.67 210.92C185.144 210.469 184.883 209.762 184.886 208.798L184.906 202.245L183.266 202.24ZM207.289 202.315L207.294 200.929L208.954 200.934L209.529 198.182L210.701 198.185L210.692 200.939L214.911 200.953L214.906 202.339L210.688 202.326L210.668 208.693C210.666 209.208 210.802 209.589 211.074 209.837C211.353 210.085 211.809 210.21 212.44 210.212C213.313 210.215 214.28 210.108 215.342 209.89L215.337 211.227C214.236 211.523 213.145 211.67 212.065 211.666C211.01 211.663 210.22 211.439 209.694 210.995C209.168 210.544 208.906 209.837 208.909 208.873L208.93 202.321L207.289 202.315ZM228.146 206.267C228.14 208.045 227.726 209.404 226.903 210.346C226.086 211.281 224.906 211.746 223.363 211.741C221.853 211.736 220.695 211.257 219.891 210.304C219.093 209.351 218.697 207.996 218.703 206.238C218.708 204.422 219.123 203.059 219.946 202.15C220.776 201.235 221.946 200.779 223.456 200.784C225.045 200.789 226.225 201.245 226.997 202.153C227.769 203.06 228.152 204.432 228.146 206.267ZM226.3 206.262C226.305 204.862 226.083 203.816 225.636 203.125C225.196 202.433 224.477 202.086 223.481 202.083C222.472 202.08 221.732 202.429 221.261 203.131C220.79 203.832 220.553 204.87 220.548 206.244C220.544 207.611 220.775 208.653 221.242 209.371C221.708 210.082 222.41 210.439 223.348 210.442C224.383 210.445 225.133 210.099 225.597 209.404C226.062 208.709 226.296 207.661 226.3 206.262ZM242.726 206.313C242.732 204.555 243.156 203.206 243.999 202.264C244.841 201.323 246.057 200.855 247.646 200.86C248.83 200.863 249.806 201.153 250.572 201.728C251.339 202.297 251.812 203.064 251.991 204.028L250.116 204.159C250.013 203.566 249.754 203.099 249.339 202.76C248.923 202.413 248.331 202.239 247.563 202.236C246.534 202.233 245.778 202.55 245.294 203.186C244.817 203.823 244.576 204.854 244.572 206.28C244.567 207.725 244.802 208.784 245.275 209.456C245.755 210.121 246.505 210.456 247.528 210.459C248.231 210.461 248.814 210.291 249.277 209.947C249.741 209.603 250.029 209.077 250.142 208.368L251.997 208.491C251.91 209.115 251.671 209.684 251.278 210.197C250.893 210.704 250.38 211.103 249.741 211.394C249.103 211.678 248.389 211.819 247.601 211.817C246.006 211.812 244.794 211.339 243.963 210.399C243.133 209.459 242.72 208.097 242.726 206.313ZM264.181 206.38C264.175 208.158 263.761 209.517 262.938 210.459C262.121 211.393 260.941 211.859 259.398 211.854C257.888 211.849 256.73 211.37 255.926 210.417C255.128 209.464 254.732 208.109 254.738 206.351C254.743 204.534 255.158 203.172 255.981 202.263C256.811 201.347 257.981 200.892 259.491 200.897C261.08 200.902 262.26 201.358 263.032 202.265C263.804 203.173 264.187 204.544 264.181 206.38ZM262.335 206.375C262.34 204.975 262.118 203.929 261.671 203.238C261.231 202.546 260.512 202.199 259.516 202.196C258.507 202.193 257.767 202.542 257.296 203.244C256.825 203.945 256.588 204.983 256.583 206.357C256.579 207.724 256.81 208.766 257.277 209.484C257.743 210.195 258.445 210.552 259.383 210.555C260.418 210.558 261.168 210.212 261.632 209.517C262.097 208.822 262.331 207.774 262.335 206.375ZM273.887 210.005C273.565 210.687 273.141 211.184 272.612 211.495C272.084 211.799 271.426 211.95 270.638 211.947C269.323 211.943 268.358 211.488 267.742 210.581C267.126 209.674 266.821 208.309 266.827 206.486C266.839 202.801 268.121 200.963 270.673 200.971C271.46 200.973 272.117 201.115 272.644 201.397C273.177 201.679 273.602 202.139 273.919 202.778L273.938 202.778L273.924 201.303L273.936 197.212L275.694 197.217L275.656 209.532C275.652 210.632 275.669 211.358 275.707 211.709L274.028 211.704C274.002 211.606 273.98 211.369 273.962 210.991C273.943 210.613 273.934 210.285 273.935 210.005L273.887 210.005ZM268.644 206.433C268.639 207.879 268.828 208.934 269.21 209.599C269.599 210.258 270.229 210.589 271.101 210.591C272.052 210.594 272.756 210.255 273.214 209.573C273.672 208.884 273.903 207.791 273.908 206.294C273.912 204.894 273.694 203.874 273.253 203.235C272.819 202.596 272.117 202.274 271.147 202.271C270.268 202.269 269.632 202.602 269.24 203.271C268.847 203.941 268.648 204.995 268.644 206.433ZM280.635 206.813C280.631 207.998 280.889 208.926 281.407 209.598C281.933 210.271 282.651 210.608 283.562 210.611C284.233 210.613 284.819 210.472 285.322 210.187C285.83 209.895 286.17 209.499 286.341 208.999L287.882 209.443C287.594 210.249 287.064 210.866 286.295 211.293C285.532 211.721 284.619 211.933 283.558 211.929C282.022 211.925 280.842 211.442 280.018 210.483C279.194 209.523 278.785 208.151 278.791 206.368C278.796 204.629 279.204 203.296 280.014 202.367C280.831 201.432 282.004 200.967 283.534 200.972C285.064 200.977 286.221 201.446 287.006 202.38C287.791 203.313 288.18 204.72 288.175 206.602L288.174 206.836L280.635 206.813ZM283.549 202.271C282.677 202.268 281.986 202.553 281.476 203.124C280.967 203.689 280.694 204.469 280.659 205.465L286.362 205.483C286.186 203.347 285.249 202.276 283.549 202.271ZM292.005 215.305L293.675 208.846L296.263 208.854L293.206 215.309L292.005 215.305ZM323.451 211.859L321.459 211.853L320.077 207.249L319.527 205.274L319.141 206.631L317.485 211.84L315.502 211.834L313.748 201.262L315.486 201.268L316.376 207.198C316.585 208.918 316.69 209.979 316.688 210.383C316.945 209.342 317.136 208.646 317.261 208.295L318.593 204.158L320.477 204.164L321.734 208.318C321.94 209.003 322.117 209.697 322.264 210.4C322.265 210.205 322.279 209.961 322.306 209.668C322.333 209.375 322.366 209.076 322.406 208.77C322.446 208.457 322.486 208.161 322.526 207.881C322.566 207.602 322.596 207.38 322.616 207.218L323.621 201.293L325.34 201.298L323.451 211.859ZM328.681 206.963C328.678 208.148 328.935 209.077 329.454 209.749C329.979 210.421 330.698 210.759 331.609 210.761C332.28 210.764 332.866 210.622 333.368 210.337C333.877 210.046 334.217 209.65 334.388 209.149L335.929 209.593C335.64 210.4 335.111 211.017 334.341 211.444C333.578 211.871 332.666 212.083 331.605 212.08C330.068 212.075 328.888 211.593 328.065 210.633C327.241 209.674 326.832 208.302 326.837 206.518C326.843 204.78 327.25 203.446 328.061 202.518C328.877 201.583 330.051 201.118 331.581 201.123C333.111 201.127 334.268 201.597 335.053 202.53C335.838 203.463 336.227 204.871 336.221 206.752L336.221 206.987L328.681 206.963ZM331.596 202.422C330.724 202.419 330.033 202.703 329.523 203.274C329.014 203.839 328.741 204.62 328.705 205.616L334.408 205.634C334.233 203.498 333.295 202.427 331.596 202.422ZM51.0656 224.826L51.0699 223.44L52.7301 223.445L53.3051 220.693L54.477 220.696L54.4683 223.45L58.6871 223.463L58.6827 224.85L54.464 224.837L54.444 231.204C54.4424 231.718 54.578 232.1 54.8506 232.348C55.1298 232.596 55.5851 232.721 56.2166 232.723C57.089 232.726 58.0562 232.618 59.1181 232.4L59.1139 233.738C58.0127 234.034 56.9217 234.181 55.841 234.177C54.7863 234.174 53.996 233.95 53.47 233.506C52.9441 233.055 52.6826 232.348 52.6857 231.384L52.7062 224.831L51.0656 224.826ZM64.7905 223.482L64.7696 230.182C64.7664 231.197 64.9237 231.904 65.2414 232.302C65.5592 232.694 66.1283 232.891 66.9486 232.894C67.7884 232.896 68.4534 232.612 68.9435 232.04C69.4335 231.469 69.6802 230.663 69.6835 229.621L69.7026 223.498L71.4702 223.503L71.4442 231.814C71.4403 233.044 71.4575 233.796 71.4957 234.07L69.8356 234.065C69.8291 234.032 69.8229 233.944 69.8168 233.801C69.8108 233.658 69.8015 233.495 69.7891 233.313C69.7832 233.124 69.7745 232.772 69.7631 232.258L69.7338 232.258C69.3279 232.986 68.8575 233.502 68.3227 233.806C67.7944 234.104 67.1364 234.252 66.3486 234.249C65.1898 234.246 64.3411 233.956 63.8025 233.382C63.2705 232.801 63.0065 231.846 63.0107 230.518L63.0327 223.477L64.7905 223.482ZM83.4378 225.142C82.709 225.016 82.0191 224.952 81.3681 224.95C80.3199 224.947 79.4723 225.338 78.8253 226.124C78.1783 226.91 77.8529 227.911 77.8491 229.129L77.8336 234.09L76.0758 234.084L76.0972 227.239C76.0987 226.744 76.055 226.161 75.966 225.49C75.8834 224.819 75.7618 224.161 75.601 223.516L77.271 223.522C77.5286 224.421 77.6823 225.235 77.7321 225.964L77.7809 225.965C78.1087 225.236 78.4294 224.704 78.7429 224.366C79.0565 224.022 79.4284 223.766 79.8586 223.598C80.2889 223.424 80.8132 223.337 81.4317 223.339C82.1088 223.341 82.7792 223.399 83.4429 223.512L83.4378 225.142ZM93.6929 234.139L93.7141 227.352C93.7169 226.467 93.5464 225.809 93.2027 225.378C92.8655 224.947 92.3226 224.731 91.5739 224.728C90.7666 224.726 90.1016 225.02 89.5789 225.611C89.0628 226.195 88.8031 226.992 88.8 228.001L88.7808 234.124L87.023 234.119L87.049 225.808C87.0529 224.578 87.0357 223.826 86.9975 223.552L88.6576 223.557C88.664 223.59 88.6703 223.678 88.6763 223.821C88.6824 223.964 88.6884 224.13 88.6943 224.319C88.7067 224.501 88.7187 224.85 88.7301 225.364L88.7594 225.364C89.4472 224.032 90.5755 223.368 92.1445 223.373C93.2708 223.376 94.1097 223.685 94.6612 224.299C95.2127 224.906 95.4864 225.841 95.4825 227.104L95.4604 234.145L93.6929 234.139ZM116.519 232.824L120.23 232.836L120.226 234.223L110.636 234.193L110.64 232.806L114.762 232.819L114.786 225.026L111.671 225.016L111.675 223.629L116.548 223.645L116.519 232.824ZM114.601 221.588L114.607 219.713L116.56 219.719L116.555 221.594L114.601 221.588ZM129.675 232.553C129.353 233.236 128.929 233.732 128.4 234.043C127.872 234.347 127.214 234.498 126.426 234.496C125.111 234.492 124.146 234.036 123.53 233.129C122.915 232.223 122.61 230.858 122.615 229.035C122.627 225.35 123.909 223.511 126.461 223.519C127.248 223.522 127.906 223.664 128.432 223.945C128.965 224.227 129.39 224.687 129.707 225.326L129.726 225.327L129.712 223.852L129.724 219.76L131.482 219.766L131.444 232.08C131.44 233.18 131.457 233.906 131.495 234.258L129.816 234.253C129.79 234.155 129.768 233.917 129.75 233.54C129.731 233.162 129.723 232.833 129.723 232.553L129.675 232.553ZM124.432 228.982C124.427 230.427 124.616 231.482 124.998 232.148C125.387 232.806 126.017 233.137 126.89 233.14C127.84 233.143 128.544 232.803 129.002 232.121C129.46 231.432 129.691 230.339 129.696 228.842C129.7 227.442 129.482 226.423 129.041 225.783C128.607 225.144 127.905 224.823 126.935 224.82C126.056 224.817 125.42 225.15 125.028 225.82C124.635 226.489 124.436 227.543 124.432 228.982ZM136.423 229.361C136.419 230.546 136.677 231.475 137.195 232.147C137.721 232.819 138.439 233.157 139.35 233.159C140.021 233.162 140.607 233.02 141.11 232.735C141.618 232.444 141.958 232.048 142.129 231.547L143.671 231.991C143.382 232.798 142.852 233.415 142.083 233.842C141.32 234.269 140.408 234.481 139.346 234.478C137.81 234.473 136.63 233.991 135.806 233.031C134.982 232.072 134.573 230.7 134.579 228.916C134.584 227.178 134.992 225.844 135.802 224.916C136.619 223.981 137.792 223.516 139.322 223.521C140.852 223.525 142.009 223.995 142.794 224.928C143.579 225.861 143.969 227.269 143.963 229.15L143.962 229.385L136.423 229.361ZM139.338 224.819C138.465 224.817 137.774 225.101 137.265 225.672C136.755 226.237 136.482 227.018 136.447 228.014L142.15 228.031C141.974 225.895 141.037 224.825 139.338 224.819ZM156.03 233.251C156.199 233.251 156.391 233.229 156.606 233.184L156.603 234.278C156.16 234.381 155.707 234.431 155.245 234.43C154.594 234.428 154.119 234.257 153.821 233.918C153.529 233.572 153.365 233.034 153.328 232.305L153.269 232.305C152.844 233.091 152.34 233.656 151.76 233.999C151.186 234.342 150.476 234.513 149.629 234.51C148.601 234.507 147.827 234.224 147.308 233.663C146.789 233.101 146.531 232.332 146.534 231.356C146.541 229.084 148.022 227.936 150.978 227.913L153.283 227.881L153.285 227.305C153.288 226.452 153.117 225.839 152.773 225.467C152.429 225.088 151.88 224.898 151.124 224.895C150.356 224.893 149.802 225.028 149.463 225.3C149.124 225.573 148.92 225.995 148.854 226.568L147.018 226.396C147.324 224.496 148.704 223.55 151.158 223.558C152.46 223.562 153.436 223.871 154.085 224.485C154.74 225.092 155.066 225.972 155.063 227.125L155.049 231.675C155.047 232.196 155.114 232.59 155.25 232.858C155.386 233.118 155.646 233.25 156.03 233.251ZM150.083 233.174C150.708 233.175 151.262 233.027 151.744 232.729C152.227 232.432 152.603 232.032 152.871 231.532C153.14 231.031 153.275 230.514 153.276 229.98L153.279 229.111L151.424 229.144C150.655 229.155 150.069 229.238 149.665 229.393C149.261 229.548 148.944 229.788 148.716 230.113C148.493 230.431 148.381 230.857 148.379 231.391C148.378 231.925 148.52 232.355 148.805 232.681C149.097 233.008 149.523 233.172 150.083 233.174ZM167.647 231.354C167.644 232.356 167.261 233.143 166.497 233.713C165.74 234.277 164.691 234.557 163.35 234.553C162.009 234.549 160.987 234.337 160.286 233.918C159.59 233.493 159.137 232.828 158.925 231.922L160.478 231.624C160.6 232.184 160.863 232.595 161.266 232.857C161.675 233.112 162.371 233.241 163.354 233.244C165.112 233.25 165.993 232.696 165.996 231.583C165.997 231.166 165.839 230.83 165.521 230.575C165.203 230.314 164.715 230.101 164.058 229.936C162.341 229.507 161.251 229.172 160.79 228.93C160.328 228.687 159.974 228.387 159.728 228.028C159.482 227.663 159.359 227.21 159.361 226.669C159.364 225.712 159.712 224.965 160.403 224.426C161.095 223.888 162.095 223.621 163.404 223.625C164.55 223.629 165.464 223.85 166.146 224.288C166.828 224.72 167.253 225.35 167.419 226.177L165.837 226.367C165.767 225.898 165.537 225.543 165.147 225.301C164.757 225.059 164.175 224.936 163.4 224.934C161.805 224.929 161.006 225.418 161.003 226.401C161.001 226.792 161.134 227.105 161.4 227.34C161.673 227.575 162.108 227.765 162.707 227.91L163.868 228.217C164.928 228.48 165.689 228.74 166.151 228.995C166.619 229.251 166.986 229.571 167.251 229.956C167.517 230.334 167.649 230.8 167.647 231.354ZM188.589 233.05L192.3 233.062L192.296 234.448L182.706 234.418L182.71 233.032L186.832 233.044L186.856 225.252L183.741 225.242L183.745 223.855L188.618 223.87L188.589 233.05ZM186.671 221.813L186.677 219.938L188.63 219.945L188.624 221.82L186.671 221.813ZM201.798 234.478L201.819 227.691C201.822 226.806 201.651 226.147 201.308 225.717C200.97 225.286 200.428 225.069 199.679 225.067C198.872 225.065 198.207 225.359 197.684 225.95C197.168 226.534 196.908 227.331 196.905 228.34L196.886 234.463L195.128 234.457L195.154 226.147C195.158 224.916 195.141 224.164 195.102 223.891L196.763 223.896C196.769 223.928 196.775 224.016 196.781 224.16C196.787 224.303 196.793 224.469 196.799 224.658C196.812 224.84 196.824 225.188 196.835 225.703L196.864 225.703C197.552 224.37 198.68 223.707 200.249 223.711C201.376 223.715 202.215 224.024 202.766 224.637C203.318 225.244 203.591 226.18 203.587 227.443L203.565 234.484L201.798 234.478ZM207.217 225.315L207.221 223.929L208.882 223.934L209.457 221.182L210.629 221.185L210.62 223.939L214.839 223.952L214.834 225.339L210.616 225.326L210.596 231.693C210.594 232.207 210.73 232.589 211.002 232.837C211.281 233.085 211.737 233.21 212.368 233.212C213.241 233.215 214.208 233.107 215.27 232.889L215.265 234.227C214.164 234.523 213.073 234.67 211.993 234.666C210.938 234.663 210.148 234.439 209.622 233.995C209.096 233.544 208.834 232.837 208.837 231.873L208.858 225.32L207.217 225.315ZM228.074 229.267C228.068 231.045 227.654 232.404 226.831 233.346C226.014 234.28 224.834 234.746 223.291 234.741C221.781 234.736 220.623 234.257 219.819 233.304C219.021 232.351 218.625 230.996 218.631 229.238C218.636 227.421 219.051 226.059 219.874 225.15C220.704 224.234 221.874 223.779 223.384 223.784C224.973 223.789 226.153 224.245 226.925 225.152C227.697 226.06 228.08 227.431 228.074 229.267ZM226.228 229.262C226.233 227.862 226.011 226.816 225.564 226.125C225.124 225.433 224.405 225.086 223.409 225.083C222.4 225.08 221.66 225.429 221.189 226.131C220.718 226.832 220.481 227.87 220.476 229.244C220.472 230.611 220.703 231.653 221.17 232.371C221.636 233.082 222.338 233.439 223.276 233.442C224.311 233.445 225.061 233.099 225.525 232.404C225.99 231.709 226.224 230.661 226.228 229.262ZM56.389 255.636L60.0999 255.648L60.0956 257.034L50.5058 257.004L50.5101 255.618L54.6312 255.631L54.6556 247.838L51.5404 247.828L51.5447 246.441L56.4178 246.456L56.389 255.636ZM54.4711 244.399L54.4769 242.524L56.4301 242.531L56.4242 244.406L54.4711 244.399ZM69.5975 257.064L69.6188 250.277C69.6215 249.392 69.4511 248.734 69.1074 248.303C68.7702 247.872 68.2272 247.655 67.4785 247.653C66.6712 247.651 66.0063 247.945 65.4836 248.536C64.9674 249.12 64.7078 249.917 64.7046 250.926L64.6854 257.049L62.9276 257.043L62.9536 248.733C62.9575 247.502 62.9403 246.75 62.9021 246.477L64.5623 246.482C64.5687 246.514 64.5749 246.602 64.581 246.746C64.587 246.889 64.593 247.055 64.5989 247.244C64.6114 247.426 64.6233 247.774 64.6347 248.289L64.664 248.289C65.3518 246.956 66.4802 246.293 68.0492 246.297C69.1755 246.301 70.0144 246.61 70.5658 247.223C71.1173 247.831 71.3911 248.766 71.3871 250.029L71.3651 257.07L69.5975 257.064ZM75.0168 247.901L75.0212 246.515L76.6813 246.52L77.2564 243.768L78.4282 243.771L78.4196 246.525L82.6383 246.538L82.634 247.925L78.4153 247.912L78.3953 254.279C78.3937 254.793 78.5292 255.175 78.8019 255.423C79.0811 255.671 79.5364 255.796 80.1679 255.798C81.0403 255.801 82.0075 255.693 83.0693 255.475L83.0651 256.813C81.964 257.109 80.873 257.256 79.7923 257.252C78.7376 257.249 77.9473 257.025 77.4213 256.581C76.8954 256.13 76.6339 255.423 76.6369 254.459L76.6575 247.906L75.0168 247.901ZM88.3042 252.211C88.3005 253.395 88.558 254.324 89.0767 254.996C89.602 255.668 90.3203 256.006 91.2318 256.009C91.9023 256.011 92.4887 255.87 92.9909 255.585C93.4996 255.293 93.8394 254.897 94.0103 254.396L95.5519 254.841C95.2629 255.647 94.7336 256.264 93.964 256.691C93.201 257.119 92.2888 257.33 91.2276 257.327C89.6912 257.322 88.5111 256.84 87.6872 255.881C86.8634 254.921 86.4543 253.549 86.4599 251.765C86.4653 250.027 86.8731 248.694 87.6834 247.765C88.5001 246.83 89.6734 246.365 91.2034 246.37C92.7333 246.375 93.8907 246.844 94.6755 247.777C95.4604 248.711 95.8499 250.118 95.844 252L95.8432 252.234L88.3042 252.211ZM91.2188 247.669C90.3464 247.666 89.6554 247.95 89.1458 248.522C88.6363 249.087 88.3636 249.867 88.328 250.863L94.031 250.881C93.8554 248.745 92.918 247.674 91.2188 247.669ZM107.389 248.218C106.66 248.092 105.97 248.028 105.319 248.026C104.271 248.022 103.424 248.414 102.777 249.199C102.13 249.985 101.804 250.987 101.8 252.204L101.785 257.165L100.027 257.159L100.048 250.314C100.05 249.819 100.006 249.236 99.9172 248.565C99.8347 247.894 99.7131 247.237 99.5523 246.591L101.222 246.597C101.48 247.496 101.634 248.31 101.683 249.04L101.732 249.04C102.06 248.312 102.381 247.779 102.694 247.441C103.008 247.097 103.38 246.841 103.81 246.673C104.24 246.499 104.764 246.412 105.383 246.414C106.06 246.417 106.73 246.474 107.394 246.587L107.389 248.218ZM119.923 256.138C120.092 256.138 120.284 256.116 120.499 256.071L120.496 257.165C120.053 257.268 119.6 257.318 119.138 257.317C118.487 257.315 118.012 257.144 117.714 256.805C117.422 256.459 117.258 255.921 117.221 255.192L117.162 255.192C116.737 255.978 116.233 256.543 115.653 256.886C115.079 257.229 114.369 257.4 113.522 257.397C112.494 257.394 111.72 257.111 111.201 256.55C110.682 255.988 110.424 255.219 110.427 254.243C110.434 251.971 111.915 250.823 114.871 250.8L117.176 250.768L117.178 250.192C117.181 249.339 117.01 248.726 116.666 248.354C116.322 247.975 115.773 247.785 115.017 247.782C114.249 247.78 113.695 247.915 113.356 248.187C113.017 248.46 112.813 248.882 112.747 249.455L110.911 249.283C111.217 247.383 112.596 246.437 115.051 246.445C116.353 246.449 117.329 246.758 117.978 247.372C118.633 247.979 118.959 248.859 118.956 250.012L118.942 254.562C118.94 255.083 119.007 255.477 119.143 255.745C119.279 256.006 119.539 256.137 119.923 256.138ZM113.976 256.061C114.601 256.062 115.155 255.914 115.637 255.617C116.12 255.319 116.496 254.919 116.764 254.419C117.033 253.918 117.168 253.401 117.169 252.867L117.172 251.998L115.317 252.031C114.548 252.042 113.962 252.125 113.558 252.28C113.154 252.435 112.837 252.675 112.608 253C112.386 253.318 112.274 253.744 112.272 254.278C112.271 254.812 112.413 255.242 112.698 255.568C112.99 255.895 113.416 256.059 113.976 256.061ZM122.465 251.937C122.471 250.179 122.895 248.829 123.738 247.888C124.581 246.947 125.796 246.478 127.385 246.483C128.57 246.487 129.545 246.777 130.312 247.352C131.078 247.921 131.551 248.687 131.73 249.651L129.855 249.782C129.753 249.189 129.494 248.723 129.078 248.383C128.663 248.037 128.071 247.862 127.302 247.86C126.274 247.857 125.518 248.173 125.034 248.81C124.557 249.446 124.316 250.478 124.311 251.903C124.307 253.349 124.541 254.407 125.014 255.079C125.494 255.745 126.245 256.079 127.267 256.083C127.97 256.085 128.553 255.914 129.017 255.571C129.48 255.227 129.768 254.7 129.881 253.991L131.736 254.114C131.649 254.739 131.41 255.308 131.018 255.821C130.632 256.328 130.12 256.726 129.481 257.017C128.842 257.302 128.129 257.443 127.341 257.44C125.746 257.435 124.533 256.963 123.703 256.023C122.872 255.083 122.46 253.721 122.465 251.937ZM135.075 248.089L135.079 246.703L136.74 246.708L137.315 243.956L138.487 243.959L138.478 246.713L142.697 246.727L142.692 248.113L138.474 248.1L138.454 254.467C138.452 254.982 138.588 255.363 138.86 255.611C139.139 255.859 139.595 255.985 140.226 255.986C141.099 255.989 142.066 255.882 143.128 255.664L143.123 257.001C142.022 257.297 140.931 257.444 139.851 257.44C138.796 257.437 138.006 257.213 137.48 256.769C136.954 256.318 136.692 255.611 136.695 254.647L136.716 248.095L135.075 248.089ZM152.482 255.937L156.193 255.949L156.189 257.335L146.599 257.305L146.603 255.919L150.724 255.931L150.749 248.139L147.634 248.129L147.638 246.742L152.511 246.757L152.482 255.937ZM150.564 244.7L150.57 242.825L152.523 242.832L152.517 244.707L150.564 244.7ZM164.197 257.36L162.117 257.354L157.921 246.774L159.894 246.78L162.489 253.664L162.654 254.182L163.156 255.98L163.501 254.839L163.886 253.688L166.603 246.801L168.566 246.808L164.197 257.36ZM172.386 252.474C172.382 253.659 172.64 254.587 173.158 255.26C173.684 255.932 174.402 256.269 175.313 256.272C175.984 256.274 176.57 256.133 177.073 255.848C177.581 255.557 177.921 255.161 178.092 254.66L179.633 255.104C179.344 255.91 178.815 256.527 178.046 256.955C177.283 257.382 176.37 257.594 175.309 257.591C173.773 257.586 172.593 257.103 171.769 256.144C170.945 255.184 170.536 253.813 170.542 252.029C170.547 250.29 170.955 248.957 171.765 248.029C172.582 247.094 173.755 246.629 175.285 246.633C176.815 246.638 177.972 247.107 178.757 248.041C179.542 248.974 179.931 250.382 179.926 252.263L179.925 252.498L172.386 252.474ZM175.3 247.932C174.428 247.93 173.737 248.214 173.227 248.785C172.718 249.35 172.445 250.13 172.41 251.126L178.113 251.144C177.937 249.008 177 247.938 175.3 247.932ZM201.672 255.779C201.351 256.461 200.927 256.958 200.398 257.269C199.87 257.573 199.212 257.724 198.424 257.722C197.109 257.717 196.144 257.262 195.528 256.355C194.912 255.448 194.607 254.083 194.613 252.26C194.625 248.575 195.907 246.737 198.459 246.745C199.246 246.747 199.903 246.89 200.43 247.171C200.963 247.453 201.388 247.913 201.705 248.552L201.724 248.552L201.71 247.077L201.722 242.986L203.48 242.991L203.442 255.306C203.438 256.406 203.455 257.132 203.493 257.483L201.814 257.478C201.788 257.38 201.766 257.143 201.748 256.765C201.729 256.387 201.72 256.059 201.721 255.779L201.672 255.779ZM196.43 252.207C196.425 253.653 196.614 254.708 196.996 255.373C197.385 256.032 198.015 256.363 198.887 256.366C199.838 256.369 200.542 256.029 201 255.347C201.458 254.658 201.689 253.565 201.694 252.068C201.698 250.668 201.48 249.648 201.039 249.009C200.605 248.37 199.903 248.048 198.933 248.045C198.054 248.043 197.418 248.376 197.026 249.045C196.633 249.715 196.434 250.769 196.43 252.207ZM212.541 256.125L216.252 256.137L216.247 257.523L206.657 257.493L206.662 256.107L210.783 256.12L210.807 248.327L207.692 248.317L207.696 246.93L212.569 246.945L212.541 256.125ZM210.623 244.889L210.629 243.014L212.582 243.02L212.576 244.895L210.623 244.889ZM223.265 261.686C222.172 261.683 221.293 261.455 220.631 261.004C219.968 260.553 219.547 259.907 219.367 259.066L221.165 258.828C221.274 259.317 221.511 259.692 221.874 259.953C222.245 260.221 222.729 260.356 223.328 260.358C224.943 260.363 225.753 259.34 225.76 257.29L225.766 255.395L225.746 255.395C225.425 256.065 224.981 256.571 224.413 256.914C223.846 257.258 223.171 257.428 222.39 257.425C221.101 257.421 220.158 256.999 219.562 256.157C218.972 255.309 218.68 253.98 218.686 252.17C218.692 250.327 219.015 248.974 219.656 248.11C220.296 247.24 221.281 246.807 222.609 246.811C223.345 246.813 223.982 246.988 224.521 247.334C225.067 247.675 225.486 248.161 225.777 248.793L225.806 248.794C225.806 248.598 225.82 248.27 225.848 247.807C225.875 247.339 225.902 247.065 225.929 246.987L227.599 246.993C227.558 247.344 227.537 248.073 227.533 249.18L227.508 257.246C227.503 258.724 227.155 259.833 226.462 260.573C225.77 261.32 224.704 261.691 223.265 261.686ZM225.776 252.172C225.78 250.916 225.539 249.929 225.053 249.211C224.567 248.487 223.897 248.124 223.044 248.121C222.152 248.118 221.507 248.429 221.108 249.052C220.709 249.67 220.507 250.704 220.502 252.156C220.499 253.139 220.578 253.917 220.739 254.491C220.907 255.058 221.166 255.472 221.516 255.733C221.867 255.995 222.358 256.127 222.99 256.129C223.543 256.13 224.029 255.979 224.446 255.674C224.871 255.363 225.197 254.911 225.427 254.32C225.657 253.722 225.773 253.006 225.776 252.172ZM236.564 256.2L240.275 256.212L240.27 257.599L230.681 257.569L230.685 256.182L234.806 256.195L234.831 248.402L231.715 248.392L231.72 247.005L236.593 247.021L236.564 256.2ZM234.646 244.964L234.652 243.089L236.605 243.095L236.599 244.97L234.646 244.964ZM243.18 248.428L243.184 247.041L244.845 247.047L245.42 244.294L246.591 244.298L246.583 247.052L250.802 247.065L250.797 248.452L246.579 248.439L246.559 254.806C246.557 255.32 246.692 255.701 246.965 255.95C247.244 256.198 247.7 256.323 248.331 256.325C249.204 256.328 250.171 256.22 251.233 256.002L251.228 257.34C250.127 257.636 249.036 257.782 247.956 257.779C246.901 257.776 246.111 257.552 245.585 257.108C245.059 256.657 244.797 255.949 244.8 254.986L244.821 248.433L243.18 248.428ZM264.063 256.589C264.232 256.59 264.424 256.568 264.639 256.523L264.636 257.616C264.193 257.719 263.74 257.77 263.278 257.768C262.627 257.766 262.152 257.596 261.854 257.256C261.562 256.91 261.397 256.373 261.361 255.643L261.302 255.643C260.876 256.429 260.373 256.994 259.793 257.338C259.219 257.681 258.509 257.851 257.662 257.848C256.634 257.845 255.86 257.563 255.341 257.001C254.822 256.44 254.564 255.671 254.567 254.694C254.574 252.422 256.055 251.274 259.011 251.251L261.316 251.219L261.318 250.643C261.32 249.79 261.15 249.178 260.806 248.806C260.462 248.427 259.913 248.236 259.157 248.234C258.389 248.232 257.835 248.367 257.496 248.639C257.157 248.911 256.953 249.334 256.886 249.907L255.051 249.735C255.356 247.835 256.736 246.888 259.191 246.896C260.493 246.9 261.469 247.209 262.118 247.823C262.773 248.431 263.099 249.311 263.096 250.463L263.081 255.014C263.08 255.535 263.147 255.929 263.283 256.196C263.419 256.457 263.679 256.588 264.063 256.589ZM258.116 256.512C258.741 256.514 259.295 256.366 259.777 256.068C260.26 255.77 260.636 255.371 260.904 254.87C261.173 254.37 261.308 253.853 261.309 253.319L261.312 252.45L259.457 252.483C258.688 252.494 258.102 252.576 257.698 252.731C257.294 252.886 256.977 253.126 256.748 253.451C256.526 253.769 256.414 254.195 256.412 254.729C256.411 255.263 256.553 255.693 256.838 256.02C257.13 256.346 257.556 256.51 258.116 256.512ZM272.511 256.313L276.222 256.325L276.218 257.711L266.628 257.681L266.632 256.295L270.753 256.307L270.79 244.589L267.968 244.58L267.972 243.193L272.552 243.208L272.511 256.313ZM52.1972 275.098C52.1935 276.282 52.451 277.211 52.9697 277.883C53.4949 278.555 54.2133 278.893 55.1248 278.896C55.7953 278.898 56.3817 278.757 56.8839 278.472C57.3926 278.18 57.7324 277.784 57.9033 277.283L59.4448 277.728C59.1559 278.534 58.6266 279.151 57.857 279.578C57.0939 280.006 56.1818 280.218 55.1206 280.214C53.5842 280.209 52.404 279.727 51.5802 278.768C50.7564 277.808 50.3473 276.436 50.3529 274.652C50.3583 272.914 50.7661 271.581 51.5763 270.652C52.3931 269.717 53.5664 269.252 55.0963 269.257C56.6263 269.262 57.7837 269.731 58.5685 270.664C59.3534 271.598 59.7428 273.005 59.7369 274.887L59.7362 275.121L52.1972 275.098ZM55.1118 270.556C54.2394 270.553 53.5484 270.837 53.0388 271.409C52.5292 271.974 52.2566 272.754 52.2209 273.75L57.924 273.768C57.7484 271.632 56.811 270.561 55.1118 270.556ZM70.1505 280.066L67.0293 275.72L63.8614 280.046L61.9669 280.04L66.0366 274.623L62.1758 269.475L64.1191 269.481L67.0359 273.601L69.9589 269.499L71.9218 269.505L68.0289 274.61L72.1133 280.072L70.1505 280.066ZM83.7218 274.776C83.7102 278.461 82.4284 280.3 79.8764 280.292C78.2748 280.287 77.1992 279.684 76.6496 278.485L76.6008 278.485C76.6266 278.537 76.638 279.077 76.6347 280.106L76.6218 284.237L74.8542 284.231L74.8935 271.702C74.8969 270.595 74.8797 269.866 74.8417 269.514L76.5507 269.52C76.5571 269.546 76.5666 269.643 76.5791 269.813C76.5916 269.975 76.6039 270.22 76.6159 270.545C76.6344 270.864 76.6434 271.102 76.6429 271.258L76.682 271.258C77.0096 270.576 77.4246 270.082 77.9269 269.778C78.4356 269.467 79.0969 269.313 79.9107 269.315C81.1998 269.319 82.1587 269.768 82.7874 270.662C83.4161 271.55 83.7276 272.921 83.7218 274.776ZM81.9054 274.771C81.91 273.299 81.7147 272.251 81.3195 271.624C80.9244 270.992 80.3004 270.674 79.4475 270.671C78.4644 270.668 77.7537 271.024 77.3152 271.739C76.8768 272.447 76.6554 273.524 76.6508 274.969C76.6465 276.356 76.8614 277.372 77.2956 278.018C77.7298 278.664 78.4319 278.988 79.4019 278.991C80.2678 278.994 80.9003 278.667 81.2995 278.011C81.6987 277.355 81.9007 276.275 81.9054 274.771ZM88.2322 275.21C88.2284 276.395 88.486 277.324 89.0047 277.996C89.5299 278.668 90.2483 279.006 91.1597 279.009C91.8303 279.011 92.4167 278.869 92.9189 278.585C93.4276 278.293 93.7674 277.897 93.9382 277.396L95.4798 277.841C95.1908 278.647 94.6616 279.264 93.892 279.691C93.1289 280.118 92.2168 280.33 91.1556 280.327C89.6192 280.322 88.439 279.84 87.6152 278.88C86.7914 277.921 86.3823 276.549 86.3878 274.765C86.3933 273.027 86.8011 271.694 87.6113 270.765C88.428 269.83 89.6014 269.365 91.1313 269.37C92.6613 269.375 93.8187 269.844 94.6035 270.777C95.3883 271.711 95.7778 273.118 95.7719 275L95.7712 275.234L88.2322 275.21ZM91.1468 270.669C90.2744 270.666 89.5834 270.95 89.0738 271.522C88.5642 272.086 88.2916 272.867 88.2559 273.863L93.959 273.881C93.7834 271.745 92.846 270.674 91.1468 270.669ZM107.317 271.217C106.588 271.091 105.898 271.027 105.247 271.025C104.199 271.022 103.352 271.413 102.705 272.199C102.058 272.985 101.732 273.986 101.728 275.204L101.713 280.165L99.955 280.159L99.9764 273.314C99.978 272.819 99.9342 272.236 99.8452 271.565C99.7627 270.894 99.641 270.236 99.4803 269.591L101.15 269.597C101.408 270.496 101.561 271.31 101.611 272.039L101.66 272.04C101.988 271.311 102.309 270.779 102.622 270.441C102.936 270.097 103.308 269.841 103.738 269.673C104.168 269.499 104.692 269.412 105.311 269.414C105.988 269.416 106.658 269.474 107.322 269.587L107.317 271.217ZM116.375 278.824L120.086 278.836L120.082 280.222L110.492 280.192L110.496 278.806L114.617 278.819L114.642 271.026L111.527 271.016L111.531 269.629L116.404 269.644L116.375 278.824ZM114.457 267.587L114.463 265.712L116.416 265.719L116.41 267.594L114.457 267.587ZM124.267 275.323C124.263 276.508 124.521 277.437 125.04 278.109C125.565 278.781 126.283 279.119 127.195 279.122C127.865 279.124 128.452 278.982 128.954 278.697C129.463 278.406 129.802 278.01 129.973 277.509L131.515 277.953C131.226 278.76 130.697 279.377 129.927 279.804C129.164 280.231 128.252 280.443 127.191 280.44C125.654 280.435 124.474 279.953 123.65 278.993C122.826 278.034 122.417 276.662 122.423 274.878C122.428 273.14 122.836 271.806 123.646 270.878C124.463 269.943 125.636 269.478 127.166 269.483C128.696 269.488 129.854 269.957 130.638 270.89C131.423 271.824 131.813 273.231 131.807 275.113L131.806 275.347L124.267 275.323ZM127.182 270.782C126.309 270.779 125.618 271.063 125.109 271.635C124.599 272.199 124.327 272.98 124.291 273.976L129.994 273.994C129.818 271.858 128.881 270.787 127.182 270.782ZM141.595 280.29L141.617 273.503C141.619 272.617 141.449 271.959 141.105 271.528C140.768 271.098 140.225 270.881 139.476 270.879C138.669 270.876 138.004 271.17 137.481 271.761C136.965 272.345 136.706 273.142 136.703 274.151L136.683 280.274L134.926 280.269L134.952 271.958C134.955 270.728 134.938 269.976 134.9 269.702L136.56 269.707C136.567 269.74 136.573 269.828 136.579 269.971C136.585 270.114 136.591 270.281 136.597 270.469C136.609 270.652 136.621 271 136.633 271.514L136.662 271.514C137.35 270.182 138.478 269.518 140.047 269.523C141.173 269.527 142.012 269.835 142.564 270.449C143.115 271.056 143.389 271.991 143.385 273.254L143.363 280.295L141.595 280.29ZM146.417 275.012C146.422 273.254 146.846 271.904 147.689 270.963C148.532 270.022 149.748 269.553 151.336 269.558C152.521 269.562 153.497 269.852 154.263 270.427C155.03 270.996 155.502 271.762 155.682 272.726L153.806 272.857C153.704 272.264 153.445 271.798 153.029 271.458C152.614 271.112 152.022 270.938 151.254 270.935C150.225 270.932 149.469 271.249 148.985 271.885C148.508 272.522 148.267 273.553 148.262 274.979C148.258 276.424 148.492 277.483 148.965 278.155C149.445 278.82 150.196 279.155 151.218 279.158C151.921 279.16 152.504 278.989 152.968 278.646C153.431 278.302 153.719 277.776 153.832 277.066L155.687 277.189C155.601 277.814 155.361 278.383 154.969 278.896C154.583 279.403 154.071 279.801 153.432 280.092C152.793 280.377 152.08 280.518 151.292 280.515C149.697 280.51 148.484 280.038 147.654 279.098C146.823 278.158 146.411 276.796 146.417 275.012ZM160.302 275.436C160.298 276.621 160.556 277.55 161.075 278.222C161.6 278.894 162.318 279.232 163.23 279.234C163.9 279.237 164.487 279.095 164.989 278.81C165.498 278.519 165.837 278.123 166.008 277.622L167.55 278.066C167.261 278.873 166.732 279.49 165.962 279.917C165.199 280.344 164.287 280.556 163.226 280.553C161.689 280.548 160.509 280.066 159.685 279.106C158.861 278.147 158.452 276.775 158.458 274.991C158.463 273.253 158.871 271.919 159.681 270.991C160.498 270.056 161.671 269.591 163.201 269.596C164.731 269.6 165.889 270.07 166.673 271.003C167.458 271.936 167.848 273.344 167.842 275.225L167.841 275.46L160.302 275.436ZM163.217 270.895C162.344 270.892 161.653 271.176 161.144 271.747C160.634 272.312 160.362 273.093 160.326 274.089L166.029 274.106C165.853 271.97 164.916 270.9 163.217 270.895ZM179.515 277.391C179.512 278.394 179.128 279.18 178.365 279.751C177.608 280.315 176.559 280.595 175.218 280.59C173.877 280.586 172.855 280.375 172.153 279.956C171.458 279.53 171.004 278.865 170.792 277.959L172.346 277.661C172.468 278.222 172.73 278.633 173.133 278.894C173.543 279.15 174.239 279.279 175.222 279.282C176.98 279.287 177.86 278.733 177.864 277.62C177.865 277.203 177.707 276.868 177.388 276.613C177.07 276.351 176.583 276.138 175.926 275.973C174.208 275.545 173.119 275.209 172.657 274.967C172.196 274.725 171.842 274.424 171.596 274.065C171.349 273.7 171.227 273.247 171.229 272.707C171.232 271.75 171.579 271.002 172.271 270.464C172.963 269.926 173.963 269.659 175.271 269.663C176.417 269.666 177.331 269.887 178.014 270.326C178.696 270.757 179.12 271.387 179.287 272.214L177.704 272.405C177.634 271.936 177.404 271.58 177.014 271.338C176.624 271.096 176.042 270.974 175.267 270.971C173.672 270.966 172.873 271.455 172.87 272.438C172.869 272.829 173.001 273.142 173.268 273.377C173.54 273.612 173.976 273.803 174.574 273.948L175.736 274.254C176.796 274.518 177.557 274.777 178.018 275.033C178.486 275.288 178.853 275.608 179.119 275.993C179.385 276.372 179.517 276.838 179.515 277.391ZM195.061 271.277L195.066 269.891L196.726 269.896L197.301 267.144L198.473 267.147L198.464 269.901L202.683 269.915L202.679 271.301L198.46 271.288L198.44 277.655C198.438 278.17 198.574 278.551 198.846 278.799C199.126 279.047 199.581 279.173 200.212 279.174C201.085 279.177 202.052 279.07 203.114 278.852L203.11 280.189C202.009 280.485 200.918 280.632 199.837 280.628C198.782 280.625 197.992 280.401 197.466 279.957C196.94 279.506 196.678 278.799 196.682 277.835L196.702 271.283L195.061 271.277ZM207.041 266.002L208.808 266.008L208.797 269.817C208.795 270.201 208.764 270.842 208.703 271.74L208.732 271.74C209.42 270.408 210.525 269.744 212.049 269.749C214.327 269.756 215.463 271 215.455 273.48L215.433 280.521L213.665 280.515L213.687 273.728C213.689 272.843 213.519 272.185 213.175 271.754C212.838 271.323 212.295 271.107 211.546 271.104C210.739 271.102 210.074 271.396 209.551 271.987C209.035 272.571 208.776 273.368 208.772 274.377L208.753 280.5L206.995 280.495L207.041 266.002ZM227.956 279.476C228.125 279.477 228.317 279.455 228.532 279.41L228.529 280.503C228.086 280.606 227.633 280.657 227.171 280.655C226.52 280.653 226.045 280.483 225.747 280.143C225.455 279.797 225.29 279.26 225.254 278.53L225.195 278.53C224.769 279.317 224.266 279.881 223.686 280.225C223.112 280.568 222.402 280.738 221.555 280.735C220.527 280.732 219.753 280.45 219.234 279.888C218.715 279.327 218.457 278.558 218.46 277.581C218.467 275.309 219.948 274.161 222.904 274.138L225.209 274.106L225.211 273.53C225.213 272.677 225.043 272.065 224.699 271.693C224.355 271.314 223.806 271.123 223.05 271.121C222.282 271.119 221.728 271.254 221.389 271.526C221.049 271.798 220.846 272.221 220.779 272.794L218.944 272.622C219.249 270.722 220.629 269.776 223.084 269.783C224.386 269.787 225.361 270.096 226.011 270.71C226.666 271.318 226.992 272.198 226.989 273.35L226.974 277.901C226.973 278.422 227.04 278.816 227.176 279.083C227.312 279.344 227.572 279.475 227.956 279.476ZM222.009 279.399C222.634 279.401 223.188 279.253 223.67 278.955C224.153 278.657 224.529 278.258 224.797 277.757C225.066 277.257 225.201 276.74 225.202 276.206L225.205 275.337L223.35 275.37C222.581 275.381 221.995 275.463 221.591 275.618C221.187 275.773 220.87 276.013 220.641 276.338C220.419 276.656 220.307 277.082 220.305 277.616C220.304 278.15 220.446 278.58 220.731 278.907C221.023 279.233 221.449 279.397 222.009 279.399ZM231.096 271.39L231.101 270.004L232.761 270.009L233.336 267.257L234.508 267.26L234.499 270.014L238.718 270.027L238.714 271.414L234.495 271.401L234.475 277.768C234.473 278.282 234.609 278.664 234.881 278.912C235.161 279.16 235.616 279.285 236.247 279.287C237.12 279.29 238.087 279.182 239.149 278.964L239.145 280.302C238.043 280.598 236.953 280.745 235.872 280.741C234.817 280.738 234.027 280.514 233.501 280.07C232.975 279.619 232.713 278.912 232.716 277.948L232.737 271.395L231.096 271.39ZM256.395 275.737C256.392 276.922 256.649 277.851 257.168 278.523C257.693 279.195 258.412 279.533 259.323 279.535C259.994 279.538 260.58 279.396 261.082 279.111C261.591 278.82 261.931 278.424 262.101 277.923L263.643 278.367C263.354 279.174 262.825 279.791 262.055 280.218C261.292 280.645 260.38 280.857 259.319 280.854C257.782 280.849 256.602 280.367 255.778 279.407C254.955 278.448 254.545 277.076 254.551 275.292C254.557 273.554 254.964 272.22 255.775 271.292C256.591 270.357 257.765 269.892 259.295 269.897C260.825 269.901 261.982 270.371 262.767 271.304C263.552 272.237 263.941 273.645 263.935 275.526L263.934 275.761L256.395 275.737ZM259.31 271.195C258.438 271.193 257.747 271.477 257.237 272.048C256.727 272.613 256.455 273.394 256.419 274.39L262.122 274.407C261.947 272.271 261.009 271.201 259.31 271.195ZM273.724 280.704L273.745 273.916C273.748 273.031 273.577 272.373 273.234 271.942C272.896 271.511 272.353 271.295 271.605 271.293C270.797 271.29 270.132 271.584 269.61 272.175C269.094 272.759 268.834 273.556 268.831 274.565L268.812 280.688L267.054 280.683L267.08 272.372C267.084 271.142 267.066 270.39 267.028 270.116L268.688 270.121C268.695 270.154 268.701 270.242 268.707 270.385C268.713 270.528 268.719 270.694 268.725 270.883C268.738 271.066 268.749 271.414 268.761 271.928L268.79 271.928C269.478 270.596 270.606 269.932 272.175 269.937C273.302 269.94 274.141 270.249 274.692 270.863C275.243 271.47 275.517 272.405 275.513 273.668L275.491 280.709L273.724 280.704ZM283.252 284.874C282.158 284.871 281.28 284.643 280.617 284.192C279.954 283.741 279.533 283.095 279.354 282.254L281.151 282.016C281.26 282.505 281.497 282.88 281.861 283.141C282.231 283.409 282.715 283.544 283.314 283.546C284.929 283.551 285.74 282.528 285.746 280.478L285.752 278.583L285.732 278.583C285.411 279.253 284.967 279.759 284.399 280.102C283.832 280.446 283.158 280.616 282.376 280.613C281.087 280.609 280.145 280.187 279.548 279.345C278.958 278.497 278.666 277.168 278.672 275.358C278.678 273.515 279.001 272.162 279.642 271.298C280.283 270.428 281.267 269.995 282.595 269.999C283.331 270.001 283.968 270.176 284.508 270.522C285.053 270.863 285.472 271.349 285.763 271.981L285.792 271.982C285.793 271.786 285.807 271.458 285.834 270.995C285.862 270.527 285.889 270.253 285.915 270.175L287.585 270.181C287.545 270.532 287.523 271.261 287.519 272.368L287.494 280.434C287.489 281.912 287.141 283.021 286.449 283.761C285.756 284.508 284.69 284.879 283.252 284.874ZM285.762 275.36C285.766 274.104 285.525 273.117 285.039 272.399C284.553 271.675 283.883 271.312 283.03 271.309C282.139 271.306 281.493 271.617 281.094 272.24C280.695 272.858 280.493 273.892 280.489 275.344C280.485 276.327 280.564 277.105 280.725 277.679C280.893 278.246 281.152 278.66 281.503 278.921C281.853 279.183 282.345 279.315 282.976 279.317C283.53 279.318 284.015 279.167 284.433 278.862C284.857 278.551 285.184 278.099 285.413 277.508C285.643 276.91 285.759 276.194 285.762 275.36ZM300.026 279.702C300.195 279.702 300.387 279.68 300.602 279.635L300.599 280.729C300.156 280.832 299.703 280.883 299.241 280.881C298.59 280.879 298.115 280.708 297.817 280.369C297.525 280.023 297.36 279.485 297.324 278.756L297.265 278.756C296.839 279.542 296.336 280.107 295.756 280.45C295.182 280.794 294.472 280.964 293.625 280.961C292.597 280.958 291.823 280.676 291.304 280.114C290.785 279.553 290.527 278.784 290.53 277.807C290.537 275.535 292.018 274.387 294.974 274.364L297.279 274.332L297.281 273.756C297.283 272.903 297.113 272.29 296.769 271.918C296.425 271.54 295.875 271.349 295.12 271.347C294.352 271.344 293.798 271.479 293.459 271.752C293.119 272.024 292.916 272.447 292.849 273.019L291.014 272.848C291.319 270.947 292.699 270.001 295.154 270.009C296.456 270.013 297.431 270.322 298.081 270.936C298.736 271.544 299.062 272.424 299.059 273.576L299.044 278.127C299.043 278.647 299.11 279.042 299.246 279.309C299.382 279.57 299.642 279.701 300.026 279.702ZM294.079 279.625C294.704 279.627 295.258 279.479 295.74 279.181C296.223 278.883 296.599 278.484 296.867 277.983C297.136 277.483 297.271 276.965 297.272 276.432L297.275 275.562L295.419 275.596C294.651 275.606 294.065 275.689 293.661 275.844C293.257 275.999 292.94 276.239 292.711 276.564C292.489 276.882 292.377 277.308 292.375 277.842C292.374 278.376 292.516 278.806 292.801 279.132C293.093 279.459 293.519 279.623 294.079 279.625ZM307.275 284.949C306.181 284.946 305.303 284.719 304.64 284.267C303.978 283.816 303.557 283.17 303.377 282.33L305.175 282.091C305.284 282.58 305.52 282.955 305.884 283.216C306.254 283.485 306.739 283.619 307.338 283.621C308.952 283.626 309.763 282.604 309.769 280.553L309.775 278.658L309.756 278.658C309.435 279.328 308.99 279.834 308.423 280.177C307.855 280.521 307.181 280.691 306.4 280.689C305.111 280.685 304.168 280.262 303.572 279.42C302.982 278.572 302.69 277.243 302.695 275.433C302.701 273.591 303.024 272.237 303.665 271.373C304.306 270.503 305.29 270.07 306.618 270.074C307.354 270.076 307.992 270.251 308.531 270.598C309.077 270.938 309.495 271.424 309.786 272.057L309.815 272.057C309.816 271.861 309.83 271.533 309.858 271.071C309.885 270.602 309.912 270.329 309.938 270.251L311.608 270.256C311.568 270.607 311.546 271.336 311.543 272.443L311.517 280.509C311.513 281.987 311.164 283.096 310.472 283.836C309.779 284.583 308.714 284.954 307.275 284.949ZM309.785 275.436C309.789 274.179 309.548 273.192 309.062 272.474C308.576 271.75 307.907 271.387 307.054 271.384C306.162 271.381 305.516 271.692 305.117 272.316C304.718 272.933 304.516 273.967 304.512 275.419C304.509 276.402 304.588 277.18 304.749 277.754C304.916 278.321 305.175 278.735 305.526 278.997C305.877 279.258 306.368 279.39 306.999 279.392C307.553 279.394 308.038 279.242 308.456 278.937C308.88 278.626 309.207 278.175 309.437 277.583C309.666 276.985 309.783 276.269 309.785 275.436ZM316.454 275.925C316.45 277.11 316.707 278.039 317.226 278.711C317.751 279.383 318.47 279.721 319.381 279.724C320.052 279.726 320.638 279.584 321.14 279.299C321.649 279.008 321.989 278.612 322.16 278.111L323.701 278.555C323.412 279.362 322.883 279.979 322.114 280.406C321.35 280.833 320.438 281.045 319.377 281.042C317.841 281.037 316.661 280.555 315.837 279.595C315.013 278.636 314.604 277.264 314.609 275.48C314.615 273.742 315.023 272.408 315.833 271.48C316.65 270.545 317.823 270.08 319.353 270.085C320.883 270.09 322.04 270.559 322.825 271.492C323.61 272.426 323.999 273.833 323.993 275.715L323.993 275.949L316.454 275.925ZM319.368 271.384C318.496 271.381 317.805 271.665 317.295 272.236C316.786 272.801 316.513 273.582 316.477 274.578L322.181 274.596C322.005 272.46 321.068 271.389 319.368 271.384ZM59.7205 301.949C59.8898 301.95 60.0819 301.928 60.2969 301.883L60.2935 302.977C59.8505 303.079 59.3978 303.13 58.9356 303.129C58.2846 303.127 57.8098 302.956 57.5114 302.616C57.2195 302.27 57.0552 301.733 57.0184 301.003L56.9598 301.003C56.5342 301.79 56.0311 302.355 55.4506 302.698C54.8766 303.041 54.1664 303.211 53.3201 303.209C52.2914 303.205 51.5176 302.923 50.9985 302.362C50.4794 301.8 50.2214 301.031 50.2245 300.054C50.2316 297.782 51.7131 296.635 54.6689 296.611L56.9737 296.579L56.9755 296.003C56.9781 295.15 56.8075 294.538 56.4636 294.166C56.1198 293.787 55.5702 293.597 54.815 293.594C54.0468 293.592 53.493 293.727 53.1536 293.999C52.8142 294.271 52.6111 294.694 52.5442 295.267L50.7088 295.095C51.0142 293.195 52.3941 292.249 54.8485 292.256C56.1506 292.26 57.1262 292.569 57.7753 293.184C58.431 293.791 58.757 294.671 58.7534 295.823L58.7391 300.374C58.7375 300.895 58.8046 301.289 58.9405 301.556C59.0764 301.817 59.3364 301.948 59.7205 301.949ZM53.7735 301.872C54.3985 301.874 54.9523 301.726 55.435 301.428C55.9177 301.13 56.2933 300.731 56.5618 300.231C56.8303 299.73 56.9654 299.213 56.9671 298.679L56.9698 297.81L55.1142 297.843C54.346 297.854 53.7598 297.937 53.3556 298.092C52.9515 298.247 52.635 298.486 52.4061 298.811C52.1838 299.13 52.0717 299.556 52.0701 300.089C52.0684 300.623 52.2103 301.053 52.4957 301.38C52.7877 301.706 53.2136 301.87 53.7735 301.872ZM69.4534 303.064L69.4747 296.277C69.4775 295.391 69.307 294.733 68.9633 294.303C68.6261 293.872 68.0831 293.655 67.3344 293.653C66.5272 293.65 65.8622 293.945 65.3395 294.535C64.8233 295.12 64.5637 295.916 64.5605 296.925L64.5413 303.048L62.7835 303.043L62.8096 294.732C62.8134 293.502 62.7962 292.75 62.758 292.476L64.4182 292.482C64.4246 292.514 64.4308 292.602 64.4369 292.745C64.4429 292.889 64.4489 293.055 64.4549 293.243C64.4673 293.426 64.4792 293.774 64.4906 294.289L64.5199 294.289C65.2077 292.956 66.3361 292.292 67.9051 292.297C69.0314 292.301 69.8703 292.609 70.4217 293.223C70.9732 293.83 71.247 294.765 71.243 296.028L71.221 303.069L69.4534 303.064ZM81.4118 301.402C81.0907 302.085 80.6659 302.581 80.1376 302.892C79.6093 303.197 78.9513 303.348 78.1635 303.345C76.8484 303.341 75.883 302.885 75.2674 301.979C74.6517 301.072 74.3468 299.707 74.3525 297.884C74.364 294.199 75.6458 292.361 78.1979 292.369C78.9857 292.371 79.6428 292.513 80.1692 292.795C80.7022 293.076 81.1272 293.537 81.4442 294.176L81.4637 294.176L81.4488 292.701L81.4616 288.609L83.2194 288.615L83.1809 300.929C83.1774 302.029 83.1947 302.755 83.2327 303.107L81.553 303.102C81.5272 303.004 81.5052 302.766 81.4868 302.389C81.4685 302.011 81.4598 301.682 81.4606 301.402L81.4118 301.402ZM76.1691 297.831C76.1645 299.276 76.3533 300.332 76.7353 300.997C77.1239 301.656 77.7544 301.986 78.6268 301.989C79.5773 301.992 80.2815 301.652 80.7393 300.97C81.1972 300.282 81.4285 299.189 81.4332 297.691C81.4376 296.291 81.2194 295.272 80.7787 294.633C80.3445 293.993 79.6424 293.672 78.6723 293.669C77.7934 293.666 77.1576 293.999 76.7649 294.669C76.3722 295.338 76.1736 296.392 76.1691 297.831ZM104.292 301.786L108.002 301.798L107.998 303.185L98.4084 303.155L98.4127 301.768L102.534 301.781L102.558 293.988L99.443 293.978L99.4473 292.591L104.32 292.607L104.292 301.786ZM102.374 290.55L102.38 288.675L104.333 288.681L104.327 290.556L102.374 290.55ZM117.5 303.214L117.521 296.427C117.524 295.542 117.354 294.884 117.01 294.453C116.673 294.022 116.13 293.806 115.381 293.803C114.574 293.801 113.909 294.095 113.386 294.686C112.87 295.27 112.61 296.067 112.607 297.076L112.588 303.199L110.83 303.193L110.856 294.883C110.86 293.653 110.843 292.901 110.805 292.627L112.465 292.632C112.471 292.665 112.477 292.753 112.484 292.896C112.49 293.039 112.496 293.205 112.501 293.394C112.514 293.576 112.526 293.925 112.537 294.439L112.567 294.439C113.254 293.107 114.383 292.443 115.952 292.448C117.078 292.451 117.917 292.76 118.468 293.374C119.02 293.981 119.294 294.916 119.29 296.179L119.268 303.22L117.5 303.214ZM131.396 300.24C131.393 301.243 131.01 302.029 130.246 302.6C129.489 303.164 128.44 303.444 127.099 303.44C125.758 303.436 124.736 303.224 124.035 302.805C123.339 302.38 122.886 301.714 122.674 300.809L124.227 300.511C124.349 301.071 124.612 301.482 125.014 301.744C125.424 301.999 126.12 302.128 127.103 302.131C128.861 302.137 129.742 301.583 129.745 300.47C129.746 300.053 129.588 299.717 129.27 299.462C128.951 299.201 128.464 298.988 127.807 298.823C126.089 298.394 125 298.059 124.538 297.816C124.077 297.574 123.723 297.274 123.477 296.915C123.231 296.549 123.108 296.096 123.11 295.556C123.113 294.599 123.46 293.851 124.152 293.313C124.844 292.775 125.844 292.508 127.153 292.512C128.299 292.516 129.213 292.737 129.895 293.175C130.577 293.607 131.002 294.236 131.168 295.064L129.586 295.254C129.515 294.785 129.285 294.43 128.896 294.188C128.506 293.945 127.923 293.823 127.149 293.821C125.554 293.816 124.755 294.305 124.751 295.288C124.75 295.678 124.883 295.991 125.149 296.227C125.422 296.462 125.857 296.652 126.456 296.797L127.617 297.103C128.677 297.367 129.438 297.627 129.9 297.882C130.368 298.137 130.734 298.458 131 298.843C131.266 299.221 131.398 299.687 131.396 300.24ZM143.708 297.964C143.696 301.649 142.415 303.488 139.863 303.48C138.261 303.475 137.185 302.872 136.636 301.673L136.587 301.673C136.613 301.725 136.624 302.265 136.621 303.294L136.608 307.425L134.84 307.419L134.88 294.89C134.883 293.783 134.866 293.054 134.828 292.702L136.537 292.708C136.543 292.734 136.553 292.831 136.565 293.001C136.578 293.163 136.59 293.408 136.602 293.733C136.621 294.052 136.63 294.29 136.629 294.446L136.668 294.446C136.996 293.764 137.411 293.27 137.913 292.966C138.422 292.655 139.083 292.501 139.897 292.503C141.186 292.507 142.145 292.956 142.774 293.85C143.402 294.738 143.714 296.109 143.708 297.964ZM141.892 297.959C141.896 296.487 141.701 295.439 141.306 294.812C140.911 294.18 140.287 293.862 139.434 293.859C138.451 293.856 137.74 294.212 137.302 294.927C136.863 295.635 136.642 296.712 136.637 298.157C136.633 299.544 136.848 300.56 137.282 301.206C137.716 301.852 138.418 302.176 139.388 302.179C140.254 302.182 140.887 301.855 141.286 301.199C141.685 300.543 141.887 299.463 141.892 297.959ZM152.338 301.937L156.049 301.948L156.045 303.335L146.455 303.305L146.459 301.918L150.58 301.931L150.605 294.138L147.49 294.129L147.494 292.742L152.367 292.757L152.338 301.937ZM150.42 290.7L150.426 288.825L152.379 288.831L152.373 290.706L150.42 290.7ZM167.303 294.405C166.575 294.279 165.885 294.215 165.234 294.213C164.185 294.21 163.338 294.601 162.691 295.387C162.044 296.173 161.718 297.174 161.715 298.392L161.699 303.353L159.941 303.347L159.963 296.502C159.964 296.007 159.921 295.424 159.831 294.753C159.749 294.082 159.627 293.424 159.467 292.779L161.136 292.785C161.394 293.684 161.548 294.498 161.598 295.227L161.646 295.228C161.974 294.499 162.295 293.967 162.608 293.629C162.922 293.285 163.294 293.029 163.724 292.861C164.154 292.687 164.679 292.6 165.297 292.602C165.974 292.604 166.645 292.662 167.308 292.775L167.303 294.405ZM172.242 298.474C172.238 299.659 172.496 300.587 173.014 301.259C173.54 301.932 174.258 302.269 175.169 302.272C175.84 302.274 176.426 302.133 176.928 301.848C177.437 301.556 177.777 301.16 177.948 300.66L179.489 301.104C179.2 301.91 178.671 302.527 177.902 302.954C177.139 303.382 176.226 303.594 175.165 303.59C173.629 303.585 172.449 303.103 171.625 302.144C170.801 301.184 170.392 299.812 170.397 298.028C170.403 296.29 170.811 294.957 171.621 294.028C172.438 293.093 173.611 292.628 175.141 292.633C176.671 292.638 177.828 293.107 178.613 294.041C179.398 294.974 179.787 296.381 179.782 298.263L179.781 298.497L172.242 298.474ZM175.156 293.932C174.284 293.929 173.593 294.214 173.083 294.785C172.574 295.35 172.301 296.13 172.265 297.126L177.969 297.144C177.793 295.008 176.856 293.937 175.156 293.932ZM185.937 303.429L185.946 300.509L188.241 300.516L188.232 303.436L185.937 303.429Z" fill="#5DB9AD"/>
</svg>
