<svg width="432" height="506" viewBox="0 0 432 506" fill="none" xmlns="http://www.w3.org/2000/svg">
<rect x="2.50488" y="0.000488281" width="429.484" height="503.695" rx="19" transform="rotate(0.284869 2.50488 0.000488281)" fill="#F0F2FD"/>
<path d="M60.9966 177.952C57.69 177.935 56.0208 181.116 55.9891 187.495L55.9765 190.023C55.9615 193.052 56.387 195.433 57.253 197.165C58.1192 198.876 59.4056 199.736 61.1122 199.745C63.4589 199.756 65.6249 197.484 67.6102 192.929L68.1862 192.932L67.9267 200.066L67.5747 200.065C67.4479 199.829 67.3314 199.669 67.2251 199.583C67.119 199.476 66.9593 199.422 66.7459 199.421C66.5539 199.42 65.7851 199.586 64.4394 199.921C63.0938 200.234 61.7277 200.388 60.3411 200.381C56.8638 200.363 54.1698 199.411 52.2592 197.525C50.3699 195.638 49.4345 192.817 49.4532 189.062C49.472 185.287 50.4785 182.379 52.4726 180.341C54.4881 178.303 57.1812 177.293 60.5518 177.31C61.8531 177.316 63.1216 177.493 64.3572 177.84C65.6142 178.167 66.3494 178.33 66.5628 178.331C66.7761 178.332 66.9363 178.291 67.0434 178.206C67.1506 178.1 67.2688 177.93 67.3979 177.696L67.7499 177.697L67.9714 184.642L67.3954 184.64C66.4461 182.48 65.4623 180.833 64.444 179.697C63.447 178.54 62.2979 177.958 60.9966 177.952ZM82.8125 188.844L81.1165 188.836L81.0632 199.556L83.1432 199.566L83.1401 200.174L72.7403 200.122L72.7433 199.514L74.8233 199.525L74.9286 178.341L72.8486 178.331L72.8516 177.723L82.5155 177.771C85.2888 177.785 87.2507 177.944 88.4012 178.248C89.5732 178.531 90.3928 178.877 90.8601 179.284C91.8799 180.121 92.3854 181.447 92.3763 183.26C92.3673 185.073 91.9129 186.372 91.0129 187.157C90.1131 187.921 88.7455 188.372 86.9102 188.513L86.9097 188.609C88.6365 188.852 89.8393 189.37 90.518 190.163C91.1967 190.955 91.5315 192.28 91.5223 194.136L91.5138 195.832C91.5083 196.941 91.5579 197.688 91.6627 198.072C91.7888 198.457 92.0438 198.65 92.4278 198.652C92.8118 198.654 93.1113 198.485 93.3263 198.145C93.5628 197.783 93.7799 197.038 93.9775 195.908L94.5212 195.975C94.2775 197.787 93.8554 199.001 93.255 199.616C92.676 200.232 91.5118 200.536 89.7625 200.527C88.0131 200.518 86.7672 200.107 86.0246 199.292C85.3034 198.457 84.9484 196.908 84.9596 194.647L84.9712 192.311C84.9772 191.116 84.8215 190.241 84.5043 189.685C84.2084 189.129 83.6444 188.848 82.8125 188.844ZM81.1685 178.372L81.1195 188.228L82.1435 188.233C83.3595 188.239 84.2573 187.87 84.837 187.126C85.4381 186.383 85.7428 185.168 85.7512 183.483L85.7558 182.555C85.7641 180.87 85.4817 179.759 84.9083 179.223C84.3564 178.665 83.4618 178.383 82.2245 178.377L81.1685 178.372ZM114.893 177.932L123.437 177.974L123.434 178.582L121.674 178.573L121.569 199.757L123.329 199.766L123.326 200.374L113.566 200.325L113.569 199.717L115.329 199.726L115.428 179.726L115.3 179.726L110.398 200.31L106.398 200.29L100.869 179.558L100.741 179.557L100.641 199.653L102.401 199.662L102.398 200.27L98.0462 200.248L98.0492 199.64L99.8092 199.649L99.9145 178.465L98.1545 178.456L98.1576 177.848L106.797 177.891L110.971 194.392L114.893 177.932Z" fill="#6F7DCF"/>
<circle cx="31.4906" cy="49.6994" r="1.62566" transform="rotate(0.284869 31.4906 49.6994)" fill="#3B9D91"/>
<circle cx="47.1566" cy="49.7768" r="1.62566" transform="rotate(0.284869 47.1566 49.7768)" fill="#3B9D91"/>
<circle cx="62.8207" cy="49.8549" r="1.62566" transform="rotate(0.284869 62.8207 49.8549)" fill="#3B9D91"/>
<circle cx="78.4857" cy="49.9325" r="1.62566" transform="rotate(0.284869 78.4857 49.9325)" fill="#3B9D91"/>
<circle cx="94.1517" cy="50.0107" r="1.62566" transform="rotate(0.284869 94.1517 50.0107)" fill="#3B9D91"/>
<circle cx="109.816" cy="50.0883" r="1.62566" transform="rotate(0.284869 109.816 50.0883)" fill="#3B9D91"/>
<circle cx="125.482" cy="50.1664" r="1.62566" transform="rotate(0.284869 125.482 50.1664)" fill="#3B9D91"/>
<circle cx="141.148" cy="50.2441" r="1.62566" transform="rotate(0.284869 141.148 50.2441)" fill="#3B9D91"/>
<circle cx="156.811" cy="50.3222" r="1.62566" transform="rotate(0.284869 156.811 50.3222)" fill="#3B9D91"/>
<circle cx="172.477" cy="50.3998" r="1.62566" transform="rotate(0.284869 172.477 50.3998)" fill="#3B9D91"/>
<circle cx="186.665" cy="50.4706" r="1.62566" transform="rotate(0.284869 186.665 50.4706)" fill="#3B9D91"/>
<circle cx="202.33" cy="50.5485" r="1.62566" transform="rotate(0.284869 202.33 50.5485)" fill="#3B9D91"/>
<circle cx="217.995" cy="50.6264" r="1.62566" transform="rotate(0.284869 217.995 50.6264)" fill="#3B9D91"/>
<circle cx="233.661" cy="50.704" r="1.62566" transform="rotate(0.284869 233.661 50.704)" fill="#3B9D91"/>
<circle cx="249.325" cy="50.7822" r="1.62566" transform="rotate(0.284869 249.325 50.7822)" fill="#3B9D91"/>
<circle cx="264.991" cy="50.8603" r="1.62566" transform="rotate(0.284869 264.991 50.8603)" fill="#3B9D91"/>
<circle cx="280.656" cy="50.9379" r="1.62566" transform="rotate(0.284869 280.656 50.9379)" fill="#3B9D91"/>
<circle cx="296.32" cy="51.0158" r="1.62566" transform="rotate(0.284869 296.32 51.0158)" fill="#3B9D91"/>
<circle cx="311.986" cy="51.0937" r="1.62566" transform="rotate(0.284869 311.986 51.0937)" fill="#3B9D91"/>
<circle cx="327.652" cy="51.1713" r="1.62566" transform="rotate(0.284869 327.652 51.1713)" fill="#3B9D91"/>
<circle cx="343.318" cy="51.2494" r="1.62566" transform="rotate(0.284869 343.318 51.2494)" fill="#3B9D91"/>
<circle cx="358.982" cy="51.3273" r="1.62566" transform="rotate(0.284869 358.982 51.3273)" fill="#3B9D91"/>
<circle cx="374.647" cy="51.4052" r="1.62566" transform="rotate(0.284869 374.647 51.4052)" fill="#3B9D91"/>
<circle cx="390.313" cy="51.4828" r="1.62566" transform="rotate(0.284869 390.313 51.4828)" fill="#3B9D91"/>
<circle cx="405.977" cy="51.561" r="1.62566" transform="rotate(0.284869 405.977 51.561)" fill="#3B9D91"/>
<circle cx="31.4174" cy="64.1823" r="1.62566" transform="rotate(0.284869 31.4174 64.1823)" fill="#3B9D91"/>
<circle cx="47.0834" cy="64.2604" r="1.62566" transform="rotate(0.284869 47.0834 64.2604)" fill="#3B9D91"/>
<circle cx="62.7474" cy="64.3383" r="1.62566" transform="rotate(0.284869 62.7474 64.3383)" fill="#3B9D91"/>
<circle cx="78.4125" cy="64.4162" r="1.62566" transform="rotate(0.284869 78.4125 64.4162)" fill="#3B9D91"/>
<circle cx="94.0785" cy="64.4938" r="1.62566" transform="rotate(0.284869 94.0785 64.4938)" fill="#3B9D91"/>
<circle cx="109.743" cy="64.572" r="1.62566" transform="rotate(0.284869 109.743 64.572)" fill="#3B9D91"/>
<circle cx="125.409" cy="64.6496" r="1.62566" transform="rotate(0.284869 125.409 64.6496)" fill="#3B9D91"/>
<circle cx="141.075" cy="64.7277" r="1.62566" transform="rotate(0.284869 141.075 64.7277)" fill="#3B9D91"/>
<circle cx="156.739" cy="64.8056" r="1.62566" transform="rotate(0.284869 156.739 64.8056)" fill="#3B9D91"/>
<circle cx="172.404" cy="64.8835" r="1.62566" transform="rotate(0.284869 172.404 64.8835)" fill="#3B9D91"/>
<circle cx="186.592" cy="64.9538" r="1.62566" transform="rotate(0.284869 186.592 64.9538)" fill="#3B9D91"/>
<circle cx="202.257" cy="65.0319" r="1.62566" transform="rotate(0.284869 202.257 65.0319)" fill="#3B9D91"/>
<circle cx="217.921" cy="65.1096" r="1.62566" transform="rotate(0.284869 217.921 65.1096)" fill="#3B9D91"/>
<circle cx="233.587" cy="65.1877" r="1.62566" transform="rotate(0.284869 233.587 65.1877)" fill="#3B9D91"/>
<circle cx="249.251" cy="65.2656" r="1.62566" transform="rotate(0.284869 249.251 65.2656)" fill="#3B9D91"/>
<circle cx="264.917" cy="65.3434" r="1.62566" transform="rotate(0.284869 264.917 65.3434)" fill="#3B9D91"/>
<circle cx="280.583" cy="65.4211" r="1.62566" transform="rotate(0.284869 280.583 65.4211)" fill="#3B9D91"/>
<circle cx="296.246" cy="65.4994" r="1.62566" transform="rotate(0.284869 296.246 65.4994)" fill="#3B9D91"/>
<circle cx="311.912" cy="65.5771" r="1.62566" transform="rotate(0.284869 311.912 65.5771)" fill="#3B9D91"/>
<circle cx="327.578" cy="65.655" r="1.62566" transform="rotate(0.284869 327.578 65.655)" fill="#3B9D91"/>
<circle cx="343.245" cy="65.7326" r="1.62566" transform="rotate(0.284869 343.245 65.7326)" fill="#3B9D91"/>
<circle cx="358.909" cy="65.8107" r="1.62566" transform="rotate(0.284869 358.909 65.8107)" fill="#3B9D91"/>
<circle cx="374.574" cy="65.8886" r="1.62566" transform="rotate(0.284869 374.574 65.8886)" fill="#3B9D91"/>
<circle cx="390.24" cy="65.9665" r="1.62566" transform="rotate(0.284869 390.24 65.9665)" fill="#3B9D91"/>
<circle cx="405.904" cy="66.0444" r="1.62566" transform="rotate(0.284869 405.904 66.0444)" fill="#3B9D91"/>
<circle cx="31.3461" cy="78.665" r="1.62566" transform="rotate(0.284869 31.3461 78.665)" fill="#3B9D91"/>
<circle cx="47.0121" cy="78.7426" r="1.62566" transform="rotate(0.284869 47.0121 78.7426)" fill="#3B9D91"/>
<circle cx="62.6761" cy="78.8207" r="1.62566" transform="rotate(0.284869 62.6761 78.8207)" fill="#3B9D91"/>
<circle cx="78.3412" cy="78.8984" r="1.62566" transform="rotate(0.284869 78.3412 78.8984)" fill="#3B9D91"/>
<circle cx="94.0072" cy="78.9765" r="1.62566" transform="rotate(0.284869 94.0072 78.9765)" fill="#3B9D91"/>
<circle cx="109.671" cy="79.0544" r="1.62566" transform="rotate(0.284869 109.671 79.0544)" fill="#3B9D91"/>
<circle cx="125.337" cy="79.1323" r="1.62566" transform="rotate(0.284869 125.337 79.1323)" fill="#3B9D91"/>
<circle cx="141.003" cy="79.2099" r="1.62566" transform="rotate(0.284869 141.003 79.2099)" fill="#3B9D91"/>
<circle cx="156.667" cy="79.288" r="1.62566" transform="rotate(0.284869 156.667 79.288)" fill="#3B9D91"/>
<circle cx="172.332" cy="79.3657" r="1.62566" transform="rotate(0.284869 172.332 79.3657)" fill="#3B9D91"/>
<circle cx="186.521" cy="79.4365" r="1.62566" transform="rotate(0.284869 186.521 79.4365)" fill="#3B9D91"/>
<circle cx="202.186" cy="79.5143" r="1.62566" transform="rotate(0.284869 202.186 79.5143)" fill="#3B9D91"/>
<circle cx="217.85" cy="79.5922" r="1.62566" transform="rotate(0.284869 217.85 79.5922)" fill="#3B9D91"/>
<circle cx="233.516" cy="79.6699" r="1.62566" transform="rotate(0.284869 233.516 79.6699)" fill="#3B9D91"/>
<circle cx="249.18" cy="79.748" r="1.62566" transform="rotate(0.284869 249.18 79.748)" fill="#3B9D91"/>
<circle cx="264.846" cy="79.8261" r="1.62566" transform="rotate(0.284869 264.846 79.8261)" fill="#3B9D91"/>
<circle cx="280.512" cy="79.9037" r="1.62566" transform="rotate(0.284869 280.512 79.9037)" fill="#3B9D91"/>
<circle cx="296.175" cy="79.9816" r="1.62566" transform="rotate(0.284869 296.175 79.9816)" fill="#3B9D91"/>
<circle cx="311.841" cy="80.0595" r="1.62566" transform="rotate(0.284869 311.841 80.0595)" fill="#3B9D91"/>
<circle cx="327.507" cy="80.1371" r="1.62566" transform="rotate(0.284869 327.507 80.1371)" fill="#3B9D91"/>
<circle cx="343.173" cy="80.2153" r="1.62566" transform="rotate(0.284869 343.173 80.2153)" fill="#3B9D91"/>
<circle cx="358.837" cy="80.2931" r="1.62566" transform="rotate(0.284869 358.837 80.2931)" fill="#3B9D91"/>
<circle cx="374.502" cy="80.371" r="1.62566" transform="rotate(0.284869 374.502 80.371)" fill="#3B9D91"/>
<circle cx="390.168" cy="80.4487" r="1.62566" transform="rotate(0.284869 390.168 80.4487)" fill="#3B9D91"/>
<circle cx="405.832" cy="80.527" r="1.62566" transform="rotate(0.284869 405.832 80.527)" fill="#3B9D91"/>
<circle cx="31.2748" cy="93.1479" r="1.62566" transform="rotate(0.284869 31.2748 93.1479)" fill="#3B9D91"/>
<circle cx="46.9408" cy="93.226" r="1.62566" transform="rotate(0.284869 46.9408 93.226)" fill="#3B9D91"/>
<circle cx="62.6049" cy="93.3039" r="1.62566" transform="rotate(0.284869 62.6049 93.3039)" fill="#3B9D91"/>
<circle cx="78.2699" cy="93.3818" r="1.62566" transform="rotate(0.284869 78.2699 93.3818)" fill="#3B9D91"/>
<circle cx="93.9359" cy="93.4594" r="1.62566" transform="rotate(0.284869 93.9359 93.4594)" fill="#3B9D91"/>
<circle cx="109.6" cy="93.5375" r="1.62566" transform="rotate(0.284869 109.6 93.5375)" fill="#3B9D91"/>
<circle cx="125.266" cy="93.6152" r="1.62566" transform="rotate(0.284869 125.266 93.6152)" fill="#3B9D91"/>
<circle cx="140.932" cy="93.6933" r="1.62566" transform="rotate(0.284869 140.932 93.6933)" fill="#3B9D91"/>
<circle cx="156.596" cy="93.7712" r="1.62566" transform="rotate(0.284869 156.596 93.7712)" fill="#3B9D91"/>
<circle cx="172.261" cy="93.8491" r="1.62566" transform="rotate(0.284869 172.261 93.8491)" fill="#3B9D91"/>
<circle cx="186.45" cy="93.9194" r="1.62566" transform="rotate(0.284869 186.45 93.9194)" fill="#3B9D91"/>
<circle cx="202.115" cy="93.9975" r="1.62566" transform="rotate(0.284869 202.115 93.9975)" fill="#3B9D91"/>
<circle cx="217.779" cy="94.0754" r="1.62566" transform="rotate(0.284869 217.779 94.0754)" fill="#3B9D91"/>
<circle cx="233.445" cy="94.1533" r="1.62566" transform="rotate(0.284869 233.445 94.1533)" fill="#3B9D91"/>
<circle cx="249.109" cy="94.2311" r="1.62566" transform="rotate(0.284869 249.109 94.2311)" fill="#3B9D91"/>
<circle cx="264.775" cy="94.309" r="1.62566" transform="rotate(0.284869 264.775 94.309)" fill="#3B9D91"/>
<circle cx="280.441" cy="94.3867" r="1.62566" transform="rotate(0.284869 280.441 94.3867)" fill="#3B9D91"/>
<circle cx="296.104" cy="94.465" r="1.62566" transform="rotate(0.284869 296.104 94.465)" fill="#3B9D91"/>
<circle cx="311.77" cy="94.5427" r="1.62566" transform="rotate(0.284869 311.77 94.5427)" fill="#3B9D91"/>
<circle cx="327.436" cy="94.6205" r="1.62566" transform="rotate(0.284869 327.436 94.6205)" fill="#3B9D91"/>
<circle cx="343.102" cy="94.6982" r="1.62566" transform="rotate(0.284869 343.102 94.6982)" fill="#3B9D91"/>
<circle cx="358.766" cy="94.7765" r="1.62566" transform="rotate(0.284869 358.766 94.7765)" fill="#3B9D91"/>
<circle cx="374.431" cy="94.8542" r="1.62566" transform="rotate(0.284869 374.431 94.8542)" fill="#3B9D91"/>
<circle cx="390.097" cy="94.9321" r="1.62566" transform="rotate(0.284869 390.097 94.9321)" fill="#3B9D91"/>
<circle cx="405.761" cy="95.0099" r="1.62566" transform="rotate(0.284869 405.761 95.0099)" fill="#3B9D91"/>
<circle cx="31.2035" cy="107.631" r="1.62566" transform="rotate(0.284869 31.2035 107.631)" fill="#3B9D91"/>
<circle cx="46.8695" cy="107.708" r="1.62566" transform="rotate(0.284869 46.8695 107.708)" fill="#3B9D91"/>
<circle cx="62.5336" cy="107.786" r="1.62566" transform="rotate(0.284869 62.5336 107.786)" fill="#3B9D91"/>
<circle cx="78.1986" cy="107.864" r="1.62566" transform="rotate(0.284869 78.1986 107.864)" fill="#3B9D91"/>
<circle cx="93.8646" cy="107.942" r="1.62566" transform="rotate(0.284869 93.8646 107.942)" fill="#3B9D91"/>
<circle cx="109.529" cy="108.02" r="1.62566" transform="rotate(0.284869 109.529 108.02)" fill="#3B9D91"/>
<circle cx="125.195" cy="108.098" r="1.62566" transform="rotate(0.284869 125.195 108.098)" fill="#3B9D91"/>
<circle cx="140.861" cy="108.175" r="1.62566" transform="rotate(0.284869 140.861 108.175)" fill="#3B9D91"/>
<circle cx="156.524" cy="108.254" r="1.62566" transform="rotate(0.284869 156.524 108.254)" fill="#3B9D91"/>
<circle cx="172.19" cy="108.331" r="1.62566" transform="rotate(0.284869 172.19 108.331)" fill="#3B9D91"/>
<circle cx="186.378" cy="108.402" r="1.62566" transform="rotate(0.284869 186.378 108.402)" fill="#3B9D91"/>
<circle cx="202.043" cy="108.48" r="1.62566" transform="rotate(0.284869 202.043 108.48)" fill="#3B9D91"/>
<circle cx="217.707" cy="108.558" r="1.62566" transform="rotate(0.284869 217.707 108.558)" fill="#3B9D91"/>
<circle cx="233.373" cy="108.635" r="1.62566" transform="rotate(0.284869 233.373 108.635)" fill="#3B9D91"/>
<circle cx="249.037" cy="108.714" r="1.62566" transform="rotate(0.284869 249.037 108.714)" fill="#3B9D91"/>
<circle cx="264.703" cy="108.792" r="1.62566" transform="rotate(0.284869 264.703 108.792)" fill="#3B9D91"/>
<circle cx="280.369" cy="108.869" r="1.62566" transform="rotate(0.284869 280.369 108.869)" fill="#3B9D91"/>
<circle cx="296.033" cy="108.947" r="1.62566" transform="rotate(0.284869 296.033 108.947)" fill="#3B9D91"/>
<circle cx="311.699" cy="109.025" r="1.62566" transform="rotate(0.284869 311.699 109.025)" fill="#3B9D91"/>
<circle cx="327.365" cy="109.103" r="1.62566" transform="rotate(0.284869 327.365 109.103)" fill="#3B9D91"/>
<circle cx="343.031" cy="109.181" r="1.62566" transform="rotate(0.284869 343.031 109.181)" fill="#3B9D91"/>
<circle cx="358.695" cy="109.259" r="1.62566" transform="rotate(0.284869 358.695 109.259)" fill="#3B9D91"/>
<circle cx="374.36" cy="109.337" r="1.62566" transform="rotate(0.284869 374.36 109.337)" fill="#3B9D91"/>
<circle cx="390.026" cy="109.414" r="1.62566" transform="rotate(0.284869 390.026 109.414)" fill="#3B9D91"/>
<circle cx="405.69" cy="109.493" r="1.62566" transform="rotate(0.284869 405.69 109.493)" fill="#3B9D91"/>
<circle cx="31.1302" cy="122.114" r="1.62566" transform="rotate(0.284869 31.1302 122.114)" fill="#3B9D91"/>
<circle cx="46.7963" cy="122.191" r="1.62566" transform="rotate(0.284869 46.7963 122.191)" fill="#3B9D91"/>
<circle cx="62.4594" cy="122.269" r="1.62566" transform="rotate(0.284869 62.4594 122.269)" fill="#3B9D91"/>
<circle cx="78.1254" cy="122.347" r="1.62566" transform="rotate(0.284869 78.1254 122.347)" fill="#3B9D91"/>
<circle cx="93.7914" cy="122.425" r="1.62566" transform="rotate(0.284869 93.7914 122.425)" fill="#3B9D91"/>
<circle cx="109.455" cy="122.503" r="1.62566" transform="rotate(0.284869 109.455 122.503)" fill="#3B9D91"/>
<circle cx="125.121" cy="122.581" r="1.62566" transform="rotate(0.284869 125.121 122.581)" fill="#3B9D91"/>
<circle cx="140.787" cy="122.659" r="1.62566" transform="rotate(0.284869 140.787 122.659)" fill="#3B9D91"/>
<circle cx="156.451" cy="122.737" r="1.62566" transform="rotate(0.284869 156.451 122.737)" fill="#3B9D91"/>
<circle cx="172.117" cy="122.815" r="1.62566" transform="rotate(0.284869 172.117 122.815)" fill="#3B9D91"/>
<circle cx="186.304" cy="122.885" r="1.62566" transform="rotate(0.284869 186.304 122.885)" fill="#3B9D91"/>
<circle cx="201.97" cy="122.963" r="1.62566" transform="rotate(0.284869 201.97 122.963)" fill="#3B9D91"/>
<circle cx="217.634" cy="123.041" r="1.62566" transform="rotate(0.284869 217.634 123.041)" fill="#3B9D91"/>
<circle cx="233.3" cy="123.119" r="1.62566" transform="rotate(0.284869 233.3 123.119)" fill="#3B9D91"/>
<circle cx="248.964" cy="123.197" r="1.62566" transform="rotate(0.284869 248.964 123.197)" fill="#3B9D91"/>
<circle cx="264.629" cy="123.275" r="1.62566" transform="rotate(0.284869 264.629 123.275)" fill="#3B9D91"/>
<circle cx="280.295" cy="123.352" r="1.62566" transform="rotate(0.284869 280.295 123.352)" fill="#3B9D91"/>
<circle cx="295.959" cy="123.43" r="1.62566" transform="rotate(0.284869 295.959 123.43)" fill="#3B9D91"/>
<circle cx="311.625" cy="123.508" r="1.62566" transform="rotate(0.284869 311.625 123.508)" fill="#3B9D91"/>
<circle cx="327.291" cy="123.586" r="1.62566" transform="rotate(0.284869 327.291 123.586)" fill="#3B9D91"/>
<circle cx="342.957" cy="123.664" r="1.62566" transform="rotate(0.284869 342.957 123.664)" fill="#3B9D91"/>
<circle cx="358.62" cy="123.742" r="1.62566" transform="rotate(0.284869 358.62 123.742)" fill="#3B9D91"/>
<circle cx="374.286" cy="123.82" r="1.62566" transform="rotate(0.284869 374.286 123.82)" fill="#3B9D91"/>
<circle cx="389.953" cy="123.897" r="1.62566" transform="rotate(0.284869 389.953 123.897)" fill="#3B9D91"/>
<circle cx="405.617" cy="123.976" r="1.62566" transform="rotate(0.284869 405.617 123.976)" fill="#3B9D91"/>
<circle cx="29.809" cy="387.832" r="1.62566" transform="rotate(0.284869 29.809 387.832)" fill="#3B9D91"/>
<circle cx="45.475" cy="387.909" r="1.62566" transform="rotate(0.284869 45.475 387.909)" fill="#3B9D91"/>
<circle cx="61.139" cy="387.988" r="1.62566" transform="rotate(0.284869 61.139 387.988)" fill="#3B9D91"/>
<circle cx="76.8041" cy="388.065" r="1.62566" transform="rotate(0.284869 76.8041 388.065)" fill="#3B9D91"/>
<circle cx="92.4681" cy="388.143" r="1.62566" transform="rotate(0.284869 92.4681 388.143)" fill="#3B9D91"/>
<circle cx="108.134" cy="388.221" r="1.62566" transform="rotate(0.284869 108.134 388.221)" fill="#3B9D91"/>
<circle cx="123.8" cy="388.299" r="1.62566" transform="rotate(0.284869 123.8 388.299)" fill="#3B9D91"/>
<circle cx="139.466" cy="388.377" r="1.62566" transform="rotate(0.284869 139.466 388.377)" fill="#3B9D91"/>
<circle cx="155.13" cy="388.455" r="1.62566" transform="rotate(0.284869 155.13 388.455)" fill="#3B9D91"/>
<circle cx="170.795" cy="388.533" r="1.62566" transform="rotate(0.284869 170.795 388.533)" fill="#3B9D91"/>
<circle cx="184.984" cy="388.603" r="1.62566" transform="rotate(0.284869 184.984 388.603)" fill="#3B9D91"/>
<circle cx="200.647" cy="388.681" r="1.62566" transform="rotate(0.284869 200.647 388.681)" fill="#3B9D91"/>
<circle cx="216.313" cy="388.759" r="1.62566" transform="rotate(0.284869 216.313 388.759)" fill="#3B9D91"/>
<circle cx="231.979" cy="388.837" r="1.62566" transform="rotate(0.284869 231.979 388.837)" fill="#3B9D91"/>
<circle cx="247.643" cy="388.915" r="1.62566" transform="rotate(0.284869 247.643 388.915)" fill="#3B9D91"/>
<circle cx="263.309" cy="388.993" r="1.62566" transform="rotate(0.284869 263.309 388.993)" fill="#3B9D91"/>
<circle cx="278.975" cy="389.07" r="1.62566" transform="rotate(0.284869 278.975 389.07)" fill="#3B9D91"/>
<circle cx="294.638" cy="389.148" r="1.62566" transform="rotate(0.284869 294.638 389.148)" fill="#3B9D91"/>
<circle cx="310.304" cy="389.227" r="1.62566" transform="rotate(0.284869 310.304 389.227)" fill="#3B9D91"/>
<circle cx="325.97" cy="389.304" r="1.62566" transform="rotate(0.284869 325.97 389.304)" fill="#3B9D91"/>
<circle cx="341.636" cy="389.382" r="1.62566" transform="rotate(0.284869 341.636 389.382)" fill="#3B9D91"/>
<circle cx="357.3" cy="389.46" r="1.62566" transform="rotate(0.284869 357.3 389.46)" fill="#3B9D91"/>
<circle cx="372.965" cy="389.538" r="1.62566" transform="rotate(0.284869 372.965 389.538)" fill="#3B9D91"/>
<circle cx="388.631" cy="389.616" r="1.62566" transform="rotate(0.284869 388.631 389.616)" fill="#3B9D91"/>
<circle cx="404.295" cy="389.694" r="1.62566" transform="rotate(0.284869 404.295 389.694)" fill="#3B9D91"/>
<circle cx="29.7426" cy="401.428" r="1.62566" transform="rotate(0.284869 29.7426 401.428)" fill="#3B9D91"/>
<circle cx="45.4086" cy="401.506" r="1.62566" transform="rotate(0.284869 45.4086 401.506)" fill="#3B9D91"/>
<circle cx="61.0726" cy="401.584" r="1.62566" transform="rotate(0.284869 61.0726 401.584)" fill="#3B9D91"/>
<circle cx="76.7386" cy="401.662" r="1.62566" transform="rotate(0.284869 76.7386 401.662)" fill="#3B9D91"/>
<circle cx="92.4047" cy="401.739" r="1.62566" transform="rotate(0.284869 92.4047 401.739)" fill="#3B9D91"/>
<circle cx="108.068" cy="401.818" r="1.62566" transform="rotate(0.284869 108.068 401.818)" fill="#3B9D91"/>
<circle cx="123.734" cy="401.895" r="1.62566" transform="rotate(0.284869 123.734 401.895)" fill="#3B9D91"/>
<circle cx="139.398" cy="401.974" r="1.62566" transform="rotate(0.284869 139.398 401.974)" fill="#3B9D91"/>
<circle cx="155.064" cy="402.051" r="1.62566" transform="rotate(0.284869 155.064 402.051)" fill="#3B9D91"/>
<circle cx="170.73" cy="402.129" r="1.62566" transform="rotate(0.284869 170.73 402.129)" fill="#3B9D91"/>
<circle cx="184.917" cy="402.199" r="1.62566" transform="rotate(0.284869 184.917 402.199)" fill="#3B9D91"/>
<circle cx="200.583" cy="402.278" r="1.62566" transform="rotate(0.284869 200.583 402.278)" fill="#3B9D91"/>
<circle cx="216.246" cy="402.355" r="1.62566" transform="rotate(0.284869 216.246 402.355)" fill="#3B9D91"/>
<circle cx="231.912" cy="402.433" r="1.62566" transform="rotate(0.284869 231.912 402.433)" fill="#3B9D91"/>
<circle cx="247.577" cy="402.511" r="1.62566" transform="rotate(0.284869 247.577 402.511)" fill="#3B9D91"/>
<circle cx="263.243" cy="402.589" r="1.62566" transform="rotate(0.284869 263.243 402.589)" fill="#3B9D91"/>
<circle cx="278.909" cy="402.667" r="1.62566" transform="rotate(0.284869 278.909 402.667)" fill="#3B9D91"/>
<circle cx="294.572" cy="402.745" r="1.62566" transform="rotate(0.284869 294.572 402.745)" fill="#3B9D91"/>
<circle cx="310.238" cy="402.823" r="1.62566" transform="rotate(0.284869 310.238 402.823)" fill="#3B9D91"/>
<circle cx="325.904" cy="402.901" r="1.62566" transform="rotate(0.284869 325.904 402.901)" fill="#3B9D91"/>
<circle cx="341.57" cy="402.978" r="1.62566" transform="rotate(0.284869 341.57 402.978)" fill="#3B9D91"/>
<circle cx="357.234" cy="403.056" r="1.62566" transform="rotate(0.284869 357.234 403.056)" fill="#3B9D91"/>
<circle cx="372.9" cy="403.134" r="1.62566" transform="rotate(0.284869 372.9 403.134)" fill="#3B9D91"/>
<circle cx="388.566" cy="403.212" r="1.62566" transform="rotate(0.284869 388.566 403.212)" fill="#3B9D91"/>
<circle cx="404.229" cy="403.29" r="1.62566" transform="rotate(0.284869 404.229 403.29)" fill="#3B9D91"/>
<circle cx="29.6742" cy="415.024" r="1.62566" transform="rotate(0.284869 29.6742 415.024)" fill="#3B9D91"/>
<circle cx="45.3402" cy="415.102" r="1.62566" transform="rotate(0.284869 45.3402 415.102)" fill="#3B9D91"/>
<circle cx="61.0043" cy="415.18" r="1.62566" transform="rotate(0.284869 61.0043 415.18)" fill="#3B9D91"/>
<circle cx="76.6693" cy="415.258" r="1.62566" transform="rotate(0.284869 76.6693 415.258)" fill="#3B9D91"/>
<circle cx="92.3353" cy="415.335" r="1.62566" transform="rotate(0.284869 92.3353 415.335)" fill="#3B9D91"/>
<circle cx="107.999" cy="415.413" r="1.62566" transform="rotate(0.284869 107.999 415.413)" fill="#3B9D91"/>
<circle cx="123.665" cy="415.491" r="1.62566" transform="rotate(0.284869 123.665 415.491)" fill="#3B9D91"/>
<circle cx="139.331" cy="415.569" r="1.62566" transform="rotate(0.284869 139.331 415.569)" fill="#3B9D91"/>
<circle cx="154.995" cy="415.647" r="1.62566" transform="rotate(0.284869 154.995 415.647)" fill="#3B9D91"/>
<circle cx="170.661" cy="415.725" r="1.62566" transform="rotate(0.284869 170.661 415.725)" fill="#3B9D91"/>
<circle cx="184.849" cy="415.795" r="1.62566" transform="rotate(0.284869 184.849 415.795)" fill="#3B9D91"/>
<circle cx="200.514" cy="415.873" r="1.62566" transform="rotate(0.284869 200.514 415.873)" fill="#3B9D91"/>
<circle cx="216.178" cy="415.951" r="1.62566" transform="rotate(0.284869 216.178 415.951)" fill="#3B9D91"/>
<circle cx="231.844" cy="416.029" r="1.62566" transform="rotate(0.284869 231.844 416.029)" fill="#3B9D91"/>
<circle cx="247.508" cy="416.107" r="1.62566" transform="rotate(0.284869 247.508 416.107)" fill="#3B9D91"/>
<circle cx="263.174" cy="416.185" r="1.62566" transform="rotate(0.284869 263.174 416.185)" fill="#3B9D91"/>
<circle cx="278.839" cy="416.263" r="1.62566" transform="rotate(0.284869 278.839 416.263)" fill="#3B9D91"/>
<circle cx="294.503" cy="416.341" r="1.62566" transform="rotate(0.284869 294.503 416.341)" fill="#3B9D91"/>
<circle cx="310.169" cy="416.418" r="1.62566" transform="rotate(0.284869 310.169 416.418)" fill="#3B9D91"/>
<circle cx="325.835" cy="416.497" r="1.62566" transform="rotate(0.284869 325.835 416.497)" fill="#3B9D91"/>
<circle cx="341.501" cy="416.574" r="1.62566" transform="rotate(0.284869 341.501 416.574)" fill="#3B9D91"/>
<circle cx="357.165" cy="416.652" r="1.62566" transform="rotate(0.284869 357.165 416.652)" fill="#3B9D91"/>
<circle cx="372.83" cy="416.73" r="1.62566" transform="rotate(0.284869 372.83 416.73)" fill="#3B9D91"/>
<circle cx="388.496" cy="416.808" r="1.62566" transform="rotate(0.284869 388.496 416.808)" fill="#3B9D91"/>
<circle cx="404.161" cy="416.886" r="1.62566" transform="rotate(0.284869 404.161 416.886)" fill="#3B9D91"/>
<circle cx="29.6058" cy="428.621" r="1.62566" transform="rotate(0.284869 29.6058 428.621)" fill="#3B9D91"/>
<circle cx="45.2719" cy="428.698" r="1.62566" transform="rotate(0.284869 45.2719 428.698)" fill="#3B9D91"/>
<circle cx="60.9359" cy="428.777" r="1.62566" transform="rotate(0.284869 60.9359 428.777)" fill="#3B9D91"/>
<circle cx="76.601" cy="428.854" r="1.62566" transform="rotate(0.284869 76.601 428.854)" fill="#3B9D91"/>
<circle cx="92.267" cy="428.932" r="1.62566" transform="rotate(0.284869 92.267 428.932)" fill="#3B9D91"/>
<circle cx="107.931" cy="429.01" r="1.62566" transform="rotate(0.284869 107.931 429.01)" fill="#3B9D91"/>
<circle cx="123.597" cy="429.088" r="1.62566" transform="rotate(0.284869 123.597 429.088)" fill="#3B9D91"/>
<circle cx="139.263" cy="429.165" r="1.62566" transform="rotate(0.284869 139.263 429.165)" fill="#3B9D91"/>
<circle cx="154.927" cy="429.244" r="1.62566" transform="rotate(0.284869 154.927 429.244)" fill="#3B9D91"/>
<circle cx="170.592" cy="429.321" r="1.62566" transform="rotate(0.284869 170.592 429.321)" fill="#3B9D91"/>
<circle cx="184.781" cy="429.392" r="1.62566" transform="rotate(0.284869 184.781 429.392)" fill="#3B9D91"/>
<circle cx="200.446" cy="429.47" r="1.62566" transform="rotate(0.284869 200.446 429.47)" fill="#3B9D91"/>
<circle cx="216.11" cy="429.548" r="1.62566" transform="rotate(0.284869 216.11 429.548)" fill="#3B9D91"/>
<circle cx="231.776" cy="429.625" r="1.62566" transform="rotate(0.284869 231.776 429.625)" fill="#3B9D91"/>
<circle cx="247.44" cy="429.704" r="1.62566" transform="rotate(0.284869 247.44 429.704)" fill="#3B9D91"/>
<circle cx="263.106" cy="429.781" r="1.62566" transform="rotate(0.284869 263.106 429.781)" fill="#3B9D91"/>
<circle cx="278.772" cy="429.859" r="1.62566" transform="rotate(0.284869 278.772 429.859)" fill="#3B9D91"/>
<circle cx="294.435" cy="429.937" r="1.62566" transform="rotate(0.284869 294.435 429.937)" fill="#3B9D91"/>
<circle cx="310.101" cy="430.015" r="1.62566" transform="rotate(0.284869 310.101 430.015)" fill="#3B9D91"/>
<circle cx="325.767" cy="430.093" r="1.62566" transform="rotate(0.284869 325.767 430.093)" fill="#3B9D91"/>
<circle cx="341.433" cy="430.171" r="1.62566" transform="rotate(0.284869 341.433 430.171)" fill="#3B9D91"/>
<circle cx="357.097" cy="430.249" r="1.62566" transform="rotate(0.284869 357.097 430.249)" fill="#3B9D91"/>
<circle cx="372.762" cy="430.327" r="1.62566" transform="rotate(0.284869 372.762 430.327)" fill="#3B9D91"/>
<circle cx="388.428" cy="430.404" r="1.62566" transform="rotate(0.284869 388.428 430.404)" fill="#3B9D91"/>
<circle cx="404.092" cy="430.483" r="1.62566" transform="rotate(0.284869 404.092 430.483)" fill="#3B9D91"/>
<circle cx="29.5375" cy="442.216" r="1.62566" transform="rotate(0.284869 29.5375 442.216)" fill="#3B9D91"/>
<circle cx="45.2035" cy="442.294" r="1.62566" transform="rotate(0.284869 45.2035 442.294)" fill="#3B9D91"/>
<circle cx="60.8676" cy="442.372" r="1.62566" transform="rotate(0.284869 60.8676 442.372)" fill="#3B9D91"/>
<circle cx="76.5326" cy="442.45" r="1.62566" transform="rotate(0.284869 76.5326 442.45)" fill="#3B9D91"/>
<circle cx="92.1986" cy="442.528" r="1.62566" transform="rotate(0.284869 92.1986 442.528)" fill="#3B9D91"/>
<circle cx="107.863" cy="442.606" r="1.62566" transform="rotate(0.284869 107.863 442.606)" fill="#3B9D91"/>
<circle cx="123.529" cy="442.684" r="1.62566" transform="rotate(0.284869 123.529 442.684)" fill="#3B9D91"/>
<circle cx="139.195" cy="442.761" r="1.62566" transform="rotate(0.284869 139.195 442.761)" fill="#3B9D91"/>
<circle cx="154.859" cy="442.839" r="1.62566" transform="rotate(0.284869 154.859 442.839)" fill="#3B9D91"/>
<circle cx="170.524" cy="442.917" r="1.62566" transform="rotate(0.284869 170.524 442.917)" fill="#3B9D91"/>
<circle cx="184.712" cy="442.988" r="1.62566" transform="rotate(0.284869 184.712 442.988)" fill="#3B9D91"/>
<circle cx="200.377" cy="443.066" r="1.62566" transform="rotate(0.284869 200.377 443.066)" fill="#3B9D91"/>
<circle cx="216.041" cy="443.143" r="1.62566" transform="rotate(0.284869 216.041 443.143)" fill="#3B9D91"/>
<circle cx="231.707" cy="443.221" r="1.62566" transform="rotate(0.284869 231.707 443.221)" fill="#3B9D91"/>
<circle cx="247.371" cy="443.299" r="1.62566" transform="rotate(0.284869 247.371 443.299)" fill="#3B9D91"/>
<circle cx="263.037" cy="443.377" r="1.62566" transform="rotate(0.284869 263.037 443.377)" fill="#3B9D91"/>
<circle cx="278.703" cy="443.455" r="1.62566" transform="rotate(0.284869 278.703 443.455)" fill="#3B9D91"/>
<circle cx="294.367" cy="443.533" r="1.62566" transform="rotate(0.284869 294.367 443.533)" fill="#3B9D91"/>
<circle cx="310.033" cy="443.611" r="1.62566" transform="rotate(0.284869 310.033 443.611)" fill="#3B9D91"/>
<circle cx="325.699" cy="443.689" r="1.62566" transform="rotate(0.284869 325.699 443.689)" fill="#3B9D91"/>
<circle cx="341.365" cy="443.766" r="1.62566" transform="rotate(0.284869 341.365 443.766)" fill="#3B9D91"/>
<circle cx="357.029" cy="443.845" r="1.62566" transform="rotate(0.284869 357.029 443.845)" fill="#3B9D91"/>
<circle cx="372.694" cy="443.922" r="1.62566" transform="rotate(0.284869 372.694 443.922)" fill="#3B9D91"/>
<circle cx="388.36" cy="444" r="1.62566" transform="rotate(0.284869 388.36 444)" fill="#3B9D91"/>
<circle cx="404.024" cy="444.078" r="1.62566" transform="rotate(0.284869 404.024 444.078)" fill="#3B9D91"/>
<circle cx="29.4711" cy="455.813" r="1.62566" transform="rotate(0.284869 29.4711 455.813)" fill="#3B9D91"/>
<circle cx="45.1371" cy="455.891" r="1.62566" transform="rotate(0.284869 45.1371 455.891)" fill="#3B9D91"/>
<circle cx="60.8011" cy="455.968" r="1.62566" transform="rotate(0.284869 60.8011 455.968)" fill="#3B9D91"/>
<circle cx="76.4662" cy="456.046" r="1.62566" transform="rotate(0.284869 76.4662 456.046)" fill="#3B9D91"/>
<circle cx="92.1322" cy="456.124" r="1.62566" transform="rotate(0.284869 92.1322 456.124)" fill="#3B9D91"/>
<circle cx="107.796" cy="456.202" r="1.62566" transform="rotate(0.284869 107.796 456.202)" fill="#3B9D91"/>
<circle cx="123.462" cy="456.28" r="1.62566" transform="rotate(0.284869 123.462 456.28)" fill="#3B9D91"/>
<circle cx="139.128" cy="456.358" r="1.62566" transform="rotate(0.284869 139.128 456.358)" fill="#3B9D91"/>
<circle cx="154.792" cy="456.436" r="1.62566" transform="rotate(0.284869 154.792 456.436)" fill="#3B9D91"/>
<circle cx="170.457" cy="456.514" r="1.62566" transform="rotate(0.284869 170.457 456.514)" fill="#3B9D91"/>
<circle cx="184.646" cy="456.584" r="1.62566" transform="rotate(0.284869 184.646 456.584)" fill="#3B9D91"/>
<circle cx="200.311" cy="456.662" r="1.62566" transform="rotate(0.284869 200.311 456.662)" fill="#3B9D91"/>
<circle cx="215.975" cy="456.74" r="1.62566" transform="rotate(0.284869 215.975 456.74)" fill="#3B9D91"/>
<circle cx="231.641" cy="456.818" r="1.62566" transform="rotate(0.284869 231.641 456.818)" fill="#3B9D91"/>
<circle cx="247.305" cy="456.896" r="1.62566" transform="rotate(0.284869 247.305 456.896)" fill="#3B9D91"/>
<circle cx="262.971" cy="456.974" r="1.62566" transform="rotate(0.284869 262.971 456.974)" fill="#3B9D91"/>
<circle cx="278.637" cy="457.051" r="1.62566" transform="rotate(0.284869 278.637 457.051)" fill="#3B9D91"/>
<circle cx="294.3" cy="457.13" r="1.62566" transform="rotate(0.284869 294.3 457.13)" fill="#3B9D91"/>
<circle cx="309.966" cy="457.207" r="1.62566" transform="rotate(0.284869 309.966 457.207)" fill="#3B9D91"/>
<circle cx="325.632" cy="457.285" r="1.62566" transform="rotate(0.284869 325.632 457.285)" fill="#3B9D91"/>
<circle cx="341.298" cy="457.363" r="1.62566" transform="rotate(0.284869 341.298 457.363)" fill="#3B9D91"/>
<circle cx="356.962" cy="457.441" r="1.62566" transform="rotate(0.284869 356.962 457.441)" fill="#3B9D91"/>
<circle cx="372.627" cy="457.519" r="1.62566" transform="rotate(0.284869 372.627 457.519)" fill="#3B9D91"/>
<circle cx="388.293" cy="457.597" r="1.62566" transform="rotate(0.284869 388.293 457.597)" fill="#3B9D91"/>
<circle cx="403.957" cy="457.674" r="1.62566" transform="rotate(0.284869 403.957 457.674)" fill="#3B9D91"/>
<path d="M51.3591 231.368L51.3351 236.193L57.9366 236.225L57.9289 237.768L51.3274 237.736L51.3012 243.019L49.436 243.009L49.5015 229.836L58.2025 229.879L58.195 231.402L51.3591 231.368ZM69.8025 234.146C69.074 234.018 68.3842 233.953 67.7332 233.95C66.685 233.945 65.8367 234.334 65.1883 235.119C64.5398 235.903 64.2126 236.904 64.2065 238.122L64.1819 243.083L62.4241 243.074L62.4581 236.228C62.4606 235.734 62.4179 235.151 62.3301 234.48C62.2488 233.809 62.1284 233.151 61.9688 232.505L63.6387 232.514C63.8947 233.413 64.0469 234.228 64.0953 234.957L64.1441 234.957C64.4733 234.23 64.7949 233.698 65.1091 233.361C65.4233 233.017 65.7957 232.762 66.2262 232.595C66.6568 232.421 67.1813 232.336 67.7998 232.339C68.4769 232.342 69.1472 232.401 69.8107 232.515L69.8025 234.146ZM82.3037 237.88C82.2948 239.657 81.8779 241.016 81.0529 241.956C80.2345 242.889 79.0538 243.352 77.5108 243.344C76.0004 243.337 74.8439 242.856 74.0414 241.901C73.2453 240.947 72.8517 239.591 72.8604 237.833C72.8695 236.017 73.2864 234.655 74.1112 233.747C74.9426 232.833 76.1135 232.38 77.6239 232.388C79.2124 232.396 80.3918 232.854 81.162 233.763C81.9322 234.672 82.3128 236.044 82.3037 237.88ZM80.458 237.871C80.4649 236.471 80.2455 235.425 79.7998 234.733C79.3605 234.04 78.6428 233.692 77.6467 233.687C76.6376 233.682 75.897 234.03 75.4247 234.73C74.9525 235.431 74.7129 236.468 74.7061 237.842C74.6993 239.209 74.9285 240.252 75.3937 240.971C75.8589 241.682 76.5603 242.041 77.4977 242.045C78.5329 242.051 79.2833 241.706 79.749 241.012C80.2147 240.317 80.451 239.27 80.458 237.871ZM88.7616 243.205L88.795 236.506C88.7999 235.503 88.722 234.803 88.5613 234.405C88.407 234.001 88.1183 233.797 87.6951 233.795C87.2785 233.793 86.9384 234.104 86.6749 234.728C86.4179 235.351 86.2867 236.197 86.2814 237.265L86.2519 243.192L84.6015 243.184L84.6429 234.874C84.649 233.643 84.6332 232.891 84.5955 232.618L86.0505 232.625L86.103 233.865L86.1006 234.334L86.1202 234.334C86.3448 233.671 86.6272 233.191 86.9672 232.893C87.3072 232.589 87.7312 232.438 88.239 232.441C88.8119 232.443 89.2375 232.602 89.5159 232.916C89.8008 233.23 90.0035 233.712 90.124 234.364L90.1435 234.364C90.4074 233.675 90.719 233.185 91.0786 232.894C91.4446 232.603 91.9043 232.459 92.4577 232.462C93.2259 232.465 93.7746 232.748 94.1039 233.31C94.4331 233.871 94.5944 234.832 94.5876 236.193L94.5526 243.234L92.912 243.226L92.9453 236.526C92.9503 235.524 92.8724 234.824 92.7116 234.426C92.5574 234.021 92.2686 233.818 91.8455 233.816C91.4158 233.814 91.0726 234.085 90.816 234.631C90.5659 235.177 90.4381 235.996 90.4327 237.09L90.4023 243.213L88.7616 243.205ZM108.895 238.012C108.904 236.254 109.331 234.905 110.175 233.966C111.02 233.026 112.236 232.56 113.825 232.568C115.009 232.574 115.985 232.865 116.75 233.442C117.515 234.012 117.987 234.779 118.164 235.744L116.289 235.871C116.187 235.278 115.929 234.811 115.514 234.471C115.099 234.124 114.508 233.948 113.74 233.944C112.711 233.939 111.954 234.254 111.469 234.89C110.991 235.526 110.748 236.556 110.741 237.982C110.734 239.427 110.966 240.487 111.438 241.159C111.917 241.826 112.667 242.162 113.689 242.167C114.392 242.17 114.976 242.001 115.44 241.658C115.904 241.315 116.193 240.789 116.307 240.08L118.162 240.207C118.074 240.831 117.833 241.4 117.44 241.912C117.054 242.418 116.541 242.816 115.901 243.106C115.262 243.389 114.548 243.529 113.76 243.525C112.165 243.517 110.953 243.042 110.125 242.1C109.296 241.159 108.886 239.796 108.895 238.012ZM130.35 238.119C130.341 239.896 129.924 241.255 129.099 242.195C128.281 243.128 127.1 243.591 125.557 243.583C124.047 243.576 122.89 243.095 122.088 242.14C121.292 241.186 120.898 239.83 120.907 238.072C120.916 236.255 121.333 234.894 122.158 233.986C122.989 233.072 124.16 232.619 125.67 232.627C127.259 232.635 128.438 233.093 129.208 234.002C129.979 234.91 130.359 236.283 130.35 238.119ZM128.504 238.11C128.511 236.71 128.292 235.664 127.846 234.971C127.407 234.279 126.689 233.931 125.693 233.926C124.684 233.921 123.943 234.268 123.471 234.969C122.999 235.67 122.759 236.707 122.752 238.081C122.746 239.448 122.975 240.491 123.44 241.209C123.905 241.921 124.607 242.28 125.544 242.284C126.579 242.289 127.33 241.945 127.795 241.251C128.261 240.556 128.497 239.509 128.504 238.11ZM140.099 243.46L140.133 236.673C140.137 235.788 139.968 235.129 139.625 234.698C139.288 234.267 138.746 234.049 137.997 234.045C137.19 234.041 136.524 234.334 136.001 234.924C135.483 235.507 135.222 236.304 135.217 237.313L135.187 243.436L133.429 243.427L133.47 235.117C133.476 233.886 133.461 233.134 133.423 232.86L135.083 232.869C135.089 232.901 135.096 232.989 135.101 233.133C135.107 233.276 135.113 233.442 135.118 233.631C135.131 233.813 135.142 234.161 135.152 234.676L135.182 234.676C135.872 233.345 137.001 232.683 138.57 232.691C139.697 232.696 140.535 233.007 141.085 233.621C141.636 234.229 141.908 235.165 141.901 236.428L141.866 243.469L140.099 243.46ZM144.93 238.191C144.939 236.433 145.365 235.085 146.21 234.145C147.054 233.205 148.271 232.739 149.859 232.747C151.044 232.753 152.019 233.044 152.785 233.621C153.55 234.191 154.022 234.958 154.199 235.923L152.323 236.05C152.222 235.457 151.964 234.99 151.549 234.65C151.134 234.303 150.543 234.127 149.774 234.123C148.746 234.118 147.989 234.434 147.504 235.069C147.026 235.705 146.783 236.736 146.776 238.161C146.769 239.607 147.001 240.666 147.473 241.339C147.951 242.005 148.702 242.341 149.724 242.346C150.427 242.349 151.01 242.18 151.474 241.837C151.938 241.494 152.227 240.968 152.342 240.259L154.196 240.386C154.109 241.01 153.868 241.579 153.475 242.091C153.088 242.597 152.575 242.995 151.936 243.285C151.296 243.568 150.583 243.708 149.795 243.704C148.2 243.696 146.988 243.221 146.16 242.279C145.331 241.338 144.921 239.975 144.93 238.191ZM158.814 238.641C158.809 239.826 159.064 240.755 159.582 241.428C160.106 242.101 160.824 242.44 161.735 242.445C162.406 242.448 162.992 242.308 163.495 242.024C164.004 241.733 164.345 241.338 164.517 240.837L166.057 241.285C165.767 242.09 165.236 242.706 164.466 243.132C163.702 243.558 162.79 243.768 161.729 243.763C160.192 243.755 159.013 243.271 158.191 242.31C157.369 241.349 156.962 239.976 156.971 238.192C156.98 236.454 157.39 235.122 158.202 234.195C159.02 233.261 160.194 232.798 161.724 232.806C163.254 232.813 164.411 233.285 165.194 234.22C165.977 235.155 166.364 236.563 166.355 238.444L166.353 238.679L158.814 238.641ZM161.737 234.105C160.865 234.1 160.174 234.383 159.663 234.954C159.152 235.518 158.878 236.298 158.841 237.294L164.544 237.322C164.372 235.186 163.437 234.113 161.737 234.105ZM178.328 238.318C178.31 242.003 177.025 243.839 174.473 243.826C172.871 243.818 171.796 243.214 171.249 242.014L171.2 242.013C171.226 242.065 171.236 242.606 171.231 243.635L171.211 247.765L169.443 247.757L169.505 235.227C169.511 234.121 169.495 233.391 169.458 233.04L171.167 233.048C171.173 233.074 171.182 233.172 171.195 233.341C171.207 233.504 171.219 233.748 171.23 234.074C171.248 234.393 171.256 234.631 171.256 234.787L171.295 234.787C171.624 234.105 172.04 233.612 172.542 233.309C173.052 232.999 173.713 232.846 174.527 232.85C175.816 232.856 176.774 233.307 177.401 234.202C178.028 235.091 178.337 236.463 178.328 238.318ZM176.512 238.309C176.519 236.838 176.326 235.789 175.932 235.162C175.538 234.528 174.914 234.209 174.061 234.205C173.078 234.2 172.367 234.555 171.927 235.269C171.487 235.976 171.264 237.053 171.257 238.498C171.25 239.885 171.463 240.901 171.896 241.548C172.329 242.195 173.03 242.52 174 242.525C174.866 242.53 175.499 242.204 175.9 241.548C176.3 240.893 176.504 239.813 176.512 238.309ZM181.57 234.487L181.577 233.1L183.237 233.108L183.817 230.357L184.989 230.363L184.975 233.117L189.194 233.138L189.187 234.524L184.968 234.504L184.937 240.871C184.934 241.385 185.069 241.766 185.341 242.015C185.62 242.264 186.075 242.39 186.706 242.393C187.579 242.397 188.546 242.292 189.608 242.076L189.602 243.413C188.5 243.707 187.409 243.852 186.328 243.846C185.273 243.841 184.483 243.616 183.958 243.17C183.433 242.719 183.173 242.011 183.178 241.047L183.21 234.495L181.57 234.487ZM205.593 234.606L205.6 233.219L207.26 233.228L207.84 230.477L209.012 230.482L208.998 233.236L213.217 233.257L213.21 234.644L208.991 234.623L208.96 240.99C208.957 241.504 209.092 241.886 209.364 242.135C209.643 242.383 210.098 242.509 210.729 242.513C211.602 242.517 212.569 242.411 213.631 242.195L213.625 243.533C212.523 243.827 211.432 243.971 210.351 243.966C209.296 243.961 208.507 243.735 207.981 243.29C207.456 242.838 207.196 242.13 207.201 241.167L207.234 234.614L205.593 234.606ZM226.443 238.596C226.434 240.374 226.017 241.732 225.192 242.672C224.373 243.606 223.193 244.069 221.65 244.061C220.139 244.053 218.983 243.572 218.18 242.618C217.384 241.663 216.991 240.307 216.999 238.55C217.008 236.733 217.425 235.371 218.25 234.464C219.081 233.55 220.252 233.097 221.763 233.104C223.351 233.112 224.531 233.571 225.301 234.479C226.071 235.388 226.452 236.761 226.443 238.596ZM224.597 238.587C224.604 237.188 224.384 236.142 223.939 235.449C223.499 234.757 222.782 234.408 221.786 234.403C220.776 234.398 220.036 234.746 219.564 235.447C219.091 236.148 218.852 237.185 218.845 238.559C218.838 239.926 219.067 240.969 219.533 241.687C219.998 242.399 220.699 242.757 221.637 242.762C222.672 242.767 223.422 242.423 223.888 241.728C224.354 241.034 224.59 239.987 224.597 238.587ZM241.022 238.669C241.031 236.911 241.458 235.562 242.302 234.623C243.147 233.683 244.363 233.217 245.952 233.225C247.137 233.231 248.112 233.522 248.877 234.099C249.643 234.669 250.114 235.436 250.292 236.401L248.416 236.528C248.315 235.935 248.057 235.468 247.642 235.128C247.227 234.781 246.635 234.605 245.867 234.601C244.838 234.596 244.081 234.911 243.597 235.547C243.118 236.183 242.875 237.213 242.868 238.639C242.861 240.084 243.093 241.143 243.565 241.816C244.044 242.483 244.794 242.819 245.816 242.824C246.519 242.827 247.103 242.658 247.567 242.315C248.031 241.972 248.32 241.446 248.434 240.737L250.289 240.864C250.201 241.488 249.961 242.057 249.568 242.569C249.181 243.075 248.668 243.473 248.028 243.762C247.389 244.046 246.675 244.185 245.888 244.182C244.293 244.174 243.081 243.699 242.252 242.757C241.423 241.816 241.014 240.453 241.022 238.669ZM262.477 238.776C262.468 240.553 262.051 241.912 261.226 242.852C260.408 243.785 259.227 244.248 257.684 244.24C256.174 244.233 255.017 243.752 254.215 242.797C253.419 241.843 253.025 240.486 253.034 238.729C253.043 236.912 253.46 235.55 254.285 234.643C255.116 233.729 256.287 233.276 257.797 233.284C259.386 233.291 260.565 233.75 261.336 234.659C262.106 235.567 262.486 236.94 262.477 238.776ZM260.632 238.766C260.638 237.367 260.419 236.321 259.973 235.628C259.534 234.936 258.816 234.587 257.82 234.583C256.811 234.578 256.07 234.925 255.598 235.626C255.126 236.327 254.886 237.364 254.88 238.738C254.873 240.105 255.102 241.148 255.567 241.866C256.032 242.578 256.734 242.937 257.671 242.941C258.706 242.946 259.457 242.602 259.923 241.908C260.388 241.213 260.625 240.166 260.632 238.766ZM272.176 242.418C271.854 243.1 271.428 243.596 270.899 243.905C270.37 244.209 269.712 244.359 268.924 244.355C267.609 244.348 266.645 243.891 266.031 242.983C265.417 242.075 265.114 240.709 265.123 238.886C265.142 235.202 266.427 233.366 268.979 233.378C269.766 233.382 270.423 233.525 270.949 233.808C271.482 234.091 271.906 234.552 272.222 235.191L272.241 235.191L272.229 233.717L272.249 229.625L274.007 229.634L273.946 241.948C273.94 243.048 273.956 243.774 273.994 244.126L272.314 244.118C272.289 244.02 272.267 243.782 272.249 243.404C272.232 243.027 272.223 242.698 272.225 242.418L272.176 242.418ZM266.94 238.837C266.933 240.282 267.119 241.338 267.5 242.004C267.888 242.663 268.518 242.995 269.39 243C270.34 243.004 271.045 242.666 271.504 241.985C271.963 241.297 272.197 240.204 272.204 238.707C272.211 237.307 271.995 236.287 271.555 235.647C271.122 235.007 270.421 234.684 269.451 234.679C268.572 234.675 267.935 235.007 267.542 235.676C267.148 236.344 266.947 237.398 266.94 238.837ZM278.93 239.238C278.924 240.423 279.18 241.352 279.698 242.025C280.222 242.699 280.939 243.037 281.851 243.042C282.521 243.045 283.108 242.905 283.611 242.621C284.12 242.331 284.46 241.935 284.632 241.435L286.173 241.882C285.883 242.688 285.352 243.303 284.582 243.729C283.818 244.155 282.905 244.366 281.844 244.36C280.308 244.353 279.129 243.868 278.306 242.907C277.484 241.946 277.078 240.574 277.087 238.79C277.095 237.051 277.506 235.719 278.318 234.792C279.136 233.858 280.31 233.395 281.84 233.403C283.37 233.411 284.527 233.882 285.31 234.817C286.093 235.752 286.48 237.16 286.47 239.041L286.469 239.276L278.93 239.238ZM281.853 234.702C280.981 234.698 280.289 234.981 279.779 235.551C279.268 236.115 278.994 236.895 278.956 237.891L284.659 237.919C284.488 235.783 283.552 234.71 281.853 234.702ZM290.284 247.752L291.967 241.295L294.555 241.308L291.486 247.758L290.284 247.752ZM321.737 244.363L319.745 244.353L318.372 239.747L317.825 237.772L317.437 239.127L315.771 244.334L313.788 244.324L312.054 233.749L313.792 233.757L314.671 239.689C314.877 241.409 314.979 242.471 314.977 242.875C315.236 241.834 315.428 241.139 315.554 240.788L316.893 236.654L318.777 236.663L320.026 240.82C320.231 241.504 320.407 242.198 320.553 242.902C320.554 242.707 320.568 242.463 320.596 242.17C320.623 241.877 320.657 241.578 320.698 241.272C320.739 240.96 320.779 240.664 320.82 240.384C320.86 240.104 320.89 239.883 320.911 239.72L321.927 233.798L323.645 233.806L321.737 244.363ZM326.976 239.477C326.971 240.662 327.226 241.591 327.744 242.264C328.268 242.937 328.986 243.276 329.897 243.281C330.568 243.284 331.154 243.144 331.657 242.86C332.166 242.569 332.507 242.174 332.679 241.674L334.219 242.121C333.929 242.927 333.398 243.542 332.628 243.968C331.864 244.394 330.952 244.604 329.89 244.599C328.354 244.592 327.175 244.107 326.353 243.146C325.531 242.185 325.124 240.812 325.133 239.029C325.142 237.29 325.552 235.958 326.364 235.031C327.182 234.097 328.356 233.634 329.886 233.642C331.416 233.65 332.573 234.121 333.356 235.056C334.139 235.991 334.526 237.399 334.517 239.28L334.515 239.515L326.976 239.477ZM329.899 234.941C329.027 234.937 328.336 235.22 327.825 235.79C327.314 236.354 327.04 237.134 327.003 238.13L332.706 238.158C332.534 236.022 331.599 234.949 329.899 234.941ZM49.3282 256.829L49.3351 255.443L50.9952 255.451L51.5753 252.7L52.7472 252.706L52.7335 255.46L56.9522 255.481L56.9453 256.867L52.7266 256.846L52.6949 263.213C52.6924 263.728 52.8272 264.109 53.0994 264.358C53.3781 264.607 53.8332 264.733 54.4647 264.736C55.3371 264.74 56.3044 264.634 57.3667 264.418L57.3601 265.756C56.2583 266.05 55.1671 266.194 54.0864 266.189C53.0317 266.184 52.2418 265.959 51.7167 265.513C51.1916 265.061 50.9314 264.354 50.9362 263.39L50.9688 256.838L49.3282 256.829ZM63.0556 255.511L63.0223 262.21C63.0173 263.226 63.1732 263.933 63.4903 264.332C63.8073 264.724 64.376 264.922 65.1963 264.926C66.0362 264.93 66.7016 264.647 67.1928 264.077C67.6839 263.506 67.932 262.7 67.9372 261.658L67.9677 255.535L69.7352 255.544L69.6939 263.855C69.6878 265.085 69.7036 265.837 69.7413 266.111L68.0811 266.102C68.0748 266.07 68.0687 265.982 68.0629 265.839C68.0571 265.695 68.0482 265.533 68.0361 265.35C68.0305 265.161 68.0225 264.81 68.012 264.295L67.9827 264.295C67.5754 265.022 67.1041 265.538 66.5688 265.841C66.0399 266.138 65.3816 266.284 64.5939 266.28C63.435 266.275 62.5869 265.984 62.0494 265.408C61.5184 264.826 61.2562 263.871 61.2628 262.543L61.2978 255.502L63.0556 255.511ZM81.6998 257.205C80.9712 257.078 80.2814 257.013 79.6304 257.009C78.5822 257.004 77.7339 257.394 77.0855 258.178C76.4371 258.963 76.1098 259.964 76.1038 261.181L76.0791 266.142L74.3213 266.133L74.3553 259.288C74.3578 258.793 74.3151 258.21 74.2273 257.539C74.146 256.868 74.0256 256.21 73.866 255.565L75.5359 255.573C75.7919 256.473 75.9441 257.287 75.9925 258.017L76.0414 258.017C76.3705 257.289 76.6922 256.757 77.0063 256.42C77.3206 256.077 77.6929 255.821 78.1234 255.654C78.554 255.481 79.0785 255.395 79.697 255.398C80.3741 255.402 81.0444 255.46 81.7079 255.574L81.6998 257.205ZM91.9383 266.221L91.972 259.434C91.9764 258.549 91.8072 257.89 91.4642 257.459C91.1278 257.027 90.5853 256.81 89.8366 256.806C89.0293 256.802 88.3638 257.095 87.84 257.685C87.3228 258.268 87.0617 259.065 87.0567 260.074L87.0262 266.197L85.2684 266.188L85.3097 257.877C85.3159 256.647 85.3001 255.895 85.2624 255.621L86.9225 255.63C86.9289 255.662 86.9349 255.75 86.9407 255.893C86.9465 256.037 86.9522 256.203 86.9578 256.391C86.9699 256.574 86.9812 256.922 86.9916 257.437L87.0209 257.437C87.7112 256.106 88.8408 255.444 90.4098 255.452C91.5361 255.457 92.3744 255.767 92.9247 256.382C93.4751 256.99 93.7471 257.926 93.7408 259.189L93.7058 266.23L91.9383 266.221ZM114.767 264.948L118.478 264.966L118.471 266.353L108.881 266.305L108.888 264.919L113.009 264.939L113.048 257.146L109.933 257.131L109.94 255.744L114.813 255.768L114.767 264.948ZM112.87 253.708L112.879 251.833L114.832 251.843L114.823 253.717L112.87 253.708ZM127.923 264.701C127.6 265.383 127.175 265.879 126.646 266.189C126.117 266.492 125.459 266.642 124.671 266.638C123.356 266.631 122.391 266.174 121.777 265.266C121.163 264.358 120.861 262.992 120.87 261.17C120.888 257.485 122.173 255.649 124.726 255.661C125.513 255.665 126.17 255.808 126.696 256.091C127.229 256.374 127.653 256.835 127.969 257.474L127.988 257.474L127.976 256L127.996 251.908L129.754 251.917L129.693 264.231C129.687 265.331 129.703 266.057 129.741 266.409L128.061 266.401C128.035 266.303 128.014 266.065 127.996 265.687C127.978 265.31 127.97 264.981 127.972 264.701L127.923 264.701ZM122.687 261.12C122.679 262.565 122.866 263.621 123.247 264.287C123.634 264.946 124.264 265.278 125.137 265.283C126.087 265.287 126.792 264.949 127.251 264.268C127.71 263.58 127.944 262.487 127.951 260.99C127.958 259.59 127.742 258.57 127.302 257.93C126.869 257.29 126.168 256.967 125.198 256.962C124.319 256.958 123.682 257.29 123.288 257.959C122.894 258.627 122.694 259.681 122.687 261.12ZM134.677 261.521C134.671 262.706 134.927 263.635 135.444 264.308C135.968 264.982 136.686 265.32 137.598 265.325C138.268 265.328 138.855 265.188 139.358 264.904C139.867 264.614 140.207 264.218 140.379 263.718L141.92 264.165C141.629 264.971 141.099 265.587 140.329 266.012C139.565 266.438 138.652 266.649 137.591 266.643C136.055 266.636 134.875 266.151 134.053 265.19C133.231 264.229 132.825 262.857 132.834 261.073C132.842 259.334 133.252 258.002 134.064 257.075C134.883 256.141 136.057 255.679 137.587 255.686C139.117 255.694 140.273 256.165 141.056 257.1C141.84 258.035 142.226 259.443 142.217 261.324L142.216 261.559L134.677 261.521ZM137.6 256.985C136.728 256.981 136.036 257.264 135.525 257.834C135.015 258.398 134.741 259.178 134.703 260.174L140.406 260.202C140.235 258.066 139.299 256.994 137.6 256.985ZM154.277 265.447C154.446 265.448 154.638 265.426 154.853 265.382L154.848 266.475C154.405 266.577 153.952 266.627 153.49 266.625C152.839 266.622 152.364 266.45 152.067 266.11C151.775 265.763 151.612 265.225 151.576 264.496L151.518 264.496C151.091 265.281 150.587 265.845 150.006 266.187C149.431 266.53 148.72 266.699 147.874 266.694C146.845 266.689 146.072 266.406 145.554 265.843C145.036 265.281 144.779 264.511 144.784 263.535C144.796 261.262 146.279 260.117 149.235 260.1L151.54 260.072L151.543 259.496C151.547 258.643 151.378 258.03 151.034 257.657C150.691 257.278 150.142 257.086 149.387 257.083C148.619 257.079 148.064 257.213 147.725 257.485C147.385 257.756 147.181 258.179 147.113 258.751L145.278 258.576C145.587 256.676 146.968 255.733 149.423 255.745C150.725 255.751 151.7 256.062 152.348 256.678C153.002 257.286 153.327 258.167 153.321 259.319L153.298 263.87C153.296 264.391 153.362 264.785 153.498 265.052C153.633 265.314 153.893 265.445 154.277 265.447ZM148.33 265.359C148.955 265.362 149.509 265.215 149.992 264.918C150.476 264.621 150.852 264.222 151.121 263.722C151.391 263.222 151.527 262.705 151.529 262.172L151.534 261.302L149.678 261.332C148.91 261.341 148.323 261.423 147.919 261.577C147.515 261.732 147.198 261.971 146.968 262.295C146.745 262.613 146.632 263.039 146.63 263.573C146.627 264.107 146.768 264.537 147.053 264.864C147.344 265.191 147.77 265.356 148.33 265.359ZM165.898 263.571C165.893 264.574 165.508 265.36 164.743 265.929C163.985 266.491 162.936 266.769 161.595 266.763C160.254 266.756 159.232 266.543 158.531 266.122C157.837 265.696 157.384 265.03 157.174 264.123L158.728 263.828C158.849 264.389 159.111 264.8 159.513 265.063C159.922 265.319 160.618 265.449 161.601 265.454C163.359 265.463 164.241 264.911 164.246 263.797C164.248 263.381 164.09 263.045 163.773 262.789C163.455 262.527 162.968 262.313 162.311 262.147C160.594 261.715 159.505 261.378 159.044 261.135C158.583 260.892 158.23 260.59 157.984 260.231C157.739 259.865 157.617 259.412 157.62 258.872C157.625 257.915 157.974 257.168 158.666 256.631C159.359 256.094 160.36 255.829 161.668 255.835C162.814 255.841 163.728 256.064 164.409 256.503C165.091 256.936 165.514 257.567 165.679 258.394L164.096 258.582C164.027 258.113 163.798 257.757 163.408 257.514C163.019 257.271 162.437 257.148 161.662 257.144C160.067 257.136 159.267 257.623 159.262 258.606C159.26 258.997 159.392 259.31 159.658 259.546C159.93 259.782 160.365 259.973 160.964 260.119L162.124 260.427C163.184 260.693 163.945 260.954 164.405 261.21C164.873 261.466 165.239 261.787 165.504 262.173C165.769 262.552 165.9 263.018 165.898 263.571ZM186.837 265.306L190.547 265.325L190.541 266.711L180.951 266.664L180.958 265.277L185.079 265.297L185.118 257.505L182.002 257.489L182.009 256.102L186.882 256.127L186.837 265.306ZM184.939 254.066L184.949 252.191L186.902 252.201L186.892 254.076L184.939 254.066ZM200.042 266.759L200.076 259.972C200.081 259.086 199.911 258.428 199.568 257.996C199.232 257.565 198.689 257.347 197.941 257.344C197.133 257.34 196.468 257.633 195.944 258.222C195.427 258.806 195.166 259.602 195.161 260.611L195.13 266.734L193.373 266.725L193.414 258.415C193.42 257.184 193.404 256.432 193.366 256.159L195.027 256.167C195.033 256.2 195.039 256.288 195.045 256.431C195.051 256.574 195.056 256.74 195.062 256.929C195.074 257.111 195.085 257.46 195.096 257.974L195.125 257.974C195.815 256.643 196.945 255.981 198.514 255.989C199.64 255.995 200.478 256.305 201.029 256.92C201.579 257.528 201.851 258.463 201.845 259.726L201.81 266.767L200.042 266.759ZM205.479 257.606L205.485 256.219L207.146 256.227L207.726 253.476L208.898 253.482L208.884 256.236L213.103 256.257L213.096 257.644L208.877 257.623L208.845 263.99C208.843 264.504 208.978 264.886 209.25 265.134C209.529 265.383 209.984 265.509 210.615 265.512C211.488 265.517 212.455 265.411 213.517 265.195L213.51 266.533C212.409 266.827 211.318 266.971 210.237 266.965C209.182 266.96 208.392 266.735 207.867 266.29C207.342 265.838 207.082 265.13 207.087 264.167L207.119 257.614L205.479 257.606ZM226.328 261.596C226.319 263.374 225.902 264.732 225.077 265.672C224.259 266.606 223.078 267.068 221.535 267.061C220.025 267.053 218.868 266.572 218.066 265.618C217.27 264.663 216.876 263.307 216.885 261.549C216.894 259.733 217.311 258.371 218.136 257.464C218.967 256.55 220.138 256.097 221.648 256.104C223.237 256.112 224.416 256.57 225.186 257.479C225.957 258.388 226.337 259.76 226.328 261.596ZM224.482 261.587C224.489 260.187 224.27 259.141 223.824 258.449C223.385 257.757 222.667 257.408 221.671 257.403C220.662 257.398 219.921 257.746 219.449 258.447C218.977 259.148 218.737 260.185 218.731 261.558C218.724 262.926 218.953 263.968 219.418 264.687C219.883 265.399 220.585 265.757 221.522 265.762C222.557 265.767 223.308 265.422 223.773 264.728C224.239 264.034 224.476 262.987 224.482 261.587ZM54.5949 287.649L58.3058 287.667L58.2989 289.054L48.7092 289.006L48.7161 287.62L52.8372 287.64L52.8759 279.847L49.7607 279.832L49.7676 278.445L54.6406 278.469L54.5949 287.649ZM52.6977 276.409L52.707 274.534L54.6601 274.544L54.6508 276.419L52.6977 276.409ZM67.8008 289.101L67.8345 282.314C67.8389 281.429 67.6697 280.77 67.3268 280.339C66.9904 279.908 66.4478 279.69 65.6991 279.686C64.8918 279.682 64.2263 279.975 63.7025 280.565C63.1853 281.149 62.9242 281.945 62.9192 282.954L62.8887 289.077L61.1309 289.068L61.1723 280.758C61.1784 279.527 61.1626 278.775 61.1249 278.502L62.785 278.51C62.7914 278.542 62.7974 278.63 62.8032 278.774C62.809 278.917 62.8147 279.083 62.8203 279.272C62.8324 279.454 62.8437 279.802 62.8542 280.317L62.8835 280.317C63.5737 278.986 64.7033 278.324 66.2723 278.332C67.3986 278.337 68.2369 278.648 68.7872 279.262C69.3376 279.871 69.6096 280.806 69.6033 282.069L69.5683 289.11L67.8008 289.101ZM73.237 279.949L73.2439 278.562L74.904 278.57L75.4841 275.819L76.656 275.825L76.6423 278.579L80.861 278.6L80.8541 279.986L76.6354 279.965L76.6037 286.333C76.6012 286.847 76.736 287.228 77.0082 287.477C77.2869 287.726 77.742 287.852 78.3735 287.855C79.2459 287.859 80.2132 287.754 81.2755 287.537L81.2689 288.875C80.1671 289.169 79.0759 289.314 77.9952 289.308C76.9405 289.303 76.1506 289.078 75.6255 288.632C75.1004 288.181 74.8402 287.473 74.845 286.509L74.8776 279.957L73.237 279.949ZM86.5164 284.282C86.5105 285.467 86.7663 286.396 87.2838 287.069C87.8078 287.742 88.5255 288.081 89.437 288.086C90.1075 288.089 90.6942 287.949 91.1969 287.665C91.7061 287.374 92.0467 286.979 92.2184 286.479L93.7592 286.926C93.4687 287.732 92.9383 288.347 92.1679 288.773C91.4041 289.199 90.4916 289.409 89.4304 289.404C87.894 289.397 86.7147 288.912 85.8927 287.951C85.0706 286.99 84.664 285.617 84.6729 283.834C84.6815 282.095 85.0918 280.763 85.9037 279.836C86.7222 278.902 87.8964 278.439 89.4263 278.447C90.9562 278.455 92.1127 278.926 92.8959 279.861C93.679 280.796 94.0659 282.204 94.0565 284.085L94.0553 284.32L86.5164 284.282ZM89.4394 279.746C88.567 279.742 87.8754 280.025 87.3648 280.595C86.8542 281.159 86.5801 281.939 86.5426 282.935L92.2457 282.963C92.074 280.827 91.1386 279.754 89.4394 279.746ZM105.609 280.324C104.88 280.197 104.19 280.132 103.539 280.129C102.491 280.123 101.643 280.513 100.994 281.298C100.346 282.082 100.019 283.083 100.013 284.3L99.9879 289.261L98.2301 289.253L98.2641 282.407C98.2666 281.912 98.2239 281.329 98.1361 280.658C98.0548 279.987 97.9344 279.329 97.7748 278.684L99.4447 278.692C99.7007 279.592 99.8529 280.406 99.9013 281.136L99.9501 281.136C100.279 280.409 100.601 279.876 100.915 279.539C101.229 279.196 101.602 278.94 102.032 278.773C102.463 278.6 102.987 278.514 103.606 278.517C104.283 278.521 104.953 278.58 105.617 278.694L105.609 280.324ZM118.128 288.268C118.297 288.268 118.489 288.247 118.704 288.202L118.699 289.296C118.256 289.398 117.803 289.448 117.341 289.445C116.69 289.442 116.215 289.27 115.917 288.93C115.626 288.584 115.463 288.046 115.427 287.317L115.369 287.316C114.942 288.102 114.438 288.666 113.856 289.008C113.282 289.35 112.571 289.519 111.725 289.515C110.696 289.51 109.923 289.226 109.405 288.664C108.887 288.101 108.63 287.332 108.635 286.355C108.647 284.083 110.13 282.938 113.086 282.92L115.391 282.893L115.394 282.316C115.398 281.464 115.228 280.851 114.885 280.478C114.542 280.099 113.993 279.907 113.238 279.903C112.469 279.899 111.915 280.033 111.576 280.305C111.236 280.577 111.032 280.999 110.964 281.572L109.129 281.397C109.438 279.497 110.819 278.553 113.274 278.566C114.576 278.572 115.551 278.883 116.199 279.498C116.853 280.107 117.178 280.987 117.172 282.14L117.149 286.69C117.147 287.211 117.213 287.605 117.349 287.873C117.484 288.134 117.744 288.266 118.128 288.268ZM112.181 288.179C112.806 288.182 113.36 288.036 113.843 287.738C114.327 287.441 114.703 287.043 114.972 286.543C115.242 286.043 115.378 285.526 115.38 284.992L115.385 284.123L113.529 284.153C112.761 284.162 112.174 284.244 111.77 284.398C111.366 284.552 111.049 284.792 110.819 285.116C110.596 285.434 110.483 285.86 110.481 286.394C110.478 286.927 110.619 287.358 110.904 287.685C111.195 288.012 111.621 288.177 112.181 288.179ZM120.678 284.071C120.687 282.313 121.113 280.965 121.958 280.025C122.802 279.085 124.019 278.619 125.607 278.627C126.792 278.633 127.767 278.924 128.533 279.501C129.298 280.071 129.77 280.838 129.947 281.803L128.072 281.93C127.97 281.337 127.712 280.87 127.297 280.53C126.882 280.183 126.291 280.007 125.523 280.003C124.494 279.998 123.737 280.314 123.252 280.949C122.774 281.585 122.531 282.616 122.524 284.041C122.517 285.487 122.749 286.546 123.221 287.219C123.699 287.885 124.45 288.221 125.472 288.226C126.175 288.229 126.759 288.06 127.222 287.717C127.686 287.374 127.975 286.848 128.09 286.139L129.945 286.266C129.857 286.89 129.616 287.459 129.223 287.971C128.837 288.477 128.323 288.875 127.684 289.165C127.045 289.448 126.331 289.588 125.543 289.584C123.948 289.576 122.736 289.101 121.908 288.159C121.079 287.218 120.669 285.855 120.678 284.071ZM133.295 280.247L133.302 278.86L134.962 278.869L135.542 276.118L136.714 276.123L136.7 278.877L140.919 278.898L140.912 280.285L136.693 280.264L136.662 286.631C136.659 287.145 136.794 287.527 137.066 287.776C137.345 288.025 137.8 288.151 138.431 288.154C139.304 288.158 140.271 288.052 141.333 287.836L141.327 289.174C140.225 289.468 139.134 289.612 138.053 289.607C136.998 289.602 136.208 289.376 135.683 288.931C135.158 288.479 134.898 287.772 134.903 286.808L134.935 280.255L133.295 280.247ZM150.688 288.127L154.398 288.145L154.391 289.532L144.802 289.484L144.809 288.097L148.93 288.118L148.968 280.325L145.853 280.31L145.86 278.923L150.733 278.947L150.688 288.127ZM148.79 276.887L148.8 275.012L150.753 275.021L150.743 276.896L148.79 276.887ZM162.399 289.572L160.319 289.561L156.143 278.974L158.116 278.984L160.699 285.872L160.862 286.39L161.361 288.19L161.709 287.049L162.095 285.898L164.825 279.017L166.788 279.027L162.399 289.572ZM170.597 284.7C170.591 285.885 170.847 286.814 171.365 287.487C171.889 288.16 172.606 288.499 173.518 288.504C174.189 288.507 174.775 288.367 175.278 288.083C175.787 287.793 176.128 287.397 176.299 286.897L177.84 287.344C177.55 288.15 177.019 288.765 176.249 289.191C175.485 289.617 174.573 289.828 173.511 289.822C171.975 289.815 170.796 289.33 169.974 288.369C169.152 287.408 168.745 286.035 168.754 284.252C168.763 282.513 169.173 281.181 169.985 280.254C170.803 279.32 171.977 278.857 173.507 278.865C175.037 278.873 176.194 279.344 176.977 280.279C177.76 281.214 178.147 282.622 178.137 284.503L178.136 284.738L170.597 284.7ZM173.52 280.164C172.648 280.16 171.956 280.443 171.446 281.013C170.935 281.577 170.661 282.357 170.624 283.353L176.327 283.381C176.155 281.245 175.22 280.172 173.52 280.164ZM199.878 288.059C199.555 288.741 199.13 289.237 198.601 289.547C198.072 289.85 197.414 290 196.626 289.996C195.311 289.989 194.346 289.532 193.732 288.624C193.118 287.716 192.816 286.35 192.825 284.528C192.843 280.843 194.129 279.007 196.681 279.019C197.468 279.023 198.125 279.166 198.651 279.449C199.184 279.732 199.608 280.193 199.924 280.832L199.943 280.832L199.931 279.358L199.951 275.266L201.709 275.275L201.648 287.589C201.642 288.689 201.658 289.415 201.696 289.767L200.016 289.759C199.99 289.661 199.969 289.423 199.951 289.045C199.933 288.668 199.925 288.339 199.927 288.059L199.878 288.059ZM194.642 284.478C194.635 285.923 194.821 286.979 195.202 287.645C195.59 288.304 196.219 288.636 197.092 288.641C198.042 288.645 198.747 288.307 199.206 287.626C199.665 286.938 199.899 285.845 199.906 284.348C199.913 282.948 199.697 281.928 199.257 281.288C198.824 280.648 198.123 280.325 197.153 280.321C196.274 280.316 195.637 280.648 195.243 281.317C194.849 281.986 194.649 283.039 194.642 284.478ZM210.745 288.425L214.456 288.444L214.449 289.83L204.86 289.783L204.867 288.396L208.988 288.417L209.026 280.624L205.911 280.608L205.918 279.222L210.791 279.246L210.745 288.425ZM208.848 277.185L208.857 275.31L210.811 275.32L210.801 277.195L208.848 277.185ZM221.46 294.006C220.366 294.001 219.488 293.772 218.827 293.319C218.165 292.867 217.745 292.22 217.567 291.379L219.365 291.144C219.473 291.633 219.709 292.008 220.072 292.271C220.442 292.539 220.926 292.675 221.525 292.678C223.14 292.686 223.952 291.665 223.962 289.614L223.972 287.72L223.952 287.719C223.63 288.388 223.185 288.894 222.616 289.236C222.048 289.579 221.374 289.748 220.592 289.744C219.303 289.737 218.361 289.313 217.767 288.47C217.178 287.621 216.889 286.291 216.898 284.481C216.907 282.639 217.233 281.286 217.875 280.424C218.517 279.554 219.503 279.123 220.831 279.13C221.566 279.133 222.204 279.309 222.742 279.657C223.287 279.998 223.705 280.485 223.995 281.118L224.024 281.118C224.025 280.923 224.04 280.594 224.068 280.132C224.096 279.663 224.124 279.39 224.15 279.312L225.82 279.32C225.779 279.672 225.756 280.401 225.751 281.508L225.711 289.574C225.703 291.052 225.353 292.16 224.659 292.899C223.965 293.644 222.899 294.013 221.46 294.006ZM223.988 284.497C223.994 283.24 223.755 282.253 223.27 281.534C222.785 280.809 222.117 280.445 221.264 280.44C220.372 280.436 219.726 280.745 219.325 281.368C218.925 281.985 218.722 283.019 218.714 284.471C218.709 285.454 218.787 286.232 218.947 286.806C219.113 287.373 219.372 287.788 219.722 288.05C220.072 288.312 220.563 288.445 221.195 288.448C221.748 288.451 222.234 288.3 222.652 287.996C223.077 287.686 223.404 287.235 223.635 286.644C223.866 286.046 223.984 285.33 223.988 284.497ZM234.768 288.545L238.479 288.563L238.472 289.95L228.883 289.902L228.89 288.516L233.011 288.536L233.049 280.743L229.934 280.728L229.941 279.341L234.814 279.365L234.768 288.545ZM232.871 277.305L232.881 275.43L234.834 275.439L234.824 277.314L232.871 277.305ZM241.399 280.785L241.406 279.398L243.066 279.406L243.646 276.655L244.818 276.661L244.804 279.415L249.023 279.436L249.016 280.823L244.797 280.802L244.766 287.169C244.763 287.683 244.898 288.065 245.17 288.313C245.449 288.562 245.904 288.688 246.535 288.691C247.408 288.695 248.375 288.59 249.437 288.374L249.431 289.711C248.329 290.005 247.238 290.15 246.157 290.144C245.102 290.139 244.313 289.914 243.787 289.469C243.262 289.017 243.002 288.309 243.007 287.345L243.04 280.793L241.399 280.785ZM262.267 288.984C262.436 288.985 262.628 288.963 262.843 288.919L262.838 290.012C262.394 290.114 261.942 290.164 261.48 290.162C260.828 290.159 260.354 289.987 260.056 289.647C259.765 289.301 259.602 288.763 259.566 288.033L259.508 288.033C259.081 288.819 258.576 289.383 257.995 289.725C257.421 290.067 256.71 290.236 255.864 290.232C254.835 290.227 254.062 289.943 253.544 289.38C253.026 288.818 252.769 288.048 252.774 287.072C252.785 284.8 254.269 283.655 257.225 283.637L259.53 283.609L259.533 283.033C259.537 282.18 259.367 281.567 259.024 281.195C258.681 280.815 258.132 280.624 257.377 280.62C256.608 280.616 256.054 280.75 255.714 281.022C255.374 281.294 255.171 281.716 255.103 282.288L253.267 282.113C253.576 280.214 254.958 279.27 257.412 279.282C258.715 279.289 259.69 279.6 260.338 280.215C260.992 280.823 261.317 281.704 261.311 282.856L261.288 287.407C261.286 287.928 261.352 288.322 261.487 288.59C261.623 288.851 261.883 288.982 262.267 288.984ZM256.32 288.896C256.945 288.899 257.499 288.752 257.982 288.455C258.465 288.158 258.842 287.759 259.111 287.26C259.381 286.76 259.517 286.243 259.519 285.709L259.524 284.84L257.668 284.869C256.9 284.879 256.313 284.96 255.909 285.115C255.504 285.269 255.187 285.508 254.958 285.833C254.735 286.15 254.622 286.576 254.62 287.11C254.617 287.644 254.758 288.074 255.043 288.401C255.334 288.728 255.76 288.893 256.32 288.896ZM270.715 288.723L274.426 288.742L274.419 290.129L264.83 290.081L264.836 288.694L268.958 288.715L269.016 276.996L266.194 276.982L266.2 275.595L270.78 275.618L270.715 288.723ZM50.3673 307.103C50.3614 308.288 50.6172 309.217 51.1347 309.89C51.6587 310.563 52.3764 310.902 53.2879 310.906C53.9585 310.91 54.5451 310.769 55.0478 310.485C55.5571 310.195 55.8976 309.8 56.0694 309.299L57.6101 309.746C57.3196 310.552 56.7892 311.168 56.0189 311.594C55.255 312.02 54.3425 312.23 53.2813 312.225C51.7449 312.217 50.5656 311.733 49.7436 310.772C48.9215 309.81 48.5149 308.438 48.5238 306.654C48.5325 304.916 48.9427 303.583 49.7546 302.656C50.5731 301.723 51.7473 301.26 53.2772 301.268C54.8071 301.275 55.9637 301.746 56.7468 302.681C57.5299 303.616 57.9168 305.024 57.9074 306.906L57.9063 307.14L50.3673 307.103ZM53.2903 302.566C52.4179 302.562 51.7264 302.845 51.2157 303.416C50.7051 303.979 50.431 304.759 50.3935 305.755L56.0966 305.784C55.9249 303.647 54.9895 302.575 53.2903 302.566ZM68.3114 312.104L65.1982 307.753L62.0224 312.073L60.1279 312.063L64.2076 306.654L60.3562 301.498L62.2996 301.508L65.2088 305.634L68.1393 301.537L70.1022 301.547L66.1999 306.644L70.2743 312.114L68.3114 312.104ZM81.8924 306.84C81.8741 310.524 80.5889 312.361 78.0369 312.348C76.4353 312.34 75.3609 311.736 74.8134 310.535L74.7646 310.535C74.7904 310.587 74.8007 311.127 74.7956 312.156L74.7751 316.287L73.0075 316.278L73.0698 303.749C73.0753 302.642 73.0594 301.913 73.0221 301.561L74.7311 301.57C74.7374 301.596 74.7467 301.693 74.7589 301.863C74.7711 302.025 74.7829 302.27 74.7943 302.595C74.8123 302.914 74.8208 303.152 74.8201 303.308L74.8591 303.308C75.188 302.627 75.6039 302.134 76.1067 301.83C76.6161 301.52 77.2777 301.367 78.0915 301.371C79.3805 301.378 80.3386 301.829 80.9656 302.724C81.5927 303.612 81.9017 304.984 81.8924 306.84ZM80.0761 306.831C80.0834 305.359 79.89 304.31 79.496 303.683C79.102 303.05 78.4786 302.731 77.6257 302.727C76.6427 302.722 75.9313 303.076 75.4915 303.79C75.0518 304.498 74.8283 305.574 74.8212 307.019C74.8143 308.406 75.0273 309.423 75.4603 310.069C75.8933 310.716 76.5948 311.042 77.5648 311.047C78.4307 311.051 79.0638 310.725 79.4642 310.07C79.8646 309.414 80.0686 308.334 80.0761 306.831ZM86.402 307.282C86.3961 308.467 86.6519 309.396 87.1694 310.069C87.6934 310.742 88.4111 311.081 89.3226 311.086C89.9932 311.089 90.5798 310.949 91.0825 310.665C91.5918 310.374 91.9323 309.979 92.1041 309.478L93.6448 309.925C93.3544 310.731 92.8239 311.347 92.0536 311.773C91.2897 312.199 90.3772 312.409 89.316 312.404C87.7796 312.396 86.6004 311.912 85.7783 310.951C84.9562 309.99 84.5497 308.617 84.5585 306.833C84.5672 305.095 84.9774 303.762 85.7894 302.835C86.6078 301.902 87.782 301.439 89.3119 301.447C90.8419 301.454 91.9984 301.926 92.7815 302.86C93.5646 303.795 93.9515 305.204 93.9422 307.085L93.941 307.319L86.402 307.282ZM89.325 302.746C88.4526 302.741 87.7611 303.024 87.2504 303.595C86.7398 304.159 86.4658 304.938 86.4283 305.934L92.1313 305.963C91.9596 303.826 91.0242 302.754 89.325 302.746ZM105.494 303.324C104.766 303.197 104.076 303.131 103.425 303.128C102.377 303.123 101.528 303.513 100.88 304.297C100.231 305.082 99.9042 306.083 99.8982 307.3L99.8735 312.261L98.1157 312.252L98.1498 305.407C98.1522 304.912 98.1096 304.329 98.0217 303.658C97.9404 302.987 97.82 302.329 97.6605 301.684L99.3304 301.692C99.5863 302.592 99.7385 303.406 99.787 304.136L99.8358 304.136C100.165 303.408 100.487 302.876 100.801 302.539C101.115 302.196 101.487 301.94 101.918 301.773C102.348 301.599 102.873 301.514 103.491 301.517C104.169 301.521 104.839 301.579 105.502 301.693L105.494 303.324ZM114.538 310.947L118.249 310.966L118.242 312.352L108.653 312.305L108.66 310.918L112.781 310.939L112.819 303.146L109.704 303.13L109.711 301.743L114.584 301.768L114.538 310.947ZM112.641 299.707L112.65 297.832L114.604 297.842L114.594 299.717L112.641 299.707ZM122.437 307.461C122.431 308.646 122.687 309.575 123.204 310.248C123.728 310.921 124.446 311.26 125.357 311.265C126.028 311.268 126.615 311.128 127.117 310.844C127.626 310.553 127.967 310.158 128.139 309.657L129.68 310.105C129.389 310.91 128.859 311.526 128.088 311.952C127.324 312.378 126.412 312.588 125.351 312.583C123.814 312.575 122.635 312.091 121.813 311.13C120.991 310.169 120.584 308.796 120.593 307.012C120.602 305.274 121.012 303.942 121.824 303.015C122.643 302.081 123.817 301.618 125.347 301.626C126.877 301.633 128.033 302.105 128.816 303.04C129.599 303.975 129.986 305.383 129.977 307.264L129.976 307.499L122.437 307.461ZM125.36 302.925C124.487 302.92 123.796 303.203 123.285 303.774C122.775 304.338 122.5 305.118 122.463 306.114L128.166 306.142C127.994 304.006 127.059 302.933 125.36 302.925ZM139.756 312.459L139.79 305.672C139.794 304.787 139.625 304.129 139.282 303.697C138.945 303.266 138.403 303.048 137.654 303.045C136.847 303.04 136.181 303.333 135.658 303.923C135.14 304.507 134.879 305.303 134.874 306.312L134.844 312.435L133.086 312.426L133.127 304.116C133.133 302.885 133.118 302.133 133.08 301.86L134.74 301.868C134.746 301.9 134.753 301.988 134.758 302.132C134.764 302.275 134.77 302.441 134.775 302.63C134.787 302.812 134.799 303.161 134.809 303.675L134.839 303.675C135.529 302.344 136.658 301.682 138.227 301.69C139.354 301.696 140.192 302.006 140.742 302.62C141.293 303.229 141.565 304.164 141.558 305.427L141.523 312.468L139.756 312.459ZM144.587 307.19C144.596 305.433 145.022 304.084 145.867 303.144C146.711 302.204 147.928 301.738 149.516 301.746C150.701 301.752 151.676 302.043 152.442 302.62C153.207 303.19 153.678 303.958 153.856 304.922L151.98 305.049C151.879 304.456 151.621 303.99 151.206 303.649C150.791 303.302 150.2 303.126 149.431 303.123C148.403 303.117 147.646 303.433 147.161 304.068C146.683 304.704 146.44 305.735 146.433 307.16C146.425 308.606 146.658 309.665 147.13 310.338C147.608 311.004 148.359 311.34 149.381 311.345C150.084 311.349 150.667 311.179 151.131 310.836C151.595 310.493 151.884 309.968 151.998 309.258L153.853 309.385C153.766 310.009 153.525 310.578 153.132 311.09C152.745 311.596 152.232 311.994 151.593 312.284C150.953 312.567 150.24 312.707 149.452 312.703C147.857 312.695 146.645 312.22 145.816 311.279C144.988 310.337 144.578 308.974 144.587 307.19ZM158.471 307.64C158.466 308.825 158.721 309.754 159.239 310.427C159.763 311.1 160.481 311.439 161.392 311.444C162.063 311.447 162.649 311.307 163.152 311.023C163.661 310.732 164.002 310.337 164.173 309.837L165.714 310.284C165.424 311.09 164.893 311.705 164.123 312.131C163.359 312.557 162.447 312.768 161.385 312.762C159.849 312.755 158.67 312.27 157.848 311.309C157.026 310.348 156.619 308.975 156.628 307.192C156.637 305.453 157.047 304.121 157.859 303.194C158.677 302.26 159.851 301.797 161.381 301.805C162.911 301.813 164.068 302.284 164.851 303.219C165.634 304.154 166.021 305.562 166.012 307.443L166.01 307.678L158.471 307.64ZM161.394 303.104C160.522 303.1 159.831 303.383 159.32 303.953C158.809 304.517 158.535 305.297 158.498 306.293L164.201 306.321C164.029 304.185 163.094 303.112 161.394 303.104ZM177.681 309.63C177.676 310.633 177.291 311.419 176.526 311.988C175.768 312.551 174.719 312.829 173.377 312.822C172.036 312.815 171.015 312.602 170.314 312.182C169.62 311.755 169.167 311.089 168.957 310.183L170.511 309.888C170.632 310.448 170.894 310.86 171.296 311.122C171.705 311.378 172.401 311.508 173.384 311.513C175.142 311.522 176.023 310.97 176.029 309.856C176.031 309.44 175.873 309.104 175.555 308.848C175.238 308.586 174.751 308.372 174.094 308.206C172.377 307.774 171.288 307.437 170.827 307.194C170.366 306.951 170.013 306.649 169.767 306.29C169.522 305.924 169.4 305.471 169.403 304.931C169.408 303.974 169.757 303.227 170.449 302.69C171.142 302.153 172.143 301.888 173.451 301.894C174.597 301.9 175.511 302.123 176.192 302.562C176.874 302.995 177.297 303.626 177.462 304.453L175.879 304.641C175.81 304.172 175.581 303.816 175.191 303.573C174.802 303.33 174.22 303.207 173.445 303.203C171.85 303.195 171.05 303.683 171.045 304.666C171.043 305.056 171.175 305.369 171.441 305.605C171.713 305.841 172.148 306.032 172.746 306.178L173.907 306.487C174.967 306.752 175.727 307.013 176.188 307.269C176.656 307.526 177.022 307.846 177.287 308.232C177.552 308.611 177.683 309.077 177.681 309.63ZM193.238 303.545L193.245 302.159L194.905 302.167L195.485 299.416L196.657 299.422L196.644 302.176L200.862 302.197L200.855 303.583L196.637 303.562L196.605 309.929C196.603 310.444 196.737 310.825 197.01 311.074C197.288 311.323 197.743 311.449 198.375 311.452C199.247 311.456 200.215 311.35 201.277 311.134L201.27 312.472C200.168 312.766 199.077 312.911 197.997 312.905C196.942 312.9 196.152 312.675 195.627 312.229C195.102 311.778 194.842 311.07 194.846 310.106L194.879 303.554L193.238 303.545ZM205.227 298.293L206.995 298.301L206.976 302.11C206.974 302.494 206.942 303.135 206.879 304.033L206.908 304.033C207.598 302.702 208.705 302.04 210.228 302.048C212.507 302.059 213.64 303.305 213.628 305.786L213.593 312.826L211.825 312.818L211.859 306.031C211.863 305.145 211.694 304.487 211.351 304.055C211.015 303.624 210.472 303.407 209.724 303.403C208.916 303.399 208.251 303.692 207.727 304.282C207.21 304.865 206.949 305.661 206.944 306.67L206.913 312.793L205.155 312.785L205.227 298.293ZM226.118 311.805C226.287 311.806 226.479 311.784 226.694 311.739L226.689 312.833C226.245 312.935 225.793 312.985 225.33 312.982C224.679 312.979 224.205 312.808 223.907 312.468C223.616 312.121 223.453 311.583 223.417 310.854L223.359 310.854C222.932 311.639 222.427 312.203 221.846 312.545C221.272 312.887 220.561 313.056 219.715 313.052C218.686 313.047 217.913 312.763 217.395 312.201C216.877 311.638 216.62 310.869 216.625 309.892C216.636 307.62 218.12 306.475 221.076 306.457L223.381 306.43L223.383 305.854C223.388 305.001 223.218 304.388 222.875 304.015C222.532 303.636 221.983 303.444 221.227 303.44C220.459 303.437 219.905 303.571 219.565 303.842C219.225 304.114 219.021 304.536 218.954 305.109L217.118 304.934C217.427 303.034 218.809 302.091 221.263 302.103C222.565 302.109 223.541 302.42 224.189 303.035C224.843 303.644 225.167 304.525 225.162 305.677L225.139 310.228C225.136 310.748 225.203 311.143 225.338 311.41C225.474 311.671 225.733 311.803 226.118 311.805ZM220.171 311.717C220.796 311.72 221.35 311.573 221.833 311.276C222.316 310.979 222.693 310.58 222.962 310.08C223.231 309.58 223.368 309.063 223.37 308.529L223.374 307.66L221.519 307.69C220.751 307.699 220.164 307.781 219.76 307.935C219.355 308.089 219.038 308.329 218.809 308.653C218.586 308.971 218.473 309.397 218.471 309.931C218.468 310.465 218.609 310.895 218.894 311.222C219.185 311.549 219.611 311.714 220.171 311.717ZM229.273 303.725L229.28 302.338L230.94 302.346L231.52 299.595L232.692 299.601L232.678 302.355L236.897 302.376L236.89 303.763L232.671 303.742L232.64 310.109C232.637 310.623 232.772 311.004 233.044 311.253C233.323 311.502 233.778 311.628 234.41 311.631C235.282 311.635 236.249 311.53 237.312 311.314L237.305 312.651C236.203 312.945 235.112 313.09 234.031 313.084C232.977 313.079 232.187 312.854 231.662 312.408C231.136 311.957 230.876 311.249 230.881 310.285L230.914 303.733L229.273 303.725ZM254.564 308.118C254.558 309.303 254.814 310.232 255.331 310.905C255.855 311.578 256.573 311.917 257.485 311.922C258.155 311.925 258.742 311.785 259.245 311.501C259.754 311.21 260.094 310.815 260.266 310.314L261.807 310.761C261.516 311.567 260.986 312.183 260.216 312.609C259.452 313.035 258.539 313.245 257.478 313.24C255.942 313.232 254.762 312.748 253.94 311.787C253.118 310.826 252.712 309.453 252.721 307.669C252.729 305.931 253.139 304.599 253.951 303.672C254.77 302.738 255.944 302.275 257.474 302.283C259.004 302.29 260.16 302.762 260.943 303.697C261.727 304.631 262.113 306.04 262.104 307.921L262.103 308.156L254.564 308.118ZM257.487 303.582C256.615 303.577 255.923 303.86 255.412 304.431C254.902 304.995 254.628 305.775 254.59 306.77L260.293 306.799C260.122 304.663 259.186 303.59 257.487 303.582ZM271.883 313.116L271.917 306.329C271.921 305.444 271.752 304.785 271.409 304.354C271.073 303.923 270.53 303.705 269.781 303.701C268.974 303.697 268.309 303.99 267.785 304.58C267.268 305.164 267.007 305.96 267.002 306.969L266.971 313.092L265.213 313.083L265.255 304.773C265.261 303.542 265.245 302.79 265.207 302.517L266.867 302.525C266.874 302.557 266.88 302.645 266.886 302.789C266.891 302.932 266.897 303.098 266.903 303.287C266.915 303.469 266.926 303.817 266.936 304.332L266.966 304.332C267.656 303.001 268.786 302.339 270.355 302.347C271.481 302.352 272.319 302.663 272.87 303.277C273.42 303.886 273.692 304.821 273.686 306.084L273.651 313.125L271.883 313.116ZM281.403 317.304C280.31 317.299 279.432 317.07 278.77 316.617C278.108 316.165 277.688 315.518 277.51 314.677L279.308 314.442C279.416 314.931 279.652 315.307 280.016 315.569C280.385 315.838 280.87 315.974 281.469 315.976C283.083 315.985 283.896 314.963 283.906 312.912L283.915 311.018L283.896 311.018C283.573 311.687 283.128 312.192 282.56 312.535C281.992 312.877 281.317 313.046 280.536 313.042C279.247 313.036 278.305 312.611 277.71 311.768C277.122 310.919 276.832 309.589 276.841 307.78C276.851 305.937 277.176 304.585 277.819 303.722C278.461 302.853 279.446 302.421 280.774 302.428C281.51 302.432 282.147 302.607 282.686 302.955C283.231 303.296 283.648 303.783 283.938 304.416L283.968 304.417C283.968 304.221 283.983 303.892 284.011 303.43C284.04 302.962 284.067 302.688 284.094 302.61L285.764 302.619C285.723 302.97 285.7 303.699 285.694 304.806L285.654 312.872C285.647 314.35 285.296 315.458 284.602 316.197C283.909 316.942 282.842 317.311 281.403 317.304ZM283.931 307.795C283.937 306.539 283.698 305.551 283.213 304.833C282.729 304.108 282.06 303.743 281.207 303.739C280.315 303.734 279.669 304.044 279.269 304.667C278.869 305.283 278.665 306.317 278.658 307.769C278.653 308.752 278.73 309.531 278.89 310.104C279.057 310.671 279.315 311.086 279.665 311.348C280.016 311.61 280.507 311.743 281.138 311.746C281.691 311.749 282.177 311.598 282.595 311.295C283.02 310.984 283.348 310.533 283.579 309.942C283.81 309.344 283.927 308.629 283.931 307.795ZM298.187 312.163C298.356 312.164 298.548 312.142 298.764 312.098L298.758 313.191C298.315 313.293 297.862 313.343 297.4 313.341C296.749 313.338 296.274 313.166 295.977 312.826C295.685 312.479 295.522 311.941 295.487 311.212L295.428 311.212C295.001 311.997 294.497 312.561 293.916 312.904C293.341 313.246 292.631 313.415 291.784 313.411C290.756 313.405 289.982 313.122 289.464 312.559C288.946 311.997 288.69 311.227 288.694 310.251C288.706 307.979 290.189 306.834 293.145 306.816L295.45 306.788L295.453 306.212C295.457 305.359 295.288 304.746 294.944 304.373C294.601 303.994 294.052 303.803 293.297 303.799C292.529 303.795 291.975 303.929 291.635 304.201C291.295 304.472 291.091 304.895 291.023 305.467L289.188 305.292C289.497 303.393 290.878 302.449 293.333 302.461C294.635 302.468 295.61 302.778 296.258 303.394C296.912 304.002 297.237 304.883 297.231 306.035L297.209 310.586C297.206 311.107 297.272 311.501 297.408 311.769C297.543 312.03 297.803 312.161 298.187 312.163ZM292.24 312.075C292.865 312.078 293.419 311.931 293.902 311.634C294.386 311.337 294.762 310.938 295.031 310.438C295.301 309.938 295.437 309.422 295.44 308.888L295.444 308.019L293.588 308.048C292.82 308.058 292.234 308.139 291.829 308.294C291.425 308.448 291.108 308.687 290.878 309.011C290.655 309.329 290.543 309.755 290.54 310.289C290.537 310.823 290.678 311.253 290.963 311.58C291.255 311.907 291.68 312.072 292.24 312.075ZM305.427 317.424C304.333 317.418 303.455 317.189 302.793 316.737C302.131 316.284 301.711 315.638 301.533 314.797L303.331 314.562C303.44 315.051 303.675 315.426 304.039 315.688C304.408 315.957 304.893 316.093 305.492 316.096C307.106 316.104 307.919 315.083 307.929 313.032L307.938 311.137L307.919 311.137C307.596 311.806 307.151 312.312 306.583 312.654C306.015 312.996 305.34 313.165 304.559 313.162C303.27 313.155 302.328 312.731 301.733 311.888C301.145 311.038 300.855 309.709 300.864 307.899C300.874 306.057 301.199 304.704 301.842 303.841C302.484 302.972 303.469 302.541 304.797 302.547C305.533 302.551 306.17 302.727 306.709 303.074C307.254 303.416 307.672 303.903 307.961 304.536L307.991 304.536C307.992 304.341 308.006 304.012 308.035 303.55C308.063 303.081 308.09 302.808 308.117 302.73L309.787 302.738C309.746 303.09 309.723 303.819 309.717 304.925L309.677 312.992C309.67 314.47 309.319 315.578 308.625 316.317C307.932 317.062 306.865 317.431 305.427 317.424ZM307.954 307.915C307.961 306.658 307.721 305.671 307.237 304.952C306.752 304.227 306.083 303.862 305.23 303.858C304.338 303.854 303.692 304.163 303.292 304.786C302.892 305.403 302.688 306.437 302.681 307.888C302.676 308.872 302.754 309.65 302.913 310.224C303.08 310.791 303.338 311.206 303.689 311.468C304.039 311.73 304.53 311.863 305.161 311.866C305.715 311.868 306.2 311.718 306.619 311.414C307.043 311.104 307.371 310.653 307.602 310.061C307.833 309.464 307.95 308.748 307.954 307.915ZM314.622 308.417C314.616 309.602 314.872 310.531 315.389 311.204C315.913 311.877 316.631 312.216 317.542 312.22C318.213 312.224 318.8 312.083 319.302 311.799C319.812 311.509 320.152 311.113 320.324 310.613L321.865 311.06C321.574 311.866 321.044 312.482 320.273 312.908C319.51 313.334 318.597 313.544 317.536 313.539C315.999 313.531 314.82 313.047 313.998 312.085C313.176 311.124 312.769 309.752 312.778 307.968C312.787 306.23 313.197 304.897 314.009 303.97C314.828 303.037 316.002 302.574 317.532 302.581C319.062 302.589 320.218 303.06 321.001 303.995C321.784 304.93 322.171 306.338 322.162 308.22L322.161 308.454L314.622 308.417ZM317.545 303.88C316.672 303.876 315.981 304.159 315.47 304.729C314.96 305.293 314.686 306.073 314.648 307.069L320.351 307.097C320.179 304.961 319.244 303.889 317.545 303.88ZM57.8413 333.968C58.0105 333.969 58.2027 333.947 58.4178 333.903L58.4123 334.997C57.9691 335.099 57.5164 335.148 57.0541 335.146C56.4031 335.143 55.9287 334.971 55.6309 334.631C55.3396 334.285 55.1763 333.747 55.1409 333.017L55.0823 333.017C54.6552 333.803 54.1511 334.367 53.5699 334.709C52.9953 335.051 52.2848 335.22 51.4385 335.216C50.4099 335.211 49.6365 334.927 49.1185 334.364C48.6004 333.802 48.3438 333.032 48.3487 332.056C48.36 329.784 49.8436 328.639 52.7994 328.621L55.1043 328.593L55.1071 328.017C55.1114 327.164 54.9419 326.552 54.5987 326.179C54.2555 325.799 53.7063 325.608 52.9511 325.604C52.1829 325.6 51.6289 325.734 51.289 326.006C50.9491 326.278 50.7451 326.7 50.6772 327.273L48.8421 327.097C49.151 325.198 50.5327 324.254 52.9871 324.266C54.2892 324.273 55.2642 324.584 55.9122 325.199C56.5667 325.808 56.8911 326.688 56.8854 327.841L56.8628 332.391C56.8602 332.912 56.9266 333.306 57.062 333.574C57.1974 333.835 57.4571 333.966 57.8413 333.968ZM51.8944 333.88C52.5193 333.883 53.0735 333.736 53.5567 333.439C54.04 333.142 54.4163 332.744 54.6857 332.244C54.9551 331.744 55.0912 331.227 55.0938 330.693L55.0982 329.824L53.2425 329.854C52.4742 329.863 51.8879 329.945 51.4835 330.099C51.079 330.253 50.7621 330.492 50.5326 330.817C50.3097 331.135 50.1969 331.561 50.1942 332.094C50.1916 332.628 50.3327 333.059 50.6175 333.386C50.9088 333.713 51.3345 333.877 51.8944 333.88ZM67.5721 335.101L67.6058 328.314C67.6102 327.428 67.441 326.77 67.098 326.339C66.7616 325.907 66.2191 325.69 65.4704 325.686C64.6631 325.682 63.9976 325.975 63.4738 326.565C62.9566 327.148 62.6955 327.944 62.6905 328.953L62.66 335.076L60.9022 335.068L60.9435 326.757C60.9497 325.527 60.9339 324.775 60.8962 324.501L62.5563 324.509C62.5627 324.542 62.5687 324.63 62.5745 324.773C62.5803 324.916 62.586 325.082 62.5916 325.271C62.6037 325.454 62.615 325.802 62.6254 326.316L62.6547 326.316C63.345 324.985 64.4746 324.324 66.0436 324.331C67.1699 324.337 68.0082 324.647 68.5585 325.262C69.1089 325.87 69.3809 326.806 69.3746 328.069L69.3396 335.11L67.5721 335.101ZM79.5335 333.461C79.2111 334.143 78.7854 334.639 78.2565 334.949C77.7277 335.252 77.0694 335.402 76.2816 335.398C74.9665 335.391 74.002 334.934 73.388 334.026C72.774 333.118 72.4716 331.753 72.4807 329.93C72.499 326.245 73.7842 324.409 76.3362 324.422C77.124 324.425 77.7808 324.569 78.3068 324.851C78.8392 325.134 79.2634 325.595 79.5792 326.235L79.5987 326.235L79.5865 324.76L79.6069 320.668L81.3647 320.677L81.3034 332.991C81.298 334.092 81.3139 334.818 81.3512 335.169L79.6715 335.161C79.646 335.063 79.6244 334.825 79.6067 334.448C79.5891 334.07 79.5809 333.741 79.5823 333.461L79.5335 333.461ZM74.2973 329.88C74.2901 331.326 74.477 332.381 74.8578 333.047C75.2451 333.707 75.875 334.039 76.7474 334.043C77.6979 334.048 78.4027 333.709 78.8618 333.028C79.321 332.34 79.5543 331.248 79.5617 329.75C79.5687 328.35 79.3524 327.33 78.9129 326.69C78.4798 326.05 77.7783 325.728 76.8083 325.723C75.9294 325.718 75.2929 326.05 74.899 326.719C74.505 327.388 74.3045 328.441 74.2973 329.88ZM102.413 333.887L106.123 333.906L106.117 335.292L96.5268 335.245L96.5337 333.858L100.655 333.879L100.693 326.086L97.5783 326.07L97.5852 324.683L102.458 324.708L102.413 333.887ZM100.515 322.647L100.525 320.772L102.478 320.782L102.468 322.657L100.515 322.647ZM115.618 335.34L115.652 328.553C115.656 327.667 115.487 327.009 115.144 326.577C114.808 326.146 114.265 325.929 113.517 325.925C112.709 325.921 112.044 326.214 111.52 326.804C111.003 327.387 110.742 328.183 110.737 329.192L110.706 335.315L108.949 335.306L108.99 326.996C108.996 325.766 108.98 325.014 108.942 324.74L110.603 324.748C110.609 324.781 110.615 324.869 110.621 325.012C110.627 325.155 110.632 325.321 110.638 325.51C110.65 325.692 110.661 326.041 110.672 326.555L110.701 326.555C111.391 325.224 112.521 324.562 114.09 324.57C115.216 324.576 116.054 324.886 116.605 325.501C117.155 326.109 117.427 327.044 117.421 328.308L117.386 335.348L115.618 335.34ZM129.52 332.391C129.515 333.394 129.13 334.18 128.366 334.749C127.608 335.311 126.558 335.589 125.217 335.583C123.876 335.576 122.855 335.363 122.154 334.942C121.459 334.516 121.007 333.849 120.796 332.943L122.351 332.648C122.471 333.209 122.733 333.62 123.135 333.883C123.544 334.139 124.24 334.269 125.223 334.274C126.981 334.283 127.863 333.731 127.868 332.617C127.87 332.201 127.713 331.865 127.395 331.609C127.077 331.347 126.59 331.133 125.933 330.967C124.217 330.535 123.128 330.198 122.667 329.955C122.206 329.712 121.852 329.41 121.607 329.051C121.361 328.685 121.24 328.232 121.242 327.692C121.247 326.735 121.596 325.988 122.289 325.451C122.981 324.914 123.982 324.649 125.291 324.655C126.437 324.661 127.35 324.884 128.032 325.323C128.713 325.756 129.136 326.387 129.301 327.214L127.719 327.402C127.649 326.933 127.42 326.577 127.03 326.334C126.641 326.091 126.059 325.968 125.284 325.964C123.689 325.956 122.889 326.443 122.884 327.426C122.882 327.817 123.014 328.13 123.28 328.366C123.552 328.602 123.988 328.793 124.586 328.939L125.746 329.247C126.806 329.513 127.567 329.774 128.028 330.03C128.495 330.286 128.861 330.607 129.126 330.993C129.392 331.372 129.523 331.838 129.52 332.391ZM141.836 330.138C141.818 333.823 140.532 335.659 137.98 335.646C136.379 335.638 135.304 335.034 134.757 333.833L134.708 333.833C134.734 333.885 134.744 334.426 134.739 335.454L134.719 339.585L132.951 339.576L133.013 327.047C133.019 325.94 133.003 325.211 132.966 324.859L134.675 324.868C134.681 324.894 134.69 324.992 134.702 325.161C134.715 325.324 134.726 325.568 134.738 325.894C134.756 326.213 134.764 326.45 134.764 326.607L134.803 326.607C135.132 325.925 135.547 325.432 136.05 325.129C136.56 324.819 137.221 324.666 138.035 324.67C139.324 324.676 140.282 325.127 140.909 326.022C141.536 326.91 141.845 328.282 141.836 330.138ZM140.02 330.129C140.027 328.658 139.834 327.608 139.439 326.981C139.046 326.348 138.422 326.029 137.569 326.025C136.586 326.02 135.875 326.374 135.435 327.088C134.995 327.796 134.772 328.872 134.765 330.318C134.758 331.704 134.971 332.721 135.404 333.368C135.837 334.014 136.538 334.34 137.508 334.345C138.374 334.349 139.007 334.024 139.408 333.368C139.808 332.712 140.012 331.633 140.02 330.129ZM150.459 334.126L154.17 334.145L154.163 335.531L144.573 335.484L144.58 334.097L148.701 334.117L148.74 326.325L145.625 326.309L145.631 324.922L150.504 324.947L150.459 334.126ZM148.562 322.886L148.571 321.011L150.524 321.021L150.515 322.896L148.562 322.886ZM165.438 326.622C164.709 326.495 164.019 326.43 163.368 326.427C162.32 326.421 161.472 326.811 160.823 327.596C160.175 328.38 159.848 329.381 159.842 330.599L159.817 335.559L158.059 335.551L158.093 328.705C158.096 328.21 158.053 327.627 157.965 326.956C157.884 326.285 157.764 325.627 157.604 324.982L159.274 324.99C159.53 325.89 159.682 326.704 159.73 327.434L159.779 327.434C160.108 326.707 160.43 326.174 160.744 325.837C161.058 325.494 161.431 325.239 161.861 325.071C162.292 324.898 162.816 324.812 163.435 324.816C164.112 324.819 164.782 324.878 165.446 324.992L165.438 326.622ZM170.369 330.7C170.363 331.885 170.619 332.814 171.136 333.487C171.66 334.16 172.378 334.499 173.289 334.503C173.96 334.507 174.546 334.366 175.049 334.082C175.558 333.792 175.899 333.396 176.071 332.896L177.611 333.343C177.321 334.149 176.791 334.765 176.02 335.191C175.256 335.617 174.344 335.827 173.283 335.822C171.746 335.814 170.567 335.33 169.745 334.369C168.923 333.407 168.516 332.035 168.525 330.251C168.534 328.513 168.944 327.18 169.756 326.253C170.574 325.32 171.749 324.857 173.279 324.864C174.808 324.872 175.965 325.343 176.748 326.278C177.531 327.213 177.918 328.621 177.909 330.503L177.908 330.737L170.369 330.7ZM173.292 326.163C172.419 326.159 171.728 326.442 171.217 327.012C170.706 327.576 170.432 328.356 170.395 329.352L176.098 329.38C175.926 327.244 174.991 326.172 173.292 326.163ZM184.055 335.68L184.07 332.76L186.364 332.771L186.35 335.691L184.055 335.68Z" fill="#6E7DCF"/>
</svg>
