<svg width="558" height="654" viewBox="0 0 558 654" fill="none" xmlns="http://www.w3.org/2000/svg">
<rect width="557.197" height="653.001" rx="43" fill="#F8F0F0"/>
<path d="M67.9569 303.72V308.545H74.5585V310.088H67.9569V315.371H66.0917V302.197H74.7928V303.72H67.9569ZM87.7139 306.406C86.9848 306.282 86.2947 306.22 85.6436 306.22C84.5955 306.22 83.7491 306.614 83.1046 307.402C82.46 308.19 82.1378 309.192 82.1378 310.41V315.371H80.38V308.525C80.38 308.03 80.3344 307.448 80.2432 306.777C80.1586 306.106 80.0349 305.449 79.8721 304.804H81.5421C81.8025 305.703 81.9587 306.517 82.0108 307.246H82.0596C82.3852 306.517 82.7042 305.983 83.0167 305.644C83.3292 305.299 83.7003 305.042 84.13 304.873C84.5596 304.697 85.0837 304.609 85.7022 304.609C86.3793 304.609 87.0499 304.664 87.7139 304.775V306.406ZM101.533 310.078C101.533 311.855 101.123 313.216 100.303 314.16C99.4892 315.097 98.3108 315.566 96.7678 315.566C95.2574 315.566 94.0986 315.091 93.2913 314.14C92.4905 313.19 92.0901 311.836 92.0901 310.078C92.0901 308.261 92.5003 306.897 93.3206 305.986C94.1474 305.068 95.316 304.609 96.8264 304.609C98.415 304.609 99.5966 305.061 100.371 305.966C101.146 306.871 101.533 308.242 101.533 310.078ZM99.6878 310.078C99.6878 308.678 99.4632 307.633 99.0139 306.943C98.5712 306.253 97.8518 305.908 96.8557 305.908C95.8466 305.908 95.1077 306.259 94.6389 306.963C94.1702 307.666 93.9358 308.704 93.9358 310.078C93.9358 311.445 94.1702 312.487 94.6389 313.203C95.1077 313.912 95.8108 314.267 96.7483 314.267C97.7835 314.267 98.5322 313.919 98.9944 313.222C99.4566 312.526 99.6878 311.477 99.6878 310.078ZM109.318 315.371V308.672C109.318 307.669 109.236 306.969 109.074 306.572C108.917 306.168 108.628 305.966 108.205 305.966C107.788 305.966 107.449 306.279 107.189 306.904C106.935 307.529 106.808 308.375 106.808 309.443V315.371H105.158V307.06C105.158 305.83 105.138 305.078 105.099 304.804H106.554L106.613 306.045V306.513H106.632C106.854 305.849 107.134 305.367 107.472 305.068C107.811 304.762 108.234 304.609 108.742 304.609C109.315 304.609 109.741 304.765 110.021 305.078C110.307 305.39 110.513 305.872 110.636 306.523H110.656C110.916 305.833 111.225 305.341 111.583 305.048C111.948 304.755 112.407 304.609 112.96 304.609C113.729 304.609 114.279 304.889 114.611 305.449C114.943 306.009 115.109 306.969 115.109 308.33V315.371H113.468V308.672C113.468 307.669 113.387 306.969 113.224 306.572C113.068 306.168 112.778 305.966 112.355 305.966C111.925 305.966 111.583 306.24 111.33 306.787C111.082 307.334 110.958 308.154 110.958 309.248V315.371H109.318ZM132.025 310.078C132.025 308.32 132.445 306.969 133.285 306.025C134.125 305.081 135.339 304.609 136.928 304.609C138.113 304.609 139.089 304.895 139.857 305.468C140.626 306.035 141.101 306.8 141.283 307.763L139.408 307.9C139.304 307.308 139.043 306.842 138.627 306.504C138.21 306.158 137.618 305.986 136.849 305.986C135.821 305.986 135.066 306.305 134.584 306.943C134.109 307.581 133.871 308.613 133.871 310.039C133.871 311.484 134.109 312.542 134.584 313.213C135.066 313.877 135.818 314.209 136.84 314.209C137.543 314.209 138.126 314.036 138.588 313.691C139.05 313.346 139.336 312.819 139.447 312.109L141.303 312.226C141.218 312.851 140.98 313.421 140.59 313.935C140.206 314.443 139.695 314.843 139.057 315.136C138.418 315.423 137.706 315.566 136.918 315.566C135.323 315.566 134.109 315.097 133.275 314.16C132.442 313.222 132.025 311.862 132.025 310.078ZM154.78 310.078C154.78 311.855 154.37 313.216 153.55 314.16C152.736 315.097 151.558 315.566 150.015 315.566C148.504 315.566 147.345 315.091 146.538 314.14C145.737 313.19 145.337 311.836 145.337 310.078C145.337 308.261 145.747 306.897 146.567 305.986C147.394 305.068 148.563 304.609 150.073 304.609C151.662 304.609 152.844 305.061 153.618 305.966C154.393 306.871 154.78 308.242 154.78 310.078ZM152.935 310.078C152.935 308.678 152.71 307.633 152.261 306.943C151.818 306.253 151.099 305.908 150.103 305.908C149.094 305.908 148.355 306.259 147.886 306.963C147.417 307.666 147.183 308.704 147.183 310.078C147.183 311.445 147.417 312.487 147.886 313.203C148.355 313.912 149.058 314.267 149.995 314.267C151.03 314.267 151.779 313.919 152.241 313.222C152.704 312.526 152.935 311.477 152.935 310.078ZM165.856 315.371V308.584C165.856 307.698 165.683 307.041 165.338 306.611C165 306.181 164.456 305.966 163.707 305.966C162.9 305.966 162.236 306.263 161.715 306.855C161.201 307.441 160.944 308.239 160.944 309.248V315.371H159.186V307.06C159.186 305.83 159.166 305.078 159.127 304.804H160.787C160.794 304.837 160.8 304.925 160.807 305.068C160.813 305.211 160.82 305.377 160.826 305.566C160.839 305.748 160.852 306.097 160.866 306.611H160.895C161.578 305.276 162.705 304.609 164.274 304.609C165.4 304.609 166.24 304.915 166.793 305.527C167.347 306.132 167.623 307.067 167.623 308.33V315.371H165.856ZM171.96 310.078C171.96 308.32 172.38 306.969 173.22 306.025C174.06 305.081 175.274 304.609 176.863 304.609C178.048 304.609 179.024 304.895 179.792 305.468C180.561 306.035 181.036 306.8 181.218 307.763L179.343 307.9C179.239 307.308 178.979 306.842 178.562 306.504C178.145 306.158 177.553 305.986 176.785 305.986C175.756 305.986 175.001 306.305 174.519 306.943C174.044 307.581 173.806 308.613 173.806 310.039C173.806 311.484 174.044 312.542 174.519 313.213C175.001 313.877 175.753 314.209 176.775 314.209C177.478 314.209 178.061 314.036 178.523 313.691C178.985 313.346 179.272 312.819 179.382 312.109L181.238 312.226C181.153 312.851 180.916 313.421 180.525 313.935C180.141 314.443 179.63 314.843 178.992 315.136C178.354 315.423 177.641 315.566 176.853 315.566C175.258 315.566 174.044 315.097 173.21 314.16C172.377 313.222 171.96 311.862 171.96 310.078ZM187.147 310.459C187.147 311.644 187.408 312.571 187.928 313.242C188.456 313.912 189.175 314.248 190.087 314.248C190.757 314.248 191.343 314.104 191.844 313.818C192.352 313.525 192.691 313.128 192.86 312.627L194.403 313.066C194.117 313.873 193.589 314.492 192.821 314.922C192.059 315.351 191.148 315.566 190.087 315.566C188.55 315.566 187.368 315.088 186.542 314.13C185.715 313.173 185.301 311.803 185.301 310.019C185.301 308.281 185.705 306.946 186.512 306.015C187.326 305.078 188.498 304.609 190.028 304.609C191.558 304.609 192.717 305.075 193.505 306.005C194.292 306.936 194.686 308.343 194.686 310.224V310.459H187.147ZM190.048 305.908C189.175 305.908 188.485 306.194 187.977 306.767C187.469 307.334 187.199 308.115 187.167 309.111H192.87C192.688 306.976 191.747 305.908 190.048 305.908ZM207.959 310.039C207.959 313.724 206.683 315.566 204.131 315.566C202.529 315.566 201.452 314.967 200.898 313.769H200.849C200.876 313.821 200.889 314.362 200.889 315.39V319.521H199.121V306.992C199.121 305.885 199.101 305.156 199.062 304.804H200.771C200.778 304.83 200.788 304.928 200.801 305.097C200.814 305.26 200.827 305.504 200.84 305.83C200.859 306.149 200.869 306.386 200.869 306.543H200.908C201.234 305.859 201.647 305.364 202.148 305.058C202.656 304.746 203.317 304.589 204.131 304.589C205.42 304.589 206.38 305.035 207.012 305.927C207.643 306.813 207.959 308.183 207.959 310.039ZM206.142 310.039C206.142 308.567 205.944 307.519 205.547 306.894C205.15 306.263 204.525 305.947 203.672 305.947C202.689 305.947 201.979 306.305 201.543 307.021C201.107 307.731 200.889 308.808 200.889 310.254C200.889 311.64 201.107 312.656 201.543 313.3C201.979 313.945 202.682 314.267 203.652 314.267C204.518 314.267 205.15 313.938 205.547 313.281C205.944 312.623 206.142 311.543 206.142 310.039ZM212.482 306.191V304.804H214.142L214.708 302.05H215.88V304.804H220.099V306.191H215.88V312.558C215.88 313.073 216.017 313.453 216.29 313.701C216.57 313.948 217.026 314.072 217.657 314.072C218.53 314.072 219.496 313.961 220.558 313.74V315.078C219.457 315.377 218.367 315.527 217.286 315.527C216.232 315.527 215.441 315.306 214.913 314.863C214.386 314.414 214.122 313.707 214.122 312.744V306.191H212.482ZM239.105 306.191V304.804H240.765L241.332 302.05H242.503V304.804H246.722V306.191H242.503V312.558C242.503 313.073 242.64 313.453 242.914 313.701C243.193 313.948 243.649 314.072 244.281 314.072C245.153 314.072 246.12 313.961 247.181 313.74V315.078C246.081 315.377 244.99 315.527 243.91 315.527C242.855 315.527 242.064 315.306 241.537 314.863C241.009 314.414 240.746 313.707 240.746 312.744V306.191H239.105ZM261.274 310.078C261.274 311.855 260.864 313.216 260.044 314.16C259.23 315.097 258.051 315.566 256.508 315.566C254.998 315.566 253.839 315.091 253.032 314.14C252.231 313.19 251.831 311.836 251.831 310.078C251.831 308.261 252.241 306.897 253.061 305.986C253.888 305.068 255.057 304.609 256.567 304.609C258.156 304.609 259.337 305.061 260.112 305.966C260.887 306.871 261.274 308.242 261.274 310.078ZM259.428 310.078C259.428 308.678 259.204 307.633 258.755 306.943C258.312 306.253 257.592 305.908 256.596 305.908C255.587 305.908 254.848 306.259 254.38 306.963C253.911 307.666 253.676 308.704 253.676 310.078C253.676 311.445 253.911 312.487 254.38 313.203C254.848 313.912 255.551 314.267 256.489 314.267C257.524 314.267 258.273 313.919 258.735 313.222C259.197 312.526 259.428 311.477 259.428 310.078ZM278.454 310.078C278.454 308.32 278.874 306.969 279.714 306.025C280.554 305.081 281.768 304.609 283.357 304.609C284.541 304.609 285.518 304.895 286.286 305.468C287.054 306.035 287.53 306.8 287.712 307.763L285.837 307.9C285.733 307.308 285.472 306.842 285.056 306.504C284.639 306.158 284.047 305.986 283.278 305.986C282.25 305.986 281.495 306.305 281.013 306.943C280.538 307.581 280.3 308.613 280.3 310.039C280.3 311.484 280.538 312.542 281.013 313.213C281.495 313.877 282.246 314.209 283.269 314.209C283.972 314.209 284.554 314.036 285.017 313.691C285.479 313.346 285.765 312.819 285.876 312.109L287.732 312.226C287.647 312.851 287.409 313.421 287.019 313.935C286.635 314.443 286.123 314.843 285.485 315.136C284.847 315.423 284.135 315.566 283.347 315.566C281.752 315.566 280.538 315.097 279.704 314.16C278.871 313.222 278.454 311.862 278.454 310.078ZM301.209 310.078C301.209 311.855 300.799 313.216 299.979 314.16C299.165 315.097 297.987 315.566 296.444 315.566C294.933 315.566 293.774 315.091 292.967 314.14C292.166 313.19 291.766 311.836 291.766 310.078C291.766 308.261 292.176 306.897 292.996 305.986C293.823 305.068 294.992 304.609 296.502 304.609C298.091 304.609 299.272 305.061 300.047 305.966C300.822 306.871 301.209 308.242 301.209 310.078ZM299.364 310.078C299.364 308.678 299.139 307.633 298.69 306.943C298.247 306.253 297.528 305.908 296.532 305.908C295.522 305.908 294.783 306.259 294.315 306.963C293.846 307.666 293.612 308.704 293.612 310.078C293.612 311.445 293.846 312.487 294.315 313.203C294.783 313.912 295.487 314.267 296.424 314.267C297.459 314.267 298.208 313.919 298.67 313.222C299.132 312.526 299.364 311.477 299.364 310.078ZM312.226 313.672C311.907 314.355 311.484 314.853 310.957 315.166C310.429 315.472 309.772 315.625 308.984 315.625C307.669 315.625 306.702 315.172 306.083 314.267C305.465 313.362 305.156 311.998 305.156 310.175C305.156 306.491 306.432 304.648 308.984 304.648C309.772 304.648 310.429 304.788 310.957 305.068C311.49 305.348 311.917 305.807 312.236 306.445H312.255L312.236 304.97V300.879H313.994V313.193C313.994 314.293 314.013 315.019 314.052 315.371H312.373C312.346 315.273 312.324 315.035 312.304 314.658C312.285 314.28 312.275 313.951 312.275 313.672H312.226ZM306.972 310.117C306.972 311.562 307.164 312.617 307.548 313.281C307.939 313.938 308.57 314.267 309.443 314.267C310.393 314.267 311.096 313.925 311.552 313.242C312.008 312.552 312.236 311.458 312.236 309.961C312.236 308.561 312.014 307.542 311.572 306.904C311.136 306.266 310.432 305.947 309.462 305.947C308.583 305.947 307.949 306.282 307.558 306.953C307.167 307.623 306.972 308.678 306.972 310.117ZM320.264 310.459C320.264 311.644 320.525 312.571 321.046 313.242C321.573 313.912 322.292 314.248 323.204 314.248C323.874 314.248 324.46 314.104 324.962 313.818C325.469 313.525 325.808 313.128 325.977 312.627L327.52 313.066C327.234 313.873 326.706 314.492 325.938 314.922C325.176 315.351 324.265 315.566 323.204 315.566C321.667 315.566 320.486 315.088 319.659 314.13C318.832 313.173 318.419 311.803 318.419 310.019C318.419 308.281 318.822 306.946 319.63 306.015C320.443 305.078 321.615 304.609 323.145 304.609C324.675 304.609 325.834 305.075 326.622 306.005C327.41 306.936 327.803 308.343 327.803 310.224V310.459H320.264ZM323.165 305.908C322.292 305.908 321.602 306.194 321.094 306.767C320.587 307.334 320.316 308.115 320.284 309.111H325.987C325.805 306.976 324.864 305.908 323.165 305.908ZM332.961 318.916L334.611 312.451H337.199L334.162 318.916H332.961ZM366.996 315.371H365.004L363.608 310.771L363.051 308.798L362.67 310.156L361.03 315.371H359.047L357.26 304.804H358.998L359.907 310.732C360.121 312.451 360.229 313.512 360.229 313.916C360.483 312.874 360.671 312.177 360.795 311.826L362.114 307.685H363.998L365.268 311.836C365.476 312.519 365.655 313.213 365.805 313.916C365.805 313.72 365.818 313.476 365.844 313.183C365.87 312.89 365.903 312.591 365.942 312.285C365.981 311.972 366.02 311.676 366.059 311.396C366.098 311.116 366.127 310.895 366.147 310.732L367.133 304.804H368.852L366.996 315.371ZM373.511 310.459C373.511 311.644 373.772 312.571 374.292 313.242C374.82 313.912 375.539 314.248 376.451 314.248C377.121 314.248 377.707 314.104 378.208 313.818C378.716 313.525 379.055 313.128 379.224 312.627L380.767 313.066C380.481 313.873 379.953 314.492 379.185 314.922C378.423 315.351 377.512 315.566 376.451 315.566C374.914 315.566 373.733 315.088 372.906 314.13C372.079 313.173 371.665 311.803 371.665 310.019C371.665 308.281 372.069 306.946 372.876 306.015C373.69 305.078 374.862 304.609 376.392 304.609C377.922 304.609 379.081 305.075 379.869 306.005C380.656 306.936 381.05 308.343 381.05 310.224V310.459H373.511ZM376.412 305.908C375.539 305.908 374.849 306.194 374.341 306.767C373.833 307.334 373.563 308.115 373.531 309.111H379.234C379.052 306.976 378.111 305.908 376.412 305.908ZM398.846 306.191V304.804H400.506L401.072 302.05H402.244V304.804H406.463V306.191H402.244V312.558C402.244 313.073 402.381 313.453 402.654 313.701C402.934 313.948 403.39 314.072 404.021 314.072C404.894 314.072 405.861 313.961 406.922 313.74V315.078C405.821 315.377 404.731 315.527 403.65 315.527C402.596 315.527 401.805 315.306 401.277 314.863C400.75 314.414 400.486 313.707 400.486 312.744V306.191H398.846ZM413.866 304.804V311.504C413.866 312.519 414.026 313.226 414.345 313.623C414.664 314.013 415.233 314.209 416.054 314.209C416.894 314.209 417.558 313.922 418.046 313.349C418.534 312.776 418.778 311.969 418.778 310.927V304.804H420.546V313.115C420.546 314.345 420.565 315.097 420.605 315.371H418.944C418.938 315.338 418.931 315.25 418.925 315.107C418.918 314.964 418.909 314.801 418.896 314.619C418.889 314.43 418.879 314.078 418.866 313.564H418.837C418.433 314.293 417.965 314.811 417.431 315.117C416.903 315.416 416.246 315.566 415.458 315.566C414.299 315.566 413.45 315.28 412.909 314.707C412.375 314.127 412.108 313.173 412.108 311.845V304.804H413.866ZM433.819 306.406C433.089 306.282 432.399 306.22 431.748 306.22C430.7 306.22 429.854 306.614 429.209 307.402C428.565 308.19 428.242 309.192 428.242 310.41V315.371H426.485V308.525C426.485 308.03 426.439 307.448 426.348 306.777C426.263 306.106 426.14 305.449 425.977 304.804H427.647C427.907 305.703 428.063 306.517 428.116 307.246H428.164C428.49 306.517 428.809 305.983 429.121 305.644C429.434 305.299 429.805 305.042 430.235 304.873C430.664 304.697 431.188 304.609 431.807 304.609C432.484 304.609 433.155 304.664 433.819 304.775V306.406ZM445.402 315.371V308.584C445.402 307.698 445.229 307.041 444.884 306.611C444.546 306.181 444.002 305.966 443.253 305.966C442.446 305.966 441.782 306.263 441.261 306.855C440.747 307.441 440.49 308.239 440.49 309.248V315.371H438.732V307.06C438.732 305.83 438.712 305.078 438.673 304.804H440.333C440.34 304.837 440.346 304.925 440.353 305.068C440.36 305.211 440.366 305.377 440.373 305.566C440.386 305.748 440.399 306.097 440.412 306.611H440.441C441.124 305.276 442.251 304.609 443.82 304.609C444.946 304.609 445.786 304.915 446.339 305.527C446.893 306.132 447.169 307.067 447.169 308.33V315.371H445.402ZM71.4725 336.984H75.1835V338.371H65.5936V336.984H69.7147V329.191H66.5995V327.804H71.4725V336.984ZM69.5194 325.754V323.879H71.4725V325.754H69.5194ZM85.9268 336.672C85.6078 337.355 85.1846 337.853 84.6573 338.166C84.13 338.472 83.4724 338.625 82.6846 338.625C81.3695 338.625 80.4027 338.172 79.7843 337.267C79.1658 336.362 78.8565 334.998 78.8565 333.175C78.8565 329.491 80.1326 327.648 82.6846 327.648C83.4724 327.648 84.13 327.788 84.6573 328.068C85.1912 328.348 85.6176 328.807 85.9366 329.445H85.9561L85.9366 327.97V323.879H87.6944V336.193C87.6944 337.293 87.7139 338.019 87.753 338.371H86.0733C86.0473 338.273 86.0245 338.035 86.005 337.658C85.9854 337.28 85.9757 336.951 85.9757 336.672H85.9268ZM80.6729 333.117C80.6729 334.562 80.865 335.617 81.2491 336.281C81.6397 336.938 82.2712 337.267 83.1436 337.267C84.0941 337.267 84.7973 336.925 85.253 336.242C85.7087 335.552 85.9366 334.458 85.9366 332.961C85.9366 331.561 85.7152 330.542 85.2725 329.904C84.8363 329.266 84.1332 328.947 83.1632 328.947C82.2843 328.947 81.6495 329.282 81.2589 329.953C80.8682 330.623 80.6729 331.678 80.6729 333.117ZM93.9651 333.459C93.9651 334.644 94.2255 335.571 94.7464 336.242C95.2737 336.912 95.9931 337.248 96.9046 337.248C97.5751 337.248 98.1611 337.104 98.6624 336.818C99.1702 336.525 99.5087 336.128 99.678 335.627L101.221 336.066C100.935 336.873 100.407 337.492 99.6389 337.922C98.8772 338.351 97.9658 338.566 96.9046 338.566C95.3681 338.566 94.1865 338.088 93.3596 337.13C92.5328 336.173 92.1194 334.803 92.1194 333.019C92.1194 331.281 92.5231 329.946 93.3303 329.015C94.1441 328.078 95.316 327.609 96.846 327.609C98.3759 327.609 99.5348 328.075 100.323 329.005C101.11 329.936 101.504 331.343 101.504 333.224V333.459H93.9651ZM96.8655 328.908C95.9931 328.908 95.303 329.194 94.7952 329.767C94.2874 330.334 94.0172 331.115 93.9846 332.111H99.6878C99.5055 329.976 98.5647 328.908 96.8655 328.908ZM114.884 337.287C115.054 337.287 115.246 337.264 115.46 337.218V338.312C115.018 338.416 114.565 338.468 114.103 338.468C113.452 338.468 112.977 338.299 112.677 337.961C112.384 337.616 112.218 337.078 112.179 336.349H112.121C111.697 337.137 111.196 337.703 110.617 338.048C110.044 338.394 109.334 338.566 108.488 338.566C107.459 338.566 106.684 338.286 106.164 337.726C105.643 337.166 105.382 336.398 105.382 335.422C105.382 333.149 106.86 331.997 109.816 331.964L112.121 331.925V331.349C112.121 330.496 111.948 329.884 111.603 329.513C111.258 329.136 110.708 328.947 109.953 328.947C109.184 328.947 108.631 329.084 108.292 329.357C107.954 329.63 107.752 330.054 107.687 330.627L105.851 330.461C106.151 328.56 107.527 327.609 109.982 327.609C111.284 327.609 112.261 327.915 112.912 328.527C113.569 329.132 113.898 330.011 113.898 331.164V335.714C113.898 336.235 113.966 336.629 114.103 336.896C114.24 337.157 114.5 337.287 114.884 337.287ZM108.937 337.228C109.562 337.228 110.115 337.078 110.597 336.779C111.079 336.479 111.453 336.079 111.72 335.578C111.987 335.076 112.121 334.559 112.121 334.025V333.156L110.265 333.195C109.497 333.208 108.911 333.293 108.507 333.449C108.104 333.605 107.788 333.846 107.56 334.172C107.339 334.491 107.228 334.917 107.228 335.451C107.228 335.985 107.371 336.414 107.658 336.74C107.951 337.065 108.377 337.228 108.937 337.228ZM127.796 335.353C127.796 336.356 127.415 337.144 126.653 337.716C125.898 338.283 124.85 338.566 123.508 338.566C122.167 338.566 121.145 338.358 120.442 337.941C119.745 337.518 119.29 336.854 119.075 335.949L120.628 335.646C120.751 336.206 121.015 336.616 121.419 336.877C121.829 337.13 122.525 337.257 123.508 337.257C125.266 337.257 126.145 336.701 126.145 335.588C126.145 335.171 125.986 334.836 125.667 334.582C125.348 334.321 124.859 334.11 124.202 333.947C122.483 333.524 121.393 333.192 120.93 332.951C120.468 332.71 120.113 332.41 119.866 332.052C119.618 331.688 119.495 331.235 119.495 330.695C119.495 329.738 119.84 328.989 120.53 328.449C121.22 327.908 122.219 327.638 123.528 327.638C124.674 327.638 125.589 327.856 126.272 328.293C126.956 328.722 127.382 329.351 127.551 330.177L125.969 330.373C125.898 329.904 125.667 329.549 125.276 329.308C124.885 329.067 124.303 328.947 123.528 328.947C121.933 328.947 121.135 329.438 121.135 330.422C121.135 330.812 121.269 331.125 121.536 331.359C121.809 331.593 122.245 331.782 122.844 331.925L124.007 332.228C125.068 332.489 125.829 332.746 126.292 333C126.76 333.254 127.128 333.573 127.395 333.957C127.662 334.334 127.796 334.8 127.796 335.353ZM151.343 336.984H155.054V338.371H145.464V336.984H149.585V329.191H146.47V327.804H151.343V336.984ZM149.39 325.754V323.879H151.343V325.754H149.39ZM165.856 338.371V331.584C165.856 330.698 165.683 330.041 165.338 329.611C165 329.181 164.456 328.966 163.707 328.966C162.9 328.966 162.236 329.263 161.715 329.855C161.201 330.441 160.944 331.239 160.944 332.248V338.371H159.186V330.06C159.186 328.83 159.166 328.078 159.127 327.804H160.787C160.794 327.837 160.8 327.925 160.807 328.068C160.813 328.211 160.82 328.377 160.826 328.566C160.839 328.748 160.852 329.097 160.866 329.611H160.895C161.578 328.276 162.705 327.609 164.274 327.609C165.4 327.609 166.24 327.915 166.793 328.527C167.347 329.132 167.623 330.067 167.623 331.33V338.371H165.856ZM172.546 329.191V327.804H174.207L174.773 325.05H175.945V327.804H180.164V329.191H175.945V335.558C175.945 336.073 176.082 336.453 176.355 336.701C176.635 336.948 177.091 337.072 177.722 337.072C178.595 337.072 179.561 336.961 180.623 336.74V338.078C179.522 338.377 178.432 338.527 177.351 338.527C176.296 338.527 175.505 338.306 174.978 337.863C174.451 337.414 174.187 336.707 174.187 335.744V329.191H172.546ZM194.715 333.078C194.715 334.855 194.305 336.216 193.485 337.16C192.671 338.097 191.493 338.566 189.95 338.566C188.439 338.566 187.281 338.091 186.473 337.14C185.673 336.19 185.272 334.836 185.272 333.078C185.272 331.261 185.682 329.897 186.503 328.986C187.329 328.068 188.498 327.609 190.008 327.609C191.597 327.609 192.779 328.061 193.553 328.966C194.328 329.871 194.715 331.242 194.715 333.078ZM192.87 333.078C192.87 331.678 192.645 330.633 192.196 329.943C191.753 329.253 191.034 328.908 190.038 328.908C189.029 328.908 188.29 329.259 187.821 329.963C187.352 330.666 187.118 331.704 187.118 333.078C187.118 334.445 187.352 335.487 187.821 336.203C188.29 336.912 188.993 337.267 189.93 337.267C190.965 337.267 191.714 336.919 192.176 336.222C192.639 335.526 192.87 334.477 192.87 333.078ZM217.901 336.984H221.612V338.371H212.023V336.984H216.144V329.191H213.028V327.804H217.901V336.984ZM215.948 325.754V323.879H217.901V325.754H215.948ZM232.414 338.371V331.584C232.414 330.698 232.242 330.041 231.897 329.611C231.558 329.181 231.015 328.966 230.266 328.966C229.459 328.966 228.795 329.263 228.274 329.855C227.759 330.441 227.502 331.239 227.502 332.248V338.371H225.744V330.06C225.744 328.83 225.725 328.078 225.686 327.804H227.346C227.352 327.837 227.359 327.925 227.366 328.068C227.372 328.211 227.379 328.377 227.385 328.566C227.398 328.748 227.411 329.097 227.424 329.611H227.453C228.137 328.276 229.263 327.609 230.832 327.609C231.959 327.609 232.798 327.915 233.352 328.527C233.905 329.132 234.182 330.067 234.182 331.33V338.371H232.414ZM239.105 329.191V327.804H240.765L241.332 325.05H242.503V327.804H246.722V329.191H242.503V335.558C242.503 336.073 242.64 336.453 242.914 336.701C243.193 336.948 243.649 337.072 244.281 337.072C245.153 337.072 246.12 336.961 247.181 336.74V338.078C246.081 338.377 244.99 338.527 243.91 338.527C242.855 338.527 242.064 338.306 241.537 337.863C241.009 337.414 240.746 336.707 240.746 335.744V329.191H239.105ZM253.706 333.459C253.706 334.644 253.966 335.571 254.487 336.242C255.014 336.912 255.734 337.248 256.645 337.248C257.316 337.248 257.902 337.104 258.403 336.818C258.911 336.525 259.249 336.128 259.419 335.627L260.962 336.066C260.675 336.873 260.148 337.492 259.38 337.922C258.618 338.351 257.706 338.566 256.645 338.566C255.109 338.566 253.927 338.088 253.1 337.13C252.273 336.173 251.86 334.803 251.86 333.019C251.86 331.281 252.264 329.946 253.071 329.015C253.885 328.078 255.057 327.609 256.587 327.609C258.117 327.609 259.275 328.075 260.063 329.005C260.851 329.936 261.245 331.343 261.245 333.224V333.459H253.706ZM256.606 328.908C255.734 328.908 255.044 329.194 254.536 329.767C254.028 330.334 253.758 331.115 253.725 332.111H259.428C259.246 329.976 258.305 328.908 256.606 328.908ZM274.078 329.406C273.349 329.282 272.659 329.22 272.008 329.22C270.96 329.22 270.113 329.614 269.469 330.402C268.824 331.19 268.502 332.192 268.502 333.41V338.371H266.744V331.525C266.744 331.03 266.698 330.448 266.607 329.777C266.523 329.106 266.399 328.449 266.236 327.804H267.906C268.167 328.703 268.323 329.517 268.375 330.246H268.424C268.749 329.517 269.068 328.983 269.381 328.644C269.693 328.299 270.064 328.042 270.494 327.873C270.924 327.697 271.448 327.609 272.066 327.609C272.743 327.609 273.414 327.664 274.078 327.775V329.406ZM287.937 337.287C288.106 337.287 288.298 337.264 288.513 337.218V338.312C288.07 338.416 287.618 338.468 287.155 338.468C286.504 338.468 286.029 338.299 285.73 337.961C285.437 337.616 285.271 337.078 285.232 336.349H285.173C284.75 337.137 284.248 337.703 283.669 338.048C283.096 338.394 282.386 338.566 281.54 338.566C280.511 338.566 279.737 338.286 279.216 337.726C278.695 337.166 278.435 336.398 278.435 335.422C278.435 333.149 279.913 331.997 282.868 331.964L285.173 331.925V331.349C285.173 330.496 285 329.884 284.655 329.513C284.31 329.136 283.76 328.947 283.005 328.947C282.237 328.947 281.683 329.084 281.345 329.357C281.006 329.63 280.804 330.054 280.739 330.627L278.903 330.461C279.203 328.56 280.58 327.609 283.034 327.609C284.336 327.609 285.313 327.915 285.964 328.527C286.621 329.132 286.95 330.011 286.95 331.164V335.714C286.95 336.235 287.019 336.629 287.155 336.896C287.292 337.157 287.552 337.287 287.937 337.287ZM281.989 337.228C282.614 337.228 283.168 337.078 283.649 336.779C284.131 336.479 284.506 336.079 284.773 335.578C285.039 335.076 285.173 334.559 285.173 334.025V333.156L283.317 333.195C282.549 333.208 281.963 333.293 281.56 333.449C281.156 333.605 280.84 333.846 280.612 334.172C280.391 334.491 280.28 334.917 280.28 335.451C280.28 335.985 280.424 336.414 280.71 336.74C281.003 337.065 281.429 337.228 281.989 337.228ZM291.766 333.078C291.766 331.32 292.186 329.969 293.026 329.025C293.866 328.081 295.08 327.609 296.668 327.609C297.853 327.609 298.83 327.895 299.598 328.468C300.366 329.035 300.841 329.8 301.024 330.763L299.149 330.9C299.045 330.308 298.784 329.842 298.367 329.504C297.951 329.158 297.358 328.986 296.59 328.986C295.561 328.986 294.806 329.305 294.324 329.943C293.849 330.581 293.612 331.613 293.612 333.039C293.612 334.484 293.849 335.542 294.324 336.213C294.806 336.877 295.558 337.209 296.58 337.209C297.283 337.209 297.866 337.036 298.328 336.691C298.791 336.346 299.077 335.819 299.188 335.109L301.043 335.226C300.959 335.851 300.721 336.421 300.33 336.935C299.946 337.443 299.435 337.843 298.797 338.136C298.159 338.423 297.446 338.566 296.658 338.566C295.063 338.566 293.849 338.097 293.016 337.16C292.183 336.222 291.766 334.862 291.766 333.078ZM305.664 329.191V327.804H307.324L307.89 325.05H309.062V327.804H313.281V329.191H309.062V335.558C309.062 336.073 309.199 336.453 309.472 336.701C309.752 336.948 310.208 337.072 310.839 337.072C311.712 337.072 312.679 336.961 313.74 336.74V338.078C312.639 338.377 311.549 338.527 310.468 338.527C309.414 338.527 308.623 338.306 308.095 337.863C307.568 337.414 307.304 336.707 307.304 335.744V329.191H305.664ZM324.395 336.984H328.106V338.371H318.516V336.984H322.637V329.191H319.522V327.804H324.395V336.984ZM322.442 325.754V323.879H324.395V325.754H322.442ZM337.414 338.371H335.334L331.105 327.804H333.078L335.695 334.679L335.861 335.197L336.369 336.994L336.711 335.851L337.092 334.699L339.787 327.804H341.75L337.414 338.371ZM346.888 333.459C346.888 334.644 347.148 335.571 347.669 336.242C348.196 336.912 348.916 337.248 349.827 337.248C350.498 337.248 351.084 337.104 351.585 336.818C352.093 336.525 352.431 336.128 352.601 335.627L354.144 336.066C353.857 336.873 353.33 337.492 352.562 337.922C351.8 338.351 350.888 338.566 349.827 338.566C348.291 338.566 347.109 338.088 346.282 337.13C345.455 336.173 345.042 334.803 345.042 333.019C345.042 331.281 345.446 329.946 346.253 329.015C347.067 328.078 348.239 327.609 349.769 327.609C351.299 327.609 352.457 328.075 353.245 329.005C354.033 329.936 354.427 331.343 354.427 333.224V333.459H346.888ZM349.788 328.908C348.916 328.908 348.226 329.194 347.718 329.767C347.21 330.334 346.94 331.115 346.907 332.111H352.61C352.428 329.976 351.487 328.908 349.788 328.908ZM378.785 336.672C378.466 337.355 378.042 337.853 377.515 338.166C376.988 338.472 376.33 338.625 375.542 338.625C374.227 338.625 373.261 338.172 372.642 337.267C372.024 336.362 371.714 334.998 371.714 333.175C371.714 329.491 372.99 327.648 375.542 327.648C376.33 327.648 376.988 327.788 377.515 328.068C378.049 328.348 378.475 328.807 378.794 329.445H378.814L378.794 327.97V323.879H380.552V336.193C380.552 337.293 380.572 338.019 380.611 338.371H378.931C378.905 338.273 378.882 338.035 378.863 337.658C378.843 337.28 378.833 336.951 378.833 336.672H378.785ZM373.531 333.117C373.531 334.562 373.723 335.617 374.107 336.281C374.498 336.938 375.129 337.267 376.001 337.267C376.952 337.267 377.655 336.925 378.111 336.242C378.567 335.552 378.794 334.458 378.794 332.961C378.794 331.561 378.573 330.542 378.13 329.904C377.694 329.266 376.991 328.947 376.021 328.947C375.142 328.947 374.507 329.282 374.117 329.953C373.726 330.623 373.531 331.678 373.531 333.117ZM390.954 336.984H394.665V338.371H385.075V336.984H389.196V329.191H386.081V327.804H390.954V336.984ZM389.001 325.754V323.879H390.954V325.754H389.001ZM402.996 342.511C401.902 342.511 401.023 342.287 400.359 341.838C399.695 341.388 399.272 340.744 399.09 339.904L400.887 339.66C400.997 340.148 401.235 340.522 401.599 340.783C401.971 341.05 402.456 341.183 403.055 341.183C404.669 341.183 405.476 340.158 405.476 338.107V336.213H405.457C405.138 336.883 404.695 337.391 404.129 337.736C403.562 338.081 402.889 338.254 402.107 338.254C400.818 338.254 399.874 337.834 399.275 336.994C398.683 336.147 398.387 334.819 398.387 333.009C398.387 331.167 398.706 329.813 399.344 328.947C399.982 328.075 400.965 327.638 402.293 327.638C403.029 327.638 403.667 327.811 404.207 328.156C404.754 328.494 405.174 328.979 405.467 329.611H405.496C405.496 329.416 405.509 329.087 405.535 328.625C405.561 328.156 405.587 327.882 405.613 327.804H407.283C407.244 328.156 407.224 328.885 407.224 329.992V338.058C407.224 339.536 406.879 340.646 406.189 341.388C405.499 342.137 404.435 342.511 402.996 342.511ZM405.476 332.99C405.476 331.733 405.232 330.747 404.744 330.031C404.256 329.308 403.585 328.947 402.732 328.947C401.84 328.947 401.196 329.259 400.799 329.884C400.402 330.503 400.203 331.538 400.203 332.99C400.203 333.973 400.284 334.751 400.447 335.324C400.616 335.89 400.877 336.304 401.228 336.564C401.58 336.825 402.071 336.955 402.703 336.955C403.256 336.955 403.741 336.802 404.158 336.496C404.581 336.183 404.907 335.731 405.135 335.138C405.363 334.539 405.476 333.823 405.476 332.99ZM417.577 336.984H421.288V338.371H411.698V336.984H415.819V329.191H412.704V327.804H417.577V336.984ZM415.624 325.754V323.879H417.577V325.754H415.624ZM425.469 329.191V327.804H427.129L427.696 325.05H428.867V327.804H433.086V329.191H428.867V335.558C428.867 336.073 429.004 336.453 429.278 336.701C429.558 336.948 430.013 337.072 430.645 337.072C431.517 337.072 432.484 336.961 433.545 336.74V338.078C432.445 338.377 431.354 338.527 430.274 338.527C429.219 338.527 428.428 338.306 427.901 337.863C427.373 337.414 427.11 336.707 427.11 335.744V329.191H425.469ZM447.677 337.287C447.846 337.287 448.039 337.264 448.253 337.218V338.312C447.811 338.416 447.358 338.468 446.896 338.468C446.245 338.468 445.77 338.299 445.47 337.961C445.177 337.616 445.011 337.078 444.972 336.349H444.914C444.49 337.137 443.989 337.703 443.41 338.048C442.837 338.394 442.127 338.566 441.281 338.566C440.252 338.566 439.477 338.286 438.957 337.726C438.436 337.166 438.175 336.398 438.175 335.422C438.175 333.149 439.653 331.997 442.609 331.964L444.914 331.925V331.349C444.914 330.496 444.741 329.884 444.396 329.513C444.051 329.136 443.501 328.947 442.746 328.947C441.977 328.947 441.424 329.084 441.085 329.357C440.747 329.63 440.545 330.054 440.48 330.627L438.644 330.461C438.943 328.56 440.32 327.609 442.775 327.609C444.077 327.609 445.054 327.915 445.705 328.527C446.362 329.132 446.691 330.011 446.691 331.164V335.714C446.691 336.235 446.759 336.629 446.896 336.896C447.033 337.157 447.293 337.287 447.677 337.287ZM441.73 337.228C442.355 337.228 442.908 337.078 443.39 336.779C443.872 336.479 444.246 336.079 444.513 335.578C444.78 335.076 444.914 334.559 444.914 334.025V333.156L443.058 333.195C442.29 333.208 441.704 333.293 441.3 333.449C440.897 333.605 440.581 333.846 440.353 334.172C440.132 334.491 440.021 334.917 440.021 335.451C440.021 335.985 440.164 336.414 440.451 336.74C440.744 337.065 441.17 337.228 441.73 337.228ZM457.424 336.984H461.135V338.371H451.546V336.984H455.667V325.265H452.844V323.879H457.424V336.984ZM67.3417 356.459C67.3417 357.644 67.6021 358.571 68.1229 359.242C68.6503 359.912 69.3697 360.248 70.2811 360.248C70.9517 360.248 71.5376 360.104 72.0389 359.818C72.5468 359.525 72.8853 359.128 73.0546 358.627L74.5975 359.066C74.3111 359.873 73.7837 360.492 73.0155 360.922C72.2538 361.351 71.3423 361.566 70.2811 361.566C68.7447 361.566 67.563 361.088 66.7362 360.13C65.9094 359.173 65.496 357.803 65.496 356.019C65.496 354.281 65.8996 352.946 66.7069 352.015C67.5207 351.078 68.6926 350.609 70.2225 350.609C71.7525 350.609 72.9113 351.075 73.6991 352.005C74.4869 352.936 74.8807 354.343 74.8807 356.224V356.459H67.3417ZM70.2421 351.908C69.3697 351.908 68.6796 352.194 68.1718 352.767C67.6639 353.334 67.3938 354.115 67.3612 355.111H73.0643C72.882 352.976 71.9413 351.908 70.2421 351.908ZM86.6104 361.371L83.4757 357.035L80.3214 361.371H78.4268L82.4796 355.941L78.6026 350.804H80.546L83.4757 354.916L86.3858 350.804H88.3487L84.4718 355.922L88.5733 361.371H86.6104ZM101.465 356.039C101.465 359.724 100.189 361.566 97.637 361.566C96.0354 361.566 94.958 360.967 94.4046 359.769H94.3557C94.3818 359.821 94.3948 360.362 94.3948 361.39V365.521H92.6272V352.992C92.6272 351.885 92.6077 351.156 92.5686 350.804H94.2776C94.2841 350.83 94.2939 350.928 94.3069 351.097C94.3199 351.26 94.333 351.504 94.346 351.83C94.3655 352.149 94.3753 352.386 94.3753 352.543H94.4143C94.7399 351.859 95.1533 351.364 95.6546 351.058C96.1624 350.746 96.8232 350.589 97.637 350.589C98.9261 350.589 99.8863 351.035 100.518 351.927C101.149 352.813 101.465 354.183 101.465 356.039ZM99.6487 356.039C99.6487 354.567 99.4501 353.519 99.053 352.894C98.6559 352.263 98.0309 351.947 97.178 351.947C96.1949 351.947 95.4853 352.305 95.0491 353.021C94.6129 353.731 94.3948 354.808 94.3948 356.254C94.3948 357.64 94.6129 358.656 95.0491 359.3C95.4853 359.945 96.1884 360.267 97.1585 360.267C98.0244 360.267 98.6559 359.938 99.053 359.281C99.4501 358.623 99.6487 357.543 99.6487 356.039ZM107.277 356.459C107.277 357.644 107.537 358.571 108.058 359.242C108.585 359.912 109.305 360.248 110.216 360.248C110.887 360.248 111.473 360.104 111.974 359.818C112.482 359.525 112.82 359.128 112.99 358.627L114.533 359.066C114.246 359.873 113.719 360.492 112.951 360.922C112.189 361.351 111.277 361.566 110.216 361.566C108.68 361.566 107.498 361.088 106.671 360.13C105.845 359.173 105.431 357.803 105.431 356.019C105.431 354.281 105.835 352.946 106.642 352.015C107.456 351.078 108.628 350.609 110.158 350.609C111.688 350.609 112.846 351.075 113.634 352.005C114.422 352.936 114.816 354.343 114.816 356.224V356.459H107.277ZM110.177 351.908C109.305 351.908 108.615 352.194 108.107 352.767C107.599 353.334 107.329 354.115 107.296 355.111H112.999C112.817 352.976 111.876 351.908 110.177 351.908ZM127.649 352.406C126.92 352.282 126.23 352.22 125.579 352.22C124.531 352.22 123.684 352.614 123.04 353.402C122.395 354.19 122.073 355.192 122.073 356.41V361.371H120.315V354.525C120.315 354.03 120.27 353.448 120.178 352.777C120.094 352.106 119.97 351.449 119.807 350.804H121.477C121.738 351.703 121.894 352.517 121.946 353.246H121.995C122.32 352.517 122.639 351.983 122.952 351.644C123.264 351.299 123.635 351.042 124.065 350.873C124.495 350.697 125.019 350.609 125.637 350.609C126.314 350.609 126.985 350.664 127.649 350.775V352.406ZM138.031 359.984H141.742V361.371H132.152V359.984H136.273V352.191H133.158V350.804H138.031V359.984ZM136.078 348.754V346.879H138.031V348.754H136.078ZM147.212 356.459C147.212 357.644 147.472 358.571 147.993 359.242C148.521 359.912 149.24 360.248 150.151 360.248C150.822 360.248 151.408 360.104 151.909 359.818C152.417 359.525 152.756 359.128 152.925 358.627L154.468 359.066C154.181 359.873 153.654 360.492 152.886 360.922C152.124 361.351 151.213 361.566 150.151 361.566C148.615 361.566 147.433 361.088 146.607 360.13C145.78 359.173 145.366 357.803 145.366 356.019C145.366 354.281 145.77 352.946 146.577 352.015C147.391 351.078 148.563 350.609 150.093 350.609C151.623 350.609 152.782 351.075 153.569 352.005C154.357 352.936 154.751 354.343 154.751 356.224V356.459H147.212ZM150.112 351.908C149.24 351.908 148.55 352.194 148.042 352.767C147.534 353.334 147.264 354.115 147.232 355.111H152.935C152.752 352.976 151.812 351.908 150.112 351.908ZM165.856 361.371V354.584C165.856 353.698 165.683 353.041 165.338 352.611C165 352.181 164.456 351.966 163.707 351.966C162.9 351.966 162.236 352.263 161.715 352.855C161.201 353.441 160.944 354.239 160.944 355.248V361.371H159.186V353.06C159.186 351.83 159.166 351.078 159.127 350.804H160.787C160.794 350.837 160.8 350.925 160.807 351.068C160.813 351.211 160.82 351.377 160.826 351.566C160.839 351.748 160.852 352.097 160.866 352.611H160.895C161.578 351.276 162.705 350.609 164.274 350.609C165.4 350.609 166.24 350.915 166.793 351.527C167.347 352.132 167.623 353.067 167.623 354.33V361.371H165.856ZM171.96 356.078C171.96 354.32 172.38 352.969 173.22 352.025C174.06 351.081 175.274 350.609 176.863 350.609C178.048 350.609 179.024 350.895 179.792 351.468C180.561 352.035 181.036 352.8 181.218 353.763L179.343 353.9C179.239 353.308 178.979 352.842 178.562 352.504C178.145 352.158 177.553 351.986 176.785 351.986C175.756 351.986 175.001 352.305 174.519 352.943C174.044 353.581 173.806 354.613 173.806 356.039C173.806 357.484 174.044 358.542 174.519 359.213C175.001 359.877 175.753 360.209 176.775 360.209C177.478 360.209 178.061 360.036 178.523 359.691C178.985 359.346 179.272 358.819 179.382 358.109L181.238 358.226C181.153 358.851 180.916 359.421 180.525 359.935C180.141 360.443 179.63 360.843 178.992 361.136C178.354 361.423 177.641 361.566 176.853 361.566C175.258 361.566 174.044 361.097 173.21 360.16C172.377 359.222 171.96 357.862 171.96 356.078ZM187.147 356.459C187.147 357.644 187.408 358.571 187.928 359.242C188.456 359.912 189.175 360.248 190.087 360.248C190.757 360.248 191.343 360.104 191.844 359.818C192.352 359.525 192.691 359.128 192.86 358.627L194.403 359.066C194.117 359.873 193.589 360.492 192.821 360.922C192.059 361.351 191.148 361.566 190.087 361.566C188.55 361.566 187.368 361.088 186.542 360.13C185.715 359.173 185.301 357.803 185.301 356.019C185.301 354.281 185.705 352.946 186.512 352.015C187.326 351.078 188.498 350.609 190.028 350.609C191.558 350.609 192.717 351.075 193.505 352.005C194.292 352.936 194.686 354.343 194.686 356.224V356.459H187.147ZM190.048 351.908C189.175 351.908 188.485 352.194 187.977 352.767C187.469 353.334 187.199 354.115 187.167 355.111H192.87C192.688 352.976 191.747 351.908 190.048 351.908ZM207.666 358.353C207.666 359.356 207.285 360.144 206.523 360.716C205.768 361.283 204.72 361.566 203.379 361.566C202.038 361.566 201.016 361.358 200.312 360.941C199.616 360.518 199.16 359.854 198.945 358.949L200.498 358.646C200.622 359.206 200.885 359.616 201.289 359.877C201.699 360.13 202.396 360.257 203.379 360.257C205.137 360.257 206.016 359.701 206.016 358.588C206.016 358.171 205.856 357.836 205.537 357.582C205.218 357.321 204.73 357.11 204.072 356.947C202.353 356.524 201.263 356.192 200.801 355.951C200.338 355.71 199.984 355.41 199.736 355.052C199.489 354.688 199.365 354.235 199.365 353.695C199.365 352.738 199.71 351.989 200.4 351.449C201.09 350.908 202.09 350.638 203.398 350.638C204.544 350.638 205.459 350.856 206.142 351.293C206.826 351.722 207.252 352.351 207.422 353.177L205.84 353.373C205.768 352.904 205.537 352.549 205.146 352.308C204.756 352.067 204.173 351.947 203.398 351.947C201.803 351.947 201.006 352.438 201.006 353.422C201.006 353.812 201.139 354.125 201.406 354.359C201.68 354.593 202.116 354.782 202.715 354.925L203.877 355.228C204.938 355.489 205.7 355.746 206.162 356C206.631 356.254 206.999 356.573 207.266 356.957C207.532 357.334 207.666 357.8 207.666 358.353ZM225.793 352.191V350.804H227.453L228.02 348.05H229.192V350.804H233.41V352.191H229.192V358.558C229.192 359.073 229.328 359.453 229.602 359.701C229.882 359.948 230.338 360.072 230.969 360.072C231.841 360.072 232.808 359.961 233.869 359.74V361.078C232.769 361.377 231.679 361.527 230.598 361.527C229.543 361.527 228.752 361.306 228.225 360.863C227.698 360.414 227.434 359.707 227.434 358.744V352.191H225.793ZM239.056 346.879H240.824V350.687C240.824 351.071 240.794 351.713 240.736 352.611H240.765C241.449 351.276 242.552 350.609 244.076 350.609C246.354 350.609 247.494 351.849 247.494 354.33V361.371H245.726V354.584C245.726 353.698 245.554 353.041 245.208 352.611C244.87 352.181 244.326 351.966 243.578 351.966C242.77 351.966 242.106 352.263 241.585 352.855C241.071 353.441 240.814 354.239 240.814 355.248V361.371H239.056V346.879ZM261.313 360.287C261.482 360.287 261.674 360.264 261.889 360.218V361.312C261.447 361.416 260.994 361.468 260.532 361.468C259.881 361.468 259.406 361.299 259.106 360.961C258.813 360.616 258.647 360.078 258.608 359.349H258.549C258.126 360.137 257.625 360.703 257.046 361.048C256.473 361.394 255.763 361.566 254.917 361.566C253.888 361.566 253.113 361.286 252.592 360.726C252.072 360.166 251.811 359.398 251.811 358.422C251.811 356.149 253.289 354.997 256.245 354.964L258.549 354.925V354.349C258.549 353.496 258.377 352.884 258.032 352.513C257.687 352.136 257.137 351.947 256.382 351.947C255.613 351.947 255.06 352.084 254.721 352.357C254.383 352.63 254.181 353.054 254.116 353.627L252.28 353.461C252.579 351.56 253.956 350.609 256.411 350.609C257.713 350.609 258.689 350.915 259.34 351.527C259.998 352.132 260.327 353.011 260.327 354.164V358.714C260.327 359.235 260.395 359.629 260.532 359.896C260.669 360.157 260.929 360.287 261.313 360.287ZM255.366 360.228C255.991 360.228 256.544 360.078 257.026 359.779C257.508 359.479 257.882 359.079 258.149 358.578C258.416 358.076 258.549 357.559 258.549 357.025V356.156L256.694 356.195C255.926 356.208 255.34 356.293 254.936 356.449C254.533 356.605 254.217 356.846 253.989 357.172C253.768 357.491 253.657 357.917 253.657 358.451C253.657 358.985 253.8 359.414 254.087 359.74C254.38 360.065 254.806 360.228 255.366 360.228ZM265.728 352.191V350.804H267.389L267.955 348.05H269.127V350.804H273.346V352.191H269.127V358.558C269.127 359.073 269.264 359.453 269.537 359.701C269.817 359.948 270.273 360.072 270.904 360.072C271.777 360.072 272.743 359.961 273.805 359.74V361.078C272.704 361.377 271.614 361.527 270.533 361.527C269.478 361.527 268.687 361.306 268.16 360.863C267.633 360.414 267.369 359.707 267.369 358.744V352.191H265.728ZM293.641 356.459C293.641 357.644 293.901 358.571 294.422 359.242C294.949 359.912 295.669 360.248 296.58 360.248C297.251 360.248 297.837 360.104 298.338 359.818C298.846 359.525 299.185 359.128 299.354 358.627L300.897 359.066C300.61 359.873 300.083 360.492 299.315 360.922C298.553 361.351 297.642 361.566 296.58 361.566C295.044 361.566 293.862 361.088 293.035 360.13C292.209 359.173 291.795 357.803 291.795 356.019C291.795 354.281 292.199 352.946 293.006 352.015C293.82 351.078 294.992 350.609 296.522 350.609C298.052 350.609 299.211 351.075 299.998 352.005C300.786 352.936 301.18 354.343 301.18 356.224V356.459H293.641ZM296.541 351.908C295.669 351.908 294.979 352.194 294.471 352.767C293.963 353.334 293.693 354.115 293.66 355.111H299.364C299.181 352.976 298.241 351.908 296.541 351.908ZM312.285 361.371V354.584C312.285 353.698 312.112 353.041 311.767 352.611C311.429 352.181 310.885 351.966 310.136 351.966C309.329 351.966 308.665 352.263 308.144 352.855C307.63 353.441 307.373 354.239 307.373 355.248V361.371H305.615V353.06C305.615 351.83 305.595 351.078 305.556 350.804H307.216C307.223 350.837 307.229 350.925 307.236 351.068C307.242 351.211 307.249 351.377 307.255 351.566C307.268 351.748 307.281 352.097 307.294 352.611H307.324C308.007 351.276 309.134 350.609 310.703 350.609C311.829 350.609 312.669 350.915 313.222 351.527C313.776 352.132 314.052 353.067 314.052 354.33V361.371H312.285ZM323.126 365.511C322.032 365.511 321.153 365.287 320.489 364.838C319.825 364.388 319.402 363.744 319.219 362.904L321.016 362.66C321.127 363.148 321.365 363.522 321.729 363.783C322.1 364.05 322.585 364.183 323.184 364.183C324.799 364.183 325.606 363.158 325.606 361.107V359.213H325.587C325.268 359.883 324.825 360.391 324.258 360.736C323.692 361.081 323.018 361.254 322.237 361.254C320.948 361.254 320.004 360.834 319.405 359.994C318.813 359.147 318.516 357.819 318.516 356.009C318.516 354.167 318.835 352.813 319.473 351.947C320.111 351.075 321.094 350.638 322.423 350.638C323.158 350.638 323.796 350.811 324.337 351.156C324.883 351.494 325.303 351.979 325.596 352.611H325.626C325.626 352.416 325.639 352.087 325.665 351.625C325.691 351.156 325.717 350.882 325.743 350.804H327.413C327.374 351.156 327.354 351.885 327.354 352.992V361.058C327.354 362.536 327.009 363.646 326.319 364.388C325.629 365.137 324.564 365.511 323.126 365.511ZM325.606 355.99C325.606 354.733 325.362 353.747 324.874 353.031C324.385 352.308 323.715 351.947 322.862 351.947C321.97 351.947 321.326 352.259 320.928 352.884C320.531 353.503 320.333 354.538 320.333 355.99C320.333 356.973 320.414 357.751 320.577 358.324C320.746 358.89 321.007 359.304 321.358 359.564C321.71 359.825 322.201 359.955 322.833 359.955C323.386 359.955 323.871 359.802 324.288 359.496C324.711 359.183 325.036 358.731 325.264 358.138C325.492 357.539 325.606 356.823 325.606 355.99ZM341.183 360.287C341.353 360.287 341.545 360.264 341.76 360.218V361.312C341.317 361.416 340.864 361.468 340.402 361.468C339.751 361.468 339.276 361.299 338.976 360.961C338.683 360.616 338.517 360.078 338.478 359.349H338.42C337.997 360.137 337.495 360.703 336.916 361.048C336.343 361.394 335.633 361.566 334.787 361.566C333.758 361.566 332.984 361.286 332.463 360.726C331.942 360.166 331.682 359.398 331.682 358.422C331.682 356.149 333.159 354.997 336.115 354.964L338.42 354.925V354.349C338.42 353.496 338.247 352.884 337.902 352.513C337.557 352.136 337.007 351.947 336.252 351.947C335.484 351.947 334.93 352.084 334.592 352.357C334.253 352.63 334.051 353.054 333.986 353.627L332.15 353.461C332.45 351.56 333.827 350.609 336.281 350.609C337.583 350.609 338.56 350.915 339.211 351.527C339.868 352.132 340.197 353.011 340.197 354.164V358.714C340.197 359.235 340.266 359.629 340.402 359.896C340.539 360.157 340.799 360.287 341.183 360.287ZM335.236 360.228C335.861 360.228 336.415 360.078 336.896 359.779C337.378 359.479 337.752 359.079 338.019 358.578C338.286 358.076 338.42 357.559 338.42 357.025V356.156L336.564 356.195C335.796 356.208 335.21 356.293 334.807 356.449C334.403 356.605 334.087 356.846 333.859 357.172C333.638 357.491 333.527 357.917 333.527 358.451C333.527 358.985 333.67 359.414 333.957 359.74C334.25 360.065 334.676 360.228 335.236 360.228ZM349.749 365.511C348.655 365.511 347.776 365.287 347.112 364.838C346.448 364.388 346.025 363.744 345.843 362.904L347.64 362.66C347.75 363.148 347.988 363.522 348.353 363.783C348.724 364.05 349.209 364.183 349.808 364.183C351.422 364.183 352.23 363.158 352.23 361.107V359.213H352.21C351.891 359.883 351.448 360.391 350.882 360.736C350.315 361.081 349.642 361.254 348.86 361.254C347.571 361.254 346.627 360.834 346.028 359.994C345.436 359.147 345.14 357.819 345.14 356.009C345.14 354.167 345.459 352.813 346.097 351.947C346.735 351.075 347.718 350.638 349.046 350.638C349.782 350.638 350.42 350.811 350.96 351.156C351.507 351.494 351.927 351.979 352.22 352.611H352.249C352.249 352.416 352.262 352.087 352.288 351.625C352.314 351.156 352.34 350.882 352.366 350.804H354.036C353.997 351.156 353.978 351.885 353.978 352.992V361.058C353.978 362.536 353.633 363.646 352.942 364.388C352.252 365.137 351.188 365.511 349.749 365.511ZM352.23 355.99C352.23 354.733 351.985 353.747 351.497 353.031C351.009 352.308 350.338 351.947 349.485 351.947C348.593 351.947 347.949 352.259 347.552 352.884C347.155 353.503 346.956 354.538 346.956 355.99C346.956 356.973 347.037 357.751 347.2 358.324C347.37 358.89 347.63 359.304 347.982 359.564C348.333 359.825 348.825 359.955 349.456 359.955C350.01 359.955 350.495 359.802 350.911 359.496C351.334 359.183 351.66 358.731 351.888 358.138C352.116 357.539 352.23 356.823 352.23 355.99ZM360.199 356.459C360.199 357.644 360.46 358.571 360.981 359.242C361.508 359.912 362.227 360.248 363.139 360.248C363.81 360.248 364.395 360.104 364.897 359.818C365.405 359.525 365.743 359.128 365.912 358.627L367.455 359.066C367.169 359.873 366.642 360.492 365.873 360.922C365.112 361.351 364.2 361.566 363.139 361.566C361.602 361.566 360.421 361.088 359.594 360.13C358.767 359.173 358.354 357.803 358.354 356.019C358.354 354.281 358.757 352.946 359.565 352.015C360.379 351.078 361.55 350.609 363.08 350.609C364.61 350.609 365.769 351.075 366.557 352.005C367.345 352.936 367.739 354.343 367.739 356.224V356.459H360.199ZM363.1 351.908C362.227 351.908 361.537 352.194 361.03 352.767C360.522 353.334 360.252 354.115 360.219 355.111H365.922C365.74 352.976 364.799 351.908 363.1 351.908ZM394.43 360.287C394.6 360.287 394.792 360.264 395.007 360.218V361.312C394.564 361.416 394.111 361.468 393.649 361.468C392.998 361.468 392.523 361.299 392.223 360.961C391.93 360.616 391.764 360.078 391.725 359.349H391.667C391.244 360.137 390.742 360.703 390.163 361.048C389.59 361.394 388.88 361.566 388.034 361.566C387.005 361.566 386.23 361.286 385.71 360.726C385.189 360.166 384.928 359.398 384.928 358.422C384.928 356.149 386.406 354.997 389.362 354.964L391.667 354.925V354.349C391.667 353.496 391.494 352.884 391.149 352.513C390.804 352.136 390.254 351.947 389.499 351.947C388.73 351.947 388.177 352.084 387.839 352.357C387.5 352.63 387.298 353.054 387.233 353.627L385.397 353.461C385.697 351.56 387.074 350.609 389.528 350.609C390.83 350.609 391.807 350.915 392.458 351.527C393.115 352.132 393.444 353.011 393.444 354.164V358.714C393.444 359.235 393.512 359.629 393.649 359.896C393.786 360.157 394.046 360.287 394.43 360.287ZM388.483 360.228C389.108 360.228 389.661 360.078 390.143 359.779C390.625 359.479 390.999 359.079 391.266 358.578C391.533 358.076 391.667 357.559 391.667 357.025V356.156L389.811 356.195C389.043 356.208 388.457 356.293 388.053 356.449C387.65 356.605 387.334 356.846 387.106 357.172C386.885 357.491 386.774 357.917 386.774 358.451C386.774 358.985 386.917 359.414 387.204 359.74C387.497 360.065 387.923 360.228 388.483 360.228ZM405.467 361.371V354.584C405.467 353.698 405.294 353.041 404.949 352.611C404.611 352.181 404.067 351.966 403.318 351.966C402.511 351.966 401.847 352.263 401.326 352.855C400.812 353.441 400.555 354.239 400.555 355.248V361.371H398.797V353.06C398.797 351.83 398.777 351.078 398.738 350.804H400.398C400.405 350.837 400.411 350.925 400.418 351.068C400.424 351.211 400.431 351.377 400.437 351.566C400.45 351.748 400.463 352.097 400.476 352.611H400.506C401.189 351.276 402.316 350.609 403.885 350.609C405.011 350.609 405.851 350.915 406.404 351.527C406.958 352.132 407.234 353.067 407.234 354.33V361.371H405.467ZM418.72 359.672C418.401 360.355 417.978 360.853 417.45 361.166C416.923 361.472 416.265 361.625 415.478 361.625C414.162 361.625 413.196 361.172 412.577 360.267C411.959 359.362 411.649 357.998 411.649 356.175C411.649 352.491 412.926 350.648 415.478 350.648C416.265 350.648 416.923 350.788 417.45 351.068C417.984 351.348 418.411 351.807 418.73 352.445H418.749L418.73 350.97V346.879H420.487V359.193C420.487 360.293 420.507 361.019 420.546 361.371H418.866C418.84 361.273 418.817 361.035 418.798 360.658C418.778 360.28 418.769 359.951 418.769 359.672H418.72ZM413.466 356.117C413.466 357.562 413.658 358.617 414.042 359.281C414.433 359.938 415.064 360.267 415.937 360.267C416.887 360.267 417.59 359.925 418.046 359.242C418.502 358.552 418.73 357.458 418.73 355.961C418.73 354.561 418.508 353.542 418.065 352.904C417.629 352.266 416.926 351.947 415.956 351.947C415.077 351.947 414.442 352.282 414.052 352.953C413.661 353.623 413.466 354.678 413.466 356.117ZM71.4725 382.984H75.1835V384.371H65.5936V382.984H69.7147V375.191H66.5995V373.804H71.4725V382.984ZM69.5194 371.754V369.879H71.4725V371.754H69.5194ZM85.9854 384.371V377.584C85.9854 376.698 85.8129 376.041 85.4678 375.611C85.1293 375.181 84.5857 374.966 83.837 374.966C83.0297 374.966 82.3656 375.263 81.8448 375.855C81.3305 376.441 81.0733 377.239 81.0733 378.248V384.371H79.3155V376.06C79.3155 374.83 79.296 374.078 79.2569 373.804H80.9171C80.9236 373.837 80.9301 373.925 80.9366 374.068C80.9431 374.211 80.9496 374.377 80.9561 374.566C80.9691 374.748 80.9822 375.097 80.9952 375.611H81.0245C81.7081 374.276 82.8344 373.609 84.4034 373.609C85.5297 373.609 86.3695 373.915 86.9229 374.527C87.4763 375.132 87.753 376.067 87.753 377.33V384.371H85.9854ZM101.172 381.353C101.172 382.356 100.791 383.144 100.03 383.716C99.2744 384.283 98.2262 384.566 96.885 384.566C95.5439 384.566 94.5218 384.358 93.8186 383.941C93.122 383.518 92.6663 382.854 92.4514 381.949L94.0042 381.646C94.1279 382.206 94.3915 382.616 94.7952 382.877C95.2053 383.13 95.902 383.257 96.885 383.257C98.6428 383.257 99.5218 382.701 99.5218 381.588C99.5218 381.171 99.3622 380.836 99.0432 380.582C98.7242 380.321 98.2359 380.11 97.5784 379.947C95.8596 379.524 94.7691 379.192 94.3069 378.951C93.8447 378.71 93.4899 378.41 93.2425 378.052C92.9951 377.688 92.8714 377.235 92.8714 376.695C92.8714 375.738 93.2164 374.989 93.9065 374.449C94.5966 373.908 95.596 373.638 96.9046 373.638C98.0504 373.638 98.9651 373.856 99.6487 374.293C100.332 374.722 100.759 375.351 100.928 376.177L99.346 376.373C99.2744 375.904 99.0432 375.549 98.6526 375.308C98.262 375.067 97.6793 374.947 96.9046 374.947C95.3095 374.947 94.512 375.438 94.512 376.422C94.512 376.812 94.6455 377.125 94.9124 377.359C95.1858 377.593 95.622 377.782 96.221 377.925L97.3831 378.228C98.4443 378.489 99.206 378.746 99.6682 379C100.137 379.254 100.505 379.573 100.772 379.957C101.039 380.334 101.172 380.8 101.172 381.353ZM114.777 379.039C114.777 382.724 113.501 384.566 110.949 384.566C109.347 384.566 108.27 383.967 107.716 382.769H107.667C107.693 382.821 107.707 383.362 107.707 384.39V388.521H105.939V375.992C105.939 374.885 105.919 374.156 105.88 373.804H107.589C107.596 373.83 107.606 373.928 107.619 374.097C107.632 374.26 107.645 374.504 107.658 374.83C107.677 375.149 107.687 375.386 107.687 375.543H107.726C108.052 374.859 108.465 374.364 108.966 374.058C109.474 373.746 110.135 373.589 110.949 373.589C112.238 373.589 113.198 374.035 113.83 374.927C114.461 375.813 114.777 377.183 114.777 379.039ZM112.96 379.039C112.96 377.567 112.762 376.519 112.365 375.894C111.968 375.263 111.343 374.947 110.49 374.947C109.507 374.947 108.797 375.305 108.361 376.021C107.925 376.731 107.707 377.808 107.707 379.254C107.707 380.64 107.925 381.656 108.361 382.3C108.797 382.945 109.5 383.267 110.47 383.267C111.336 383.267 111.968 382.938 112.365 382.281C112.762 381.623 112.96 380.543 112.96 379.039ZM124.719 382.984H128.43V384.371H118.841V382.984H122.962V375.191H119.846V373.804H124.719V382.984ZM122.766 371.754V369.879H124.719V371.754H122.766ZM140.961 375.406C140.232 375.282 139.542 375.22 138.891 375.22C137.842 375.22 136.996 375.614 136.351 376.402C135.707 377.19 135.385 378.192 135.385 379.41V384.371H133.627V377.525C133.627 377.03 133.581 376.448 133.49 375.777C133.405 375.106 133.282 374.449 133.119 373.804H134.789C135.049 374.703 135.206 375.517 135.258 376.246H135.307C135.632 375.517 135.951 374.983 136.264 374.644C136.576 374.299 136.947 374.042 137.377 373.873C137.807 373.697 138.331 373.609 138.949 373.609C139.626 373.609 140.297 373.664 140.961 373.775V375.406ZM147.212 379.459C147.212 380.644 147.472 381.571 147.993 382.242C148.521 382.912 149.24 383.248 150.151 383.248C150.822 383.248 151.408 383.104 151.909 382.818C152.417 382.525 152.756 382.128 152.925 381.627L154.468 382.066C154.181 382.873 153.654 383.492 152.886 383.922C152.124 384.351 151.213 384.566 150.151 384.566C148.615 384.566 147.433 384.088 146.607 383.13C145.78 382.173 145.366 380.803 145.366 379.019C145.366 377.281 145.77 375.946 146.577 375.015C147.391 374.078 148.563 373.609 150.093 373.609C151.623 373.609 152.782 374.075 153.569 375.005C154.357 375.936 154.751 377.343 154.751 379.224V379.459H147.212ZM150.112 374.908C149.24 374.908 148.55 375.194 148.042 375.767C147.534 376.334 147.264 377.115 147.232 378.111H152.935C152.752 375.976 151.812 374.908 150.112 374.908ZM162.223 384.371V381.451H164.518V384.371H162.223Z" fill="#795B96"/>
<path d="M65.9652 239.909C65.9652 238.123 66.7385 236.656 68.2852 235.509C69.8319 234.363 72.1519 233.789 75.2452 233.789C78.3385 233.789 80.7119 234.363 82.3652 235.509C84.0452 236.656 84.8852 238.376 84.8852 240.669C84.8852 241.416 84.8185 242.096 84.6852 242.709C84.5519 243.296 84.2452 243.923 83.7652 244.589C83.3119 245.229 82.8585 245.803 82.4052 246.309C81.9785 246.816 81.2319 247.483 80.1652 248.309C78.5652 249.589 76.8852 250.869 75.1252 252.149C73.3652 253.403 72.3385 254.136 72.0452 254.349L69.6052 256.109H79.2052C81.0452 256.109 82.3519 255.709 83.1252 254.909C83.8985 254.109 84.4452 252.856 84.7652 251.149H85.4452L85.0452 262.229H66.2452V257.589L70.2852 253.869C73.0319 251.363 74.9785 249.136 76.1252 247.189C77.2719 245.216 77.8452 243.056 77.8452 240.709C77.8452 238.336 77.5919 236.723 77.0852 235.869C76.5785 234.989 75.7252 234.549 74.5252 234.549C73.3252 234.549 72.4852 234.856 72.0052 235.469C71.5252 236.083 71.2852 236.669 71.2852 237.229C71.2852 237.789 71.3652 238.283 71.5252 238.709H72.7252C72.9385 239.269 73.0452 239.949 73.0452 240.749C73.0452 241.523 72.7119 242.203 72.0452 242.789C71.3785 243.349 70.4985 243.629 69.4052 243.629C68.3119 243.629 67.4585 243.283 66.8452 242.589C66.2585 241.869 65.9652 240.976 65.9652 239.909ZM117.796 247.749C117.796 253.243 116.249 257.069 113.156 259.229C110.302 261.229 106.382 262.229 101.395 262.229H90.0755V261.469H92.7155V234.989H90.0755V234.229H102.435C107.555 234.229 111.395 235.283 113.955 237.389C116.516 239.469 117.796 242.923 117.796 247.749ZM100.515 261.469H102.035C104.729 261.469 106.649 260.523 107.795 258.629C108.969 256.709 109.555 253.509 109.555 249.029V246.709C109.555 240.709 108.409 237.096 106.115 235.869C105.022 235.283 103.475 234.989 101.475 234.989H100.515V261.469ZM152.418 271.269C153.725 271.269 154.725 270.643 155.418 269.389C156.138 268.136 156.498 266.589 156.498 264.749C156.498 262.909 155.792 261.043 154.378 259.149C152.352 261.469 149.565 262.629 146.018 262.629C142.472 262.629 139.645 262.029 137.538 260.829C135.458 259.629 134.418 257.736 134.418 255.149C134.418 253.363 134.898 251.923 135.858 250.829C136.818 249.736 138.432 248.936 140.698 248.429C138.352 246.296 137.178 243.976 137.178 241.469C137.178 238.936 138.058 237.029 139.818 235.749C141.605 234.443 143.818 233.789 146.458 233.789C149.098 233.789 151.072 234.269 152.378 235.229C153.712 236.189 154.378 237.483 154.378 239.109C154.378 241.936 152.232 244.096 147.938 245.589C148.472 245.936 149.445 246.549 150.858 247.429C153.818 249.349 155.912 250.896 157.138 252.069C157.538 250.176 157.765 248.229 157.818 246.229H154.658V245.429H161.618V246.229H158.818C158.765 248.736 158.512 250.989 158.058 252.989C159.205 254.269 160.072 255.496 160.658 256.669C161.245 257.843 161.538 259.323 161.538 261.109C161.538 263.989 160.525 266.563 158.498 268.829C156.472 271.096 154.165 272.229 151.578 272.229C149.845 272.229 148.498 271.869 147.538 271.149C146.578 270.429 146.098 269.509 146.098 268.389C146.098 267.269 146.405 266.389 147.018 265.749C147.658 265.136 148.458 264.829 149.418 264.829C151.552 264.829 152.618 265.789 152.618 267.709C152.618 268.109 152.538 268.589 152.378 269.149H150.978C150.498 270.563 150.978 271.269 152.418 271.269ZM146.978 261.589C149.805 261.589 152.045 260.496 153.698 258.309C152.472 257.029 150.752 255.643 148.538 254.149C144.725 251.643 142.298 249.936 141.258 249.029C140.858 249.883 140.658 251.616 140.658 254.229C140.658 256.843 141.178 258.723 142.218 259.869C143.258 261.016 144.845 261.589 146.978 261.589ZM146.258 234.629C145.245 234.629 144.378 234.949 143.658 235.589C142.938 236.203 142.578 237.189 142.578 238.549C142.578 239.909 142.898 241.029 143.538 241.909C144.178 242.789 145.405 243.856 147.218 245.109C148.338 244.523 149.032 243.816 149.298 242.989C149.592 242.163 149.738 240.949 149.738 239.349C149.738 236.203 148.578 234.629 146.258 234.629ZM178.776 239.909C178.776 238.149 179.576 236.696 181.176 235.549C182.776 234.376 185.15 233.789 188.296 233.789C194.376 233.789 197.416 235.909 197.416 240.149C197.416 241.883 196.696 243.323 195.256 244.469C193.843 245.589 191.803 246.376 189.136 246.829V246.909C192.443 247.149 194.883 247.923 196.456 249.229C198.03 250.536 198.816 252.229 198.816 254.309C198.816 256.869 197.776 258.896 195.696 260.389C193.643 261.883 190.776 262.629 187.096 262.629C185.656 262.629 184.31 262.469 183.056 262.149C181.83 261.829 180.723 261.203 179.736 260.269C178.776 259.309 178.296 258.176 178.296 256.869C178.296 255.563 178.603 254.549 179.216 253.829C179.856 253.109 180.723 252.749 181.816 252.749C182.91 252.749 183.776 253.043 184.416 253.629C185.056 254.189 185.376 254.869 185.376 255.669C185.376 256.443 185.27 257.109 185.056 257.669H183.816C183.656 258.096 183.576 258.536 183.576 258.989C183.576 260.883 184.696 261.829 186.936 261.829C188.51 261.829 189.576 261.229 190.136 260.029C190.723 258.829 191.016 257.096 191.016 254.829C191.016 252.563 190.736 250.923 190.176 249.909C189.643 248.869 188.843 248.083 187.776 247.549C186.816 247.763 185.656 247.936 184.296 248.069L184.176 247.189C186.523 246.949 188.056 246.389 188.776 245.509C189.523 244.629 189.896 243.069 189.896 240.829C189.896 238.563 189.67 236.949 189.216 235.989C188.79 235.003 188.056 234.509 187.016 234.509C185.976 234.509 185.23 234.829 184.776 235.469C184.35 236.083 184.136 236.669 184.136 237.229C184.136 237.789 184.216 238.283 184.376 238.709H185.536C185.75 239.269 185.856 239.949 185.856 240.749C185.856 241.523 185.523 242.203 184.856 242.789C184.19 243.349 183.31 243.629 182.216 243.629C181.123 243.629 180.27 243.283 179.656 242.589C179.07 241.869 178.776 240.976 178.776 239.909ZM231.186 247.749C231.186 253.243 229.639 257.069 226.546 259.229C223.693 261.229 219.773 262.229 214.786 262.229H203.466V261.469H206.106V234.989H203.466V234.229H215.826C220.946 234.229 224.786 235.283 227.346 237.389C229.906 239.469 231.186 242.923 231.186 247.749ZM213.906 261.469H215.426C218.119 261.469 220.039 260.523 221.186 258.629C222.359 256.709 222.946 253.509 222.946 249.029V246.709C222.946 240.709 221.799 237.096 219.506 235.869C218.413 235.283 216.866 234.989 214.866 234.989H213.906V261.469ZM262.489 261.469L259.569 252.829H251.649L248.569 261.469H251.569V262.229H245.449V261.469H247.329L257.529 233.989H260.809L270.889 261.469H272.729V262.229H259.649V261.469H262.489ZM255.769 241.469L252.009 251.949H259.249L255.769 241.469ZM276.062 243.189H285.702V246.869C286.129 245.643 286.782 244.656 287.662 243.909C288.542 243.163 289.876 242.789 291.662 242.789C295.796 242.789 297.862 245.016 297.862 249.469V261.509H300.102V262.229H288.782V261.509H290.422V248.509C290.422 246.909 290.316 245.883 290.102 245.429C289.889 244.949 289.502 244.709 288.942 244.709C288.089 244.709 287.329 245.269 286.662 246.389C286.022 247.509 285.702 248.869 285.702 250.469V261.509H287.422V262.229H276.062V261.509H278.262V243.909H276.062V243.189ZM309.111 240.429C307.697 240.429 306.684 240.069 306.071 239.349C305.484 238.629 305.191 237.736 305.191 236.669C305.191 235.603 305.511 234.723 306.151 234.029C306.817 233.336 307.817 232.989 309.151 232.989C310.484 232.989 311.497 233.309 312.191 233.949C312.884 234.563 313.231 235.456 313.231 236.629C313.231 237.776 312.897 238.696 312.231 239.389C311.564 240.083 310.524 240.429 309.111 240.429ZM303.071 243.189H312.871V261.509H315.111V262.229H303.231V261.509H305.431V243.909H303.071V243.189ZM318.526 243.189H328.166V246.869C329.046 244.149 330.979 242.789 333.966 242.789C336.979 242.789 338.806 244.229 339.446 247.109C340.379 244.229 342.339 242.789 345.326 242.789C349.246 242.789 351.206 245.016 351.206 249.469V261.509H353.446V262.229H342.366V261.509H343.766V248.509C343.766 246.483 343.593 245.296 343.246 244.949C343.086 244.789 342.873 244.709 342.606 244.709C341.833 244.709 341.153 245.229 340.566 246.269C339.979 247.309 339.686 248.629 339.686 250.229V261.509H341.126V262.229H330.846V261.509H332.246V248.509C332.246 246.483 332.073 245.296 331.726 244.949C331.566 244.789 331.353 244.709 331.086 244.709C330.339 244.709 329.659 245.283 329.046 246.429C328.459 247.549 328.166 248.896 328.166 250.469V261.509H329.606V262.229H318.526V261.509H320.726V243.909H318.526V243.189ZM366.234 252.829H367.394V249.749C367.394 247.216 367.247 245.523 366.954 244.669C366.687 243.789 366.154 243.349 365.354 243.349C364.874 243.349 364.434 243.483 364.034 243.749C363.661 243.989 363.474 244.336 363.474 244.789C363.474 245.216 363.554 245.656 363.714 246.109H364.714C364.927 246.669 365.034 247.349 365.034 248.149C365.034 248.923 364.701 249.603 364.034 250.189C363.367 250.749 362.527 251.029 361.514 251.029C359.221 251.029 358.074 249.923 358.074 247.709C358.074 244.429 360.861 242.789 366.434 242.789C369.607 242.789 371.794 243.336 372.994 244.429C374.221 245.496 374.834 247.469 374.834 250.349V258.469C374.834 259.856 375.221 260.549 375.994 260.549C376.901 260.549 377.434 259.176 377.594 256.429L378.194 256.469C378.087 258.816 377.647 260.429 376.874 261.309C376.101 262.189 374.834 262.629 373.074 262.629C369.874 262.629 368.034 261.643 367.554 259.669C367.207 260.683 366.687 261.429 365.994 261.909C365.301 262.389 364.287 262.629 362.954 262.629C359.007 262.629 357.034 261.016 357.034 257.789C357.034 255.896 357.781 254.603 359.274 253.909C360.794 253.189 363.114 252.829 366.234 252.829ZM364.634 257.749C364.634 259.136 364.701 260.029 364.834 260.429C364.994 260.829 365.274 261.029 365.674 261.029C366.101 261.029 366.487 260.696 366.834 260.029C367.207 259.336 367.394 258.389 367.394 257.189V253.469H367.114C365.461 253.469 364.634 254.683 364.634 257.109V257.749ZM382.601 256.509V243.909H380.401V243.189H382.601V238.029L390.041 236.189V243.189H395.241V243.909H390.041V257.389C390.041 258.643 390.161 259.563 390.401 260.149C390.668 260.736 391.201 261.029 392.001 261.029C392.801 261.029 393.494 260.629 394.081 259.829C394.694 259.029 395.094 257.936 395.281 256.549L395.961 256.629C395.748 258.469 395.161 259.936 394.201 261.029C393.241 262.096 391.654 262.629 389.441 262.629C387.228 262.629 385.534 262.189 384.361 261.309C383.188 260.429 382.601 258.829 382.601 256.509ZM404.823 240.429C403.41 240.429 402.397 240.069 401.783 239.349C401.197 238.629 400.903 237.736 400.903 236.669C400.903 235.603 401.223 234.723 401.863 234.029C402.53 233.336 403.53 232.989 404.863 232.989C406.197 232.989 407.21 233.309 407.903 233.949C408.597 234.563 408.943 235.456 408.943 236.629C408.943 237.776 408.61 238.696 407.943 239.389C407.277 240.083 406.237 240.429 404.823 240.429ZM398.783 243.189H408.583V261.509H410.823V262.229H398.943V261.509H401.143V243.909H398.783V243.189ZM427.159 254.349V250.949C427.159 248.363 427.012 246.483 426.719 245.309C426.452 244.109 425.812 243.509 424.799 243.509C424.212 243.509 423.732 243.683 423.359 244.029C423.012 244.349 422.759 244.896 422.599 245.669C422.359 246.869 422.239 248.696 422.239 251.149V254.269C422.239 257.176 422.319 258.923 422.479 259.509C422.665 260.096 422.852 260.576 423.039 260.949C423.332 261.589 423.905 261.909 424.759 261.909C425.799 261.909 426.479 261.309 426.799 260.109C427.039 259.256 427.159 257.336 427.159 254.349ZM424.679 262.629C421.345 262.629 418.825 261.776 417.119 260.069C415.412 258.363 414.559 255.923 414.559 252.749C414.559 249.549 415.465 247.096 417.279 245.389C419.119 243.656 421.692 242.789 424.999 242.789C428.305 242.789 430.772 243.589 432.399 245.189C434.025 246.763 434.839 249.176 434.839 252.429C434.839 259.229 431.452 262.629 424.679 262.629ZM438.637 243.189H448.277V246.869C448.704 245.643 449.357 244.656 450.237 243.909C451.117 243.163 452.451 242.789 454.237 242.789C458.371 242.789 460.437 245.016 460.437 249.469V261.509H462.677V262.229H451.357V261.509H452.997V248.509C452.997 246.909 452.891 245.883 452.677 245.429C452.464 244.949 452.077 244.709 451.517 244.709C450.664 244.709 449.904 245.269 449.237 246.389C448.597 247.509 448.277 248.869 448.277 250.469V261.509H449.997V262.229H438.637V261.509H440.837V243.909H438.637V243.189Z" fill="#795B96"/>
<circle cx="38.5128" cy="63.8054" r="2.10769" fill="#88729F"/>
<circle cx="58.8234" cy="63.8054" r="2.10769" fill="#88729F"/>
<circle cx="79.1338" cy="63.8054" r="2.10769" fill="#88729F"/>
<circle cx="99.4444" cy="63.8054" r="2.10769" fill="#88729F"/>
<circle cx="119.755" cy="63.8054" r="2.10769" fill="#88729F"/>
<circle cx="140.065" cy="63.8054" r="2.10769" fill="#88729F"/>
<circle cx="160.376" cy="63.8054" r="2.10769" fill="#88729F"/>
<circle cx="180.686" cy="63.8054" r="2.10769" fill="#88729F"/>
<circle cx="200.997" cy="63.8054" r="2.10769" fill="#88729F"/>
<circle cx="221.307" cy="63.8054" r="2.10769" fill="#88729F"/>
<circle cx="239.702" cy="63.8054" r="2.10769" fill="#88729F"/>
<circle cx="260.012" cy="63.8054" r="2.10769" fill="#88729F"/>
<circle cx="280.323" cy="63.8054" r="2.10769" fill="#88729F"/>
<circle cx="300.633" cy="63.8054" r="2.10769" fill="#88729F"/>
<circle cx="320.944" cy="63.8054" r="2.10769" fill="#88729F"/>
<circle cx="341.254" cy="63.8054" r="2.10769" fill="#88729F"/>
<circle cx="361.565" cy="63.8054" r="2.10769" fill="#88729F"/>
<circle cx="381.875" cy="63.8054" r="2.10769" fill="#88729F"/>
<circle cx="402.186" cy="63.8054" r="2.10769" fill="#88729F"/>
<circle cx="422.496" cy="63.8054" r="2.10769" fill="#88729F"/>
<circle cx="442.807" cy="63.8054" r="2.10769" fill="#88729F"/>
<circle cx="463.117" cy="63.8054" r="2.10769" fill="#88729F"/>
<circle cx="483.428" cy="63.8054" r="2.10769" fill="#88729F"/>
<circle cx="503.738" cy="63.8054" r="2.10769" fill="#88729F"/>
<circle cx="524.048" cy="63.8054" r="2.10769" fill="#88729F"/>
<circle cx="38.5127" cy="81.4334" r="2.10769" fill="#88729F"/>
<circle cx="58.8234" cy="81.4334" r="2.10769" fill="#88729F"/>
<circle cx="79.1337" cy="81.4334" r="2.10769" fill="#88729F"/>
<circle cx="99.4444" cy="81.4334" r="2.10769" fill="#88729F"/>
<circle cx="119.755" cy="81.4334" r="2.10769" fill="#88729F"/>
<circle cx="140.065" cy="81.4334" r="2.10769" fill="#88729F"/>
<circle cx="160.376" cy="81.4334" r="2.10769" fill="#88729F"/>
<circle cx="180.686" cy="81.4334" r="2.10769" fill="#88729F"/>
<circle cx="200.997" cy="81.4334" r="2.10769" fill="#88729F"/>
<circle cx="221.307" cy="81.4334" r="2.10769" fill="#88729F"/>
<circle cx="239.702" cy="81.4334" r="2.10769" fill="#88729F"/>
<circle cx="260.012" cy="81.4334" r="2.10769" fill="#88729F"/>
<circle cx="280.323" cy="81.4334" r="2.10769" fill="#88729F"/>
<circle cx="300.633" cy="81.4334" r="2.10769" fill="#88729F"/>
<circle cx="320.944" cy="81.4334" r="2.10769" fill="#88729F"/>
<circle cx="341.254" cy="81.4334" r="2.10769" fill="#88729F"/>
<circle cx="361.565" cy="81.4334" r="2.10769" fill="#88729F"/>
<circle cx="381.875" cy="81.4334" r="2.10769" fill="#88729F"/>
<circle cx="402.186" cy="81.4334" r="2.10769" fill="#88729F"/>
<circle cx="422.496" cy="81.4334" r="2.10769" fill="#88729F"/>
<circle cx="442.807" cy="81.4334" r="2.10769" fill="#88729F"/>
<circle cx="463.117" cy="81.4334" r="2.10769" fill="#88729F"/>
<circle cx="483.428" cy="81.4334" r="2.10769" fill="#88729F"/>
<circle cx="503.738" cy="81.4334" r="2.10769" fill="#88729F"/>
<circle cx="524.048" cy="81.4334" r="2.10769" fill="#88729F"/>
<circle cx="38.5127" cy="99.0615" r="2.10769" fill="#88729F"/>
<circle cx="58.8234" cy="99.0615" r="2.10769" fill="#88729F"/>
<circle cx="79.1337" cy="99.0615" r="2.10769" fill="#88729F"/>
<circle cx="99.4444" cy="99.0615" r="2.10769" fill="#88729F"/>
<circle cx="119.755" cy="99.0615" r="2.10769" fill="#88729F"/>
<circle cx="140.065" cy="99.0615" r="2.10769" fill="#88729F"/>
<circle cx="160.376" cy="99.0615" r="2.10769" fill="#88729F"/>
<circle cx="180.686" cy="99.0615" r="2.10769" fill="#88729F"/>
<circle cx="200.997" cy="99.0615" r="2.10769" fill="#88729F"/>
<circle cx="221.307" cy="99.0615" r="2.10769" fill="#88729F"/>
<circle cx="239.702" cy="99.0615" r="2.10769" fill="#88729F"/>
<circle cx="260.012" cy="99.0615" r="2.10769" fill="#88729F"/>
<circle cx="280.323" cy="99.0615" r="2.10769" fill="#88729F"/>
<circle cx="300.633" cy="99.0615" r="2.10769" fill="#88729F"/>
<circle cx="320.944" cy="99.0615" r="2.10769" fill="#88729F"/>
<circle cx="341.254" cy="99.0615" r="2.10769" fill="#88729F"/>
<circle cx="361.565" cy="99.0615" r="2.10769" fill="#88729F"/>
<circle cx="381.875" cy="99.0615" r="2.10769" fill="#88729F"/>
<circle cx="402.186" cy="99.0615" r="2.10769" fill="#88729F"/>
<circle cx="422.496" cy="99.0615" r="2.10769" fill="#88729F"/>
<circle cx="442.807" cy="99.0615" r="2.10769" fill="#88729F"/>
<circle cx="463.117" cy="99.0615" r="2.10769" fill="#88729F"/>
<circle cx="483.428" cy="99.0615" r="2.10769" fill="#88729F"/>
<circle cx="503.738" cy="99.0615" r="2.10769" fill="#88729F"/>
<circle cx="524.048" cy="99.0615" r="2.10769" fill="#88729F"/>
<circle cx="38.5127" cy="116.689" r="2.10769" fill="#88729F"/>
<circle cx="58.8234" cy="116.689" r="2.10769" fill="#88729F"/>
<circle cx="79.1337" cy="116.689" r="2.10769" fill="#88729F"/>
<circle cx="99.4444" cy="116.689" r="2.10769" fill="#88729F"/>
<circle cx="119.755" cy="116.689" r="2.10769" fill="#88729F"/>
<circle cx="140.065" cy="116.689" r="2.10769" fill="#88729F"/>
<circle cx="160.376" cy="116.689" r="2.10769" fill="#88729F"/>
<circle cx="180.686" cy="116.689" r="2.10769" fill="#88729F"/>
<circle cx="200.997" cy="116.689" r="2.10769" fill="#88729F"/>
<circle cx="221.307" cy="116.689" r="2.10769" fill="#88729F"/>
<circle cx="239.702" cy="116.689" r="2.10769" fill="#88729F"/>
<circle cx="260.012" cy="116.689" r="2.10769" fill="#88729F"/>
<circle cx="280.323" cy="116.689" r="2.10769" fill="#88729F"/>
<circle cx="300.633" cy="116.689" r="2.10769" fill="#88729F"/>
<circle cx="320.944" cy="116.689" r="2.10769" fill="#88729F"/>
<circle cx="341.254" cy="116.689" r="2.10769" fill="#88729F"/>
<circle cx="361.565" cy="116.689" r="2.10769" fill="#88729F"/>
<circle cx="381.875" cy="116.689" r="2.10769" fill="#88729F"/>
<circle cx="402.186" cy="116.689" r="2.10769" fill="#88729F"/>
<circle cx="422.496" cy="116.689" r="2.10769" fill="#88729F"/>
<circle cx="442.807" cy="116.689" r="2.10769" fill="#88729F"/>
<circle cx="463.117" cy="116.689" r="2.10769" fill="#88729F"/>
<circle cx="483.428" cy="116.689" r="2.10769" fill="#88729F"/>
<circle cx="503.738" cy="116.689" r="2.10769" fill="#88729F"/>
<circle cx="524.048" cy="116.689" r="2.10769" fill="#88729F"/>
<circle cx="38.5127" cy="134.317" r="2.10769" fill="#88729F"/>
<circle cx="58.8234" cy="134.318" r="2.10769" fill="#88729F"/>
<circle cx="79.1337" cy="134.318" r="2.10769" fill="#88729F"/>
<circle cx="99.4444" cy="134.318" r="2.10769" fill="#88729F"/>
<circle cx="119.755" cy="134.318" r="2.10769" fill="#88729F"/>
<circle cx="140.065" cy="134.318" r="2.10769" fill="#88729F"/>
<circle cx="160.376" cy="134.318" r="2.10769" fill="#88729F"/>
<circle cx="180.686" cy="134.318" r="2.10769" fill="#88729F"/>
<circle cx="200.997" cy="134.318" r="2.10769" fill="#88729F"/>
<circle cx="221.307" cy="134.318" r="2.10769" fill="#88729F"/>
<circle cx="239.702" cy="134.318" r="2.10769" fill="#88729F"/>
<circle cx="260.012" cy="134.318" r="2.10769" fill="#88729F"/>
<circle cx="280.323" cy="134.318" r="2.10769" fill="#88729F"/>
<circle cx="300.633" cy="134.318" r="2.10769" fill="#88729F"/>
<circle cx="320.944" cy="134.318" r="2.10769" fill="#88729F"/>
<circle cx="341.254" cy="134.318" r="2.10769" fill="#88729F"/>
<circle cx="361.565" cy="134.318" r="2.10769" fill="#88729F"/>
<circle cx="381.875" cy="134.318" r="2.10769" fill="#88729F"/>
<circle cx="402.186" cy="134.318" r="2.10769" fill="#88729F"/>
<circle cx="422.496" cy="134.318" r="2.10769" fill="#88729F"/>
<circle cx="442.807" cy="134.318" r="2.10769" fill="#88729F"/>
<circle cx="463.117" cy="134.318" r="2.10769" fill="#88729F"/>
<circle cx="483.428" cy="134.318" r="2.10769" fill="#88729F"/>
<circle cx="503.738" cy="134.318" r="2.10769" fill="#88729F"/>
<circle cx="524.048" cy="134.318" r="2.10769" fill="#88729F"/>
<circle cx="38.5127" cy="151.945" r="2.10769" fill="#88729F"/>
<circle cx="58.8234" cy="151.945" r="2.10769" fill="#88729F"/>
<circle cx="79.1337" cy="151.945" r="2.10769" fill="#88729F"/>
<circle cx="99.4444" cy="151.945" r="2.10769" fill="#88729F"/>
<circle cx="119.755" cy="151.945" r="2.10769" fill="#88729F"/>
<circle cx="140.065" cy="151.945" r="2.10769" fill="#88729F"/>
<circle cx="160.376" cy="151.945" r="2.10769" fill="#88729F"/>
<circle cx="180.686" cy="151.945" r="2.10769" fill="#88729F"/>
<circle cx="200.997" cy="151.945" r="2.10769" fill="#88729F"/>
<circle cx="221.307" cy="151.945" r="2.10769" fill="#88729F"/>
<circle cx="239.702" cy="151.945" r="2.10769" fill="#88729F"/>
<circle cx="260.012" cy="151.945" r="2.10769" fill="#88729F"/>
<circle cx="280.323" cy="151.945" r="2.10769" fill="#88729F"/>
<circle cx="300.633" cy="151.945" r="2.10769" fill="#88729F"/>
<circle cx="320.944" cy="151.945" r="2.10769" fill="#88729F"/>
<circle cx="341.254" cy="151.945" r="2.10769" fill="#88729F"/>
<circle cx="361.565" cy="151.945" r="2.10769" fill="#88729F"/>
<circle cx="381.875" cy="151.945" r="2.10769" fill="#88729F"/>
<circle cx="402.186" cy="151.945" r="2.10769" fill="#88729F"/>
<circle cx="422.496" cy="151.945" r="2.10769" fill="#88729F"/>
<circle cx="442.807" cy="151.945" r="2.10769" fill="#88729F"/>
<circle cx="463.117" cy="151.945" r="2.10769" fill="#88729F"/>
<circle cx="483.428" cy="151.945" r="2.10769" fill="#88729F"/>
<circle cx="503.738" cy="151.945" r="2.10769" fill="#88729F"/>
<circle cx="524.048" cy="151.945" r="2.10769" fill="#88729F"/>
<circle cx="36.9803" cy="523.666" r="2.10769" fill="#8E6BB1"/>
<circle cx="57.2907" cy="523.666" r="2.10769" fill="#8E6BB1"/>
<circle cx="77.6013" cy="523.666" r="2.10769" fill="#8E6BB1"/>
<circle cx="97.9116" cy="523.666" r="2.10769" fill="#8E6BB1"/>
<circle cx="118.222" cy="523.666" r="2.10769" fill="#8E6BB1"/>
<circle cx="138.533" cy="523.666" r="2.10769" fill="#8E6BB1"/>
<circle cx="158.843" cy="523.666" r="2.10769" fill="#8E6BB1"/>
<circle cx="179.154" cy="523.666" r="2.10769" fill="#8E6BB1"/>
<circle cx="199.464" cy="523.666" r="2.10769" fill="#8E6BB1"/>
<circle cx="219.775" cy="523.666" r="2.10769" fill="#8E6BB1"/>
<circle cx="238.169" cy="523.666" r="2.10769" fill="#8E6BB1"/>
<circle cx="258.48" cy="523.666" r="2.10769" fill="#8E6BB1"/>
<circle cx="278.79" cy="523.666" r="2.10769" fill="#8E6BB1"/>
<circle cx="299.101" cy="523.666" r="2.10769" fill="#8E6BB1"/>
<circle cx="319.411" cy="523.666" r="2.10769" fill="#8E6BB1"/>
<circle cx="339.721" cy="523.666" r="2.10769" fill="#8E6BB1"/>
<circle cx="360.032" cy="523.666" r="2.10769" fill="#8E6BB1"/>
<circle cx="380.343" cy="523.666" r="2.10769" fill="#8E6BB1"/>
<circle cx="400.653" cy="523.666" r="2.10769" fill="#8E6BB1"/>
<circle cx="420.963" cy="523.666" r="2.10769" fill="#8E6BB1"/>
<circle cx="441.274" cy="523.666" r="2.10769" fill="#8E6BB1"/>
<circle cx="461.584" cy="523.666" r="2.10769" fill="#8E6BB1"/>
<circle cx="481.895" cy="523.666" r="2.10769" fill="#8E6BB1"/>
<circle cx="502.205" cy="523.666" r="2.10769" fill="#8E6BB1"/>
<circle cx="522.516" cy="523.666" r="2.10769" fill="#8E6BB1"/>
<circle cx="36.9803" cy="541.294" r="2.10769" fill="#8E6BB1"/>
<circle cx="57.2906" cy="541.294" r="2.10769" fill="#8E6BB1"/>
<circle cx="77.6012" cy="541.294" r="2.10769" fill="#8E6BB1"/>
<circle cx="97.9115" cy="541.294" r="2.10769" fill="#8E6BB1"/>
<circle cx="118.222" cy="541.294" r="2.10769" fill="#8E6BB1"/>
<circle cx="138.533" cy="541.294" r="2.10769" fill="#8E6BB1"/>
<circle cx="158.843" cy="541.294" r="2.10769" fill="#8E6BB1"/>
<circle cx="179.154" cy="541.294" r="2.10769" fill="#8E6BB1"/>
<circle cx="199.464" cy="541.294" r="2.10769" fill="#8E6BB1"/>
<circle cx="219.775" cy="541.294" r="2.10769" fill="#8E6BB1"/>
<circle cx="238.169" cy="541.294" r="2.10769" fill="#8E6BB1"/>
<circle cx="258.48" cy="541.294" r="2.10769" fill="#8E6BB1"/>
<circle cx="278.79" cy="541.294" r="2.10769" fill="#8E6BB1"/>
<circle cx="299.1" cy="541.294" r="2.10769" fill="#8E6BB1"/>
<circle cx="319.411" cy="541.294" r="2.10769" fill="#8E6BB1"/>
<circle cx="339.721" cy="541.294" r="2.10769" fill="#8E6BB1"/>
<circle cx="360.032" cy="541.294" r="2.10769" fill="#8E6BB1"/>
<circle cx="380.342" cy="541.294" r="2.10769" fill="#8E6BB1"/>
<circle cx="400.653" cy="541.294" r="2.10769" fill="#8E6BB1"/>
<circle cx="420.963" cy="541.294" r="2.10769" fill="#8E6BB1"/>
<circle cx="441.274" cy="541.294" r="2.10769" fill="#8E6BB1"/>
<circle cx="461.584" cy="541.294" r="2.10769" fill="#8E6BB1"/>
<circle cx="481.895" cy="541.294" r="2.10769" fill="#8E6BB1"/>
<circle cx="502.205" cy="541.294" r="2.10769" fill="#8E6BB1"/>
<circle cx="522.516" cy="541.294" r="2.10769" fill="#8E6BB1"/>
<circle cx="36.9803" cy="558.922" r="2.10769" fill="#8E6BB1"/>
<circle cx="57.2906" cy="558.922" r="2.10769" fill="#8E6BB1"/>
<circle cx="77.6012" cy="558.922" r="2.10769" fill="#8E6BB1"/>
<circle cx="97.9115" cy="558.922" r="2.10769" fill="#8E6BB1"/>
<circle cx="118.222" cy="558.922" r="2.10769" fill="#8E6BB1"/>
<circle cx="138.533" cy="558.922" r="2.10769" fill="#8E6BB1"/>
<circle cx="158.843" cy="558.922" r="2.10769" fill="#8E6BB1"/>
<circle cx="179.154" cy="558.922" r="2.10769" fill="#8E6BB1"/>
<circle cx="199.464" cy="558.922" r="2.10769" fill="#8E6BB1"/>
<circle cx="219.775" cy="558.922" r="2.10769" fill="#8E6BB1"/>
<circle cx="238.169" cy="558.922" r="2.10769" fill="#8E6BB1"/>
<circle cx="258.48" cy="558.922" r="2.10769" fill="#8E6BB1"/>
<circle cx="278.79" cy="558.922" r="2.10769" fill="#8E6BB1"/>
<circle cx="299.1" cy="558.922" r="2.10769" fill="#8E6BB1"/>
<circle cx="319.411" cy="558.922" r="2.10769" fill="#8E6BB1"/>
<circle cx="339.721" cy="558.922" r="2.10769" fill="#8E6BB1"/>
<circle cx="360.032" cy="558.922" r="2.10769" fill="#8E6BB1"/>
<circle cx="380.342" cy="558.922" r="2.10769" fill="#8E6BB1"/>
<circle cx="400.653" cy="558.922" r="2.10769" fill="#8E6BB1"/>
<circle cx="420.963" cy="558.922" r="2.10769" fill="#8E6BB1"/>
<circle cx="441.274" cy="558.922" r="2.10769" fill="#8E6BB1"/>
<circle cx="461.584" cy="558.922" r="2.10769" fill="#8E6BB1"/>
<circle cx="481.895" cy="558.922" r="2.10769" fill="#8E6BB1"/>
<circle cx="502.205" cy="558.922" r="2.10769" fill="#8E6BB1"/>
<circle cx="522.516" cy="558.922" r="2.10769" fill="#8E6BB1"/>
<circle cx="36.9803" cy="576.55" r="2.10769" fill="#8E6BB1"/>
<circle cx="57.2906" cy="576.55" r="2.10769" fill="#8E6BB1"/>
<circle cx="77.6012" cy="576.55" r="2.10769" fill="#8E6BB1"/>
<circle cx="97.9115" cy="576.55" r="2.10769" fill="#8E6BB1"/>
<circle cx="118.222" cy="576.55" r="2.10769" fill="#8E6BB1"/>
<circle cx="138.533" cy="576.55" r="2.10769" fill="#8E6BB1"/>
<circle cx="158.843" cy="576.55" r="2.10769" fill="#8E6BB1"/>
<circle cx="179.154" cy="576.55" r="2.10769" fill="#8E6BB1"/>
<circle cx="199.464" cy="576.55" r="2.10769" fill="#8E6BB1"/>
<circle cx="219.775" cy="576.55" r="2.10769" fill="#8E6BB1"/>
<circle cx="238.169" cy="576.55" r="2.10769" fill="#8E6BB1"/>
<circle cx="258.48" cy="576.55" r="2.10769" fill="#8E6BB1"/>
<circle cx="278.79" cy="576.55" r="2.10769" fill="#8E6BB1"/>
<circle cx="299.1" cy="576.55" r="2.10769" fill="#8E6BB1"/>
<circle cx="319.411" cy="576.55" r="2.10769" fill="#8E6BB1"/>
<circle cx="339.721" cy="576.55" r="2.10769" fill="#8E6BB1"/>
<circle cx="360.032" cy="576.55" r="2.10769" fill="#8E6BB1"/>
<circle cx="380.342" cy="576.55" r="2.10769" fill="#8E6BB1"/>
<circle cx="400.653" cy="576.55" r="2.10769" fill="#8E6BB1"/>
<circle cx="420.963" cy="576.55" r="2.10769" fill="#8E6BB1"/>
<circle cx="441.274" cy="576.55" r="2.10769" fill="#8E6BB1"/>
<circle cx="461.584" cy="576.55" r="2.10769" fill="#8E6BB1"/>
<circle cx="481.895" cy="576.55" r="2.10769" fill="#8E6BB1"/>
<circle cx="502.205" cy="576.55" r="2.10769" fill="#8E6BB1"/>
<circle cx="522.516" cy="576.55" r="2.10769" fill="#8E6BB1"/>
<circle cx="36.9803" cy="594.177" r="2.10769" fill="#8E6BB1"/>
<circle cx="57.2906" cy="594.177" r="2.10769" fill="#8E6BB1"/>
<circle cx="77.6012" cy="594.177" r="2.10769" fill="#8E6BB1"/>
<circle cx="97.9115" cy="594.177" r="2.10769" fill="#8E6BB1"/>
<circle cx="118.222" cy="594.177" r="2.10769" fill="#8E6BB1"/>
<circle cx="138.533" cy="594.177" r="2.10769" fill="#8E6BB1"/>
<circle cx="158.843" cy="594.177" r="2.10769" fill="#8E6BB1"/>
<circle cx="179.154" cy="594.177" r="2.10769" fill="#8E6BB1"/>
<circle cx="199.464" cy="594.177" r="2.10769" fill="#8E6BB1"/>
<circle cx="219.775" cy="594.177" r="2.10769" fill="#8E6BB1"/>
<circle cx="238.169" cy="594.177" r="2.10769" fill="#8E6BB1"/>
<circle cx="258.48" cy="594.177" r="2.10769" fill="#8E6BB1"/>
<circle cx="278.79" cy="594.177" r="2.10769" fill="#8E6BB1"/>
<circle cx="299.1" cy="594.177" r="2.10769" fill="#8E6BB1"/>
<circle cx="319.411" cy="594.177" r="2.10769" fill="#8E6BB1"/>
<circle cx="339.721" cy="594.177" r="2.10769" fill="#8E6BB1"/>
<circle cx="360.032" cy="594.177" r="2.10769" fill="#8E6BB1"/>
<circle cx="380.342" cy="594.177" r="2.10769" fill="#8E6BB1"/>
<circle cx="400.653" cy="594.177" r="2.10769" fill="#8E6BB1"/>
<circle cx="420.963" cy="594.177" r="2.10769" fill="#8E6BB1"/>
<circle cx="441.274" cy="594.177" r="2.10769" fill="#8E6BB1"/>
<circle cx="461.584" cy="594.177" r="2.10769" fill="#8E6BB1"/>
<circle cx="481.895" cy="594.177" r="2.10769" fill="#8E6BB1"/>
<circle cx="502.205" cy="594.177" r="2.10769" fill="#8E6BB1"/>
<circle cx="522.516" cy="594.177" r="2.10769" fill="#8E6BB1"/>
<circle cx="36.9803" cy="611.805" r="2.10769" fill="#8E6BB1"/>
<circle cx="57.2906" cy="611.805" r="2.10769" fill="#8E6BB1"/>
<circle cx="77.6012" cy="611.805" r="2.10769" fill="#8E6BB1"/>
<circle cx="97.9115" cy="611.805" r="2.10769" fill="#8E6BB1"/>
<circle cx="118.222" cy="611.805" r="2.10769" fill="#8E6BB1"/>
<circle cx="138.533" cy="611.805" r="2.10769" fill="#8E6BB1"/>
<circle cx="158.843" cy="611.805" r="2.10769" fill="#8E6BB1"/>
<circle cx="179.154" cy="611.805" r="2.10769" fill="#8E6BB1"/>
<circle cx="199.464" cy="611.805" r="2.10769" fill="#8E6BB1"/>
<circle cx="219.775" cy="611.805" r="2.10769" fill="#8E6BB1"/>
<circle cx="238.169" cy="611.805" r="2.10769" fill="#8E6BB1"/>
<circle cx="258.48" cy="611.805" r="2.10769" fill="#8E6BB1"/>
<circle cx="278.79" cy="611.805" r="2.10769" fill="#8E6BB1"/>
<circle cx="299.1" cy="611.805" r="2.10769" fill="#8E6BB1"/>
<circle cx="319.411" cy="611.805" r="2.10769" fill="#8E6BB1"/>
<circle cx="339.721" cy="611.805" r="2.10769" fill="#8E6BB1"/>
<circle cx="360.032" cy="611.805" r="2.10769" fill="#8E6BB1"/>
<circle cx="380.342" cy="611.805" r="2.10769" fill="#8E6BB1"/>
<circle cx="400.653" cy="611.805" r="2.10769" fill="#8E6BB1"/>
<circle cx="420.963" cy="611.805" r="2.10769" fill="#8E6BB1"/>
<circle cx="441.274" cy="611.805" r="2.10769" fill="#8E6BB1"/>
<circle cx="461.584" cy="611.805" r="2.10769" fill="#8E6BB1"/>
<circle cx="481.895" cy="611.805" r="2.10769" fill="#8E6BB1"/>
<circle cx="502.205" cy="611.805" r="2.10769" fill="#8E6BB1"/>
<circle cx="522.516" cy="611.805" r="2.10769" fill="#8E6BB1"/>
</svg>
