<svg width="38" height="38" viewBox="0 0 38 38" fill="none" xmlns="http://www.w3.org/2000/svg">
<path d="M23.2653 18.8489C23.2653 15.675 19.9668 10.1963 12.5358 10.1963C5.10476 10.1963 2.375 16.3929 2.375 19.0378C2.375 9.59176 10.0714 2.375 19.2085 2.375C28.3456 2.375 35.625 9.21392 35.625 16.1662C35.625 22.3628 30.9617 24.5165 27.1703 24.5165C24.668 24.5165 21.8245 23.6852 21.8245 22.3628C21.8245 21.3426 23.2653 21.3426 23.2653 18.8489Z" fill="url(#paint0_linear_165_210)"/>
<path d="M12.5358 10.1963C19.9668 10.1963 23.2653 15.675 23.2653 18.8488C23.2653 18.8735 23.2651 18.8979 23.2648 18.9221C23.2273 16.8085 21.8002 14.8059 18.981 14.8059C15.4172 14.8059 10.6022 19.6423 11.2467 25.65C11.7626 30.4589 15.8342 36.9096 24.668 34.6426C24.668 34.6426 22.9999 35.625 18.3365 35.625C10.0714 35.625 2.375 28.0682 2.375 19.4156C2.375 19.1864 2.3785 18.9616 2.38555 18.7411C2.5761 15.9579 5.37031 10.1963 12.5358 10.1963Z" fill="url(#paint1_linear_165_210)"/>
<path d="M12.5358 10.1963C19.9668 10.1963 23.2653 15.675 23.2653 18.8488C23.2653 18.8735 23.2651 18.8979 23.2648 18.9221C23.2273 16.8085 21.8002 14.8059 18.981 14.8059C15.4172 14.8059 10.6022 19.6423 11.2467 25.65C11.7626 30.4589 15.8342 36.9096 24.668 34.6426C24.668 34.6426 22.9999 35.625 18.3365 35.625C10.0714 35.625 2.375 28.0682 2.375 19.4156C2.375 19.1864 2.3785 18.9616 2.38555 18.7411C2.5761 15.9579 5.37031 10.1963 12.5358 10.1963Z" fill="url(#paint2_radial_165_210)"/>
<path d="M23.6392 35.0308C28.3721 33.7397 31.7533 29.7119 32.3647 28.8994C33.0472 27.9926 33.2367 27.4258 33.0472 27.2369C32.8576 27.048 32.5922 27.0857 31.9098 27.4258C31.2273 27.7659 27.2085 29.4284 22.621 28.0303C18.0335 26.6323 14.8867 23.0051 14.8867 18.9999C14.8867 15.9016 17.5406 14.8059 18.9813 14.8059C15.4175 14.8059 10.6025 19.6423 11.247 25.6499C11.7629 30.4589 15.8345 36.9096 24.6683 34.6426C24.6683 34.6426 24.3604 34.8239 23.6392 35.0308Z" fill="#0E458A"/>
<path d="M23.6392 35.0308C28.3721 33.7397 31.7533 29.7119 32.3647 28.8994C33.0472 27.9926 33.2367 27.4258 33.0472 27.2369C32.8576 27.048 32.5922 27.0857 31.9098 27.4258C31.2273 27.7659 27.2085 29.4284 22.621 28.0303C18.0335 26.6323 14.8867 23.0051 14.8867 18.9999C14.8867 15.9016 17.5406 14.8059 18.9813 14.8059C15.4175 14.8059 10.6025 19.6423 11.247 25.6499C11.7629 30.4589 15.8345 36.9096 24.6683 34.6426C24.6683 34.6426 24.3604 34.8239 23.6392 35.0308Z" fill="url(#paint3_radial_165_210)"/>
<defs>
<linearGradient id="paint0_linear_165_210" x1="33.6914" y1="22.0227" x2="1.17348" y2="14.3408" gradientUnits="userSpaceOnUse">
<stop stop-color="#3BCC50"/>
<stop offset="0.489583" stop-color="#2ABAD6"/>
<stop offset="1" stop-color="#7DCFE7"/>
</linearGradient>
<linearGradient id="paint1_linear_165_210" x1="13.5215" y1="10.1963" x2="13.5215" y2="35.625" gradientUnits="userSpaceOnUse">
<stop stop-color="#035989"/>
<stop offset="0.265625" stop-color="#1175B6"/>
<stop offset="1" stop-color="#0470CF"/>
</linearGradient>
<radialGradient id="paint2_radial_165_210" cx="0" cy="0" r="1" gradientUnits="userSpaceOnUse" gradientTransform="translate(12.9907 22.5517) rotate(59.2143) scale(11.2593 11.2777)">
<stop stop-color="#1284D8"/>
<stop offset="0.813899" stop-color="#1170B2" stop-opacity="0.767762"/>
<stop offset="1" stop-color="#0E649B" stop-opacity="0.65"/>
</radialGradient>
<radialGradient id="paint3_radial_165_210" cx="0" cy="0" r="1" gradientUnits="userSpaceOnUse" gradientTransform="translate(22.166 25.6499) rotate(77.9982) scale(9.11632 9.84228)">
<stop stop-color="#104890"/>
<stop offset="0.69943" stop-color="#12529E" stop-opacity="0.70624"/>
<stop offset="1" stop-color="#0E4584" stop-opacity="0.58"/>
</radialGradient>
</defs>
</svg>
