<svg width="38" height="39" viewBox="0 0 38 39" fill="none" xmlns="http://www.w3.org/2000/svg">
<path d="M13.5319 29.111C11.6876 26.8849 10.5057 23.5923 10.4277 19.8999V19.1001C10.5057 15.4077 11.7006 12.1151 13.5319 9.88901C15.9218 6.71646 19.4286 5.29014 23.39 5.29014C25.8318 5.29014 28.1308 5.46343 30.079 6.79644C27.1566 4.09043 23.2991 2.45083 19.0649 2.4375H19C9.81729 2.4375 2.375 10.0756 2.375 19.5C2.375 28.6444 9.38867 36.1226 18.2077 36.5492C18.4675 36.5625 18.7402 36.5625 19 36.5625C23.2602 36.5625 27.1437 34.9229 30.079 32.2169C28.1308 33.5499 25.9617 33.6032 23.5199 33.6032C19.5715 33.6166 15.9088 32.2969 13.5319 29.111V29.111Z" fill="url(#paint0_linear_165_193)"/>
<path d="M13.5322 9.88892C15.0519 8.03604 17.0261 6.92964 19.1821 6.92964C24.0268 6.92964 27.9492 12.5549 27.9492 19.5132C27.9492 26.4715 24.0268 32.0968 19.1821 32.0968C17.0261 32.0968 15.0648 30.9771 13.5322 29.1376C15.9221 32.3101 19.4679 34.3363 23.4163 34.3363C25.8451 34.3363 28.1311 33.5765 30.0793 32.2435C33.4822 29.0976 35.6253 24.552 35.6253 19.4999C35.6253 14.4478 33.4822 9.90225 30.0793 6.78301C28.1311 5.45 25.8581 4.69019 23.4163 4.69019C19.4549 4.69019 15.9091 6.70303 13.5322 9.88892V9.88892Z" fill="url(#paint1_linear_165_193)"/>
<defs>
<linearGradient id="paint0_linear_165_193" x1="16.2278" y1="2.99374" x2="16.2278" y2="36.066" gradientUnits="userSpaceOnUse">
<stop offset="0.3" stop-color="#FF1B2D"/>
<stop offset="0.4381" stop-color="#FA1A2C"/>
<stop offset="0.5939" stop-color="#ED1528"/>
<stop offset="0.7581" stop-color="#D60E21"/>
<stop offset="0.9272" stop-color="#B70519"/>
<stop offset="1" stop-color="#A70014"/>
</linearGradient>
<linearGradient id="paint1_linear_165_193" x1="24.5765" y1="4.94307" x2="24.5765" y2="34.1937" gradientUnits="userSpaceOnUse">
<stop stop-color="#9C0000"/>
<stop offset="0.7" stop-color="#FF4B4B"/>
</linearGradient>
</defs>
</svg>
