<svg width="38" height="38" viewBox="0 0 38 38" fill="none" xmlns="http://www.w3.org/2000/svg">
<path d="M19.0011 2.37965C19.0011 2.37965 28.8006 1.94147 33.996 11.7562H18.1673C18.1673 11.7562 15.1801 11.6603 12.6284 15.2713C11.8954 16.7869 11.1075 18.3482 11.9917 21.425C10.7179 19.2748 5.22949 9.75227 5.22949 9.75227C5.22949 9.75227 9.10074 2.76767 19.001 2.37965H19.0011Z" fill="#EF3F36"/>
<path d="M33.4871 27.2956C33.4871 27.2956 28.9652 35.9736 17.8418 35.5445C19.2162 33.1752 25.7583 21.886 25.7583 21.886C25.7583 21.886 27.3389 19.357 25.4743 15.3489C24.5258 13.9566 23.5592 12.5003 20.444 11.7242C22.95 11.7015 33.9682 11.7242 33.9682 11.7242C33.9682 11.7242 38.0959 18.5581 33.4871 27.2956Z" fill="#FCD900"/>
<path d="M4.58299 27.3641C4.58299 27.3641 -0.699367 19.1242 5.23807 9.73853C6.60793 12.1078 13.1501 23.3972 13.1501 23.3972C13.1501 23.3972 14.5612 26.0266 18.973 26.4191C20.6545 26.2959 22.4045 26.1909 24.6404 23.8947C23.4078 26.0677 17.8779 35.563 17.8779 35.563C17.8779 35.563 9.86977 35.7091 4.58286 27.3641H4.58299Z" fill="#61BC5B"/>
<path d="M17.8369 35.6268L20.0634 26.369C20.0634 26.369 22.5099 26.1771 24.5625 23.9358C23.2888 26.1682 17.8369 35.6268 17.8369 35.6268V35.6268Z" fill="#5AB055"/>
<path d="M11.542 19.1058C11.542 15.0248 14.8636 11.7151 18.9592 11.7151C23.0549 11.7151 26.3765 15.0248 26.3765 19.1058C26.3765 23.1869 23.0549 26.4965 18.9592 26.4965C14.8636 26.4919 11.542 23.1869 11.542 19.1058V19.1058Z" fill="white"/>
<path d="M12.7842 19.1058C12.7842 15.7095 15.5468 12.9521 18.96 12.9521C22.3685 12.9521 25.1357 15.7049 25.1357 19.1058C25.1357 22.5023 22.3732 25.2596 18.96 25.2596C15.5514 25.2596 12.7842 22.5023 12.7842 19.1058V19.1058Z" fill="url(#paint0_linear_165_181)"/>
<path d="M33.9636 11.7288L24.7962 14.4085C24.7962 14.4085 23.4127 12.386 20.4395 11.7288C23.0188 11.715 33.9636 11.7288 33.9636 11.7288V11.7288Z" fill="#EACA05"/>
<path d="M11.813 21.0873C10.5255 18.864 5.22949 9.7522 5.22949 9.7522L12.0191 16.4445C12.0191 16.4445 11.3227 17.8735 11.5839 19.9186L11.8129 21.0873H11.813Z" fill="#DF3A32"/>
<defs>
<linearGradient id="paint0_linear_165_181" x1="18.9597" y1="13.039" x2="18.9597" y2="24.8891" gradientUnits="userSpaceOnUse">
<stop stop-color="#86BBE5"/>
<stop offset="1" stop-color="#1072BA"/>
</linearGradient>
</defs>
</svg>
