<svg width="38" height="38" viewBox="0 0 38 38" fill="none" xmlns="http://www.w3.org/2000/svg">
<path d="M34.4263 12.7377C33.7031 10.9932 32.2374 9.10978 31.0868 8.51484C32.0233 10.3552 32.565 12.2011 32.7721 13.5784C32.7721 13.5784 32.7721 13.5881 32.7756 13.6061C30.8936 8.9036 27.7017 7.00703 25.0951 2.87858C24.9628 2.67032 24.8312 2.46206 24.7023 2.23922C24.6296 2.11357 24.5707 1.99972 24.5195 1.89212C24.4115 1.68337 24.328 1.46275 24.2708 1.2347C24.2713 1.22387 24.2677 1.21326 24.2608 1.20492C24.2539 1.19659 24.2441 1.19112 24.2334 1.18958C24.2232 1.18681 24.2124 1.18681 24.2022 1.18958C24.1995 1.19084 24.1969 1.19247 24.1946 1.19444C24.1905 1.19444 24.1863 1.1993 24.1821 1.20069L24.1891 1.19166C20.0073 3.64637 18.5887 8.18718 18.4585 10.4593C16.7874 10.5738 15.1896 11.1905 13.8736 12.2288C13.736 12.1123 13.5922 12.0033 13.4427 11.9026C13.0635 10.572 13.0474 9.16373 13.3963 7.8248C11.6861 8.60578 10.3561 9.838 9.38914 10.9286H9.38152C8.72139 10.0907 8.7678 7.32706 8.8052 6.75017C8.79758 6.71407 8.3134 7.00217 8.25106 7.0459C7.66855 7.46237 7.12405 7.92978 6.62394 8.44264C6.05483 9.0209 5.53489 9.64578 5.06955 10.3108C3.99893 11.8313 3.23967 13.5495 2.83564 15.366C2.82802 15.4021 2.82109 15.4395 2.81347 15.4763C2.7823 15.6228 2.66939 16.358 2.6493 16.5176V16.5544C2.50211 17.3141 2.41043 18.0834 2.375 18.8564V18.9418C2.375 28.1553 9.8283 35.625 19.0216 35.625C27.2556 35.625 34.0917 29.634 35.4307 21.7645C35.4584 21.5513 35.4812 21.3361 35.5062 21.1209C35.8373 18.2594 35.4695 15.2521 34.4263 12.7377ZM15.2389 25.7971C15.3165 25.8339 15.3899 25.8749 15.4695 25.911L15.4806 25.9179C15.401 25.879 15.3199 25.8388 15.2396 25.7971H15.2389ZM32.777 13.6138V13.5978V13.6159V13.6138Z" fill="url(#paint0_linear_165_197)"/>
<path d="M34.4261 12.7377C33.703 10.9932 32.2373 9.10983 31.0867 8.51489C32.0232 10.3552 32.5649 12.2011 32.772 13.5784V13.6124C34.343 17.8804 33.4869 22.2206 32.2539 24.8725C30.3462 28.9752 25.7281 33.1807 18.4985 32.9759C10.694 32.7538 3.81358 26.9426 2.52865 19.3376C2.29452 18.1373 2.52865 17.5285 2.64641 16.5545C2.50302 17.3049 2.4483 17.5222 2.37695 18.8565V18.9419C2.37695 28.1554 9.83025 35.625 19.0236 35.625C27.2575 35.625 34.0937 29.634 35.4326 21.7645C35.4603 21.5514 35.4832 21.3362 35.5081 21.121C35.8371 18.2595 35.4693 15.2522 34.4261 12.7377V12.7377Z" fill="url(#paint1_radial_165_197)"/>
<path d="M34.4261 12.7377C33.703 10.9932 32.2373 9.10983 31.0867 8.51489C32.0232 10.3552 32.5649 12.2011 32.772 13.5784V13.6124C34.343 17.8804 33.4869 22.2206 32.2539 24.8725C30.3462 28.9752 25.7281 33.1807 18.4985 32.9759C10.694 32.7538 3.81358 26.9426 2.52865 19.3376C2.29452 18.1373 2.52865 17.5285 2.64641 16.5545C2.50302 17.3049 2.4483 17.5222 2.37695 18.8565V18.9419C2.37695 28.1554 9.83025 35.625 19.0236 35.625C27.2575 35.625 34.0937 29.634 35.4326 21.7645C35.4603 21.5514 35.4832 21.3362 35.5081 21.121C35.8371 18.2595 35.4693 15.2522 34.4261 12.7377V12.7377Z" fill="url(#paint2_radial_165_197)"/>
<path d="M26.3366 14.6981C26.3733 14.7238 26.4059 14.7495 26.4405 14.7752C26.0227 14.0317 25.5022 13.3512 24.8944 12.7537C19.7201 7.56793 23.5382 1.5089 24.1817 1.20068L24.1886 1.19165C20.0069 3.64636 18.5882 8.18716 18.458 10.4593C18.652 10.4461 18.8452 10.4295 19.0426 10.4295C22.1632 10.4295 24.8813 12.1497 26.3366 14.6981Z" fill="url(#paint3_radial_165_197)"/>
<path d="M19.0527 15.734C19.0257 16.1505 17.5627 17.5806 17.0508 17.5806C12.317 17.5806 11.5488 20.4504 11.5488 20.4504C11.7566 22.8677 13.4371 24.8579 15.4701 25.9111C15.5629 25.959 15.6565 26.002 15.7472 26.045C15.91 26.1145 16.0735 26.1839 16.2362 26.2457C16.9334 26.4921 17.6636 26.6325 18.4023 26.6622C26.6993 27.0523 28.3077 16.7198 22.3194 13.7194C23.8523 13.4521 25.4441 14.0707 26.3328 14.6962C24.8782 12.1477 22.1594 10.4275 19.0388 10.4275C18.8414 10.4275 18.6482 10.4442 18.4542 10.4573C16.7844 10.5733 15.1881 11.1906 13.8735 12.229C14.1277 12.4449 14.4145 12.7323 15.0178 13.3279C16.1496 14.4469 19.0465 15.5986 19.0527 15.734V15.734Z" fill="url(#paint4_radial_165_197)"/>
<path d="M19.0527 15.734C19.0257 16.1505 17.5627 17.5806 17.0508 17.5806C12.317 17.5806 11.5488 20.4504 11.5488 20.4504C11.7566 22.8677 13.4371 24.8579 15.4701 25.9111C15.5629 25.959 15.6565 26.002 15.7472 26.045C15.91 26.1145 16.0735 26.1839 16.2362 26.2457C16.9334 26.4921 17.6636 26.6325 18.4023 26.6622C26.6993 27.0523 28.3077 16.7198 22.3194 13.7194C23.8523 13.4521 25.4441 14.0707 26.3328 14.6962C24.8782 12.1477 22.1594 10.4275 19.0388 10.4275C18.8414 10.4275 18.6482 10.4442 18.4542 10.4573C16.7844 10.5733 15.1881 11.1906 13.8735 12.229C14.1277 12.4449 14.4145 12.7323 15.0178 13.3279C16.1496 14.4469 19.0465 15.5986 19.0527 15.734V15.734Z" fill="url(#paint5_radial_165_197)"/>
<path d="M13.0998 11.6743C13.2349 11.7618 13.3457 11.8354 13.4462 11.9027C13.0669 10.5721 13.0509 9.16388 13.3998 7.82495C11.6895 8.60593 10.3596 9.83815 9.39258 10.9287C9.47085 10.9267 11.8856 10.8829 13.0998 11.6743V11.6743Z" fill="url(#paint6_radial_165_197)"/>
<path d="M2.5292 19.3375C3.81414 26.9425 10.6946 32.7537 18.5046 32.9759C25.7342 33.1807 30.3495 28.9752 32.26 24.8724C33.493 22.2199 34.3491 17.8804 32.7781 13.6124V13.5805C32.7781 13.5846 32.7781 13.5902 32.7816 13.6082C33.3717 17.4729 31.4107 21.2167 28.3449 23.7485C28.3417 23.7556 28.3387 23.7628 28.3359 23.77C22.3615 28.6454 16.6448 26.7114 15.4873 25.9221C15.4069 25.8832 15.3259 25.8429 15.2455 25.8013C11.762 24.1352 10.3233 20.9522 10.6316 18.2247C7.6911 18.2247 6.68809 15.7381 6.68809 15.7381C6.68809 15.7381 9.32861 13.8512 12.8087 15.4923C16.0317 17.0126 19.0588 15.7388 19.0588 15.7381C19.0525 15.6027 16.1557 14.4475 15.026 13.3319C14.4226 12.7363 14.1358 12.4489 13.8816 12.233C13.7441 12.1164 13.6002 12.0075 13.4508 11.9067C13.3517 11.8373 13.243 11.7679 13.1044 11.6783C11.8902 10.8869 9.47546 10.9307 9.3958 10.9328H9.38818C8.72805 10.0949 8.77446 7.33123 8.81186 6.75434C8.80424 6.71824 8.32006 7.00634 8.25772 7.05007C7.67521 7.46654 7.13071 7.93395 6.6306 8.44682C6.06149 9.02507 5.54155 9.64995 5.07621 10.3149C4.00559 11.8355 3.24633 13.5537 2.8423 15.3701C2.82914 15.4021 2.23689 17.9935 2.5292 19.3375V19.3375Z" fill="url(#paint7_radial_165_197)"/>
<path d="M24.8941 12.7537C25.5019 13.3512 26.0224 14.0317 26.4402 14.7752C26.5268 14.8404 26.61 14.9099 26.6896 14.9835C30.4633 18.4656 28.4892 23.3952 28.3389 23.7492C31.4047 21.2174 33.3657 17.4736 32.7755 13.6089C30.8935 8.9036 27.7016 7.00703 25.095 2.87858C24.9627 2.67032 24.8311 2.46206 24.7023 2.23922C24.6295 2.11357 24.5707 1.99972 24.5194 1.89212C24.4114 1.68337 24.3279 1.46275 24.2707 1.2347C24.2712 1.22387 24.2676 1.21326 24.2607 1.20492C24.2538 1.19659 24.244 1.19112 24.2333 1.18958C24.2231 1.18681 24.2124 1.18681 24.2022 1.18958C24.1994 1.19084 24.1968 1.19247 24.1945 1.19444C24.1904 1.19444 24.1862 1.1993 24.1821 1.20069C23.5379 1.50891 19.7198 7.56795 24.8941 12.7537V12.7537Z" fill="url(#paint8_radial_165_197)"/>
<path d="M26.6886 14.98C26.609 14.9064 26.5258 14.8369 26.4392 14.7717C26.4053 14.746 26.37 14.7203 26.3353 14.6947C25.4466 14.0699 23.8548 13.4506 22.3219 13.7179C28.3095 16.7183 26.7018 27.0508 18.4048 26.6607C17.6661 26.631 16.936 26.4906 16.2388 26.2442C16.076 26.1831 15.9125 26.1157 15.7497 26.0435C15.6555 26.0005 15.562 25.9575 15.4727 25.9095L15.4837 25.9165C16.6412 26.7079 22.3579 28.6419 28.3324 23.7645C28.3324 23.7645 28.3358 23.7554 28.3414 23.7429C28.4896 23.3951 30.4637 18.4656 26.6886 14.98Z" fill="url(#paint9_radial_165_197)"/>
<path d="M11.5485 20.4503C11.5485 20.4503 12.3166 17.5804 17.0505 17.5804C17.5624 17.5804 19.0253 16.149 19.0523 15.7338C19.0793 15.3187 16.0253 17.0084 12.8022 15.4881C9.32216 13.847 6.68164 15.7338 6.68164 15.7338C6.68164 15.7338 7.68465 18.2205 10.6251 18.2205C10.3169 20.948 11.7556 24.1282 15.2391 25.797C15.3167 25.8338 15.3901 25.8748 15.4697 25.9109C13.4367 24.8599 11.7583 22.8675 11.5485 20.4503Z" fill="url(#paint10_radial_165_197)"/>
<path d="M34.4263 12.7377C33.7031 10.9932 32.2374 9.10978 31.0868 8.51484C32.0233 10.3552 32.565 12.2011 32.7721 13.5784C32.7721 13.5784 32.7721 13.5881 32.7756 13.6061C30.8936 8.9036 27.7017 7.00703 25.0951 2.87858C24.9628 2.67032 24.8312 2.46206 24.7023 2.23922C24.6296 2.11357 24.5707 1.99972 24.5195 1.89212C24.4115 1.68337 24.328 1.46275 24.2708 1.2347C24.2713 1.22387 24.2677 1.21326 24.2608 1.20492C24.2539 1.19659 24.2441 1.19112 24.2334 1.18958C24.2232 1.18681 24.2124 1.18681 24.2022 1.18958C24.1995 1.19084 24.1969 1.19247 24.1946 1.19444C24.1905 1.19444 24.1863 1.1993 24.1821 1.20069L24.1891 1.19166C20.0073 3.64637 18.5887 8.18718 18.4585 10.4593C18.6524 10.4461 18.8457 10.4295 19.0431 10.4295C22.1637 10.4295 24.8818 12.1497 26.3371 14.6981C25.4484 14.0733 23.8566 13.4541 22.3237 13.7214C28.3112 16.7217 26.7035 27.0543 18.4065 26.6642C17.6678 26.6345 16.9377 26.4941 16.2405 26.2476C16.0777 26.1866 15.9142 26.1192 15.7515 26.047C15.6573 26.004 15.5637 25.9609 15.4744 25.913L15.4855 25.92C15.4051 25.8811 15.3241 25.8408 15.2437 25.7992C15.3213 25.836 15.3947 25.8769 15.4744 25.913C13.4372 24.8599 11.7588 22.8676 11.5489 20.4503C11.5489 20.4503 12.3171 17.5805 17.0509 17.5805C17.5628 17.5805 19.0258 16.149 19.0528 15.7339C19.0466 15.5985 16.1498 14.4434 15.02 13.3278C14.4167 12.7321 14.1299 12.4447 13.8757 12.2288C13.7381 12.1123 13.5943 12.0033 13.4448 11.9026C13.0655 10.572 13.0495 9.16373 13.3984 7.8248C11.6882 8.60578 10.3582 9.838 9.39122 10.9286H9.3836C8.72347 10.0907 8.76988 7.32706 8.80728 6.75017C8.79966 6.71407 8.31547 7.00217 8.25313 7.0459C7.67063 7.46237 7.12613 7.92978 6.62601 8.44264C6.05691 9.0209 5.53697 9.64578 5.07163 10.3108C4.00101 11.8313 3.24174 13.5495 2.83771 15.366C2.83009 15.4021 2.82317 15.4395 2.81555 15.4763C2.78438 15.6228 2.64307 16.3684 2.62367 16.5281C2.62367 16.5163 2.62367 16.5406 2.62367 16.5281C2.49397 17.2984 2.41093 18.076 2.375 18.8564V18.9418C2.375 28.1553 9.8283 35.625 19.0216 35.625C27.2556 35.625 34.0917 29.634 35.4307 21.7645C35.4584 21.5513 35.4812 21.3361 35.5062 21.1209C35.8373 18.2594 35.4695 15.2521 34.4263 12.7377Z" fill="url(#paint11_linear_165_197)"/>
<defs>
<linearGradient id="paint0_linear_165_197" x1="32.2228" y1="6.52247" x2="4.52903" y2="33.1832" gradientUnits="userSpaceOnUse">
<stop offset="0.05" stop-color="#FFF44F"/>
<stop offset="0.11" stop-color="#FFE847"/>
<stop offset="0.22" stop-color="#FFC830"/>
<stop offset="0.37" stop-color="#FF980E"/>
<stop offset="0.4" stop-color="#FF8B16"/>
<stop offset="0.46" stop-color="#FF672A"/>
<stop offset="0.53" stop-color="#FF3647"/>
<stop offset="0.7" stop-color="#E31587"/>
</linearGradient>
<radialGradient id="paint1_radial_165_197" cx="0" cy="0" r="1" gradientUnits="userSpaceOnUse" gradientTransform="translate(30.9454 5.00985) scale(34.7043 34.7804)">
<stop offset="0.13" stop-color="#FFBD4F"/>
<stop offset="0.19" stop-color="#FFAC31"/>
<stop offset="0.25" stop-color="#FF9D17"/>
<stop offset="0.28" stop-color="#FF980E"/>
<stop offset="0.4" stop-color="#FF563B"/>
<stop offset="0.47" stop-color="#FF3750"/>
<stop offset="0.71" stop-color="#F5156C"/>
<stop offset="0.78" stop-color="#EB0878"/>
<stop offset="0.86" stop-color="#E50080"/>
</radialGradient>
<radialGradient id="paint2_radial_165_197" cx="0" cy="0" r="1" gradientUnits="userSpaceOnUse" gradientTransform="translate(18.2644 19.2286) scale(34.7043 34.7804)">
<stop offset="0.3" stop-color="#960E18"/>
<stop offset="0.35" stop-color="#B11927" stop-opacity="0.74"/>
<stop offset="0.43" stop-color="#DB293D" stop-opacity="0.34"/>
<stop offset="0.5" stop-color="#F5334B" stop-opacity="0.09"/>
<stop offset="0.53" stop-color="#FF3750" stop-opacity="0"/>
</radialGradient>
<radialGradient id="paint3_radial_165_197" cx="0" cy="0" r="1" gradientUnits="userSpaceOnUse" gradientTransform="translate(22.4493 -2.88334) scale(25.1417 25.1969)">
<stop offset="0.13" stop-color="#FFF44F"/>
<stop offset="0.25" stop-color="#FFDC3E"/>
<stop offset="0.51" stop-color="#FF9D12"/>
<stop offset="0.53" stop-color="#FF980E"/>
</radialGradient>
<radialGradient id="paint4_radial_165_197" cx="0" cy="0" r="1" gradientUnits="userSpaceOnUse" gradientTransform="translate(14.4262 28.3137) scale(16.524 16.5603)">
<stop offset="0.35" stop-color="#3A8EE6"/>
<stop offset="0.47" stop-color="#5C79F0"/>
<stop offset="0.67" stop-color="#9059FF"/>
<stop offset="1" stop-color="#C139E6"/>
</radialGradient>
<radialGradient id="paint5_radial_165_197" cx="0" cy="0" r="1" gradientUnits="userSpaceOnUse" gradientTransform="translate(18.7628 15.0951) rotate(-13.9265) scale(8.75563 10.3057)">
<stop offset="0.21" stop-color="#9059FF" stop-opacity="0"/>
<stop offset="0.28" stop-color="#8C4FF3" stop-opacity="0.06"/>
<stop offset="0.75" stop-color="#7716A8" stop-opacity="0.45"/>
<stop offset="0.97" stop-color="#6E008B" stop-opacity="0.6"/>
</radialGradient>
<radialGradient id="paint6_radial_165_197" cx="0" cy="0" r="1" gradientUnits="userSpaceOnUse" gradientTransform="translate(17.826 3.58682) scale(11.8879 11.914)">
<stop stop-color="#FFE226"/>
<stop offset="0.12" stop-color="#FFDB27"/>
<stop offset="0.3" stop-color="#FFC82A"/>
<stop offset="0.5" stop-color="#FFA930"/>
<stop offset="0.73" stop-color="#FF7E37"/>
<stop offset="0.79" stop-color="#FF7139"/>
</radialGradient>
<radialGradient id="paint7_radial_165_197" cx="0" cy="0" r="1" gradientUnits="userSpaceOnUse" gradientTransform="translate(27.1708 -3.96975) scale(50.7192 50.8305)">
<stop offset="0.11" stop-color="#FFF44F"/>
<stop offset="0.46" stop-color="#FF980E"/>
<stop offset="0.62" stop-color="#FF5634"/>
<stop offset="0.72" stop-color="#FF3647"/>
<stop offset="0.9" stop-color="#E31587"/>
</radialGradient>
<radialGradient id="paint8_radial_165_197" cx="0" cy="0" r="1" gradientUnits="userSpaceOnUse" gradientTransform="translate(22.2677 1.58382) rotate(84.2447) scale(37.0495 24.2895)">
<stop stop-color="#FFF44F"/>
<stop offset="0.06" stop-color="#FFE847"/>
<stop offset="0.17" stop-color="#FFC830"/>
<stop offset="0.3" stop-color="#FF980E"/>
<stop offset="0.36" stop-color="#FF8B16"/>
<stop offset="0.45" stop-color="#FF672A"/>
<stop offset="0.57" stop-color="#FF3647"/>
<stop offset="0.74" stop-color="#E31587"/>
</radialGradient>
<radialGradient id="paint9_radial_165_197" cx="0" cy="0" r="1" gradientUnits="userSpaceOnUse" gradientTransform="translate(17.5466 7.99904) scale(31.664 31.7335)">
<stop offset="0.14" stop-color="#FFF44F"/>
<stop offset="0.48" stop-color="#FF980E"/>
<stop offset="0.59" stop-color="#FF5634"/>
<stop offset="0.66" stop-color="#FF3647"/>
<stop offset="0.9" stop-color="#E31587"/>
</radialGradient>
<radialGradient id="paint10_radial_165_197" cx="0" cy="0" r="1" gradientUnits="userSpaceOnUse" gradientTransform="translate(25.9044 9.85668) scale(34.6565 34.7325)">
<stop offset="0.09" stop-color="#FFF44F"/>
<stop offset="0.23" stop-color="#FFE141"/>
<stop offset="0.51" stop-color="#FFAF1E"/>
<stop offset="0.63" stop-color="#FF980E"/>
</radialGradient>
<linearGradient id="paint11_linear_165_197" x1="31.8903" y1="6.37946" x2="8.32488" y2="29.894" gradientUnits="userSpaceOnUse">
<stop offset="0.17" stop-color="#FFF44F" stop-opacity="0.8"/>
<stop offset="0.27" stop-color="#FFF44F" stop-opacity="0.63"/>
<stop offset="0.49" stop-color="#FFF44F" stop-opacity="0.22"/>
<stop offset="0.6" stop-color="#FFF44F" stop-opacity="0"/>
</linearGradient>
</defs>
</svg>
