<svg width="44" height="38" viewBox="0 0 44 38" fill="none" xmlns="http://www.w3.org/2000/svg">
<path d="M25.929 18.9648C25.929 16.8683 24.1701 15.1686 22 15.1686C19.8301 15.1686 18.071 16.8683 18.071 18.9648C18.071 21.0614 19.8301 22.7611 22 22.7611C24.1701 22.7611 25.929 21.0614 25.929 18.9648Z" fill="#53C1DE"/>
<path fill-rule="evenodd" clip-rule="evenodd" d="M34.7605 11.9169C35.5903 8.6593 36.6333 2.61832 32.9566 0.570235C29.2971 -1.46892 24.535 2.43847 22.0204 4.78388C19.5132 2.46184 14.6173 -1.42885 10.9437 0.625737C7.28568 2.67173 8.41374 8.61255 9.26186 11.8906C5.84952 12.8271 0 14.844 0 18.9648C0 23.0739 5.84344 25.2682 9.23557 26.2038C8.38431 29.5 7.31274 35.356 10.9755 37.3973C14.6627 39.4516 19.5434 35.6535 22.0812 33.2825C24.6119 35.6416 29.3284 39.4646 32.9885 37.4175C36.6603 35.3638 35.7039 29.4038 34.8558 26.1067C38.144 25.1691 44 23.0226 44 18.9648C44 14.8835 38.1191 12.8502 34.7605 11.9169ZM34.3438 24.3594C33.7869 22.6561 33.0352 20.8449 32.1157 18.9738C32.9934 17.1469 33.7158 15.359 34.2572 13.6667C36.7193 14.3563 42.1205 15.9327 42.1205 18.9648C42.1205 22.0253 36.9375 23.6166 34.3438 24.3594ZM32.0466 35.8457C29.3158 37.373 25.2591 33.7172 23.3902 31.9798C24.63 30.6695 25.8691 29.1463 27.0783 27.4549C29.2055 27.2726 31.2151 26.9744 33.0376 26.5675C33.6345 28.8996 34.7897 34.3115 32.0466 35.8457ZM11.9146 35.8239C9.18343 34.3023 10.4318 29.0768 11.058 26.6487C12.8602 27.0339 14.8552 27.311 16.9875 27.4781C18.2047 29.1332 19.4796 30.6545 20.7645 31.9867C19.177 33.4703 14.6586 37.3525 11.9146 35.8239ZM1.87952 18.9648C1.87952 15.8927 7.24836 14.3279 9.76659 13.64C10.3173 15.3703 11.0395 17.1795 11.9111 19.009C11.0282 20.8658 10.2957 22.7037 9.73992 24.4544C7.33875 23.7904 1.87952 22.0387 1.87952 18.9648ZM11.8854 2.19748C14.6278 0.663778 18.8829 4.39898 20.7033 6.08019C19.4251 7.40641 18.1619 8.91626 16.9552 10.5618C14.8858 10.7471 12.9048 11.0447 11.0837 11.4434C10.4005 8.7995 9.14601 3.72953 11.8854 2.19748ZM28.4229 12.5357C29.8269 12.707 31.1719 12.9346 32.4349 13.2133C32.0558 14.3875 31.5832 15.6153 31.0266 16.8739C30.2198 15.3948 29.3537 13.9454 28.4229 12.5357ZM22.021 7.378C22.888 8.28541 23.7563 9.29875 24.6103 10.3981C22.8778 10.319 21.1425 10.3186 19.4099 10.3969C20.2648 9.30778 21.1405 8.29595 22.021 7.378ZM12.9895 16.8726C12.4422 15.6183 11.9738 14.385 11.5914 13.1941C12.8468 12.9226 14.1856 12.7008 15.5804 12.5324C14.647 13.9389 13.7824 15.3878 12.9895 16.8726ZM15.6205 25.5268C14.1795 25.3714 12.8205 25.1609 11.5655 24.8969C11.954 23.6849 12.4326 22.4251 12.9917 21.1439C13.7955 22.644 14.6732 24.107 15.6205 25.5268ZM22.073 30.6799C21.1821 29.751 20.2936 28.7238 19.4257 27.6188C21.1682 27.685 22.9139 27.6851 24.6561 27.61C23.7993 28.735 22.9341 29.7638 22.073 30.6799ZM31.0445 21.0786C31.6326 22.3737 32.1284 23.6268 32.5221 24.8183C31.2463 25.0996 29.869 25.3261 28.4177 25.4943C29.3554 24.058 30.2351 22.586 31.0445 21.0786ZM26.0293 25.7144C23.3642 25.8984 20.6823 25.8964 18.0163 25.7295C16.5013 23.5913 15.1528 21.3428 13.9887 19.0084C15.1471 16.6789 16.4859 14.4348 17.9937 12.3C20.6617 12.1051 23.3461 12.1047 26.0141 12.3011C27.5089 14.4358 28.8457 16.6741 30.031 18.9827C28.8597 21.3111 27.514 23.5597 26.0293 25.7144ZM32.0178 2.14349C34.7609 3.67217 33.5399 9.10138 32.9406 11.4622C31.1152 11.0553 29.1329 10.7523 27.0575 10.5642C25.8484 8.90083 24.5957 7.38835 23.3382 6.07925C25.182 4.36183 29.3012 0.629759 32.0178 2.14349Z" fill="#53C1DE"/>
</svg>
