<svg width="38" height="38" viewBox="0 0 38 38" fill="none" xmlns="http://www.w3.org/2000/svg">
<path d="M33.7544 12.415C38.8356 0.694308 28.3098 2.41095 27.7237 2.52787C25.4938 2.97266 23.4306 3.68665 21.5276 4.59184C14.2755 4.17437 7.69827 9.32488 6.1114 16.3838C9.85473 12.1037 12.4744 10.3767 14.0432 9.68575C9.43616 13.8866 4.87984 19.3797 3.20127 25.4931C-1.02058 40.8689 12.2174 34.4411 14.0686 33.4646C16.062 34.4683 18.3061 35.0332 20.6801 35.0332C27.179 35.0332 32.7084 30.8052 34.7666 24.9009H26.9133C25.7513 26.9017 23.5141 28.257 20.944 28.257C17.1783 28.257 14.1258 25.3491 14.1258 21.762H35.5032C35.9074 18.5594 35.3004 15.2521 33.7544 12.415ZM32.8342 4.80967C34.1214 5.69513 35.1536 7.0855 33.3808 11.7681C31.6804 8.98104 29.1222 6.79471 26.0817 5.59304C27.4648 4.91229 30.8901 3.47226 32.8342 4.80967ZM5.48167 33.4335C4.43319 32.3378 4.24792 29.6691 6.56132 24.8061C7.72868 28.227 10.0583 31.0935 13.0694 32.9126C11.5719 33.7528 7.59629 35.6442 5.48167 33.4335ZM14.0928 17.5964C14.2123 14.11 17.1894 11.3186 20.8471 11.3186C24.5048 11.3186 27.482 14.11 27.6015 17.5964H14.0928Z" fill="#1EBBEE"/>
</svg>
