<svg width="37" height="38" viewBox="0 0 37 38" fill="none" xmlns="http://www.w3.org/2000/svg">
<path d="M18.5 35.625C27.4401 35.625 34.6875 28.1817 34.6875 19C34.6875 9.81827 27.4401 2.375 18.5 2.375C9.55989 2.375 2.3125 9.81827 2.3125 19C2.3125 28.1817 9.55989 35.625 18.5 35.625Z" fill="url(#paint0_linear_165_44)"/>
<path d="M18.4998 34.3781C26.7694 34.3781 33.4732 27.4931 33.4732 19C33.4732 10.5068 26.7694 3.62183 18.4998 3.62183C10.2302 3.62183 3.52637 10.5068 3.52637 19C3.52637 27.4931 10.2302 34.3781 18.4998 34.3781Z" fill="url(#paint1_radial_165_44)"/>
<path d="M18.5256 7.36262C18.4244 7.36262 18.3359 7.28472 18.3359 7.18081V4.46623C18.3359 4.36232 18.4244 4.28442 18.5256 4.28442C18.6268 4.28442 18.7153 4.36232 18.7153 4.46623V7.18081C18.7026 7.28472 18.6268 7.36262 18.5256 7.36262Z" fill="#F3F3F3"/>
<path d="M18.5256 7.3754C18.4117 7.3754 18.3232 7.2845 18.3232 7.1806V4.46605C18.3232 4.36214 18.4117 4.27124 18.5256 4.27124C18.6394 4.27124 18.7279 4.36214 18.7279 4.46605V7.1806C18.7279 7.2845 18.6267 7.3754 18.5256 7.3754ZM18.5256 4.29712C18.4371 4.29712 18.3486 4.37515 18.3486 4.46605V7.1806C18.3486 7.2715 18.4244 7.34953 18.5256 7.34953C18.6141 7.34953 18.7026 7.2715 18.7026 7.1806V4.46605C18.6901 4.37515 18.6141 4.29712 18.5256 4.29712V4.29712Z" fill="white"/>
<path d="M19.7903 5.90776C19.6891 5.89476 19.6133 5.81686 19.6133 5.71295L19.7018 4.50494C19.7143 4.40116 19.803 4.32313 19.9041 4.33613C20.0053 4.34914 20.0811 4.42717 20.0811 4.53108L19.9926 5.73896C19.98 5.84287 19.8915 5.92077 19.7903 5.9079V5.90776Z" fill="#F3F3F3"/>
<path d="M19.7903 5.92086C19.6764 5.90785 19.6006 5.81695 19.6006 5.71305L19.6891 4.50504C19.7018 4.40127 19.7903 4.31037 19.9041 4.32324C20.0178 4.33625 20.0938 4.42728 20.0938 4.53106L20.0053 5.73906C19.9926 5.85597 19.9041 5.93386 19.7903 5.92086ZM19.9041 4.34925C19.8156 4.34925 19.727 4.41428 19.727 4.50518L19.6384 5.71318C19.6384 5.80395 19.7018 5.88198 19.8029 5.89485C19.8914 5.89485 19.9799 5.82996 19.9799 5.73906L20.0685 4.53106C20.0685 4.44015 19.9926 4.36226 19.904 4.34925H19.9041Z" fill="white"/>
<path d="M20.7384 7.59625C20.6371 7.57024 20.5739 7.47934 20.5866 7.37543L21.1051 4.71273C21.1304 4.60896 21.2189 4.54394 21.3201 4.56995C21.4212 4.59596 21.4844 4.68686 21.4717 4.79076L20.9532 7.45346C20.9406 7.54423 20.8394 7.60925 20.7383 7.59625H20.7384Z" fill="#F3F3F3"/>
<path d="M20.7383 7.60932C20.6244 7.58331 20.5612 7.47941 20.5739 7.3755L21.0923 4.71284C21.1177 4.60906 21.2188 4.53103 21.3325 4.55704C21.4464 4.58305 21.5097 4.68696 21.497 4.79086L20.9785 7.45353C20.9532 7.5573 20.852 7.62233 20.7383 7.60932ZM21.3325 4.58305C21.244 4.57005 21.1555 4.62193 21.1302 4.71297L20.6119 7.37563C20.5992 7.4664 20.6497 7.5573 20.7509 7.58345C20.8394 7.59632 20.9279 7.5443 20.9532 7.4534L21.4717 4.79086C21.4843 4.68696 21.4212 4.60906 21.3325 4.58305V4.58305Z" fill="white"/>
<path d="M22.2557 6.4274C22.2316 6.42143 22.2089 6.41065 22.1888 6.39567C22.1688 6.38069 22.1519 6.3618 22.139 6.34008C22.126 6.31837 22.1174 6.29425 22.1136 6.26911C22.1098 6.24397 22.1108 6.2183 22.1166 6.19357L22.4328 5.02473C22.458 4.92082 22.5592 4.8688 22.6604 4.89481C22.7615 4.92082 22.8249 5.02473 22.7995 5.12864L22.4833 6.29761C22.458 6.40139 22.3568 6.45341 22.2557 6.4274Z" fill="#F3F3F3"/>
<path d="M22.2564 6.44029C22.1552 6.41428 22.0794 6.29737 22.1174 6.1936L22.4335 5.0245C22.4587 4.92073 22.5725 4.8557 22.6737 4.88171C22.7749 4.90772 22.8507 5.02463 22.8128 5.1284L22.4967 6.2975C22.4714 6.40127 22.3702 6.4663 22.2565 6.44029H22.2564ZM22.6737 4.92073C22.5852 4.89472 22.484 4.94674 22.4587 5.03764L22.1427 6.20647C22.1174 6.29737 22.1679 6.3884 22.2691 6.41428C22.3576 6.44029 22.4587 6.3884 22.484 6.2975L22.8002 5.1284C22.8128 5.03764 22.7623 4.94674 22.6737 4.92059V4.92073Z" fill="white"/>
<path d="M22.8753 8.25869C22.7742 8.21967 22.7363 8.10276 22.7742 8.01186L23.7858 5.50512C23.8237 5.41422 23.9377 5.3622 24.026 5.41422C24.1273 5.4531 24.1653 5.57015 24.1273 5.66091L23.1157 8.16765C23.0778 8.25869 22.9638 8.31057 22.8755 8.25869H22.8753Z" fill="#F3F3F3"/>
<path d="M22.8755 8.27183C22.8269 8.25281 22.7877 8.21478 22.7663 8.16607C22.745 8.11737 22.7433 8.06196 22.7617 8.012L23.7734 5.50522C23.8114 5.40132 23.9253 5.3623 24.0391 5.40132C24.0877 5.42034 24.127 5.45837 24.1483 5.50707C24.1696 5.55578 24.1713 5.61119 24.1529 5.66115L23.1412 8.16792C23.0905 8.27183 22.9767 8.32372 22.8755 8.27183ZM24.0264 5.42733C23.9379 5.38845 23.8367 5.42733 23.7988 5.51823L22.787 8.025C22.7492 8.1159 22.7997 8.2068 22.8882 8.24582C22.9767 8.2847 23.0779 8.24582 23.1159 8.15492L24.1276 5.64815C24.1529 5.57012 24.1149 5.46621 24.0264 5.42733V5.42733Z" fill="white"/>
<path d="M24.5828 7.42754C24.4942 7.37552 24.4562 7.27162 24.4942 7.18072L25.0253 6.10279C25.0758 6.01176 25.1769 5.97275 25.2782 6.02476C25.3667 6.07678 25.4046 6.18069 25.3667 6.27145L24.8355 7.34951C24.785 7.44041 24.6838 7.47956 24.5827 7.42754H24.5828Z" fill="#F3F3F3"/>
<path d="M24.5836 7.44052C24.4823 7.3885 24.4444 7.27159 24.4949 7.16768L25.0261 6.08975C25.0767 5.98571 25.1906 5.94683 25.2917 5.99871C25.3929 6.05073 25.4308 6.16764 25.3802 6.27155L24.8491 7.34949C24.7985 7.45339 24.6846 7.49241 24.5834 7.44039L24.5836 7.44052ZM25.2791 6.02472C25.1905 5.98584 25.0893 6.01172 25.0515 6.10262L24.5203 7.18069C24.4824 7.25858 24.5203 7.36249 24.5961 7.41451C24.6846 7.45339 24.7858 7.42751 24.8238 7.33661L25.355 6.25854C25.3929 6.18065 25.355 6.07674 25.2791 6.02472Z" fill="white"/>
<path d="M24.8357 9.34984C24.7472 9.28494 24.7219 9.16803 24.7851 9.09013L26.2521 6.84306C26.3027 6.75216 26.4166 6.73916 26.505 6.79118C26.5936 6.85607 26.6188 6.97298 26.5557 7.05088L25.0886 9.29795C25.0381 9.38885 24.9242 9.41486 24.8357 9.34984Z" fill="#F3F3F3"/>
<path d="M24.8361 9.36267C24.7476 9.29778 24.7222 9.16786 24.7729 9.07697L26.2398 6.82996C26.303 6.73906 26.4169 6.71305 26.518 6.77807C26.6065 6.84296 26.6319 6.97287 26.5813 7.06377L25.1143 9.31078C25.0511 9.40168 24.9246 9.42756 24.8361 9.36267ZM26.5054 6.80408C26.4296 6.75206 26.3157 6.76507 26.2652 6.84296L24.7981 9.08997C24.7476 9.16773 24.7728 9.27177 24.8487 9.32365C24.9246 9.37567 25.0384 9.36267 25.0889 9.28477L26.556 7.05077C26.6065 6.97287 26.5813 6.85597 26.5054 6.80408V6.80408Z" fill="white"/>
<path d="M26.6821 8.86922C26.6063 8.8042 26.581 8.68729 26.6442 8.60939L27.3777 7.66123C27.4408 7.58347 27.5547 7.57033 27.6305 7.63535C27.7065 7.70024 27.7317 7.81715 27.6684 7.89505L26.935 8.84321C26.8718 8.92111 26.758 8.93411 26.6822 8.86922H26.6821Z" fill="#F3F3F3"/>
<path d="M26.6692 8.8822C26.5807 8.81717 26.5681 8.68725 26.6314 8.59635L27.3647 7.64829C27.4279 7.55726 27.5544 7.54425 27.6429 7.62228C27.7314 7.68718 27.7441 7.8171 27.6808 7.908L26.9474 8.85619C26.8842 8.94709 26.7577 8.9601 26.6692 8.8822V8.8822ZM27.6176 7.64816C27.5419 7.58327 27.4406 7.59627 27.3774 7.67417L26.6439 8.62236C26.5934 8.70026 26.6061 8.80416 26.6818 8.86906C26.7577 8.93408 26.8589 8.92108 26.9221 8.84318L27.6556 7.89499C27.7062 7.8171 27.6934 7.70018 27.6177 7.64829L27.6176 7.64816Z" fill="white"/>
<path d="M26.5559 10.8174C26.4801 10.7395 26.4801 10.6226 26.5559 10.5576L28.4274 8.64843C28.5034 8.57053 28.6171 8.58341 28.6804 8.64843C28.7436 8.71332 28.7563 8.84323 28.6804 8.90812L26.8216 10.8174C26.7456 10.8953 26.6317 10.8953 26.5559 10.8174V10.8174Z" fill="#F3F3F3"/>
<path d="M26.5432 10.8304C26.5068 10.7923 26.4863 10.741 26.4863 10.6876C26.4863 10.6341 26.5068 10.5828 26.5432 10.5447L28.4149 8.63542C28.452 8.59792 28.502 8.5769 28.5541 8.5769C28.6061 8.5769 28.6561 8.59792 28.6932 8.63542C28.7297 8.67353 28.7501 8.72484 28.7501 8.77828C28.7501 8.83172 28.7297 8.88302 28.6932 8.92113L26.8214 10.8303C26.7843 10.8678 26.7344 10.8888 26.6823 10.8888C26.6303 10.8888 26.5804 10.8678 26.5432 10.8303V10.8304ZM28.6806 8.64843C28.6174 8.5834 28.5035 8.5834 28.4404 8.64843L26.5686 10.5576C26.5053 10.6226 26.5053 10.7395 26.5686 10.8044C26.6318 10.8695 26.7456 10.8695 26.8088 10.8044L28.6806 8.89525C28.7438 8.83023 28.7438 8.72632 28.6806 8.64843Z" fill="white"/>
<path d="M28.4531 10.7134C28.39 10.6355 28.39 10.5186 28.4658 10.4536L29.3636 9.67439C29.4395 9.6095 29.5533 9.62237 29.6166 9.7004C29.6798 9.77829 29.6798 9.8952 29.6039 9.96009L28.7061 10.7394C28.6301 10.8043 28.5163 10.7913 28.4531 10.7134Z" fill="#F3F3F3"/>
<path d="M28.4406 10.7266C28.3648 10.6357 28.3774 10.5057 28.4533 10.4408L29.3511 9.66149C29.4269 9.58359 29.5534 9.5966 29.6292 9.6875C29.7052 9.7784 29.6926 9.90831 29.6167 9.9732L28.7188 10.7526C28.6431 10.8303 28.5164 10.8175 28.4407 10.7266H28.4406ZM29.6041 9.7005C29.5407 9.62261 29.4396 9.62261 29.3639 9.67449L28.4659 10.4539C28.4027 10.5187 28.3901 10.6226 28.4533 10.7005C28.5164 10.7784 28.6177 10.7784 28.6934 10.7266L29.5914 9.94719C29.6672 9.8823 29.6672 9.7784 29.6041 9.7005Z" fill="white"/>
<path d="M27.9472 12.5838C27.884 12.4929 27.9093 12.376 27.9978 12.3239L30.1982 10.8173C30.2867 10.7653 30.4005 10.7913 30.451 10.8694C30.5143 10.9603 30.489 11.0772 30.4005 11.1291L28.2002 12.6357C28.1242 12.6877 28.0104 12.6617 27.9472 12.5838V12.5838Z" fill="#F3F3F3"/>
<path d="M27.9345 12.5839C27.8713 12.493 27.8966 12.363 27.9851 12.2982L30.1856 10.7915C30.2741 10.7266 30.4006 10.7526 30.4638 10.8565C30.5271 10.9474 30.5016 11.0773 30.4133 11.1421L28.2128 12.6489C28.1242 12.7139 27.9978 12.6879 27.9345 12.584V12.5839ZM30.4385 10.8825C30.3879 10.8045 30.2868 10.7785 30.2109 10.8305L28.0103 12.337C27.9346 12.3891 27.9092 12.493 27.9725 12.5839C28.023 12.6618 28.1242 12.6878 28.2002 12.6359L30.4006 11.1292C30.4765 11.0643 30.4891 10.9603 30.4385 10.8825Z" fill="white"/>
<path d="M29.8315 12.8566C29.7808 12.7656 29.8062 12.6488 29.8947 12.5968L30.9191 11.9994C31.0076 11.9474 31.1214 11.9864 31.1719 12.0771C31.2226 12.1682 31.1973 12.2849 31.1088 12.337L30.0844 12.9345C29.9958 12.9864 29.882 12.9475 29.8314 12.8565L29.8315 12.8566Z" fill="#F3F3F3"/>
<path d="M29.8188 12.8695C29.7681 12.7656 29.7935 12.6487 29.882 12.5968L30.9064 11.9994C30.9949 11.9474 31.1214 11.9864 31.1719 12.0771C31.2226 12.1812 31.1972 12.2981 31.1087 12.35L30.0843 12.9476C29.9958 12.9995 29.8693 12.9605 29.8188 12.8695V12.8695ZM31.1592 12.0903C31.1087 11.9994 31.0075 11.9734 30.9317 12.0253L29.9073 12.6228C29.8315 12.6747 29.8061 12.7786 29.844 12.8565C29.8946 12.9474 29.9958 12.9735 30.0717 12.9216L31.0961 12.324C31.1719 12.2851 31.1972 12.1812 31.1592 12.0903V12.0903Z" fill="white"/>
<path d="M28.9841 14.584C28.9463 14.4801 28.9841 14.3762 29.0853 14.3373L31.5261 13.2983C31.6146 13.2593 31.7284 13.3112 31.7663 13.4021C31.8042 13.506 31.7663 13.6099 31.6651 13.6487L29.2245 14.6878C29.1358 14.7268 29.0221 14.6878 28.9841 14.584Z" fill="#F3F3F3"/>
<path d="M28.9714 14.5969C28.9336 14.4931 28.9714 14.3762 29.0726 14.3242L31.5134 13.2852C31.562 13.2664 31.6159 13.2681 31.6633 13.29C31.7107 13.3119 31.7477 13.3522 31.7662 13.4021C31.8042 13.506 31.7662 13.6229 31.665 13.6748L29.2244 14.7138C29.1758 14.7327 29.1219 14.731 29.0744 14.7091C29.027 14.6872 28.99 14.6469 28.9714 14.597V14.5969ZM31.741 13.4151C31.703 13.3242 31.6019 13.2852 31.526 13.3112L29.0853 14.3502C28.9968 14.3891 28.9588 14.4931 28.9968 14.584C29.0346 14.6749 29.1358 14.7139 29.2118 14.6879L31.6524 13.6489C31.741 13.61 31.779 13.506 31.741 13.4151Z" fill="white"/>
<path d="M30.7674 15.2335C30.7296 15.1294 30.7801 15.0256 30.8813 14.9866L31.9941 14.6099C32.0826 14.571 32.1964 14.6359 32.2217 14.7268C32.2596 14.8307 32.209 14.9346 32.1079 14.9736L30.9951 15.3504C30.9066 15.3893 30.8054 15.3374 30.7674 15.2333V15.2335Z" fill="#F3F3F3"/>
<path d="M30.7546 15.2465C30.7168 15.1426 30.7673 15.0257 30.8812 14.9868L31.9939 14.61C32.095 14.5711 32.2089 14.636 32.2468 14.7401C32.2847 14.8439 32.2342 14.9608 32.1202 14.9998L31.0076 15.3765C30.9064 15.4024 30.7926 15.3504 30.7546 15.2465ZM32.2215 14.7531C32.1962 14.662 32.095 14.61 32.0065 14.636L30.8938 15.0128C30.8053 15.0387 30.7673 15.1426 30.7926 15.2336C30.8179 15.3245 30.9191 15.3764 31.0076 15.3504L32.1204 14.9738C32.2089 14.9349 32.2468 14.8439 32.2215 14.753V14.7531Z" fill="white"/>
<path d="M29.6296 16.779C29.6043 16.6751 29.6675 16.5712 29.7686 16.5582L32.3611 16.0387C32.4621 16.0127 32.5507 16.0906 32.5759 16.1945C32.6013 16.2984 32.5381 16.4023 32.4369 16.4153L29.8445 16.9348C29.7433 16.9478 29.6421 16.8829 29.6295 16.779H29.6296Z" fill="#F3F3F3"/>
<path d="M29.6035 16.7792C29.5782 16.6623 29.6541 16.5584 29.7552 16.5324L32.3478 16.0128C32.449 15.9868 32.5502 16.0648 32.5754 16.1818C32.6007 16.2986 32.5249 16.4025 32.4237 16.4285L29.8311 16.9481C29.73 16.9741 29.6287 16.8962 29.6035 16.7791V16.7792ZM32.5502 16.1946C32.5375 16.1037 32.449 16.0388 32.3605 16.0518L29.7679 16.5714C29.6794 16.5844 29.6162 16.6882 29.6414 16.7792C29.6541 16.8702 29.7426 16.935 29.8312 16.922L32.4237 16.4025C32.5122 16.3765 32.5754 16.2856 32.5502 16.1946Z" fill="white"/>
<path d="M31.2477 17.7792C31.235 17.6753 31.2982 17.5843 31.3994 17.5713L32.5628 17.4284C32.664 17.4155 32.7526 17.4934 32.7651 17.5974C32.7778 17.7013 32.7146 17.7922 32.6134 17.8052L31.4499 17.948C31.3614 17.961 31.2602 17.8831 31.2476 17.7792H31.2477Z" fill="#F3F3F3"/>
<path d="M31.2348 17.7791C31.2221 17.6622 31.298 17.5583 31.3991 17.5453L32.5625 17.4025C32.6636 17.3895 32.7648 17.4674 32.7775 17.5843C32.7901 17.7012 32.7143 17.8051 32.6131 17.8181L31.4496 17.9609C31.3486 17.9739 31.2473 17.896 31.2348 17.7791ZM32.7648 17.5973C32.7523 17.5064 32.6638 17.4284 32.5751 17.4414L31.4118 17.5843C31.3233 17.5973 31.26 17.6882 31.2726 17.7791C31.2853 17.87 31.3738 17.948 31.4623 17.935L32.6258 17.7921C32.7143 17.7791 32.7775 17.6882 32.7649 17.5973H32.7648Z" fill="white"/>
<path d="M29.8311 19.039C29.8311 18.9351 29.9068 18.8442 30.0081 18.8442H32.6512C32.7524 18.8442 32.8282 18.9351 32.8282 19.039C32.8282 19.1429 32.7524 19.2338 32.6512 19.2338H30.0081C29.9069 19.2338 29.8311 19.1429 29.8311 19.039Z" fill="#F3F3F3"/>
<path d="M29.8184 19.0391C29.8184 18.9222 29.9069 18.8313 30.008 18.8313H32.6512C32.7523 18.8313 32.8409 18.9222 32.8409 19.0391C32.8409 19.156 32.7523 19.2469 32.6512 19.2469H30.008C29.9069 19.2469 29.8184 19.156 29.8184 19.0391ZM32.8155 19.0521C32.8155 18.9612 32.7397 18.8703 32.651 18.8703H30.0082C29.9197 18.8703 29.8437 18.9481 29.8437 19.0521C29.8437 19.143 29.9197 19.2339 30.0082 19.2339H32.6513C32.7398 19.2209 32.8157 19.143 32.8157 19.0521H32.8155Z" fill="white"/>
<path d="M31.2355 20.3507C31.248 20.2468 31.324 20.1689 31.4252 20.1689L32.6013 20.2598C32.7023 20.2729 32.7782 20.3638 32.7655 20.4677C32.753 20.5716 32.677 20.6495 32.5758 20.6495L31.3998 20.5586C31.3113 20.5456 31.2354 20.4547 31.2354 20.3507H31.2355Z" fill="#F3F3F3"/>
<path d="M31.2227 20.3508C31.2353 20.2339 31.3238 20.156 31.425 20.156L32.6013 20.2469C32.7024 20.2599 32.7909 20.3508 32.7782 20.4677C32.7657 20.5846 32.6771 20.6625 32.5759 20.6625L31.3997 20.5716C31.2985 20.5586 31.2227 20.4547 31.2227 20.3508ZM32.7657 20.4677C32.7782 20.3768 32.7024 20.2859 32.6139 20.2859L31.4376 20.195C31.3492 20.195 31.2732 20.2599 31.2605 20.364C31.248 20.4547 31.3238 20.5456 31.4124 20.5456L32.5887 20.6365C32.6771 20.6365 32.753 20.5588 32.7657 20.4677V20.4677Z" fill="white"/>
<path d="M29.6042 21.2991C29.6295 21.1952 29.718 21.1301 29.8192 21.1433L32.4117 21.6758C32.5129 21.7017 32.5762 21.7926 32.5508 21.8965C32.5255 22.0004 32.437 22.0654 32.3358 22.0524L29.7432 21.5199C29.6547 21.5069 29.5915 21.403 29.6042 21.2991V21.2991Z" fill="#F3F3F3"/>
<path d="M29.5905 21.2989C29.6158 21.182 29.717 21.1172 29.8182 21.13L32.4108 21.6626C32.512 21.6885 32.5879 21.7924 32.5625 21.9093C32.5373 22.0262 32.4362 22.0912 32.335 22.0782L29.7422 21.5457C29.641 21.5197 29.5778 21.4158 29.5905 21.2991V21.2989ZM32.5373 21.9093C32.55 21.8184 32.4995 21.7275 32.4108 21.7015L29.818 21.169C29.7296 21.1562 29.641 21.2081 29.6157 21.3119C29.6031 21.4028 29.6537 21.4937 29.7423 21.5197L32.335 22.0522C32.4362 22.0652 32.512 22.0002 32.5373 21.9093Z" fill="white"/>
<path d="M30.7419 22.8574C30.7477 22.8327 30.7582 22.8094 30.7728 22.7889C30.7873 22.7683 30.8057 22.7509 30.8269 22.7376C30.848 22.7244 30.8715 22.7155 30.8959 22.7116C30.9204 22.7076 30.9454 22.7087 30.9694 22.7146L32.1076 23.0393C32.2088 23.0653 32.2593 23.1693 32.2341 23.2731C32.2283 23.2979 32.2178 23.3212 32.2033 23.3418C32.1887 23.3624 32.1703 23.3798 32.1491 23.3931C32.128 23.4063 32.1045 23.4152 32.08 23.4191C32.0555 23.4231 32.0305 23.422 32.0065 23.416L30.8683 23.0913C30.7671 23.0653 30.7166 22.9614 30.7418 22.8574H30.7419Z" fill="#F3F3F3"/>
<path d="M30.7291 22.8576C30.7545 22.7537 30.8683 22.6758 30.9695 22.7148L32.1077 23.0394C32.2088 23.0654 32.2721 23.1823 32.2468 23.2862C32.2215 23.39 32.1077 23.4679 32.0065 23.4291L30.8683 23.1044C30.7671 23.0784 30.7038 22.9745 30.7293 22.8577L30.7291 22.8576ZM32.2088 23.2862C32.2342 23.1953 32.1835 23.0914 32.095 23.0654L30.9568 22.7407C30.8683 22.7147 30.7798 22.7667 30.7545 22.8706C30.7293 22.9615 30.7798 23.0654 30.8683 23.0914L32.0065 23.416C32.095 23.4291 32.1835 23.3772 32.2088 23.2862Z" fill="white"/>
<path d="M28.9588 23.4811C28.9966 23.3771 29.1106 23.3381 29.199 23.3771L31.6398 24.4162C31.7283 24.455 31.7788 24.5721 31.741 24.6629C31.703 24.7669 31.5892 24.8058 31.5007 24.7669L29.06 23.7279C28.9588 23.689 28.9208 23.5719 28.9588 23.4812V23.4811Z" fill="#F3F3F3"/>
<path d="M28.946 23.4681C28.9646 23.4182 29.0016 23.3778 29.049 23.3559C29.0964 23.334 29.1504 23.3323 29.199 23.3511L31.6397 24.3902C31.7409 24.4293 31.7788 24.5462 31.7409 24.6631C31.7224 24.713 31.6854 24.7533 31.6379 24.7753C31.5905 24.7972 31.5366 24.7989 31.4879 24.78L29.0472 23.7409C28.946 23.6889 28.9082 23.572 28.946 23.4681ZM31.7156 24.6501C31.7534 24.5592 31.7156 24.4553 31.6271 24.4163L29.1864 23.3772C29.0979 23.3383 29.0093 23.3902 28.9714 23.4811C28.9335 23.572 28.9714 23.6759 29.0599 23.7149L31.5006 24.754C31.5891 24.78 31.6903 24.741 31.7156 24.6501Z" fill="white"/>
<path d="M29.7805 25.2344C29.8311 25.1435 29.9322 25.1045 30.0207 25.1435L31.0702 25.6891C31.1587 25.7279 31.1967 25.8449 31.1462 25.9488C31.0955 26.0397 30.9944 26.0788 30.9059 26.0397L29.8565 25.4942C29.7678 25.4422 29.7299 25.3253 29.7805 25.2344Z" fill="#F3F3F3"/>
<path d="M29.7684 25.2215C29.819 25.1175 29.9329 25.0787 30.034 25.1306L31.0836 25.6761C31.1848 25.7281 31.2228 25.845 31.1722 25.9488C31.1216 26.0527 31.0077 26.0917 30.9066 26.0397L29.857 25.4943C29.7557 25.4554 29.7179 25.3254 29.7684 25.2215V25.2215ZM31.1343 25.9358C31.1722 25.8449 31.1468 25.741 31.0583 25.7021L30.0087 25.1566C29.9327 25.1177 29.8317 25.1566 29.781 25.2345C29.7432 25.3254 29.7684 25.4293 29.8569 25.4683L30.9065 26.0138C30.9951 26.0527 31.0963 26.0268 31.1343 25.9358Z" fill="white"/>
<path d="M27.9218 25.4811C27.9851 25.3902 28.0863 25.3642 28.1748 25.4291L30.3753 26.9358C30.4638 26.9877 30.4765 27.1047 30.426 27.1955C30.3626 27.2865 30.2615 27.3124 30.173 27.2475L27.9725 25.7408C27.8839 25.6759 27.8586 25.559 27.9218 25.4811Z" fill="#F3F3F3"/>
<path d="M27.9087 25.4681C27.972 25.3772 28.0985 25.3512 28.1871 25.4032L30.3876 26.9098C30.4761 26.9747 30.5014 27.0916 30.4381 27.1955C30.3749 27.2865 30.2484 27.3124 30.1601 27.2605L27.9594 25.7538C27.8582 25.6889 27.8455 25.559 27.9087 25.4681ZM30.4003 27.1825C30.4508 27.1047 30.4381 26.9877 30.3624 26.9358L28.1617 25.4291C28.0859 25.3772 27.9847 25.4032 27.9341 25.4811C27.8835 25.559 27.8962 25.6759 27.9719 25.7278L30.1726 27.2345C30.2484 27.2865 30.3496 27.2605 30.4003 27.1826V27.1825Z" fill="white"/>
<path d="M28.3891 27.3646C28.4523 27.2866 28.5662 27.2607 28.642 27.3257L29.5652 28.066C29.6411 28.1308 29.6538 28.2478 29.5906 28.3258C29.5274 28.4036 29.4135 28.4297 29.3376 28.3647L28.4143 27.6243C28.3386 27.5594 28.3258 27.4425 28.3891 27.3646V27.3646Z" fill="#F3F3F3"/>
<path d="M28.3774 27.3515C28.4406 27.2606 28.5671 27.2476 28.6556 27.3126L29.5788 28.0529C29.6673 28.1177 29.6799 28.2477 29.6166 28.3386C29.5534 28.4296 29.4269 28.4425 29.3386 28.3776L28.4153 27.6372C28.3268 27.5723 28.3142 27.4424 28.3774 27.3515ZM29.5914 28.3257C29.6546 28.2477 29.6419 28.1438 29.5661 28.0789L28.6429 27.3385C28.5671 27.2866 28.4659 27.2996 28.4027 27.3774C28.3394 27.4554 28.3521 27.5593 28.4279 27.6242L29.3511 28.3646C29.4269 28.4166 29.5281 28.4035 29.5913 28.3257H29.5914Z" fill="white"/>
<path d="M26.5054 27.2347C26.5814 27.1568 26.6952 27.1568 26.7584 27.2347L28.6301 29.1439C28.706 29.2219 28.6934 29.3388 28.6301 29.4037C28.5543 29.4816 28.4404 29.4816 28.3772 29.4037L26.5054 27.4945C26.4422 27.4295 26.4422 27.2996 26.5054 27.2347V27.2347Z" fill="#F3F3F3"/>
<path d="M26.5049 27.2216C26.542 27.1841 26.592 27.1631 26.644 27.1631C26.6961 27.1631 26.7461 27.1841 26.7832 27.2216L28.6549 29.1307C28.6914 29.1689 28.7119 29.2202 28.7119 29.2737C28.7119 29.3271 28.6914 29.3785 28.6549 29.4166C28.6178 29.454 28.5678 29.475 28.5158 29.475C28.4637 29.475 28.4138 29.454 28.3767 29.4166L26.5049 27.5074C26.4163 27.4294 26.4163 27.2996 26.5049 27.2216ZM28.6296 29.3906C28.6929 29.3257 28.6929 29.2088 28.6296 29.1439L26.7579 27.2346C26.6947 27.1697 26.5808 27.1697 26.5177 27.2346C26.4543 27.2995 26.4543 27.4164 26.5177 27.4813L28.3893 29.3906C28.4525 29.4686 28.5538 29.4686 28.6296 29.3906Z" fill="white"/>
<path d="M26.6195 29.1697C26.6955 29.1048 26.8092 29.1048 26.8725 29.1827L27.644 30.0919C27.7071 30.1699 27.6945 30.2868 27.6186 30.3517C27.5429 30.4166 27.4289 30.4166 27.3657 30.3387L26.5942 29.4296C26.531 29.3647 26.5436 29.2477 26.6195 29.1697V29.1697Z" fill="#F3F3F3"/>
<path d="M26.6062 29.1699C26.6947 29.0922 26.8086 29.1051 26.8843 29.183L27.6558 30.0921C27.7316 30.1701 27.719 30.2999 27.6305 30.3779C27.5419 30.4558 27.4281 30.4428 27.3523 30.3649L26.5808 29.4558C26.5176 29.3649 26.5176 29.235 26.6061 29.1699H26.6062ZM27.6179 30.3519C27.6936 30.287 27.6936 30.183 27.6431 30.1052L26.8716 29.196C26.8084 29.1311 26.7073 29.1181 26.6314 29.183C26.5556 29.248 26.5556 29.3519 26.6061 29.4296L27.3776 30.3389C27.4408 30.4168 27.5421 30.4168 27.6178 30.3519H27.6179Z" fill="white"/>
<path d="M24.7977 28.6764C24.8862 28.6115 25.0001 28.6375 25.0507 28.7284L26.5176 30.9753C26.5683 31.0662 26.543 31.1831 26.4671 31.2351C26.3786 31.3 26.2647 31.274 26.2141 31.1831L24.7471 28.9361C24.6964 28.8453 24.7217 28.7283 24.7976 28.6764H24.7977Z" fill="#F3F3F3"/>
<path d="M24.7978 28.6632C24.8863 28.5983 25.0128 28.6243 25.076 28.7152L26.5429 30.9622C26.6061 31.0529 26.5808 31.1828 26.4797 31.2477C26.3911 31.3127 26.2647 31.2867 26.2014 31.1958L24.7346 28.9489C24.6714 28.8451 24.6968 28.7282 24.7978 28.6634V28.6632ZM26.4671 31.2218C26.5429 31.1698 26.5682 31.0659 26.5176 30.988L25.0508 28.7411C25.0001 28.6634 24.899 28.6502 24.8106 28.7022C24.7346 28.7541 24.7093 28.858 24.76 28.936L26.2268 31.1828C26.2774 31.2477 26.3912 31.2737 26.4669 31.2217L26.4671 31.2218Z" fill="white"/>
<path d="M24.5324 30.5984C24.6209 30.5466 24.7347 30.5726 24.7853 30.6635L25.3671 31.7155C25.4176 31.8065 25.3796 31.9234 25.2911 31.9753C25.2026 32.0273 25.0888 32.0013 25.0382 31.9104L24.4566 30.8583C24.4186 30.7674 24.4439 30.6505 24.5323 30.5986L24.5324 30.5984Z" fill="#F3F3F3"/>
<path d="M24.5328 30.5856C24.634 30.5336 24.7478 30.5596 24.7984 30.6505L25.3801 31.7027C25.4307 31.7936 25.4054 31.9235 25.3043 31.9754C25.203 32.0274 25.0892 32.0014 25.0387 31.9105L24.457 30.8583C24.4063 30.7674 24.4317 30.6505 24.5327 30.5856H24.5328ZM25.2915 31.9625C25.3675 31.9105 25.4054 31.8066 25.3549 31.7287L24.7732 30.6765C24.7225 30.5986 24.6213 30.5726 24.5455 30.6115C24.4695 30.6635 24.4317 30.7674 24.4822 30.8453L25.064 31.8975C25.1019 31.9754 25.2157 32.0144 25.2915 31.9624V31.9625Z" fill="white"/>
<path d="M22.8501 29.7413C22.9513 29.7024 23.0525 29.7413 23.0905 29.8322L24.1149 32.3389C24.1527 32.4298 24.1022 32.5467 24.0137 32.5856C23.9252 32.6246 23.8114 32.5856 23.7735 32.4947L22.7491 29.9882C22.7111 29.8971 22.7616 29.7803 22.8501 29.7413Z" fill="#F3F3F3"/>
<path d="M22.8499 29.7284C22.9511 29.6895 23.0649 29.7284 23.1156 29.8323L24.1399 32.3391C24.1583 32.389 24.1566 32.4444 24.1352 32.4931C24.1139 32.5417 24.0747 32.5797 24.0261 32.5988C23.9249 32.6378 23.8111 32.5988 23.7606 32.4949L22.7362 29.9882C22.6983 29.8972 22.7489 29.7804 22.8499 29.7284V29.7284ZM24.0008 32.5729C24.0893 32.5339 24.1273 32.43 24.0893 32.3521L23.0649 29.8453C23.0271 29.7544 22.9259 29.7154 22.8374 29.7544C22.7489 29.7933 22.7108 29.8972 22.7489 29.9752L23.7731 32.482C23.8238 32.5729 23.9123 32.6118 24.0008 32.5729Z" fill="white"/>
<path d="M22.2308 31.5857C22.3321 31.5468 22.4331 31.5987 22.4711 31.7026L22.8379 32.8456C22.8758 32.9365 22.8126 33.0534 22.7241 33.0794C22.6229 33.1183 22.5217 33.0664 22.4839 32.9625L22.1171 31.8195C22.0792 31.7286 22.1297 31.6247 22.2309 31.5857H22.2308Z" fill="#F3F3F3"/>
<path d="M22.2179 31.5728C22.2666 31.554 22.3205 31.5557 22.3679 31.5776C22.4153 31.5995 22.4523 31.6398 22.4708 31.6897L22.8377 32.8326C22.8756 32.9365 22.8124 33.0534 22.7111 33.0924C22.6624 33.1112 22.6085 33.1095 22.5611 33.0876C22.5137 33.0657 22.4767 33.0254 22.4582 32.9755L22.0914 31.8326C22.0661 31.7287 22.1167 31.6118 22.2179 31.5728ZM22.7112 33.0663C22.7997 33.0404 22.8502 32.9365 22.825 32.8456L22.4582 31.7027C22.433 31.6118 22.3318 31.5728 22.2433 31.5988C22.1546 31.6248 22.1041 31.7287 22.1294 31.8196L22.4962 32.9625C22.5026 32.9846 22.5135 33.005 22.5281 33.0224C22.5428 33.0398 22.5608 33.0539 22.5811 33.0637C22.6014 33.0735 22.6235 33.0788 22.6459 33.0793C22.6683 33.0798 22.6905 33.0754 22.7112 33.0664V33.0663Z" fill="white"/>
<path d="M20.7385 30.4039C20.8396 30.3779 20.9409 30.4428 20.9534 30.5467L21.4847 33.2095C21.51 33.3133 21.434 33.4043 21.3328 33.4302C21.2318 33.4562 21.1305 33.3913 21.1179 33.2874L20.5865 30.6246C20.574 30.5337 20.6372 30.4298 20.7384 30.4038L20.7385 30.4039Z" fill="#F3F3F3"/>
<path d="M20.7385 30.3905C20.8522 30.3646 20.9533 30.4425 20.9786 30.5464L21.5098 33.2093C21.5351 33.3131 21.4591 33.43 21.358 33.4431C21.2441 33.4691 21.143 33.3912 21.1178 33.2872L20.5865 30.6243C20.5614 30.5204 20.6247 30.4165 20.7383 30.3906L20.7385 30.3905ZM21.3326 33.417C21.4213 33.4042 21.4844 33.3131 21.4718 33.2092L20.9407 30.5464C20.9281 30.4555 20.827 30.3906 20.7383 30.4165C20.6499 30.4295 20.5867 30.5204 20.5993 30.6243L21.1304 33.2872C21.1556 33.3782 21.2441 33.43 21.3328 33.4172L21.3326 33.417Z" fill="white"/>
<path d="M19.7771 32.0922C19.8782 32.0792 19.9667 32.1442 19.9921 32.2481L20.1437 33.443C20.1564 33.5469 20.0806 33.6378 19.9793 33.6508C19.8782 33.6638 19.7897 33.5989 19.7644 33.495L19.6127 32.3C19.6 32.1961 19.6759 32.1052 19.7771 32.0922Z" fill="#F3F3F3"/>
<path d="M19.7771 32.0793C19.891 32.0664 19.9922 32.1443 20.0049 32.2482L20.1566 33.4431C20.1693 33.547 20.0934 33.6509 19.9795 33.664C19.8657 33.677 19.7644 33.5991 19.7518 33.495L19.6 32.3001C19.5873 32.1962 19.6632 32.0923 19.7771 32.0793ZM19.9669 33.6379C20.0554 33.6251 20.1314 33.534 20.1188 33.4431L19.9669 32.2482C19.9542 32.1573 19.8657 32.0923 19.7771 32.1053C19.6886 32.1183 19.6125 32.2092 19.6252 32.3001L19.7771 33.4951C19.7898 33.5861 19.8783 33.6509 19.9669 33.6379Z" fill="white"/>
<path d="M18.4748 30.6375C18.576 30.6375 18.6645 30.7155 18.6645 30.8194V33.5339C18.6645 33.6378 18.576 33.7158 18.4748 33.7158C18.3737 33.7158 18.2852 33.6378 18.2852 33.5339V30.8194C18.2978 30.7155 18.3737 30.6375 18.4748 30.6375Z" fill="#F3F3F3"/>
<path d="M18.4748 30.6243C18.5886 30.6243 18.6771 30.7152 18.6771 30.8191V33.5336C18.6771 33.6376 18.5886 33.7285 18.4748 33.7285C18.361 33.7285 18.2725 33.6376 18.2725 33.5336V30.8192C18.2725 30.7153 18.3736 30.6243 18.4748 30.6243ZM18.4748 33.7026C18.5633 33.7026 18.6518 33.6247 18.6518 33.5336V30.8192C18.6518 30.7282 18.576 30.6503 18.4748 30.6503C18.3863 30.6503 18.2978 30.7282 18.2978 30.8192V33.5336C18.3103 33.6247 18.3863 33.7026 18.4748 33.7026Z" fill="white"/>
<path d="M17.2098 32.0922C17.311 32.1052 17.3868 32.1831 17.3868 32.287L17.2983 33.495C17.2858 33.5989 17.1971 33.6768 17.096 33.664C16.9948 33.6508 16.9189 33.5729 16.9189 33.469L17.0075 32.261C17.0201 32.1573 17.1086 32.0792 17.2098 32.0922Z" fill="#F3F3F3"/>
<path d="M17.2098 32.0793C17.3236 32.0923 17.3994 32.1832 17.3994 32.2871L17.3109 33.4951C17.2983 33.599 17.2098 33.6899 17.0959 33.6769C16.9822 33.6639 16.9062 33.573 16.9062 33.4691L16.9948 32.2611C17.0074 32.1443 17.0959 32.0664 17.2098 32.0793ZM17.0959 33.6509C17.1844 33.6509 17.2731 33.586 17.2731 33.4951L17.3616 32.2871C17.3616 32.1962 17.2983 32.1183 17.1971 32.1053C17.1086 32.1053 17.0201 32.1702 17.0201 32.2612L16.9316 33.4691C16.9316 33.56 17.0074 33.6381 17.0961 33.6509H17.0959Z" fill="white"/>
<path d="M16.2615 30.4038C16.3626 30.4296 16.4258 30.5205 16.4132 30.6245L15.8947 33.2874C15.8693 33.3913 15.7808 33.4563 15.6797 33.4302C15.5785 33.4043 15.5153 33.3134 15.528 33.2093L16.0465 30.5466C16.0591 30.4557 16.1603 30.3908 16.2615 30.4038Z" fill="#F3F3F3"/>
<path d="M16.2614 30.3905C16.3751 30.4165 16.4384 30.5205 16.4258 30.6243L15.9073 33.2871C15.8819 33.391 15.7808 33.4689 15.6671 33.4429C15.5532 33.4169 15.4899 33.3129 15.5026 33.209L16.0211 30.5464C16.0464 30.4425 16.1476 30.3775 16.2613 30.3906L16.2614 30.3905ZM15.6671 33.4169C15.7556 33.4299 15.8441 33.378 15.8694 33.2871L16.3878 30.6243C16.4005 30.5334 16.3499 30.4425 16.2488 30.4165C16.1603 30.4036 16.0717 30.4555 16.0464 30.5465L15.5279 33.209C15.5152 33.3129 15.5784 33.391 15.6671 33.4169V33.4169Z" fill="white"/>
<path d="M14.7443 31.5727C14.8456 31.5988 14.9088 31.7026 14.8835 31.8065L14.5673 32.9754C14.5421 33.0793 14.4409 33.1312 14.3398 33.1053C14.3157 33.0994 14.293 33.0886 14.2729 33.0736C14.2529 33.0586 14.2359 33.0397 14.223 33.018C14.2101 32.9963 14.2014 32.9722 14.1976 32.9471C14.1937 32.9219 14.1948 32.8962 14.2006 32.8715L14.5168 31.7026C14.5421 31.5987 14.6433 31.5469 14.7445 31.5727H14.7443Z" fill="#F3F3F3"/>
<path d="M14.744 31.5598C14.8453 31.5857 14.9211 31.7026 14.8832 31.8065L14.567 32.9755C14.5418 33.0794 14.428 33.1444 14.3268 33.1183C14.2256 33.0924 14.1498 32.9755 14.1876 32.8716L14.5038 31.7026C14.5291 31.5987 14.6303 31.5337 14.744 31.5597V31.5598ZM14.3268 33.0794C14.4153 33.1054 14.5165 33.0534 14.5418 32.9625L14.8578 31.7935C14.8832 31.7026 14.8326 31.6117 14.7315 31.5857C14.643 31.5597 14.5418 31.6117 14.5165 31.7026L14.2003 32.8716C14.1876 32.9625 14.2382 33.0534 14.3268 33.0794Z" fill="white"/>
<path d="M14.1242 29.7414C14.2253 29.7803 14.2632 29.8972 14.2253 29.9881L13.2136 32.4948C13.1758 32.5859 13.0618 32.6378 12.9734 32.5859C12.8848 32.5339 12.8341 32.4299 12.8721 32.339L13.8838 29.8323C13.9217 29.7414 14.0356 29.6894 14.124 29.7414H14.1242Z" fill="#F3F3F3"/>
<path d="M14.124 29.7284C14.1726 29.7474 14.2119 29.7854 14.2332 29.8341C14.2546 29.8828 14.2562 29.9382 14.2378 29.9882L13.2261 32.4948C13.1881 32.5987 13.0743 32.6377 12.9604 32.5987C12.9119 32.5797 12.8726 32.5417 12.8513 32.493C12.83 32.4443 12.8283 32.3889 12.8466 32.339L13.8583 29.8323C13.909 29.7284 14.0228 29.6765 14.124 29.7284V29.7284ZM12.9731 32.5728C13.0616 32.6117 13.1628 32.5728 13.2008 32.4819L14.2125 29.9752C14.2504 29.8843 14.1999 29.7933 14.1113 29.7544C14.0228 29.7155 13.9217 29.7544 13.8837 29.8453L12.8719 32.352C12.8466 32.4299 12.8846 32.5338 12.9731 32.5728Z" fill="white"/>
<path d="M12.4169 30.5729C12.5054 30.6247 12.5433 30.7286 12.5054 30.8195L11.9743 31.8974C11.9236 31.9883 11.8225 32.0273 11.7213 31.9753C11.6328 31.9234 11.5949 31.8195 11.6328 31.7286L12.1641 30.6509C12.2146 30.5599 12.3158 30.5208 12.4169 30.5729Z" fill="#F3F3F3"/>
<path d="M12.4177 30.5597C12.5188 30.6116 12.5567 30.7287 12.5062 30.8324L11.975 31.9104C11.9244 32.0143 11.8105 32.0533 11.7095 32.0013C11.6083 31.9494 11.5703 31.8324 11.621 31.7286L12.152 30.6508C12.2027 30.5467 12.3165 30.5079 12.4177 30.5597ZM11.7221 31.9754C11.8107 32.0143 11.9118 31.9883 11.9497 31.8974L12.4809 30.8196C12.5187 30.7415 12.4809 30.6376 12.405 30.5858C12.3165 30.5469 12.2153 30.5727 12.1773 30.6636L11.6462 31.7415C11.6083 31.8195 11.6462 31.9234 11.7221 31.9753V31.9754Z" fill="white"/>
<path d="M12.1642 28.6504C12.2527 28.7153 12.278 28.8322 12.2148 28.9101L10.7478 31.1574C10.6973 31.2482 10.5833 31.2612 10.4949 31.2093C10.4064 31.1442 10.3811 31.0275 10.4443 30.9494L11.9113 28.7022C11.9618 28.6114 12.0757 28.5854 12.1642 28.6503V28.6504Z" fill="#F3F3F3"/>
<path d="M12.1646 28.6373C12.2531 28.7024 12.2784 28.8323 12.2278 28.9232L10.7608 31.1703C10.6976 31.261 10.5838 31.2871 10.4826 31.2222C10.3941 31.1571 10.3688 31.0274 10.4193 30.9363L11.8864 28.6894C11.9496 28.5985 12.0761 28.5725 12.1646 28.6373V28.6373ZM10.4953 31.1962C10.571 31.248 10.6849 31.235 10.7355 31.1573L12.2026 28.9102C12.2531 28.8323 12.2279 28.7284 12.1519 28.6764C12.0761 28.6245 11.9622 28.6375 11.9117 28.7152L10.4446 30.9493C10.3941 31.0274 10.4193 31.1441 10.4953 31.196V31.1962Z" fill="white"/>
<path d="M10.318 29.131C10.394 29.1958 10.4192 29.3128 10.356 29.3906L9.62251 30.3388C9.55933 30.4167 9.44549 30.4297 9.36965 30.3648C9.2938 30.2999 9.26848 30.183 9.33179 30.105L10.0652 29.1568C10.1284 29.0791 10.2422 29.0659 10.318 29.131Z" fill="#F3F3F3"/>
<path d="M10.3305 29.1178C10.419 29.1827 10.4317 29.3127 10.3683 29.4036L9.63493 30.3518C9.57175 30.4427 9.44525 30.4557 9.35674 30.3778C9.26823 30.3127 9.25556 30.183 9.31888 30.0919L10.0523 29.1438C10.1155 29.0528 10.242 29.0399 10.3305 29.1178ZM9.38206 30.3518C9.45778 30.4166 9.55908 30.4038 9.62227 30.3257L10.3558 29.3775C10.4065 29.2998 10.3937 29.1957 10.3179 29.1308C10.242 29.0658 10.1408 29.0788 10.0776 29.1569L9.34407 30.1049C9.29355 30.183 9.30622 30.2997 9.38193 30.3518H9.38206Z" fill="white"/>
<path d="M10.4444 27.1828C10.5202 27.2606 10.5202 27.3776 10.4444 27.4425L8.57281 29.3517C8.49683 29.4297 8.38313 29.4167 8.31982 29.3517C8.25664 29.2868 8.24398 29.1569 8.31982 29.092L10.1787 27.1828C10.2547 27.1048 10.3685 27.1048 10.4444 27.1828V27.1828Z" fill="#F3F3F3"/>
<path d="M10.4567 27.1698C10.4931 27.2079 10.5136 27.2592 10.5136 27.3126C10.5136 27.366 10.4931 27.4173 10.4567 27.4554L8.58503 29.3649C8.54792 29.4023 8.498 29.4233 8.446 29.4233C8.394 29.4233 8.34408 29.4023 8.30698 29.3649C8.27046 29.3268 8.25 29.2754 8.25 29.2219C8.25 29.1685 8.27046 29.1171 8.30698 29.079L10.1785 27.1698C10.2156 27.1323 10.2656 27.1113 10.3176 27.1113C10.3697 27.1113 10.4196 27.1323 10.4567 27.1698V27.1698ZM8.31951 29.3517C8.38269 29.4166 8.49652 29.4166 8.5597 29.3517L10.4314 27.4424C10.4947 27.3775 10.4947 27.2606 10.4314 27.1957C10.3682 27.1306 10.2544 27.1306 10.1912 27.1957L8.31951 29.1049C8.25633 29.1698 8.25633 29.2738 8.31951 29.3516V29.3517Z" fill="white"/>
<path d="M8.54735 27.2866C8.61053 27.3644 8.61053 27.4815 8.53468 27.5464L7.6368 28.3258C7.56095 28.3907 7.44712 28.3777 7.3838 28.2998C7.32062 28.2217 7.32062 28.105 7.39647 28.0399L8.29435 27.2606C8.37033 27.1956 8.48403 27.2086 8.54735 27.2866Z" fill="#F3F3F3"/>
<path d="M8.56012 27.2735C8.63596 27.3646 8.6233 27.4943 8.54745 27.5594L7.64956 28.3385C7.57372 28.4166 7.44722 28.4036 7.37137 28.3127C7.29539 28.2216 7.30806 28.0919 7.3839 28.0268L8.28192 27.2477C8.35764 27.1698 8.48427 27.1828 8.55998 27.2737L8.56012 27.2735ZM7.39657 28.2997C7.45988 28.3775 7.56105 28.3775 7.63677 28.3257L8.53479 27.5464C8.59797 27.4815 8.61064 27.3774 8.54745 27.2997C8.48414 27.2217 8.38297 27.2217 8.30725 27.2737L7.40923 28.0528C7.33338 28.1177 7.33338 28.2218 7.39657 28.2995V28.2997Z" fill="white"/>
<path d="M9.0528 25.4161C9.11599 25.5071 9.09066 25.6239 9.00215 25.6759L6.80171 27.1825C6.7132 27.2344 6.59937 27.2084 6.54885 27.1305C6.48554 27.0396 6.51086 26.9227 6.59937 26.8707L8.79994 25.3642C8.87592 25.3123 8.98962 25.3382 9.05293 25.4161H9.0528Z" fill="#F3F3F3"/>
<path d="M9.06536 25.4162C9.12854 25.5072 9.10322 25.637 9.01471 25.702L6.8143 27.2086C6.7258 27.2736 6.5993 27.2474 6.53612 27.1437C6.47281 27.0528 6.49826 26.9228 6.58664 26.858L8.78718 25.3513C8.87569 25.2864 9.00205 25.3124 9.06523 25.4162H9.06536ZM6.56144 27.1177C6.61196 27.1955 6.71313 27.2216 6.78898 27.1697L8.98939 25.663C9.06536 25.6111 9.09056 25.5072 9.02737 25.4163C8.97685 25.3383 8.87569 25.3124 8.79971 25.3643L6.5993 26.871C6.52346 26.9359 6.51079 27.0398 6.56144 27.1177V27.1177Z" fill="white"/>
<path d="M7.169 25.1434C7.21965 25.2343 7.19433 25.3512 7.10582 25.4032L6.08142 26.0006C5.99291 26.0525 5.87908 26.0136 5.82856 25.9227C5.7779 25.8318 5.80323 25.7149 5.89174 25.6629L6.91613 25.0655C7.00464 25.0135 7.11848 25.0525 7.16913 25.1434H7.169Z" fill="#F3F3F3"/>
<path d="M7.18176 25.1305C7.23228 25.2344 7.20695 25.3513 7.11845 25.4033L6.09408 26.0007C6.00557 26.0526 5.87907 26.0137 5.82855 25.9228C5.7779 25.8189 5.80323 25.702 5.89174 25.65L6.91611 25.0526C7.00461 25.0006 7.13111 25.0396 7.18163 25.1305H7.18176ZM5.84109 25.9098C5.89174 26.0007 5.99291 26.0267 6.06875 25.9747L7.09312 25.3773C7.16897 25.3253 7.19429 25.2214 7.15643 25.1435C7.10578 25.0526 7.00461 25.0266 6.92877 25.0786L5.9044 25.676C5.82855 25.7149 5.80323 25.8189 5.84122 25.9098H5.84109Z" fill="white"/>
<path d="M8.01634 23.4161C8.0542 23.52 8.01634 23.6239 7.91517 23.6628L5.47438 24.7018C5.38587 24.7408 5.27204 24.6889 5.23418 24.5979C5.19619 24.494 5.23418 24.3901 5.33535 24.3512L7.77614 23.3121C7.86465 23.2733 7.97848 23.3121 8.01634 23.4161V23.4161Z" fill="#F3F3F3"/>
<path d="M8.029 23.4031C8.06686 23.507 8.029 23.6239 7.92783 23.6758L5.48704 24.7148C5.43841 24.7337 5.38449 24.7319 5.3371 24.71C5.28971 24.6881 5.2527 24.6478 5.23418 24.5979C5.19619 24.494 5.23418 24.3771 5.33535 24.3252L7.77614 23.2862C7.82477 23.2673 7.87869 23.2691 7.92608 23.291C7.97347 23.3129 8.01048 23.3532 8.029 23.4031V23.4031ZM5.25937 24.5849C5.29736 24.6759 5.39853 24.715 5.47438 24.6888L7.91517 23.6498C8.00368 23.6109 8.04167 23.507 8.00368 23.4161C7.96582 23.3252 7.86465 23.2862 7.78867 23.3122L5.34788 24.3512C5.25937 24.3901 5.22152 24.494 5.25937 24.585V24.5849Z" fill="white"/>
<path d="M6.23259 22.7665C6.27045 22.8704 6.21993 22.9743 6.11875 23.0132L5.00586 23.39C4.91735 23.4288 4.80351 23.3639 4.77819 23.273C4.74033 23.1691 4.79085 23.0652 4.89202 23.0264L6.00492 22.6496C6.09343 22.6107 6.1946 22.6626 6.23259 22.7665Z" fill="#F3F3F3"/>
<path d="M6.24489 22.7537C6.28288 22.8576 6.23236 22.9745 6.11852 23.0136L5.00565 23.3902C4.90447 23.4291 4.79064 23.3642 4.75265 23.2603C4.7148 23.1564 4.76532 23.0394 4.87928 23.0006L5.99203 22.6238C6.0932 22.5979 6.20703 22.6498 6.24502 22.7538L6.24489 22.7537ZM4.77811 23.2474C4.80343 23.3383 4.90461 23.3903 4.99311 23.3643L6.10599 22.9875C6.1945 22.9617 6.23249 22.8578 6.20716 22.7668C6.18184 22.6759 6.08067 22.6239 5.99216 22.6499L4.87928 23.0267C4.79077 23.0656 4.75278 23.1565 4.77811 23.2474Z" fill="white"/>
<path d="M7.37117 21.221C7.39636 21.3249 7.33318 21.4288 7.23201 21.4418L4.63941 21.9614C4.53824 21.9874 4.44973 21.9093 4.42454 21.8054C4.39921 21.7015 4.4624 21.5976 4.56357 21.5846L7.15616 21.0651C7.25733 21.0522 7.3585 21.1171 7.37104 21.221H7.37117Z" fill="#F3F3F3"/>
<path d="M7.39668 21.2212C7.422 21.3381 7.34616 21.442 7.24499 21.4679L4.65238 21.9874C4.5512 22.0134 4.45003 21.9355 4.42484 21.8186C4.39951 21.7017 4.47536 21.5978 4.57653 21.5719L7.16914 21.0524C7.27018 21.0264 7.37148 21.1043 7.39668 21.2212ZM4.45003 21.8057C4.46269 21.8965 4.5512 21.9615 4.63971 21.9485L7.23232 21.429C7.32083 21.416 7.38402 21.3121 7.35882 21.2212C7.34616 21.1303 7.25765 21.0653 7.16901 21.0783L4.57653 21.5978C4.48802 21.6238 4.42484 21.7147 4.45003 21.8056V21.8057Z" fill="white"/>
<path d="M5.75258 20.2212C5.76512 20.325 5.70193 20.416 5.60076 20.429L4.43735 20.5718C4.33605 20.5849 4.24754 20.5069 4.23501 20.4029C4.22234 20.2991 4.28553 20.2082 4.3867 20.195L5.55024 20.0522C5.63875 20.0392 5.73992 20.1171 5.75258 20.2212Z" fill="#F3F3F3"/>
<path d="M5.76499 20.2209C5.77752 20.3377 5.70168 20.4416 5.6005 20.4546L4.43709 20.5975C4.33579 20.6105 4.23475 20.5326 4.22209 20.4157C4.20942 20.2988 4.28527 20.1949 4.38644 20.1819L5.54998 20.039C5.65102 20.026 5.75233 20.104 5.76486 20.2208L5.76499 20.2209ZM4.23462 20.4027C4.24728 20.4936 4.33592 20.5716 4.42443 20.5585L5.58784 20.4157C5.67635 20.4027 5.73966 20.3118 5.727 20.2209C5.71434 20.1299 5.62583 20.052 5.53732 20.065L4.37378 20.2079C4.28527 20.2209 4.22209 20.3118 4.23462 20.4027V20.4027Z" fill="white"/>
<path d="M7.16889 18.9609C7.16889 19.0649 7.09318 19.1558 6.99188 19.1558H4.34889C4.24772 19.1558 4.17188 19.0649 4.17188 18.961C4.17188 18.8571 4.24772 18.7661 4.34889 18.7661H6.99201C7.09318 18.7661 7.16916 18.8571 7.16916 18.961L7.16889 18.9609Z" fill="#F3F3F3"/>
<path d="M7.18167 18.961C7.18167 19.078 7.09303 19.1688 6.99186 19.1688H4.34886C4.24769 19.1688 4.15918 19.0779 4.15918 18.961C4.15918 18.8442 4.24769 18.7532 4.34886 18.7532H6.99199C7.09316 18.7532 7.18167 18.8442 7.18167 18.961ZM4.18437 18.9481C4.18437 19.039 4.26022 19.1299 4.34886 19.1299H6.99186C7.08037 19.1299 7.15635 19.052 7.15635 18.9481C7.15635 18.8572 7.08037 18.7662 6.99186 18.7662H4.34886C4.26035 18.7792 4.18451 18.8572 4.18451 18.9481H4.18437Z" fill="white"/>
<path d="M5.76514 17.6493C5.75235 17.7532 5.6765 17.8311 5.57533 17.8311L4.39911 17.7402C4.29807 17.7272 4.22222 17.6363 4.23475 17.5324C4.24742 17.4285 4.3234 17.3506 4.42457 17.3506L5.60066 17.4415C5.68917 17.4545 5.76514 17.5454 5.76514 17.6493Z" fill="#E2E2E2"/>
<path d="M5.77734 17.6494C5.76468 17.7663 5.67617 17.8442 5.575 17.8442L4.3988 17.7533C4.29776 17.7403 4.20925 17.6494 4.22191 17.5325C4.23445 17.4157 4.32309 17.3376 4.42426 17.3376L5.60032 17.4285C5.7015 17.4416 5.77734 17.5455 5.77734 17.6494ZM4.23445 17.5325C4.22191 17.6234 4.29776 17.7144 4.38627 17.7144L5.56247 17.8053C5.65084 17.8053 5.72682 17.7403 5.73948 17.6364C5.75215 17.5455 5.67617 17.4546 5.58766 17.4546L4.41146 17.3637C4.32309 17.3637 4.24711 17.4416 4.23445 17.5326V17.5325Z" fill="white"/>
<path d="M7.39657 16.701C7.37124 16.8049 7.28273 16.8699 7.18156 16.8569L4.58908 16.3114C4.48791 16.2854 4.4246 16.1945 4.44992 16.0906C4.47525 15.9867 4.56376 15.9216 4.66493 15.9348L7.25754 16.4673C7.34605 16.4932 7.40923 16.5971 7.39657 16.701V16.701Z" fill="#F3F3F3"/>
<path d="M7.40936 16.701C7.38403 16.8179 7.28286 16.883 7.18169 16.87L4.58922 16.3374C4.48805 16.3114 4.41221 16.2075 4.43753 16.0907C4.46273 15.9737 4.5639 15.9088 4.66507 15.9218L7.25766 16.4543C7.35884 16.4804 7.42202 16.5843 7.40936 16.701V16.701ZM4.46273 16.0906C4.45006 16.1815 4.50058 16.2724 4.58922 16.2984L7.18182 16.8309C7.27033 16.844 7.35884 16.7921 7.38416 16.688C7.39669 16.5971 7.34617 16.5062 7.25753 16.4802L4.6652 15.9478C4.56403 15.9348 4.48818 15.9997 4.46286 16.0906H4.46273Z" fill="white"/>
<path d="M6.25857 15.1426C6.25277 15.1673 6.24227 15.1906 6.22769 15.2112C6.2131 15.2318 6.19471 15.2492 6.17356 15.2624C6.15241 15.2757 6.12893 15.2845 6.10445 15.2885C6.07997 15.2924 6.05498 15.2913 6.0309 15.2854L4.89267 14.9607C4.7915 14.9346 4.74098 14.8307 4.76617 14.7268C4.77198 14.7021 4.78248 14.6788 4.79706 14.6582C4.81165 14.6377 4.83004 14.6202 4.85119 14.607C4.87233 14.5937 4.89582 14.5849 4.9203 14.5809C4.94477 14.577 4.96977 14.5781 4.99385 14.5841L6.13208 14.9088C6.23325 14.9346 6.28377 15.0385 6.25857 15.1424V15.1426Z" fill="#F3F3F3"/>
<path d="M6.27124 15.1425C6.24604 15.2463 6.1322 15.3243 6.03103 15.2853L4.89279 14.9606C4.79162 14.9346 4.72831 14.8177 4.75363 14.7139C4.77896 14.6099 4.89279 14.532 4.99397 14.571L6.1322 14.8957C6.23338 14.9217 6.29669 15.0256 6.27124 15.1424V15.1425ZM4.79162 14.7137C4.76629 14.8047 4.81695 14.9086 4.90546 14.9345L6.04369 15.2592C6.1322 15.2852 6.22072 15.2332 6.24604 15.1293C6.27124 15.0384 6.22072 14.9345 6.1322 14.9086L4.99397 14.5839C4.90546 14.5709 4.81695 14.6228 4.79162 14.7138V14.7137Z" fill="white"/>
<path d="M8.04109 14.5192C8.00324 14.623 7.88927 14.662 7.80089 14.623L5.35998 13.5839C5.27147 13.5451 5.22095 13.4282 5.2588 13.3373C5.29679 13.2333 5.41063 13.1943 5.49914 13.2333L7.93992 14.2724C8.0411 14.3113 8.07908 14.4282 8.04109 14.5191V14.5192Z" fill="#F3F3F3"/>
<path d="M8.05351 14.532C8.03499 14.5819 7.99796 14.6223 7.95054 14.6442C7.90311 14.6661 7.84916 14.6678 7.80051 14.6489L5.35971 13.6099C5.25854 13.571 5.22068 13.4541 5.25854 13.3372C5.27706 13.2873 5.31409 13.247 5.36151 13.225C5.40893 13.2031 5.46288 13.2014 5.51153 13.2203L7.95234 14.2593C8.05351 14.3112 8.09137 14.4283 8.05351 14.532V14.532ZM5.28386 13.3502C5.24601 13.4411 5.28386 13.545 5.37237 13.5839L7.81318 14.6229C7.90169 14.6619 7.9902 14.6099 8.02818 14.519C8.06604 14.4281 8.02818 14.3242 7.93968 14.2853L5.49887 13.2463C5.41036 13.2203 5.30919 13.2593 5.28386 13.3502V13.3502Z" fill="white"/>
<path d="M7.2195 12.7657C7.16898 12.8566 7.06781 12.8956 6.9793 12.8566L5.92959 12.3111C5.84108 12.2721 5.80309 12.1552 5.85375 12.0513C5.90427 11.9604 6.00544 11.9214 6.09395 11.9604L7.14352 12.506C7.23216 12.5578 7.27015 12.6749 7.2195 12.7657Z" fill="#F3F3F3"/>
<path d="M7.23174 12.7787C7.18109 12.8826 7.06726 12.9216 6.96608 12.8696L5.91651 12.3241C5.81534 12.2722 5.77735 12.1553 5.82801 12.0513C5.87853 11.9474 5.99249 11.9084 6.09353 11.9604L7.1431 12.506C7.2444 12.5449 7.28226 12.6749 7.23174 12.7787V12.7787ZM5.86586 12.0644C5.82801 12.1553 5.85333 12.2592 5.94184 12.2982L6.99141 12.8437C7.06739 12.8826 7.16856 12.8437 7.21908 12.7657C7.25693 12.6748 7.23174 12.5709 7.14323 12.5319L6.08074 11.9866C6.00489 11.9477 5.90372 11.9736 5.86573 12.0645L5.86586 12.0644Z" fill="white"/>
<path d="M9.07852 12.5189C9.01533 12.61 8.91416 12.636 8.82565 12.5709L6.63768 11.0774C6.5493 11.0254 6.53664 10.9084 6.58716 10.8175C6.63781 10.7266 6.75165 10.7006 6.84016 10.7655L9.04066 12.2722C9.11651 12.3242 9.14183 12.4412 9.07852 12.5189Z" fill="#F3F3F3"/>
<path d="M9.09076 12.5319C9.02757 12.623 8.90108 12.6488 8.8127 12.597L6.62479 11.0902C6.53628 11.0254 6.51096 10.9084 6.57414 10.8047C6.63745 10.7136 6.76395 10.6876 6.85246 10.7396L9.04024 12.2462C9.14141 12.3112 9.15407 12.441 9.09076 12.5319ZM6.59947 10.8175C6.54895 10.8954 6.56161 11.0124 6.63732 11.0642L8.83789 12.5711C8.91374 12.6231 9.01491 12.5971 9.06556 12.5192C9.11608 12.4412 9.10342 12.3243 9.0277 12.2724L6.827 10.7657C6.75116 10.7136 6.64999 10.7396 6.59934 10.8175H6.59947Z" fill="white"/>
<path d="M8.61002 10.6355C8.54684 10.7134 8.433 10.7394 8.35716 10.6744L7.43393 9.9342C7.35809 9.86918 7.34542 9.75227 7.40861 9.67437C7.47179 9.59648 7.58563 9.57047 7.66161 9.63549L8.5847 10.3757C8.66068 10.4407 8.67334 10.5575 8.61002 10.6355V10.6355Z" fill="#F3F3F3"/>
<path d="M8.62354 10.6484C8.56036 10.7395 8.43386 10.7525 8.34535 10.6875L7.42216 9.94726C7.33366 9.88237 7.32099 9.75245 7.38431 9.66169C7.44749 9.57065 7.57398 9.55765 7.66236 9.62267L8.58555 10.3629C8.67419 10.4279 8.68685 10.5577 8.62354 10.6487V10.6484ZM7.4095 9.67442C7.34632 9.75232 7.35898 9.85622 7.43483 9.92111L8.35802 10.6616C8.43386 10.7135 8.53503 10.7005 8.59821 10.6226C8.66153 10.5447 8.64886 10.4408 8.57302 10.3759L7.64983 9.63541C7.57398 9.58352 7.47268 9.59653 7.40963 9.67442H7.4095Z" fill="white"/>
<path d="M10.495 10.7655C10.4193 10.8435 10.3053 10.8435 10.2421 10.7655L8.35796 8.85624C8.28211 8.77835 8.29464 8.66143 8.35796 8.59641C8.4338 8.51865 8.54764 8.51865 8.61083 8.59641L10.4826 10.5058C10.5585 10.5706 10.5585 10.7006 10.4953 10.7656L10.495 10.7655Z" fill="#F3F3F3"/>
<path d="M10.495 10.7784C10.4579 10.8158 10.408 10.8368 10.356 10.8368C10.304 10.8368 10.254 10.8158 10.2169 10.7784L8.34506 8.86895C8.30855 8.83083 8.28809 8.7795 8.28809 8.72603C8.28809 8.67256 8.30855 8.62123 8.34506 8.58311C8.38217 8.54565 8.43212 8.52466 8.48416 8.52466C8.53619 8.52466 8.58614 8.54565 8.62325 8.58311L10.495 10.4924C10.5835 10.5703 10.5835 10.7002 10.495 10.7781V10.7784ZM8.37065 8.60912C8.30734 8.67414 8.30734 8.79105 8.37065 8.85581L10.2422 10.7651C10.3056 10.8301 10.4193 10.8301 10.4824 10.7651C10.5458 10.7002 10.5458 10.5833 10.4824 10.5184L8.61085 8.59625C8.54767 8.53136 8.44637 8.53136 8.37065 8.60925V8.60912Z" fill="white"/>
<path d="M10.3813 8.83019C10.3054 8.89522 10.1916 8.89522 10.1283 8.81719L9.35678 7.90804C9.29373 7.83015 9.30626 7.71323 9.38224 7.64834C9.45795 7.58332 9.57192 7.58332 9.6351 7.66121L10.4066 8.57049C10.4698 8.63539 10.4571 8.7523 10.3813 8.83019Z" fill="#F3F3F3"/>
<path d="M10.3934 8.83012C10.3049 8.90801 10.1911 8.89514 10.1151 8.81711L9.34374 7.90796C9.26789 7.83006 9.28055 7.70015 9.36906 7.62225C9.45757 7.54422 9.57141 7.55722 9.64725 7.63525L10.4188 8.54427C10.482 8.63531 10.482 8.76523 10.3934 8.83012V8.83012ZM9.38172 7.64826C9.30575 7.71315 9.30575 7.81706 9.3564 7.89495L10.1279 8.80411C10.1911 8.86913 10.2923 8.88214 10.3681 8.81711C10.444 8.75222 10.444 8.64818 10.3934 8.57042L9.62193 7.66113C9.55874 7.58337 9.45744 7.58337 9.38172 7.64826V7.64826Z" fill="white"/>
<path d="M12.2023 9.32379C12.1138 9.38868 11.9999 9.36267 11.9493 9.27177L10.4697 7.02473C10.4191 6.93383 10.4444 6.81692 10.5202 6.76503C10.6087 6.70014 10.7226 6.72615 10.7732 6.81705L12.2401 9.06396C12.3035 9.15486 12.2781 9.27177 12.2023 9.32365V9.32379Z" fill="#F3F3F3"/>
<path d="M12.2024 9.33673C12.1139 9.40175 11.9875 9.37561 11.9241 9.28484L10.4573 7.03777C10.3941 6.94687 10.4194 6.81708 10.5205 6.75219C10.609 6.68717 10.7355 6.71318 10.7988 6.80408L12.2656 9.05102C12.3288 9.15492 12.3035 9.27184 12.2024 9.33673ZM10.533 6.77807C10.4572 6.82996 10.4318 6.93386 10.4825 7.01189L11.9493 9.25883C12 9.33673 12.1011 9.34973 12.1895 9.29771C12.2655 9.24583 12.2908 9.14192 12.2402 9.06402L10.7734 6.82996C10.7228 6.75219 10.609 6.72605 10.5333 6.77807H10.533Z" fill="white"/>
<path d="M12.4676 7.40154C12.3791 7.45342 12.2653 7.42755 12.2148 7.33664L11.633 6.28458C11.5825 6.19368 11.6203 6.07676 11.709 6.02474C11.7975 5.97286 11.9113 5.99873 11.9618 6.08977L12.5435 7.1417C12.5815 7.2326 12.5561 7.34952 12.4678 7.40154H12.4676Z" fill="#F3F3F3"/>
<path d="M12.4673 7.41455C12.3661 7.46644 12.2523 7.44056 12.2018 7.34952L11.62 6.29758C11.5694 6.20655 11.5948 6.07677 11.6959 6.02474C11.7971 5.97286 11.9109 5.99873 11.9615 6.08977L12.5432 7.14171C12.5938 7.23261 12.5685 7.34952 12.4675 7.41455H12.4673ZM11.7086 6.03775C11.6326 6.08964 11.5948 6.19354 11.6453 6.27157L12.2271 7.32365C12.2776 7.40141 12.3788 7.42755 12.4547 7.38854C12.5306 7.33665 12.5685 7.23261 12.518 7.15472L11.9361 6.10264C11.8983 6.02488 11.7844 5.98573 11.7086 6.03775V6.03775Z" fill="white"/>
<path d="M14.1493 8.2588C14.0483 8.29768 13.947 8.2588 13.9091 8.1679L12.8848 5.66101C12.8469 5.57011 12.8974 5.45319 12.9859 5.41418C13.0871 5.3753 13.1883 5.41418 13.2261 5.50508L14.2505 8.01184C14.2885 8.10274 14.2379 8.21965 14.1493 8.25853V8.2588Z" fill="#F3F3F3"/>
<path d="M14.1502 8.27174C14.0492 8.31062 13.9354 8.27174 13.8847 8.1677L12.8603 5.66109C12.842 5.61113 12.8436 5.55572 12.865 5.50702C12.8863 5.45831 12.9256 5.42028 12.9742 5.40126C13.0753 5.36238 13.1892 5.40126 13.2398 5.50517L14.2641 8.01191C14.3021 8.10281 14.2516 8.21972 14.1504 8.27174H14.1502ZM12.9995 5.42727C12.911 5.46615 12.873 5.57019 12.911 5.64809L13.9352 8.15469C13.9731 8.24559 14.0743 8.28447 14.1628 8.24559C14.2513 8.20671 14.2894 8.10267 14.2513 8.02478L13.227 5.51804C13.1764 5.42714 13.0879 5.38812 12.9994 5.42714L12.9995 5.42727Z" fill="white"/>
<path d="M14.7695 6.41457C14.6684 6.45346 14.5672 6.40144 14.5294 6.29766L14.1626 5.15458C14.1247 5.06368 14.1879 4.94677 14.2764 4.92089C14.3649 4.89488 14.4787 4.93389 14.5166 5.0378L14.8834 6.18075C14.9212 6.27165 14.8707 6.37556 14.7695 6.41444V6.41457Z" fill="#F3F3F3"/>
<path d="M14.7822 6.42732C14.7335 6.44615 14.6796 6.44441 14.6322 6.4225C14.5848 6.40059 14.5478 6.36028 14.5293 6.31041L14.1625 5.16744C14.1246 5.06353 14.1878 4.94676 14.2891 4.90774C14.3377 4.88892 14.3916 4.89065 14.439 4.91256C14.4864 4.93447 14.5234 4.97478 14.542 5.02465L14.9087 6.16762C14.934 6.27153 14.8834 6.38844 14.7822 6.42732V6.42732ZM14.289 4.93375C14.2005 4.95963 14.1498 5.06353 14.1751 5.15444L14.542 6.29754C14.5672 6.38844 14.6683 6.42732 14.757 6.40131C14.8455 6.37543 14.896 6.27153 14.8707 6.18063L14.504 5.03752C14.4975 5.01548 14.4866 4.99507 14.472 4.97763C14.4574 4.96019 14.4393 4.94611 14.419 4.93631C14.3988 4.92651 14.3767 4.92121 14.3543 4.92074C14.3319 4.92028 14.3096 4.92466 14.289 4.93362V4.93375Z" fill="white"/>
<path d="M16.2618 7.59622C16.1606 7.62223 16.0595 7.55734 16.0468 7.4533L15.5157 4.79077C15.4903 4.68686 15.5663 4.59596 15.6673 4.56995C15.7686 4.54394 15.8697 4.60883 15.8823 4.71287L16.4136 7.37554C16.4262 7.4663 16.363 7.57021 16.2618 7.59622V7.59622Z" fill="#F3F3F3"/>
<path d="M16.2618 7.60934C16.1479 7.63535 16.0468 7.55732 16.0215 7.45341L15.4903 4.79087C15.4649 4.68696 15.5409 4.57005 15.6421 4.55704C15.7559 4.53103 15.8571 4.60906 15.8823 4.71297L16.4136 7.37565C16.4388 7.47942 16.3756 7.58346 16.2618 7.60934V7.60934ZM15.6674 4.58305C15.5788 4.59606 15.5156 4.68696 15.5282 4.79087L16.0594 7.45355C16.0721 7.54431 16.1731 7.60934 16.2618 7.58333C16.3503 7.57032 16.4135 7.47942 16.4008 7.37552L15.8696 4.71284C15.8444 4.62207 15.7559 4.57005 15.6673 4.58305H15.6674Z" fill="white"/>
<path d="M17.2226 5.90792C17.1214 5.92092 17.0329 5.85603 17.0076 5.75212L16.8559 4.55712C16.8432 4.45321 16.9191 4.36231 17.0204 4.34931C17.1214 4.3363 17.2099 4.40133 17.2352 4.50523L17.3869 5.7001C17.3996 5.80401 17.3237 5.89491 17.2226 5.90792V5.90792Z" fill="#F3F3F3"/>
<path d="M17.2225 5.92072C17.1087 5.93373 17.0075 5.85583 16.9949 5.75179L16.8432 4.55693C16.8305 4.45302 16.9064 4.34911 17.0202 4.33611C17.134 4.32324 17.2352 4.40114 17.2478 4.50504L17.3995 5.6999C17.4122 5.80381 17.3363 5.90772 17.2225 5.92072V5.92072ZM17.0328 4.36212C16.9443 4.37513 16.8684 4.46603 16.881 4.55693L17.0328 5.75192C17.0455 5.84283 17.134 5.90772 17.2225 5.89471C17.311 5.88184 17.387 5.79081 17.3743 5.6999L17.2225 4.50504C17.2099 4.41414 17.1213 4.34911 17.0328 4.36212V4.36212Z" fill="white"/>
<path d="M18.5887 34.3651C26.8583 34.3651 33.5621 27.4801 33.5621 18.987C33.5621 10.4939 26.8583 3.60889 18.5887 3.60889C10.3191 3.60889 3.61523 10.4939 3.61523 18.987C3.61523 27.4801 10.3191 34.3651 18.5887 34.3651Z" fill="url(#paint2_linear_165_44)" fill-opacity="0.2"/>
<path d="M28.9582 9.23291L16.8808 17.1818H16.8681V17.1947L16.8555 17.2077L9.31836 29.9753L20.3966 20.8185L20.4093 20.8057V20.7926L28.9584 9.23304L28.9582 9.23291Z" fill="black" fill-opacity="0.05"/>
<path d="M28.7313 8.49243L16.793 17.2075L20.334 20.8182L28.7313 8.49243" fill="#CD151E"/>
<path d="M16.8057 17.1816L18.5889 18.9869L28.7312 8.49243L16.8057 17.1816V17.1816Z" fill="#FA5153"/>
<path d="M16.8055 17.1818L20.3465 20.7923L8.4082 29.5076L16.8055 17.1816V17.1818Z" fill="#ACACAC"/>
<path d="M8.4082 29.5076L18.5886 18.9871L16.8053 17.1816L8.4082 29.5076Z" fill="#EEEEEE"/>
<defs>
<linearGradient id="paint0_linear_165_44" x1="18.5" y1="35.625" x2="18.5" y2="2.375" gradientUnits="userSpaceOnUse">
<stop offset="0.25" stop-color="#DBDBDA"/>
<stop offset="1" stop-color="white"/>
</linearGradient>
<radialGradient id="paint1_radial_165_44" cx="0" cy="0" r="1" gradientUnits="userSpaceOnUse" gradientTransform="translate(20.6036 15.622) scale(18.2772 18.7712)">
<stop stop-color="#2ABCE1"/>
<stop offset="0.11363" stop-color="#2ABBE1"/>
<stop offset="1" stop-color="#3375F8"/>
</radialGradient>
<linearGradient id="paint2_linear_165_44" x1="18.3042" y1="14.5898" x2="11.0271" y2="27.302" gradientUnits="userSpaceOnUse">
<stop stop-opacity="0"/>
<stop offset="1"/>
</linearGradient>
</defs>
</svg>
