<svg width="36" height="36" viewBox="0 0 36 36" fill="none" xmlns="http://www.w3.org/2000/svg">
<circle cx="17.875" cy="17.875" r="17.875" fill="#105DFB"/>
<path fill-rule="evenodd" clip-rule="evenodd" d="M6.22559 25.484V9.88672H13.4359C15.7519 9.88672 17.6294 11.7642 17.6294 14.0802C17.6294 15.5519 17.1769 16.4635 15.5176 17.3987C17.5032 18.3034 18.0546 19.5573 18.0546 21.3063C18.0546 23.6723 15.9527 25.484 13.5868 25.484H6.22559ZM9.27669 12.4686V16.2191H12.8477C12.8477 16.2191 14.5833 16.2191 14.5833 14.3439C14.5833 12.4686 12.8477 12.4686 12.8477 12.4686H9.27669ZM9.27669 22.8425V18.7927H13.1071C13.7255 18.7927 15.0222 19.1119 15.0222 21.027C15.0222 22.4475 13.7454 22.8292 13.1071 22.8425H9.27669Z" fill="white"/>
<path fill-rule="evenodd" clip-rule="evenodd" d="M24.5782 14.1843C22.3837 14.1843 19.1319 15.7603 19.1319 19.9497C19.1319 22.5008 20.5284 25.7751 24.7178 25.7751C28.0694 25.7751 29.6122 23.3146 29.9646 22.0844H26.8125C26.6529 22.643 26.0345 23.2614 24.7178 23.2614C22.8026 23.2614 22.1244 21.6255 22.0246 20.8076H29.9646V19.9497C29.9646 15.7603 26.7726 14.1843 24.5782 14.1843ZM24.5782 16.5782C22.7907 16.5782 22.131 18.0545 22.0246 18.7927H26.8125C26.8125 18.0545 26.3657 16.5782 24.5782 16.5782Z" fill="white"/>
<path d="M20.7678 10.7728V12.708H28.2888V10.7728H20.7678Z" fill="white"/>
</svg>
