<svg width="25" height="38" viewBox="0 0 25 38" fill="none" xmlns="http://www.w3.org/2000/svg">
<path fill-rule="evenodd" clip-rule="evenodd" d="M12.5 18.75C12.5 15.2982 15.2982 12.5 18.75 12.5C22.2018 12.5 25 15.2982 25 18.75C25 22.2018 22.2018 25 18.75 25C15.2982 25 12.5 22.2018 12.5 18.75Z" fill="#1ABCFE"/>
<path fill-rule="evenodd" clip-rule="evenodd" d="M0 31.25C0 27.7982 2.79822 25 6.25 25H12.5V31.25C12.5 34.7018 9.70178 37.5 6.25 37.5C2.79822 37.5 0 34.7018 0 31.25Z" fill="#0ACF83"/>
<path fill-rule="evenodd" clip-rule="evenodd" d="M12.5 0V12.5H18.75C22.2018 12.5 25 9.70178 25 6.25C25 2.79822 22.2018 0 18.75 0H12.5Z" fill="#FF7262"/>
<path fill-rule="evenodd" clip-rule="evenodd" d="M0 6.25C0 9.70178 2.79822 12.5 6.25 12.5H12.5V0H6.25C2.79822 0 0 2.79822 0 6.25Z" fill="#F24E1E"/>
<path fill-rule="evenodd" clip-rule="evenodd" d="M0 18.75C0 22.2018 2.79822 25 6.25 25H12.5V12.5H6.25C2.79822 12.5 0 15.2982 0 18.75Z" fill="#A259FF"/>
</svg>
