<svg width="44" height="44" viewBox="0 0 44 44" fill="none" xmlns="http://www.w3.org/2000/svg">
<path d="M0 15.8333C0 10.2911 0 7.52005 1.07858 5.40322C2.02733 3.5412 3.5412 2.02733 5.40322 1.07858C7.52005 0 10.2911 0 15.8333 0H27.9167C33.4589 0 36.2299 0 38.3468 1.07858C40.2088 2.02733 41.7227 3.5412 42.6714 5.40322C43.75 7.52005 43.75 10.2911 43.75 15.8333V27.9167C43.75 33.4589 43.75 36.2299 42.6714 38.3468C41.7227 40.2088 40.2088 41.7227 38.3468 42.6714C36.2299 43.75 33.4589 43.75 27.9167 43.75H15.8333C10.2911 43.75 7.52005 43.75 5.40322 42.6714C3.5412 41.7227 2.02733 40.2088 1.07858 38.3468C0 36.2299 0 33.4589 0 27.9167V15.8333Z" fill="#001E36"/>
<path d="M9.375 32.0566V12.8178C9.375 12.687 9.42969 12.6122 9.55729 12.6122C11.4411 12.6122 13.324 12.5 15.2083 12.5C18.2659 12.5 21.5765 13.5455 22.737 16.7441C23.0104 17.5294 23.1563 18.3333 23.1563 19.1747C23.1563 20.7826 22.7917 22.11 22.0625 23.1571C20.0256 26.0818 16.4953 26.0363 13.3307 26.0363V32.0379C13.3555 32.2156 13.2041 32.2997 13.0573 32.2997H9.59375C9.44792 32.2997 9.375 32.2249 9.375 32.0566ZM13.349 16.2206V22.5027C14.6037 22.5946 15.9168 22.6046 17.1224 22.2035C18.4534 21.8196 19.1823 20.6674 19.1823 19.2869C19.2193 18.1105 18.5783 16.9817 17.487 16.5572C16.2959 16.0619 14.6347 16.0322 13.349 16.2206Z" fill="#31A8FF"/>
<path d="M34.526 21.2615C33.9745 20.9708 33.387 20.7582 32.7798 20.6294C31.9994 20.4457 28.9215 19.8027 28.9204 21.412C28.9477 22.3105 30.3739 22.7507 31.0041 23.0074C33.2164 23.7669 35.7198 25.1246 35.6706 27.8537C35.7383 31.2513 32.4464 32.6095 29.6247 32.6098C28.1557 32.625 26.6254 32.3975 25.2811 31.7669C25.1527 31.699 25.0701 31.5537 25.0756 31.4057V28.1547C25.0612 28.0244 25.201 27.9105 25.3104 28.0042C26.6276 28.8009 28.189 29.1876 29.7128 29.2083C30.3854 29.2083 31.7186 29.1431 31.7085 28.1547C31.7085 27.2063 30.1137 26.7702 29.478 26.5292C28.5564 26.2003 27.6827 25.7446 26.8806 25.1747C25.7597 24.3752 25.0565 23.0932 25.0756 21.6829C25.0691 18.4839 28.0992 17.048 30.8281 17.0473C32.1038 17.0368 33.4737 17.1313 34.6612 17.6493C34.832 17.6996 34.8674 17.8795 34.8667 18.0406V21.0809C34.8775 21.2696 34.6679 21.3339 34.526 21.2615Z" fill="#31A8FF"/>
</svg>
