<svg width="44" height="44" viewBox="0 0 44 44" fill="none" xmlns="http://www.w3.org/2000/svg">
<path d="M0 15.8333C0 10.2911 0 7.52005 1.07858 5.40322C2.02733 3.5412 3.5412 2.02733 5.40322 1.07858C7.52005 0 10.2911 0 15.8333 0H27.9167C33.4589 0 36.2299 0 38.3468 1.07858C40.2088 2.02733 41.7227 3.5412 42.6714 5.40322C43.75 7.52005 43.75 10.2911 43.75 15.8333V27.9167C43.75 33.4589 43.75 36.2299 42.6714 38.3468C41.7227 40.2088 40.2088 41.7227 38.3468 42.6714C36.2299 43.75 33.4589 43.75 27.9167 43.75H15.8333C10.2911 43.75 7.52005 43.75 5.40322 42.6714C3.5412 41.7227 2.02733 40.2088 1.07858 38.3468C0 36.2299 0 33.4589 0 27.9167V15.8333Z" fill="#330000"/>
<path d="M21.2002 27.4942H14.4206L13.0412 31.889C13.0029 32.0523 12.8525 32.1679 12.689 32.1599H9.25514C9.05932 32.1599 8.99084 32.0495 9.0497 31.8288L14.9195 14.4903C14.9782 14.3097 15.0369 14.104 15.0956 13.8732C15.1724 13.4716 15.2117 13.0634 15.213 12.6542C15.1962 12.5333 15.3024 12.4265 15.4184 12.4434H20.0849C20.2216 12.4434 20.2998 12.4936 20.3197 12.594L26.982 31.8589C27.0406 32.0597 26.9819 32.1601 26.8058 32.1599H22.9904C22.8566 32.1751 22.7288 32.0834 22.6969 31.9492L21.2002 27.4942ZM15.4771 23.7014H20.1142C19.3524 21.098 18.4926 18.5288 17.7957 15.9051C17.0438 18.5332 16.2235 21.1507 15.4771 23.7014Z" fill="#FF9A00"/>
<path d="M30.9437 15.6341C30.6443 15.6464 30.3458 15.5938 30.0677 15.4797C29.7895 15.3656 29.538 15.1925 29.3295 14.9719C29.1216 14.7416 28.9601 14.4715 28.8543 14.1771C28.7485 13.8826 28.7005 13.5696 28.7131 13.2561C28.7024 12.9456 28.7557 12.6364 28.8695 12.3485C28.9833 12.0606 29.155 11.8006 29.3734 11.5854C29.5898 11.3725 29.8451 11.2056 30.1247 11.0946C30.4043 10.9835 30.7026 10.9304 31.0023 10.9383C31.7067 10.9383 32.2595 11.154 32.6606 11.5854C32.863 11.8097 33.0204 12.0726 33.1236 12.3593C33.2268 12.646 33.2739 12.9507 33.2622 13.2561C33.2745 13.5708 33.2249 13.8849 33.1165 14.1797C33.0081 14.4744 32.8431 14.7438 32.6312 14.9719C32.4097 15.1958 32.1455 15.3702 31.855 15.4842C31.5646 15.5982 31.2543 15.6492 30.9437 15.6341ZM28.9185 31.8588V17.4703C28.9185 17.2897 28.9965 17.1993 29.1533 17.1993H32.7633C32.9197 17.1993 32.9979 17.2896 32.9981 17.4703V31.8588C32.9981 32.0596 32.9198 32.16 32.7633 32.1598H29.1827C29.0066 32.1598 28.9186 32.0595 28.9185 31.8588Z" fill="#FF9A00"/>
</svg>
