<svg width="38" height="38" viewBox="0 0 38 38" fill="none" xmlns="http://www.w3.org/2000/svg">
<circle cx="18.875" cy="18.875" r="18.875" fill="#FF3366"/>
<path d="M12.6182 11.9443C13.9212 11.9443 14.9775 10.888 14.9775 9.58496C14.9775 8.28191 13.9212 7.22559 12.6182 7.22559C11.3151 7.22559 10.2588 8.28191 10.2588 9.58496C10.2588 10.888 11.3151 11.9443 12.6182 11.9443Z" fill="white"/>
<path d="M7.68876 13.9667L6.86719 16.9791H9.56362C9.02293 19.1769 7.89099 23.8002 7.68876 24.7102C7.43597 25.8478 7.39377 29.0919 10.8065 29.0919C13.1885 29.0919 14.7078 27.5531 15.5552 26.2967L14.9143 28.8602H18.7483L20.7496 20.7599C21.034 19.4122 21.7034 16.8105 24.1201 16.8105C26.9944 16.8105 25.9399 20.2142 25.4232 21.8822C25.4021 21.9501 25.382 22.0152 25.363 22.077C24.9754 23.341 24.5625 24.8156 24.5625 25.8267C24.5625 26.9643 25.0891 29.0919 28.0384 29.0919C30.9876 29.0919 32.2445 26.1708 32.5043 24.7102L31.0086 24.0993C30.9033 24.8788 29.9554 26.564 29.0706 26.564C27.8594 26.564 28.4678 24.522 29.1171 22.3427C29.4051 21.3761 29.7012 20.3824 29.85 19.528C30.2264 17.3678 29.85 13.6928 26.1003 13.6928C23.7714 13.6928 21.9427 15.768 21.0727 17.2087L21.8029 13.9667H15.9676L15.1671 16.9791H17.8846C17.8846 16.9791 16.272 23.551 16.1678 23.757C15.0723 25.9215 13.4155 26.6481 12.1758 26.564C11.1815 26.4966 11.298 25.3001 11.4806 24.7102L14.177 13.9667H7.68876Z" fill="white"/>
</svg>
