<svg width="38" height="37" viewBox="0 0 38 37" fill="none" xmlns="http://www.w3.org/2000/svg">
<path d="M35.6265 18.8595C35.6265 17.5285 35.5133 16.5573 35.2684 15.55H19.3408V21.5573H28.6899C28.5015 23.0502 27.4837 25.2985 25.2217 26.8093L25.19 27.0104L30.226 30.7331L30.5749 30.7663C33.7792 27.9424 35.6265 23.7876 35.6265 18.8595" fill="#4285F4"/>
<path d="M19.3403 34.6875C23.9206 34.6875 27.7657 33.2485 30.5744 30.7665L25.2212 26.8094C23.7887 27.7627 21.866 28.4282 19.3403 28.4282C14.8542 28.4282 11.0467 25.6044 9.68946 21.7014L9.49052 21.7175L4.25403 25.5846L4.18555 25.7663C6.97519 31.0542 12.7053 34.6875 19.3403 34.6875Z" fill="#34A853"/>
<path d="M9.69036 21.7015C9.33224 20.6943 9.12498 19.6151 9.12498 18.5C9.12498 17.3848 9.33224 16.3056 9.67152 15.2984L9.66204 15.0839L4.35991 11.1548L4.18643 11.2335C3.03668 13.4279 2.37695 15.892 2.37695 18.5C2.37695 21.108 3.03668 23.572 4.18643 25.7663L9.69036 21.7015" fill="#FBBC05"/>
<path d="M19.3404 8.57162C22.5258 8.57162 24.6746 9.8846 25.8999 10.9818L30.6876 6.52125C27.7472 3.91327 23.9207 2.3125 19.3404 2.3125C12.7054 2.3125 6.97521 5.94567 4.18555 11.2335L9.67065 15.2985C11.0468 11.3955 14.8543 8.57162 19.3404 8.57162" fill="#EB4335"/>
</svg>
