<svg width="36" height="35" viewBox="0 0 36 35" fill="none" xmlns="http://www.w3.org/2000/svg">
<ellipse cx="17.6074" cy="17.5" rx="17.6074" ry="17.5" fill="white"/>
<path d="M17.6074 35C27.3316 35 35.2147 27.165 35.2147 17.5C35.2147 7.83502 27.3316 0 17.6074 0C7.88308 0 0 7.83502 0 17.5C0 24.6002 4.25431 30.7127 10.3676 33.4569C10.3758 33.2676 10.385 33.094 10.3929 32.9451C10.4037 32.7422 10.412 32.5852 10.412 32.497C10.412 31.9711 10.7718 29.363 10.7718 29.363L12.9727 20.3816C12.6341 19.8347 12.3802 18.6779 12.3802 17.7945C12.3802 13.7139 14.6658 12.8305 16.0625 12.8305C17.8402 12.8305 18.2422 14.7446 18.2422 16.1538C18.2422 16.8993 17.8532 18.066 17.4529 19.2667C17.0286 20.5393 16.5916 21.8499 16.5916 22.7374C16.5916 24.4621 18.3057 25.3245 19.4908 25.3245C22.6229 25.3245 25.5011 21.4122 25.5011 17.5C25.5011 13.5877 23.6599 8.85516 17.6285 8.85516C11.5972 8.85516 8.88834 13.4195 8.88834 16.911C8.88834 19.2668 9.77717 20.9916 10.2216 21.286C10.3486 21.3982 10.5644 21.7446 10.412 22.2326C10.2597 22.7205 9.98174 23.8101 9.86182 24.2939C9.84771 24.406 9.71368 24.5967 9.29043 24.4621C8.76136 24.2939 5.39649 22.1905 5.39649 16.911C5.39649 11.6316 9.56554 5.48977 17.6285 5.48977C25.6915 5.48977 29.8182 10.8744 29.8182 17.5C29.8182 24.1256 24.4218 28.3534 20.3162 28.3534C17.0317 28.3534 15.745 26.895 15.5123 26.1659L14.2637 30.8984C13.9688 31.6836 13.4189 33.0947 12.7407 34.3229C14.2863 34.7638 15.9191 35 17.6074 35Z" fill="#BB0F23"/>
</svg>
