<svg width="33" height="34" viewBox="0 0 33 34" fill="none" xmlns="http://www.w3.org/2000/svg">
<path d="M15.8125 33.2025H17.1875C24.6675 33.2025 28.3937 33.2025 30.7037 30.8783C33 28.5541 33 24.7912 33 17.2929V15.8818C33 8.41129 33 4.64834 30.7037 2.32417C28.3937 0 24.6537 0 17.1875 0H15.8125C8.3325 0 4.60625 0 2.29625 2.32417C0 4.64834 0 8.41129 0 15.9095V17.3206C0 24.7912 0 28.5541 2.31 30.8783C4.62 33.2025 8.36 33.2025 15.8125 33.2025Z" fill="#0077FF"/>
<path d="M17.4493 23.6873C10.1864 23.6873 6.0437 18.8235 5.87109 10.7302H9.5092C9.6287 16.6705 12.3108 19.1867 14.4352 19.7055V10.7302H17.8609V15.8534C19.9588 15.6329 22.1629 13.2983 22.9064 10.7302H26.3321C26.0519 12.0621 25.4934 13.3232 24.6915 14.4346C23.8896 15.5459 22.8615 16.4837 21.6716 17.1893C22.9998 17.834 24.173 18.7465 25.1136 19.8666C26.0543 20.9867 26.7411 22.2889 27.1288 23.6873H23.3579C23.0099 22.4727 22.3027 21.3854 21.3248 20.5617C20.347 19.738 19.142 19.2146 17.8609 19.057V23.6873H17.4493V23.6873Z" fill="white"/>
</svg>
