<svg width="40" height="40" viewBox="0 0 40 40" fill="none" xmlns="http://www.w3.org/2000/svg">
<path d="M20 0C8.96875 0 0 8.96875 0 20C0 31.0313 8.96875 40 20 40C31.0313 40 40 31.0313 40 20C40 8.96875 31.0313 0 20 0Z" fill="#021B33"/>
<path d="M17.8144 7.1167C17.8144 11.1675 12.7391 14.2742 11.2891 14.2742V18.5686H15.6393V27.1576C15.6393 30.32 18.2362 32.8836 21.4396 32.8836H27.24V27.0967C26.6673 27.0967 24.4123 27.0967 22.8886 27.0967C22.0878 27.0967 21.4396 26.4558 21.4396 25.6652V18.5686H27.24V12.8427H21.4396V7.1167H17.8144Z" fill="white"/>
</svg>
