<svg width="36" height="29" viewBox="0 0 36 29" fill="none" xmlns="http://www.w3.org/2000/svg">
<path d="M11.2998 29C7.14053 29 3.26337 27.8136 0 25.7666C2.77071 25.9425 7.66038 25.5214 10.7017 22.6765C6.12653 22.4706 4.06319 19.0294 3.79406 17.5588C4.18281 17.7059 6.03682 17.8824 7.08343 17.4706C1.82044 16.1765 1.01305 11.6471 1.19247 10.2647C2.17928 10.9412 3.85387 11.1765 4.51174 11.1176C-0.392409 7.67647 1.37189 2.5 2.23909 1.38235C5.75849 6.16397 11.033 8.8495 17.5582 8.99888C17.4352 8.46971 17.3702 7.91879 17.3702 7.35294C17.3702 3.29202 20.7172 0 24.846 0C27.0033 0 28.9471 0.89869 30.3116 2.33619C31.7532 2.00492 33.9227 1.22943 34.9833 0.558824C34.4487 2.44118 32.7843 4.01144 31.7776 4.59344C31.7859 4.61324 31.7694 4.57356 31.7776 4.59344C32.6619 4.46226 35.0547 4.01129 36 3.38235C35.5325 4.43984 33.768 6.19809 32.3199 7.18245C32.5893 18.8349 23.4983 29 11.2998 29Z" fill="#47ACDF"/>
</svg>
