<svg width="557" height="654" viewBox="0 0 557 654" fill="none" xmlns="http://www.w3.org/2000/svg">
<rect width="556.835" height="653.05" rx="45" fill="#F4F8F0"/>
<path d="M70.0274 219.44L73.3474 207.92L70.9474 200.28H68.6674V199.52H81.0674V200.28H78.7074L84.6674 219.2L89.4674 200.28H85.4274V199.52H93.4274V200.28H90.7874L83.4274 227.92H79.8674L73.9474 209.84L68.7474 227.92H65.2674L55.1874 200.28H53.3074V199.52H66.3074V200.28H63.5074L70.0274 219.44ZM103.97 227.92C100.53 227.92 97.9435 227.04 96.2102 225.28C94.5035 223.493 93.6502 221.027 93.6502 217.88C93.6502 214.707 94.6102 212.28 96.5302 210.6C98.4769 208.92 100.944 208.08 103.93 208.08C109.984 208.08 112.89 211.12 112.65 217.2H101.37V218.76C101.37 221.373 101.704 223.347 102.37 224.68C103.037 226.013 104.197 226.68 105.85 226.68C108.944 226.68 110.97 225.027 111.93 221.72L112.65 221.84C112.144 223.76 111.224 225.253 109.89 226.32C108.584 227.387 106.61 227.92 103.97 227.92ZM101.41 216.4H105.53V214.44C105.53 212.28 105.397 210.813 105.13 210.04C104.89 209.24 104.384 208.84 103.61 208.84C102.864 208.84 102.304 209.267 101.93 210.12C101.584 210.947 101.41 212.387 101.41 214.44V216.4ZM131.275 216.76C131.275 214.013 131.142 212.173 130.875 211.24C130.609 210.28 130.089 209.8 129.315 209.8C128.542 209.8 127.849 210.28 127.235 211.24C126.622 212.2 126.315 213.52 126.315 215.2V222.64C126.315 223.787 126.542 224.76 126.995 225.56C127.475 226.36 128.142 226.76 128.995 226.76C129.875 226.76 130.475 226.173 130.795 225C131.115 223.827 131.275 221.773 131.275 218.84V216.76ZM126.315 197.52V211.52C127.329 209.227 129.062 208.08 131.515 208.08C136.502 208.08 138.995 211.4 138.995 218.04C138.995 221.427 138.302 223.92 136.915 225.52C135.555 227.12 133.502 227.92 130.755 227.92C129.369 227.92 128.302 227.707 127.555 227.28C126.835 226.853 126.342 226.147 126.075 225.16L125.795 227.52H116.675V226.8H118.875V198.24H116.675V197.52H126.315ZM172.778 236.56C174.085 236.56 175.085 235.933 175.778 234.68C176.498 233.427 176.858 231.88 176.858 230.04C176.858 228.2 176.152 226.333 174.738 224.44C172.712 226.76 169.925 227.92 166.378 227.92C162.832 227.92 160.005 227.32 157.898 226.12C155.818 224.92 154.778 223.027 154.778 220.44C154.778 218.653 155.258 217.213 156.218 216.12C157.178 215.027 158.792 214.227 161.058 213.72C158.712 211.587 157.538 209.267 157.538 206.76C157.538 204.227 158.418 202.32 160.178 201.04C161.965 199.733 164.178 199.08 166.818 199.08C169.458 199.08 171.432 199.56 172.738 200.52C174.072 201.48 174.738 202.773 174.738 204.4C174.738 207.227 172.592 209.387 168.298 210.88C168.832 211.227 169.805 211.84 171.218 212.72C174.178 214.64 176.272 216.187 177.498 217.36C177.898 215.467 178.125 213.52 178.178 211.52H175.018V210.72H181.978V211.52H179.178C179.125 214.027 178.872 216.28 178.418 218.28C179.565 219.56 180.432 220.787 181.018 221.96C181.605 223.133 181.898 224.613 181.898 226.4C181.898 229.28 180.885 231.853 178.858 234.12C176.832 236.387 174.525 237.52 171.938 237.52C170.205 237.52 168.858 237.16 167.898 236.44C166.938 235.72 166.458 234.8 166.458 233.68C166.458 232.56 166.765 231.68 167.378 231.04C168.018 230.427 168.818 230.12 169.778 230.12C171.912 230.12 172.978 231.08 172.978 233C172.978 233.4 172.898 233.88 172.738 234.44H171.338C170.858 235.853 171.338 236.56 172.778 236.56ZM167.338 226.88C170.165 226.88 172.405 225.787 174.058 223.6C172.832 222.32 171.112 220.933 168.898 219.44C165.085 216.933 162.658 215.227 161.618 214.32C161.218 215.173 161.018 216.907 161.018 219.52C161.018 222.133 161.538 224.013 162.578 225.16C163.618 226.307 165.205 226.88 167.338 226.88ZM166.618 199.92C165.605 199.92 164.738 200.24 164.018 200.88C163.298 201.493 162.938 202.48 162.938 203.84C162.938 205.2 163.258 206.32 163.898 207.2C164.538 208.08 165.765 209.147 167.578 210.4C168.698 209.813 169.392 209.107 169.658 208.28C169.952 207.453 170.098 206.24 170.098 204.64C170.098 201.493 168.938 199.92 166.618 199.92ZM219.376 199.52H230.056V200.28H227.856V226.76H230.056V227.52H217.856V226.76H220.056V201.76H219.896L213.896 227.52H208.896L201.856 201.64H201.696V226.76H203.896V227.52H198.456V226.76H200.656V200.28H198.456V199.52H209.256L214.576 220.12L219.376 199.52ZM246.97 219.64V216.24C246.97 213.653 246.824 211.773 246.53 210.6C246.264 209.4 245.624 208.8 244.61 208.8C244.024 208.8 243.544 208.973 243.17 209.32C242.824 209.64 242.57 210.187 242.41 210.96C242.17 212.16 242.05 213.987 242.05 216.44V219.56C242.05 222.467 242.13 224.213 242.29 224.8C242.477 225.387 242.664 225.867 242.85 226.24C243.144 226.88 243.717 227.2 244.57 227.2C245.61 227.2 246.29 226.6 246.61 225.4C246.85 224.547 246.97 222.627 246.97 219.64ZM244.49 227.92C241.157 227.92 238.637 227.067 236.93 225.36C235.224 223.653 234.37 221.213 234.37 218.04C234.37 214.84 235.277 212.387 237.09 210.68C238.93 208.947 241.504 208.08 244.81 208.08C248.117 208.08 250.584 208.88 252.21 210.48C253.837 212.053 254.65 214.467 254.65 217.72C254.65 224.52 251.264 227.92 244.49 227.92ZM272.969 216.76C272.969 214.013 272.836 212.173 272.569 211.24C272.302 210.28 271.782 209.8 271.009 209.8C270.236 209.8 269.542 210.28 268.929 211.24C268.316 212.2 268.009 213.52 268.009 215.2V222.64C268.009 223.787 268.236 224.76 268.689 225.56C269.169 226.36 269.836 226.76 270.689 226.76C271.569 226.76 272.169 226.173 272.489 225C272.809 223.827 272.969 221.773 272.969 218.84V216.76ZM268.009 197.52V211.52C269.022 209.227 270.756 208.08 273.209 208.08C278.196 208.08 280.689 211.4 280.689 218.04C280.689 221.427 279.996 223.92 278.609 225.52C277.249 227.12 275.196 227.92 272.449 227.92C271.062 227.92 269.996 227.707 269.249 227.28C268.529 226.853 268.036 226.147 267.769 225.16L267.489 227.52H258.369V226.8H260.569V198.24H258.369V197.52H268.009ZM290.365 205.72C288.951 205.72 287.938 205.36 287.325 204.64C286.738 203.92 286.445 203.027 286.445 201.96C286.445 200.893 286.765 200.013 287.405 199.32C288.071 198.627 289.071 198.28 290.405 198.28C291.738 198.28 292.751 198.6 293.445 199.24C294.138 199.853 294.485 200.747 294.485 201.92C294.485 203.067 294.151 203.987 293.485 204.68C292.818 205.373 291.778 205.72 290.365 205.72ZM284.325 208.48H294.125V226.8H296.365V227.52H284.485V226.8H286.685V209.2H284.325V208.48ZM299.62 197.52H309.42V226.8H311.66V227.52H299.78V226.8H301.98V198.24H299.62V197.52ZM325.556 227.92C322.116 227.92 319.529 227.04 317.796 225.28C316.089 223.493 315.236 221.027 315.236 217.88C315.236 214.707 316.196 212.28 318.116 210.6C320.063 208.92 322.529 208.08 325.516 208.08C331.569 208.08 334.476 211.12 334.236 217.2H322.956V218.76C322.956 221.373 323.289 223.347 323.956 224.68C324.623 226.013 325.783 226.68 327.436 226.68C330.529 226.68 332.556 225.027 333.516 221.72L334.236 221.84C333.729 223.76 332.809 225.253 331.476 226.32C330.169 227.387 328.196 227.92 325.556 227.92ZM322.996 216.4H327.116V214.44C327.116 212.28 326.983 210.813 326.716 210.04C326.476 209.24 325.969 208.84 325.196 208.84C324.449 208.84 323.889 209.267 323.516 210.12C323.169 210.947 322.996 212.387 322.996 214.44V216.4ZM70.3474 280.76L67.4274 272.12H59.5074L56.4274 280.76H59.4274V281.52H53.3074V280.76H55.1874L65.3874 253.28H68.6674L78.7474 280.76H80.5874V281.52H67.5074V280.76H70.3474ZM63.6274 260.76L59.8674 271.24H67.1074L63.6274 260.76ZM98.0502 270.76C98.0502 268.013 97.9169 266.173 97.6502 265.24C97.3835 264.28 96.8635 263.8 96.0902 263.8C95.3169 263.8 94.6235 264.307 94.0102 265.32C93.3969 266.307 93.0902 267.64 93.0902 269.32V276.64C93.0902 277.787 93.3169 278.76 93.7702 279.56C94.2235 280.36 94.8902 280.76 95.7702 280.76C96.6502 280.76 97.2502 280.173 97.5702 279C97.8902 277.827 98.0502 275.773 98.0502 272.84V270.76ZM93.0102 262.48V265.64C94.0502 263.267 95.8902 262.08 98.5302 262.08C100.824 262.08 102.597 262.907 103.85 264.56C105.13 266.213 105.77 268.72 105.77 272.08C105.77 275.44 105.077 277.92 103.69 279.52C102.33 281.12 100.277 281.92 97.5302 281.92C96.2502 281.92 95.2902 281.76 94.6502 281.44C94.0102 281.12 93.4902 280.627 93.0902 279.96V290.32H98.2502V291.04H83.4502V290.32H85.6502V263.2H83.5302V262.48H93.0102ZM124.166 270.76C124.166 268.013 124.032 266.173 123.766 265.24C123.499 264.28 122.979 263.8 122.206 263.8C121.432 263.8 120.739 264.307 120.126 265.32C119.512 266.307 119.206 267.64 119.206 269.32V276.64C119.206 277.787 119.432 278.76 119.886 279.56C120.339 280.36 121.006 280.76 121.886 280.76C122.766 280.76 123.366 280.173 123.686 279C124.006 277.827 124.166 275.773 124.166 272.84V270.76ZM119.126 262.48V265.64C120.166 263.267 122.006 262.08 124.646 262.08C126.939 262.08 128.712 262.907 129.966 264.56C131.246 266.213 131.886 268.72 131.886 272.08C131.886 275.44 131.192 277.92 129.806 279.52C128.446 281.12 126.392 281.92 123.646 281.92C122.366 281.92 121.406 281.76 120.766 281.44C120.126 281.12 119.606 280.627 119.206 279.96V290.32H124.366V291.04H109.566V290.32H111.766V263.2H109.646V262.48H119.126ZM135.521 251.52H145.321V280.8H147.561V281.52H135.681V280.8H137.881V252.24H135.521V251.52ZM156.818 259.72C155.404 259.72 154.391 259.36 153.778 258.64C153.191 257.92 152.898 257.027 152.898 255.96C152.898 254.893 153.218 254.013 153.858 253.32C154.524 252.627 155.524 252.28 156.858 252.28C158.191 252.28 159.204 252.6 159.898 253.24C160.591 253.853 160.938 254.747 160.938 255.92C160.938 257.067 160.604 257.987 159.938 258.68C159.271 259.373 158.231 259.72 156.818 259.72ZM150.778 262.48H160.578V280.8H162.818V281.52H150.938V280.8H153.138V263.2H150.778V262.48ZM177.433 262.8C176.26 262.8 175.42 263.44 174.913 264.72C174.406 266 174.153 268.12 174.153 271.08V273.16C174.153 275.8 174.446 277.693 175.033 278.84C175.62 279.987 176.7 280.56 178.273 280.56C179.846 280.56 181.1 280.027 182.033 278.96C182.966 277.893 183.566 276.68 183.833 275.32L184.553 275.4C184.046 277.693 183.113 279.347 181.753 280.36C180.366 281.4 178.46 281.92 176.033 281.92C172.94 281.92 170.566 281.093 168.913 279.44C167.26 277.76 166.433 275.32 166.433 272.12C166.433 268.893 167.366 266.413 169.233 264.68C171.126 262.947 173.753 262.08 177.113 262.08C179.486 262.08 181.3 262.547 182.553 263.48C183.806 264.387 184.433 265.533 184.433 266.92C184.433 268.307 184.126 269.32 183.513 269.96C182.926 270.6 182.1 270.92 181.033 270.92C179.993 270.92 179.153 270.64 178.513 270.08C177.873 269.52 177.553 268.693 177.553 267.6C177.553 267.12 177.62 266.64 177.753 266.16H179.073C179.26 265.627 179.353 265.147 179.353 264.72C179.353 263.44 178.713 262.8 177.433 262.8ZM197.769 272.12H198.929V269.04C198.929 266.507 198.782 264.813 198.489 263.96C198.222 263.08 197.689 262.64 196.889 262.64C196.409 262.64 195.969 262.773 195.569 263.04C195.196 263.28 195.009 263.627 195.009 264.08C195.009 264.507 195.089 264.947 195.249 265.4H196.249C196.462 265.96 196.569 266.64 196.569 267.44C196.569 268.213 196.236 268.893 195.569 269.48C194.902 270.04 194.062 270.32 193.049 270.32C190.756 270.32 189.609 269.213 189.609 267C189.609 263.72 192.396 262.08 197.969 262.08C201.142 262.08 203.329 262.627 204.529 263.72C205.756 264.787 206.369 266.76 206.369 269.64V277.76C206.369 279.147 206.756 279.84 207.529 279.84C208.436 279.84 208.969 278.467 209.129 275.72L209.729 275.76C209.622 278.107 209.182 279.72 208.409 280.6C207.636 281.48 206.369 281.92 204.609 281.92C201.409 281.92 199.569 280.933 199.089 278.96C198.742 279.973 198.222 280.72 197.529 281.2C196.836 281.68 195.822 281.92 194.489 281.92C190.542 281.92 188.569 280.307 188.569 277.08C188.569 275.187 189.316 273.893 190.809 273.2C192.329 272.48 194.649 272.12 197.769 272.12ZM196.169 277.04C196.169 278.427 196.236 279.32 196.369 279.72C196.529 280.12 196.809 280.32 197.209 280.32C197.636 280.32 198.022 279.987 198.369 279.32C198.742 278.627 198.929 277.68 198.929 276.48V272.76H198.649C196.996 272.76 196.169 273.973 196.169 276.4V277.04ZM214.136 275.8V263.2H211.936V262.48H214.136V257.32L221.576 255.48V262.48H226.776V263.2H221.576V276.68C221.576 277.933 221.696 278.853 221.936 279.44C222.203 280.027 222.736 280.32 223.536 280.32C224.336 280.32 225.029 279.92 225.616 279.12C226.229 278.32 226.629 277.227 226.816 275.84L227.496 275.92C227.283 277.76 226.696 279.227 225.736 280.32C224.776 281.387 223.189 281.92 220.976 281.92C218.763 281.92 217.069 281.48 215.896 280.6C214.723 279.72 214.136 278.12 214.136 275.8ZM236.358 259.72C234.945 259.72 233.932 259.36 233.318 258.64C232.732 257.92 232.438 257.027 232.438 255.96C232.438 254.893 232.758 254.013 233.398 253.32C234.065 252.627 235.065 252.28 236.398 252.28C237.732 252.28 238.745 252.6 239.438 253.24C240.132 253.853 240.478 254.747 240.478 255.92C240.478 257.067 240.145 257.987 239.478 258.68C238.812 259.373 237.772 259.72 236.358 259.72ZM230.318 262.48H240.118V280.8H242.358V281.52H230.478V280.8H232.678V263.2H230.318V262.48ZM258.694 273.64V270.24C258.694 267.653 258.547 265.773 258.254 264.6C257.987 263.4 257.347 262.8 256.334 262.8C255.747 262.8 255.267 262.973 254.894 263.32C254.547 263.64 254.294 264.187 254.134 264.96C253.894 266.16 253.774 267.987 253.774 270.44V273.56C253.774 276.467 253.854 278.213 254.014 278.8C254.2 279.387 254.387 279.867 254.574 280.24C254.867 280.88 255.44 281.2 256.294 281.2C257.334 281.2 258.014 280.6 258.334 279.4C258.574 278.547 258.694 276.627 258.694 273.64ZM256.214 281.92C252.88 281.92 250.36 281.067 248.654 279.36C246.947 277.653 246.094 275.213 246.094 272.04C246.094 268.84 247 266.387 248.814 264.68C250.654 262.947 253.227 262.08 256.534 262.08C259.84 262.08 262.307 262.88 263.934 264.48C265.56 266.053 266.374 268.467 266.374 271.72C266.374 278.52 262.987 281.92 256.214 281.92ZM270.172 262.48H279.812V266.16C280.239 264.933 280.892 263.947 281.772 263.2C282.652 262.453 283.986 262.08 285.772 262.08C289.906 262.08 291.972 264.307 291.972 268.76V280.8H294.212V281.52H282.892V280.8H284.532V267.8C284.532 266.2 284.426 265.173 284.212 264.72C283.999 264.24 283.612 264 283.052 264C282.199 264 281.439 264.56 280.772 265.68C280.132 266.8 279.812 268.16 279.812 269.76V280.8H281.532V281.52H270.172V280.8H272.372V263.2H270.172V262.48Z" fill="#87A768"/>
<circle cx="37.9016" cy="64.2483" r="2.10769" fill="#87A768"/>
<circle cx="58.2119" cy="64.2481" r="2.10769" fill="#87A768"/>
<circle cx="78.5225" cy="64.2481" r="2.10769" fill="#87A768"/>
<circle cx="98.8328" cy="64.2481" r="2.10769" fill="#87A768"/>
<circle cx="119.143" cy="64.2481" r="2.10769" fill="#87A768"/>
<circle cx="139.454" cy="64.2481" r="2.10769" fill="#87A768"/>
<circle cx="159.764" cy="64.2481" r="2.10769" fill="#87A768"/>
<circle cx="180.075" cy="64.2481" r="2.10769" fill="#87A768"/>
<circle cx="200.385" cy="64.2481" r="2.10769" fill="#87A768"/>
<circle cx="220.696" cy="64.2481" r="2.10769" fill="#87A768"/>
<circle cx="239.09" cy="64.2481" r="2.10769" fill="#87A768"/>
<circle cx="259.401" cy="64.2481" r="2.10769" fill="#87A768"/>
<circle cx="279.711" cy="64.2481" r="2.10769" fill="#87A768"/>
<circle cx="300.022" cy="64.2481" r="2.10769" fill="#87A768"/>
<circle cx="320.332" cy="64.2481" r="2.10769" fill="#87A768"/>
<circle cx="340.643" cy="64.2481" r="2.10769" fill="#87A768"/>
<circle cx="360.953" cy="64.2481" r="2.10769" fill="#87A768"/>
<circle cx="381.264" cy="64.2481" r="2.10769" fill="#87A768"/>
<circle cx="401.574" cy="64.2481" r="2.10769" fill="#87A768"/>
<circle cx="421.885" cy="64.2481" r="2.10769" fill="#87A768"/>
<circle cx="442.195" cy="64.2481" r="2.10769" fill="#87A768"/>
<circle cx="462.506" cy="64.2481" r="2.10769" fill="#87A768"/>
<circle cx="482.816" cy="64.2481" r="2.10769" fill="#87A768"/>
<circle cx="503.127" cy="64.2481" r="2.10769" fill="#87A768"/>
<circle cx="523.437" cy="64.2481" r="2.10769" fill="#87A768"/>
<circle cx="37.9014" cy="83.0259" r="2.10769" fill="#87A768"/>
<circle cx="58.2117" cy="83.0259" r="2.10769" fill="#87A768"/>
<circle cx="78.5222" cy="83.0259" r="2.10769" fill="#87A768"/>
<circle cx="98.8328" cy="83.0259" r="2.10769" fill="#87A768"/>
<circle cx="119.143" cy="83.0259" r="2.10769" fill="#87A768"/>
<circle cx="139.454" cy="83.0259" r="2.10769" fill="#87A768"/>
<circle cx="159.764" cy="83.0259" r="2.10769" fill="#87A768"/>
<circle cx="180.075" cy="83.0259" r="2.10769" fill="#87A768"/>
<circle cx="200.385" cy="83.0259" r="2.10769" fill="#87A768"/>
<circle cx="220.696" cy="83.0259" r="2.10769" fill="#87A768"/>
<circle cx="239.09" cy="83.0259" r="2.10769" fill="#87A768"/>
<circle cx="259.401" cy="83.0259" r="2.10769" fill="#87A768"/>
<circle cx="279.711" cy="83.0259" r="2.10769" fill="#87A768"/>
<circle cx="300.022" cy="83.0259" r="2.10769" fill="#87A768"/>
<circle cx="320.332" cy="83.0259" r="2.10769" fill="#87A768"/>
<circle cx="340.643" cy="83.0259" r="2.10769" fill="#87A768"/>
<circle cx="360.953" cy="83.0259" r="2.10769" fill="#87A768"/>
<circle cx="381.264" cy="83.0259" r="2.10769" fill="#87A768"/>
<circle cx="401.574" cy="83.0259" r="2.10769" fill="#87A768"/>
<circle cx="421.885" cy="83.0259" r="2.10769" fill="#87A768"/>
<circle cx="442.195" cy="83.0259" r="2.10769" fill="#87A768"/>
<circle cx="462.506" cy="83.0259" r="2.10769" fill="#87A768"/>
<circle cx="482.816" cy="83.0259" r="2.10769" fill="#87A768"/>
<circle cx="503.126" cy="83.0259" r="2.10769" fill="#87A768"/>
<circle cx="523.437" cy="83.0259" r="2.10769" fill="#87A768"/>
<circle cx="37.9014" cy="101.803" r="2.10769" fill="#87A768"/>
<circle cx="58.2117" cy="101.803" r="2.10769" fill="#87A768"/>
<circle cx="78.5222" cy="101.803" r="2.10769" fill="#87A768"/>
<circle cx="98.8328" cy="101.803" r="2.10769" fill="#87A768"/>
<circle cx="119.143" cy="101.803" r="2.10769" fill="#87A768"/>
<circle cx="139.454" cy="101.803" r="2.10769" fill="#87A768"/>
<circle cx="159.764" cy="101.803" r="2.10769" fill="#87A768"/>
<circle cx="180.075" cy="101.803" r="2.10769" fill="#87A768"/>
<circle cx="200.385" cy="101.803" r="2.10769" fill="#87A768"/>
<circle cx="220.696" cy="101.803" r="2.10769" fill="#87A768"/>
<circle cx="239.09" cy="101.803" r="2.10769" fill="#87A768"/>
<circle cx="259.401" cy="101.803" r="2.10769" fill="#87A768"/>
<circle cx="279.711" cy="101.803" r="2.10769" fill="#87A768"/>
<circle cx="300.022" cy="101.803" r="2.10769" fill="#87A768"/>
<circle cx="320.332" cy="101.803" r="2.10769" fill="#87A768"/>
<circle cx="340.643" cy="101.803" r="2.10769" fill="#87A768"/>
<circle cx="360.953" cy="101.803" r="2.10769" fill="#87A768"/>
<circle cx="381.264" cy="101.803" r="2.10769" fill="#87A768"/>
<circle cx="401.574" cy="101.803" r="2.10769" fill="#87A768"/>
<circle cx="421.885" cy="101.803" r="2.10769" fill="#87A768"/>
<circle cx="442.195" cy="101.803" r="2.10769" fill="#87A768"/>
<circle cx="462.506" cy="101.803" r="2.10769" fill="#87A768"/>
<circle cx="482.816" cy="101.803" r="2.10769" fill="#87A768"/>
<circle cx="503.126" cy="101.803" r="2.10769" fill="#87A768"/>
<circle cx="523.437" cy="101.803" r="2.10769" fill="#87A768"/>
<circle cx="37.9014" cy="120.581" r="2.10769" fill="#87A768"/>
<circle cx="58.2117" cy="120.581" r="2.10769" fill="#87A768"/>
<circle cx="78.5222" cy="120.581" r="2.10769" fill="#87A768"/>
<circle cx="98.8328" cy="120.581" r="2.10769" fill="#87A768"/>
<circle cx="119.143" cy="120.581" r="2.10769" fill="#87A768"/>
<circle cx="139.454" cy="120.581" r="2.10769" fill="#87A768"/>
<circle cx="159.764" cy="120.581" r="2.10769" fill="#87A768"/>
<circle cx="180.075" cy="120.581" r="2.10769" fill="#87A768"/>
<circle cx="200.385" cy="120.581" r="2.10769" fill="#87A768"/>
<circle cx="220.696" cy="120.581" r="2.10769" fill="#87A768"/>
<circle cx="239.09" cy="120.581" r="2.10769" fill="#87A768"/>
<circle cx="259.401" cy="120.581" r="2.10769" fill="#87A768"/>
<circle cx="279.711" cy="120.581" r="2.10769" fill="#87A768"/>
<circle cx="300.022" cy="120.581" r="2.10769" fill="#87A768"/>
<circle cx="320.332" cy="120.581" r="2.10769" fill="#87A768"/>
<circle cx="340.643" cy="120.581" r="2.10769" fill="#87A768"/>
<circle cx="360.953" cy="120.581" r="2.10769" fill="#87A768"/>
<circle cx="381.264" cy="120.581" r="2.10769" fill="#87A768"/>
<circle cx="401.574" cy="120.581" r="2.10769" fill="#87A768"/>
<circle cx="421.885" cy="120.581" r="2.10769" fill="#87A768"/>
<circle cx="442.195" cy="120.581" r="2.10769" fill="#87A768"/>
<circle cx="462.506" cy="120.581" r="2.10769" fill="#87A768"/>
<circle cx="482.816" cy="120.581" r="2.10769" fill="#87A768"/>
<circle cx="503.126" cy="120.581" r="2.10769" fill="#87A768"/>
<circle cx="523.437" cy="120.581" r="2.10769" fill="#87A768"/>
<circle cx="37.9014" cy="139.359" r="2.10769" fill="#87A768"/>
<circle cx="58.2117" cy="139.358" r="2.10769" fill="#87A768"/>
<circle cx="78.5222" cy="139.358" r="2.10769" fill="#87A768"/>
<circle cx="98.8328" cy="139.358" r="2.10769" fill="#87A768"/>
<circle cx="119.143" cy="139.358" r="2.10769" fill="#87A768"/>
<circle cx="139.454" cy="139.358" r="2.10769" fill="#87A768"/>
<circle cx="159.764" cy="139.358" r="2.10769" fill="#87A768"/>
<circle cx="180.075" cy="139.358" r="2.10769" fill="#87A768"/>
<circle cx="200.385" cy="139.358" r="2.10769" fill="#87A768"/>
<circle cx="220.696" cy="139.358" r="2.10769" fill="#87A768"/>
<circle cx="239.09" cy="139.358" r="2.10769" fill="#87A768"/>
<circle cx="259.401" cy="139.358" r="2.10769" fill="#87A768"/>
<circle cx="279.711" cy="139.358" r="2.10769" fill="#87A768"/>
<circle cx="300.022" cy="139.358" r="2.10769" fill="#87A768"/>
<circle cx="320.332" cy="139.358" r="2.10769" fill="#87A768"/>
<circle cx="340.643" cy="139.358" r="2.10769" fill="#87A768"/>
<circle cx="360.953" cy="139.358" r="2.10769" fill="#87A768"/>
<circle cx="381.264" cy="139.358" r="2.10769" fill="#87A768"/>
<circle cx="401.574" cy="139.358" r="2.10769" fill="#87A768"/>
<circle cx="421.885" cy="139.358" r="2.10769" fill="#87A768"/>
<circle cx="442.195" cy="139.358" r="2.10769" fill="#87A768"/>
<circle cx="462.506" cy="139.358" r="2.10769" fill="#87A768"/>
<circle cx="482.816" cy="139.358" r="2.10769" fill="#87A768"/>
<circle cx="503.126" cy="139.358" r="2.10769" fill="#87A768"/>
<circle cx="523.437" cy="139.358" r="2.10769" fill="#87A768"/>
<circle cx="37.9014" cy="158.136" r="2.10769" fill="#87A768"/>
<circle cx="58.2117" cy="158.136" r="2.10769" fill="#87A768"/>
<circle cx="78.5222" cy="158.136" r="2.10769" fill="#87A768"/>
<circle cx="98.8328" cy="158.136" r="2.10769" fill="#87A768"/>
<circle cx="119.143" cy="158.136" r="2.10769" fill="#87A768"/>
<circle cx="139.454" cy="158.136" r="2.10769" fill="#87A768"/>
<circle cx="159.764" cy="158.136" r="2.10769" fill="#87A768"/>
<circle cx="180.075" cy="158.136" r="2.10769" fill="#87A768"/>
<circle cx="200.385" cy="158.136" r="2.10769" fill="#87A768"/>
<circle cx="220.696" cy="158.136" r="2.10769" fill="#87A768"/>
<circle cx="239.09" cy="158.136" r="2.10769" fill="#87A768"/>
<circle cx="259.401" cy="158.136" r="2.10769" fill="#87A768"/>
<circle cx="279.711" cy="158.136" r="2.10769" fill="#87A768"/>
<circle cx="300.022" cy="158.136" r="2.10769" fill="#87A768"/>
<circle cx="320.332" cy="158.136" r="2.10769" fill="#87A768"/>
<circle cx="340.643" cy="158.136" r="2.10769" fill="#87A768"/>
<circle cx="360.953" cy="158.136" r="2.10769" fill="#87A768"/>
<circle cx="381.264" cy="158.136" r="2.10769" fill="#87A768"/>
<circle cx="401.574" cy="158.136" r="2.10769" fill="#87A768"/>
<circle cx="421.885" cy="158.136" r="2.10769" fill="#87A768"/>
<circle cx="442.195" cy="158.136" r="2.10769" fill="#87A768"/>
<circle cx="462.506" cy="158.136" r="2.10769" fill="#87A768"/>
<circle cx="482.816" cy="158.136" r="2.10769" fill="#87A768"/>
<circle cx="503.126" cy="158.136" r="2.10769" fill="#87A768"/>
<circle cx="523.437" cy="158.136" r="2.10769" fill="#87A768"/>
<circle cx="37.9016" cy="502.648" r="2.10769" fill="#87A768"/>
<circle cx="58.2119" cy="502.648" r="2.10769" fill="#87A768"/>
<circle cx="78.5225" cy="502.648" r="2.10769" fill="#87A768"/>
<circle cx="98.8328" cy="502.648" r="2.10769" fill="#87A768"/>
<circle cx="119.143" cy="502.648" r="2.10769" fill="#87A768"/>
<circle cx="139.454" cy="502.648" r="2.10769" fill="#87A768"/>
<circle cx="159.764" cy="502.648" r="2.10769" fill="#87A768"/>
<circle cx="180.075" cy="502.648" r="2.10769" fill="#87A768"/>
<circle cx="200.385" cy="502.648" r="2.10769" fill="#87A768"/>
<circle cx="220.696" cy="502.648" r="2.10769" fill="#87A768"/>
<circle cx="239.09" cy="502.648" r="2.10769" fill="#87A768"/>
<circle cx="259.401" cy="502.648" r="2.10769" fill="#87A768"/>
<circle cx="279.711" cy="502.648" r="2.10769" fill="#87A768"/>
<circle cx="300.022" cy="502.648" r="2.10769" fill="#87A768"/>
<circle cx="320.332" cy="502.648" r="2.10769" fill="#87A768"/>
<circle cx="340.643" cy="502.648" r="2.10769" fill="#87A768"/>
<circle cx="360.953" cy="502.648" r="2.10769" fill="#87A768"/>
<circle cx="381.264" cy="502.648" r="2.10769" fill="#87A768"/>
<circle cx="401.574" cy="502.648" r="2.10769" fill="#87A768"/>
<circle cx="421.885" cy="502.648" r="2.10769" fill="#87A768"/>
<circle cx="442.195" cy="502.648" r="2.10769" fill="#87A768"/>
<circle cx="462.506" cy="502.648" r="2.10769" fill="#87A768"/>
<circle cx="482.816" cy="502.648" r="2.10769" fill="#87A768"/>
<circle cx="503.127" cy="502.648" r="2.10769" fill="#87A768"/>
<circle cx="523.437" cy="502.648" r="2.10769" fill="#87A768"/>
<circle cx="37.9014" cy="520.276" r="2.10769" fill="#87A768"/>
<circle cx="58.2117" cy="520.276" r="2.10769" fill="#87A768"/>
<circle cx="78.5222" cy="520.276" r="2.10769" fill="#87A768"/>
<circle cx="98.8328" cy="520.276" r="2.10769" fill="#87A768"/>
<circle cx="119.143" cy="520.276" r="2.10769" fill="#87A768"/>
<circle cx="139.454" cy="520.276" r="2.10769" fill="#87A768"/>
<circle cx="159.764" cy="520.276" r="2.10769" fill="#87A768"/>
<circle cx="180.075" cy="520.276" r="2.10769" fill="#87A768"/>
<circle cx="200.385" cy="520.276" r="2.10769" fill="#87A768"/>
<circle cx="220.696" cy="520.276" r="2.10769" fill="#87A768"/>
<circle cx="239.09" cy="520.276" r="2.10769" fill="#87A768"/>
<circle cx="259.401" cy="520.276" r="2.10769" fill="#87A768"/>
<circle cx="279.711" cy="520.276" r="2.10769" fill="#87A768"/>
<circle cx="300.022" cy="520.276" r="2.10769" fill="#87A768"/>
<circle cx="320.332" cy="520.276" r="2.10769" fill="#87A768"/>
<circle cx="340.643" cy="520.276" r="2.10769" fill="#87A768"/>
<circle cx="360.953" cy="520.276" r="2.10769" fill="#87A768"/>
<circle cx="381.264" cy="520.276" r="2.10769" fill="#87A768"/>
<circle cx="401.574" cy="520.276" r="2.10769" fill="#87A768"/>
<circle cx="421.885" cy="520.276" r="2.10769" fill="#87A768"/>
<circle cx="442.195" cy="520.276" r="2.10769" fill="#87A768"/>
<circle cx="462.506" cy="520.276" r="2.10769" fill="#87A768"/>
<circle cx="482.816" cy="520.276" r="2.10769" fill="#87A768"/>
<circle cx="503.126" cy="520.276" r="2.10769" fill="#87A768"/>
<circle cx="523.437" cy="520.276" r="2.10769" fill="#87A768"/>
<circle cx="37.9014" cy="537.904" r="2.10769" fill="#87A768"/>
<circle cx="58.2117" cy="537.904" r="2.10769" fill="#87A768"/>
<circle cx="78.5225" cy="537.904" r="2.10769" fill="#87A768"/>
<circle cx="98.8328" cy="537.904" r="2.10769" fill="#87A768"/>
<circle cx="119.143" cy="537.904" r="2.10769" fill="#87A768"/>
<circle cx="139.454" cy="537.904" r="2.10769" fill="#87A768"/>
<circle cx="159.764" cy="537.904" r="2.10769" fill="#87A768"/>
<circle cx="180.075" cy="537.904" r="2.10769" fill="#87A768"/>
<circle cx="200.385" cy="537.904" r="2.10769" fill="#87A768"/>
<circle cx="220.696" cy="537.904" r="2.10769" fill="#87A768"/>
<circle cx="239.09" cy="537.904" r="2.10769" fill="#87A768"/>
<circle cx="259.401" cy="537.904" r="2.10769" fill="#87A768"/>
<circle cx="279.711" cy="537.904" r="2.10769" fill="#87A768"/>
<circle cx="300.022" cy="537.904" r="2.10769" fill="#87A768"/>
<circle cx="320.332" cy="537.904" r="2.10769" fill="#87A768"/>
<circle cx="340.643" cy="537.904" r="2.10769" fill="#87A768"/>
<circle cx="360.953" cy="537.904" r="2.10769" fill="#87A768"/>
<circle cx="381.264" cy="537.904" r="2.10769" fill="#87A768"/>
<circle cx="401.574" cy="537.904" r="2.10769" fill="#87A768"/>
<circle cx="421.885" cy="537.904" r="2.10769" fill="#87A768"/>
<circle cx="442.195" cy="537.904" r="2.10769" fill="#87A768"/>
<circle cx="462.506" cy="537.904" r="2.10769" fill="#87A768"/>
<circle cx="482.816" cy="537.904" r="2.10769" fill="#87A768"/>
<circle cx="503.126" cy="537.904" r="2.10769" fill="#87A768"/>
<circle cx="523.437" cy="537.904" r="2.10769" fill="#87A768"/>
<circle cx="37.9014" cy="555.532" r="2.10769" fill="#87A768"/>
<circle cx="58.2117" cy="555.532" r="2.10769" fill="#87A768"/>
<circle cx="78.5222" cy="555.532" r="2.10769" fill="#87A768"/>
<circle cx="98.8328" cy="555.532" r="2.10769" fill="#87A768"/>
<circle cx="119.143" cy="555.532" r="2.10769" fill="#87A768"/>
<circle cx="139.454" cy="555.532" r="2.10769" fill="#87A768"/>
<circle cx="159.764" cy="555.532" r="2.10769" fill="#87A768"/>
<circle cx="180.075" cy="555.532" r="2.10769" fill="#87A768"/>
<circle cx="200.385" cy="555.532" r="2.10769" fill="#87A768"/>
<circle cx="220.696" cy="555.532" r="2.10769" fill="#87A768"/>
<circle cx="239.09" cy="555.532" r="2.10769" fill="#87A768"/>
<circle cx="259.401" cy="555.532" r="2.10769" fill="#87A768"/>
<circle cx="279.711" cy="555.532" r="2.10769" fill="#87A768"/>
<circle cx="300.022" cy="555.532" r="2.10769" fill="#87A768"/>
<circle cx="320.332" cy="555.532" r="2.10769" fill="#87A768"/>
<circle cx="340.643" cy="555.532" r="2.10769" fill="#87A768"/>
<circle cx="360.953" cy="555.532" r="2.10769" fill="#87A768"/>
<circle cx="381.264" cy="555.532" r="2.10769" fill="#87A768"/>
<circle cx="401.574" cy="555.532" r="2.10769" fill="#87A768"/>
<circle cx="421.885" cy="555.532" r="2.10769" fill="#87A768"/>
<circle cx="442.195" cy="555.532" r="2.10769" fill="#87A768"/>
<circle cx="462.506" cy="555.532" r="2.10769" fill="#87A768"/>
<circle cx="482.816" cy="555.532" r="2.10769" fill="#87A768"/>
<circle cx="503.126" cy="555.532" r="2.10769" fill="#87A768"/>
<circle cx="523.437" cy="555.532" r="2.10769" fill="#87A768"/>
<circle cx="37.9014" cy="573.16" r="2.10769" fill="#87A768"/>
<circle cx="58.2117" cy="573.16" r="2.10769" fill="#87A768"/>
<circle cx="78.5222" cy="573.16" r="2.10769" fill="#87A768"/>
<circle cx="98.8328" cy="573.16" r="2.10769" fill="#87A768"/>
<circle cx="119.143" cy="573.16" r="2.10769" fill="#87A768"/>
<circle cx="139.454" cy="573.16" r="2.10769" fill="#87A768"/>
<circle cx="159.764" cy="573.16" r="2.10769" fill="#87A768"/>
<circle cx="180.075" cy="573.16" r="2.10769" fill="#87A768"/>
<circle cx="200.385" cy="573.16" r="2.10769" fill="#87A768"/>
<circle cx="220.696" cy="573.16" r="2.10769" fill="#87A768"/>
<circle cx="239.09" cy="573.16" r="2.10769" fill="#87A768"/>
<circle cx="259.401" cy="573.16" r="2.10769" fill="#87A768"/>
<circle cx="279.711" cy="573.16" r="2.10769" fill="#87A768"/>
<circle cx="300.022" cy="573.16" r="2.10769" fill="#87A768"/>
<circle cx="320.332" cy="573.16" r="2.10769" fill="#87A768"/>
<circle cx="340.643" cy="573.16" r="2.10769" fill="#87A768"/>
<circle cx="360.953" cy="573.16" r="2.10769" fill="#87A768"/>
<circle cx="381.264" cy="573.16" r="2.10769" fill="#87A768"/>
<circle cx="401.574" cy="573.16" r="2.10769" fill="#87A768"/>
<circle cx="421.885" cy="573.16" r="2.10769" fill="#87A768"/>
<circle cx="442.195" cy="573.16" r="2.10769" fill="#87A768"/>
<circle cx="462.506" cy="573.16" r="2.10769" fill="#87A768"/>
<circle cx="482.816" cy="573.16" r="2.10769" fill="#87A768"/>
<circle cx="503.126" cy="573.16" r="2.10769" fill="#87A768"/>
<circle cx="523.437" cy="573.16" r="2.10769" fill="#87A768"/>
<circle cx="37.9014" cy="590.788" r="2.10769" fill="#87A768"/>
<circle cx="58.2117" cy="590.788" r="2.10769" fill="#87A768"/>
<circle cx="78.5222" cy="590.788" r="2.10769" fill="#87A768"/>
<circle cx="98.8328" cy="590.788" r="2.10769" fill="#87A768"/>
<circle cx="119.143" cy="590.788" r="2.10769" fill="#87A768"/>
<circle cx="139.454" cy="590.788" r="2.10769" fill="#87A768"/>
<circle cx="159.764" cy="590.788" r="2.10769" fill="#87A768"/>
<circle cx="180.075" cy="590.788" r="2.10769" fill="#87A768"/>
<circle cx="200.385" cy="590.788" r="2.10769" fill="#87A768"/>
<circle cx="220.696" cy="590.788" r="2.10769" fill="#87A768"/>
<circle cx="239.09" cy="590.788" r="2.10769" fill="#87A768"/>
<circle cx="259.401" cy="590.788" r="2.10769" fill="#87A768"/>
<circle cx="279.711" cy="590.788" r="2.10769" fill="#87A768"/>
<circle cx="300.022" cy="590.788" r="2.10769" fill="#87A768"/>
<circle cx="320.332" cy="590.788" r="2.10769" fill="#87A768"/>
<circle cx="340.643" cy="590.788" r="2.10769" fill="#87A768"/>
<circle cx="360.953" cy="590.788" r="2.10769" fill="#87A768"/>
<circle cx="381.264" cy="590.788" r="2.10769" fill="#87A768"/>
<circle cx="401.574" cy="590.788" r="2.10769" fill="#87A768"/>
<circle cx="421.885" cy="590.788" r="2.10769" fill="#87A768"/>
<circle cx="442.195" cy="590.788" r="2.10769" fill="#87A768"/>
<circle cx="462.506" cy="590.788" r="2.10769" fill="#87A768"/>
<circle cx="482.816" cy="590.788" r="2.10769" fill="#87A768"/>
<circle cx="503.126" cy="590.788" r="2.10769" fill="#87A768"/>
<circle cx="523.437" cy="590.788" r="2.10769" fill="#87A768"/>
<path d="M55.0012 323.033V328.34H62.2629V330.037H55.0012V335.849H52.9495V321.358H62.5208V323.033H55.0012ZM75.304 325.987C74.5019 325.851 73.7428 325.783 73.0266 325.783C71.8736 325.783 70.9426 326.217 70.2336 327.083C69.5247 327.95 69.1702 329.053 69.1702 330.392V335.849H67.2366V328.318C67.2366 327.774 67.1864 327.133 67.0862 326.396C66.9931 325.658 66.857 324.935 66.678 324.226H68.5149C68.8014 325.214 68.9732 326.109 69.0305 326.911H69.0842C69.4423 326.109 69.7932 325.522 70.137 325.15C70.4807 324.77 70.8889 324.487 71.3616 324.301C71.8342 324.108 72.4107 324.011 73.0911 324.011C73.8359 324.011 74.5735 324.072 75.304 324.193V325.987ZM89.0754 330.026C89.0754 331.982 88.6243 333.478 87.7219 334.517C86.8267 335.548 85.5305 336.064 83.8333 336.064C82.1718 336.064 80.8971 335.541 80.009 334.495C79.1282 333.45 78.6877 331.96 78.6877 330.026C78.6877 328.028 79.1389 326.528 80.0413 325.526C80.9508 324.516 82.2362 324.011 83.8977 324.011C85.6451 324.011 86.9449 324.509 87.7971 325.504C88.6493 326.499 89.0754 328.007 89.0754 330.026ZM87.0452 330.026C87.0452 328.487 86.7981 327.337 86.304 326.578C85.817 325.819 85.0256 325.44 83.9299 325.44C82.8199 325.44 82.0071 325.826 81.4915 326.6C80.9758 327.373 80.718 328.515 80.718 330.026C80.718 331.53 80.9758 332.676 81.4915 333.464C82.0071 334.245 82.7805 334.635 83.8118 334.635C84.9504 334.635 85.774 334.252 86.2825 333.485C86.7909 332.719 87.0452 331.566 87.0452 330.026ZM96.2083 335.849V328.48C96.2083 327.377 96.1187 326.607 95.9397 326.17C95.7678 325.726 95.4491 325.504 94.9836 325.504C94.5253 325.504 94.1529 325.848 93.8665 326.535C93.5872 327.223 93.4475 328.154 93.4475 329.328V335.849H91.6321V326.707C91.6321 325.354 91.6106 324.526 91.5676 324.226H93.1682L93.2327 325.59V326.106H93.2542C93.4976 325.375 93.8056 324.845 94.178 324.516C94.5504 324.179 95.0159 324.011 95.5745 324.011C96.2047 324.011 96.6737 324.183 96.9817 324.526C97.2968 324.87 97.5224 325.4 97.6584 326.116H97.6799C97.9664 325.357 98.3066 324.817 98.7004 324.494C99.1015 324.172 99.6064 324.011 100.215 324.011C101.06 324.011 101.665 324.319 102.031 324.935C102.396 325.551 102.578 326.607 102.578 328.104V335.849H100.774V328.48C100.774 327.377 100.684 326.607 100.505 326.17C100.333 325.726 100.015 325.504 99.5491 325.504C99.0764 325.504 98.7004 325.805 98.4211 326.406C98.149 327.008 98.0129 327.91 98.0129 329.113V335.849H96.2083ZM118.326 330.026C118.326 328.093 118.788 326.607 119.712 325.568C120.636 324.53 121.972 324.011 123.719 324.011C125.022 324.011 126.097 324.326 126.942 324.956C127.787 325.579 128.309 326.421 128.51 327.481L126.448 327.631C126.333 326.979 126.046 326.467 125.588 326.095C125.13 325.715 124.478 325.526 123.633 325.526C122.502 325.526 121.671 325.876 121.141 326.578C120.618 327.28 120.357 328.415 120.357 329.984C120.357 331.573 120.618 332.737 121.141 333.475C121.671 334.205 122.498 334.57 123.622 334.57C124.396 334.57 125.037 334.381 125.545 334.001C126.054 333.622 126.369 333.041 126.49 332.261L128.531 332.39C128.438 333.077 128.177 333.704 127.747 334.27C127.325 334.828 126.763 335.269 126.061 335.591C125.359 335.906 124.575 336.064 123.708 336.064C121.954 336.064 120.618 335.548 119.701 334.517C118.785 333.485 118.326 331.989 118.326 330.026ZM141.927 330.026C141.927 331.982 141.476 333.478 140.573 334.517C139.678 335.548 138.382 336.064 136.685 336.064C135.023 336.064 133.749 335.541 132.861 334.495C131.98 333.45 131.539 331.96 131.539 330.026C131.539 328.028 131.99 326.528 132.893 325.526C133.802 324.516 135.088 324.011 136.749 324.011C138.497 324.011 139.796 324.509 140.649 325.504C141.501 326.499 141.927 328.007 141.927 330.026ZM139.897 330.026C139.897 328.487 139.65 327.337 139.156 326.578C138.669 325.819 137.877 325.44 136.781 325.44C135.671 325.44 134.859 325.826 134.343 326.6C133.827 327.373 133.57 328.515 133.57 330.026C133.57 331.53 133.827 332.676 134.343 333.464C134.859 334.245 135.632 334.635 136.663 334.635C137.802 334.635 138.626 334.252 139.134 333.485C139.642 332.719 139.897 331.566 139.897 330.026ZM152.68 335.849V328.383C152.68 327.409 152.49 326.686 152.111 326.213C151.738 325.74 151.14 325.504 150.317 325.504C149.429 325.504 148.698 325.83 148.125 326.482C147.559 327.126 147.277 328.003 147.277 329.113V335.849H145.343V326.707C145.343 325.354 145.322 324.526 145.279 324.226H147.105C147.112 324.262 147.119 324.358 147.126 324.516C147.133 324.673 147.141 324.856 147.148 325.064C147.162 325.264 147.176 325.647 147.191 326.213H147.223C147.975 324.745 149.214 324.011 150.94 324.011C152.179 324.011 153.102 324.347 153.711 325.021C154.32 325.687 154.624 326.714 154.624 328.104V335.849H152.68ZM157.965 330.026C157.965 328.093 158.427 326.607 159.351 325.568C160.275 324.53 161.61 324.011 163.358 324.011C164.661 324.011 165.735 324.326 166.58 324.956C167.425 325.579 167.948 326.421 168.149 327.481L166.086 327.631C165.972 326.979 165.685 326.467 165.227 326.095C164.768 325.715 164.117 325.526 163.272 325.526C162.14 325.526 161.309 325.876 160.78 326.578C160.257 327.28 159.995 328.415 159.995 329.984C159.995 331.573 160.257 332.737 160.78 333.475C161.309 334.205 162.137 334.57 163.261 334.57C164.034 334.57 164.675 334.381 165.184 334.001C165.692 333.622 166.007 333.041 166.129 332.261L168.17 332.39C168.077 333.077 167.816 333.704 167.386 334.27C166.963 334.828 166.401 335.269 165.699 335.591C164.998 335.906 164.213 336.064 163.347 336.064C161.592 336.064 160.257 335.548 159.34 334.517C158.423 333.485 157.965 331.989 157.965 330.026ZM173.24 330.445C173.24 331.749 173.527 332.769 174.1 333.507C174.68 334.245 175.471 334.613 176.474 334.613C177.212 334.613 177.856 334.456 178.407 334.141C178.966 333.818 179.338 333.382 179.525 332.83L181.222 333.314C180.907 334.202 180.327 334.882 179.482 335.355C178.644 335.827 177.641 336.064 176.474 336.064C174.784 336.064 173.484 335.537 172.574 334.484C171.665 333.432 171.21 331.924 171.21 329.962C171.21 328.05 171.654 326.582 172.542 325.558C173.437 324.526 174.726 324.011 176.409 324.011C178.092 324.011 179.367 324.523 180.234 325.547C181.1 326.571 181.533 328.118 181.533 330.188V330.445H173.24ZM176.431 325.44C175.471 325.44 174.712 325.755 174.154 326.385C173.595 327.008 173.298 327.867 173.262 328.963H179.535C179.335 326.614 178.3 325.44 176.431 325.44ZM194.703 329.984C194.703 334.037 193.3 336.064 190.492 336.064C188.731 336.064 187.545 335.405 186.937 334.087H186.883C186.912 334.144 186.926 334.739 186.926 335.87V340.414H184.982V326.632C184.982 325.415 184.96 324.612 184.917 324.226H186.797C186.804 324.254 186.815 324.362 186.829 324.548C186.844 324.727 186.858 324.996 186.872 325.354C186.894 325.705 186.905 325.966 186.905 326.138H186.948C187.306 325.386 187.76 324.842 188.312 324.505C188.87 324.161 189.597 323.989 190.492 323.989C191.91 323.989 192.967 324.48 193.661 325.461C194.356 326.435 194.703 327.943 194.703 329.984ZM192.705 329.984C192.705 328.365 192.487 327.212 192.05 326.525C191.613 325.83 190.926 325.483 189.988 325.483C188.906 325.483 188.126 325.876 187.646 326.664C187.166 327.445 186.926 328.63 186.926 330.22C186.926 331.745 187.166 332.862 187.646 333.571C188.126 334.28 188.899 334.635 189.966 334.635C190.919 334.635 191.613 334.273 192.05 333.55C192.487 332.827 192.705 331.638 192.705 329.984ZM198.248 325.751V324.226H200.074L200.698 321.196H201.987V324.226H206.627V325.751H201.987V332.755C201.987 333.321 202.137 333.74 202.438 334.012C202.746 334.284 203.247 334.42 203.942 334.42C204.901 334.42 205.965 334.298 207.132 334.055V335.526C205.922 335.856 204.722 336.021 203.533 336.021C202.373 336.021 201.503 335.777 200.923 335.29C200.343 334.796 200.053 334.019 200.053 332.959V325.751H198.248ZM224.674 325.751V324.226H226.5L227.123 321.196H228.412V324.226H233.053V325.751H228.412V332.755C228.412 333.321 228.563 333.74 228.864 334.012C229.171 334.284 229.673 334.42 230.367 334.42C231.327 334.42 232.391 334.298 233.558 334.055V335.526C232.348 335.856 231.148 336.021 229.959 336.021C228.799 336.021 227.929 335.777 227.349 335.29C226.769 334.796 226.479 334.019 226.479 332.959V325.751H224.674ZM247.63 330.026C247.63 331.982 247.179 333.478 246.277 334.517C245.381 335.548 244.085 336.064 242.388 336.064C240.726 336.064 239.452 335.541 238.564 334.495C237.683 333.45 237.242 331.96 237.242 330.026C237.242 328.028 237.694 326.528 238.596 325.526C239.505 324.516 240.791 324.011 242.452 324.011C244.2 324.011 245.5 324.509 246.352 325.504C247.204 326.499 247.63 328.007 247.63 330.026ZM245.6 330.026C245.6 328.487 245.353 327.337 244.859 326.578C244.372 325.819 243.58 325.44 242.485 325.44C241.375 325.44 240.562 325.826 240.046 326.6C239.531 327.373 239.273 328.515 239.273 330.026C239.273 331.53 239.531 332.676 240.046 333.464C240.562 334.245 241.335 334.635 242.366 334.635C243.505 334.635 244.329 334.252 244.837 333.485C245.346 332.719 245.6 331.566 245.6 330.026ZM263.668 330.026C263.668 328.093 264.13 326.607 265.054 325.568C265.978 324.53 267.313 324.011 269.061 324.011C270.364 324.011 271.438 324.326 272.283 324.956C273.128 325.579 273.651 326.421 273.852 327.481L271.789 327.631C271.675 326.979 271.388 326.467 270.93 326.095C270.472 325.715 269.82 325.526 268.975 325.526C267.843 325.526 267.013 325.876 266.483 326.578C265.96 327.28 265.698 328.415 265.698 329.984C265.698 331.573 265.96 332.737 266.483 333.475C267.013 334.205 267.84 334.57 268.964 334.57C269.738 334.57 270.378 334.381 270.887 334.001C271.395 333.622 271.711 333.041 271.832 332.261L273.873 332.39C273.78 333.077 273.519 333.704 273.089 334.27C272.667 334.828 272.104 335.269 271.403 335.591C270.701 335.906 269.917 336.064 269.05 336.064C267.295 336.064 265.96 335.548 265.043 334.517C264.127 333.485 263.668 331.989 263.668 330.026ZM287.269 330.026C287.269 331.982 286.818 333.478 285.915 334.517C285.02 335.548 283.724 336.064 282.027 336.064C280.365 336.064 279.09 335.541 278.202 334.495C277.322 333.45 276.881 331.96 276.881 330.026C276.881 328.028 277.332 326.528 278.235 325.526C279.144 324.516 280.43 324.011 282.091 324.011C283.838 324.011 285.138 324.509 285.99 325.504C286.843 326.499 287.269 328.007 287.269 330.026ZM285.239 330.026C285.239 328.487 284.991 327.337 284.497 326.578C284.01 325.819 283.219 325.44 282.123 325.44C281.013 325.44 280.2 325.826 279.685 326.6C279.169 327.373 278.911 328.515 278.911 330.026C278.911 331.53 279.169 332.676 279.685 333.464C280.2 334.245 280.974 334.635 282.005 334.635C283.144 334.635 283.967 334.252 284.476 333.485C284.984 332.719 285.239 331.566 285.239 330.026ZM297.957 333.98C297.606 334.732 297.141 335.279 296.561 335.623C295.981 335.96 295.257 336.128 294.391 336.128C292.944 336.128 291.881 335.63 291.2 334.635C290.52 333.639 290.18 332.139 290.18 330.134C290.18 326.081 291.584 324.054 294.391 324.054C295.257 324.054 295.981 324.208 296.561 324.516C297.148 324.824 297.617 325.329 297.968 326.03H297.99L297.968 324.408V319.907H299.902V333.453C299.902 334.664 299.923 335.462 299.966 335.849H298.118C298.09 335.741 298.065 335.48 298.043 335.065C298.022 334.649 298.011 334.288 298.011 333.98H297.957ZM292.178 330.069C292.178 331.659 292.389 332.819 292.812 333.55C293.241 334.273 293.936 334.635 294.896 334.635C295.941 334.635 296.715 334.259 297.216 333.507C297.717 332.748 297.968 331.545 297.968 329.898C297.968 328.358 297.725 327.237 297.238 326.535C296.758 325.833 295.984 325.483 294.917 325.483C293.95 325.483 293.252 325.851 292.823 326.589C292.393 327.327 292.178 328.487 292.178 330.069ZM305.369 330.445C305.369 331.749 305.656 332.769 306.229 333.507C306.809 334.245 307.6 334.613 308.603 334.613C309.34 334.613 309.985 334.456 310.536 334.141C311.095 333.818 311.467 333.382 311.654 332.83L313.351 333.314C313.036 334.202 312.456 334.882 311.611 335.355C310.773 335.827 309.77 336.064 308.603 336.064C306.913 336.064 305.613 335.537 304.703 334.484C303.794 333.432 303.339 331.924 303.339 329.962C303.339 328.05 303.783 326.582 304.671 325.558C305.566 324.526 306.855 324.011 308.538 324.011C310.221 324.011 311.496 324.523 312.363 325.547C313.229 326.571 313.662 328.118 313.662 330.188V330.445H305.369ZM308.56 325.44C307.6 325.44 306.841 325.755 306.282 326.385C305.724 327.008 305.427 327.867 305.391 328.963H311.664C311.464 326.614 310.429 325.44 308.56 325.44ZM317.906 339.748L319.721 332.637H322.568L319.227 339.748H317.906ZM352.485 335.849H350.293L348.757 330.789L348.145 328.619L347.726 330.112L345.921 335.849H343.74L341.775 324.226H343.687L344.686 330.746C344.922 332.637 345.04 333.804 345.04 334.248C345.32 333.102 345.527 332.336 345.663 331.949L347.114 327.395H349.187L350.583 331.96C350.812 332.712 351.009 333.475 351.174 334.248C351.174 334.033 351.188 333.765 351.217 333.443C351.246 333.12 351.281 332.791 351.324 332.454C351.367 332.11 351.41 331.785 351.453 331.477C351.496 331.169 351.529 330.925 351.55 330.746L352.635 324.226H354.526L352.485 335.849ZM358.221 330.445C358.221 331.749 358.507 332.769 359.08 333.507C359.66 334.245 360.452 334.613 361.454 334.613C362.192 334.613 362.837 334.456 363.388 334.141C363.947 333.818 364.319 333.382 364.505 332.83L366.202 333.314C365.887 334.202 365.307 334.882 364.462 335.355C363.624 335.827 362.622 336.064 361.454 336.064C359.764 336.064 358.464 335.537 357.555 334.484C356.645 333.432 356.191 331.924 356.191 329.962C356.191 328.05 356.635 326.582 357.523 325.558C358.418 324.526 359.707 324.011 361.39 324.011C363.073 324.011 364.348 324.523 365.214 325.547C366.081 326.571 366.514 328.118 366.514 330.188V330.445H358.221ZM361.411 325.44C360.452 325.44 359.693 325.755 359.134 326.385C358.575 327.008 358.278 327.867 358.242 328.963H364.516C364.315 326.614 363.281 325.44 361.411 325.44ZM383.229 325.751V324.226H385.055L385.678 321.196H386.967V324.226H391.608V325.751H386.967V332.755C386.967 333.321 387.117 333.74 387.418 334.012C387.726 334.284 388.227 334.42 388.922 334.42C389.882 334.42 390.945 334.298 392.113 334.055V335.526C390.902 335.856 389.703 336.021 388.514 336.021C387.354 336.021 386.484 335.777 385.904 335.29C385.323 334.796 385.033 334.019 385.033 332.959V325.751H383.229ZM398.322 324.226V331.595C398.322 332.712 398.497 333.489 398.848 333.926C399.199 334.356 399.825 334.57 400.728 334.57C401.652 334.57 402.382 334.255 402.919 333.625C403.456 332.995 403.725 332.107 403.725 330.961V324.226H405.669V333.367C405.669 334.721 405.691 335.548 405.734 335.849H403.907C403.9 335.813 403.893 335.716 403.886 335.559C403.879 335.401 403.868 335.222 403.854 335.022C403.847 334.814 403.836 334.427 403.822 333.861H403.789C403.345 334.664 402.83 335.233 402.242 335.569C401.662 335.899 400.939 336.064 400.073 336.064C398.798 336.064 397.863 335.748 397.269 335.118C396.682 334.481 396.388 333.432 396.388 331.971V324.226H398.322ZM418.839 325.987C418.037 325.851 417.278 325.783 416.562 325.783C415.409 325.783 414.478 326.217 413.769 327.083C413.06 327.95 412.705 329.053 412.705 330.392V335.849H410.772V328.318C410.772 327.774 410.722 327.133 410.621 326.396C410.528 325.658 410.392 324.935 410.213 324.226H412.05C412.337 325.214 412.508 326.109 412.566 326.911H412.619C412.977 326.109 413.328 325.522 413.672 325.15C414.016 324.77 414.424 324.487 414.897 324.301C415.369 324.108 415.946 324.011 416.626 324.011C417.371 324.011 418.109 324.072 418.839 324.193V325.987ZM430.151 335.849V328.383C430.151 327.409 429.961 326.686 429.581 326.213C429.209 325.74 428.611 325.504 427.787 325.504C426.899 325.504 426.169 325.83 425.596 326.482C425.03 327.126 424.747 328.003 424.747 329.113V335.849H422.814V326.707C422.814 325.354 422.792 324.526 422.749 324.226H424.575C424.583 324.262 424.59 324.358 424.597 324.516C424.604 324.673 424.611 324.856 424.618 325.064C424.633 325.264 424.647 325.647 424.661 326.213H424.694C425.446 324.745 426.684 324.011 428.41 324.011C429.649 324.011 430.573 324.347 431.182 325.021C431.791 325.687 432.095 326.714 432.095 328.104V335.849H430.151ZM58.8684 359.323H62.9504V360.849H52.4016V359.323H56.9348V350.751H53.5081V349.226H58.8684V359.323ZM56.72 346.97V344.907H58.8684V346.97H56.72ZM73.3381 358.98C72.9872 359.732 72.5217 360.279 71.9417 360.623C71.3616 360.96 70.6383 361.128 69.7717 361.128C68.3251 361.128 67.2616 360.63 66.5813 359.635C65.901 358.639 65.5608 357.139 65.5608 355.134C65.5608 351.081 66.9644 349.054 69.7717 349.054C70.6383 349.054 71.3616 349.208 71.9417 349.516C72.5289 349.824 72.998 350.329 73.3489 351.03H73.3704L73.3489 349.408V344.907H75.2825V358.453C75.2825 359.664 75.304 360.462 75.3469 360.849H73.4993C73.4706 360.741 73.4456 360.48 73.4241 360.065C73.4026 359.649 73.3918 359.288 73.3918 358.98H73.3381ZM67.5588 355.069C67.5588 356.659 67.7701 357.819 68.1926 358.55C68.6223 359.273 69.317 359.635 70.2766 359.635C71.3222 359.635 72.0956 359.259 72.5969 358.507C73.0982 357.748 73.3489 356.545 73.3489 354.898C73.3489 353.358 73.1054 352.237 72.6184 351.535C72.1386 350.833 71.3652 350.483 70.2981 350.483C69.3313 350.483 68.6331 350.851 68.2034 351.589C67.7737 352.327 67.5588 353.487 67.5588 355.069ZM80.7502 355.445C80.7502 356.749 81.0367 357.769 81.6096 358.507C82.1897 359.245 82.981 359.613 83.9836 359.613C84.7213 359.613 85.3658 359.456 85.9172 359.141C86.4758 358.818 86.8482 358.382 87.0344 357.83L88.7317 358.314C88.4166 359.202 87.8365 359.882 86.9915 360.355C86.1536 360.827 85.151 361.064 83.9836 361.064C82.2935 361.064 80.9937 360.537 80.0842 359.484C79.1747 358.432 78.72 356.924 78.72 354.962C78.72 353.05 79.164 351.582 80.052 350.558C80.9472 349.526 82.2362 349.011 83.9192 349.011C85.6021 349.011 86.8769 349.523 87.7434 350.547C88.6099 351.571 89.0432 353.118 89.0432 355.188V355.445H80.7502ZM83.9407 350.44C82.981 350.44 82.2219 350.755 81.6633 351.385C81.1047 352.008 80.8075 352.867 80.7717 353.963H87.0452C86.8446 351.614 85.8098 350.44 83.9407 350.44ZM102.331 359.656C102.517 359.656 102.729 359.631 102.965 359.581V360.784C102.478 360.899 101.98 360.956 101.472 360.956C100.756 360.956 100.233 360.77 99.9036 360.398C99.5813 360.018 99.3987 359.427 99.3557 358.625H99.2913C98.8258 359.492 98.2743 360.115 97.637 360.494C97.0068 360.874 96.2262 361.064 95.2952 361.064C94.1637 361.064 93.3114 360.756 92.7385 360.14C92.1656 359.524 91.8792 358.679 91.8792 357.605C91.8792 355.105 93.5048 353.838 96.7561 353.802L99.2913 353.759V353.125C99.2913 352.187 99.1015 351.514 98.7219 351.106C98.3424 350.69 97.7372 350.483 96.9065 350.483C96.0614 350.483 95.4527 350.633 95.0803 350.934C94.7079 351.234 94.4859 351.7 94.4143 352.33L92.3948 352.148C92.7242 350.056 94.2389 349.011 96.9387 349.011C98.371 349.011 99.4452 349.347 100.161 350.021C100.885 350.687 101.246 351.653 101.246 352.921V357.927C101.246 358.5 101.322 358.933 101.472 359.227C101.622 359.513 101.909 359.656 102.331 359.656ZM95.7893 359.592C96.4768 359.592 97.0855 359.427 97.6155 359.098C98.1454 358.768 98.5572 358.328 98.8508 357.776C99.1444 357.225 99.2913 356.656 99.2913 356.068V355.112L97.2502 355.155C96.4052 355.17 95.7607 355.263 95.3167 355.435C94.8726 355.607 94.5253 355.872 94.2747 356.23C94.0312 356.581 93.9094 357.05 93.9094 357.637C93.9094 358.224 94.067 358.697 94.3821 359.055C94.7043 359.413 95.1734 359.592 95.7893 359.592ZM115.104 357.529C115.104 358.632 114.685 359.499 113.847 360.129C113.016 360.752 111.863 361.064 110.388 361.064C108.913 361.064 107.788 360.834 107.015 360.376C106.249 359.911 105.747 359.18 105.511 358.185L107.219 357.852C107.355 358.468 107.645 358.919 108.089 359.205C108.54 359.484 109.307 359.624 110.388 359.624C112.322 359.624 113.288 359.012 113.288 357.787C113.288 357.329 113.113 356.96 112.762 356.681C112.411 356.394 111.874 356.162 111.151 355.983C109.26 355.517 108.06 355.152 107.552 354.887C107.044 354.622 106.653 354.292 106.381 353.899C106.109 353.498 105.973 353 105.973 352.405C105.973 351.353 106.352 350.529 107.112 349.935C107.871 349.34 108.97 349.043 110.409 349.043C111.67 349.043 112.676 349.283 113.428 349.763C114.18 350.235 114.649 350.927 114.835 351.836L113.095 352.051C113.016 351.535 112.762 351.145 112.332 350.88C111.903 350.615 111.262 350.483 110.409 350.483C108.655 350.483 107.778 351.023 107.778 352.105C107.778 352.534 107.924 352.878 108.218 353.136C108.519 353.394 108.999 353.601 109.657 353.759L110.936 354.092C112.103 354.378 112.941 354.661 113.449 354.941C113.965 355.22 114.37 355.571 114.663 355.993C114.957 356.409 115.104 356.921 115.104 357.529ZM138.146 359.323H142.228V360.849H131.679V359.323H136.212V350.751H132.785V349.226H138.146V359.323ZM135.997 346.97V344.907H138.146V346.97H135.997ZM152.68 360.849V353.383C152.68 352.409 152.49 351.686 152.111 351.213C151.738 350.74 151.14 350.504 150.317 350.504C149.429 350.504 148.698 350.83 148.125 351.482C147.559 352.126 147.277 353.003 147.277 354.113V360.849H145.343V351.707C145.343 350.354 145.322 349.526 145.279 349.226H147.105C147.112 349.262 147.119 349.358 147.126 349.516C147.133 349.673 147.141 349.856 147.148 350.064C147.162 350.264 147.176 350.647 147.191 351.213H147.223C147.975 349.745 149.214 349.011 150.94 349.011C152.179 349.011 153.102 349.347 153.711 350.021C154.32 350.687 154.624 351.714 154.624 353.104V360.849H152.68ZM158.61 350.751V349.226H160.436L161.059 346.196H162.348V349.226H166.989V350.751H162.348V357.755C162.348 358.321 162.498 358.74 162.799 359.012C163.107 359.284 163.608 359.42 164.303 359.42C165.263 359.42 166.326 359.298 167.493 359.055V360.526C166.283 360.856 165.084 361.021 163.895 361.021C162.735 361.021 161.865 360.777 161.284 360.29C160.704 359.796 160.414 359.019 160.414 357.959V350.751H158.61ZM181.566 355.026C181.566 356.982 181.115 358.478 180.212 359.517C179.317 360.548 178.021 361.064 176.323 361.064C174.662 361.064 173.387 360.541 172.499 359.495C171.618 358.45 171.178 356.96 171.178 355.026C171.178 353.028 171.629 351.528 172.531 350.526C173.441 349.516 174.726 349.011 176.388 349.011C178.135 349.011 179.435 349.509 180.287 350.504C181.14 351.499 181.566 353.007 181.566 355.026ZM179.535 355.026C179.535 353.487 179.288 352.337 178.794 351.578C178.307 350.819 177.516 350.44 176.42 350.44C175.31 350.44 174.497 350.826 173.982 351.6C173.466 352.373 173.208 353.515 173.208 355.026C173.208 356.53 173.466 357.676 173.982 358.464C174.497 359.245 175.271 359.635 176.302 359.635C177.441 359.635 178.264 359.252 178.773 358.485C179.281 357.719 179.535 356.566 179.535 355.026ZM204.21 359.323H208.292V360.849H197.743V359.323H202.277V350.751H198.85V349.226H204.21V359.323ZM202.062 346.97V344.907H204.21V346.97H202.062ZM218.744 360.849V353.383C218.744 352.409 218.555 351.686 218.175 351.213C217.803 350.74 217.205 350.504 216.381 350.504C215.493 350.504 214.763 350.83 214.19 351.482C213.624 352.126 213.341 353.003 213.341 354.113V360.849H211.407V351.707C211.407 350.354 211.386 349.526 211.343 349.226H213.169C213.176 349.262 213.184 349.358 213.191 349.516C213.198 349.673 213.205 349.856 213.212 350.064C213.226 350.264 213.241 350.647 213.255 351.213H213.287C214.039 349.745 215.278 349.011 217.004 349.011C218.243 349.011 219.167 349.347 219.776 350.021C220.384 350.687 220.689 351.714 220.689 353.104V360.849H218.744ZM224.674 350.751V349.226H226.5L227.123 346.196H228.412V349.226H233.053V350.751H228.412V357.755C228.412 358.321 228.563 358.74 228.864 359.012C229.171 359.284 229.673 359.42 230.367 359.42C231.327 359.42 232.391 359.298 233.558 359.055V360.526C232.348 360.856 231.148 361.021 229.959 361.021C228.799 361.021 227.929 360.777 227.349 360.29C226.769 359.796 226.479 359.019 226.479 357.959V350.751H224.674ZM239.305 355.445C239.305 356.749 239.591 357.769 240.164 358.507C240.744 359.245 241.536 359.613 242.538 359.613C243.276 359.613 243.92 359.456 244.472 359.141C245.031 358.818 245.403 358.382 245.589 357.83L247.286 358.314C246.971 359.202 246.391 359.882 245.546 360.355C244.708 360.827 243.706 361.064 242.538 361.064C240.848 361.064 239.548 360.537 238.639 359.484C237.729 358.432 237.275 356.924 237.275 354.962C237.275 353.05 237.719 351.582 238.607 350.558C239.502 349.526 240.791 349.011 242.474 349.011C244.157 349.011 245.432 349.523 246.298 350.547C247.165 351.571 247.598 353.118 247.598 355.188V355.445H239.305ZM242.495 350.44C241.536 350.44 240.777 350.755 240.218 351.385C239.659 352.008 239.362 352.867 239.326 353.963H245.6C245.399 351.614 244.365 350.44 242.495 350.44ZM260.284 350.987C259.482 350.851 258.723 350.783 258.007 350.783C256.854 350.783 255.923 351.217 255.214 352.083C254.505 352.95 254.151 354.053 254.151 355.392V360.849H252.217V353.318C252.217 352.774 252.167 352.133 252.067 351.396C251.974 350.658 251.837 349.935 251.658 349.226H253.495C253.782 350.214 253.954 351.109 254.011 351.911H254.065C254.423 351.109 254.774 350.522 255.117 350.15C255.461 349.77 255.869 349.487 256.342 349.301C256.815 349.108 257.391 349.011 258.072 349.011C258.816 349.011 259.554 349.072 260.284 349.193V350.987ZM274.099 359.656C274.285 359.656 274.496 359.631 274.733 359.581V360.784C274.246 360.899 273.748 360.956 273.24 360.956C272.523 360.956 272.001 360.77 271.671 360.398C271.349 360.018 271.166 359.427 271.123 358.625H271.059C270.593 359.492 270.042 360.115 269.405 360.494C268.774 360.874 267.994 361.064 267.063 361.064C265.931 361.064 265.079 360.756 264.506 360.14C263.933 359.524 263.647 358.679 263.647 357.605C263.647 355.105 265.272 353.838 268.524 353.802L271.059 353.759V353.125C271.059 352.187 270.869 351.514 270.49 351.106C270.11 350.69 269.505 350.483 268.674 350.483C267.829 350.483 267.22 350.633 266.848 350.934C266.476 351.234 266.253 351.7 266.182 352.33L264.162 352.148C264.492 350.056 266.006 349.011 268.706 349.011C270.139 349.011 271.213 349.347 271.929 350.021C272.652 350.687 273.014 351.653 273.014 352.921V357.927C273.014 358.5 273.089 358.933 273.24 359.227C273.39 359.513 273.676 359.656 274.099 359.656ZM267.557 359.592C268.244 359.592 268.853 359.427 269.383 359.098C269.913 358.768 270.325 358.328 270.618 357.776C270.912 357.225 271.059 356.656 271.059 356.068V355.112L269.018 355.155C268.173 355.17 267.528 355.263 267.084 355.435C266.64 355.607 266.293 355.872 266.042 356.23C265.799 356.581 265.677 357.05 265.677 357.637C265.677 358.224 265.835 358.697 266.15 359.055C266.472 359.413 266.941 359.592 267.557 359.592ZM276.881 355.026C276.881 353.093 277.343 351.607 278.267 350.568C279.191 349.53 280.526 349.011 282.274 349.011C283.577 349.011 284.651 349.326 285.496 349.956C286.341 350.579 286.864 351.421 287.065 352.481L285.002 352.631C284.888 351.979 284.601 351.467 284.143 351.095C283.684 350.715 283.033 350.526 282.188 350.526C281.056 350.526 280.226 350.876 279.696 351.578C279.173 352.28 278.911 353.415 278.911 354.984C278.911 356.573 279.173 357.737 279.696 358.475C280.226 359.205 281.053 359.57 282.177 359.57C282.95 359.57 283.591 359.381 284.1 359.001C284.608 358.622 284.923 358.041 285.045 357.261L287.086 357.39C286.993 358.077 286.732 358.704 286.302 359.27C285.879 359.828 285.317 360.269 284.615 360.591C283.914 360.906 283.129 361.064 282.263 361.064C280.508 361.064 279.173 360.548 278.256 359.517C277.339 358.485 276.881 356.989 276.881 355.026ZM290.739 350.751V349.226H292.565L293.188 346.196H294.477V349.226H299.117V350.751H294.477V357.755C294.477 358.321 294.627 358.74 294.928 359.012C295.236 359.284 295.737 359.42 296.432 359.42C297.392 359.42 298.455 359.298 299.622 359.055V360.526C298.412 360.856 297.212 361.021 296.024 361.021C294.864 361.021 293.993 360.777 293.413 360.29C292.833 359.796 292.543 359.019 292.543 357.959V350.751H290.739ZM309.913 359.323H313.995V360.849H303.447V359.323H307.98V350.751H304.553V349.226H309.913V359.323ZM307.765 346.97V344.907H309.913V346.97H307.765ZM322.804 360.849H320.516L315.865 349.226H318.034L320.913 356.788L321.096 357.358L321.655 359.334L322.031 358.077L322.449 356.81L325.414 349.226H327.573L322.804 360.849ZM331.795 355.445C331.795 356.749 332.082 357.769 332.655 358.507C333.235 359.245 334.026 359.613 335.029 359.613C335.766 359.613 336.411 359.456 336.962 359.141C337.521 358.818 337.893 358.382 338.079 357.83L339.777 358.314C339.462 359.202 338.881 359.882 338.036 360.355C337.198 360.827 336.196 361.064 335.029 361.064C333.338 361.064 332.039 360.537 331.129 359.484C330.22 358.432 329.765 356.924 329.765 354.962C329.765 353.05 330.209 351.582 331.097 350.558C331.992 349.526 333.281 349.011 334.964 349.011C336.647 349.011 337.922 349.523 338.788 350.547C339.655 351.571 340.088 353.118 340.088 355.188V355.445H331.795ZM334.986 350.44C334.026 350.44 333.267 350.755 332.708 351.385C332.15 352.008 331.852 352.867 331.817 353.963H338.09C337.89 351.614 336.855 350.44 334.986 350.44ZM364.022 358.98C363.671 359.732 363.205 360.279 362.625 360.623C362.045 360.96 361.322 361.128 360.455 361.128C359.009 361.128 357.945 360.63 357.265 359.635C356.585 358.639 356.244 357.139 356.244 355.134C356.244 351.081 357.648 349.054 360.455 349.054C361.322 349.054 362.045 349.208 362.625 349.516C363.212 349.824 363.682 350.329 364.032 351.03H364.054L364.032 349.408V344.907H365.966V358.453C365.966 359.664 365.988 360.462 366.031 360.849H364.183C364.154 360.741 364.129 360.48 364.108 360.065C364.086 359.649 364.075 359.288 364.075 358.98H364.022ZM358.242 355.069C358.242 356.659 358.454 357.819 358.876 358.55C359.306 359.273 360.001 359.635 360.96 359.635C362.006 359.635 362.779 359.259 363.281 358.507C363.782 357.748 364.032 356.545 364.032 354.898C364.032 353.358 363.789 352.237 363.302 351.535C362.822 350.833 362.049 350.483 360.982 350.483C360.015 350.483 359.317 350.851 358.887 351.589C358.457 352.327 358.242 353.487 358.242 355.069ZM375.978 359.323H380.06V360.849H369.511V359.323H374.044V350.751H370.617V349.226H375.978V359.323ZM373.829 346.97V344.907H375.978V346.97H373.829ZM387.794 365.403C386.591 365.403 385.624 365.156 384.894 364.662C384.163 364.168 383.698 363.459 383.497 362.535L385.474 362.267C385.596 362.804 385.857 363.216 386.258 363.502C386.666 363.796 387.2 363.943 387.859 363.943C389.635 363.943 390.523 362.815 390.523 360.559V358.475H390.501C390.15 359.212 389.663 359.771 389.04 360.151C388.417 360.53 387.676 360.72 386.817 360.72C385.399 360.72 384.36 360.258 383.701 359.334C383.05 358.403 382.724 356.942 382.724 354.951C382.724 352.925 383.075 351.435 383.777 350.483C384.478 349.523 385.56 349.043 387.021 349.043C387.83 349.043 388.532 349.233 389.126 349.612C389.728 349.985 390.19 350.518 390.512 351.213H390.544C390.544 350.998 390.559 350.637 390.587 350.128C390.616 349.612 390.644 349.312 390.673 349.226H392.51C392.467 349.612 392.446 350.415 392.446 351.632V360.505C392.446 362.131 392.066 363.352 391.307 364.168C390.548 364.992 389.377 365.403 387.794 365.403ZM390.523 354.93C390.523 353.548 390.254 352.463 389.717 351.675C389.18 350.88 388.442 350.483 387.504 350.483C386.523 350.483 385.814 350.826 385.377 351.514C384.94 352.194 384.722 353.333 384.722 354.93C384.722 356.011 384.811 356.867 384.99 357.497C385.177 358.12 385.463 358.575 385.85 358.861C386.237 359.148 386.777 359.291 387.472 359.291C388.081 359.291 388.614 359.123 389.073 358.786C389.538 358.443 389.896 357.945 390.147 357.293C390.397 356.634 390.523 355.846 390.523 354.93ZM402.404 359.323H406.486V360.849H395.937V359.323H400.47V350.751H397.043V349.226H402.404V359.323ZM400.255 346.97V344.907H402.404V346.97H400.255ZM409.655 350.751V349.226H411.481L412.104 346.196H413.393V349.226H418.033V350.751H413.393V357.755C413.393 358.321 413.543 358.74 413.844 359.012C414.152 359.284 414.653 359.42 415.348 359.42C416.308 359.42 417.371 359.298 418.538 359.055V360.526C417.328 360.856 416.128 361.021 414.94 361.021C413.78 361.021 412.909 360.777 412.329 360.29C411.749 359.796 411.459 359.019 411.459 357.959V350.751H409.655ZM432.654 359.656C432.84 359.656 433.051 359.631 433.287 359.581V360.784C432.8 360.899 432.303 360.956 431.794 360.956C431.078 360.956 430.555 360.77 430.226 360.398C429.904 360.018 429.721 359.427 429.678 358.625H429.614C429.148 359.492 428.597 360.115 427.959 360.494C427.329 360.874 426.548 361.064 425.617 361.064C424.486 361.064 423.634 360.756 423.061 360.14C422.488 359.524 422.201 358.679 422.201 357.605C422.201 355.105 423.827 353.838 427.078 353.802L429.614 353.759V353.125C429.614 352.187 429.424 351.514 429.044 351.106C428.665 350.69 428.059 350.483 427.229 350.483C426.384 350.483 425.775 350.633 425.403 350.934C425.03 351.234 424.808 351.7 424.737 352.33L422.717 352.148C423.046 350.056 424.561 349.011 427.261 349.011C428.693 349.011 429.767 349.347 430.484 350.021C431.207 350.687 431.569 351.653 431.569 352.921V357.927C431.569 358.5 431.644 358.933 431.794 359.227C431.945 359.513 432.231 359.656 432.654 359.656ZM426.112 359.592C426.799 359.592 427.408 359.427 427.938 359.098C428.468 358.768 428.879 358.328 429.173 357.776C429.467 357.225 429.614 356.656 429.614 356.068V355.112L427.573 355.155C426.727 355.17 426.083 355.263 425.639 355.435C425.195 355.607 424.848 355.872 424.597 356.23C424.353 356.581 424.232 357.05 424.232 357.637C424.232 358.224 424.389 358.697 424.704 359.055C425.027 359.413 425.496 359.592 426.112 359.592ZM441.946 359.323H446.028V360.849H435.479V359.323H440.012V346.433H436.907V344.907H441.946V359.323ZM54.3245 380.445C54.3245 381.749 54.6109 382.769 55.1838 383.507C55.7639 384.245 56.5553 384.613 57.5579 384.613C58.2955 384.613 58.94 384.456 59.4915 384.141C60.05 383.818 60.4224 383.382 60.6086 382.83L62.3059 383.314C61.9908 384.202 61.4107 384.882 60.5657 385.355C59.7278 385.827 58.7252 386.064 57.5579 386.064C55.8678 386.064 54.568 385.537 53.6584 384.484C52.7489 383.432 52.2942 381.924 52.2942 379.962C52.2942 378.05 52.7382 376.582 53.6262 375.558C54.5214 374.526 55.8105 374.011 57.4934 374.011C59.1764 374.011 60.4511 374.523 61.3176 375.547C62.1842 376.571 62.6174 378.118 62.6174 380.188V380.445H54.3245ZM57.5149 375.44C56.5553 375.44 55.7961 375.755 55.2375 376.385C54.679 377.008 54.3818 377.867 54.3459 378.963H60.6194C60.4189 376.614 59.384 375.44 57.5149 375.44ZM74.0901 385.849L70.6418 381.079L67.1721 385.849H65.0881L69.5461 379.876L65.2815 374.226H67.4192L70.6418 378.748L73.843 374.226H76.0022L71.7375 379.855L76.2493 385.849H74.0901ZM89.0002 379.984C89.0002 384.037 87.5966 386.064 84.7893 386.064C83.0276 386.064 81.8424 385.405 81.2336 384.087H81.1799C81.2086 384.144 81.2229 384.739 81.2229 385.87V390.414H79.2786V376.632C79.2786 375.415 79.2571 374.612 79.2141 374.226H81.094C81.1012 374.254 81.1119 374.362 81.1262 374.548C81.1405 374.727 81.1549 374.996 81.1692 375.354C81.1907 375.705 81.2014 375.966 81.2014 376.138H81.2444C81.6025 375.386 82.0572 374.842 82.6086 374.505C83.1672 374.161 83.8941 373.989 84.7893 373.989C86.2073 373.989 87.2636 374.48 87.9583 375.461C88.6529 376.435 89.0002 377.943 89.0002 379.984ZM87.0022 379.984C87.0022 378.365 86.7838 377.212 86.3469 376.525C85.9101 375.83 85.2226 375.483 84.2844 375.483C83.203 375.483 82.4224 375.876 81.9426 376.664C81.4628 377.445 81.2229 378.63 81.2229 380.22C81.2229 381.745 81.4628 382.862 81.9426 383.571C82.4224 384.28 83.1959 384.635 84.2629 384.635C85.2154 384.635 85.9101 384.273 86.3469 383.55C86.7838 382.827 87.0022 381.638 87.0022 379.984ZM93.9631 380.445C93.9631 381.749 94.2496 382.769 94.8225 383.507C95.4026 384.245 96.1939 384.613 97.1965 384.613C97.9342 384.613 98.5787 384.456 99.1301 384.141C99.6887 383.818 100.061 383.382 100.247 382.83L101.945 383.314C101.629 384.202 101.049 384.882 100.204 385.355C99.3665 385.827 98.3639 386.064 97.1965 386.064C95.5064 386.064 94.2066 385.537 93.2971 384.484C92.3876 383.432 91.9329 381.924 91.9329 379.962C91.9329 378.05 92.3769 376.582 93.2649 375.558C94.1601 374.526 95.4491 374.011 97.1321 374.011C98.815 374.011 100.09 374.523 100.956 375.547C101.823 376.571 102.256 378.118 102.256 380.188V380.445H93.9631ZM97.1536 375.44C96.1939 375.44 95.4348 375.755 94.8762 376.385C94.3176 377.008 94.0204 377.867 93.9846 378.963H100.258C100.058 376.614 99.0227 375.44 97.1536 375.44ZM114.943 375.987C114.141 375.851 113.381 375.783 112.665 375.783C111.512 375.783 110.581 376.217 109.872 377.083C109.163 377.95 108.809 379.053 108.809 380.392V385.849H106.875V378.318C106.875 377.774 106.825 377.133 106.725 376.396C106.632 375.658 106.496 374.935 106.317 374.226H108.154C108.44 375.214 108.612 376.109 108.669 376.911H108.723C109.081 376.109 109.432 375.522 109.776 375.15C110.119 374.77 110.528 374.487 111 374.301C111.473 374.108 112.049 374.011 112.73 374.011C113.475 374.011 114.212 374.072 114.943 374.193V375.987ZM124.933 384.323H129.015V385.849H118.466V384.323H122.999V375.751H119.573V374.226H124.933V384.323ZM122.784 371.97V369.907H124.933V371.97H122.784ZM133.602 380.445C133.602 381.749 133.888 382.769 134.461 383.507C135.041 384.245 135.833 384.613 136.835 384.613C137.573 384.613 138.217 384.456 138.769 384.141C139.327 383.818 139.7 383.382 139.886 382.83L141.583 383.314C141.268 384.202 140.688 384.882 139.843 385.355C139.005 385.827 138.003 386.064 136.835 386.064C135.145 386.064 133.845 385.537 132.936 384.484C132.026 383.432 131.572 381.924 131.572 379.962C131.572 378.05 132.016 376.582 132.904 375.558C133.799 374.526 135.088 374.011 136.771 374.011C138.454 374.011 139.728 374.523 140.595 375.547C141.462 376.571 141.895 378.118 141.895 380.188V380.445H133.602ZM136.792 375.44C135.833 375.44 135.073 375.755 134.515 376.385C133.956 377.008 133.659 377.867 133.623 378.963H139.897C139.696 376.614 138.661 375.44 136.792 375.44ZM152.68 385.849V378.383C152.68 377.409 152.49 376.686 152.111 376.213C151.738 375.74 151.14 375.504 150.317 375.504C149.429 375.504 148.698 375.83 148.125 376.482C147.559 377.126 147.277 378.003 147.277 379.113V385.849H145.343V376.707C145.343 375.354 145.322 374.526 145.279 374.226H147.105C147.112 374.262 147.119 374.358 147.126 374.516C147.133 374.673 147.141 374.856 147.148 375.064C147.162 375.264 147.176 375.647 147.191 376.213H147.223C147.975 374.745 149.214 374.011 150.94 374.011C152.179 374.011 153.102 374.347 153.711 375.021C154.32 375.687 154.624 376.714 154.624 378.104V385.849H152.68ZM157.965 380.026C157.965 378.093 158.427 376.607 159.351 375.568C160.275 374.53 161.61 374.011 163.358 374.011C164.661 374.011 165.735 374.326 166.58 374.956C167.425 375.579 167.948 376.421 168.149 377.481L166.086 377.631C165.972 376.979 165.685 376.467 165.227 376.095C164.768 375.715 164.117 375.526 163.272 375.526C162.14 375.526 161.309 375.876 160.78 376.578C160.257 377.28 159.995 378.415 159.995 379.984C159.995 381.573 160.257 382.737 160.78 383.475C161.309 384.205 162.137 384.57 163.261 384.57C164.034 384.57 164.675 384.381 165.184 384.001C165.692 383.622 166.007 383.041 166.129 382.261L168.17 382.39C168.077 383.077 167.816 383.704 167.386 384.27C166.963 384.828 166.401 385.269 165.699 385.591C164.998 385.906 164.213 386.064 163.347 386.064C161.592 386.064 160.257 385.548 159.34 384.517C158.423 383.485 157.965 381.989 157.965 380.026ZM173.24 380.445C173.24 381.749 173.527 382.769 174.1 383.507C174.68 384.245 175.471 384.613 176.474 384.613C177.212 384.613 177.856 384.456 178.407 384.141C178.966 383.818 179.338 383.382 179.525 382.83L181.222 383.314C180.907 384.202 180.327 384.882 179.482 385.355C178.644 385.827 177.641 386.064 176.474 386.064C174.784 386.064 173.484 385.537 172.574 384.484C171.665 383.432 171.21 381.924 171.21 379.962C171.21 378.05 171.654 376.582 172.542 375.558C173.437 374.526 174.726 374.011 176.409 374.011C178.092 374.011 179.367 374.523 180.234 375.547C181.1 376.571 181.533 378.118 181.533 380.188V380.445H173.24ZM176.431 375.44C175.471 375.44 174.712 375.755 174.154 376.385C173.595 377.008 173.298 377.867 173.262 378.963H179.535C179.335 376.614 178.3 375.44 176.431 375.44ZM194.381 382.529C194.381 383.632 193.962 384.499 193.124 385.129C192.294 385.752 191.141 386.064 189.665 386.064C188.19 386.064 187.066 385.834 186.292 385.376C185.526 384.911 185.025 384.18 184.788 383.185L186.496 382.852C186.632 383.468 186.922 383.919 187.366 384.205C187.818 384.484 188.584 384.624 189.665 384.624C191.599 384.624 192.566 384.012 192.566 382.787C192.566 382.329 192.39 381.96 192.039 381.681C191.688 381.394 191.151 381.162 190.428 380.983C188.537 380.517 187.338 380.152 186.829 379.887C186.321 379.622 185.931 379.292 185.658 378.899C185.386 378.498 185.25 378 185.25 377.405C185.25 376.353 185.63 375.529 186.389 374.935C187.148 374.34 188.247 374.043 189.687 374.043C190.947 374.043 191.953 374.283 192.705 374.763C193.457 375.235 193.926 375.927 194.113 376.836L192.372 377.051C192.294 376.535 192.039 376.145 191.61 375.88C191.18 375.615 190.539 375.483 189.687 375.483C187.932 375.483 187.055 376.023 187.055 377.105C187.055 377.534 187.202 377.878 187.495 378.136C187.796 378.394 188.276 378.601 188.935 378.759L190.213 379.092C191.38 379.378 192.218 379.661 192.727 379.941C193.242 380.22 193.647 380.571 193.941 380.993C194.234 381.409 194.381 381.921 194.381 382.529ZM211.461 375.751V374.226H213.287L213.91 371.196H215.199V374.226H219.84V375.751H215.199V382.755C215.199 383.321 215.35 383.74 215.651 384.012C215.959 384.284 216.46 384.42 217.155 384.42C218.114 384.42 219.178 384.298 220.345 384.055V385.526C219.135 385.856 217.935 386.021 216.746 386.021C215.586 386.021 214.716 385.777 214.136 385.29C213.556 384.796 213.266 384.019 213.266 382.959V375.751H211.461ZM224.62 369.907H226.565V374.097C226.565 374.519 226.532 375.225 226.468 376.213H226.5C227.252 374.745 228.466 374.011 230.142 374.011C232.648 374.011 233.902 375.375 233.902 378.104V385.849H231.957V378.383C231.957 377.409 231.767 376.686 231.388 376.213C231.016 375.74 230.418 375.504 229.594 375.504C228.706 375.504 227.976 375.83 227.403 376.482C226.837 377.126 226.554 378.003 226.554 379.113V385.849H224.62V369.907ZM247.673 384.656C247.859 384.656 248.071 384.631 248.307 384.581V385.784C247.82 385.899 247.322 385.956 246.814 385.956C246.098 385.956 245.575 385.77 245.245 385.398C244.923 385.018 244.74 384.427 244.698 383.625H244.633C244.168 384.492 243.616 385.115 242.979 385.494C242.349 385.874 241.568 386.064 240.637 386.064C239.505 386.064 238.653 385.756 238.08 385.14C237.507 384.524 237.221 383.679 237.221 382.605C237.221 380.105 238.847 378.838 242.098 378.802L244.633 378.759V378.125C244.633 377.187 244.443 376.514 244.064 376.106C243.684 375.69 243.079 375.483 242.248 375.483C241.403 375.483 240.795 375.633 240.422 375.934C240.05 376.234 239.828 376.7 239.756 377.33L237.737 377.148C238.066 375.056 239.581 374.011 242.281 374.011C243.713 374.011 244.787 374.347 245.503 375.021C246.226 375.687 246.588 376.653 246.588 377.921V382.927C246.588 383.5 246.663 383.933 246.814 384.227C246.964 384.513 247.251 384.656 247.673 384.656ZM241.131 384.592C241.819 384.592 242.427 384.427 242.957 384.098C243.487 383.768 243.899 383.328 244.193 382.776C244.486 382.225 244.633 381.656 244.633 381.068V380.112L242.592 380.155C241.747 380.17 241.102 380.263 240.658 380.435C240.214 380.607 239.867 380.872 239.616 381.23C239.373 381.581 239.251 382.05 239.251 382.637C239.251 383.224 239.409 383.697 239.724 384.055C240.046 384.413 240.515 384.592 241.131 384.592ZM251.1 375.751V374.226H252.926L253.549 371.196H254.838V374.226H259.479V375.751H254.838V382.755C254.838 383.321 254.989 383.74 255.289 384.012C255.597 384.284 256.099 384.42 256.793 384.42C257.753 384.42 258.816 384.298 259.984 384.055V385.526C258.773 385.856 257.574 386.021 256.385 386.021C255.225 386.021 254.355 385.777 253.775 385.29C253.195 384.796 252.905 384.019 252.905 382.959V375.751H251.1ZM278.944 380.445C278.944 381.749 279.23 382.769 279.803 383.507C280.383 384.245 281.174 384.613 282.177 384.613C282.915 384.613 283.559 384.456 284.111 384.141C284.669 383.818 285.042 383.382 285.228 382.83L286.925 383.314C286.61 384.202 286.03 384.882 285.185 385.355C284.347 385.827 283.344 386.064 282.177 386.064C280.487 386.064 279.187 385.537 278.278 384.484C277.368 383.432 276.913 381.924 276.913 379.962C276.913 378.05 277.357 376.582 278.245 375.558C279.141 374.526 280.43 374.011 282.113 374.011C283.795 374.011 285.07 374.523 285.937 375.547C286.803 376.571 287.237 378.118 287.237 380.188V380.445H278.944ZM282.134 375.44C281.174 375.44 280.415 375.755 279.857 376.385C279.298 377.008 279.001 377.867 278.965 378.963H285.239C285.038 376.614 284.003 375.44 282.134 375.44ZM298.022 385.849V378.383C298.022 377.409 297.832 376.686 297.452 376.213C297.08 375.74 296.482 375.504 295.658 375.504C294.77 375.504 294.04 375.83 293.467 376.482C292.901 377.126 292.618 378.003 292.618 379.113V385.849H290.685V376.707C290.685 375.354 290.663 374.526 290.62 374.226H292.447C292.454 374.262 292.461 374.358 292.468 374.516C292.475 374.673 292.482 374.856 292.49 375.064C292.504 375.264 292.518 375.647 292.532 376.213H292.565C293.317 374.745 294.556 374.011 296.281 374.011C297.52 374.011 298.444 374.347 299.053 375.021C299.662 375.687 299.966 376.714 299.966 378.104V385.849H298.022ZM308.517 390.403C307.314 390.403 306.347 390.156 305.616 389.662C304.886 389.168 304.42 388.459 304.22 387.535L306.197 387.267C306.318 387.804 306.58 388.216 306.981 388.502C307.389 388.796 307.922 388.943 308.581 388.943C310.357 388.943 311.245 387.815 311.245 385.559V383.475H311.224C310.873 384.212 310.386 384.771 309.763 385.151C309.14 385.53 308.399 385.72 307.539 385.72C306.121 385.72 305.083 385.258 304.424 384.334C303.772 383.403 303.447 381.942 303.447 379.951C303.447 377.925 303.797 376.435 304.499 375.483C305.201 374.523 306.282 374.043 307.743 374.043C308.553 374.043 309.254 374.233 309.849 374.612C310.45 374.985 310.912 375.518 311.235 376.213H311.267C311.267 375.998 311.281 375.637 311.31 375.128C311.338 374.612 311.367 374.312 311.396 374.226H313.233C313.19 374.612 313.168 375.415 313.168 376.632V385.505C313.168 387.131 312.789 388.352 312.03 389.168C311.27 389.992 310.1 390.403 308.517 390.403ZM311.245 379.93C311.245 378.548 310.977 377.463 310.44 376.675C309.903 375.88 309.165 375.483 308.227 375.483C307.246 375.483 306.537 375.826 306.1 376.514C305.663 377.194 305.445 378.333 305.445 379.93C305.445 381.011 305.534 381.867 305.713 382.497C305.899 383.12 306.186 383.575 306.573 383.861C306.959 384.148 307.5 384.291 308.195 384.291C308.803 384.291 309.337 384.123 309.795 383.786C310.261 383.443 310.619 382.945 310.869 382.293C311.12 381.634 311.245 380.846 311.245 379.93ZM326.95 384.656C327.137 384.656 327.348 384.631 327.584 384.581V385.784C327.097 385.899 326.6 385.956 326.091 385.956C325.375 385.956 324.852 385.77 324.523 385.398C324.2 385.018 324.018 384.427 323.975 383.625H323.91C323.445 384.492 322.893 385.115 322.256 385.494C321.626 385.874 320.845 386.064 319.914 386.064C318.783 386.064 317.931 385.756 317.358 385.14C316.785 384.524 316.498 383.679 316.498 382.605C316.498 380.105 318.124 378.838 321.375 378.802L323.91 378.759V378.125C323.91 377.187 323.721 376.514 323.341 376.106C322.962 375.69 322.356 375.483 321.526 375.483C320.681 375.483 320.072 375.633 319.699 375.934C319.327 376.234 319.105 376.7 319.033 377.33L317.014 377.148C317.343 375.056 318.858 374.011 321.558 374.011C322.99 374.011 324.064 374.347 324.781 375.021C325.504 375.687 325.865 376.653 325.865 377.921V382.927C325.865 383.5 325.941 383.933 326.091 384.227C326.241 384.513 326.528 384.656 326.95 384.656ZM320.408 384.592C321.096 384.592 321.705 384.427 322.235 384.098C322.765 383.768 323.176 383.328 323.47 382.776C323.764 382.225 323.91 381.656 323.91 381.068V380.112L321.869 380.155C321.024 380.17 320.38 380.263 319.936 380.435C319.492 380.607 319.144 380.872 318.894 381.23C318.65 381.581 318.529 382.05 318.529 382.637C318.529 383.224 318.686 383.697 319.001 384.055C319.323 384.413 319.793 384.592 320.408 384.592ZM334.943 390.403C333.74 390.403 332.773 390.156 332.042 389.662C331.312 389.168 330.846 388.459 330.646 387.535L332.622 387.267C332.744 387.804 333.005 388.216 333.406 388.502C333.815 388.796 334.348 388.943 335.007 388.943C336.783 388.943 337.671 387.815 337.671 385.559V383.475H337.65C337.299 384.212 336.812 384.771 336.189 385.151C335.566 385.53 334.824 385.72 333.965 385.72C332.547 385.72 331.509 385.258 330.85 384.334C330.198 383.403 329.872 381.942 329.872 379.951C329.872 377.925 330.223 376.435 330.925 375.483C331.627 374.523 332.708 374.043 334.169 374.043C334.978 374.043 335.68 374.233 336.275 374.612C336.876 374.985 337.338 375.518 337.66 376.213H337.693C337.693 375.998 337.707 375.637 337.736 375.128C337.764 374.612 337.793 374.312 337.822 374.226H339.658C339.615 374.612 339.594 375.415 339.594 376.632V385.505C339.594 387.131 339.214 388.352 338.455 389.168C337.696 389.992 336.525 390.403 334.943 390.403ZM337.671 379.93C337.671 378.548 337.403 377.463 336.865 376.675C336.328 375.88 335.591 375.483 334.653 375.483C333.671 375.483 332.962 375.826 332.526 376.514C332.089 377.194 331.87 378.333 331.87 379.93C331.87 381.011 331.96 381.867 332.139 382.497C332.325 383.12 332.612 383.575 332.998 383.861C333.385 384.148 333.926 384.291 334.62 384.291C335.229 384.291 335.763 384.123 336.221 383.786C336.686 383.443 337.045 382.945 337.295 382.293C337.546 381.634 337.671 380.846 337.671 379.93ZM345.008 380.445C345.008 381.749 345.295 382.769 345.867 383.507C346.448 384.245 347.239 384.613 348.241 384.613C348.979 384.613 349.624 384.456 350.175 384.141C350.734 383.818 351.106 383.382 351.292 382.83L352.99 383.314C352.674 384.202 352.094 384.882 351.249 385.355C350.411 385.827 349.409 386.064 348.241 386.064C346.551 386.064 345.252 385.537 344.342 384.484C343.433 383.432 342.978 381.924 342.978 379.962C342.978 378.05 343.422 376.582 344.31 375.558C345.205 374.526 346.494 374.011 348.177 374.011C349.86 374.011 351.135 374.523 352.001 375.547C352.868 376.571 353.301 378.118 353.301 380.188V380.445H345.008ZM348.198 375.44C347.239 375.44 346.48 375.755 345.921 376.385C345.363 377.008 345.065 377.867 345.03 378.963H351.303C351.102 376.614 350.068 375.44 348.198 375.44ZM379.802 384.656C379.988 384.656 380.199 384.631 380.436 384.581V385.784C379.949 385.899 379.451 385.956 378.943 385.956C378.226 385.956 377.704 385.77 377.374 385.398C377.052 385.018 376.869 384.427 376.826 383.625H376.762C376.296 384.492 375.745 385.115 375.108 385.494C374.477 385.874 373.697 386.064 372.766 386.064C371.634 386.064 370.782 385.756 370.209 385.14C369.636 384.524 369.35 383.679 369.35 382.605C369.35 380.105 370.976 378.838 374.227 378.802L376.762 378.759V378.125C376.762 377.187 376.572 376.514 376.193 376.106C375.813 375.69 375.208 375.483 374.377 375.483C373.532 375.483 372.923 375.633 372.551 375.934C372.179 376.234 371.957 376.7 371.885 377.33L369.865 377.148C370.195 375.056 371.71 374.011 374.409 374.011C375.842 374.011 376.916 374.347 377.632 375.021C378.355 375.687 378.717 376.653 378.717 377.921V382.927C378.717 383.5 378.792 383.933 378.943 384.227C379.093 384.513 379.379 384.656 379.802 384.656ZM373.26 384.592C373.948 384.592 374.556 384.427 375.086 384.098C375.616 383.768 376.028 383.328 376.322 382.776C376.615 382.225 376.762 381.656 376.762 381.068V380.112L374.721 380.155C373.876 380.17 373.231 380.263 372.787 380.435C372.343 380.607 371.996 380.872 371.745 381.23C371.502 381.581 371.38 382.05 371.38 382.637C371.38 383.224 371.538 383.697 371.853 384.055C372.175 384.413 372.644 384.592 373.26 384.592ZM390.512 385.849V378.383C390.512 377.409 390.322 376.686 389.943 376.213C389.57 375.74 388.972 375.504 388.149 375.504C387.261 375.504 386.53 375.83 385.957 376.482C385.392 377.126 385.109 378.003 385.109 379.113V385.849H383.175V376.707C383.175 375.354 383.154 374.526 383.111 374.226H384.937C384.944 374.262 384.951 374.358 384.958 374.516C384.965 374.673 384.973 374.856 384.98 375.064C384.994 375.264 385.008 375.647 385.023 376.213H385.055C385.807 374.745 387.046 374.011 388.772 374.011C390.011 374.011 390.934 374.347 391.543 375.021C392.152 375.687 392.456 376.714 392.456 378.104V385.849H390.512ZM403.66 383.98C403.309 384.732 402.844 385.279 402.264 385.623C401.684 385.96 400.961 386.128 400.094 386.128C398.647 386.128 397.584 385.63 396.904 384.635C396.223 383.639 395.883 382.139 395.883 380.134C395.883 376.081 397.287 374.054 400.094 374.054C400.961 374.054 401.684 374.208 402.264 374.516C402.851 374.824 403.32 375.329 403.671 376.03H403.693L403.671 374.408V369.907H405.605V383.453C405.605 384.664 405.626 385.462 405.669 385.849H403.822C403.793 385.741 403.768 385.48 403.746 385.065C403.725 384.649 403.714 384.288 403.714 383.98H403.66ZM397.881 380.069C397.881 381.659 398.092 382.819 398.515 383.55C398.945 384.273 399.639 384.635 400.599 384.635C401.644 384.635 402.418 384.259 402.919 383.507C403.42 382.748 403.671 381.545 403.671 379.898C403.671 378.358 403.428 377.237 402.941 376.535C402.461 375.833 401.687 375.483 400.62 375.483C399.654 375.483 398.955 375.851 398.526 376.589C398.096 377.327 397.881 378.487 397.881 380.069ZM58.8684 409.323H62.9504V410.849H52.4016V409.323H56.9348V400.751H53.5081V399.226H58.8684V409.323ZM56.72 396.97V394.907H58.8684V396.97H56.72ZM73.4026 410.849V403.383C73.4026 402.409 73.2128 401.686 72.8333 401.213C72.4609 400.74 71.8629 400.504 71.0393 400.504C70.1513 400.504 69.4208 400.83 68.8479 401.482C68.2821 402.126 67.9993 403.003 67.9993 404.113V410.849H66.0657V401.707C66.0657 400.354 66.0442 399.526 66.0012 399.226H67.8274C67.8346 399.262 67.8417 399.358 67.8489 399.516C67.856 399.673 67.8632 399.856 67.8704 400.064C67.8847 400.264 67.899 400.647 67.9133 401.213H67.9456C68.6975 399.745 69.9364 399.011 71.6624 399.011C72.9013 399.011 73.8251 399.347 74.4338 400.021C75.0426 400.687 75.3469 401.714 75.3469 403.104V410.849H73.4026ZM88.678 407.529C88.678 408.632 88.259 409.499 87.4211 410.129C86.5904 410.752 85.4374 411.064 83.9622 411.064C82.4869 411.064 81.3625 410.834 80.5891 410.376C79.8228 409.911 79.3215 409.18 79.0852 408.185L80.7932 407.852C80.9293 408.468 81.2193 408.919 81.6633 409.205C82.1145 409.484 82.8808 409.624 83.9622 409.624C85.8958 409.624 86.8625 409.012 86.8625 407.787C86.8625 407.329 86.6871 406.96 86.3362 406.681C85.9853 406.394 85.4482 406.162 84.7249 405.983C82.8342 405.517 81.6347 405.152 81.1262 404.887C80.6178 404.622 80.2275 404.292 79.9553 403.899C79.6832 403.498 79.5471 403 79.5471 402.405C79.5471 401.353 79.9267 400.529 80.6858 399.935C81.4449 399.34 82.5442 399.043 83.9836 399.043C85.2441 399.043 86.2502 399.283 87.0022 399.763C87.7542 400.235 88.2232 400.927 88.4094 401.836L86.6692 402.051C86.5904 401.535 86.3362 401.145 85.9065 400.88C85.4768 400.615 84.8359 400.483 83.9836 400.483C82.2291 400.483 81.3518 401.023 81.3518 402.105C81.3518 402.534 81.4986 402.878 81.7922 403.136C82.093 403.394 82.5728 403.601 83.2317 403.759L84.51 404.092C85.6773 404.378 86.5152 404.661 87.0237 404.941C87.5393 405.22 87.9439 405.571 88.2375 405.993C88.5312 406.409 88.678 406.921 88.678 407.529ZM102.213 404.984C102.213 409.037 100.809 411.064 98.0022 411.064C96.2405 411.064 95.0553 410.405 94.4465 409.087H94.3928C94.4215 409.144 94.4358 409.739 94.4358 410.87V415.414H92.4915V401.632C92.4915 400.415 92.47 399.612 92.427 399.226H94.3069C94.314 399.254 94.3248 399.362 94.3391 399.548C94.3534 399.727 94.3678 399.996 94.3821 400.354C94.4036 400.705 94.4143 400.966 94.4143 401.138H94.4573C94.8153 400.386 95.2701 399.842 95.8215 399.505C96.3801 399.161 97.107 398.989 98.0022 398.989C99.4202 398.989 100.476 399.48 101.171 400.461C101.866 401.435 102.213 402.943 102.213 404.984ZM100.215 404.984C100.215 403.365 99.9967 402.212 99.5598 401.525C99.123 400.83 98.4355 400.483 97.4973 400.483C96.4159 400.483 95.6353 400.876 95.1555 401.664C94.6757 402.445 94.4358 403.63 94.4358 405.22C94.4358 406.745 94.6757 407.862 95.1555 408.571C95.6353 409.28 96.4088 409.635 97.4758 409.635C98.4283 409.635 99.123 409.273 99.5598 408.55C99.9967 407.827 100.215 406.638 100.215 404.984ZM111.72 409.323H115.802V410.849H105.253V409.323H109.786V400.751H106.36V399.226H111.72V409.323ZM109.572 396.97V394.907H111.72V396.97H109.572ZM128.156 400.987C127.353 400.851 126.594 400.783 125.878 400.783C124.725 400.783 123.794 401.217 123.085 402.083C122.376 402.95 122.022 404.053 122.022 405.392V410.849H120.088V403.318C120.088 402.774 120.038 402.133 119.938 401.396C119.845 400.658 119.709 399.935 119.53 399.226H121.366C121.653 400.214 121.825 401.109 121.882 401.911H121.936C122.294 401.109 122.645 400.522 122.989 400.15C123.332 399.77 123.74 399.487 124.213 399.301C124.686 399.108 125.262 399.011 125.943 399.011C126.687 399.011 127.425 399.072 128.156 399.193V400.987ZM133.602 405.445C133.602 406.749 133.888 407.769 134.461 408.507C135.041 409.245 135.833 409.613 136.835 409.613C137.573 409.613 138.217 409.456 138.769 409.141C139.327 408.818 139.7 408.382 139.886 407.83L141.583 408.314C141.268 409.202 140.688 409.882 139.843 410.355C139.005 410.827 138.003 411.064 136.835 411.064C135.145 411.064 133.845 410.537 132.936 409.484C132.026 408.432 131.572 406.924 131.572 404.962C131.572 403.05 132.016 401.582 132.904 400.558C133.799 399.526 135.088 399.011 136.771 399.011C138.454 399.011 139.728 399.523 140.595 400.547C141.462 401.571 141.895 403.118 141.895 405.188V405.445H133.602ZM136.792 400.44C135.833 400.44 135.073 400.755 134.515 401.385C133.956 402.008 133.659 402.867 133.623 403.963H139.897C139.696 401.614 138.661 400.44 136.792 400.44ZM148.684 410.849V407.637H151.208V410.849H148.684Z" fill="#88B45C"/>
</svg>
