<svg width="128" height="42" viewBox="0 0 128 42" fill="none" xmlns="http://www.w3.org/2000/svg">
<g clip-path="url(#clip0_2113_131)">
<path d="M62.3523 30.3199C63.3737 28.9592 64.6294 28.1448 66.3649 28.181C68.1003 28.2172 69.356 29.0037 70.1888 30.5568C70.4425 30.2541 70.6767 29.9448 70.9402 29.6651C72.6725 27.8157 75.8198 27.643 77.6089 29.3015C78.5848 30.2113 78.9866 31.4009 79.0077 32.6974C79.0484 35.2312 79.0175 37.765 79.0305 40.3004C79.0305 40.5752 78.9297 40.6163 78.7052 40.6064C78.326 40.585 77.9459 40.585 77.5666 40.6064C77.2706 40.6278 77.2153 40.5126 77.2169 40.2362C77.2267 38.0315 77.2169 35.8251 77.2169 33.6188C77.23 33.0015 77.1404 32.3863 76.9518 31.7991C76.1386 29.4068 73.2369 29.4199 71.9259 30.5684C71.2341 31.1781 70.8018 32.0346 70.719 32.959C70.6887 33.2448 70.6746 33.5321 70.6767 33.8195C70.6767 35.9436 70.6686 38.0677 70.6767 40.1902C70.6767 40.4945 70.6263 40.6393 70.2847 40.6064C69.9335 40.5776 69.5804 40.5776 69.2291 40.6064C68.9445 40.6262 68.8648 40.534 68.8664 40.2445C68.8794 38.0792 68.8746 35.914 68.8664 33.7504C68.8664 33.4756 68.8664 33.2009 68.8469 32.9277C68.8172 32.2955 68.6279 31.6815 68.2971 31.1442C67.2074 29.4594 64.5985 29.364 63.268 30.9616C62.6477 31.7177 62.3205 32.6761 62.3474 33.6583C62.3474 35.8367 62.3392 38.0151 62.3474 40.1935C62.3474 40.4995 62.2953 40.6393 61.9554 40.6081C61.5905 40.5801 61.224 40.5801 60.8591 40.6081C60.5907 40.6245 60.4818 40.5357 60.5257 40.2658C60.5273 40.2385 60.5273 40.211 60.5257 40.1836C60.5257 36.4026 60.5257 32.6217 60.5257 28.8408C60.5257 28.5479 60.5582 28.385 60.9079 28.4245C61.3731 28.4772 61.9895 28.232 62.2742 28.5199C62.5588 28.8079 62.3279 29.4035 62.3441 29.8658C62.3571 30.0205 62.3523 30.1702 62.3523 30.3199Z" fill="black"/>
<path d="M23.5747 7.32513C23.8593 6.97468 24.0626 6.69333 24.3001 6.43502C26.3283 4.20232 30.3458 4.6153 31.7674 7.20338C32.192 8.00522 32.4075 8.90332 32.3936 9.81285C32.405 12.2512 32.3936 14.6912 32.4034 17.1312C32.4034 17.3945 32.3432 17.5014 32.065 17.4833C31.6859 17.4594 31.3056 17.4594 30.9265 17.4833C30.6256 17.5031 30.5703 17.378 30.5719 17.1049C30.58 14.9117 30.5719 12.7185 30.5719 10.5236C30.5837 10.0713 30.5439 9.61917 30.4532 9.17611C30.0482 7.43372 28.664 6.47451 26.8391 6.67359C24.8677 6.88912 23.586 8.35017 23.573 10.4578C23.5557 12.6516 23.5557 14.8453 23.573 17.0391C23.573 17.4043 23.4868 17.5228 23.1274 17.4866C22.7755 17.4595 22.422 17.4595 22.0701 17.4866C21.8115 17.5031 21.7562 17.4043 21.7578 17.1575C21.7644 13.2932 21.7644 9.42785 21.7578 5.56135C21.7578 5.2981 21.8424 5.23229 22.0831 5.24874C22.4754 5.26931 22.8685 5.26931 23.2607 5.24874C23.5275 5.23229 23.586 5.33759 23.5698 5.57781C23.5649 6.12076 23.5747 6.66865 23.5747 7.32513Z" fill="black"/>
<path d="M38.0408 7.22159C38.7191 6.34299 39.4738 5.64538 40.4985 5.27683C42.5577 4.53808 44.921 5.21431 46.0286 6.87937C46.5202 7.59375 46.7918 8.43928 46.8094 9.3095C46.8419 11.942 46.8321 14.5745 46.8435 17.207C46.8435 17.4193 46.7817 17.4982 46.567 17.49C46.1734 17.4769 45.7798 17.4686 45.3878 17.49C45.0999 17.5065 45.0267 17.4028 45.0283 17.1198C45.0381 14.8871 45.0283 12.6544 45.0283 10.4217C45.0283 9.64185 44.9291 8.88501 44.5404 8.20385C43.8182 6.94683 42.6618 6.56676 41.3166 6.68687C39.3648 6.86291 38.0636 8.31737 38.0441 10.3625C38.0164 12.582 38.0278 14.8049 38.0441 17.0195C38.0441 17.3995 37.9481 17.5262 37.574 17.49C37.2363 17.4629 36.8969 17.4629 36.5591 17.49C36.2858 17.5081 36.2191 17.4045 36.2224 17.1396C36.2354 16.0569 36.2224 14.9743 36.2224 13.8934C36.2224 11.1523 36.2224 8.4128 36.2224 5.66677C36.2224 5.32125 36.3184 5.2176 36.6518 5.24392C37.0168 5.26778 37.383 5.26778 37.7481 5.24392C37.9839 5.23241 38.049 5.32125 38.0441 5.54995C38.0311 6.10936 38.0408 6.66548 38.0408 7.22159Z" fill="black"/>
<path d="M63.5283 11.4037C63.5202 10.1279 63.8899 8.87881 64.5896 7.81732C65.2894 6.75583 66.2873 5.93053 67.4547 5.44767C69.8018 4.48022 72.5782 5.07912 74.3967 6.92845C74.5756 7.11108 74.6081 7.22955 74.4064 7.42205C74.1488 7.66241 73.9065 7.91905 73.681 8.19041C73.5037 8.40595 73.3882 8.42405 73.18 8.20851C72.4985 7.50431 71.7162 6.93504 70.7403 6.72773C68.1379 6.17325 65.7876 7.89919 65.4379 10.609C65.1288 13.0013 66.3259 15.155 68.4144 15.8642C70.2767 16.4976 71.8805 15.9448 73.25 14.6088C73.5297 14.3373 73.6794 14.3521 73.912 14.6187C74.1145 14.8387 74.3319 15.0443 74.5626 15.234C74.7041 15.3558 74.6732 15.4314 74.5626 15.5631C73.7221 16.5331 72.6131 17.2255 71.3792 17.5505C70.1452 17.8756 68.8432 17.8183 67.6418 17.3861C66.4312 16.9378 65.3868 16.1228 64.6507 15.0523C63.9146 13.9818 63.5227 12.7077 63.5283 11.4037Z" fill="black"/>
<path d="M79.673 8.86836C79.673 11.5947 79.673 14.3209 79.673 17.0456C79.673 17.3746 79.6649 17.5836 79.3396 17.5836C78.9281 17.5836 78.4727 17.7235 78.0855 17.5523C78.0172 17.5206 77.9589 17.4702 77.9173 17.4069C77.8756 17.3435 77.8522 17.2697 77.8497 17.1937C77.8367 16.8942 77.8757 16.4895 77.8757 16.1028C77.8757 10.9661 77.8676 5.80478 77.8562 0.668102C77.8562 0.325876 77.9066 0.217285 78.2872 0.217285H79.3429C79.6682 0.217285 79.6682 0.363718 79.6682 0.607225C79.6682 3.36149 79.6698 6.1152 79.673 8.86836Z" fill="black"/>
<path d="M87.5568 30.7511C89.1833 30.7511 90.8098 30.7626 92.4363 30.7412C92.8072 30.7412 92.8966 30.8514 92.8804 31.2035C92.8527 31.7778 92.8641 32.3553 92.8804 32.9295C92.8804 33.1779 92.8365 33.2964 92.5551 33.2947C89.2218 33.286 85.8885 33.286 82.5553 33.2947C82.2771 33.2947 82.2121 33.1944 82.2186 32.9361C82.2332 32.3191 82.2348 31.7021 82.2186 31.0867C82.2186 30.8103 82.3097 30.7429 82.5715 30.7445C84.2241 30.756 85.8912 30.7511 87.5568 30.7511Z" fill="#00AEEE"/>
<path d="M87.5568 2.53567C85.9043 2.53567 84.2518 2.53567 82.5992 2.53567C82.3065 2.53567 82.1877 2.47314 82.2024 2.15231C82.2268 1.56493 82.2186 0.974261 82.2024 0.385238C82.2024 0.117051 82.2609 -0.00634766 82.5618 -0.00634766C85.8799 0.00242737 89.1991 0.00242737 92.5193 -0.00634766C92.7828 -0.00634766 92.8771 0.0742728 92.8706 0.34575C92.8544 0.961098 92.8528 1.57974 92.8706 2.19509C92.8706 2.47973 92.7649 2.53402 92.5144 2.52415C90.8619 2.53238 89.2094 2.53567 87.5568 2.53567Z" fill="#EC3237"/>
<path d="M87.5568 17.4094C85.9042 17.4094 84.2501 17.4094 82.5976 17.4094C82.295 17.4094 82.1942 17.3338 82.2056 17.0211C82.2283 16.4058 82.2202 15.7888 82.2056 15.1718C82.2056 14.9464 82.269 14.8608 82.5048 14.8608C85.8663 14.8674 89.2277 14.8674 92.5892 14.8608C92.7974 14.8608 92.8771 14.9283 92.8738 15.1438C92.8641 15.7872 92.8559 16.4321 92.8738 17.0754C92.882 17.3699 92.7551 17.4045 92.5111 17.4045C90.8635 17.4061 89.2093 17.4094 87.5568 17.4094Z" fill="#FECB29"/>
<path d="M87.5178 40.4567C85.8912 40.4567 84.2647 40.4452 82.6382 40.465C82.2723 40.465 82.1714 40.3514 82.1877 39.9961C82.2153 39.4235 82.2039 38.8443 82.1877 38.2734C82.1877 38.0052 82.282 37.9131 82.5439 37.9131C85.8587 37.9131 89.1741 37.9131 92.49 37.9131C92.7844 37.9131 92.8592 38.025 92.8527 38.3014C92.8364 38.8888 92.8332 39.4778 92.8527 40.0652C92.8641 40.3728 92.7584 40.4666 92.4575 40.4633C90.8196 40.4502 89.1687 40.4567 87.5178 40.4567Z" fill="#6359A3"/>
<path d="M87.5568 9.95747C85.9042 9.95747 84.2517 9.94925 82.5975 9.95747C82.2999 9.95747 82.1909 9.88343 82.2039 9.56918C82.2267 8.98016 82.2202 8.38949 82.2039 7.80211C82.2039 7.54544 82.2641 7.43685 82.5439 7.43849C85.8771 7.44617 89.2104 7.44617 92.5436 7.43849C92.7893 7.43849 92.8787 7.51418 92.869 7.76756C92.8559 8.37139 92.8462 8.97522 92.869 9.57741C92.882 9.90647 92.7551 9.95912 92.4672 9.95747C90.8358 9.95089 89.1963 9.95747 87.5568 9.95747Z" fill="#F48534"/>
<path d="M87.5161 25.338C85.8765 25.338 84.2387 25.3297 82.5991 25.338C82.3031 25.338 82.1909 25.2656 82.2039 24.9497C82.2267 24.3623 82.2185 23.7716 82.2039 23.1826C82.2039 22.9292 82.2624 22.8206 82.5438 22.8223C85.8749 22.83 89.2071 22.83 92.5404 22.8223C92.7827 22.8223 92.8771 22.8914 92.8657 23.1513C92.8527 23.7535 92.8445 24.3574 92.8657 24.9612C92.8787 25.2903 92.7502 25.3429 92.4639 25.3413C90.8211 25.3265 89.1686 25.338 87.5161 25.338Z" fill="#A7CE45"/>
<path d="M15.7771 11.333C15.7771 9.44415 15.7869 7.54874 15.7673 5.66486C15.7673 5.31276 15.8698 5.21733 16.2 5.2453C16.5508 5.27244 16.9032 5.27244 17.254 5.2453C17.5532 5.22227 17.6085 5.34237 17.6069 5.61879C17.5993 9.45237 17.5993 13.2865 17.6069 17.1212C17.6069 17.4157 17.5175 17.5013 17.2377 17.4832C16.8727 17.4577 16.5064 17.4577 16.1414 17.4832C15.8161 17.5095 15.7673 17.3746 15.769 17.0834C15.7771 15.1682 15.7771 13.2514 15.7771 11.333Z" fill="black"/>
<path d="M112.229 35.6429C112.229 33.7393 112.229 31.8373 112.229 29.9337C112.229 29.6046 112.286 29.4615 112.643 29.4977C112.98 29.5289 113.319 29.5289 113.656 29.4977C113.981 29.4697 114.058 29.5849 114.056 29.9041C114.045 33.0121 114.056 36.1201 114.056 39.2264C114.056 39.9388 114.04 40.6513 114.056 41.3653C114.067 41.6829 113.963 41.7701 113.664 41.7487C113.313 41.7215 112.961 41.7215 112.61 41.7487C112.294 41.7734 112.228 41.6533 112.229 41.3538C112.229 39.4485 112.229 37.5449 112.229 35.6429Z" fill="black"/>
<path d="M16.6863 0.567871C17.7322 0.567871 17.7322 0.567871 17.7322 1.61923C17.7322 2.57845 17.7322 2.58338 16.7563 2.57516C16.4082 2.57516 15.9593 2.72653 15.7413 2.50605C15.5234 2.28558 15.6779 1.83312 15.6746 1.48267C15.6649 0.567871 15.6746 0.567871 16.5692 0.567871H16.6863Z" fill="black"/>
<path d="M113.233 24.8183C113.493 24.8479 113.911 24.6768 114.108 24.8858C114.305 25.0947 114.162 25.5094 114.165 25.8335C114.165 26.8207 114.165 26.8207 113.189 26.8207C112.919 26.8207 112.649 26.8207 112.376 26.8207C112.2 26.8207 112.102 26.7976 112.109 26.5805C112.122 26.0753 112.122 25.5686 112.109 25.0635C112.109 24.8611 112.176 24.8035 112.364 24.8134C112.633 24.8282 112.904 24.8183 113.233 24.8183Z" fill="black"/>
<path d="M108.035 24.9203C108.035 24.8512 108.035 24.7821 108.035 24.7147C108.052 24.5353 107.974 24.4745 107.8 24.4761C107.353 24.4843 106.906 24.4876 106.46 24.4761C106.257 24.4761 106.205 24.5518 106.21 24.741C106.219 25.1918 106.21 25.6443 106.21 26.0967V31.8175C106.057 31.6283 105.98 31.5395 105.91 31.4457C103.615 28.4331 99.5669 28.6996 97.4134 31.0936C95.6877 33.0104 95.377 35.2957 96.039 37.6995C96.6766 40.003 98.2446 41.4525 100.584 41.8869C102.807 42.2982 104.588 41.4525 105.94 39.6443C106.003 39.5604 106.04 39.4255 106.21 39.4189C106.21 40.0902 106.223 40.7466 106.21 41.4031C106.201 41.6779 106.294 41.7602 106.558 41.7437C106.896 41.7174 107.235 41.7174 107.573 41.7437C107.94 41.7783 108.048 41.6614 108.046 41.2764C108.031 35.825 108.027 30.3729 108.035 24.9203ZM104.271 39.5933C101.668 41.3225 98.4024 39.9454 97.729 36.8423C97.6464 36.4252 97.605 36.0008 97.6054 35.5754C97.6363 33.912 98.1389 32.4658 99.593 31.5362C102.158 29.8908 105.58 31.4654 106.18 34.5306C106.577 36.561 105.823 38.5617 104.271 39.5933Z" fill="black"/>
<path d="M10.6146 6.80539C8.62051 4.64674 5.29267 4.39336 3.11802 6.23611C2.65121 6.62934 2.26898 7.10484 1.81681 7.55237C1.81681 6.89424 1.80543 6.23611 1.81681 5.57799C1.81681 5.30651 1.73874 5.21931 1.47199 5.23741C1.13428 5.2662 0.794766 5.2662 0.45705 5.23741C0.0910847 5.20615 0 5.33942 0 5.71455C0.0130121 10.2013 0.00813256 14.6996 0.00813256 19.193C0.00813256 19.754 0.0243977 20.3167 0.00813256 20.8778C-0.00325302 21.1756 0.10247 21.2546 0.378977 21.2381C0.744046 21.2151 1.11018 21.2151 1.47525 21.2381C1.76965 21.2579 1.83471 21.1427 1.83308 20.8646C1.82169 19.1387 1.83308 17.4095 1.83308 15.6868C1.83308 15.5453 1.84446 15.4038 1.85422 15.1932C2.06242 15.445 2.21206 15.6342 2.36983 15.8168C2.8607 16.3855 3.4603 16.8479 4.1325 17.176C4.80471 17.504 5.53562 17.6911 6.28119 17.7258C7.02677 17.7606 7.77158 17.6423 8.47076 17.3781C9.16994 17.1139 9.80902 16.7093 10.3495 16.1886C12.8494 13.7799 12.9731 9.35399 10.6146 6.80539ZM8.78316 15.1899C6.3434 17.1166 2.74555 15.8234 1.92579 12.7433C1.40531 10.7657 2.03314 8.72054 3.5214 7.56882C6.07828 5.59444 9.64522 6.92879 10.304 10.1174C10.3868 10.5474 10.4309 10.9841 10.4357 11.4222C10.4097 12.9079 9.99166 14.2389 8.78316 15.1899Z" fill="black"/>
<path d="M60.4574 9.6634C60.4119 7.19543 58.9805 5.55011 56.6384 5.18485C54.9969 4.92547 53.3168 5.11229 51.7702 5.72616C50.8463 6.08484 50.848 6.08648 51.196 7.04241C51.2304 7.11713 51.2581 7.19476 51.279 7.2744C51.3278 7.58701 51.4791 7.58208 51.7295 7.4702C52.9278 6.90933 54.2456 6.66047 55.5632 6.74626C57.6078 6.89927 58.839 8.13161 58.6536 10.3989C57.9609 10.2037 57.2538 10.0651 56.5391 9.98424C55.02 9.85426 53.5041 9.8049 52.0613 10.4351C50.6723 11.0405 49.8737 12.0919 49.7842 13.6467C49.7029 15.1078 50.2722 16.2595 51.5165 16.9851C53.1723 17.9476 54.9175 17.9723 56.6741 17.2483C57.4484 16.9308 58.0713 16.3944 58.6829 15.6787C58.6829 16.2463 58.6959 16.707 58.6829 17.1595C58.6715 17.4178 58.7593 17.4885 59.0082 17.4885C59.4002 17.4704 59.7938 17.4721 60.1858 17.4885C60.4167 17.4885 60.4851 17.4211 60.4834 17.1874C60.4688 14.675 60.5062 12.1758 60.4574 9.6634ZM58.6569 13.4921C58.3771 14.8807 57.4451 15.6507 56.1764 16.039C54.9988 16.3993 53.8229 16.4125 52.7217 15.7544C52.3557 15.554 52.0559 15.2494 51.8595 14.8782C51.6632 14.507 51.579 14.0857 51.6173 13.6665C51.6645 12.7681 52.1508 12.1676 52.9185 11.7793C53.6451 11.4329 54.4459 11.2763 55.2477 11.3235C56.3302 11.3275 57.4073 11.478 58.4503 11.7711C58.5788 11.8056 58.7138 11.8204 58.7056 12.0179C58.6812 12.5164 58.7544 13.0133 58.6569 13.4921Z" fill="black"/>
<path d="M127.958 33.7046C127.891 31.4225 126.609 29.9598 124.396 29.4876C122.624 29.1092 120.895 29.3511 119.215 30.0059C118.373 30.335 118.374 30.335 118.693 31.2086C118.735 31.3092 118.771 31.4125 118.799 31.518C118.862 31.8059 118.989 31.8339 119.254 31.7138C120.479 31.1476 121.826 30.9021 123.169 30.9997C125.121 31.1461 126.237 32.3834 126.211 34.3413C126.211 34.6227 126.134 34.6556 125.885 34.5848C124.891 34.3112 123.866 34.1658 122.836 34.1521C121.697 34.1274 120.586 34.2294 119.537 34.7033C118.117 35.3433 117.346 36.4375 117.307 38.0285C117.268 39.6195 118.002 40.7613 119.401 41.4392C120.837 42.1368 122.328 42.1549 123.83 41.6548C124.749 41.3487 125.492 40.7679 126.204 39.9403C126.204 40.5326 126.212 40.9966 126.204 41.4606C126.204 41.6794 126.277 41.7485 126.487 41.742C126.894 41.7288 127.301 41.7304 127.707 41.742C127.906 41.742 127.997 41.7025 127.997 41.4738C127.98 38.884 128.032 36.2927 127.958 33.7046ZM126.235 36.9179C126.334 38.7804 125.115 39.9206 123.566 40.35C122.564 40.6264 121.556 40.6462 120.585 40.2003C119.667 39.7791 119.121 39.0815 119.142 38.0268C119.163 36.9722 119.741 36.3322 120.645 35.9406C121.608 35.5243 122.628 35.549 123.643 35.6115C124.355 35.6717 125.062 35.7878 125.757 35.9587C126.121 36.0426 126.31 36.1841 126.232 36.5839C126.223 36.6951 126.224 36.8069 126.235 36.9179Z" fill="black"/>
</g>
<defs>
<clipPath id="clip0_2113_131">
<rect width="128" height="42" fill="white"/>
</clipPath>
</defs>
</svg>
