<svg width="557" height="654" viewBox="0 0 557 654" fill="none" xmlns="http://www.w3.org/2000/svg">
<rect width="556.835" height="653.05" rx="41" fill="#F0F8F7"/>
<path d="M66 238.56C67.3333 238.56 68.5067 238.2 69.52 237.48C70.56 236.76 71.08 235.68 71.08 234.24C71.08 232.773 70.52 231.653 69.4 230.88C68.3067 230.107 66.7333 229.44 64.68 228.88C62.6533 228.293 61.1733 227.787 60.24 227.36C59.3333 226.933 58.4667 226.373 57.64 225.68C55.9867 224.293 55.16 222.147 55.16 219.24C55.16 216.867 56 214.827 57.68 213.12C59.3867 211.413 61.7067 210.56 64.64 210.56C66.0533 210.56 67.52 210.773 69.04 211.2C70.5867 211.6 71.5467 211.8 71.92 211.8C72.2933 211.8 72.6267 211.533 72.92 211H73.36L73.64 219.08H73C71.72 216.76 70.3733 214.907 68.96 213.52C67.5733 212.107 66.0533 211.4 64.4 211.4C62.7733 211.4 61.5067 211.787 60.6 212.56C59.6933 213.307 59.24 214.32 59.24 215.6C59.24 216.853 59.7733 217.827 60.84 218.52C61.9333 219.187 63.2667 219.733 64.84 220.16C66.4133 220.587 67.44 220.88 67.92 221.04C68.4267 221.2 69.04 221.427 69.76 221.72C70.5067 221.987 71.1067 222.28 71.56 222.6C72.04 222.893 72.5333 223.28 73.04 223.76C73.5733 224.213 73.9867 224.72 74.28 225.28C75 226.56 75.36 228.08 75.36 229.84C75.36 232.72 74.4533 235.04 72.64 236.8C70.8533 238.533 68.4933 239.4 65.56 239.4C64.04 239.4 62.2933 239.2 60.32 238.8C58.3733 238.4 57.2933 238.2 57.08 238.2C56.7067 238.2 56.3467 238.6 56 239.4H55.44L55.04 229.88H55.72C56.8933 232.2 58.3867 234.227 60.2 235.96C62.04 237.693 63.9733 238.56 66 238.56ZM80.4244 211H101.224L101.624 218.92H100.904C99.7844 216.227 98.611 214.387 97.3844 213.4C96.1577 212.387 94.3577 211.88 91.9844 211.88H90.5844V224.24H91.9444C93.1977 224.24 94.251 223.773 95.1044 222.84C95.9577 221.88 96.5577 220.6 96.9044 219H97.5044V230.84H96.8244C96.3444 228.84 95.691 227.413 94.8644 226.56C94.0644 225.707 92.9577 225.28 91.5444 225.28H90.5844V238.12H92.1044C94.5577 238.12 96.6377 237.387 98.3444 235.92C100.078 234.453 101.264 232.573 101.904 230.28H102.704L102.384 239H80.4244V238.12H82.7844V211.88H80.4244V211ZM126.17 226.64V223.68C126.17 218.8 125.93 215.72 125.45 214.44C124.916 212.973 124.156 212.067 123.17 211.72C122.61 211.507 121.93 211.4 121.13 211.4C120.33 211.4 119.636 211.507 119.05 211.72C118.49 211.933 118.023 212.307 117.65 212.84C117.276 213.373 116.97 213.933 116.73 214.52C116.516 215.107 116.343 215.933 116.21 217C116.05 218.547 115.97 220.827 115.97 223.84V226.72C115.97 229.973 116.09 232.293 116.33 233.68C116.596 235.04 116.916 236.013 117.29 236.6C118.116 237.907 119.396 238.56 121.13 238.56C123.236 238.56 124.596 237.68 125.21 235.92C125.85 234.133 126.17 231.04 126.17 226.64ZM121.05 239.4C116.596 239.4 113.263 238.2 111.05 235.8C108.863 233.373 107.77 229.88 107.77 225.32C107.77 220.733 108.943 217.133 111.29 214.52C113.663 211.88 117.01 210.56 121.33 210.56C125.65 210.56 128.903 211.813 131.09 214.32C133.303 216.8 134.41 220.333 134.41 224.92C134.41 229.507 133.29 233.067 131.05 235.6C128.836 238.133 125.503 239.4 121.05 239.4ZM169.039 248.04C170.346 248.04 171.346 247.413 172.039 246.16C172.759 244.907 173.119 243.36 173.119 241.52C173.119 239.68 172.412 237.813 170.999 235.92C168.972 238.24 166.186 239.4 162.639 239.4C159.092 239.4 156.266 238.8 154.159 237.6C152.079 236.4 151.039 234.507 151.039 231.92C151.039 230.133 151.519 228.693 152.479 227.6C153.439 226.507 155.052 225.707 157.319 225.2C154.972 223.067 153.799 220.747 153.799 218.24C153.799 215.707 154.679 213.8 156.439 212.52C158.226 211.213 160.439 210.56 163.079 210.56C165.719 210.56 167.692 211.04 168.999 212C170.332 212.96 170.999 214.253 170.999 215.88C170.999 218.707 168.852 220.867 164.559 222.36C165.092 222.707 166.066 223.32 167.479 224.2C170.439 226.12 172.532 227.667 173.759 228.84C174.159 226.947 174.386 225 174.439 223H171.279V222.2H178.239V223H175.439C175.386 225.507 175.132 227.76 174.679 229.76C175.826 231.04 176.692 232.267 177.279 233.44C177.866 234.613 178.159 236.093 178.159 237.88C178.159 240.76 177.146 243.333 175.119 245.6C173.092 247.867 170.786 249 168.199 249C166.466 249 165.119 248.64 164.159 247.92C163.199 247.2 162.719 246.28 162.719 245.16C162.719 244.04 163.026 243.16 163.639 242.52C164.279 241.907 165.079 241.6 166.039 241.6C168.172 241.6 169.239 242.56 169.239 244.48C169.239 244.88 169.159 245.36 168.999 245.92H167.599C167.119 247.333 167.599 248.04 169.039 248.04ZM163.599 238.36C166.426 238.36 168.666 237.267 170.319 235.08C169.092 233.8 167.372 232.413 165.159 230.92C161.346 228.413 158.919 226.707 157.879 225.8C157.479 226.653 157.279 228.387 157.279 231C157.279 233.613 157.799 235.493 158.839 236.64C159.879 237.787 161.466 238.36 163.599 238.36ZM162.879 211.4C161.866 211.4 160.999 211.72 160.279 212.36C159.559 212.973 159.199 213.96 159.199 215.32C159.199 216.68 159.519 217.8 160.159 218.68C160.799 219.56 162.026 220.627 163.839 221.88C164.959 221.293 165.652 220.587 165.919 219.76C166.212 218.933 166.359 217.72 166.359 216.12C166.359 212.973 165.199 211.4 162.879 211.4ZM215.637 211H226.317V211.76H224.117V238.24H226.317V239H214.117V238.24H216.317V213.24H216.157L210.157 239H205.157L198.117 213.12H197.957V238.24H200.157V239H194.717V238.24H196.917V211.76H194.717V211H205.517L210.837 231.6L215.637 211ZM239.911 229.6H241.071V226.52C241.071 223.987 240.924 222.293 240.631 221.44C240.364 220.56 239.831 220.12 239.031 220.12C238.551 220.12 238.111 220.253 237.711 220.52C237.338 220.76 237.151 221.107 237.151 221.56C237.151 221.987 237.231 222.427 237.391 222.88H238.391C238.604 223.44 238.711 224.12 238.711 224.92C238.711 225.693 238.378 226.373 237.711 226.96C237.044 227.52 236.204 227.8 235.191 227.8C232.898 227.8 231.751 226.693 231.751 224.48C231.751 221.2 234.538 219.56 240.111 219.56C243.284 219.56 245.471 220.107 246.671 221.2C247.898 222.267 248.511 224.24 248.511 227.12V235.24C248.511 236.627 248.898 237.32 249.671 237.32C250.578 237.32 251.111 235.947 251.271 233.2L251.871 233.24C251.764 235.587 251.324 237.2 250.551 238.08C249.778 238.96 248.511 239.4 246.751 239.4C243.551 239.4 241.711 238.413 241.231 236.44C240.884 237.453 240.364 238.2 239.671 238.68C238.978 239.16 237.964 239.4 236.631 239.4C232.684 239.4 230.711 237.787 230.711 234.56C230.711 232.667 231.458 231.373 232.951 230.68C234.471 229.96 236.791 229.6 239.911 229.6ZM238.311 234.52C238.311 235.907 238.378 236.8 238.511 237.2C238.671 237.6 238.951 237.8 239.351 237.8C239.778 237.8 240.164 237.467 240.511 236.8C240.884 236.107 241.071 235.16 241.071 233.96V230.24H240.791C239.138 230.24 238.311 231.453 238.311 233.88V234.52ZM268.224 221.08C267.237 221.08 266.371 221.72 265.624 223C264.877 224.28 264.504 225.8 264.504 227.56V238.28H267.344V239H254.864V238.28H257.064V220.68H254.864V219.96H264.504V223.8C264.851 222.44 265.517 221.4 266.504 220.68C267.491 219.933 268.611 219.56 269.864 219.56C271.117 219.56 272.131 219.92 272.904 220.64C273.704 221.333 274.104 222.333 274.104 223.64C274.104 224.92 273.811 225.907 273.224 226.6C272.637 227.293 271.731 227.64 270.504 227.64C269.304 227.64 268.411 227.24 267.824 226.44C267.264 225.64 267.197 224.533 267.624 223.12H269.064C269.731 221.76 269.451 221.08 268.224 221.08ZM289.958 239V238.28H291.798L287.278 229L286.518 229.2V238.28H288.358V239H276.878V238.28H279.078V209.72H276.718V209H286.518V228.4L287.158 228.16L296.158 220.68H292.398V219.96H300.278V220.68H297.478L292.718 224.72L299.638 238.28H301.078V239H289.958ZM313.787 239.4C310.347 239.4 307.761 238.52 306.027 236.76C304.321 234.973 303.467 232.507 303.467 229.36C303.467 226.187 304.427 223.76 306.347 222.08C308.294 220.4 310.761 219.56 313.747 219.56C319.801 219.56 322.707 222.6 322.467 228.68H311.187V230.24C311.187 232.853 311.521 234.827 312.187 236.16C312.854 237.493 314.014 238.16 315.667 238.16C318.761 238.16 320.787 236.507 321.747 233.2L322.467 233.32C321.961 235.24 321.041 236.733 319.707 237.8C318.401 238.867 316.427 239.4 313.787 239.4ZM311.227 227.88H315.347V225.92C315.347 223.76 315.214 222.293 314.947 221.52C314.707 220.72 314.201 220.32 313.427 220.32C312.681 220.32 312.121 220.747 311.747 221.6C311.401 222.427 311.227 223.867 311.227 225.92V227.88ZM328.492 233.28V220.68H326.292V219.96H328.492V214.8L335.932 212.96V219.96H341.132V220.68H335.932V234.16C335.932 235.413 336.052 236.333 336.292 236.92C336.559 237.507 337.092 237.8 337.892 237.8C338.692 237.8 339.386 237.4 339.972 236.6C340.586 235.8 340.986 234.707 341.172 233.32L341.852 233.4C341.639 235.24 341.052 236.707 340.092 237.8C339.132 238.867 337.546 239.4 335.332 239.4C333.119 239.4 331.426 238.96 330.252 238.08C329.079 237.2 328.492 235.6 328.492 233.28ZM350.714 217.2C349.301 217.2 348.288 216.84 347.674 216.12C347.088 215.4 346.794 214.507 346.794 213.44C346.794 212.373 347.114 211.493 347.754 210.8C348.421 210.107 349.421 209.76 350.754 209.76C352.088 209.76 353.101 210.08 353.794 210.72C354.488 211.333 354.834 212.227 354.834 213.4C354.834 214.547 354.501 215.467 353.834 216.16C353.168 216.853 352.128 217.2 350.714 217.2ZM344.674 219.96H354.474V238.28H356.714V239H344.834V238.28H347.034V220.68H344.674V219.96ZM360.21 219.96H369.85V223.64C370.276 222.413 370.93 221.427 371.81 220.68C372.69 219.933 374.023 219.56 375.81 219.56C379.943 219.56 382.01 221.787 382.01 226.24V238.28H384.25V239H372.93V238.28H374.57V225.28C374.57 223.68 374.463 222.653 374.25 222.2C374.036 221.72 373.65 221.48 373.09 221.48C372.236 221.48 371.476 222.04 370.81 223.16C370.17 224.28 369.85 225.64 369.85 227.24V238.28H371.57V239H360.21V238.28H362.41V220.68H360.21V219.96ZM403.418 217.88L404.538 217.2C404.698 216.373 404.378 215.96 403.578 215.96C402.431 215.96 401.858 216.84 401.858 218.6C401.858 219.293 401.951 220.093 402.138 221C404.165 222.36 405.178 224.107 405.178 226.24C405.178 228.347 404.445 229.987 402.978 231.16C401.511 232.333 399.525 232.92 397.018 232.92C395.978 232.92 394.898 232.813 393.778 232.6C392.605 233.347 392.018 233.907 392.018 234.28C392.018 234.653 392.871 234.84 394.578 234.84H398.658C404.711 234.84 407.738 237.013 407.738 241.36C407.738 243.707 406.818 245.56 404.978 246.92C403.165 248.307 400.325 249 396.458 249C389.871 249 386.578 247.573 386.578 244.72C386.578 243.173 387.605 242.107 389.658 241.52L392.058 242.6C391.845 243.373 391.738 244.107 391.738 244.8C391.738 247.093 393.445 248.24 396.858 248.24C398.938 248.24 400.538 247.853 401.658 247.08C402.778 246.307 403.338 245.347 403.338 244.2C403.338 243.053 402.991 242.28 402.298 241.88C401.631 241.507 400.285 241.32 398.258 241.32H394.378C392.218 241.32 390.671 240.96 389.738 240.24C388.805 239.52 388.338 238.64 388.338 237.6C388.338 236.533 388.671 235.653 389.338 234.96C390.005 234.24 391.191 233.36 392.898 232.32C389.805 231.44 388.258 229.413 388.258 226.24C388.258 224.24 388.978 222.627 390.418 221.4C391.858 220.173 394.018 219.56 396.898 219.56C398.631 219.56 400.111 219.893 401.338 220.56C401.178 219.84 401.098 219.187 401.098 218.6C401.098 217.107 401.498 216.027 402.298 215.36C403.098 214.693 403.991 214.36 404.978 214.36C405.965 214.36 406.751 214.627 407.338 215.16C407.951 215.667 408.258 216.373 408.258 217.28C408.258 218.187 408.018 218.867 407.538 219.32C407.058 219.747 406.471 219.96 405.778 219.96C405.111 219.96 404.551 219.787 404.098 219.44C403.671 219.067 403.445 218.547 403.418 217.88ZM394.938 225.36V227.52C394.938 229.307 395.085 230.52 395.378 231.16C395.698 231.8 396.165 232.12 396.778 232.12C397.418 232.12 397.871 231.813 398.138 231.2C398.431 230.56 398.578 229.267 398.578 227.32V225.36C398.578 223.28 398.445 221.92 398.178 221.28C397.911 220.613 397.458 220.28 396.818 220.28C396.205 220.28 395.738 220.627 395.418 221.32C395.098 221.987 394.938 223.333 394.938 225.36Z" fill="#3B9D91"/>
<circle cx="37.9011" cy="64.2483" r="2.10769" fill="#3B9D91"/>
<circle cx="58.2117" cy="64.2481" r="2.10769" fill="#3B9D91"/>
<circle cx="78.5225" cy="64.2481" r="2.10769" fill="#3B9D91"/>
<circle cx="98.8328" cy="64.2481" r="2.10769" fill="#3B9D91"/>
<circle cx="119.143" cy="64.2481" r="2.10769" fill="#3B9D91"/>
<circle cx="139.454" cy="64.2481" r="2.10769" fill="#3B9D91"/>
<circle cx="159.764" cy="64.2481" r="2.10769" fill="#3B9D91"/>
<circle cx="180.075" cy="64.2481" r="2.10769" fill="#3B9D91"/>
<circle cx="200.385" cy="64.2481" r="2.10769" fill="#3B9D91"/>
<circle cx="220.696" cy="64.2481" r="2.10769" fill="#3B9D91"/>
<circle cx="239.09" cy="64.2481" r="2.10769" fill="#3B9D91"/>
<circle cx="259.401" cy="64.2481" r="2.10769" fill="#3B9D91"/>
<circle cx="279.711" cy="64.2481" r="2.10769" fill="#3B9D91"/>
<circle cx="300.022" cy="64.2481" r="2.10769" fill="#3B9D91"/>
<circle cx="320.332" cy="64.2481" r="2.10769" fill="#3B9D91"/>
<circle cx="340.643" cy="64.2481" r="2.10769" fill="#3B9D91"/>
<circle cx="360.953" cy="64.2481" r="2.10769" fill="#3B9D91"/>
<circle cx="381.263" cy="64.2481" r="2.10769" fill="#3B9D91"/>
<circle cx="401.574" cy="64.2481" r="2.10769" fill="#3B9D91"/>
<circle cx="421.885" cy="64.2481" r="2.10769" fill="#3B9D91"/>
<circle cx="442.195" cy="64.2481" r="2.10769" fill="#3B9D91"/>
<circle cx="462.505" cy="64.2481" r="2.10769" fill="#3B9D91"/>
<circle cx="482.816" cy="64.2481" r="2.10769" fill="#3B9D91"/>
<circle cx="503.126" cy="64.2481" r="2.10769" fill="#3B9D91"/>
<circle cx="523.437" cy="64.2481" r="2.10769" fill="#3B9D91"/>
<circle cx="37.9011" cy="83.0259" r="2.10769" fill="#3B9D91"/>
<circle cx="58.2117" cy="83.0259" r="2.10769" fill="#3B9D91"/>
<circle cx="78.5222" cy="83.0259" r="2.10769" fill="#3B9D91"/>
<circle cx="98.8325" cy="83.0259" r="2.10769" fill="#3B9D91"/>
<circle cx="119.143" cy="83.0259" r="2.10769" fill="#3B9D91"/>
<circle cx="139.453" cy="83.0259" r="2.10769" fill="#3B9D91"/>
<circle cx="159.764" cy="83.0259" r="2.10769" fill="#3B9D91"/>
<circle cx="180.074" cy="83.0259" r="2.10769" fill="#3B9D91"/>
<circle cx="200.385" cy="83.0259" r="2.10769" fill="#3B9D91"/>
<circle cx="220.696" cy="83.0259" r="2.10769" fill="#3B9D91"/>
<circle cx="239.09" cy="83.0259" r="2.10769" fill="#3B9D91"/>
<circle cx="259.401" cy="83.0259" r="2.10769" fill="#3B9D91"/>
<circle cx="279.711" cy="83.0259" r="2.10769" fill="#3B9D91"/>
<circle cx="300.022" cy="83.0259" r="2.10769" fill="#3B9D91"/>
<circle cx="320.332" cy="83.0259" r="2.10769" fill="#3B9D91"/>
<circle cx="340.643" cy="83.0259" r="2.10769" fill="#3B9D91"/>
<circle cx="360.953" cy="83.0259" r="2.10769" fill="#3B9D91"/>
<circle cx="381.263" cy="83.0259" r="2.10769" fill="#3B9D91"/>
<circle cx="401.574" cy="83.0259" r="2.10769" fill="#3B9D91"/>
<circle cx="421.885" cy="83.0259" r="2.10769" fill="#3B9D91"/>
<circle cx="442.195" cy="83.0259" r="2.10769" fill="#3B9D91"/>
<circle cx="462.505" cy="83.0259" r="2.10769" fill="#3B9D91"/>
<circle cx="482.816" cy="83.0259" r="2.10769" fill="#3B9D91"/>
<circle cx="503.126" cy="83.0259" r="2.10769" fill="#3B9D91"/>
<circle cx="523.437" cy="83.0259" r="2.10769" fill="#3B9D91"/>
<circle cx="37.9011" cy="101.803" r="2.10769" fill="#3B9D91"/>
<circle cx="58.2117" cy="101.803" r="2.10769" fill="#3B9D91"/>
<circle cx="78.5222" cy="101.803" r="2.10769" fill="#3B9D91"/>
<circle cx="98.8325" cy="101.803" r="2.10769" fill="#3B9D91"/>
<circle cx="119.143" cy="101.803" r="2.10769" fill="#3B9D91"/>
<circle cx="139.453" cy="101.803" r="2.10769" fill="#3B9D91"/>
<circle cx="159.764" cy="101.803" r="2.10769" fill="#3B9D91"/>
<circle cx="180.074" cy="101.803" r="2.10769" fill="#3B9D91"/>
<circle cx="200.385" cy="101.803" r="2.10769" fill="#3B9D91"/>
<circle cx="220.696" cy="101.803" r="2.10769" fill="#3B9D91"/>
<circle cx="239.09" cy="101.803" r="2.10769" fill="#3B9D91"/>
<circle cx="259.401" cy="101.803" r="2.10769" fill="#3B9D91"/>
<circle cx="279.711" cy="101.803" r="2.10769" fill="#3B9D91"/>
<circle cx="300.022" cy="101.803" r="2.10769" fill="#3B9D91"/>
<circle cx="320.332" cy="101.803" r="2.10769" fill="#3B9D91"/>
<circle cx="340.643" cy="101.803" r="2.10769" fill="#3B9D91"/>
<circle cx="360.953" cy="101.803" r="2.10769" fill="#3B9D91"/>
<circle cx="381.263" cy="101.803" r="2.10769" fill="#3B9D91"/>
<circle cx="401.574" cy="101.803" r="2.10769" fill="#3B9D91"/>
<circle cx="421.885" cy="101.803" r="2.10769" fill="#3B9D91"/>
<circle cx="442.195" cy="101.803" r="2.10769" fill="#3B9D91"/>
<circle cx="462.505" cy="101.803" r="2.10769" fill="#3B9D91"/>
<circle cx="482.816" cy="101.803" r="2.10769" fill="#3B9D91"/>
<circle cx="503.126" cy="101.803" r="2.10769" fill="#3B9D91"/>
<circle cx="523.437" cy="101.803" r="2.10769" fill="#3B9D91"/>
<circle cx="37.9011" cy="120.581" r="2.10769" fill="#3B9D91"/>
<circle cx="58.2117" cy="120.581" r="2.10769" fill="#3B9D91"/>
<circle cx="78.5222" cy="120.581" r="2.10769" fill="#3B9D91"/>
<circle cx="98.8325" cy="120.581" r="2.10769" fill="#3B9D91"/>
<circle cx="119.143" cy="120.581" r="2.10769" fill="#3B9D91"/>
<circle cx="139.453" cy="120.581" r="2.10769" fill="#3B9D91"/>
<circle cx="159.764" cy="120.581" r="2.10769" fill="#3B9D91"/>
<circle cx="180.074" cy="120.581" r="2.10769" fill="#3B9D91"/>
<circle cx="200.385" cy="120.581" r="2.10769" fill="#3B9D91"/>
<circle cx="220.696" cy="120.581" r="2.10769" fill="#3B9D91"/>
<circle cx="239.09" cy="120.581" r="2.10769" fill="#3B9D91"/>
<circle cx="259.401" cy="120.581" r="2.10769" fill="#3B9D91"/>
<circle cx="279.711" cy="120.581" r="2.10769" fill="#3B9D91"/>
<circle cx="300.022" cy="120.581" r="2.10769" fill="#3B9D91"/>
<circle cx="320.332" cy="120.581" r="2.10769" fill="#3B9D91"/>
<circle cx="340.643" cy="120.581" r="2.10769" fill="#3B9D91"/>
<circle cx="360.953" cy="120.581" r="2.10769" fill="#3B9D91"/>
<circle cx="381.263" cy="120.581" r="2.10769" fill="#3B9D91"/>
<circle cx="401.574" cy="120.581" r="2.10769" fill="#3B9D91"/>
<circle cx="421.885" cy="120.581" r="2.10769" fill="#3B9D91"/>
<circle cx="442.195" cy="120.581" r="2.10769" fill="#3B9D91"/>
<circle cx="462.505" cy="120.581" r="2.10769" fill="#3B9D91"/>
<circle cx="482.816" cy="120.581" r="2.10769" fill="#3B9D91"/>
<circle cx="503.126" cy="120.581" r="2.10769" fill="#3B9D91"/>
<circle cx="523.437" cy="120.581" r="2.10769" fill="#3B9D91"/>
<circle cx="37.9011" cy="139.359" r="2.10769" fill="#3B9D91"/>
<circle cx="58.2117" cy="139.358" r="2.10769" fill="#3B9D91"/>
<circle cx="78.5222" cy="139.358" r="2.10769" fill="#3B9D91"/>
<circle cx="98.8325" cy="139.358" r="2.10769" fill="#3B9D91"/>
<circle cx="119.143" cy="139.358" r="2.10769" fill="#3B9D91"/>
<circle cx="139.453" cy="139.358" r="2.10769" fill="#3B9D91"/>
<circle cx="159.764" cy="139.358" r="2.10769" fill="#3B9D91"/>
<circle cx="180.074" cy="139.358" r="2.10769" fill="#3B9D91"/>
<circle cx="200.385" cy="139.358" r="2.10769" fill="#3B9D91"/>
<circle cx="220.696" cy="139.358" r="2.10769" fill="#3B9D91"/>
<circle cx="239.09" cy="139.358" r="2.10769" fill="#3B9D91"/>
<circle cx="259.401" cy="139.358" r="2.10769" fill="#3B9D91"/>
<circle cx="279.711" cy="139.358" r="2.10769" fill="#3B9D91"/>
<circle cx="300.022" cy="139.358" r="2.10769" fill="#3B9D91"/>
<circle cx="320.332" cy="139.358" r="2.10769" fill="#3B9D91"/>
<circle cx="340.643" cy="139.358" r="2.10769" fill="#3B9D91"/>
<circle cx="360.953" cy="139.358" r="2.10769" fill="#3B9D91"/>
<circle cx="381.263" cy="139.358" r="2.10769" fill="#3B9D91"/>
<circle cx="401.574" cy="139.358" r="2.10769" fill="#3B9D91"/>
<circle cx="421.885" cy="139.358" r="2.10769" fill="#3B9D91"/>
<circle cx="442.195" cy="139.358" r="2.10769" fill="#3B9D91"/>
<circle cx="462.505" cy="139.358" r="2.10769" fill="#3B9D91"/>
<circle cx="482.816" cy="139.358" r="2.10769" fill="#3B9D91"/>
<circle cx="503.126" cy="139.358" r="2.10769" fill="#3B9D91"/>
<circle cx="523.437" cy="139.358" r="2.10769" fill="#3B9D91"/>
<circle cx="37.9011" cy="158.136" r="2.10769" fill="#3B9D91"/>
<circle cx="58.2117" cy="158.136" r="2.10769" fill="#3B9D91"/>
<circle cx="78.5222" cy="158.136" r="2.10769" fill="#3B9D91"/>
<circle cx="98.8325" cy="158.136" r="2.10769" fill="#3B9D91"/>
<circle cx="119.143" cy="158.136" r="2.10769" fill="#3B9D91"/>
<circle cx="139.453" cy="158.136" r="2.10769" fill="#3B9D91"/>
<circle cx="159.764" cy="158.136" r="2.10769" fill="#3B9D91"/>
<circle cx="180.074" cy="158.136" r="2.10769" fill="#3B9D91"/>
<circle cx="200.385" cy="158.136" r="2.10769" fill="#3B9D91"/>
<circle cx="220.696" cy="158.136" r="2.10769" fill="#3B9D91"/>
<circle cx="239.09" cy="158.136" r="2.10769" fill="#3B9D91"/>
<circle cx="259.401" cy="158.136" r="2.10769" fill="#3B9D91"/>
<circle cx="279.711" cy="158.136" r="2.10769" fill="#3B9D91"/>
<circle cx="300.022" cy="158.136" r="2.10769" fill="#3B9D91"/>
<circle cx="320.332" cy="158.136" r="2.10769" fill="#3B9D91"/>
<circle cx="340.643" cy="158.136" r="2.10769" fill="#3B9D91"/>
<circle cx="360.953" cy="158.136" r="2.10769" fill="#3B9D91"/>
<circle cx="381.263" cy="158.136" r="2.10769" fill="#3B9D91"/>
<circle cx="401.574" cy="158.136" r="2.10769" fill="#3B9D91"/>
<circle cx="421.885" cy="158.136" r="2.10769" fill="#3B9D91"/>
<circle cx="442.195" cy="158.136" r="2.10769" fill="#3B9D91"/>
<circle cx="462.505" cy="158.136" r="2.10769" fill="#3B9D91"/>
<circle cx="482.816" cy="158.136" r="2.10769" fill="#3B9D91"/>
<circle cx="503.126" cy="158.136" r="2.10769" fill="#3B9D91"/>
<circle cx="523.437" cy="158.136" r="2.10769" fill="#3B9D91"/>
<circle cx="37.9014" cy="502.648" r="2.10769" fill="#3B9D91"/>
<circle cx="58.2117" cy="502.648" r="2.10769" fill="#3B9D91"/>
<circle cx="78.5225" cy="502.648" r="2.10769" fill="#3B9D91"/>
<circle cx="98.8328" cy="502.648" r="2.10769" fill="#3B9D91"/>
<circle cx="119.143" cy="502.648" r="2.10769" fill="#3B9D91"/>
<circle cx="139.454" cy="502.648" r="2.10769" fill="#3B9D91"/>
<circle cx="159.764" cy="502.648" r="2.10769" fill="#3B9D91"/>
<circle cx="180.075" cy="502.648" r="2.10769" fill="#3B9D91"/>
<circle cx="200.385" cy="502.648" r="2.10769" fill="#3B9D91"/>
<circle cx="220.696" cy="502.648" r="2.10769" fill="#3B9D91"/>
<circle cx="239.09" cy="502.648" r="2.10769" fill="#3B9D91"/>
<circle cx="259.401" cy="502.648" r="2.10769" fill="#3B9D91"/>
<circle cx="279.711" cy="502.648" r="2.10769" fill="#3B9D91"/>
<circle cx="300.022" cy="502.648" r="2.10769" fill="#3B9D91"/>
<circle cx="320.332" cy="502.648" r="2.10769" fill="#3B9D91"/>
<circle cx="340.643" cy="502.648" r="2.10769" fill="#3B9D91"/>
<circle cx="360.953" cy="502.648" r="2.10769" fill="#3B9D91"/>
<circle cx="381.263" cy="502.648" r="2.10769" fill="#3B9D91"/>
<circle cx="401.574" cy="502.648" r="2.10769" fill="#3B9D91"/>
<circle cx="421.885" cy="502.648" r="2.10769" fill="#3B9D91"/>
<circle cx="442.195" cy="502.648" r="2.10769" fill="#3B9D91"/>
<circle cx="462.505" cy="502.648" r="2.10769" fill="#3B9D91"/>
<circle cx="482.816" cy="502.648" r="2.10769" fill="#3B9D91"/>
<circle cx="503.126" cy="502.648" r="2.10769" fill="#3B9D91"/>
<circle cx="523.437" cy="502.648" r="2.10769" fill="#3B9D91"/>
<circle cx="37.9011" cy="520.276" r="2.10769" fill="#3B9D91"/>
<circle cx="58.2117" cy="520.276" r="2.10769" fill="#3B9D91"/>
<circle cx="78.5222" cy="520.276" r="2.10769" fill="#3B9D91"/>
<circle cx="98.8325" cy="520.276" r="2.10769" fill="#3B9D91"/>
<circle cx="119.143" cy="520.276" r="2.10769" fill="#3B9D91"/>
<circle cx="139.453" cy="520.276" r="2.10769" fill="#3B9D91"/>
<circle cx="159.764" cy="520.276" r="2.10769" fill="#3B9D91"/>
<circle cx="180.074" cy="520.276" r="2.10769" fill="#3B9D91"/>
<circle cx="200.385" cy="520.276" r="2.10769" fill="#3B9D91"/>
<circle cx="220.696" cy="520.276" r="2.10769" fill="#3B9D91"/>
<circle cx="239.09" cy="520.276" r="2.10769" fill="#3B9D91"/>
<circle cx="259.401" cy="520.276" r="2.10769" fill="#3B9D91"/>
<circle cx="279.711" cy="520.276" r="2.10769" fill="#3B9D91"/>
<circle cx="300.022" cy="520.276" r="2.10769" fill="#3B9D91"/>
<circle cx="320.332" cy="520.276" r="2.10769" fill="#3B9D91"/>
<circle cx="340.643" cy="520.276" r="2.10769" fill="#3B9D91"/>
<circle cx="360.953" cy="520.276" r="2.10769" fill="#3B9D91"/>
<circle cx="381.263" cy="520.276" r="2.10769" fill="#3B9D91"/>
<circle cx="401.574" cy="520.276" r="2.10769" fill="#3B9D91"/>
<circle cx="421.885" cy="520.276" r="2.10769" fill="#3B9D91"/>
<circle cx="442.195" cy="520.276" r="2.10769" fill="#3B9D91"/>
<circle cx="462.505" cy="520.276" r="2.10769" fill="#3B9D91"/>
<circle cx="482.816" cy="520.276" r="2.10769" fill="#3B9D91"/>
<circle cx="503.126" cy="520.276" r="2.10769" fill="#3B9D91"/>
<circle cx="523.437" cy="520.276" r="2.10769" fill="#3B9D91"/>
<circle cx="37.9011" cy="537.904" r="2.10769" fill="#3B9D91"/>
<circle cx="58.2115" cy="537.904" r="2.10769" fill="#3B9D91"/>
<circle cx="78.5222" cy="537.904" r="2.10769" fill="#3B9D91"/>
<circle cx="98.8325" cy="537.904" r="2.10769" fill="#3B9D91"/>
<circle cx="119.143" cy="537.904" r="2.10769" fill="#3B9D91"/>
<circle cx="139.453" cy="537.904" r="2.10769" fill="#3B9D91"/>
<circle cx="159.764" cy="537.904" r="2.10769" fill="#3B9D91"/>
<circle cx="180.074" cy="537.904" r="2.10769" fill="#3B9D91"/>
<circle cx="200.385" cy="537.904" r="2.10769" fill="#3B9D91"/>
<circle cx="220.696" cy="537.904" r="2.10769" fill="#3B9D91"/>
<circle cx="239.09" cy="537.904" r="2.10769" fill="#3B9D91"/>
<circle cx="259.401" cy="537.904" r="2.10769" fill="#3B9D91"/>
<circle cx="279.711" cy="537.904" r="2.10769" fill="#3B9D91"/>
<circle cx="300.022" cy="537.904" r="2.10769" fill="#3B9D91"/>
<circle cx="320.332" cy="537.904" r="2.10769" fill="#3B9D91"/>
<circle cx="340.643" cy="537.904" r="2.10769" fill="#3B9D91"/>
<circle cx="360.953" cy="537.904" r="2.10769" fill="#3B9D91"/>
<circle cx="381.263" cy="537.904" r="2.10769" fill="#3B9D91"/>
<circle cx="401.574" cy="537.904" r="2.10769" fill="#3B9D91"/>
<circle cx="421.884" cy="537.904" r="2.10769" fill="#3B9D91"/>
<circle cx="442.195" cy="537.904" r="2.10769" fill="#3B9D91"/>
<circle cx="462.505" cy="537.904" r="2.10769" fill="#3B9D91"/>
<circle cx="482.816" cy="537.904" r="2.10769" fill="#3B9D91"/>
<circle cx="503.126" cy="537.904" r="2.10769" fill="#3B9D91"/>
<circle cx="523.437" cy="537.904" r="2.10769" fill="#3B9D91"/>
<circle cx="37.9011" cy="555.532" r="2.10769" fill="#3B9D91"/>
<circle cx="58.2117" cy="555.532" r="2.10769" fill="#3B9D91"/>
<circle cx="78.5222" cy="555.532" r="2.10769" fill="#3B9D91"/>
<circle cx="98.8325" cy="555.532" r="2.10769" fill="#3B9D91"/>
<circle cx="119.143" cy="555.532" r="2.10769" fill="#3B9D91"/>
<circle cx="139.453" cy="555.532" r="2.10769" fill="#3B9D91"/>
<circle cx="159.764" cy="555.532" r="2.10769" fill="#3B9D91"/>
<circle cx="180.074" cy="555.532" r="2.10769" fill="#3B9D91"/>
<circle cx="200.385" cy="555.532" r="2.10769" fill="#3B9D91"/>
<circle cx="220.696" cy="555.532" r="2.10769" fill="#3B9D91"/>
<circle cx="239.09" cy="555.532" r="2.10769" fill="#3B9D91"/>
<circle cx="259.401" cy="555.532" r="2.10769" fill="#3B9D91"/>
<circle cx="279.711" cy="555.532" r="2.10769" fill="#3B9D91"/>
<circle cx="300.022" cy="555.532" r="2.10769" fill="#3B9D91"/>
<circle cx="320.332" cy="555.532" r="2.10769" fill="#3B9D91"/>
<circle cx="340.643" cy="555.532" r="2.10769" fill="#3B9D91"/>
<circle cx="360.953" cy="555.532" r="2.10769" fill="#3B9D91"/>
<circle cx="381.263" cy="555.532" r="2.10769" fill="#3B9D91"/>
<circle cx="401.574" cy="555.532" r="2.10769" fill="#3B9D91"/>
<circle cx="421.885" cy="555.532" r="2.10769" fill="#3B9D91"/>
<circle cx="442.195" cy="555.532" r="2.10769" fill="#3B9D91"/>
<circle cx="462.505" cy="555.532" r="2.10769" fill="#3B9D91"/>
<circle cx="482.816" cy="555.532" r="2.10769" fill="#3B9D91"/>
<circle cx="503.126" cy="555.532" r="2.10769" fill="#3B9D91"/>
<circle cx="523.437" cy="555.532" r="2.10769" fill="#3B9D91"/>
<circle cx="37.9011" cy="573.16" r="2.10769" fill="#3B9D91"/>
<circle cx="58.2117" cy="573.16" r="2.10769" fill="#3B9D91"/>
<circle cx="78.5222" cy="573.16" r="2.10769" fill="#3B9D91"/>
<circle cx="98.8325" cy="573.16" r="2.10769" fill="#3B9D91"/>
<circle cx="119.143" cy="573.16" r="2.10769" fill="#3B9D91"/>
<circle cx="139.453" cy="573.16" r="2.10769" fill="#3B9D91"/>
<circle cx="159.764" cy="573.16" r="2.10769" fill="#3B9D91"/>
<circle cx="180.074" cy="573.16" r="2.10769" fill="#3B9D91"/>
<circle cx="200.385" cy="573.16" r="2.10769" fill="#3B9D91"/>
<circle cx="220.696" cy="573.16" r="2.10769" fill="#3B9D91"/>
<circle cx="239.09" cy="573.16" r="2.10769" fill="#3B9D91"/>
<circle cx="259.401" cy="573.16" r="2.10769" fill="#3B9D91"/>
<circle cx="279.711" cy="573.16" r="2.10769" fill="#3B9D91"/>
<circle cx="300.022" cy="573.16" r="2.10769" fill="#3B9D91"/>
<circle cx="320.332" cy="573.16" r="2.10769" fill="#3B9D91"/>
<circle cx="340.643" cy="573.16" r="2.10769" fill="#3B9D91"/>
<circle cx="360.953" cy="573.16" r="2.10769" fill="#3B9D91"/>
<circle cx="381.263" cy="573.16" r="2.10769" fill="#3B9D91"/>
<circle cx="401.574" cy="573.16" r="2.10769" fill="#3B9D91"/>
<circle cx="421.885" cy="573.16" r="2.10769" fill="#3B9D91"/>
<circle cx="442.195" cy="573.16" r="2.10769" fill="#3B9D91"/>
<circle cx="462.505" cy="573.16" r="2.10769" fill="#3B9D91"/>
<circle cx="482.816" cy="573.16" r="2.10769" fill="#3B9D91"/>
<circle cx="503.126" cy="573.16" r="2.10769" fill="#3B9D91"/>
<circle cx="523.437" cy="573.16" r="2.10769" fill="#3B9D91"/>
<circle cx="37.9011" cy="590.788" r="2.10769" fill="#3B9D91"/>
<circle cx="58.2117" cy="590.788" r="2.10769" fill="#3B9D91"/>
<circle cx="78.5222" cy="590.788" r="2.10769" fill="#3B9D91"/>
<circle cx="98.8325" cy="590.788" r="2.10769" fill="#3B9D91"/>
<circle cx="119.143" cy="590.788" r="2.10769" fill="#3B9D91"/>
<circle cx="139.453" cy="590.788" r="2.10769" fill="#3B9D91"/>
<circle cx="159.764" cy="590.788" r="2.10769" fill="#3B9D91"/>
<circle cx="180.074" cy="590.788" r="2.10769" fill="#3B9D91"/>
<circle cx="200.385" cy="590.788" r="2.10769" fill="#3B9D91"/>
<circle cx="220.696" cy="590.788" r="2.10769" fill="#3B9D91"/>
<circle cx="239.09" cy="590.788" r="2.10769" fill="#3B9D91"/>
<circle cx="259.401" cy="590.788" r="2.10769" fill="#3B9D91"/>
<circle cx="279.711" cy="590.788" r="2.10769" fill="#3B9D91"/>
<circle cx="300.022" cy="590.788" r="2.10769" fill="#3B9D91"/>
<circle cx="320.332" cy="590.788" r="2.10769" fill="#3B9D91"/>
<circle cx="340.643" cy="590.788" r="2.10769" fill="#3B9D91"/>
<circle cx="360.953" cy="590.788" r="2.10769" fill="#3B9D91"/>
<circle cx="381.263" cy="590.788" r="2.10769" fill="#3B9D91"/>
<circle cx="401.574" cy="590.788" r="2.10769" fill="#3B9D91"/>
<circle cx="421.885" cy="590.788" r="2.10769" fill="#3B9D91"/>
<circle cx="442.195" cy="590.788" r="2.10769" fill="#3B9D91"/>
<circle cx="462.505" cy="590.788" r="2.10769" fill="#3B9D91"/>
<circle cx="482.816" cy="590.788" r="2.10769" fill="#3B9D91"/>
<circle cx="503.126" cy="590.788" r="2.10769" fill="#3B9D91"/>
<circle cx="523.437" cy="590.788" r="2.10769" fill="#3B9D91"/>
<path d="M51.1357 281.824V287.131H58.3975V288.828H51.1357V294.639H49.084V280.148H58.6553V281.824H51.1357ZM71.4385 284.778C70.6364 284.642 69.8773 284.574 69.1611 284.574C68.0081 284.574 67.0771 285.007 66.3682 285.874C65.6592 286.74 65.3047 287.843 65.3047 289.182V294.639H63.3711V287.109C63.3711 286.565 63.321 285.924 63.2207 285.186C63.1276 284.449 62.9915 283.725 62.8125 283.016H64.6494C64.9359 284.005 65.1077 284.9 65.165 285.702H65.2188C65.5768 284.9 65.9277 284.313 66.2715 283.94C66.6152 283.561 67.0234 283.278 67.4961 283.092C67.9688 282.898 68.5452 282.802 69.2256 282.802C69.9704 282.802 70.708 282.862 71.4385 282.984V284.778ZM85.21 288.817C85.21 290.772 84.7588 292.269 83.8564 293.307C82.9613 294.339 81.665 294.854 79.9678 294.854C78.3063 294.854 77.0316 294.331 76.1436 293.286C75.2627 292.24 74.8223 290.751 74.8223 288.817C74.8223 286.819 75.2734 285.319 76.1758 284.316C77.0853 283.306 78.3708 282.802 80.0322 282.802C81.7796 282.802 83.0794 283.299 83.9316 284.295C84.7839 285.29 85.21 286.798 85.21 288.817ZM83.1797 288.817C83.1797 287.277 82.9326 286.128 82.4385 285.369C81.9515 284.61 81.1602 284.23 80.0645 284.23C78.9544 284.23 78.1416 284.617 77.626 285.39C77.1104 286.164 76.8525 287.306 76.8525 288.817C76.8525 290.321 77.1104 291.467 77.626 292.255C78.1416 293.035 78.915 293.426 79.9463 293.426C81.085 293.426 81.9085 293.042 82.417 292.276C82.9255 291.51 83.1797 290.357 83.1797 288.817ZM92.3428 294.639V287.27C92.3428 286.167 92.2533 285.398 92.0742 284.961C91.9023 284.517 91.5837 284.295 91.1182 284.295C90.6598 284.295 90.2874 284.638 90.001 285.326C89.7217 286.013 89.582 286.944 89.582 288.119V294.639H87.7666V285.498C87.7666 284.144 87.7451 283.317 87.7021 283.016H89.3027L89.3672 284.381V284.896H89.3887C89.6322 284.166 89.9401 283.636 90.3125 283.306C90.6849 282.97 91.1504 282.802 91.709 282.802C92.3392 282.802 92.8083 282.973 93.1162 283.317C93.4313 283.661 93.6569 284.191 93.793 284.907H93.8145C94.1009 284.148 94.4411 283.607 94.835 283.285C95.236 282.963 95.7409 282.802 96.3496 282.802C97.1947 282.802 97.7998 283.109 98.165 283.725C98.5303 284.341 98.7129 285.398 98.7129 286.894V294.639H96.9082V287.27C96.9082 286.167 96.8187 285.398 96.6396 284.961C96.4678 284.517 96.1491 284.295 95.6836 284.295C95.2109 284.295 94.835 284.595 94.5557 285.197C94.2835 285.799 94.1475 286.701 94.1475 287.904V294.639H92.3428ZM114.461 288.817C114.461 286.884 114.923 285.398 115.847 284.359C116.771 283.321 118.106 282.802 119.854 282.802C121.157 282.802 122.231 283.117 123.076 283.747C123.921 284.37 124.444 285.211 124.645 286.271L122.582 286.422C122.467 285.77 122.181 285.258 121.723 284.885C121.264 284.506 120.613 284.316 119.768 284.316C118.636 284.316 117.805 284.667 117.275 285.369C116.753 286.071 116.491 287.206 116.491 288.774C116.491 290.364 116.753 291.528 117.275 292.265C117.805 292.996 118.632 293.361 119.757 293.361C120.53 293.361 121.171 293.171 121.68 292.792C122.188 292.412 122.503 291.832 122.625 291.052L124.666 291.18C124.573 291.868 124.312 292.495 123.882 293.06C123.459 293.619 122.897 294.059 122.195 294.382C121.493 294.697 120.709 294.854 119.843 294.854C118.088 294.854 116.753 294.339 115.836 293.307C114.919 292.276 114.461 290.779 114.461 288.817ZM138.062 288.817C138.062 290.772 137.61 292.269 136.708 293.307C135.813 294.339 134.517 294.854 132.819 294.854C131.158 294.854 129.883 294.331 128.995 293.286C128.114 292.24 127.674 290.751 127.674 288.817C127.674 286.819 128.125 285.319 129.027 284.316C129.937 283.306 131.222 282.802 132.884 282.802C134.631 282.802 135.931 283.299 136.783 284.295C137.635 285.29 138.062 286.798 138.062 288.817ZM136.031 288.817C136.031 287.277 135.784 286.128 135.29 285.369C134.803 284.61 134.012 284.23 132.916 284.23C131.806 284.23 130.993 284.617 130.478 285.39C129.962 286.164 129.704 287.306 129.704 288.817C129.704 290.321 129.962 291.467 130.478 292.255C130.993 293.035 131.767 293.426 132.798 293.426C133.937 293.426 134.76 293.042 135.269 292.276C135.777 291.51 136.031 290.357 136.031 288.817ZM148.814 294.639V287.174C148.814 286.2 148.625 285.476 148.245 285.004C147.873 284.531 147.275 284.295 146.451 284.295C145.563 284.295 144.833 284.621 144.26 285.272C143.694 285.917 143.411 286.794 143.411 287.904V294.639H141.478V285.498C141.478 284.144 141.456 283.317 141.413 283.016H143.239C143.246 283.052 143.254 283.149 143.261 283.306C143.268 283.464 143.275 283.647 143.282 283.854C143.297 284.055 143.311 284.438 143.325 285.004H143.357C144.109 283.536 145.348 282.802 147.074 282.802C148.313 282.802 149.237 283.138 149.846 283.811C150.454 284.477 150.759 285.505 150.759 286.894V294.639H148.814ZM154.1 288.817C154.1 286.884 154.562 285.398 155.485 284.359C156.409 283.321 157.745 282.802 159.492 282.802C160.796 282.802 161.87 283.117 162.715 283.747C163.56 284.37 164.083 285.211 164.283 286.271L162.221 286.422C162.106 285.77 161.82 285.258 161.361 284.885C160.903 284.506 160.251 284.316 159.406 284.316C158.275 284.316 157.444 284.667 156.914 285.369C156.391 286.071 156.13 287.206 156.13 288.774C156.13 290.364 156.391 291.528 156.914 292.265C157.444 292.996 158.271 293.361 159.396 293.361C160.169 293.361 160.81 293.171 161.318 292.792C161.827 292.412 162.142 291.832 162.264 291.052L164.305 291.18C164.212 291.868 163.95 292.495 163.521 293.06C163.098 293.619 162.536 294.059 161.834 294.382C161.132 294.697 160.348 294.854 159.481 294.854C157.727 294.854 156.391 294.339 155.475 293.307C154.558 292.276 154.1 290.779 154.1 288.817ZM169.375 289.236C169.375 290.539 169.661 291.56 170.234 292.298C170.814 293.035 171.606 293.404 172.608 293.404C173.346 293.404 173.991 293.247 174.542 292.931C175.101 292.609 175.473 292.172 175.659 291.621L177.356 292.104C177.041 292.992 176.461 293.673 175.616 294.145C174.778 294.618 173.776 294.854 172.608 294.854C170.918 294.854 169.618 294.328 168.709 293.275C167.799 292.222 167.345 290.715 167.345 288.753C167.345 286.841 167.789 285.372 168.677 284.348C169.572 283.317 170.861 282.802 172.544 282.802C174.227 282.802 175.502 283.314 176.368 284.338C177.235 285.362 177.668 286.909 177.668 288.978V289.236H169.375ZM172.565 284.23C171.606 284.23 170.847 284.545 170.288 285.176C169.729 285.799 169.432 286.658 169.396 287.754H175.67C175.469 285.405 174.435 284.23 172.565 284.23ZM190.838 288.774C190.838 292.828 189.434 294.854 186.627 294.854C184.865 294.854 183.68 294.195 183.071 292.878H183.018C183.046 292.935 183.061 293.529 183.061 294.661V299.205H181.116V285.423C181.116 284.205 181.095 283.403 181.052 283.016H182.932C182.939 283.045 182.95 283.152 182.964 283.339C182.978 283.518 182.993 283.786 183.007 284.144C183.028 284.495 183.039 284.757 183.039 284.928H183.082C183.44 284.177 183.895 283.632 184.446 283.296C185.005 282.952 185.732 282.78 186.627 282.78C188.045 282.78 189.101 283.271 189.796 284.252C190.491 285.226 190.838 286.733 190.838 288.774ZM188.84 288.774C188.84 287.156 188.621 286.003 188.185 285.315C187.748 284.621 187.06 284.273 186.122 284.273C185.041 284.273 184.26 284.667 183.78 285.455C183.3 286.235 183.061 287.421 183.061 289.01C183.061 290.536 183.3 291.653 183.78 292.362C184.26 293.071 185.034 293.426 186.101 293.426C187.053 293.426 187.748 293.064 188.185 292.341C188.621 291.617 188.84 290.428 188.84 288.774ZM194.383 284.542V283.016H196.209L196.832 279.987H198.121V283.016H202.762V284.542H198.121V291.546C198.121 292.111 198.271 292.53 198.572 292.802C198.88 293.075 199.382 293.211 200.076 293.211C201.036 293.211 202.099 293.089 203.267 292.845V294.317C202.056 294.647 200.857 294.811 199.668 294.811C198.508 294.811 197.638 294.568 197.058 294.081C196.478 293.587 196.188 292.81 196.188 291.75V284.542H194.383ZM220.809 284.542V283.016H222.635L223.258 279.987H224.547V283.016H229.188V284.542H224.547V291.546C224.547 292.111 224.697 292.53 224.998 292.802C225.306 293.075 225.807 293.211 226.502 293.211C227.462 293.211 228.525 293.089 229.692 292.845V294.317C228.482 294.647 227.283 294.811 226.094 294.811C224.934 294.811 224.063 294.568 223.483 294.081C222.903 293.587 222.613 292.81 222.613 291.75V284.542H220.809ZM243.765 288.817C243.765 290.772 243.313 292.269 242.411 293.307C241.516 294.339 240.22 294.854 238.522 294.854C236.861 294.854 235.586 294.331 234.698 293.286C233.817 292.24 233.377 290.751 233.377 288.817C233.377 286.819 233.828 285.319 234.73 284.316C235.64 283.306 236.925 282.802 238.587 282.802C240.334 282.802 241.634 283.299 242.486 284.295C243.339 285.29 243.765 286.798 243.765 288.817ZM241.734 288.817C241.734 287.277 241.487 286.128 240.993 285.369C240.506 284.61 239.715 284.23 238.619 284.23C237.509 284.23 236.696 284.617 236.181 285.39C235.665 286.164 235.407 287.306 235.407 288.817C235.407 290.321 235.665 291.467 236.181 292.255C236.696 293.035 237.47 293.426 238.501 293.426C239.64 293.426 240.463 293.042 240.972 292.276C241.48 291.51 241.734 290.357 241.734 288.817ZM259.803 288.817C259.803 286.884 260.265 285.398 261.188 284.359C262.112 283.321 263.448 282.802 265.195 282.802C266.499 282.802 267.573 283.117 268.418 283.747C269.263 284.37 269.786 285.211 269.986 286.271L267.924 286.422C267.809 285.77 267.523 285.258 267.064 284.885C266.606 284.506 265.954 284.316 265.109 284.316C263.978 284.316 263.147 284.667 262.617 285.369C262.094 286.071 261.833 287.206 261.833 288.774C261.833 290.364 262.094 291.528 262.617 292.265C263.147 292.996 263.974 293.361 265.099 293.361C265.872 293.361 266.513 293.171 267.021 292.792C267.53 292.412 267.845 291.832 267.967 291.052L270.008 291.18C269.915 291.868 269.653 292.495 269.224 293.06C268.801 293.619 268.239 294.059 267.537 294.382C266.835 294.697 266.051 294.854 265.185 294.854C263.43 294.854 262.094 294.339 261.178 293.307C260.261 292.276 259.803 290.779 259.803 288.817ZM283.403 288.817C283.403 290.772 282.952 292.269 282.05 293.307C281.155 294.339 279.858 294.854 278.161 294.854C276.5 294.854 275.225 294.331 274.337 293.286C273.456 292.24 273.016 290.751 273.016 288.817C273.016 286.819 273.467 285.319 274.369 284.316C275.279 283.306 276.564 282.802 278.226 282.802C279.973 282.802 281.273 283.299 282.125 284.295C282.977 285.29 283.403 286.798 283.403 288.817ZM281.373 288.817C281.373 287.277 281.126 286.128 280.632 285.369C280.145 284.61 279.354 284.23 278.258 284.23C277.148 284.23 276.335 284.617 275.819 285.39C275.304 286.164 275.046 287.306 275.046 288.817C275.046 290.321 275.304 291.467 275.819 292.255C276.335 293.035 277.108 293.426 278.14 293.426C279.278 293.426 280.102 293.042 280.61 292.276C281.119 291.51 281.373 290.357 281.373 288.817ZM294.092 292.77C293.741 293.522 293.275 294.07 292.695 294.414C292.115 294.75 291.392 294.919 290.525 294.919C289.079 294.919 288.015 294.421 287.335 293.426C286.655 292.43 286.314 290.93 286.314 288.925C286.314 284.871 287.718 282.844 290.525 282.844C291.392 282.844 292.115 282.998 292.695 283.306C293.283 283.614 293.752 284.119 294.103 284.821H294.124L294.103 283.199V278.698H296.036V292.244C296.036 293.454 296.058 294.253 296.101 294.639H294.253C294.224 294.532 294.199 294.271 294.178 293.855C294.156 293.44 294.146 293.078 294.146 292.77H294.092ZM288.312 288.86C288.312 290.45 288.524 291.61 288.946 292.341C289.376 293.064 290.071 293.426 291.03 293.426C292.076 293.426 292.849 293.05 293.351 292.298C293.852 291.538 294.103 290.335 294.103 288.688C294.103 287.149 293.859 286.028 293.372 285.326C292.892 284.624 292.119 284.273 291.052 284.273C290.085 284.273 289.387 284.642 288.957 285.38C288.527 286.117 288.312 287.277 288.312 288.86ZM301.504 289.236C301.504 290.539 301.79 291.56 302.363 292.298C302.943 293.035 303.735 293.404 304.737 293.404C305.475 293.404 306.119 293.247 306.671 292.931C307.229 292.609 307.602 292.172 307.788 291.621L309.485 292.104C309.17 292.992 308.59 293.673 307.745 294.145C306.907 294.618 305.905 294.854 304.737 294.854C303.047 294.854 301.747 294.328 300.838 293.275C299.928 292.222 299.474 290.715 299.474 288.753C299.474 286.841 299.918 285.372 300.806 284.348C301.701 283.317 302.99 282.802 304.673 282.802C306.356 282.802 307.631 283.314 308.497 284.338C309.364 285.362 309.797 286.909 309.797 288.978V289.236H301.504ZM304.694 284.23C303.735 284.23 302.976 284.545 302.417 285.176C301.858 285.799 301.561 286.658 301.525 287.754H307.799C307.598 285.405 306.563 284.23 304.694 284.23ZM314.04 298.539L315.855 291.427H318.702L315.361 298.539H314.04ZM348.619 294.639H346.428L344.892 289.58L344.279 287.41L343.86 288.903L342.056 294.639H339.875L337.909 283.016H339.821L340.82 289.537C341.057 291.427 341.175 292.595 341.175 293.039C341.454 291.893 341.662 291.127 341.798 290.74L343.248 286.185H345.321L346.718 290.751C346.947 291.503 347.144 292.265 347.309 293.039C347.309 292.824 347.323 292.555 347.352 292.233C347.38 291.911 347.416 291.581 347.459 291.245C347.502 290.901 347.545 290.575 347.588 290.267C347.631 289.959 347.663 289.716 347.685 289.537L348.77 283.016H350.66L348.619 294.639ZM354.355 289.236C354.355 290.539 354.642 291.56 355.215 292.298C355.795 293.035 356.586 293.404 357.589 293.404C358.326 293.404 358.971 293.247 359.522 292.931C360.081 292.609 360.453 292.172 360.64 291.621L362.337 292.104C362.022 292.992 361.442 293.673 360.597 294.145C359.759 294.618 358.756 294.854 357.589 294.854C355.899 294.854 354.599 294.328 353.689 293.275C352.78 292.222 352.325 290.715 352.325 288.753C352.325 286.841 352.769 285.372 353.657 284.348C354.552 283.317 355.841 282.802 357.524 282.802C359.207 282.802 360.482 283.314 361.349 284.338C362.215 285.362 362.648 286.909 362.648 288.978V289.236H354.355ZM357.546 284.23C356.586 284.23 355.827 284.545 355.269 285.176C354.71 285.799 354.413 286.658 354.377 287.754H360.65C360.45 285.405 359.415 284.23 357.546 284.23ZM379.363 284.542V283.016H381.189L381.812 279.987H383.102V283.016H387.742V284.542H383.102V291.546C383.102 292.111 383.252 292.53 383.553 292.802C383.861 293.075 384.362 293.211 385.057 293.211C386.016 293.211 387.08 293.089 388.247 292.845V294.317C387.037 294.647 385.837 294.811 384.648 294.811C383.488 294.811 382.618 294.568 382.038 294.081C381.458 293.587 381.168 292.81 381.168 291.75V284.542H379.363ZM394.456 283.016V290.385C394.456 291.503 394.632 292.28 394.982 292.717C395.333 293.146 395.96 293.361 396.862 293.361C397.786 293.361 398.517 293.046 399.054 292.416C399.591 291.786 399.859 290.898 399.859 289.752V283.016H401.804V292.158C401.804 293.511 401.825 294.339 401.868 294.639H400.042C400.035 294.604 400.028 294.507 400.021 294.349C400.013 294.192 400.003 294.013 399.988 293.812C399.981 293.605 399.97 293.218 399.956 292.652H399.924C399.48 293.454 398.964 294.024 398.377 294.36C397.797 294.69 397.074 294.854 396.207 294.854C394.932 294.854 393.998 294.539 393.403 293.909C392.816 293.272 392.522 292.222 392.522 290.761V283.016H394.456ZM414.974 284.778C414.172 284.642 413.412 284.574 412.696 284.574C411.543 284.574 410.612 285.007 409.903 285.874C409.194 286.74 408.84 287.843 408.84 289.182V294.639H406.906V287.109C406.906 286.565 406.856 285.924 406.756 285.186C406.663 284.449 406.527 283.725 406.348 283.016H408.185C408.471 284.005 408.643 284.9 408.7 285.702H408.754C409.112 284.9 409.463 284.313 409.807 283.94C410.15 283.561 410.559 283.278 411.031 283.092C411.504 282.898 412.08 282.802 412.761 282.802C413.506 282.802 414.243 282.862 414.974 282.984V284.778ZM426.285 294.639V287.174C426.285 286.2 426.095 285.476 425.716 285.004C425.343 284.531 424.745 284.295 423.922 284.295C423.034 284.295 422.303 284.621 421.73 285.272C421.165 285.917 420.882 286.794 420.882 287.904V294.639H418.948V285.498C418.948 284.144 418.927 283.317 418.884 283.016H420.71C420.717 283.052 420.724 283.149 420.731 283.306C420.739 283.464 420.746 283.647 420.753 283.854C420.767 284.055 420.782 284.438 420.796 285.004H420.828C421.58 283.536 422.819 282.802 424.545 282.802C425.784 282.802 426.708 283.138 427.316 283.811C427.925 284.477 428.229 285.505 428.229 286.894V294.639H426.285ZM55.0029 318.114H59.085V319.639H48.5361V318.114H53.0693V309.542H49.6426V308.016H55.0029V318.114ZM52.8545 305.76V303.698H55.0029V305.76H52.8545ZM69.4727 317.77C69.1217 318.522 68.6562 319.07 68.0762 319.414C67.4961 319.75 66.7728 319.919 65.9062 319.919C64.4596 319.919 63.3962 319.421 62.7158 318.426C62.0355 317.43 61.6953 315.93 61.6953 313.925C61.6953 309.871 63.099 307.844 65.9062 307.844C66.7728 307.844 67.4961 307.998 68.0762 308.306C68.6634 308.614 69.1325 309.119 69.4834 309.821H69.5049L69.4834 308.199V303.698H71.417V317.244C71.417 318.454 71.4385 319.253 71.4814 319.639H69.6338C69.6051 319.532 69.5801 319.271 69.5586 318.855C69.5371 318.44 69.5264 318.078 69.5264 317.77H69.4727ZM63.6934 313.86C63.6934 315.45 63.9046 316.61 64.3271 317.341C64.7568 318.064 65.4515 318.426 66.4111 318.426C67.4567 318.426 68.2301 318.05 68.7314 317.298C69.2327 316.538 69.4834 315.335 69.4834 313.688C69.4834 312.149 69.2399 311.028 68.7529 310.326C68.2731 309.624 67.4997 309.273 66.4326 309.273C65.4658 309.273 64.7676 309.642 64.3379 310.38C63.9082 311.117 63.6934 312.277 63.6934 313.86ZM76.8848 314.236C76.8848 315.539 77.1712 316.56 77.7441 317.298C78.3242 318.035 79.1156 318.404 80.1182 318.404C80.8558 318.404 81.5003 318.247 82.0518 317.931C82.6104 317.609 82.9827 317.172 83.1689 316.621L84.8662 317.104C84.5511 317.992 83.971 318.673 83.126 319.145C82.2881 319.618 81.2855 319.854 80.1182 319.854C78.4281 319.854 77.1283 319.328 76.2188 318.275C75.3092 317.222 74.8545 315.715 74.8545 313.753C74.8545 311.841 75.2985 310.372 76.1865 309.348C77.0817 308.317 78.3708 307.802 80.0537 307.802C81.7367 307.802 83.0114 308.314 83.8779 309.338C84.7445 310.362 85.1777 311.909 85.1777 313.978V314.236H76.8848ZM80.0752 309.23C79.1156 309.23 78.3564 309.545 77.7979 310.176C77.2393 310.799 76.9421 311.658 76.9062 312.754H83.1797C82.9792 310.405 81.9443 309.23 80.0752 309.23ZM98.4658 318.447C98.652 318.447 98.8633 318.422 99.0996 318.372V319.575C98.6126 319.69 98.1149 319.747 97.6064 319.747C96.8903 319.747 96.3675 319.561 96.0381 319.188C95.7158 318.809 95.5332 318.218 95.4902 317.416H95.4258C94.9603 318.282 94.4089 318.905 93.7715 319.285C93.1413 319.664 92.3607 319.854 91.4297 319.854C90.2982 319.854 89.446 319.546 88.873 318.93C88.3001 318.315 88.0137 317.469 88.0137 316.395C88.0137 313.896 89.6393 312.628 92.8906 312.593L95.4258 312.55V311.916C95.4258 310.978 95.236 310.304 94.8564 309.896C94.4769 309.481 93.8717 309.273 93.041 309.273C92.196 309.273 91.5872 309.424 91.2148 309.724C90.8424 310.025 90.6204 310.491 90.5488 311.121L88.5293 310.938C88.8587 308.847 90.3734 307.802 93.0732 307.802C94.5055 307.802 95.5798 308.138 96.2959 308.811C97.0192 309.477 97.3809 310.444 97.3809 311.712V316.718C97.3809 317.29 97.4561 317.724 97.6064 318.017C97.7568 318.304 98.0433 318.447 98.4658 318.447ZM91.9238 318.383C92.6113 318.383 93.2201 318.218 93.75 317.888C94.2799 317.559 94.6917 317.119 94.9854 316.567C95.279 316.016 95.4258 315.446 95.4258 314.859V313.903L93.3848 313.946C92.5397 313.96 91.8952 314.053 91.4512 314.225C91.0072 314.397 90.6598 314.662 90.4092 315.02C90.1657 315.371 90.0439 315.84 90.0439 316.427C90.0439 317.015 90.2015 317.487 90.5166 317.845C90.8389 318.204 91.3079 318.383 91.9238 318.383ZM111.238 316.32C111.238 317.423 110.819 318.289 109.981 318.92C109.151 319.543 107.998 319.854 106.522 319.854C105.047 319.854 103.923 319.625 103.149 319.167C102.383 318.701 101.882 317.971 101.646 316.975L103.354 316.642C103.49 317.258 103.78 317.709 104.224 317.996C104.675 318.275 105.441 318.415 106.522 318.415C108.456 318.415 109.423 317.802 109.423 316.578C109.423 316.12 109.247 315.751 108.896 315.471C108.546 315.185 108.008 314.952 107.285 314.773C105.395 314.308 104.195 313.942 103.687 313.677C103.178 313.413 102.788 313.083 102.516 312.689C102.243 312.288 102.107 311.79 102.107 311.196C102.107 310.143 102.487 309.32 103.246 308.725C104.005 308.131 105.104 307.834 106.544 307.834C107.804 307.834 108.811 308.074 109.562 308.553C110.314 309.026 110.784 309.717 110.97 310.627L109.229 310.842C109.151 310.326 108.896 309.936 108.467 309.671C108.037 309.406 107.396 309.273 106.544 309.273C104.789 309.273 103.912 309.814 103.912 310.895C103.912 311.325 104.059 311.669 104.353 311.927C104.653 312.184 105.133 312.392 105.792 312.55L107.07 312.883C108.238 313.169 109.076 313.452 109.584 313.731C110.1 314.01 110.504 314.361 110.798 314.784C111.091 315.199 111.238 315.711 111.238 316.32ZM134.28 318.114H138.362V319.639H127.813V318.114H132.347V309.542H128.92V308.016H134.28V318.114ZM132.132 305.76V303.698H134.28V305.76H132.132ZM148.814 319.639V312.174C148.814 311.2 148.625 310.476 148.245 310.004C147.873 309.531 147.275 309.295 146.451 309.295C145.563 309.295 144.833 309.621 144.26 310.272C143.694 310.917 143.411 311.794 143.411 312.904V319.639H141.478V310.498C141.478 309.144 141.456 308.317 141.413 308.016H143.239C143.246 308.052 143.254 308.149 143.261 308.306C143.268 308.464 143.275 308.647 143.282 308.854C143.297 309.055 143.311 309.438 143.325 310.004H143.357C144.109 308.536 145.348 307.802 147.074 307.802C148.313 307.802 149.237 308.138 149.846 308.811C150.454 309.477 150.759 310.505 150.759 311.894V319.639H148.814ZM154.744 309.542V308.016H156.57L157.193 304.987H158.482V308.016H163.123V309.542H158.482V316.546C158.482 317.111 158.633 317.53 158.934 317.802C159.242 318.075 159.743 318.211 160.438 318.211C161.397 318.211 162.461 318.089 163.628 317.845V319.317C162.418 319.647 161.218 319.811 160.029 319.811C158.869 319.811 157.999 319.568 157.419 319.081C156.839 318.587 156.549 317.81 156.549 316.75V309.542H154.744ZM177.7 313.817C177.7 315.772 177.249 317.269 176.347 318.307C175.451 319.339 174.155 319.854 172.458 319.854C170.797 319.854 169.522 319.331 168.634 318.286C167.753 317.24 167.312 315.751 167.312 313.817C167.312 311.819 167.764 310.319 168.666 309.316C169.576 308.306 170.861 307.802 172.522 307.802C174.27 307.802 175.57 308.299 176.422 309.295C177.274 310.29 177.7 311.798 177.7 313.817ZM175.67 313.817C175.67 312.277 175.423 311.128 174.929 310.369C174.442 309.61 173.65 309.23 172.555 309.23C171.445 309.23 170.632 309.617 170.116 310.39C169.601 311.164 169.343 312.306 169.343 313.817C169.343 315.321 169.601 316.467 170.116 317.255C170.632 318.035 171.405 318.426 172.437 318.426C173.575 318.426 174.399 318.042 174.907 317.276C175.416 316.51 175.67 315.357 175.67 313.817ZM200.345 318.114H204.427V319.639H193.878V318.114H198.411V309.542H194.984V308.016H200.345V318.114ZM198.196 305.76V303.698H200.345V305.76H198.196ZM214.879 319.639V312.174C214.879 311.2 214.689 310.476 214.31 310.004C213.937 309.531 213.339 309.295 212.516 309.295C211.628 309.295 210.897 309.621 210.324 310.272C209.758 310.917 209.476 311.794 209.476 312.904V319.639H207.542V310.498C207.542 309.144 207.521 308.317 207.478 308.016H209.304C209.311 308.052 209.318 308.149 209.325 308.306C209.332 308.464 209.34 308.647 209.347 308.854C209.361 309.055 209.375 309.438 209.39 310.004H209.422C210.174 308.536 211.413 307.802 213.139 307.802C214.378 307.802 215.301 308.138 215.91 308.811C216.519 309.477 216.823 310.505 216.823 311.894V319.639H214.879ZM220.809 309.542V308.016H222.635L223.258 304.987H224.547V308.016H229.188V309.542H224.547V316.546C224.547 317.111 224.697 317.53 224.998 317.802C225.306 318.075 225.807 318.211 226.502 318.211C227.462 318.211 228.525 318.089 229.692 317.845V319.317C228.482 319.647 227.283 319.811 226.094 319.811C224.934 319.811 224.063 319.568 223.483 319.081C222.903 318.587 222.613 317.81 222.613 316.75V309.542H220.809ZM235.439 314.236C235.439 315.539 235.726 316.56 236.299 317.298C236.879 318.035 237.67 318.404 238.673 318.404C239.41 318.404 240.055 318.247 240.606 317.931C241.165 317.609 241.537 317.172 241.724 316.621L243.421 317.104C243.106 317.992 242.526 318.673 241.681 319.145C240.843 319.618 239.84 319.854 238.673 319.854C236.983 319.854 235.683 319.328 234.773 318.275C233.864 317.222 233.409 315.715 233.409 313.753C233.409 311.841 233.853 310.372 234.741 309.348C235.636 308.317 236.925 307.802 238.608 307.802C240.291 307.802 241.566 308.314 242.433 309.338C243.299 310.362 243.732 311.909 243.732 313.978V314.236H235.439ZM238.63 309.23C237.67 309.23 236.911 309.545 236.353 310.176C235.794 310.799 235.497 311.658 235.461 312.754H241.734C241.534 310.405 240.499 309.23 238.63 309.23ZM256.419 309.778C255.617 309.642 254.858 309.574 254.142 309.574C252.989 309.574 252.058 310.007 251.349 310.874C250.64 311.74 250.285 312.843 250.285 314.182V319.639H248.352V312.109C248.352 311.565 248.301 310.924 248.201 310.186C248.108 309.449 247.972 308.725 247.793 308.016H249.63C249.916 309.005 250.088 309.9 250.146 310.702H250.199C250.557 309.9 250.908 309.313 251.252 308.94C251.596 308.561 252.004 308.278 252.477 308.092C252.949 307.898 253.526 307.802 254.206 307.802C254.951 307.802 255.688 307.862 256.419 307.984V309.778ZM270.233 318.447C270.42 318.447 270.631 318.422 270.867 318.372V319.575C270.38 319.69 269.882 319.747 269.374 319.747C268.658 319.747 268.135 319.561 267.806 319.188C267.483 318.809 267.301 318.218 267.258 317.416H267.193C266.728 318.282 266.176 318.905 265.539 319.285C264.909 319.664 264.128 319.854 263.197 319.854C262.066 319.854 261.214 319.546 260.641 318.93C260.068 318.315 259.781 317.469 259.781 316.395C259.781 313.896 261.407 312.628 264.658 312.593L267.193 312.55V311.916C267.193 310.978 267.004 310.304 266.624 309.896C266.244 309.481 265.639 309.273 264.809 309.273C263.964 309.273 263.355 309.424 262.982 309.724C262.61 310.025 262.388 310.491 262.316 311.121L260.297 310.938C260.626 308.847 262.141 307.802 264.841 307.802C266.273 307.802 267.347 308.138 268.063 308.811C268.787 309.477 269.148 310.444 269.148 311.712V316.718C269.148 317.29 269.224 317.724 269.374 318.017C269.524 318.304 269.811 318.447 270.233 318.447ZM263.691 318.383C264.379 318.383 264.988 318.218 265.518 317.888C266.048 317.559 266.459 317.119 266.753 316.567C267.047 316.016 267.193 315.446 267.193 314.859V313.903L265.152 313.946C264.307 313.96 263.663 314.053 263.219 314.225C262.775 314.397 262.427 314.662 262.177 315.02C261.933 315.371 261.812 315.84 261.812 316.427C261.812 317.015 261.969 317.487 262.284 317.845C262.606 318.204 263.076 318.383 263.691 318.383ZM273.016 313.817C273.016 311.884 273.478 310.398 274.401 309.359C275.325 308.321 276.661 307.802 278.408 307.802C279.712 307.802 280.786 308.117 281.631 308.747C282.476 309.37 282.999 310.211 283.199 311.271L281.137 311.422C281.022 310.77 280.736 310.258 280.277 309.885C279.819 309.506 279.167 309.316 278.322 309.316C277.191 309.316 276.36 309.667 275.83 310.369C275.307 311.071 275.046 312.206 275.046 313.774C275.046 315.364 275.307 316.528 275.83 317.265C276.36 317.996 277.187 318.361 278.312 318.361C279.085 318.361 279.726 318.171 280.234 317.792C280.743 317.412 281.058 316.832 281.18 316.052L283.221 316.18C283.128 316.868 282.866 317.495 282.437 318.06C282.014 318.619 281.452 319.059 280.75 319.382C280.048 319.697 279.264 319.854 278.397 319.854C276.643 319.854 275.307 319.339 274.391 318.307C273.474 317.276 273.016 315.779 273.016 313.817ZM286.873 309.542V308.016H288.699L289.322 304.987H290.611V308.016H295.252V309.542H290.611V316.546C290.611 317.111 290.762 317.53 291.062 317.802C291.37 318.075 291.872 318.211 292.566 318.211C293.526 318.211 294.59 318.089 295.757 317.845V319.317C294.547 319.647 293.347 319.811 292.158 319.811C290.998 319.811 290.128 319.568 289.548 319.081C288.968 318.587 288.678 317.81 288.678 316.75V309.542H286.873ZM306.048 318.114H310.13V319.639H299.581V318.114H304.114V309.542H300.688V308.016H306.048V318.114ZM303.899 305.76V303.698H306.048V305.76H303.899ZM318.938 319.639H316.65L311.999 308.016H314.169L317.048 315.579L317.23 316.148L317.789 318.125L318.165 316.868L318.584 315.6L321.549 308.016H323.708L318.938 319.639ZM327.93 314.236C327.93 315.539 328.216 316.56 328.789 317.298C329.369 318.035 330.16 318.404 331.163 318.404C331.901 318.404 332.545 318.247 333.097 317.931C333.655 317.609 334.028 317.172 334.214 316.621L335.911 317.104C335.596 317.992 335.016 318.673 334.171 319.145C333.333 319.618 332.33 319.854 331.163 319.854C329.473 319.854 328.173 319.328 327.264 318.275C326.354 317.222 325.899 315.715 325.899 313.753C325.899 311.841 326.343 310.372 327.231 309.348C328.127 308.317 329.416 307.802 331.099 307.802C332.782 307.802 334.056 308.314 334.923 309.338C335.789 310.362 336.223 311.909 336.223 313.978V314.236H327.93ZM331.12 309.23C330.16 309.23 329.401 309.545 328.843 310.176C328.284 310.799 327.987 311.658 327.951 312.754H334.225C334.024 310.405 332.989 309.23 331.12 309.23ZM360.156 317.77C359.805 318.522 359.34 319.07 358.76 319.414C358.18 319.75 357.456 319.919 356.59 319.919C355.143 319.919 354.08 319.421 353.399 318.426C352.719 317.43 352.379 315.93 352.379 313.925C352.379 309.871 353.783 307.844 356.59 307.844C357.456 307.844 358.18 307.998 358.76 308.306C359.347 308.614 359.816 309.119 360.167 309.821H360.188L360.167 308.199V303.698H362.101V317.244C362.101 318.454 362.122 319.253 362.165 319.639H360.317C360.289 319.532 360.264 319.271 360.242 318.855C360.221 318.44 360.21 318.078 360.21 317.77H360.156ZM354.377 313.86C354.377 315.45 354.588 316.61 355.011 317.341C355.44 318.064 356.135 318.426 357.095 318.426C358.14 318.426 358.914 318.05 359.415 317.298C359.916 316.538 360.167 315.335 360.167 313.688C360.167 312.149 359.924 311.028 359.437 310.326C358.957 309.624 358.183 309.273 357.116 309.273C356.149 309.273 355.451 309.642 355.021 310.38C354.592 311.117 354.377 312.277 354.377 313.86ZM372.112 318.114H376.194V319.639H365.646V318.114H370.179V309.542H366.752V308.016H372.112V318.114ZM369.964 305.76V303.698H372.112V305.76H369.964ZM383.929 324.194C382.726 324.194 381.759 323.947 381.028 323.453C380.298 322.959 379.832 322.25 379.632 321.326L381.608 321.057C381.73 321.594 381.992 322.006 382.393 322.293C382.801 322.586 383.334 322.733 383.993 322.733C385.769 322.733 386.657 321.605 386.657 319.349V317.265H386.636C386.285 318.003 385.798 318.562 385.175 318.941C384.552 319.321 383.811 319.51 382.951 319.51C381.533 319.51 380.495 319.049 379.836 318.125C379.184 317.194 378.858 315.733 378.858 313.742C378.858 311.715 379.209 310.226 379.911 309.273C380.613 308.314 381.694 307.834 383.155 307.834C383.965 307.834 384.666 308.024 385.261 308.403C385.862 308.775 386.324 309.309 386.646 310.004H386.679C386.679 309.789 386.693 309.427 386.722 308.919C386.75 308.403 386.779 308.102 386.808 308.016H388.645C388.602 308.403 388.58 309.205 388.58 310.423V319.296C388.58 320.921 388.201 322.142 387.441 322.959C386.682 323.782 385.511 324.194 383.929 324.194ZM386.657 313.72C386.657 312.338 386.389 311.253 385.852 310.466C385.314 309.671 384.577 309.273 383.639 309.273C382.658 309.273 381.949 309.617 381.512 310.304C381.075 310.985 380.856 312.123 380.856 313.72C380.856 314.802 380.946 315.658 381.125 316.288C381.311 316.911 381.598 317.366 381.984 317.652C382.371 317.939 382.912 318.082 383.606 318.082C384.215 318.082 384.749 317.913 385.207 317.577C385.673 317.233 386.031 316.735 386.281 316.084C386.532 315.425 386.657 314.637 386.657 313.72ZM398.538 318.114H402.62V319.639H392.071V318.114H396.604V309.542H393.178V308.016H398.538V318.114ZM396.39 305.76V303.698H398.538V305.76H396.39ZM405.789 309.542V308.016H407.615L408.238 304.987H409.527V308.016H414.168V309.542H409.527V316.546C409.527 317.111 409.678 317.53 409.979 317.802C410.286 318.075 410.788 318.211 411.482 318.211C412.442 318.211 413.506 318.089 414.673 317.845V319.317C413.463 319.647 412.263 319.811 411.074 319.811C409.914 319.811 409.044 319.568 408.464 319.081C407.884 318.587 407.594 317.81 407.594 316.75V309.542H405.789ZM428.788 318.447C428.974 318.447 429.186 318.422 429.422 318.372V319.575C428.935 319.69 428.437 319.747 427.929 319.747C427.213 319.747 426.69 319.561 426.36 319.188C426.038 318.809 425.855 318.218 425.812 317.416H425.748C425.283 318.282 424.731 318.905 424.094 319.285C423.464 319.664 422.683 319.854 421.752 319.854C420.62 319.854 419.768 319.546 419.195 318.93C418.622 318.315 418.336 317.469 418.336 316.395C418.336 313.896 419.962 312.628 423.213 312.593L425.748 312.55V311.916C425.748 310.978 425.558 310.304 425.179 309.896C424.799 309.481 424.194 309.273 423.363 309.273C422.518 309.273 421.91 309.424 421.537 309.724C421.165 310.025 420.943 310.491 420.871 311.121L418.852 310.938C419.181 308.847 420.696 307.802 423.396 307.802C424.828 307.802 425.902 308.138 426.618 308.811C427.341 309.477 427.703 310.444 427.703 311.712V316.718C427.703 317.29 427.778 317.724 427.929 318.017C428.079 318.304 428.366 318.447 428.788 318.447ZM422.246 318.383C422.934 318.383 423.542 318.218 424.072 317.888C424.602 317.559 425.014 317.119 425.308 316.567C425.601 316.016 425.748 315.446 425.748 314.859V313.903L423.707 313.946C422.862 313.96 422.217 314.053 421.773 314.225C421.329 314.397 420.982 314.662 420.731 315.02C420.488 315.371 420.366 315.84 420.366 316.427C420.366 317.015 420.524 317.487 420.839 317.845C421.161 318.204 421.63 318.383 422.246 318.383ZM438.08 318.114H442.162V319.639H431.613V318.114H436.146V305.223H433.042V303.698H438.08V318.114ZM50.459 339.236C50.459 340.539 50.7454 341.56 51.3184 342.298C51.8984 343.035 52.6898 343.404 53.6924 343.404C54.43 343.404 55.0745 343.247 55.626 342.931C56.1846 342.609 56.557 342.172 56.7432 341.621L58.4404 342.104C58.1253 342.992 57.5452 343.673 56.7002 344.145C55.8623 344.618 54.8597 344.854 53.6924 344.854C52.0023 344.854 50.7025 344.328 49.793 343.275C48.8835 342.222 48.4287 340.715 48.4287 338.753C48.4287 336.841 48.8727 335.372 49.7607 334.348C50.6559 333.317 51.945 332.802 53.6279 332.802C55.3109 332.802 56.5856 333.314 57.4521 334.338C58.3187 335.362 58.752 336.909 58.752 338.978V339.236H50.459ZM53.6494 334.23C52.6898 334.23 51.9307 334.545 51.3721 335.176C50.8135 335.799 50.5163 336.658 50.4805 337.754H56.7539C56.5534 335.405 55.5186 334.23 53.6494 334.23ZM70.2246 344.639L66.7764 339.87L63.3066 344.639H61.2227L65.6807 338.667L61.416 333.016H63.5537L66.7764 337.539L69.9775 333.016H72.1367L67.8721 338.645L72.3838 344.639H70.2246ZM85.1348 338.774C85.1348 342.828 83.7311 344.854 80.9238 344.854C79.1621 344.854 77.9769 344.195 77.3682 342.878H77.3145C77.3431 342.935 77.3574 343.529 77.3574 344.661V349.205H75.4131V335.423C75.4131 334.205 75.3916 333.403 75.3486 333.016H77.2285C77.2357 333.045 77.2464 333.152 77.2607 333.339C77.2751 333.518 77.2894 333.786 77.3037 334.144C77.3252 334.495 77.3359 334.757 77.3359 334.928H77.3789C77.737 334.177 78.1917 333.632 78.7432 333.296C79.3018 332.952 80.0286 332.78 80.9238 332.78C82.3418 332.78 83.3981 333.271 84.0928 334.252C84.7874 335.226 85.1348 336.733 85.1348 338.774ZM83.1367 338.774C83.1367 337.156 82.9183 336.003 82.4814 335.315C82.0446 334.621 81.3571 334.273 80.4189 334.273C79.3376 334.273 78.557 334.667 78.0771 335.455C77.5973 336.235 77.3574 337.421 77.3574 339.01C77.3574 340.536 77.5973 341.653 78.0771 342.362C78.557 343.071 79.3304 343.426 80.3975 343.426C81.3499 343.426 82.0446 343.064 82.4814 342.341C82.9183 341.617 83.1367 340.428 83.1367 338.774ZM90.0977 339.236C90.0977 340.539 90.3841 341.56 90.957 342.298C91.5371 343.035 92.3285 343.404 93.3311 343.404C94.0687 343.404 94.7132 343.247 95.2646 342.931C95.8232 342.609 96.1956 342.172 96.3818 341.621L98.0791 342.104C97.764 342.992 97.1839 343.673 96.3389 344.145C95.501 344.618 94.4984 344.854 93.3311 344.854C91.641 344.854 90.3411 344.328 89.4316 343.275C88.5221 342.222 88.0674 340.715 88.0674 338.753C88.0674 336.841 88.5114 335.372 89.3994 334.348C90.2946 333.317 91.5837 332.802 93.2666 332.802C94.9495 332.802 96.2243 333.314 97.0908 334.338C97.9574 335.362 98.3906 336.909 98.3906 338.978V339.236H90.0977ZM93.2881 334.23C92.3285 334.23 91.5693 334.545 91.0107 335.176C90.4521 335.799 90.1549 336.658 90.1191 337.754H96.3926C96.1921 335.405 95.1572 334.23 93.2881 334.23ZM111.077 334.778C110.275 334.642 109.516 334.574 108.8 334.574C107.647 334.574 106.716 335.007 106.007 335.874C105.298 336.74 104.943 337.843 104.943 339.182V344.639H103.01V337.109C103.01 336.565 102.96 335.924 102.859 335.186C102.766 334.449 102.63 333.725 102.451 333.016H104.288C104.575 334.005 104.746 334.9 104.804 335.702H104.857C105.215 334.9 105.566 334.313 105.91 333.94C106.254 333.561 106.662 333.278 107.135 333.092C107.607 332.898 108.184 332.802 108.864 332.802C109.609 332.802 110.347 332.862 111.077 332.984V334.778ZM121.067 343.114H125.149V344.639H114.601V343.114H119.134V334.542H115.707V333.016H121.067V343.114ZM118.919 330.76V328.698H121.067V330.76H118.919ZM129.736 339.236C129.736 340.539 130.023 341.56 130.596 342.298C131.176 343.035 131.967 343.404 132.97 343.404C133.707 343.404 134.352 343.247 134.903 342.931C135.462 342.609 135.834 342.172 136.021 341.621L137.718 342.104C137.403 342.992 136.823 343.673 135.978 344.145C135.14 344.618 134.137 344.854 132.97 344.854C131.28 344.854 129.98 344.328 129.07 343.275C128.161 342.222 127.706 340.715 127.706 338.753C127.706 336.841 128.15 335.372 129.038 334.348C129.933 333.317 131.222 332.802 132.905 332.802C134.588 332.802 135.863 333.314 136.729 334.338C137.596 335.362 138.029 336.909 138.029 338.978V339.236H129.736ZM132.927 334.23C131.967 334.23 131.208 334.545 130.649 335.176C130.091 335.799 129.794 336.658 129.758 337.754H136.031C135.831 335.405 134.796 334.23 132.927 334.23ZM148.814 344.639V337.174C148.814 336.2 148.625 335.476 148.245 335.004C147.873 334.531 147.275 334.295 146.451 334.295C145.563 334.295 144.833 334.621 144.26 335.272C143.694 335.917 143.411 336.794 143.411 337.904V344.639H141.478V335.498C141.478 334.144 141.456 333.317 141.413 333.016H143.239C143.246 333.052 143.254 333.149 143.261 333.306C143.268 333.464 143.275 333.647 143.282 333.854C143.297 334.055 143.311 334.438 143.325 335.004H143.357C144.109 333.536 145.348 332.802 147.074 332.802C148.313 332.802 149.237 333.138 149.846 333.811C150.454 334.477 150.759 335.505 150.759 336.894V344.639H148.814ZM154.1 338.817C154.1 336.884 154.562 335.398 155.485 334.359C156.409 333.321 157.745 332.802 159.492 332.802C160.796 332.802 161.87 333.117 162.715 333.747C163.56 334.37 164.083 335.211 164.283 336.271L162.221 336.422C162.106 335.77 161.82 335.258 161.361 334.885C160.903 334.506 160.251 334.316 159.406 334.316C158.275 334.316 157.444 334.667 156.914 335.369C156.391 336.071 156.13 337.206 156.13 338.774C156.13 340.364 156.391 341.528 156.914 342.265C157.444 342.996 158.271 343.361 159.396 343.361C160.169 343.361 160.81 343.171 161.318 342.792C161.827 342.412 162.142 341.832 162.264 341.052L164.305 341.18C164.212 341.868 163.95 342.495 163.521 343.06C163.098 343.619 162.536 344.059 161.834 344.382C161.132 344.697 160.348 344.854 159.481 344.854C157.727 344.854 156.391 344.339 155.475 343.307C154.558 342.276 154.1 340.779 154.1 338.817ZM169.375 339.236C169.375 340.539 169.661 341.56 170.234 342.298C170.814 343.035 171.606 343.404 172.608 343.404C173.346 343.404 173.991 343.247 174.542 342.931C175.101 342.609 175.473 342.172 175.659 341.621L177.356 342.104C177.041 342.992 176.461 343.673 175.616 344.145C174.778 344.618 173.776 344.854 172.608 344.854C170.918 344.854 169.618 344.328 168.709 343.275C167.799 342.222 167.345 340.715 167.345 338.753C167.345 336.841 167.789 335.372 168.677 334.348C169.572 333.317 170.861 332.802 172.544 332.802C174.227 332.802 175.502 333.314 176.368 334.338C177.235 335.362 177.668 336.909 177.668 338.978V339.236H169.375ZM172.565 334.23C171.606 334.23 170.847 334.545 170.288 335.176C169.729 335.799 169.432 336.658 169.396 337.754H175.67C175.469 335.405 174.435 334.23 172.565 334.23ZM190.516 341.32C190.516 342.423 190.097 343.289 189.259 343.92C188.428 344.543 187.275 344.854 185.8 344.854C184.325 344.854 183.2 344.625 182.427 344.167C181.66 343.701 181.159 342.971 180.923 341.975L182.631 341.642C182.767 342.258 183.057 342.709 183.501 342.996C183.952 343.275 184.718 343.415 185.8 343.415C187.733 343.415 188.7 342.802 188.7 341.578C188.7 341.12 188.525 340.751 188.174 340.471C187.823 340.185 187.286 339.952 186.562 339.773C184.672 339.308 183.472 338.942 182.964 338.677C182.455 338.413 182.065 338.083 181.793 337.689C181.521 337.288 181.385 336.79 181.385 336.196C181.385 335.143 181.764 334.32 182.523 333.725C183.283 333.131 184.382 332.834 185.821 332.834C187.082 332.834 188.088 333.074 188.84 333.553C189.592 334.026 190.061 334.717 190.247 335.627L188.507 335.842C188.428 335.326 188.174 334.936 187.744 334.671C187.314 334.406 186.674 334.273 185.821 334.273C184.067 334.273 183.189 334.814 183.189 335.895C183.189 336.325 183.336 336.669 183.63 336.927C183.931 337.184 184.41 337.392 185.069 337.55L186.348 337.883C187.515 338.169 188.353 338.452 188.861 338.731C189.377 339.01 189.782 339.361 190.075 339.784C190.369 340.199 190.516 340.711 190.516 341.32ZM207.596 334.542V333.016H209.422L210.045 329.987H211.334V333.016H215.975V334.542H211.334V341.546C211.334 342.111 211.484 342.53 211.785 342.802C212.093 343.075 212.594 343.211 213.289 343.211C214.249 343.211 215.312 343.089 216.479 342.845V344.317C215.269 344.647 214.07 344.811 212.881 344.811C211.721 344.811 210.851 344.568 210.271 344.081C209.69 343.587 209.4 342.81 209.4 341.75V334.542H207.596ZM220.755 328.698H222.699V332.887C222.699 333.31 222.667 334.015 222.603 335.004H222.635C223.387 333.536 224.601 332.802 226.276 332.802C228.783 332.802 230.036 334.166 230.036 336.894V344.639H228.092V337.174C228.092 336.2 227.902 335.476 227.522 335.004C227.15 334.531 226.552 334.295 225.729 334.295C224.84 334.295 224.11 334.621 223.537 335.272C222.971 335.917 222.688 336.794 222.688 337.904V344.639H220.755V328.698ZM243.808 343.447C243.994 343.447 244.205 343.422 244.441 343.372V344.575C243.954 344.69 243.457 344.747 242.948 344.747C242.232 344.747 241.709 344.561 241.38 344.188C241.058 343.809 240.875 343.218 240.832 342.416H240.768C240.302 343.282 239.751 343.905 239.113 344.285C238.483 344.664 237.702 344.854 236.771 344.854C235.64 344.854 234.788 344.546 234.215 343.93C233.642 343.315 233.355 342.469 233.355 341.395C233.355 338.896 234.981 337.628 238.232 337.593L240.768 337.55V336.916C240.768 335.978 240.578 335.304 240.198 334.896C239.819 334.481 239.214 334.273 238.383 334.273C237.538 334.273 236.929 334.424 236.557 334.724C236.184 335.025 235.962 335.491 235.891 336.121L233.871 335.938C234.201 333.847 235.715 332.802 238.415 332.802C239.847 332.802 240.922 333.138 241.638 333.811C242.361 334.477 242.723 335.444 242.723 336.712V341.718C242.723 342.29 242.798 342.724 242.948 343.017C243.099 343.304 243.385 343.447 243.808 343.447ZM237.266 343.383C237.953 343.383 238.562 343.218 239.092 342.888C239.622 342.559 240.034 342.119 240.327 341.567C240.621 341.016 240.768 340.446 240.768 339.859V338.903L238.727 338.946C237.882 338.96 237.237 339.053 236.793 339.225C236.349 339.397 236.002 339.662 235.751 340.02C235.507 340.371 235.386 340.84 235.386 341.427C235.386 342.015 235.543 342.487 235.858 342.845C236.181 343.204 236.65 343.383 237.266 343.383ZM247.234 334.542V333.016H249.061L249.684 329.987H250.973V333.016H255.613V334.542H250.973V341.546C250.973 342.111 251.123 342.53 251.424 342.802C251.732 343.075 252.233 343.211 252.928 343.211C253.887 343.211 254.951 343.089 256.118 342.845V344.317C254.908 344.647 253.708 344.811 252.52 344.811C251.359 344.811 250.489 344.568 249.909 344.081C249.329 343.587 249.039 342.81 249.039 341.75V334.542H247.234ZM275.078 339.236C275.078 340.539 275.365 341.56 275.938 342.298C276.518 343.035 277.309 343.404 278.312 343.404C279.049 343.404 279.694 343.247 280.245 342.931C280.804 342.609 281.176 342.172 281.362 341.621L283.06 342.104C282.744 342.992 282.164 343.673 281.319 344.145C280.481 344.618 279.479 344.854 278.312 344.854C276.621 344.854 275.322 344.328 274.412 343.275C273.503 342.222 273.048 340.715 273.048 338.753C273.048 336.841 273.492 335.372 274.38 334.348C275.275 333.317 276.564 332.802 278.247 332.802C279.93 332.802 281.205 333.314 282.071 334.338C282.938 335.362 283.371 336.909 283.371 338.978V339.236H275.078ZM278.269 334.23C277.309 334.23 276.55 334.545 275.991 335.176C275.433 335.799 275.135 336.658 275.1 337.754H281.373C281.173 335.405 280.138 334.23 278.269 334.23ZM294.156 344.639V337.174C294.156 336.2 293.966 335.476 293.587 335.004C293.215 334.531 292.617 334.295 291.793 334.295C290.905 334.295 290.174 334.621 289.602 335.272C289.036 335.917 288.753 336.794 288.753 337.904V344.639H286.819V335.498C286.819 334.144 286.798 333.317 286.755 333.016H288.581C288.588 333.052 288.595 333.149 288.603 333.306C288.61 333.464 288.617 333.647 288.624 333.854C288.638 334.055 288.653 334.438 288.667 335.004H288.699C289.451 333.536 290.69 332.802 292.416 332.802C293.655 332.802 294.579 333.138 295.188 333.811C295.796 334.477 296.101 335.505 296.101 336.894V344.639H294.156ZM304.651 349.194C303.448 349.194 302.481 348.947 301.751 348.453C301.021 347.959 300.555 347.25 300.354 346.326L302.331 346.057C302.453 346.594 302.714 347.006 303.115 347.293C303.523 347.586 304.057 347.733 304.716 347.733C306.492 347.733 307.38 346.605 307.38 344.349V342.265H307.358C307.007 343.003 306.521 343.562 305.897 343.941C305.274 344.321 304.533 344.51 303.674 344.51C302.256 344.51 301.217 344.049 300.559 343.125C299.907 342.194 299.581 340.733 299.581 338.742C299.581 336.715 299.932 335.226 300.634 334.273C301.336 333.314 302.417 332.834 303.878 332.834C304.687 332.834 305.389 333.024 305.983 333.403C306.585 333.775 307.047 334.309 307.369 335.004H307.401C307.401 334.789 307.416 334.427 307.444 333.919C307.473 333.403 307.502 333.102 307.53 333.016H309.367C309.324 333.403 309.303 334.205 309.303 335.423V344.296C309.303 345.921 308.923 347.142 308.164 347.959C307.405 348.782 306.234 349.194 304.651 349.194ZM307.38 338.72C307.38 337.338 307.111 336.253 306.574 335.466C306.037 334.671 305.299 334.273 304.361 334.273C303.38 334.273 302.671 334.617 302.234 335.304C301.798 335.985 301.579 337.123 301.579 338.72C301.579 339.802 301.669 340.658 301.848 341.288C302.034 341.911 302.32 342.366 302.707 342.652C303.094 342.939 303.634 343.082 304.329 343.082C304.938 343.082 305.471 342.913 305.93 342.577C306.395 342.233 306.753 341.735 307.004 341.084C307.255 340.425 307.38 339.637 307.38 338.72ZM323.085 343.447C323.271 343.447 323.482 343.422 323.719 343.372V344.575C323.232 344.69 322.734 344.747 322.226 344.747C321.509 344.747 320.987 344.561 320.657 344.188C320.335 343.809 320.152 343.218 320.109 342.416H320.045C319.579 343.282 319.028 343.905 318.391 344.285C317.76 344.664 316.98 344.854 316.049 344.854C314.917 344.854 314.065 344.546 313.492 343.93C312.919 343.315 312.633 342.469 312.633 341.395C312.633 338.896 314.258 337.628 317.51 337.593L320.045 337.55V336.916C320.045 335.978 319.855 335.304 319.476 334.896C319.096 334.481 318.491 334.273 317.66 334.273C316.815 334.273 316.206 334.424 315.834 334.724C315.462 335.025 315.24 335.491 315.168 336.121L313.148 335.938C313.478 333.847 314.993 332.802 317.692 332.802C319.125 332.802 320.199 333.138 320.915 333.811C321.638 334.477 322 335.444 322 336.712V341.718C322 342.29 322.075 342.724 322.226 343.017C322.376 343.304 322.662 343.447 323.085 343.447ZM316.543 343.383C317.23 343.383 317.839 343.218 318.369 342.888C318.899 342.559 319.311 342.119 319.604 341.567C319.898 341.016 320.045 340.446 320.045 339.859V338.903L318.004 338.946C317.159 338.96 316.514 339.053 316.07 339.225C315.626 339.397 315.279 339.662 315.028 340.02C314.785 340.371 314.663 340.84 314.663 341.427C314.663 342.015 314.821 342.487 315.136 342.845C315.458 343.204 315.927 343.383 316.543 343.383ZM331.077 349.194C329.874 349.194 328.907 348.947 328.177 348.453C327.446 347.959 326.981 347.25 326.78 346.326L328.757 346.057C328.879 346.594 329.14 347.006 329.541 347.293C329.949 347.586 330.483 347.733 331.142 347.733C332.918 347.733 333.806 346.605 333.806 344.349V342.265H333.784C333.433 343.003 332.946 343.562 332.323 343.941C331.7 344.321 330.959 344.51 330.1 344.51C328.682 344.51 327.643 344.049 326.984 343.125C326.333 342.194 326.007 340.733 326.007 338.742C326.007 336.715 326.358 335.226 327.06 334.273C327.761 333.314 328.843 332.834 330.304 332.834C331.113 332.834 331.815 333.024 332.409 333.403C333.011 333.775 333.473 334.309 333.795 335.004H333.827C333.827 334.789 333.841 334.427 333.87 333.919C333.899 333.403 333.927 333.102 333.956 333.016H335.793C335.75 333.403 335.729 334.205 335.729 335.423V344.296C335.729 345.921 335.349 347.142 334.59 347.959C333.831 348.782 332.66 349.194 331.077 349.194ZM333.806 338.72C333.806 337.338 333.537 336.253 333 335.466C332.463 334.671 331.725 334.273 330.787 334.273C329.806 334.273 329.097 334.617 328.66 335.304C328.223 335.985 328.005 337.123 328.005 338.72C328.005 339.802 328.094 340.658 328.273 341.288C328.46 341.911 328.746 342.366 329.133 342.652C329.52 342.939 330.06 343.082 330.755 343.082C331.364 343.082 331.897 342.913 332.355 342.577C332.821 342.233 333.179 341.735 333.43 341.084C333.68 340.425 333.806 339.637 333.806 338.72ZM341.143 339.236C341.143 340.539 341.429 341.56 342.002 342.298C342.582 343.035 343.373 343.404 344.376 343.404C345.114 343.404 345.758 343.247 346.31 342.931C346.868 342.609 347.241 342.172 347.427 341.621L349.124 342.104C348.809 342.992 348.229 343.673 347.384 344.145C346.546 344.618 345.543 344.854 344.376 344.854C342.686 344.854 341.386 344.328 340.477 343.275C339.567 342.222 339.112 340.715 339.112 338.753C339.112 336.841 339.556 335.372 340.444 334.348C341.34 333.317 342.629 332.802 344.312 332.802C345.994 332.802 347.269 333.314 348.136 334.338C349.002 335.362 349.436 336.909 349.436 338.978V339.236H341.143ZM344.333 334.23C343.373 334.23 342.614 334.545 342.056 335.176C341.497 335.799 341.2 336.658 341.164 337.754H347.438C347.237 335.405 346.202 334.23 344.333 334.23ZM375.937 343.447C376.123 343.447 376.334 343.422 376.57 343.372V344.575C376.083 344.69 375.586 344.747 375.077 344.747C374.361 344.747 373.838 344.561 373.509 344.188C373.187 343.809 373.004 343.218 372.961 342.416H372.896C372.431 343.282 371.88 343.905 371.242 344.285C370.612 344.664 369.831 344.854 368.9 344.854C367.769 344.854 366.917 344.546 366.344 343.93C365.771 343.315 365.484 342.469 365.484 341.395C365.484 338.896 367.11 337.628 370.361 337.593L372.896 337.55V336.916C372.896 335.978 372.707 335.304 372.327 334.896C371.948 334.481 371.342 334.273 370.512 334.273C369.667 334.273 369.058 334.424 368.686 334.724C368.313 335.025 368.091 335.491 368.02 336.121L366 335.938C366.329 333.847 367.844 332.802 370.544 332.802C371.976 332.802 373.05 333.138 373.767 333.811C374.49 334.477 374.852 335.444 374.852 336.712V341.718C374.852 342.29 374.927 342.724 375.077 343.017C375.228 343.304 375.514 343.447 375.937 343.447ZM369.395 343.383C370.082 343.383 370.691 343.218 371.221 342.888C371.751 342.559 372.162 342.119 372.456 341.567C372.75 341.016 372.896 340.446 372.896 339.859V338.903L370.855 338.946C370.01 338.96 369.366 339.053 368.922 339.225C368.478 339.397 368.131 339.662 367.88 340.02C367.636 340.371 367.515 340.84 367.515 341.427C367.515 342.015 367.672 342.487 367.987 342.845C368.31 343.204 368.779 343.383 369.395 343.383ZM386.646 344.639V337.174C386.646 336.2 386.457 335.476 386.077 335.004C385.705 334.531 385.107 334.295 384.283 334.295C383.395 334.295 382.665 334.621 382.092 335.272C381.526 335.917 381.243 336.794 381.243 337.904V344.639H379.31V335.498C379.31 334.144 379.288 333.317 379.245 333.016H381.071C381.078 333.052 381.086 333.149 381.093 333.306C381.1 333.464 381.107 333.647 381.114 333.854C381.129 334.055 381.143 334.438 381.157 335.004H381.189C381.941 333.536 383.18 332.802 384.906 332.802C386.145 332.802 387.069 333.138 387.678 333.811C388.286 334.477 388.591 335.505 388.591 336.894V344.639H386.646ZM399.795 342.77C399.444 343.522 398.979 344.07 398.398 344.414C397.818 344.75 397.095 344.919 396.229 344.919C394.782 344.919 393.718 344.421 393.038 343.426C392.358 342.43 392.018 340.93 392.018 338.925C392.018 334.871 393.421 332.844 396.229 332.844C397.095 332.844 397.818 332.998 398.398 333.306C398.986 333.614 399.455 334.119 399.806 334.821H399.827L399.806 333.199V328.698H401.739V342.244C401.739 343.454 401.761 344.253 401.804 344.639H399.956C399.927 344.532 399.902 344.271 399.881 343.855C399.859 343.44 399.849 343.078 399.849 342.77H399.795ZM394.016 338.86C394.016 340.45 394.227 341.61 394.649 342.341C395.079 343.064 395.774 343.426 396.733 343.426C397.779 343.426 398.552 343.05 399.054 342.298C399.555 341.538 399.806 340.335 399.806 338.688C399.806 337.149 399.562 336.028 399.075 335.326C398.595 334.624 397.822 334.273 396.755 334.273C395.788 334.273 395.09 334.642 394.66 335.38C394.23 336.117 394.016 337.277 394.016 338.86ZM55.0029 368.114H59.085V369.639H48.5361V368.114H53.0693V359.542H49.6426V358.016H55.0029V368.114ZM52.8545 355.76V353.698H55.0029V355.76H52.8545ZM69.5371 369.639V362.174C69.5371 361.2 69.3473 360.476 68.9678 360.004C68.5954 359.531 67.9974 359.295 67.1738 359.295C66.2858 359.295 65.5553 359.621 64.9824 360.272C64.4167 360.917 64.1338 361.794 64.1338 362.904V369.639H62.2002V360.498C62.2002 359.144 62.1787 358.317 62.1357 358.016H63.9619C63.9691 358.052 63.9762 358.149 63.9834 358.306C63.9906 358.464 63.9977 358.647 64.0049 358.854C64.0192 359.055 64.0335 359.438 64.0479 360.004H64.0801C64.832 358.536 66.071 357.802 67.7969 357.802C69.0358 357.802 69.9596 358.138 70.5684 358.811C71.1771 359.477 71.4814 360.505 71.4814 361.894V369.639H69.5371ZM84.8125 366.32C84.8125 367.423 84.3936 368.289 83.5557 368.92C82.7249 369.543 81.5719 369.854 80.0967 369.854C78.6214 369.854 77.4971 369.625 76.7236 369.167C75.9574 368.701 75.4561 367.971 75.2197 366.975L76.9277 366.642C77.0638 367.258 77.3538 367.709 77.7979 367.996C78.249 368.275 79.0153 368.415 80.0967 368.415C82.0303 368.415 82.9971 367.802 82.9971 366.578C82.9971 366.12 82.8216 365.751 82.4707 365.471C82.1198 365.185 81.5827 364.952 80.8594 364.773C78.9688 364.308 77.7692 363.942 77.2607 363.677C76.7523 363.413 76.362 363.083 76.0898 362.689C75.8177 362.288 75.6816 361.79 75.6816 361.196C75.6816 360.143 76.0612 359.32 76.8203 358.725C77.5794 358.131 78.6787 357.834 80.1182 357.834C81.3786 357.834 82.3848 358.074 83.1367 358.553C83.8887 359.026 84.3577 359.717 84.5439 360.627L82.8037 360.842C82.7249 360.326 82.4707 359.936 82.041 359.671C81.6113 359.406 80.9704 359.273 80.1182 359.273C78.3636 359.273 77.4863 359.814 77.4863 360.895C77.4863 361.325 77.6331 361.669 77.9268 361.927C78.2275 362.184 78.7074 362.392 79.3662 362.55L80.6445 362.883C81.8118 363.169 82.6497 363.452 83.1582 363.731C83.6738 364.01 84.0785 364.361 84.3721 364.784C84.6657 365.199 84.8125 365.711 84.8125 366.32ZM98.3477 363.774C98.3477 367.828 96.944 369.854 94.1367 369.854C92.375 369.854 91.1898 369.195 90.5811 367.878H90.5273C90.556 367.935 90.5703 368.529 90.5703 369.661V374.205H88.626V360.423C88.626 359.205 88.6045 358.403 88.5615 358.016H90.4414C90.4486 358.045 90.4593 358.152 90.4736 358.339C90.488 358.518 90.5023 358.786 90.5166 359.144C90.5381 359.495 90.5488 359.757 90.5488 359.928H90.5918C90.9499 359.177 91.4046 358.632 91.9561 358.296C92.5146 357.952 93.2415 357.78 94.1367 357.78C95.5547 357.78 96.611 358.271 97.3057 359.252C98.0003 360.226 98.3477 361.733 98.3477 363.774ZM96.3496 363.774C96.3496 362.156 96.1312 361.003 95.6943 360.315C95.2575 359.621 94.57 359.273 93.6318 359.273C92.5505 359.273 91.7699 359.667 91.29 360.455C90.8102 361.235 90.5703 362.421 90.5703 364.01C90.5703 365.536 90.8102 366.653 91.29 367.362C91.7699 368.071 92.5433 368.426 93.6104 368.426C94.5628 368.426 95.2575 368.064 95.6943 367.341C96.1312 366.617 96.3496 365.428 96.3496 363.774ZM107.854 368.114H111.937V369.639H101.388V368.114H105.921V359.542H102.494V358.016H107.854V368.114ZM105.706 355.76V353.698H107.854V355.76H105.706ZM124.29 359.778C123.488 359.642 122.729 359.574 122.013 359.574C120.86 359.574 119.929 360.007 119.22 360.874C118.511 361.74 118.156 362.843 118.156 364.182V369.639H116.223V362.109C116.223 361.565 116.173 360.924 116.072 360.186C115.979 359.449 115.843 358.725 115.664 358.016H117.501C117.787 359.005 117.959 359.9 118.017 360.702H118.07C118.428 359.9 118.779 359.313 119.123 358.94C119.467 358.561 119.875 358.278 120.348 358.092C120.82 357.898 121.397 357.802 122.077 357.802C122.822 357.802 123.56 357.862 124.29 357.984V359.778ZM129.736 364.236C129.736 365.539 130.023 366.56 130.596 367.298C131.176 368.035 131.967 368.404 132.97 368.404C133.707 368.404 134.352 368.247 134.903 367.931C135.462 367.609 135.834 367.172 136.021 366.621L137.718 367.104C137.403 367.992 136.823 368.673 135.978 369.145C135.14 369.618 134.137 369.854 132.97 369.854C131.28 369.854 129.98 369.328 129.07 368.275C128.161 367.222 127.706 365.715 127.706 363.753C127.706 361.841 128.15 360.372 129.038 359.348C129.933 358.317 131.222 357.802 132.905 357.802C134.588 357.802 135.863 358.314 136.729 359.338C137.596 360.362 138.029 361.909 138.029 363.978V364.236H129.736ZM132.927 359.23C131.967 359.23 131.208 359.545 130.649 360.176C130.091 360.799 129.794 361.658 129.758 362.754H136.031C135.831 360.405 134.796 359.23 132.927 359.23ZM144.818 369.639V366.427H147.343V369.639H144.818Z" fill="#5DB9AD"/>
</svg>
