<svg width="37" height="26" viewBox="0 0 37 26" fill="none" xmlns="http://www.w3.org/2000/svg">
<path d="M0.317858 5.12344C0.484948 2.55103 2.55313 0.535036 5.1278 0.40748C8.8561 0.22277 14.1849 0 18.2 0C22.2151 0 27.5439 0.22277 31.2722 0.40748C33.8469 0.535036 35.9151 2.55103 36.0821 5.12344C36.2422 7.588 36.4 10.6206 36.4 13C36.4 15.3794 36.2422 18.412 36.0821 20.8766C35.9151 23.449 33.8469 25.465 31.2722 25.5925C27.5439 25.7772 22.2151 26 18.2 26C14.1849 26 8.8561 25.7772 5.12781 25.5925C2.55313 25.465 0.484948 23.449 0.317858 20.8766C0.157773 18.412 0 15.3794 0 13C0 10.6206 0.157773 7.588 0.317858 5.12344Z" fill="#FC0D1B"/>
<path d="M14.2998 7.80005V18.2L24.6998 13L14.2998 7.80005Z" fill="white"/>
</svg>
