<svg width="32" height="32" viewBox="0 0 32 32" fill="none" xmlns="http://www.w3.org/2000/svg">
<rect width="32" height="32" rx="6" fill="url(#paint0_radial_121_59)"/>
<rect x="5.50098" y="7.56372" width="19.253" height="19.253" rx="6" fill="url(#paint1_radial_121_59)"/>
<path d="M24.2421 9.95609C24.2421 10.9029 23.4745 11.6704 22.5278 11.6704C21.581 11.6704 20.8135 10.9029 20.8135 9.95609C20.8135 9.00932 21.581 8.2418 22.5278 8.2418C23.4745 8.2418 24.2421 9.00932 24.2421 9.95609Z" fill="white"/>
<path fill-rule="evenodd" clip-rule="evenodd" d="M16.242 21.9561C19.398 21.9561 21.9563 19.3977 21.9563 16.2418C21.9563 13.0859 19.398 10.5275 16.242 10.5275C13.0861 10.5275 10.5278 13.0859 10.5278 16.2418C10.5278 19.3977 13.0861 21.9561 16.242 21.9561ZM16.242 19.6704C18.1356 19.6704 19.6706 18.1354 19.6706 16.2418C19.6706 14.3483 18.1356 12.8132 16.242 12.8132C14.3485 12.8132 12.8135 14.3483 12.8135 16.2418C12.8135 18.1354 14.3485 19.6704 16.242 19.6704Z" fill="white"/>
<path fill-rule="evenodd" clip-rule="evenodd" d="M4.81348 15.7847C4.81348 11.9443 4.81348 10.0241 5.56086 8.5573C6.21828 7.26704 7.26729 6.21803 8.55754 5.56062C10.0244 4.81323 11.9445 4.81323 15.7849 4.81323H16.6992C20.5396 4.81323 22.4597 4.81323 23.9266 5.56062C25.2168 6.21803 26.2658 7.26704 26.9232 8.5573C27.6706 10.0241 27.6706 11.9443 27.6706 15.7847V16.6989C27.6706 20.5393 27.6706 22.4595 26.9232 23.9263C26.2658 25.2166 25.2168 26.2656 23.9266 26.923C22.4597 27.6704 20.5396 27.6704 16.6992 27.6704H15.7849C11.9445 27.6704 10.0244 27.6704 8.55754 26.923C7.26729 26.2656 6.21828 25.2166 5.56086 23.9263C4.81348 22.4595 4.81348 20.5393 4.81348 16.6989V15.7847ZM15.7849 7.09895H16.6992C18.6571 7.09895 19.988 7.10072 21.0168 7.18478C22.0189 7.26665 22.5314 7.41506 22.8889 7.5972C23.749 8.03548 24.4484 8.73482 24.8867 9.59499C25.0688 9.95248 25.2172 10.4649 25.2991 11.467C25.3831 12.4958 25.3849 13.8268 25.3849 15.7847V16.6989C25.3849 18.6568 25.3831 19.9878 25.2991 21.0166C25.2172 22.0187 25.0688 22.5311 24.8867 22.8886C24.4484 23.7488 23.749 24.4481 22.8889 24.8864C22.5314 25.0686 22.0189 25.217 21.0168 25.2988C19.988 25.3829 18.6571 25.3847 16.6992 25.3847H15.7849C13.827 25.3847 12.4961 25.3829 11.4673 25.2988C10.4652 25.217 9.95272 25.0686 9.59524 24.8864C8.73507 24.4481 8.03573 23.7488 7.59745 22.8886C7.4153 22.5311 7.2669 22.0187 7.18502 21.0166C7.10097 19.9878 7.09919 18.6568 7.09919 16.6989V15.7847C7.09919 13.8268 7.10097 12.4958 7.18502 11.467C7.2669 10.4649 7.4153 9.95248 7.59745 9.59499C8.03573 8.73482 8.73507 8.03548 9.59524 7.5972C9.95272 7.41506 10.4652 7.26665 11.4673 7.18478C12.4961 7.10072 13.827 7.09895 15.7849 7.09895Z" fill="white"/>
<defs>
<radialGradient id="paint0_radial_121_59" cx="0" cy="0" r="1" gradientUnits="userSpaceOnUse" gradientTransform="translate(11.4286 24) rotate(-55.3758) scale(29.1653)">
<stop stop-color="#B13589"/>
<stop offset="0.79309" stop-color="#C62F94"/>
<stop offset="1" stop-color="#8A3AC8"/>
</radialGradient>
<radialGradient id="paint1_radial_121_59" cx="0" cy="0" r="1" gradientUnits="userSpaceOnUse" gradientTransform="translate(11.6894 27.5043) rotate(-65.1363) scale(15.5359)">
<stop stop-color="#E0E8B7"/>
<stop offset="0.444662" stop-color="#FB8A2E"/>
<stop offset="0.71474" stop-color="#E2425C"/>
<stop offset="1" stop-color="#E2425C" stop-opacity="0"/>
</radialGradient>
</defs>
</svg>
