<svg width="557" height="654" viewBox="0 0 557 654" fill="none" xmlns="http://www.w3.org/2000/svg">
<rect width="556.835" height="653.05" rx="41" fill="#F0F2FD"/>
<path d="M53.6674 199.736H65.4274C69.454 199.736 72.4541 200.323 74.4274 201.496C76.4007 202.643 77.3874 204.709 77.3874 207.696C77.3874 211.003 76.1874 213.283 73.7874 214.536C71.5474 215.683 68.4141 216.256 64.3874 216.256H64.0674V226.976H69.0674V227.736H53.6674V226.976H56.2674V200.496H53.6674V199.736ZM64.0674 200.496V215.496H64.9074C66.5074 215.496 67.614 214.949 68.2274 213.856C68.8407 212.763 69.1474 210.989 69.1474 208.536V206.616C69.1474 204.349 68.8541 202.763 68.2674 201.856C67.7074 200.949 66.6674 200.496 65.1474 200.496H64.0674ZM94.7789 209.816C93.7923 209.816 92.9256 210.456 92.1789 211.736C91.4323 213.016 91.0589 214.536 91.0589 216.296V227.016H93.8989V227.736H81.4189V227.016H83.6189V209.416H81.4189V208.696H91.0589V212.536C91.4056 211.176 92.0723 210.136 93.0589 209.416C94.0456 208.669 95.1656 208.296 96.4189 208.296C97.6723 208.296 98.6856 208.656 99.4589 209.376C100.259 210.069 100.659 211.069 100.659 212.376C100.659 213.656 100.366 214.643 99.7789 215.336C99.1923 216.029 98.2856 216.376 97.0589 216.376C95.8589 216.376 94.9656 215.976 94.3789 215.176C93.8189 214.376 93.7523 213.269 94.1789 211.856H95.6189C96.2856 210.496 96.0056 209.816 94.7789 209.816ZM116.548 219.856V216.456C116.548 213.869 116.402 211.989 116.108 210.816C115.842 209.616 115.202 209.016 114.188 209.016C113.602 209.016 113.122 209.189 112.748 209.536C112.402 209.856 112.148 210.403 111.988 211.176C111.748 212.376 111.628 214.203 111.628 216.656V219.776C111.628 222.683 111.708 224.429 111.868 225.016C112.055 225.603 112.242 226.083 112.428 226.456C112.722 227.096 113.295 227.416 114.148 227.416C115.188 227.416 115.868 226.816 116.188 225.616C116.428 224.763 116.548 222.843 116.548 219.856ZM114.068 228.136C110.735 228.136 108.215 227.283 106.508 225.576C104.802 223.869 103.948 221.429 103.948 218.256C103.948 215.056 104.855 212.603 106.668 210.896C108.508 209.163 111.082 208.296 114.388 208.296C117.695 208.296 120.162 209.096 121.788 210.696C123.415 212.269 124.228 214.683 124.228 217.936C124.228 224.736 120.842 228.136 114.068 228.136ZM136.067 219.456C136.067 222.256 136.214 224.123 136.507 225.056C136.8 225.963 137.334 226.416 138.107 226.416C138.907 226.416 139.587 226.069 140.147 225.376C140.734 224.683 141.027 223.656 141.027 222.296V213.576C141.027 212.429 140.8 211.456 140.347 210.656C139.894 209.856 139.227 209.456 138.347 209.456C137.467 209.456 136.867 210.043 136.547 211.216C136.227 212.389 136.067 214.443 136.067 217.376V219.456ZM141.547 227.736L141.107 224.936C140.2 227.069 138.36 228.136 135.587 228.136C133.294 228.136 131.507 227.309 130.227 225.656C128.974 224.003 128.347 221.536 128.347 218.256C128.347 211.616 130.987 208.296 136.267 208.296C138.614 208.296 140.16 208.949 140.907 210.256V198.456H138.467V197.736H148.467V227.016H150.427V227.736H141.547ZM177.267 227.736H168.147L167.707 224.816C167.281 225.883 166.641 226.709 165.787 227.296C164.961 227.856 163.721 228.136 162.067 228.136C157.934 228.136 155.867 225.909 155.867 221.456V209.416H153.627V208.696H163.307V222.416C163.307 224.016 163.414 225.069 163.627 225.576C163.867 226.083 164.321 226.336 164.987 226.336C165.681 226.336 166.294 225.923 166.827 225.096C167.361 224.269 167.627 223.123 167.627 221.656V209.416H165.787V208.696H175.067V227.016H177.267V227.736ZM191.886 209.016C190.713 209.016 189.873 209.656 189.366 210.936C188.859 212.216 188.606 214.336 188.606 217.296V219.376C188.606 222.016 188.899 223.909 189.486 225.056C190.073 226.203 191.153 226.776 192.726 226.776C194.299 226.776 195.553 226.243 196.486 225.176C197.419 224.109 198.019 222.896 198.286 221.536L199.006 221.616C198.499 223.909 197.566 225.563 196.206 226.576C194.819 227.616 192.913 228.136 190.486 228.136C187.393 228.136 185.019 227.309 183.366 225.656C181.713 223.976 180.886 221.536 180.886 218.336C180.886 215.109 181.819 212.629 183.686 210.896C185.579 209.163 188.206 208.296 191.566 208.296C193.939 208.296 195.753 208.763 197.006 209.696C198.259 210.603 198.886 211.749 198.886 213.136C198.886 214.523 198.579 215.536 197.966 216.176C197.379 216.816 196.553 217.136 195.486 217.136C194.446 217.136 193.606 216.856 192.966 216.296C192.326 215.736 192.006 214.909 192.006 213.816C192.006 213.336 192.073 212.856 192.206 212.376H193.526C193.713 211.843 193.806 211.363 193.806 210.936C193.806 209.656 193.166 209.016 191.886 209.016ZM204.622 222.016V209.416H202.422V208.696H204.622V203.536L212.062 201.696V208.696H217.262V209.416H212.062V222.896C212.062 224.149 212.182 225.069 212.422 225.656C212.689 226.243 213.222 226.536 214.022 226.536C214.822 226.536 215.515 226.136 216.102 225.336C216.715 224.536 217.115 223.443 217.302 222.056L217.982 222.136C217.769 223.976 217.182 225.443 216.222 226.536C215.262 227.603 213.675 228.136 211.462 228.136C209.249 228.136 207.555 227.696 206.382 226.816C205.209 225.936 204.622 224.336 204.622 222.016ZM230.952 199.736H242.712C246.738 199.736 249.738 200.323 251.712 201.496C253.685 202.643 254.672 204.709 254.672 207.696C254.672 211.003 253.472 213.283 251.072 214.536C248.832 215.683 245.698 216.256 241.672 216.256H241.352V226.976H246.352V227.736H230.952V226.976H233.552V200.496H230.952V199.736ZM241.352 200.496V215.496H242.192C243.792 215.496 244.898 214.949 245.512 213.856C246.125 212.763 246.432 210.989 246.432 208.536V206.616C246.432 204.349 246.138 202.763 245.552 201.856C244.992 200.949 243.952 200.496 242.432 200.496H241.352ZM272.063 209.816C271.077 209.816 270.21 210.456 269.463 211.736C268.717 213.016 268.343 214.536 268.343 216.296V227.016H271.183V227.736H258.703V227.016H260.903V209.416H258.703V208.696H268.343V212.536C268.69 211.176 269.357 210.136 270.343 209.416C271.33 208.669 272.45 208.296 273.703 208.296C274.957 208.296 275.97 208.656 276.743 209.376C277.543 210.069 277.943 211.069 277.943 212.376C277.943 213.656 277.65 214.643 277.063 215.336C276.477 216.029 275.57 216.376 274.343 216.376C273.143 216.376 272.25 215.976 271.663 215.176C271.103 214.376 271.037 213.269 271.463 211.856H272.903C273.57 210.496 273.29 209.816 272.063 209.816ZM293.833 219.856V216.456C293.833 213.869 293.686 211.989 293.393 210.816C293.126 209.616 292.486 209.016 291.473 209.016C290.886 209.016 290.406 209.189 290.033 209.536C289.686 209.856 289.433 210.403 289.273 211.176C289.033 212.376 288.913 214.203 288.913 216.656V219.776C288.913 222.683 288.993 224.429 289.153 225.016C289.339 225.603 289.526 226.083 289.713 226.456C290.006 227.096 290.579 227.416 291.433 227.416C292.473 227.416 293.153 226.816 293.473 225.616C293.713 224.763 293.833 222.843 293.833 219.856ZM291.353 228.136C288.019 228.136 285.499 227.283 283.793 225.576C282.086 223.869 281.233 221.429 281.233 218.256C281.233 215.056 282.139 212.603 283.953 210.896C285.793 209.163 288.366 208.296 291.673 208.296C294.979 208.296 297.446 209.096 299.073 210.696C300.699 212.269 301.513 214.683 301.513 217.936C301.513 224.736 298.126 228.136 291.353 228.136ZM305.231 208.696H314.871V212.376C315.751 209.656 317.685 208.296 320.671 208.296C323.685 208.296 325.511 209.736 326.151 212.616C327.085 209.736 329.045 208.296 332.031 208.296C335.951 208.296 337.911 210.523 337.911 214.976V227.016H340.151V227.736H329.071V227.016H330.471V214.016C330.471 211.989 330.298 210.803 329.951 210.456C329.791 210.296 329.578 210.216 329.311 210.216C328.538 210.216 327.858 210.736 327.271 211.776C326.685 212.816 326.391 214.136 326.391 215.736V227.016H327.831V227.736H317.551V227.016H318.951V214.016C318.951 211.989 318.778 210.803 318.431 210.456C318.271 210.296 318.058 210.216 317.791 210.216C317.045 210.216 316.365 210.789 315.751 211.936C315.165 213.056 314.871 214.403 314.871 215.976V227.016H316.311V227.736H305.231V227.016H307.431V209.416H305.231V208.696ZM356.259 219.856V216.456C356.259 213.869 356.113 211.989 355.819 210.816C355.553 209.616 354.913 209.016 353.899 209.016C353.313 209.016 352.833 209.189 352.459 209.536C352.113 209.856 351.859 210.403 351.699 211.176C351.459 212.376 351.339 214.203 351.339 216.656V219.776C351.339 222.683 351.419 224.429 351.579 225.016C351.766 225.603 351.953 226.083 352.139 226.456C352.433 227.096 353.006 227.416 353.859 227.416C354.899 227.416 355.579 226.816 355.899 225.616C356.139 224.763 356.259 222.843 356.259 219.856ZM353.779 228.136C350.446 228.136 347.926 227.283 346.219 225.576C344.513 223.869 343.659 221.429 343.659 218.256C343.659 215.056 344.566 212.603 346.379 210.896C348.219 209.163 350.793 208.296 354.099 208.296C357.406 208.296 359.873 209.096 361.499 210.696C363.126 212.269 363.939 214.683 363.939 217.936C363.939 224.736 360.553 228.136 353.779 228.136ZM369.658 222.016V209.416H367.458V208.696H369.658V203.536L377.098 201.696V208.696H382.298V209.416H377.098V222.896C377.098 224.149 377.218 225.069 377.458 225.656C377.725 226.243 378.258 226.536 379.058 226.536C379.858 226.536 380.551 226.136 381.138 225.336C381.751 224.536 382.151 223.443 382.338 222.056L383.018 222.136C382.805 223.976 382.218 225.443 381.258 226.536C380.298 227.603 378.711 228.136 376.498 228.136C374.285 228.136 372.591 227.696 371.418 226.816C370.245 225.936 369.658 224.336 369.658 222.016ZM391.88 205.936C390.467 205.936 389.454 205.576 388.84 204.856C388.254 204.136 387.96 203.243 387.96 202.176C387.96 201.109 388.28 200.229 388.92 199.536C389.587 198.843 390.587 198.496 391.92 198.496C393.254 198.496 394.267 198.816 394.96 199.456C395.654 200.069 396 200.963 396 202.136C396 203.283 395.667 204.203 395 204.896C394.334 205.589 393.294 205.936 391.88 205.936ZM385.84 208.696H395.64V227.016H397.88V227.736H386V227.016H388.2V209.416H385.84V208.696ZM414.216 219.856V216.456C414.216 213.869 414.069 211.989 413.776 210.816C413.509 209.616 412.869 209.016 411.856 209.016C411.269 209.016 410.789 209.189 410.416 209.536C410.069 209.856 409.816 210.403 409.656 211.176C409.416 212.376 409.296 214.203 409.296 216.656V219.776C409.296 222.683 409.376 224.429 409.536 225.016C409.722 225.603 409.909 226.083 410.096 226.456C410.389 227.096 410.962 227.416 411.816 227.416C412.856 227.416 413.536 226.816 413.856 225.616C414.096 224.763 414.216 222.843 414.216 219.856ZM411.736 228.136C408.402 228.136 405.882 227.283 404.176 225.576C402.469 223.869 401.616 221.429 401.616 218.256C401.616 215.056 402.522 212.603 404.336 210.896C406.176 209.163 408.749 208.296 412.056 208.296C415.362 208.296 417.829 209.096 419.456 210.696C421.082 212.269 421.896 214.683 421.896 217.936C421.896 224.736 418.509 228.136 411.736 228.136ZM425.694 208.696H435.334V212.376C435.761 211.149 436.414 210.163 437.294 209.416C438.174 208.669 439.508 208.296 441.294 208.296C445.428 208.296 447.494 210.523 447.494 214.976V227.016H449.734V227.736H438.414V227.016H440.054V214.016C440.054 212.416 439.948 211.389 439.734 210.936C439.521 210.456 439.134 210.216 438.574 210.216C437.721 210.216 436.961 210.776 436.294 211.896C435.654 213.016 435.334 214.376 435.334 215.976V227.016H437.054V227.736H425.694V227.016H427.894V209.416H425.694V208.696Z" fill="#6F7DCF"/>
<circle cx="37.9014" cy="48.2483" r="2.10769" fill="#7B86C5"/>
<circle cx="58.2117" cy="48.2481" r="2.10769" fill="#7B86C5"/>
<circle cx="78.5222" cy="48.2481" r="2.10769" fill="#7B86C5"/>
<circle cx="98.8328" cy="48.2481" r="2.10769" fill="#7B86C5"/>
<circle cx="119.143" cy="48.2481" r="2.10769" fill="#7B86C5"/>
<circle cx="139.454" cy="48.2481" r="2.10769" fill="#7B86C5"/>
<circle cx="159.764" cy="48.2481" r="2.10769" fill="#7B86C5"/>
<circle cx="180.075" cy="48.2481" r="2.10769" fill="#7B86C5"/>
<circle cx="200.385" cy="48.2481" r="2.10769" fill="#7B86C5"/>
<circle cx="220.696" cy="48.2481" r="2.10769" fill="#7B86C5"/>
<circle cx="239.09" cy="48.2481" r="2.10769" fill="#7B86C5"/>
<circle cx="259.401" cy="48.2481" r="2.10769" fill="#7B86C5"/>
<circle cx="279.711" cy="48.2481" r="2.10769" fill="#7B86C5"/>
<circle cx="300.022" cy="48.2481" r="2.10769" fill="#7B86C5"/>
<circle cx="320.332" cy="48.2481" r="2.10769" fill="#7B86C5"/>
<circle cx="340.643" cy="48.2481" r="2.10769" fill="#7B86C5"/>
<circle cx="360.953" cy="48.2481" r="2.10769" fill="#7B86C5"/>
<circle cx="381.264" cy="48.2481" r="2.10769" fill="#7B86C5"/>
<circle cx="401.574" cy="48.2481" r="2.10769" fill="#7B86C5"/>
<circle cx="421.885" cy="48.2481" r="2.10769" fill="#7B86C5"/>
<circle cx="442.195" cy="48.2481" r="2.10769" fill="#7B86C5"/>
<circle cx="462.506" cy="48.2481" r="2.10769" fill="#7B86C5"/>
<circle cx="482.816" cy="48.2481" r="2.10769" fill="#7B86C5"/>
<circle cx="503.126" cy="48.2481" r="2.10769" fill="#7B86C5"/>
<circle cx="523.437" cy="48.2481" r="2.10769" fill="#7B86C5"/>
<circle cx="37.9011" cy="67.0259" r="2.10769" fill="#7B86C5"/>
<circle cx="58.2117" cy="67.0259" r="2.10769" fill="#7B86C5"/>
<circle cx="78.5222" cy="67.0259" r="2.10769" fill="#7B86C5"/>
<circle cx="98.8325" cy="67.0259" r="2.10769" fill="#7B86C5"/>
<circle cx="119.143" cy="67.0259" r="2.10769" fill="#7B86C5"/>
<circle cx="139.454" cy="67.0259" r="2.10769" fill="#7B86C5"/>
<circle cx="159.764" cy="67.0259" r="2.10769" fill="#7B86C5"/>
<circle cx="180.074" cy="67.0259" r="2.10769" fill="#7B86C5"/>
<circle cx="200.385" cy="67.0259" r="2.10769" fill="#7B86C5"/>
<circle cx="220.695" cy="67.0259" r="2.10769" fill="#7B86C5"/>
<circle cx="239.09" cy="67.0259" r="2.10769" fill="#7B86C5"/>
<circle cx="259.401" cy="67.0259" r="2.10769" fill="#7B86C5"/>
<circle cx="279.711" cy="67.0259" r="2.10769" fill="#7B86C5"/>
<circle cx="300.022" cy="67.0259" r="2.10769" fill="#7B86C5"/>
<circle cx="320.332" cy="67.0259" r="2.10769" fill="#7B86C5"/>
<circle cx="340.642" cy="67.0259" r="2.10769" fill="#7B86C5"/>
<circle cx="360.953" cy="67.0259" r="2.10769" fill="#7B86C5"/>
<circle cx="381.263" cy="67.0259" r="2.10769" fill="#7B86C5"/>
<circle cx="401.574" cy="67.0259" r="2.10769" fill="#7B86C5"/>
<circle cx="421.884" cy="67.0259" r="2.10769" fill="#7B86C5"/>
<circle cx="442.195" cy="67.0259" r="2.10769" fill="#7B86C5"/>
<circle cx="462.505" cy="67.0259" r="2.10769" fill="#7B86C5"/>
<circle cx="482.816" cy="67.0259" r="2.10769" fill="#7B86C5"/>
<circle cx="503.126" cy="67.0259" r="2.10769" fill="#7B86C5"/>
<circle cx="523.437" cy="67.0259" r="2.10769" fill="#7B86C5"/>
<circle cx="37.9011" cy="85.8032" r="2.10769" fill="#7B86C5"/>
<circle cx="58.2117" cy="85.8032" r="2.10769" fill="#7B86C5"/>
<circle cx="78.5222" cy="85.8032" r="2.10769" fill="#7B86C5"/>
<circle cx="98.8325" cy="85.8032" r="2.10769" fill="#7B86C5"/>
<circle cx="119.143" cy="85.8032" r="2.10769" fill="#7B86C5"/>
<circle cx="139.454" cy="85.8032" r="2.10769" fill="#7B86C5"/>
<circle cx="159.764" cy="85.8032" r="2.10769" fill="#7B86C5"/>
<circle cx="180.074" cy="85.8032" r="2.10769" fill="#7B86C5"/>
<circle cx="200.385" cy="85.8032" r="2.10769" fill="#7B86C5"/>
<circle cx="220.695" cy="85.8032" r="2.10769" fill="#7B86C5"/>
<circle cx="239.09" cy="85.8032" r="2.10769" fill="#7B86C5"/>
<circle cx="259.401" cy="85.8032" r="2.10769" fill="#7B86C5"/>
<circle cx="279.711" cy="85.8032" r="2.10769" fill="#7B86C5"/>
<circle cx="300.022" cy="85.8032" r="2.10769" fill="#7B86C5"/>
<circle cx="320.332" cy="85.8032" r="2.10769" fill="#7B86C5"/>
<circle cx="340.642" cy="85.8032" r="2.10769" fill="#7B86C5"/>
<circle cx="360.953" cy="85.8032" r="2.10769" fill="#7B86C5"/>
<circle cx="381.263" cy="85.8032" r="2.10769" fill="#7B86C5"/>
<circle cx="401.574" cy="85.8032" r="2.10769" fill="#7B86C5"/>
<circle cx="421.884" cy="85.8032" r="2.10769" fill="#7B86C5"/>
<circle cx="442.195" cy="85.8032" r="2.10769" fill="#7B86C5"/>
<circle cx="462.505" cy="85.8032" r="2.10769" fill="#7B86C5"/>
<circle cx="482.816" cy="85.8032" r="2.10769" fill="#7B86C5"/>
<circle cx="503.126" cy="85.8032" r="2.10769" fill="#7B86C5"/>
<circle cx="523.437" cy="85.8032" r="2.10769" fill="#7B86C5"/>
<circle cx="37.9011" cy="104.581" r="2.10769" fill="#7B86C5"/>
<circle cx="58.2117" cy="104.581" r="2.10769" fill="#7B86C5"/>
<circle cx="78.5222" cy="104.581" r="2.10769" fill="#7B86C5"/>
<circle cx="98.8325" cy="104.581" r="2.10769" fill="#7B86C5"/>
<circle cx="119.143" cy="104.581" r="2.10769" fill="#7B86C5"/>
<circle cx="139.454" cy="104.581" r="2.10769" fill="#7B86C5"/>
<circle cx="159.764" cy="104.581" r="2.10769" fill="#7B86C5"/>
<circle cx="180.074" cy="104.581" r="2.10769" fill="#7B86C5"/>
<circle cx="200.385" cy="104.581" r="2.10769" fill="#7B86C5"/>
<circle cx="220.695" cy="104.581" r="2.10769" fill="#7B86C5"/>
<circle cx="239.09" cy="104.581" r="2.10769" fill="#7B86C5"/>
<circle cx="259.401" cy="104.581" r="2.10769" fill="#7B86C5"/>
<circle cx="279.711" cy="104.581" r="2.10769" fill="#7B86C5"/>
<circle cx="300.022" cy="104.581" r="2.10769" fill="#7B86C5"/>
<circle cx="320.332" cy="104.581" r="2.10769" fill="#7B86C5"/>
<circle cx="340.642" cy="104.581" r="2.10769" fill="#7B86C5"/>
<circle cx="360.953" cy="104.581" r="2.10769" fill="#7B86C5"/>
<circle cx="381.263" cy="104.581" r="2.10769" fill="#7B86C5"/>
<circle cx="401.574" cy="104.581" r="2.10769" fill="#7B86C5"/>
<circle cx="421.884" cy="104.581" r="2.10769" fill="#7B86C5"/>
<circle cx="442.195" cy="104.581" r="2.10769" fill="#7B86C5"/>
<circle cx="462.505" cy="104.581" r="2.10769" fill="#7B86C5"/>
<circle cx="482.816" cy="104.581" r="2.10769" fill="#7B86C5"/>
<circle cx="503.126" cy="104.581" r="2.10769" fill="#7B86C5"/>
<circle cx="523.437" cy="104.581" r="2.10769" fill="#7B86C5"/>
<circle cx="37.9011" cy="123.358" r="2.10769" fill="#7B86C5"/>
<circle cx="58.2117" cy="123.358" r="2.10769" fill="#7B86C5"/>
<circle cx="78.5222" cy="123.358" r="2.10769" fill="#7B86C5"/>
<circle cx="98.8325" cy="123.358" r="2.10769" fill="#7B86C5"/>
<circle cx="119.143" cy="123.358" r="2.10769" fill="#7B86C5"/>
<circle cx="139.454" cy="123.358" r="2.10769" fill="#7B86C5"/>
<circle cx="159.764" cy="123.358" r="2.10769" fill="#7B86C5"/>
<circle cx="180.074" cy="123.358" r="2.10769" fill="#7B86C5"/>
<circle cx="200.385" cy="123.358" r="2.10769" fill="#7B86C5"/>
<circle cx="220.695" cy="123.358" r="2.10769" fill="#7B86C5"/>
<circle cx="239.09" cy="123.358" r="2.10769" fill="#7B86C5"/>
<circle cx="259.401" cy="123.358" r="2.10769" fill="#7B86C5"/>
<circle cx="279.711" cy="123.358" r="2.10769" fill="#7B86C5"/>
<circle cx="300.022" cy="123.358" r="2.10769" fill="#7B86C5"/>
<circle cx="320.332" cy="123.358" r="2.10769" fill="#7B86C5"/>
<circle cx="340.642" cy="123.358" r="2.10769" fill="#7B86C5"/>
<circle cx="360.953" cy="123.358" r="2.10769" fill="#7B86C5"/>
<circle cx="381.263" cy="123.358" r="2.10769" fill="#7B86C5"/>
<circle cx="401.574" cy="123.358" r="2.10769" fill="#7B86C5"/>
<circle cx="421.884" cy="123.358" r="2.10769" fill="#7B86C5"/>
<circle cx="442.195" cy="123.358" r="2.10769" fill="#7B86C5"/>
<circle cx="462.505" cy="123.358" r="2.10769" fill="#7B86C5"/>
<circle cx="482.816" cy="123.358" r="2.10769" fill="#7B86C5"/>
<circle cx="503.126" cy="123.358" r="2.10769" fill="#7B86C5"/>
<circle cx="523.437" cy="123.358" r="2.10769" fill="#7B86C5"/>
<circle cx="37.9011" cy="142.136" r="2.10769" fill="#7B86C5"/>
<circle cx="58.2117" cy="142.136" r="2.10769" fill="#7B86C5"/>
<circle cx="78.5222" cy="142.136" r="2.10769" fill="#7B86C5"/>
<circle cx="98.8325" cy="142.136" r="2.10769" fill="#7B86C5"/>
<circle cx="119.143" cy="142.136" r="2.10769" fill="#7B86C5"/>
<circle cx="139.454" cy="142.136" r="2.10769" fill="#7B86C5"/>
<circle cx="159.764" cy="142.136" r="2.10769" fill="#7B86C5"/>
<circle cx="180.074" cy="142.136" r="2.10769" fill="#7B86C5"/>
<circle cx="200.385" cy="142.136" r="2.10769" fill="#7B86C5"/>
<circle cx="220.695" cy="142.136" r="2.10769" fill="#7B86C5"/>
<circle cx="239.09" cy="142.136" r="2.10769" fill="#7B86C5"/>
<circle cx="259.401" cy="142.136" r="2.10769" fill="#7B86C5"/>
<circle cx="279.711" cy="142.136" r="2.10769" fill="#7B86C5"/>
<circle cx="300.022" cy="142.136" r="2.10769" fill="#7B86C5"/>
<circle cx="320.332" cy="142.136" r="2.10769" fill="#7B86C5"/>
<circle cx="340.642" cy="142.136" r="2.10769" fill="#7B86C5"/>
<circle cx="360.953" cy="142.136" r="2.10769" fill="#7B86C5"/>
<circle cx="381.263" cy="142.136" r="2.10769" fill="#7B86C5"/>
<circle cx="401.574" cy="142.136" r="2.10769" fill="#7B86C5"/>
<circle cx="421.884" cy="142.136" r="2.10769" fill="#7B86C5"/>
<circle cx="442.195" cy="142.136" r="2.10769" fill="#7B86C5"/>
<circle cx="462.505" cy="142.136" r="2.10769" fill="#7B86C5"/>
<circle cx="482.816" cy="142.136" r="2.10769" fill="#7B86C5"/>
<circle cx="503.126" cy="142.136" r="2.10769" fill="#7B86C5"/>
<circle cx="523.437" cy="142.136" r="2.10769" fill="#7B86C5"/>
<circle cx="37.9014" cy="502.648" r="2.10769" fill="#7B86C5"/>
<circle cx="58.2117" cy="502.648" r="2.10769" fill="#7B86C5"/>
<circle cx="78.5222" cy="502.648" r="2.10769" fill="#7B86C5"/>
<circle cx="98.8328" cy="502.648" r="2.10769" fill="#7B86C5"/>
<circle cx="119.143" cy="502.648" r="2.10769" fill="#7B86C5"/>
<circle cx="139.454" cy="502.648" r="2.10769" fill="#7B86C5"/>
<circle cx="159.764" cy="502.648" r="2.10769" fill="#7B86C5"/>
<circle cx="180.075" cy="502.648" r="2.10769" fill="#7B86C5"/>
<circle cx="200.385" cy="502.648" r="2.10769" fill="#7B86C5"/>
<circle cx="220.696" cy="502.648" r="2.10769" fill="#7B86C5"/>
<circle cx="239.09" cy="502.648" r="2.10769" fill="#7B86C5"/>
<circle cx="259.401" cy="502.648" r="2.10769" fill="#7B86C5"/>
<circle cx="279.711" cy="502.648" r="2.10769" fill="#7B86C5"/>
<circle cx="300.022" cy="502.648" r="2.10769" fill="#7B86C5"/>
<circle cx="320.332" cy="502.648" r="2.10769" fill="#7B86C5"/>
<circle cx="340.643" cy="502.648" r="2.10769" fill="#7B86C5"/>
<circle cx="360.953" cy="502.648" r="2.10769" fill="#7B86C5"/>
<circle cx="381.264" cy="502.648" r="2.10769" fill="#7B86C5"/>
<circle cx="401.574" cy="502.648" r="2.10769" fill="#7B86C5"/>
<circle cx="421.885" cy="502.648" r="2.10769" fill="#7B86C5"/>
<circle cx="442.195" cy="502.648" r="2.10769" fill="#7B86C5"/>
<circle cx="462.506" cy="502.648" r="2.10769" fill="#7B86C5"/>
<circle cx="482.816" cy="502.648" r="2.10769" fill="#7B86C5"/>
<circle cx="503.126" cy="502.648" r="2.10769" fill="#7B86C5"/>
<circle cx="523.437" cy="502.648" r="2.10769" fill="#7B86C5"/>
<circle cx="37.9011" cy="520.276" r="2.10769" fill="#7B86C5"/>
<circle cx="58.2117" cy="520.276" r="2.10769" fill="#7B86C5"/>
<circle cx="78.5222" cy="520.276" r="2.10769" fill="#7B86C5"/>
<circle cx="98.8325" cy="520.276" r="2.10769" fill="#7B86C5"/>
<circle cx="119.143" cy="520.276" r="2.10769" fill="#7B86C5"/>
<circle cx="139.454" cy="520.276" r="2.10769" fill="#7B86C5"/>
<circle cx="159.764" cy="520.276" r="2.10769" fill="#7B86C5"/>
<circle cx="180.074" cy="520.276" r="2.10769" fill="#7B86C5"/>
<circle cx="200.385" cy="520.276" r="2.10769" fill="#7B86C5"/>
<circle cx="220.695" cy="520.276" r="2.10769" fill="#7B86C5"/>
<circle cx="239.09" cy="520.276" r="2.10769" fill="#7B86C5"/>
<circle cx="259.401" cy="520.276" r="2.10769" fill="#7B86C5"/>
<circle cx="279.711" cy="520.276" r="2.10769" fill="#7B86C5"/>
<circle cx="300.022" cy="520.276" r="2.10769" fill="#7B86C5"/>
<circle cx="320.332" cy="520.276" r="2.10769" fill="#7B86C5"/>
<circle cx="340.642" cy="520.276" r="2.10769" fill="#7B86C5"/>
<circle cx="360.953" cy="520.276" r="2.10769" fill="#7B86C5"/>
<circle cx="381.263" cy="520.276" r="2.10769" fill="#7B86C5"/>
<circle cx="401.574" cy="520.276" r="2.10769" fill="#7B86C5"/>
<circle cx="421.884" cy="520.276" r="2.10769" fill="#7B86C5"/>
<circle cx="442.195" cy="520.276" r="2.10769" fill="#7B86C5"/>
<circle cx="462.505" cy="520.276" r="2.10769" fill="#7B86C5"/>
<circle cx="482.816" cy="520.276" r="2.10769" fill="#7B86C5"/>
<circle cx="503.126" cy="520.276" r="2.10769" fill="#7B86C5"/>
<circle cx="523.437" cy="520.276" r="2.10769" fill="#7B86C5"/>
<circle cx="37.9014" cy="537.904" r="2.10769" fill="#7B86C5"/>
<circle cx="58.2117" cy="537.904" r="2.10769" fill="#7B86C5"/>
<circle cx="78.5222" cy="537.904" r="2.10769" fill="#7B86C5"/>
<circle cx="98.8325" cy="537.904" r="2.10769" fill="#7B86C5"/>
<circle cx="119.143" cy="537.904" r="2.10769" fill="#7B86C5"/>
<circle cx="139.454" cy="537.904" r="2.10769" fill="#7B86C5"/>
<circle cx="159.764" cy="537.904" r="2.10769" fill="#7B86C5"/>
<circle cx="180.074" cy="537.904" r="2.10769" fill="#7B86C5"/>
<circle cx="200.385" cy="537.904" r="2.10769" fill="#7B86C5"/>
<circle cx="220.696" cy="537.904" r="2.10769" fill="#7B86C5"/>
<circle cx="239.09" cy="537.904" r="2.10769" fill="#7B86C5"/>
<circle cx="259.401" cy="537.904" r="2.10769" fill="#7B86C5"/>
<circle cx="279.711" cy="537.904" r="2.10769" fill="#7B86C5"/>
<circle cx="300.022" cy="537.904" r="2.10769" fill="#7B86C5"/>
<circle cx="320.332" cy="537.904" r="2.10769" fill="#7B86C5"/>
<circle cx="340.642" cy="537.904" r="2.10769" fill="#7B86C5"/>
<circle cx="360.953" cy="537.904" r="2.10769" fill="#7B86C5"/>
<circle cx="381.263" cy="537.904" r="2.10769" fill="#7B86C5"/>
<circle cx="401.574" cy="537.904" r="2.10769" fill="#7B86C5"/>
<circle cx="421.884" cy="537.904" r="2.10769" fill="#7B86C5"/>
<circle cx="442.195" cy="537.904" r="2.10769" fill="#7B86C5"/>
<circle cx="462.505" cy="537.904" r="2.10769" fill="#7B86C5"/>
<circle cx="482.816" cy="537.904" r="2.10769" fill="#7B86C5"/>
<circle cx="503.126" cy="537.904" r="2.10769" fill="#7B86C5"/>
<circle cx="523.437" cy="537.904" r="2.10769" fill="#7B86C5"/>
<circle cx="37.9011" cy="555.532" r="2.10769" fill="#7B86C5"/>
<circle cx="58.2117" cy="555.532" r="2.10769" fill="#7B86C5"/>
<circle cx="78.5222" cy="555.532" r="2.10769" fill="#7B86C5"/>
<circle cx="98.8325" cy="555.532" r="2.10769" fill="#7B86C5"/>
<circle cx="119.143" cy="555.532" r="2.10769" fill="#7B86C5"/>
<circle cx="139.454" cy="555.532" r="2.10769" fill="#7B86C5"/>
<circle cx="159.764" cy="555.532" r="2.10769" fill="#7B86C5"/>
<circle cx="180.074" cy="555.532" r="2.10769" fill="#7B86C5"/>
<circle cx="200.385" cy="555.532" r="2.10769" fill="#7B86C5"/>
<circle cx="220.695" cy="555.532" r="2.10769" fill="#7B86C5"/>
<circle cx="239.09" cy="555.532" r="2.10769" fill="#7B86C5"/>
<circle cx="259.401" cy="555.532" r="2.10769" fill="#7B86C5"/>
<circle cx="279.711" cy="555.532" r="2.10769" fill="#7B86C5"/>
<circle cx="300.022" cy="555.532" r="2.10769" fill="#7B86C5"/>
<circle cx="320.332" cy="555.532" r="2.10769" fill="#7B86C5"/>
<circle cx="340.642" cy="555.532" r="2.10769" fill="#7B86C5"/>
<circle cx="360.953" cy="555.532" r="2.10769" fill="#7B86C5"/>
<circle cx="381.263" cy="555.532" r="2.10769" fill="#7B86C5"/>
<circle cx="401.574" cy="555.532" r="2.10769" fill="#7B86C5"/>
<circle cx="421.884" cy="555.532" r="2.10769" fill="#7B86C5"/>
<circle cx="442.195" cy="555.532" r="2.10769" fill="#7B86C5"/>
<circle cx="462.505" cy="555.532" r="2.10769" fill="#7B86C5"/>
<circle cx="482.816" cy="555.532" r="2.10769" fill="#7B86C5"/>
<circle cx="503.126" cy="555.532" r="2.10769" fill="#7B86C5"/>
<circle cx="523.437" cy="555.532" r="2.10769" fill="#7B86C5"/>
<circle cx="37.9011" cy="573.16" r="2.10769" fill="#7B86C5"/>
<circle cx="58.2117" cy="573.16" r="2.10769" fill="#7B86C5"/>
<circle cx="78.5222" cy="573.16" r="2.10769" fill="#7B86C5"/>
<circle cx="98.8325" cy="573.16" r="2.10769" fill="#7B86C5"/>
<circle cx="119.143" cy="573.16" r="2.10769" fill="#7B86C5"/>
<circle cx="139.454" cy="573.16" r="2.10769" fill="#7B86C5"/>
<circle cx="159.764" cy="573.16" r="2.10769" fill="#7B86C5"/>
<circle cx="180.074" cy="573.16" r="2.10769" fill="#7B86C5"/>
<circle cx="200.385" cy="573.16" r="2.10769" fill="#7B86C5"/>
<circle cx="220.695" cy="573.16" r="2.10769" fill="#7B86C5"/>
<circle cx="239.09" cy="573.16" r="2.10769" fill="#7B86C5"/>
<circle cx="259.401" cy="573.16" r="2.10769" fill="#7B86C5"/>
<circle cx="279.711" cy="573.16" r="2.10769" fill="#7B86C5"/>
<circle cx="300.022" cy="573.16" r="2.10769" fill="#7B86C5"/>
<circle cx="320.332" cy="573.16" r="2.10769" fill="#7B86C5"/>
<circle cx="340.642" cy="573.16" r="2.10769" fill="#7B86C5"/>
<circle cx="360.953" cy="573.16" r="2.10769" fill="#7B86C5"/>
<circle cx="381.263" cy="573.16" r="2.10769" fill="#7B86C5"/>
<circle cx="401.574" cy="573.16" r="2.10769" fill="#7B86C5"/>
<circle cx="421.884" cy="573.16" r="2.10769" fill="#7B86C5"/>
<circle cx="442.195" cy="573.16" r="2.10769" fill="#7B86C5"/>
<circle cx="462.505" cy="573.16" r="2.10769" fill="#7B86C5"/>
<circle cx="482.816" cy="573.16" r="2.10769" fill="#7B86C5"/>
<circle cx="503.126" cy="573.16" r="2.10769" fill="#7B86C5"/>
<circle cx="523.437" cy="573.16" r="2.10769" fill="#7B86C5"/>
<circle cx="37.9011" cy="590.788" r="2.10769" fill="#7B86C5"/>
<circle cx="58.2117" cy="590.788" r="2.10769" fill="#7B86C5"/>
<circle cx="78.5222" cy="590.788" r="2.10769" fill="#7B86C5"/>
<circle cx="98.8325" cy="590.788" r="2.10769" fill="#7B86C5"/>
<circle cx="119.143" cy="590.788" r="2.10769" fill="#7B86C5"/>
<circle cx="139.454" cy="590.788" r="2.10769" fill="#7B86C5"/>
<circle cx="159.764" cy="590.788" r="2.10769" fill="#7B86C5"/>
<circle cx="180.074" cy="590.788" r="2.10769" fill="#7B86C5"/>
<circle cx="200.385" cy="590.788" r="2.10769" fill="#7B86C5"/>
<circle cx="220.695" cy="590.788" r="2.10769" fill="#7B86C5"/>
<circle cx="239.09" cy="590.788" r="2.10769" fill="#7B86C5"/>
<circle cx="259.401" cy="590.788" r="2.10769" fill="#7B86C5"/>
<circle cx="279.711" cy="590.788" r="2.10769" fill="#7B86C5"/>
<circle cx="300.022" cy="590.788" r="2.10769" fill="#7B86C5"/>
<circle cx="320.332" cy="590.788" r="2.10769" fill="#7B86C5"/>
<circle cx="340.642" cy="590.788" r="2.10769" fill="#7B86C5"/>
<circle cx="360.953" cy="590.788" r="2.10769" fill="#7B86C5"/>
<circle cx="381.263" cy="590.788" r="2.10769" fill="#7B86C5"/>
<circle cx="401.574" cy="590.788" r="2.10769" fill="#7B86C5"/>
<circle cx="421.884" cy="590.788" r="2.10769" fill="#7B86C5"/>
<circle cx="442.195" cy="590.788" r="2.10769" fill="#7B86C5"/>
<circle cx="462.505" cy="590.788" r="2.10769" fill="#7B86C5"/>
<circle cx="482.816" cy="590.788" r="2.10769" fill="#7B86C5"/>
<circle cx="503.126" cy="590.788" r="2.10769" fill="#7B86C5"/>
<circle cx="523.437" cy="590.788" r="2.10769" fill="#7B86C5"/>
<path d="M57.1807 269.501V274.808H64.4424V276.505H57.1807V282.317H55.1289V267.826H64.7002V269.501H57.1807ZM77.4834 272.456C76.6813 272.319 75.9222 272.251 75.2061 272.251C74.0531 272.251 73.1221 272.685 72.4131 273.551C71.7041 274.418 71.3496 275.521 71.3496 276.86V282.317H69.416V274.787C69.416 274.242 69.3659 273.601 69.2656 272.864C69.1725 272.126 69.0365 271.403 68.8574 270.694H70.6943C70.9808 271.682 71.1527 272.577 71.21 273.379H71.2637C71.6217 272.577 71.9727 271.99 72.3164 271.618C72.6602 271.238 73.0684 270.955 73.541 270.769C74.0137 270.576 74.5902 270.479 75.2705 270.479C76.0153 270.479 76.7529 270.54 77.4834 270.662V272.456ZM91.2549 276.495C91.2549 278.45 90.8037 279.946 89.9014 280.985C89.0062 282.016 87.71 282.532 86.0127 282.532C84.3512 282.532 83.0765 282.009 82.1885 280.963C81.3076 279.918 80.8672 278.428 80.8672 276.495C80.8672 274.497 81.3184 272.996 82.2207 271.994C83.1302 270.984 84.4157 270.479 86.0771 270.479C87.8245 270.479 89.1243 270.977 89.9766 271.972C90.8288 272.968 91.2549 274.475 91.2549 276.495ZM89.2246 276.495C89.2246 274.955 88.9775 273.806 88.4834 273.046C87.9964 272.287 87.2051 271.908 86.1094 271.908C84.9993 271.908 84.1865 272.294 83.6709 273.068C83.1553 273.841 82.8975 274.984 82.8975 276.495C82.8975 277.999 83.1553 279.144 83.6709 279.932C84.1865 280.713 84.96 281.103 85.9912 281.103C87.1299 281.103 87.9535 280.72 88.4619 279.954C88.9704 279.187 89.2246 278.034 89.2246 276.495ZM98.3877 282.317V274.948C98.3877 273.845 98.2982 273.075 98.1191 272.638C97.9473 272.194 97.6286 271.972 97.1631 271.972C96.7048 271.972 96.3324 272.316 96.0459 273.003C95.7666 273.691 95.627 274.622 95.627 275.796V282.317H93.8115V273.175C93.8115 271.822 93.79 270.995 93.7471 270.694H95.3477L95.4121 272.058V272.574H95.4336C95.6771 271.843 95.985 271.313 96.3574 270.984C96.7298 270.647 97.1953 270.479 97.7539 270.479C98.3841 270.479 98.8532 270.651 99.1611 270.995C99.4762 271.338 99.7018 271.868 99.8379 272.584H99.8594C100.146 271.825 100.486 271.285 100.88 270.962C101.281 270.64 101.786 270.479 102.395 270.479C103.24 270.479 103.845 270.787 104.21 271.403C104.575 272.019 104.758 273.075 104.758 274.572V282.317H102.953V274.948C102.953 273.845 102.864 273.075 102.685 272.638C102.513 272.194 102.194 271.972 101.729 271.972C101.256 271.972 100.88 272.273 100.601 272.875C100.328 273.476 100.192 274.378 100.192 275.582V282.317H98.3877ZM120.506 276.495C120.506 274.561 120.968 273.075 121.892 272.037C122.815 270.998 124.151 270.479 125.898 270.479C127.202 270.479 128.276 270.794 129.121 271.424C129.966 272.047 130.489 272.889 130.689 273.949L128.627 274.099C128.512 273.447 128.226 272.935 127.768 272.563C127.309 272.183 126.658 271.994 125.812 271.994C124.681 271.994 123.85 272.345 123.32 273.046C122.798 273.748 122.536 274.883 122.536 276.452C122.536 278.042 122.798 279.205 123.32 279.943C123.85 280.673 124.677 281.039 125.802 281.039C126.575 281.039 127.216 280.849 127.725 280.469C128.233 280.09 128.548 279.51 128.67 278.729L130.711 278.858C130.618 279.545 130.356 280.172 129.927 280.738C129.504 281.296 128.942 281.737 128.24 282.059C127.538 282.374 126.754 282.532 125.888 282.532C124.133 282.532 122.798 282.016 121.881 280.985C120.964 279.954 120.506 278.457 120.506 276.495ZM144.106 276.495C144.106 278.45 143.655 279.946 142.753 280.985C141.858 282.016 140.562 282.532 138.864 282.532C137.203 282.532 135.928 282.009 135.04 280.963C134.159 279.918 133.719 278.428 133.719 276.495C133.719 274.497 134.17 272.996 135.072 271.994C135.982 270.984 137.267 270.479 138.929 270.479C140.676 270.479 141.976 270.977 142.828 271.972C143.68 272.968 144.106 274.475 144.106 276.495ZM142.076 276.495C142.076 274.955 141.829 273.806 141.335 273.046C140.848 272.287 140.057 271.908 138.961 271.908C137.851 271.908 137.038 272.294 136.522 273.068C136.007 273.841 135.749 274.984 135.749 276.495C135.749 277.999 136.007 279.144 136.522 279.932C137.038 280.713 137.812 281.103 138.843 281.103C139.981 281.103 140.805 280.72 141.313 279.954C141.822 279.187 142.076 278.034 142.076 276.495ZM154.859 282.317V274.851C154.859 273.877 154.67 273.154 154.29 272.681C153.918 272.208 153.32 271.972 152.496 271.972C151.608 271.972 150.878 272.298 150.305 272.95C149.739 273.594 149.456 274.472 149.456 275.582V282.317H147.522V273.175C147.522 271.822 147.501 270.995 147.458 270.694H149.284C149.291 270.73 149.299 270.826 149.306 270.984C149.313 271.141 149.32 271.324 149.327 271.532C149.341 271.732 149.356 272.115 149.37 272.681H149.402C150.154 271.213 151.393 270.479 153.119 270.479C154.358 270.479 155.282 270.816 155.891 271.489C156.499 272.155 156.804 273.182 156.804 274.572V282.317H154.859ZM160.145 276.495C160.145 274.561 160.606 273.075 161.53 272.037C162.454 270.998 163.79 270.479 165.537 270.479C166.84 270.479 167.915 270.794 168.76 271.424C169.605 272.047 170.128 272.889 170.328 273.949L168.266 274.099C168.151 273.447 167.865 272.935 167.406 272.563C166.948 272.183 166.296 271.994 165.451 271.994C164.32 271.994 163.489 272.345 162.959 273.046C162.436 273.748 162.175 274.883 162.175 276.452C162.175 278.042 162.436 279.205 162.959 279.943C163.489 280.673 164.316 281.039 165.44 281.039C166.214 281.039 166.855 280.849 167.363 280.469C167.872 280.09 168.187 279.51 168.309 278.729L170.35 278.858C170.257 279.545 169.995 280.172 169.565 280.738C169.143 281.296 168.581 281.737 167.879 282.059C167.177 282.374 166.393 282.532 165.526 282.532C163.772 282.532 162.436 282.016 161.52 280.985C160.603 279.954 160.145 278.457 160.145 276.495ZM175.42 276.914C175.42 278.217 175.706 279.237 176.279 279.975C176.859 280.713 177.651 281.082 178.653 281.082C179.391 281.082 180.035 280.924 180.587 280.609C181.146 280.287 181.518 279.85 181.704 279.298L183.401 279.782C183.086 280.67 182.506 281.35 181.661 281.823C180.823 282.295 179.821 282.532 178.653 282.532C176.963 282.532 175.663 282.005 174.754 280.953C173.844 279.9 173.39 278.392 173.39 276.43C173.39 274.518 173.834 273.05 174.722 272.026C175.617 270.995 176.906 270.479 178.589 270.479C180.272 270.479 181.547 270.991 182.413 272.015C183.28 273.039 183.713 274.586 183.713 276.656V276.914H175.42ZM178.61 271.908C177.651 271.908 176.892 272.223 176.333 272.853C175.774 273.476 175.477 274.335 175.441 275.431H181.715C181.514 273.082 180.479 271.908 178.61 271.908ZM196.883 276.452C196.883 280.505 195.479 282.532 192.672 282.532C190.91 282.532 189.725 281.873 189.116 280.555H189.062C189.091 280.612 189.105 281.207 189.105 282.338V286.882H187.161V273.1C187.161 271.883 187.14 271.081 187.097 270.694H188.977C188.984 270.722 188.994 270.83 189.009 271.016C189.023 271.195 189.037 271.464 189.052 271.822C189.073 272.173 189.084 272.434 189.084 272.606H189.127C189.485 271.854 189.94 271.31 190.491 270.973C191.05 270.629 191.777 270.458 192.672 270.458C194.09 270.458 195.146 270.948 195.841 271.929C196.535 272.903 196.883 274.411 196.883 276.452ZM194.885 276.452C194.885 274.833 194.666 273.68 194.229 272.993C193.793 272.298 193.105 271.951 192.167 271.951C191.086 271.951 190.305 272.345 189.825 273.132C189.345 273.913 189.105 275.098 189.105 276.688C189.105 278.213 189.345 279.331 189.825 280.04C190.305 280.749 191.078 281.103 192.146 281.103C193.098 281.103 193.793 280.741 194.229 280.018C194.666 279.295 194.885 278.106 194.885 276.452ZM200.428 272.219V270.694H202.254L202.877 267.665H204.166V270.694H208.807V272.219H204.166V279.223C204.166 279.789 204.316 280.208 204.617 280.48C204.925 280.752 205.426 280.888 206.121 280.888C207.081 280.888 208.144 280.766 209.312 280.523V281.995C208.101 282.324 206.902 282.489 205.713 282.489C204.553 282.489 203.683 282.245 203.103 281.758C202.522 281.264 202.232 280.487 202.232 279.427V272.219H200.428ZM226.854 272.219V270.694H228.68L229.303 267.665H230.592V270.694H235.232V272.219H230.592V279.223C230.592 279.789 230.742 280.208 231.043 280.48C231.351 280.752 231.852 280.888 232.547 280.888C233.507 280.888 234.57 280.766 235.737 280.523V281.995C234.527 282.324 233.327 282.489 232.139 282.489C230.979 282.489 230.108 282.245 229.528 281.758C228.948 281.264 228.658 280.487 228.658 279.427V272.219H226.854ZM249.81 276.495C249.81 278.45 249.358 279.946 248.456 280.985C247.561 282.016 246.265 282.532 244.567 282.532C242.906 282.532 241.631 282.009 240.743 280.963C239.862 279.918 239.422 278.428 239.422 276.495C239.422 274.497 239.873 272.996 240.775 271.994C241.685 270.984 242.97 270.479 244.632 270.479C246.379 270.479 247.679 270.977 248.531 271.972C249.383 272.968 249.81 274.475 249.81 276.495ZM247.779 276.495C247.779 274.955 247.532 273.806 247.038 273.046C246.551 272.287 245.76 271.908 244.664 271.908C243.554 271.908 242.741 272.294 242.226 273.068C241.71 273.841 241.452 274.984 241.452 276.495C241.452 277.999 241.71 279.144 242.226 279.932C242.741 280.713 243.515 281.103 244.546 281.103C245.685 281.103 246.508 280.72 247.017 279.954C247.525 279.187 247.779 278.034 247.779 276.495ZM265.848 276.495C265.848 274.561 266.31 273.075 267.233 272.037C268.157 270.998 269.493 270.479 271.24 270.479C272.544 270.479 273.618 270.794 274.463 271.424C275.308 272.047 275.831 272.889 276.031 273.949L273.969 274.099C273.854 273.447 273.568 272.935 273.109 272.563C272.651 272.183 271.999 271.994 271.154 271.994C270.023 271.994 269.192 272.345 268.662 273.046C268.139 273.748 267.878 274.883 267.878 276.452C267.878 278.042 268.139 279.205 268.662 279.943C269.192 280.673 270.019 281.039 271.144 281.039C271.917 281.039 272.558 280.849 273.066 280.469C273.575 280.09 273.89 279.51 274.012 278.729L276.053 278.858C275.96 279.545 275.698 280.172 275.269 280.738C274.846 281.296 274.284 281.737 273.582 282.059C272.88 282.374 272.096 282.532 271.229 282.532C269.475 282.532 268.139 282.016 267.223 280.985C266.306 279.954 265.848 278.457 265.848 276.495ZM289.448 276.495C289.448 278.45 288.997 279.946 288.095 280.985C287.2 282.016 285.903 282.532 284.206 282.532C282.545 282.532 281.27 282.009 280.382 280.963C279.501 279.918 279.061 278.428 279.061 276.495C279.061 274.497 279.512 272.996 280.414 271.994C281.324 270.984 282.609 270.479 284.271 270.479C286.018 270.479 287.318 270.977 288.17 271.972C289.022 272.968 289.448 274.475 289.448 276.495ZM287.418 276.495C287.418 274.955 287.171 273.806 286.677 273.046C286.19 272.287 285.398 271.908 284.303 271.908C283.193 271.908 282.38 272.294 281.864 273.068C281.349 273.841 281.091 274.984 281.091 276.495C281.091 277.999 281.349 279.144 281.864 279.932C282.38 280.713 283.153 281.103 284.185 281.103C285.323 281.103 286.147 280.72 286.655 279.954C287.164 279.187 287.418 278.034 287.418 276.495ZM300.137 280.448C299.786 281.2 299.32 281.748 298.74 282.091C298.16 282.428 297.437 282.596 296.57 282.596C295.124 282.596 294.06 282.098 293.38 281.103C292.7 280.108 292.359 278.607 292.359 276.602C292.359 272.549 293.763 270.522 296.57 270.522C297.437 270.522 298.16 270.676 298.74 270.984C299.327 271.292 299.797 271.797 300.147 272.499H300.169L300.147 270.876V266.375H302.081V279.921C302.081 281.132 302.103 281.93 302.146 282.317H300.298C300.269 282.209 300.244 281.948 300.223 281.533C300.201 281.117 300.19 280.756 300.19 280.448H300.137ZM294.357 276.538C294.357 278.127 294.569 279.288 294.991 280.018C295.421 280.741 296.116 281.103 297.075 281.103C298.121 281.103 298.894 280.727 299.396 279.975C299.897 279.216 300.147 278.013 300.147 276.366C300.147 274.826 299.904 273.705 299.417 273.003C298.937 272.302 298.164 271.951 297.097 271.951C296.13 271.951 295.432 272.319 295.002 273.057C294.572 273.795 294.357 274.955 294.357 276.538ZM307.549 276.914C307.549 278.217 307.835 279.237 308.408 279.975C308.988 280.713 309.78 281.082 310.782 281.082C311.52 281.082 312.164 280.924 312.716 280.609C313.274 280.287 313.647 279.85 313.833 279.298L315.53 279.782C315.215 280.67 314.635 281.35 313.79 281.823C312.952 282.295 311.95 282.532 310.782 282.532C309.092 282.532 307.792 282.005 306.883 280.953C305.973 279.9 305.519 278.392 305.519 276.43C305.519 274.518 305.963 273.05 306.851 272.026C307.746 270.995 309.035 270.479 310.718 270.479C312.401 270.479 313.675 270.991 314.542 272.015C315.409 273.039 315.842 274.586 315.842 276.656V276.914H307.549ZM310.739 271.908C309.78 271.908 309.021 272.223 308.462 272.853C307.903 273.476 307.606 274.335 307.57 275.431H313.844C313.643 273.082 312.608 271.908 310.739 271.908ZM320.085 286.216L321.9 279.105H324.747L321.406 286.216H320.085ZM354.664 282.317H352.473L350.937 277.257L350.324 275.087L349.905 276.581L348.101 282.317H345.92L343.954 270.694H345.866L346.865 277.214C347.102 279.105 347.22 280.272 347.22 280.716C347.499 279.57 347.707 278.804 347.843 278.417L349.293 273.863H351.366L352.763 278.428C352.992 279.18 353.189 279.943 353.354 280.716C353.354 280.501 353.368 280.233 353.396 279.911C353.425 279.588 353.461 279.259 353.504 278.922C353.547 278.579 353.59 278.253 353.633 277.945C353.676 277.637 353.708 277.393 353.729 277.214L354.814 270.694H356.705L354.664 282.317ZM360.4 276.914C360.4 278.217 360.687 279.237 361.26 279.975C361.84 280.713 362.631 281.082 363.634 281.082C364.371 281.082 365.016 280.924 365.567 280.609C366.126 280.287 366.498 279.85 366.685 279.298L368.382 279.782C368.067 280.67 367.487 281.35 366.642 281.823C365.804 282.295 364.801 282.532 363.634 282.532C361.944 282.532 360.644 282.005 359.734 280.953C358.825 279.9 358.37 278.392 358.37 276.43C358.37 274.518 358.814 273.05 359.702 272.026C360.597 270.995 361.886 270.479 363.569 270.479C365.252 270.479 366.527 270.991 367.394 272.015C368.26 273.039 368.693 274.586 368.693 276.656V276.914H360.4ZM363.591 271.908C362.631 271.908 361.872 272.223 361.313 272.853C360.755 273.476 360.458 274.335 360.422 275.431H366.695C366.495 273.082 365.46 271.908 363.591 271.908ZM385.408 272.219V270.694H387.234L387.857 267.665H389.146V270.694H393.787V272.219H389.146V279.223C389.146 279.789 389.297 280.208 389.598 280.48C389.906 280.752 390.407 280.888 391.102 280.888C392.061 280.888 393.125 280.766 394.292 280.523V281.995C393.082 282.324 391.882 282.489 390.693 282.489C389.533 282.489 388.663 282.245 388.083 281.758C387.503 281.264 387.213 280.487 387.213 279.427V272.219H385.408ZM400.501 270.694V278.063C400.501 279.18 400.676 279.957 401.027 280.394C401.378 280.824 402.005 281.039 402.907 281.039C403.831 281.039 404.562 280.723 405.099 280.093C405.636 279.463 405.904 278.575 405.904 277.429V270.694H407.849V279.835C407.849 281.189 407.87 282.016 407.913 282.317H406.087C406.08 282.281 406.073 282.184 406.065 282.027C406.058 281.869 406.048 281.69 406.033 281.49C406.026 281.282 406.015 280.895 406.001 280.33H405.969C405.525 281.132 405.009 281.701 404.422 282.038C403.842 282.367 403.118 282.532 402.252 282.532C400.977 282.532 400.043 282.217 399.448 281.586C398.861 280.949 398.567 279.9 398.567 278.439V270.694H400.501ZM421.019 272.456C420.216 272.319 419.457 272.251 418.741 272.251C417.588 272.251 416.657 272.685 415.948 273.551C415.239 274.418 414.885 275.521 414.885 276.86V282.317H412.951V274.787C412.951 274.242 412.901 273.601 412.801 272.864C412.708 272.126 412.572 271.403 412.393 270.694H414.229C414.516 271.682 414.688 272.577 414.745 273.379H414.799C415.157 272.577 415.508 271.99 415.852 271.618C416.195 271.238 416.604 270.955 417.076 270.769C417.549 270.576 418.125 270.479 418.806 270.479C419.55 270.479 420.288 270.54 421.019 270.662V272.456ZM432.33 282.317V274.851C432.33 273.877 432.14 273.154 431.761 272.681C431.388 272.208 430.79 271.972 429.967 271.972C429.079 271.972 428.348 272.298 427.775 272.95C427.21 273.594 426.927 274.472 426.927 275.582V282.317H424.993V273.175C424.993 271.822 424.972 270.995 424.929 270.694H426.755C426.762 270.73 426.769 270.826 426.776 270.984C426.784 271.141 426.791 271.324 426.798 271.532C426.812 271.732 426.826 272.115 426.841 272.681H426.873C427.625 271.213 428.864 270.479 430.59 270.479C431.829 270.479 432.753 270.816 433.361 271.489C433.97 272.155 434.274 273.182 434.274 274.572V282.317H432.33ZM61.0479 305.792H65.1299V307.317H54.5811V305.792H59.1143V297.219H55.6875V295.694H61.0479V305.792ZM58.8994 293.438V291.375H61.0479V293.438H58.8994ZM75.5176 305.448C75.1667 306.2 74.7012 306.748 74.1211 307.091C73.541 307.428 72.8177 307.596 71.9512 307.596C70.5046 307.596 69.4411 307.098 68.7607 306.103C68.0804 305.108 67.7402 303.607 67.7402 301.602C67.7402 297.549 69.1439 295.522 71.9512 295.522C72.8177 295.522 73.541 295.676 74.1211 295.984C74.7083 296.292 75.1774 296.797 75.5283 297.499H75.5498L75.5283 295.876V291.375H77.4619V304.921C77.4619 306.132 77.4834 306.93 77.5264 307.317H75.6787C75.6501 307.209 75.625 306.948 75.6035 306.533C75.582 306.117 75.5713 305.756 75.5713 305.448H75.5176ZM69.7383 301.538C69.7383 303.127 69.9495 304.288 70.3721 305.018C70.8018 305.741 71.4964 306.103 72.4561 306.103C73.5016 306.103 74.2751 305.727 74.7764 304.975C75.2777 304.216 75.5283 303.013 75.5283 301.366C75.5283 299.826 75.2848 298.705 74.7979 298.003C74.318 297.302 73.5446 296.951 72.4775 296.951C71.5107 296.951 70.8125 297.319 70.3828 298.057C69.9531 298.795 69.7383 299.955 69.7383 301.538ZM82.9297 301.914C82.9297 303.217 83.2161 304.237 83.7891 304.975C84.3691 305.713 85.1605 306.082 86.1631 306.082C86.9007 306.082 87.5452 305.924 88.0967 305.609C88.6553 305.287 89.0277 304.85 89.2139 304.298L90.9111 304.782C90.596 305.67 90.016 306.35 89.1709 306.823C88.333 307.295 87.3304 307.532 86.1631 307.532C84.473 307.532 83.1732 307.005 82.2637 305.953C81.3542 304.9 80.8994 303.392 80.8994 301.43C80.8994 299.518 81.3434 298.05 82.2314 297.026C83.1266 295.995 84.4157 295.479 86.0986 295.479C87.7816 295.479 89.0563 295.991 89.9229 297.015C90.7894 298.039 91.2227 299.586 91.2227 301.656V301.914H82.9297ZM86.1201 296.908C85.1605 296.908 84.4014 297.223 83.8428 297.853C83.2842 298.476 82.987 299.335 82.9512 300.431H89.2246C89.0241 298.082 87.9893 296.908 86.1201 296.908ZM104.511 306.125C104.697 306.125 104.908 306.099 105.145 306.049V307.252C104.658 307.367 104.16 307.424 103.651 307.424C102.935 307.424 102.412 307.238 102.083 306.866C101.761 306.486 101.578 305.895 101.535 305.093H101.471C101.005 305.96 100.454 306.583 99.8164 306.962C99.1862 307.342 98.4056 307.532 97.4746 307.532C96.3431 307.532 95.4909 307.224 94.918 306.608C94.3451 305.992 94.0586 305.147 94.0586 304.073C94.0586 301.573 95.6842 300.306 98.9355 300.27L101.471 300.227V299.593C101.471 298.655 101.281 297.982 100.901 297.574C100.522 297.158 99.9167 296.951 99.0859 296.951C98.2409 296.951 97.6322 297.101 97.2598 297.402C96.8874 297.703 96.6654 298.168 96.5938 298.798L94.5742 298.616C94.9036 296.525 96.4183 295.479 99.1182 295.479C100.55 295.479 101.625 295.816 102.341 296.489C103.064 297.155 103.426 298.122 103.426 299.389V304.395C103.426 304.968 103.501 305.401 103.651 305.695C103.802 305.981 104.088 306.125 104.511 306.125ZM97.9688 306.06C98.6562 306.06 99.265 305.895 99.7949 305.566C100.325 305.236 100.737 304.796 101.03 304.245C101.324 303.693 101.471 303.124 101.471 302.537V301.581L99.4297 301.624C98.5846 301.638 97.9401 301.731 97.4961 301.903C97.0521 302.075 96.7048 302.34 96.4541 302.698C96.2106 303.049 96.0889 303.518 96.0889 304.105C96.0889 304.692 96.2464 305.165 96.5615 305.523C96.8838 305.881 97.3529 306.06 97.9688 306.06ZM117.283 303.998C117.283 305.1 116.864 305.967 116.026 306.597C115.196 307.22 114.043 307.532 112.567 307.532C111.092 307.532 109.968 307.303 109.194 306.844C108.428 306.379 107.927 305.648 107.69 304.653L109.398 304.32C109.535 304.936 109.825 305.387 110.269 305.673C110.72 305.953 111.486 306.092 112.567 306.092C114.501 306.092 115.468 305.48 115.468 304.255C115.468 303.797 115.292 303.428 114.941 303.149C114.59 302.862 114.053 302.63 113.33 302.451C111.439 301.985 110.24 301.62 109.731 301.355C109.223 301.09 108.833 300.761 108.561 300.367C108.288 299.966 108.152 299.468 108.152 298.874C108.152 297.821 108.532 296.997 109.291 296.403C110.05 295.808 111.149 295.511 112.589 295.511C113.849 295.511 114.855 295.751 115.607 296.231C116.359 296.704 116.828 297.395 117.015 298.304L115.274 298.519C115.196 298.003 114.941 297.613 114.512 297.348C114.082 297.083 113.441 296.951 112.589 296.951C110.834 296.951 109.957 297.491 109.957 298.573C109.957 299.002 110.104 299.346 110.397 299.604C110.698 299.862 111.178 300.069 111.837 300.227L113.115 300.56C114.283 300.847 115.12 301.129 115.629 301.409C116.145 301.688 116.549 302.039 116.843 302.461C117.136 302.877 117.283 303.389 117.283 303.998ZM140.325 305.792H144.407V307.317H133.858V305.792H138.392V297.219H134.965V295.694H140.325V305.792ZM138.177 293.438V291.375H140.325V293.438H138.177ZM154.859 307.317V299.851C154.859 298.877 154.67 298.154 154.29 297.681C153.918 297.208 153.32 296.972 152.496 296.972C151.608 296.972 150.878 297.298 150.305 297.95C149.739 298.594 149.456 299.472 149.456 300.582V307.317H147.522V298.175C147.522 296.822 147.501 295.995 147.458 295.694H149.284C149.291 295.73 149.299 295.826 149.306 295.984C149.313 296.141 149.32 296.324 149.327 296.532C149.341 296.732 149.356 297.115 149.37 297.681H149.402C150.154 296.213 151.393 295.479 153.119 295.479C154.358 295.479 155.282 295.816 155.891 296.489C156.499 297.155 156.804 298.182 156.804 299.572V307.317H154.859ZM160.789 297.219V295.694H162.615L163.238 292.665H164.527V295.694H169.168V297.219H164.527V304.223C164.527 304.789 164.678 305.208 164.979 305.48C165.286 305.752 165.788 305.888 166.482 305.888C167.442 305.888 168.506 305.766 169.673 305.523V306.995C168.463 307.324 167.263 307.489 166.074 307.489C164.914 307.489 164.044 307.245 163.464 306.758C162.884 306.264 162.594 305.487 162.594 304.427V297.219H160.789ZM183.745 301.495C183.745 303.45 183.294 304.946 182.392 305.985C181.496 307.016 180.2 307.532 178.503 307.532C176.841 307.532 175.567 307.009 174.679 305.963C173.798 304.918 173.357 303.428 173.357 301.495C173.357 299.497 173.809 297.996 174.711 296.994C175.62 295.984 176.906 295.479 178.567 295.479C180.315 295.479 181.615 295.977 182.467 296.972C183.319 297.968 183.745 299.475 183.745 301.495ZM181.715 301.495C181.715 299.955 181.468 298.806 180.974 298.046C180.487 297.287 179.695 296.908 178.6 296.908C177.49 296.908 176.677 297.294 176.161 298.068C175.646 298.841 175.388 299.984 175.388 301.495C175.388 302.999 175.646 304.144 176.161 304.932C176.677 305.713 177.45 306.103 178.481 306.103C179.62 306.103 180.444 305.72 180.952 304.954C181.461 304.187 181.715 303.034 181.715 301.495ZM206.39 305.792H210.472V307.317H199.923V305.792H204.456V297.219H201.029V295.694H206.39V305.792ZM204.241 293.438V291.375H206.39V293.438H204.241ZM220.924 307.317V299.851C220.924 298.877 220.734 298.154 220.354 297.681C219.982 297.208 219.384 296.972 218.561 296.972C217.673 296.972 216.942 297.298 216.369 297.95C215.803 298.594 215.521 299.472 215.521 300.582V307.317H213.587V298.175C213.587 296.822 213.565 295.995 213.522 295.694H215.349C215.356 295.73 215.363 295.826 215.37 295.984C215.377 296.141 215.384 296.324 215.392 296.532C215.406 296.732 215.42 297.115 215.435 297.681H215.467C216.219 296.213 217.458 295.479 219.184 295.479C220.423 295.479 221.346 295.816 221.955 296.489C222.564 297.155 222.868 298.182 222.868 299.572V307.317H220.924ZM226.854 297.219V295.694H228.68L229.303 292.665H230.592V295.694H235.232V297.219H230.592V304.223C230.592 304.789 230.742 305.208 231.043 305.48C231.351 305.752 231.852 305.888 232.547 305.888C233.507 305.888 234.57 305.766 235.737 305.523V306.995C234.527 307.324 233.327 307.489 232.139 307.489C230.979 307.489 230.108 307.245 229.528 306.758C228.948 306.264 228.658 305.487 228.658 304.427V297.219H226.854ZM241.484 301.914C241.484 303.217 241.771 304.237 242.344 304.975C242.924 305.713 243.715 306.082 244.718 306.082C245.455 306.082 246.1 305.924 246.651 305.609C247.21 305.287 247.582 304.85 247.769 304.298L249.466 304.782C249.151 305.67 248.571 306.35 247.726 306.823C246.888 307.295 245.885 307.532 244.718 307.532C243.028 307.532 241.728 307.005 240.818 305.953C239.909 304.9 239.454 303.392 239.454 301.43C239.454 299.518 239.898 298.05 240.786 297.026C241.681 295.995 242.97 295.479 244.653 295.479C246.336 295.479 247.611 295.991 248.478 297.015C249.344 298.039 249.777 299.586 249.777 301.656V301.914H241.484ZM244.675 296.908C243.715 296.908 242.956 297.223 242.397 297.853C241.839 298.476 241.542 299.335 241.506 300.431H247.779C247.579 298.082 246.544 296.908 244.675 296.908ZM262.464 297.456C261.662 297.319 260.903 297.251 260.187 297.251C259.034 297.251 258.103 297.685 257.394 298.551C256.685 299.418 256.33 300.521 256.33 301.86V307.317H254.396V299.787C254.396 299.242 254.346 298.601 254.246 297.864C254.153 297.126 254.017 296.403 253.838 295.694H255.675C255.961 296.682 256.133 297.577 256.19 298.379H256.244C256.602 297.577 256.953 296.99 257.297 296.618C257.641 296.238 258.049 295.955 258.521 295.769C258.994 295.576 259.571 295.479 260.251 295.479C260.996 295.479 261.733 295.54 262.464 295.662V297.456ZM276.278 306.125C276.465 306.125 276.676 306.099 276.912 306.049V307.252C276.425 307.367 275.927 307.424 275.419 307.424C274.703 307.424 274.18 307.238 273.851 306.866C273.528 306.486 273.346 305.895 273.303 305.093H273.238C272.773 305.96 272.221 306.583 271.584 306.962C270.954 307.342 270.173 307.532 269.242 307.532C268.111 307.532 267.258 307.224 266.686 306.608C266.113 305.992 265.826 305.147 265.826 304.073C265.826 301.573 267.452 300.306 270.703 300.27L273.238 300.227V299.593C273.238 298.655 273.049 297.982 272.669 297.574C272.289 297.158 271.684 296.951 270.854 296.951C270.008 296.951 269.4 297.101 269.027 297.402C268.655 297.703 268.433 298.168 268.361 298.798L266.342 298.616C266.671 296.525 268.186 295.479 270.886 295.479C272.318 295.479 273.392 295.816 274.108 296.489C274.832 297.155 275.193 298.122 275.193 299.389V304.395C275.193 304.968 275.269 305.401 275.419 305.695C275.569 305.981 275.856 306.125 276.278 306.125ZM269.736 306.06C270.424 306.06 271.033 305.895 271.562 305.566C272.092 305.236 272.504 304.796 272.798 304.245C273.091 303.693 273.238 303.124 273.238 302.537V301.581L271.197 301.624C270.352 301.638 269.708 301.731 269.264 301.903C268.82 302.075 268.472 302.34 268.222 302.698C267.978 303.049 267.856 303.518 267.856 304.105C267.856 304.692 268.014 305.165 268.329 305.523C268.651 305.881 269.12 306.06 269.736 306.06ZM279.061 301.495C279.061 299.561 279.522 298.075 280.446 297.037C281.37 295.998 282.706 295.479 284.453 295.479C285.757 295.479 286.831 295.794 287.676 296.424C288.521 297.047 289.044 297.889 289.244 298.949L287.182 299.099C287.067 298.447 286.781 297.935 286.322 297.563C285.864 297.183 285.212 296.994 284.367 296.994C283.236 296.994 282.405 297.345 281.875 298.046C281.352 298.748 281.091 299.883 281.091 301.452C281.091 303.042 281.352 304.205 281.875 304.943C282.405 305.673 283.232 306.039 284.356 306.039C285.13 306.039 285.771 305.849 286.279 305.469C286.788 305.09 287.103 304.51 287.225 303.729L289.266 303.858C289.173 304.545 288.911 305.172 288.481 305.738C288.059 306.296 287.497 306.737 286.795 307.059C286.093 307.374 285.309 307.532 284.442 307.532C282.688 307.532 281.352 307.016 280.436 305.985C279.519 304.954 279.061 303.457 279.061 301.495ZM292.918 297.219V295.694H294.744L295.367 292.665H296.656V295.694H301.297V297.219H296.656V304.223C296.656 304.789 296.807 305.208 297.107 305.48C297.415 305.752 297.917 305.888 298.611 305.888C299.571 305.888 300.634 305.766 301.802 305.523V306.995C300.591 307.324 299.392 307.489 298.203 307.489C297.043 307.489 296.173 307.245 295.593 306.758C295.013 306.264 294.723 305.487 294.723 304.427V297.219H292.918ZM312.093 305.792H316.175V307.317H305.626V305.792H310.159V297.219H306.732V295.694H312.093V305.792ZM309.944 293.438V291.375H312.093V293.438H309.944ZM324.983 307.317H322.695L318.044 295.694H320.214L323.093 303.256L323.275 303.826L323.834 305.802L324.21 304.545L324.629 303.278L327.594 295.694H329.753L324.983 307.317ZM333.975 301.914C333.975 303.217 334.261 304.237 334.834 304.975C335.414 305.713 336.205 306.082 337.208 306.082C337.946 306.082 338.59 305.924 339.142 305.609C339.7 305.287 340.073 304.85 340.259 304.298L341.956 304.782C341.641 305.67 341.061 306.35 340.216 306.823C339.378 307.295 338.375 307.532 337.208 307.532C335.518 307.532 334.218 307.005 333.309 305.953C332.399 304.9 331.944 303.392 331.944 301.43C331.944 299.518 332.388 298.05 333.276 297.026C334.172 295.995 335.461 295.479 337.144 295.479C338.826 295.479 340.101 295.991 340.968 297.015C341.834 298.039 342.268 299.586 342.268 301.656V301.914H333.975ZM337.165 296.908C336.205 296.908 335.446 297.223 334.888 297.853C334.329 298.476 334.032 299.335 333.996 300.431H340.27C340.069 298.082 339.034 296.908 337.165 296.908ZM366.201 305.448C365.85 306.2 365.385 306.748 364.805 307.091C364.225 307.428 363.501 307.596 362.635 307.596C361.188 307.596 360.125 307.098 359.444 306.103C358.764 305.108 358.424 303.607 358.424 301.602C358.424 297.549 359.827 295.522 362.635 295.522C363.501 295.522 364.225 295.676 364.805 295.984C365.392 296.292 365.861 296.797 366.212 297.499H366.233L366.212 295.876V291.375H368.146V304.921C368.146 306.132 368.167 306.93 368.21 307.317H366.362C366.334 307.209 366.309 306.948 366.287 306.533C366.266 306.117 366.255 305.756 366.255 305.448H366.201ZM360.422 301.538C360.422 303.127 360.633 304.288 361.056 305.018C361.485 305.741 362.18 306.103 363.14 306.103C364.185 306.103 364.959 305.727 365.46 304.975C365.961 304.216 366.212 303.013 366.212 301.366C366.212 299.826 365.968 298.705 365.481 298.003C365.002 297.302 364.228 296.951 363.161 296.951C362.194 296.951 361.496 297.319 361.066 298.057C360.637 298.795 360.422 299.955 360.422 301.538ZM378.157 305.792H382.239V307.317H371.69V305.792H376.224V297.219H372.797V295.694H378.157V305.792ZM376.009 293.438V291.375H378.157V293.438H376.009ZM389.974 311.872C388.771 311.872 387.804 311.625 387.073 311.13C386.343 310.636 385.877 309.927 385.677 309.003L387.653 308.735C387.775 309.272 388.036 309.684 388.438 309.97C388.846 310.264 389.379 310.411 390.038 310.411C391.814 310.411 392.702 309.283 392.702 307.027V304.943H392.681C392.33 305.681 391.843 306.239 391.22 306.619C390.597 306.998 389.855 307.188 388.996 307.188C387.578 307.188 386.54 306.726 385.881 305.802C385.229 304.871 384.903 303.41 384.903 301.419C384.903 299.393 385.254 297.903 385.956 296.951C386.658 295.991 387.739 295.511 389.2 295.511C390.009 295.511 390.711 295.701 391.306 296.081C391.907 296.453 392.369 296.986 392.691 297.681H392.724C392.724 297.466 392.738 297.105 392.767 296.596C392.795 296.081 392.824 295.78 392.853 295.694H394.689C394.646 296.081 394.625 296.883 394.625 298.1V306.973C394.625 308.599 394.245 309.82 393.486 310.636C392.727 311.46 391.556 311.872 389.974 311.872ZM392.702 301.398C392.702 300.016 392.434 298.931 391.896 298.143C391.359 297.348 390.622 296.951 389.684 296.951C388.702 296.951 387.993 297.294 387.557 297.982C387.12 298.662 386.901 299.801 386.901 301.398C386.901 302.479 386.991 303.335 387.17 303.965C387.356 304.588 387.643 305.043 388.029 305.33C388.416 305.616 388.957 305.759 389.651 305.759C390.26 305.759 390.794 305.591 391.252 305.254C391.717 304.911 392.076 304.413 392.326 303.761C392.577 303.102 392.702 302.315 392.702 301.398ZM404.583 305.792H408.665V307.317H398.116V305.792H402.649V297.219H399.223V295.694H404.583V305.792ZM402.435 293.438V291.375H404.583V293.438H402.435ZM411.834 297.219V295.694H413.66L414.283 292.665H415.572V295.694H420.213V297.219H415.572V304.223C415.572 304.789 415.723 305.208 416.023 305.48C416.331 305.752 416.833 305.888 417.527 305.888C418.487 305.888 419.55 305.766 420.718 305.523V306.995C419.507 307.324 418.308 307.489 417.119 307.489C415.959 307.489 415.089 307.245 414.509 306.758C413.929 306.264 413.639 305.487 413.639 304.427V297.219H411.834ZM434.833 306.125C435.019 306.125 435.23 306.099 435.467 306.049V307.252C434.98 307.367 434.482 307.424 433.974 307.424C433.257 307.424 432.735 307.238 432.405 306.866C432.083 306.486 431.9 305.895 431.857 305.093H431.793C431.327 305.96 430.776 306.583 430.139 306.962C429.508 307.342 428.728 307.532 427.797 307.532C426.665 307.532 425.813 307.224 425.24 306.608C424.667 305.992 424.381 305.147 424.381 304.073C424.381 301.573 426.007 300.306 429.258 300.27L431.793 300.227V299.593C431.793 298.655 431.603 297.982 431.224 297.574C430.844 297.158 430.239 296.951 429.408 296.951C428.563 296.951 427.954 297.101 427.582 297.402C427.21 297.703 426.988 298.168 426.916 298.798L424.896 298.616C425.226 296.525 426.741 295.479 429.44 295.479C430.873 295.479 431.947 295.816 432.663 296.489C433.386 297.155 433.748 298.122 433.748 299.389V304.395C433.748 304.968 433.823 305.401 433.974 305.695C434.124 305.981 434.41 306.125 434.833 306.125ZM428.291 306.06C428.979 306.06 429.587 305.895 430.117 305.566C430.647 305.236 431.059 304.796 431.353 304.245C431.646 303.693 431.793 303.124 431.793 302.537V301.581L429.752 301.624C428.907 301.638 428.262 301.731 427.818 301.903C427.374 302.075 427.027 302.34 426.776 302.698C426.533 303.049 426.411 303.518 426.411 304.105C426.411 304.692 426.569 305.165 426.884 305.523C427.206 305.881 427.675 306.06 428.291 306.06ZM444.125 305.792H448.207V307.317H437.658V305.792H442.191V292.901H439.087V291.375H444.125V305.792ZM56.5039 326.914C56.5039 328.217 56.7904 329.237 57.3633 329.975C57.9434 330.713 58.7347 331.082 59.7373 331.082C60.4749 331.082 61.1195 330.924 61.6709 330.609C62.2295 330.287 62.6019 329.85 62.7881 329.298L64.4854 329.782C64.1702 330.67 63.5902 331.35 62.7451 331.823C61.9072 332.295 60.9046 332.532 59.7373 332.532C58.0472 332.532 56.7474 332.005 55.8379 330.953C54.9284 329.9 54.4736 328.392 54.4736 326.43C54.4736 324.518 54.9176 323.05 55.8057 322.026C56.7008 320.995 57.9899 320.479 59.6729 320.479C61.3558 320.479 62.6305 320.991 63.4971 322.015C64.3636 323.039 64.7969 324.586 64.7969 326.656V326.914H56.5039ZM59.6943 321.908C58.7347 321.908 57.9756 322.223 57.417 322.853C56.8584 323.476 56.5612 324.335 56.5254 325.431H62.7988C62.5983 323.082 61.5635 321.908 59.6943 321.908ZM76.2695 332.317L72.8213 327.547L69.3516 332.317H67.2676L71.7256 326.344L67.4609 320.694H69.5986L72.8213 325.216L76.0225 320.694H78.1816L73.917 326.323L78.4287 332.317H76.2695ZM91.1797 326.452C91.1797 330.505 89.776 332.532 86.9688 332.532C85.207 332.532 84.0218 331.873 83.4131 330.555H83.3594C83.388 330.612 83.4023 331.207 83.4023 332.338V336.882H81.458V323.1C81.458 321.883 81.4365 321.081 81.3936 320.694H83.2734C83.2806 320.722 83.2913 320.83 83.3057 321.016C83.32 321.195 83.3343 321.464 83.3486 321.822C83.3701 322.173 83.3809 322.434 83.3809 322.606H83.4238C83.7819 321.854 84.2367 321.31 84.7881 320.973C85.3467 320.629 86.0736 320.458 86.9688 320.458C88.3867 320.458 89.443 320.948 90.1377 321.929C90.8324 322.903 91.1797 324.411 91.1797 326.452ZM89.1816 326.452C89.1816 324.833 88.9632 323.68 88.5264 322.993C88.0895 322.298 87.402 321.951 86.4639 321.951C85.3825 321.951 84.6019 322.345 84.1221 323.132C83.6423 323.913 83.4023 325.098 83.4023 326.688C83.4023 328.213 83.6423 329.331 84.1221 330.04C84.6019 330.749 85.3753 331.103 86.4424 331.103C87.3949 331.103 88.0895 330.741 88.5264 330.018C88.9632 329.295 89.1816 328.106 89.1816 326.452ZM96.1426 326.914C96.1426 328.217 96.429 329.237 97.002 329.975C97.582 330.713 98.3734 331.082 99.376 331.082C100.114 331.082 100.758 330.924 101.31 330.609C101.868 330.287 102.241 329.85 102.427 329.298L104.124 329.782C103.809 330.67 103.229 331.35 102.384 331.823C101.546 332.295 100.543 332.532 99.376 332.532C97.6859 332.532 96.3861 332.005 95.4766 330.953C94.5671 329.9 94.1123 328.392 94.1123 326.43C94.1123 324.518 94.5563 323.05 95.4443 322.026C96.3395 320.995 97.6286 320.479 99.3115 320.479C100.994 320.479 102.269 320.991 103.136 322.015C104.002 323.039 104.436 324.586 104.436 326.656V326.914H96.1426ZM99.333 321.908C98.3734 321.908 97.6143 322.223 97.0557 322.853C96.4971 323.476 96.1999 324.335 96.1641 325.431H102.438C102.237 323.082 101.202 321.908 99.333 321.908ZM117.122 322.456C116.32 322.319 115.561 322.251 114.845 322.251C113.692 322.251 112.761 322.685 112.052 323.551C111.343 324.418 110.988 325.521 110.988 326.86V332.317H109.055V324.787C109.055 324.242 109.005 323.601 108.904 322.864C108.811 322.126 108.675 321.403 108.496 320.694H110.333C110.619 321.682 110.791 322.577 110.849 323.379H110.902C111.26 322.577 111.611 321.99 111.955 321.618C112.299 321.238 112.707 320.955 113.18 320.769C113.652 320.576 114.229 320.479 114.909 320.479C115.654 320.479 116.392 320.54 117.122 320.662V322.456ZM127.112 330.792H131.194V332.317H120.646V330.792H125.179V322.219H121.752V320.694H127.112V330.792ZM124.964 318.438V316.375H127.112V318.438H124.964ZM135.781 326.914C135.781 328.217 136.068 329.237 136.641 329.975C137.221 330.713 138.012 331.082 139.015 331.082C139.752 331.082 140.397 330.924 140.948 330.609C141.507 330.287 141.879 329.85 142.065 329.298L143.763 329.782C143.448 330.67 142.868 331.35 142.022 331.823C141.185 332.295 140.182 332.532 139.015 332.532C137.325 332.532 136.025 332.005 135.115 330.953C134.206 329.9 133.751 328.392 133.751 326.43C133.751 324.518 134.195 323.05 135.083 322.026C135.978 320.995 137.267 320.479 138.95 320.479C140.633 320.479 141.908 320.991 142.774 322.015C143.641 323.039 144.074 324.586 144.074 326.656V326.914H135.781ZM138.972 321.908C138.012 321.908 137.253 322.223 136.694 322.853C136.136 323.476 135.839 324.335 135.803 325.431H142.076C141.876 323.082 140.841 321.908 138.972 321.908ZM154.859 332.317V324.851C154.859 323.877 154.67 323.154 154.29 322.681C153.918 322.208 153.32 321.972 152.496 321.972C151.608 321.972 150.878 322.298 150.305 322.95C149.739 323.594 149.456 324.472 149.456 325.582V332.317H147.522V323.175C147.522 321.822 147.501 320.995 147.458 320.694H149.284C149.291 320.73 149.299 320.826 149.306 320.984C149.313 321.141 149.32 321.324 149.327 321.532C149.341 321.732 149.356 322.115 149.37 322.681H149.402C150.154 321.213 151.393 320.479 153.119 320.479C154.358 320.479 155.282 320.816 155.891 321.489C156.499 322.155 156.804 323.182 156.804 324.572V332.317H154.859ZM160.145 326.495C160.145 324.561 160.606 323.075 161.53 322.037C162.454 320.998 163.79 320.479 165.537 320.479C166.84 320.479 167.915 320.794 168.76 321.424C169.605 322.047 170.128 322.889 170.328 323.949L168.266 324.099C168.151 323.447 167.865 322.935 167.406 322.563C166.948 322.183 166.296 321.994 165.451 321.994C164.32 321.994 163.489 322.345 162.959 323.046C162.436 323.748 162.175 324.883 162.175 326.452C162.175 328.042 162.436 329.205 162.959 329.943C163.489 330.673 164.316 331.039 165.44 331.039C166.214 331.039 166.855 330.849 167.363 330.469C167.872 330.09 168.187 329.51 168.309 328.729L170.35 328.858C170.257 329.545 169.995 330.172 169.565 330.738C169.143 331.296 168.581 331.737 167.879 332.059C167.177 332.374 166.393 332.532 165.526 332.532C163.772 332.532 162.436 332.016 161.52 330.985C160.603 329.954 160.145 328.457 160.145 326.495ZM175.42 326.914C175.42 328.217 175.706 329.237 176.279 329.975C176.859 330.713 177.651 331.082 178.653 331.082C179.391 331.082 180.035 330.924 180.587 330.609C181.146 330.287 181.518 329.85 181.704 329.298L183.401 329.782C183.086 330.67 182.506 331.35 181.661 331.823C180.823 332.295 179.821 332.532 178.653 332.532C176.963 332.532 175.663 332.005 174.754 330.953C173.844 329.9 173.39 328.392 173.39 326.43C173.39 324.518 173.834 323.05 174.722 322.026C175.617 320.995 176.906 320.479 178.589 320.479C180.272 320.479 181.547 320.991 182.413 322.015C183.28 323.039 183.713 324.586 183.713 326.656V326.914H175.42ZM178.61 321.908C177.651 321.908 176.892 322.223 176.333 322.853C175.774 323.476 175.477 324.335 175.441 325.431H181.715C181.514 323.082 180.479 321.908 178.61 321.908ZM196.561 328.998C196.561 330.1 196.142 330.967 195.304 331.597C194.473 332.22 193.32 332.532 191.845 332.532C190.369 332.532 189.245 332.303 188.472 331.844C187.705 331.379 187.204 330.648 186.968 329.653L188.676 329.32C188.812 329.936 189.102 330.387 189.546 330.673C189.997 330.953 190.763 331.092 191.845 331.092C193.778 331.092 194.745 330.48 194.745 329.255C194.745 328.797 194.57 328.428 194.219 328.149C193.868 327.862 193.331 327.63 192.607 327.451C190.717 326.985 189.517 326.62 189.009 326.355C188.5 326.09 188.11 325.761 187.838 325.367C187.566 324.966 187.43 324.468 187.43 323.874C187.43 322.821 187.809 321.997 188.568 321.403C189.327 320.808 190.427 320.511 191.866 320.511C193.127 320.511 194.133 320.751 194.885 321.231C195.637 321.704 196.106 322.395 196.292 323.304L194.552 323.519C194.473 323.003 194.219 322.613 193.789 322.348C193.359 322.083 192.718 321.951 191.866 321.951C190.112 321.951 189.234 322.491 189.234 323.573C189.234 324.002 189.381 324.346 189.675 324.604C189.976 324.862 190.455 325.069 191.114 325.227L192.393 325.56C193.56 325.847 194.398 326.129 194.906 326.409C195.422 326.688 195.826 327.039 196.12 327.461C196.414 327.877 196.561 328.389 196.561 328.998ZM213.641 322.219V320.694H215.467L216.09 317.665H217.379V320.694H222.02V322.219H217.379V329.223C217.379 329.789 217.529 330.208 217.83 330.48C218.138 330.752 218.639 330.888 219.334 330.888C220.294 330.888 221.357 330.766 222.524 330.523V331.995C221.314 332.324 220.115 332.489 218.926 332.489C217.766 332.489 216.896 332.245 216.315 331.758C215.735 331.264 215.445 330.487 215.445 329.427V322.219H213.641ZM226.8 316.375H228.744V320.565C228.744 320.987 228.712 321.693 228.647 322.681H228.68C229.432 321.213 230.646 320.479 232.321 320.479C234.828 320.479 236.081 321.843 236.081 324.572V332.317H234.137V324.851C234.137 323.877 233.947 323.154 233.567 322.681C233.195 322.208 232.597 321.972 231.773 321.972C230.885 321.972 230.155 322.298 229.582 322.95C229.016 323.594 228.733 324.472 228.733 325.582V332.317H226.8V316.375ZM249.853 331.125C250.039 331.125 250.25 331.099 250.486 331.049V332.252C249.999 332.367 249.502 332.424 248.993 332.424C248.277 332.424 247.754 332.238 247.425 331.866C247.103 331.486 246.92 330.895 246.877 330.093H246.812C246.347 330.96 245.796 331.583 245.158 331.962C244.528 332.342 243.747 332.532 242.816 332.532C241.685 332.532 240.833 332.224 240.26 331.608C239.687 330.992 239.4 330.147 239.4 329.073C239.4 326.573 241.026 325.306 244.277 325.27L246.812 325.227V324.593C246.812 323.655 246.623 322.982 246.243 322.574C245.864 322.158 245.258 321.951 244.428 321.951C243.583 321.951 242.974 322.101 242.602 322.402C242.229 322.703 242.007 323.168 241.936 323.798L239.916 323.616C240.245 321.525 241.76 320.479 244.46 320.479C245.892 320.479 246.966 320.816 247.683 321.489C248.406 322.155 248.768 323.122 248.768 324.389V329.395C248.768 329.968 248.843 330.401 248.993 330.695C249.144 330.981 249.43 331.125 249.853 331.125ZM243.311 331.06C243.998 331.06 244.607 330.895 245.137 330.566C245.667 330.236 246.078 329.796 246.372 329.245C246.666 328.693 246.812 328.124 246.812 327.537V326.581L244.771 326.624C243.926 326.638 243.282 326.731 242.838 326.903C242.394 327.075 242.047 327.34 241.796 327.698C241.552 328.049 241.431 328.518 241.431 329.105C241.431 329.692 241.588 330.165 241.903 330.523C242.226 330.881 242.695 331.06 243.311 331.06ZM253.279 322.219V320.694H255.105L255.729 317.665H257.018V320.694H261.658V322.219H257.018V329.223C257.018 329.789 257.168 330.208 257.469 330.48C257.777 330.752 258.278 330.888 258.973 330.888C259.932 330.888 260.996 330.766 262.163 330.523V331.995C260.953 332.324 259.753 332.489 258.564 332.489C257.404 332.489 256.534 332.245 255.954 331.758C255.374 331.264 255.084 330.487 255.084 329.427V322.219H253.279ZM281.123 326.914C281.123 328.217 281.41 329.237 281.982 329.975C282.562 330.713 283.354 331.082 284.356 331.082C285.094 331.082 285.739 330.924 286.29 330.609C286.849 330.287 287.221 329.85 287.407 329.298L289.104 329.782C288.789 330.67 288.209 331.35 287.364 331.823C286.526 332.295 285.524 332.532 284.356 332.532C282.666 332.532 281.367 332.005 280.457 330.953C279.548 329.9 279.093 328.392 279.093 326.43C279.093 324.518 279.537 323.05 280.425 322.026C281.32 320.995 282.609 320.479 284.292 320.479C285.975 320.479 287.25 320.991 288.116 322.015C288.983 323.039 289.416 324.586 289.416 326.656V326.914H281.123ZM284.313 321.908C283.354 321.908 282.595 322.223 282.036 322.853C281.478 323.476 281.18 324.335 281.145 325.431H287.418C287.217 323.082 286.183 321.908 284.313 321.908ZM300.201 332.317V324.851C300.201 323.877 300.011 323.154 299.632 322.681C299.259 322.208 298.661 321.972 297.838 321.972C296.95 321.972 296.219 322.298 295.646 322.95C295.081 323.594 294.798 324.472 294.798 325.582V332.317H292.864V323.175C292.864 321.822 292.843 320.995 292.8 320.694H294.626C294.633 320.73 294.64 320.826 294.647 320.984C294.655 321.141 294.662 321.324 294.669 321.532C294.683 321.732 294.698 322.115 294.712 322.681H294.744C295.496 321.213 296.735 320.479 298.461 320.479C299.7 320.479 300.624 320.816 301.232 321.489C301.841 322.155 302.146 323.182 302.146 324.572V332.317H300.201ZM310.696 336.872C309.493 336.872 308.526 336.625 307.796 336.13C307.065 335.636 306.6 334.927 306.399 334.003L308.376 333.735C308.498 334.272 308.759 334.684 309.16 334.97C309.568 335.264 310.102 335.411 310.761 335.411C312.537 335.411 313.425 334.283 313.425 332.027V329.943H313.403C313.052 330.681 312.565 331.239 311.942 331.619C311.319 331.998 310.578 332.188 309.719 332.188C308.301 332.188 307.262 331.726 306.604 330.802C305.952 329.871 305.626 328.41 305.626 326.419C305.626 324.393 305.977 322.903 306.679 321.951C307.381 320.991 308.462 320.511 309.923 320.511C310.732 320.511 311.434 320.701 312.028 321.081C312.63 321.453 313.092 321.986 313.414 322.681H313.446C313.446 322.466 313.461 322.105 313.489 321.596C313.518 321.081 313.547 320.78 313.575 320.694H315.412C315.369 321.081 315.348 321.883 315.348 323.1V331.973C315.348 333.599 314.968 334.82 314.209 335.636C313.45 336.46 312.279 336.872 310.696 336.872ZM313.425 326.398C313.425 325.016 313.156 323.931 312.619 323.143C312.082 322.348 311.344 321.951 310.406 321.951C309.425 321.951 308.716 322.294 308.279 322.982C307.842 323.662 307.624 324.801 307.624 326.398C307.624 327.479 307.714 328.335 307.893 328.965C308.079 329.588 308.365 330.043 308.752 330.33C309.139 330.616 309.679 330.759 310.374 330.759C310.983 330.759 311.516 330.591 311.975 330.254C312.44 329.911 312.798 329.413 313.049 328.761C313.299 328.102 313.425 327.315 313.425 326.398ZM329.13 331.125C329.316 331.125 329.527 331.099 329.764 331.049V332.252C329.277 332.367 328.779 332.424 328.271 332.424C327.554 332.424 327.032 332.238 326.702 331.866C326.38 331.486 326.197 330.895 326.154 330.093H326.09C325.624 330.96 325.073 331.583 324.436 331.962C323.805 332.342 323.025 332.532 322.094 332.532C320.962 332.532 320.11 332.224 319.537 331.608C318.964 330.992 318.678 330.147 318.678 329.073C318.678 326.573 320.303 325.306 323.555 325.27L326.09 325.227V324.593C326.09 323.655 325.9 322.982 325.521 322.574C325.141 322.158 324.536 321.951 323.705 321.951C322.86 321.951 322.251 322.101 321.879 322.402C321.507 322.703 321.285 323.168 321.213 323.798L319.193 323.616C319.523 321.525 321.037 320.479 323.737 320.479C325.17 320.479 326.244 320.816 326.96 321.489C327.683 322.155 328.045 323.122 328.045 324.389V329.395C328.045 329.968 328.12 330.401 328.271 330.695C328.421 330.981 328.707 331.125 329.13 331.125ZM322.588 331.06C323.275 331.06 323.884 330.895 324.414 330.566C324.944 330.236 325.356 329.796 325.649 329.245C325.943 328.693 326.09 328.124 326.09 327.537V326.581L324.049 326.624C323.204 326.638 322.559 326.731 322.115 326.903C321.671 327.075 321.324 327.34 321.073 327.698C320.83 328.049 320.708 328.518 320.708 329.105C320.708 329.692 320.866 330.165 321.181 330.523C321.503 330.881 321.972 331.06 322.588 331.06ZM337.122 336.872C335.919 336.872 334.952 336.625 334.222 336.13C333.491 335.636 333.026 334.927 332.825 334.003L334.802 333.735C334.924 334.272 335.185 334.684 335.586 334.97C335.994 335.264 336.528 335.411 337.187 335.411C338.963 335.411 339.851 334.283 339.851 332.027V329.943H339.829C339.478 330.681 338.991 331.239 338.368 331.619C337.745 331.998 337.004 332.188 336.145 332.188C334.727 332.188 333.688 331.726 333.029 330.802C332.378 329.871 332.052 328.41 332.052 326.419C332.052 324.393 332.403 322.903 333.104 321.951C333.806 320.991 334.888 320.511 336.349 320.511C337.158 320.511 337.86 320.701 338.454 321.081C339.056 321.453 339.518 321.986 339.84 322.681H339.872C339.872 322.466 339.886 322.105 339.915 321.596C339.944 321.081 339.972 320.78 340.001 320.694H341.838C341.795 321.081 341.773 321.883 341.773 323.1V331.973C341.773 333.599 341.394 334.82 340.635 335.636C339.876 336.46 338.705 336.872 337.122 336.872ZM339.851 326.398C339.851 325.016 339.582 323.931 339.045 323.143C338.508 322.348 337.77 321.951 336.832 321.951C335.851 321.951 335.142 322.294 334.705 322.982C334.268 323.662 334.05 324.801 334.05 326.398C334.05 327.479 334.139 328.335 334.318 328.965C334.505 329.588 334.791 330.043 335.178 330.33C335.564 330.616 336.105 330.759 336.8 330.759C337.409 330.759 337.942 330.591 338.4 330.254C338.866 329.911 339.224 329.413 339.475 328.761C339.725 328.102 339.851 327.315 339.851 326.398ZM347.188 326.914C347.188 328.217 347.474 329.237 348.047 329.975C348.627 330.713 349.418 331.082 350.421 331.082C351.159 331.082 351.803 330.924 352.354 330.609C352.913 330.287 353.285 329.85 353.472 329.298L355.169 329.782C354.854 330.67 354.274 331.35 353.429 331.823C352.591 332.295 351.588 332.532 350.421 332.532C348.731 332.532 347.431 332.005 346.521 330.953C345.612 329.9 345.157 328.392 345.157 326.43C345.157 324.518 345.601 323.05 346.489 322.026C347.384 320.995 348.674 320.479 350.356 320.479C352.039 320.479 353.314 320.991 354.181 322.015C355.047 323.039 355.48 324.586 355.48 326.656V326.914H347.188ZM350.378 321.908C349.418 321.908 348.659 322.223 348.101 322.853C347.542 323.476 347.245 324.335 347.209 325.431H353.482C353.282 323.082 352.247 321.908 350.378 321.908ZM381.981 331.125C382.168 331.125 382.379 331.099 382.615 331.049V332.252C382.128 332.367 381.631 332.424 381.122 332.424C380.406 332.424 379.883 332.238 379.554 331.866C379.231 331.486 379.049 330.895 379.006 330.093H378.941C378.476 330.96 377.924 331.583 377.287 331.962C376.657 332.342 375.876 332.532 374.945 332.532C373.814 332.532 372.962 332.224 372.389 331.608C371.816 330.992 371.529 330.147 371.529 329.073C371.529 326.573 373.155 325.306 376.406 325.27L378.941 325.227V324.593C378.941 323.655 378.752 322.982 378.372 322.574C377.993 322.158 377.387 321.951 376.557 321.951C375.712 321.951 375.103 322.101 374.73 322.402C374.358 322.703 374.136 323.168 374.064 323.798L372.045 323.616C372.374 321.525 373.889 320.479 376.589 320.479C378.021 320.479 379.095 320.816 379.812 321.489C380.535 322.155 380.896 323.122 380.896 324.389V329.395C380.896 329.968 380.972 330.401 381.122 330.695C381.272 330.981 381.559 331.125 381.981 331.125ZM375.439 331.06C376.127 331.06 376.736 330.895 377.266 330.566C377.796 330.236 378.207 329.796 378.501 329.245C378.795 328.693 378.941 328.124 378.941 327.537V326.581L376.9 326.624C376.055 326.638 375.411 326.731 374.967 326.903C374.523 327.075 374.175 327.34 373.925 327.698C373.681 328.049 373.56 328.518 373.56 329.105C373.56 329.692 373.717 330.165 374.032 330.523C374.354 330.881 374.824 331.06 375.439 331.06ZM392.691 332.317V324.851C392.691 323.877 392.502 323.154 392.122 322.681C391.75 322.208 391.152 321.972 390.328 321.972C389.44 321.972 388.71 322.298 388.137 322.95C387.571 323.594 387.288 324.472 387.288 325.582V332.317H385.354V323.175C385.354 321.822 385.333 320.995 385.29 320.694H387.116C387.123 320.73 387.131 320.826 387.138 320.984C387.145 321.141 387.152 321.324 387.159 321.532C387.174 321.732 387.188 322.115 387.202 322.681H387.234C387.986 321.213 389.225 320.479 390.951 320.479C392.19 320.479 393.114 320.816 393.723 321.489C394.331 322.155 394.636 323.182 394.636 324.572V332.317H392.691ZM405.84 330.448C405.489 331.2 405.023 331.748 404.443 332.091C403.863 332.428 403.14 332.596 402.273 332.596C400.827 332.596 399.763 332.098 399.083 331.103C398.403 330.108 398.062 328.607 398.062 326.602C398.062 322.549 399.466 320.522 402.273 320.522C403.14 320.522 403.863 320.676 404.443 320.984C405.031 321.292 405.5 321.797 405.851 322.499H405.872L405.851 320.876V316.375H407.784V329.921C407.784 331.132 407.806 331.93 407.849 332.317H406.001C405.972 332.209 405.947 331.948 405.926 331.533C405.904 331.117 405.894 330.756 405.894 330.448H405.84ZM400.061 326.538C400.061 328.127 400.272 329.288 400.694 330.018C401.124 330.741 401.819 331.103 402.778 331.103C403.824 331.103 404.597 330.727 405.099 329.975C405.6 329.216 405.851 328.013 405.851 326.366C405.851 324.826 405.607 323.705 405.12 323.003C404.64 322.302 403.867 321.951 402.8 321.951C401.833 321.951 401.135 322.319 400.705 323.057C400.275 323.795 400.061 324.955 400.061 326.538ZM61.0479 355.792H65.1299V357.317H54.5811V355.792H59.1143V347.219H55.6875V345.694H61.0479V355.792ZM58.8994 343.438V341.375H61.0479V343.438H58.8994ZM75.582 357.317V349.851C75.582 348.877 75.3923 348.154 75.0127 347.681C74.6403 347.208 74.0423 346.972 73.2188 346.972C72.3307 346.972 71.6003 347.298 71.0273 347.95C70.4616 348.594 70.1787 349.472 70.1787 350.582V357.317H68.2451V348.175C68.2451 346.822 68.2236 345.995 68.1807 345.694H70.0068C70.014 345.73 70.0212 345.826 70.0283 345.984C70.0355 346.141 70.0426 346.324 70.0498 346.532C70.0641 346.732 70.0785 347.115 70.0928 347.681H70.125C70.877 346.213 72.1159 345.479 73.8418 345.479C75.0807 345.479 76.0046 345.816 76.6133 346.489C77.222 347.155 77.5264 348.182 77.5264 349.572V357.317H75.582ZM90.8574 353.998C90.8574 355.1 90.4385 355.967 89.6006 356.597C88.7699 357.22 87.6169 357.532 86.1416 357.532C84.6663 357.532 83.542 357.303 82.7686 356.844C82.0023 356.379 81.501 355.648 81.2646 354.653L82.9727 354.32C83.1087 354.936 83.3988 355.387 83.8428 355.673C84.2939 355.953 85.0602 356.092 86.1416 356.092C88.0752 356.092 89.042 355.48 89.042 354.255C89.042 353.797 88.8665 353.428 88.5156 353.149C88.1647 352.862 87.6276 352.63 86.9043 352.451C85.0137 351.985 83.8141 351.62 83.3057 351.355C82.7972 351.09 82.4069 350.761 82.1348 350.367C81.8626 349.966 81.7266 349.468 81.7266 348.874C81.7266 347.821 82.1061 346.997 82.8652 346.403C83.6243 345.808 84.7236 345.511 86.1631 345.511C87.4235 345.511 88.4297 345.751 89.1816 346.231C89.9336 346.704 90.4027 347.395 90.5889 348.304L88.8486 348.519C88.7699 348.003 88.5156 347.613 88.0859 347.348C87.6562 347.083 87.0153 346.951 86.1631 346.951C84.4085 346.951 83.5312 347.491 83.5312 348.573C83.5312 349.002 83.6781 349.346 83.9717 349.604C84.2725 349.862 84.7523 350.069 85.4111 350.227L86.6895 350.56C87.8568 350.847 88.6947 351.129 89.2031 351.409C89.7188 351.688 90.1234 352.039 90.417 352.461C90.7106 352.877 90.8574 353.389 90.8574 353.998ZM104.393 351.452C104.393 355.505 102.989 357.532 100.182 357.532C98.4199 357.532 97.2347 356.873 96.626 355.555H96.5723C96.6009 355.612 96.6152 356.207 96.6152 357.338V361.882H94.6709V348.1C94.6709 346.883 94.6494 346.081 94.6064 345.694H96.4863C96.4935 345.722 96.5042 345.83 96.5186 346.016C96.5329 346.195 96.5472 346.464 96.5615 346.822C96.583 347.173 96.5938 347.434 96.5938 347.606H96.6367C96.9948 346.854 97.4495 346.31 98.001 345.973C98.5596 345.629 99.2865 345.458 100.182 345.458C101.6 345.458 102.656 345.948 103.351 346.929C104.045 347.903 104.393 349.411 104.393 351.452ZM102.395 351.452C102.395 349.833 102.176 348.68 101.739 347.993C101.302 347.298 100.615 346.951 99.6768 346.951C98.5954 346.951 97.8148 347.345 97.335 348.132C96.8551 348.913 96.6152 350.098 96.6152 351.688C96.6152 353.213 96.8551 354.331 97.335 355.04C97.8148 355.749 98.5882 356.103 99.6553 356.103C100.608 356.103 101.302 355.741 101.739 355.018C102.176 354.295 102.395 353.106 102.395 351.452ZM113.899 355.792H117.981V357.317H107.433V355.792H111.966V347.219H108.539V345.694H113.899V355.792ZM111.751 343.438V341.375H113.899V343.438H111.751ZM130.335 347.456C129.533 347.319 128.774 347.251 128.058 347.251C126.905 347.251 125.974 347.685 125.265 348.551C124.556 349.418 124.201 350.521 124.201 351.86V357.317H122.268V349.787C122.268 349.242 122.217 348.601 122.117 347.864C122.024 347.126 121.888 346.403 121.709 345.694H123.546C123.832 346.682 124.004 347.577 124.062 348.379H124.115C124.473 347.577 124.824 346.99 125.168 346.618C125.512 346.238 125.92 345.955 126.393 345.769C126.865 345.576 127.442 345.479 128.122 345.479C128.867 345.479 129.604 345.54 130.335 345.662V347.456ZM135.781 351.914C135.781 353.217 136.068 354.237 136.641 354.975C137.221 355.713 138.012 356.082 139.015 356.082C139.752 356.082 140.397 355.924 140.948 355.609C141.507 355.287 141.879 354.85 142.065 354.298L143.763 354.782C143.448 355.67 142.868 356.35 142.022 356.823C141.185 357.295 140.182 357.532 139.015 357.532C137.325 357.532 136.025 357.005 135.115 355.953C134.206 354.9 133.751 353.392 133.751 351.43C133.751 349.518 134.195 348.05 135.083 347.026C135.978 345.995 137.267 345.479 138.95 345.479C140.633 345.479 141.908 345.991 142.774 347.015C143.641 348.039 144.074 349.586 144.074 351.656V351.914H135.781ZM138.972 346.908C138.012 346.908 137.253 347.223 136.694 347.853C136.136 348.476 135.839 349.335 135.803 350.431H142.076C141.876 348.082 140.841 346.908 138.972 346.908ZM150.863 357.317V354.105H153.388V357.317H150.863Z" fill="#7B86C5"/>
</svg>
