<svg width="34" height="29" viewBox="0 0 34 29" fill="none" xmlns="http://www.w3.org/2000/svg">
<path d="M4.56075 3.7857L0 7.85008L1.57806 9.80361C2.28082 9.37411 3.68634 8.2537 4.31312 8.2537C5.71865 8.2537 6.98216 11.9978 8.1878 16.1153C9.27043 19.8126 10.3911 29 15.5573 29C21.5023 29 34 13.2209 34 6.19809C34 3.65696 33.4872 0 28.3399 0C22.8242 0 20.1106 5.23338 19.4432 7.85008C19.9233 7.53539 21.2302 7.32562 21.9503 7.32562C24.8841 7.32562 24.2575 10.3154 23.8575 11.5216C23.4574 12.7278 20.3816 18.601 18.7231 18.601C16.6961 18.601 15.4959 9.94779 14.9091 6.19809C14.3224 2.44838 12.8021 0.403086 10.4817 0.403086C8.62543 0.403086 5.76095 2.65816 4.56075 3.7857Z" fill="#3CB9E6"/>
</svg>
